<svg xmlns="http://www.w3.org/2000/svg" width="93.713" height="75.525" viewBox="0 0 93.713 75.525"><g transform="translate(53.617)"><path d="M1177.58-225.117h14.363v31.91a24.176,24.176,0,0,1-24.148,24.148h-15.948v-6.186h15.948a9.8,9.8,0,0,0,9.785-9.785Z" transform="translate(-1151.847 244.584)" fill="#062d3d"/><path d="M2.207,0H37.89A2.206,2.206,0,0,1,40.1,2.206V37.893A2.207,2.207,0,0,1,37.889,40.1H2.207A2.207,2.207,0,0,1,0,37.893V2.207A2.207,2.207,0,0,1,2.207,0Z" fill="#062d3d"/></g><path d="M1154.342-225.117h14.363v31.91a24.177,24.177,0,0,1-24.148,24.148h-15.948v-6.186h15.948a9.8,9.8,0,0,0,9.785-9.785Z" transform="translate(-1128.609 244.584)" fill="#062d3d"/><path d="M2.207,0H37.891A2.205,2.205,0,0,1,40.1,2.205V37.893A2.207,2.207,0,0,1,37.889,40.1H2.207A2.207,2.207,0,0,1,0,37.893V2.207A2.207,2.207,0,0,1,2.207,0Z" transform="translate(0)" fill="#062d3d"/></svg>