<svg xmlns="http://www.w3.org/2000/svg" width="170" height="155.833" viewBox="0 0 170 155.833"><g transform="translate(-16 -40)"><path d="M474.833,412.833A2.833,2.833,0,0,1,472,410V378.833a2.833,2.833,0,0,1,5.667,0V410A2.833,2.833,0,0,1,474.833,412.833Z" transform="translate(-294.5 -217)" fill="#a98e72"/><path d="M214.167,272l-8.677,4.339a5.667,5.667,0,0,0-3.076,4.267L200,297.5h39.667l-2.413-16.894a5.667,5.667,0,0,0-3.076-4.267L225.5,272Z" transform="translate(-118.833 -149.833)" fill="#69b9e7"/><path d="M26.833,423.167A2.833,2.833,0,0,1,24,420.333v-25.5a2.833,2.833,0,0,1,5.667,0v25.5A2.833,2.833,0,0,1,26.833,423.167Z" transform="translate(-5.167 -227.333)" fill="#a98e72"/><path d="M120,376h11.333v34H120Z" transform="translate(-67.167 -217)" fill="#8e7760"/><path d="M360,376h11.333v34H360Z" transform="translate(-222.167 -217)" fill="#8e7760"/><path d="M120,376h11.333v5.667H120Z" transform="translate(-67.167 -217)" fill="#746250"/><path d="M360,376h11.333v5.667H360Z" transform="translate(-222.167 -217)" fill="#746250"/><path d="M232,304h17v14.167H232Z" transform="translate(-139.5 -170.5)" fill="#cdcdcd"/><path d="M414.667,360,392,374.167l14.167,25.5h5.667L406.167,377,426,368.5V360Z" transform="translate(-242.833 -206.667)" fill="#a8e6c7"/><path d="M355.834,310.674H341.667a2.833,2.833,0,0,1-2.795-2.367l-2.833-17a2.833,2.833,0,0,1,5.589-.932l2.439,14.633h11.766a2.833,2.833,0,1,1,0,5.667Z" transform="translate(-206.667 -160.174)" fill="#d9d9d9"/><path d="M114.833,310.608H129a2.833,2.833,0,0,0,2.795-2.367l2.833-17a2.833,2.833,0,1,0-5.578-1c0,.021-.007.042-.011.063L126.6,304.942H114.833a2.833,2.833,0,0,0,0,5.667Z" transform="translate(-62 -160.108)" fill="#d9d9d9"/><path d="M35.333,368,49.5,376.5,58,404.833H46.667L41,385l-17-5.667V368Z" transform="translate(-5.167 -211.833)" fill="#bef5fa"/><path d="M46.28,290.168l17.609,10.565H75.222v8.5H61.056l-11.333-5.667Z" transform="translate(-19.556 -161.567)" fill="#bef5fa"/><path d="M235.833,410H224.5l-2.833-22.667-4.007-4.007A5.667,5.667,0,0,1,216,379.32V376h28.333v3.32a5.667,5.667,0,0,1-1.66,4.007l-4.007,4.007Z" transform="translate(-129.167 -217)" fill="#69b9e7"/><path d="M306,48H277.667A5.666,5.666,0,0,0,272,53.667v17a5.666,5.666,0,0,0,5.667,5.667V87.667l17-11.333H306a5.666,5.666,0,0,0,5.667-5.667v-17A5.666,5.666,0,0,0,306,48Z" transform="translate(-165.333 -5.167)" fill="#fdb62f"/><path d="M48.5,100.333v11.333l17-11.333H79.667a5.666,5.666,0,0,0,5.667-5.667v-17A5.666,5.666,0,0,0,79.667,72h-34A5.666,5.666,0,0,0,40,77.667v17a5.666,5.666,0,0,0,5.667,5.667Z" transform="translate(-15.5 -20.667)" fill="#fcd795"/><path d="M333.667,80H362a5.666,5.666,0,0,1,5.667,5.667v17A5.666,5.666,0,0,1,362,108.333v11.333l-17-11.333H333.667A5.666,5.666,0,0,1,328,102.667v-17A5.666,5.666,0,0,1,333.667,80Z" transform="translate(-201.5 -25.833)" fill="#fdb62f"/><path d="M333.667,80A5.666,5.666,0,0,0,328,85.667V98.889L330.833,97h11.333a5.666,5.666,0,0,0,5.667-5.667V80Z" transform="translate(-201.5 -25.833)" fill="#ec9e15"/><g transform="translate(33 62.667)"><path d="M64,104h5.667v5.667H64Z" transform="translate(-64 -104)" fill="#fdb62f"/><path d="M96,104h5.667v5.667H96Z" transform="translate(-84.667 -104)" fill="#fdb62f"/><path d="M128,104h5.667v5.667H128Z" transform="translate(-105.333 -104)" fill="#fdb62f"/></g><path d="M16,464H186v5.667H16Z" transform="translate(0 -273.833)" fill="#746250"/><circle cx="8.5" cy="8.5" r="8.5" transform="translate(93 96.833)" fill="#69b9e7"/><circle cx="8.5" cy="8.5" r="8.5" transform="translate(166 102.833)" fill="#a8e6c7"/><circle cx="8.5" cy="8.5" r="8.5" transform="translate(19 102.833)" fill="#bef5fa"/><path d="M29.667,288A5.666,5.666,0,0,0,24,293.667v22.667H35.333V293.667A5.666,5.666,0,0,0,29.667,288Z" transform="translate(-5.167 -160.167)" fill="#bef5fa"/><path d="M461.667,288a5.666,5.666,0,0,1,5.667,5.667V313.5H456V293.667A5.666,5.666,0,0,1,461.667,288Z" transform="translate(-284.167 -160.167)" fill="#a8e6c7"/><path d="M412.333,291.2l-17,10.2H384v8.5h14.167l11.333-5.667Z" transform="translate(-237.667 -162.233)" fill="#a8e6c7"/><path d="M112,344H214v11.333H112Z" transform="translate(-62 -196.333)" fill="#a98e72"/><path d="M177.5,269.667c-3.643,0-6.476,2.464-7.446,3.431L156.882,281H146.333a2.833,2.833,0,0,0-2.833,2.833V289.5h-6.1l-2.439-14.633a2.833,2.833,0,0,0-5.589.932l2.284,13.7H123.29l-2.065-14.463a8.5,8.5,0,0,0-4.614-6.4l-8.677-4.339a2.836,2.836,0,0,0-1.267-.3H95.333a2.836,2.836,0,0,0-1.267.3l-8.677,4.339a8.5,8.5,0,0,0-4.612,6.4L78.71,289.5H70.344l2.284-13.7a2.833,2.833,0,1,0-5.587-.944l0,.012L64.6,289.5H58.5v-5.667A2.833,2.833,0,0,0,55.667,281H45.118l-13.172-7.9c-.97-.967-3.8-3.431-7.446-3.431a8.509,8.509,0,0,0-8.5,8.5v34a2.834,2.834,0,0,0,1.937,2.688l.9.3v19.68H16V340.5H186v-5.667h-2.833V309.581l1.116-.478A2.833,2.833,0,0,0,186,306.5V278.167a8.509,8.509,0,0,0-8.5-8.5ZM152,323.1l6.517,11.732H152Zm0-27.934h8.5a2.836,2.836,0,0,0,1.267-.3L169,291.251v5.178l-17,10.625ZM86.384,275.843a2.838,2.838,0,0,1,1.54-2.136L96,269.667h10l8.08,4.04a2.839,2.839,0,0,1,1.538,2.135l1.95,13.659h-5.234V278.167a2.833,2.833,0,0,0-2.833-2.833h-17a2.833,2.833,0,0,0-2.833,2.833V289.5H84.433ZM106.667,289.5H95.333V281h11.333Zm39.667,5.667v5.667H55.667v-5.667ZM118,306.986V306.5h17v28.333H109.876l2.315-18.518L115.51,313a8.443,8.443,0,0,0,2.49-6.011ZM86.49,313l3.319,3.319,2.315,18.518H67V306.5H84v.486A8.443,8.443,0,0,0,86.49,313ZM50,318.361l-2.952-9.842a2.836,2.836,0,0,0-1.256-1.616L33,299.229v-7.977l7.233,3.616a2.836,2.836,0,0,0,1.267.3H50Zm-25.5-1.319,9.02,3.006,4.226,14.785H24.5Zm19.137,17.791-5.08-17.779a2.834,2.834,0,0,0-1.827-1.909l-15.063-5.02V278.167a2.837,2.837,0,0,1,2.833-2.833c1.483,0,3.114,1.41,3.555,1.89a2.8,2.8,0,0,0,.653.539l14.167,8.5a2.839,2.839,0,0,0,1.458.4h8.5V289.5H42.168l-10.734-5.368a2.833,2.833,0,0,0-4.1,2.534v14.167a2.833,2.833,0,0,0,1.375,2.429L41.935,311.2l7.09,23.635Zm12.029,0V306.5h5.667v28.333Zm42.168,0-2.523-20.185A2.826,2.826,0,0,0,94.5,313L90.5,308.99a2.816,2.816,0,0,1-.83-2V306.5h22.667v.486a2.816,2.816,0,0,1-.83,2L107.5,313a2.829,2.829,0,0,0-.808,1.652l-2.523,20.185Zm42.832,0V306.5h5.667v28.333Zm24.334,0-12.05-21.69,20.384-12.74a2.835,2.835,0,0,0,1.332-2.4V286.667a2.833,2.833,0,0,0-4.1-2.534L159.832,289.5H149.167v-2.833h8.5a2.839,2.839,0,0,0,1.458-.4l14.167-8.5a2.8,2.8,0,0,0,.653-.539c.357-.4,2.009-1.89,3.555-1.89a2.837,2.837,0,0,1,2.833,2.833v26.466L162.217,312.4a2.833,2.833,0,0,0-1.633,3.291l4.787,19.146Zm12.5,0h-6.288l-4.545-18.18,10.833-4.642Z" transform="translate(0 -144.667)"/><path d="M269.667,73.514V82.5a2.833,2.833,0,0,0,4.4,2.357l9.9-6.6a8.5,8.5,0,0,0,8.358,7.079h10.476l16.286,10.857a2.833,2.833,0,0,0,4.405-2.357V84.848a8.515,8.515,0,0,0,5.667-8.014v-17a8.509,8.509,0,0,0-8.5-8.5H309.333V48.5a8.509,8.509,0,0,0-8.5-8.5H272.5a8.509,8.509,0,0,0-8.5,8.5v17a8.514,8.514,0,0,0,5.667,8.014Zm51-16.514a2.837,2.837,0,0,1,2.833,2.833v17a2.837,2.837,0,0,1-2.833,2.833,2.833,2.833,0,0,0-2.833,2.833v6.039l-12.6-8.4a2.836,2.836,0,0,0-1.571-.476H292.333a2.837,2.837,0,0,1-2.833-2.833V74.572l.858-.572h10.476a8.509,8.509,0,0,0,8.5-8.5V57ZM289.5,68.333v-8.5A2.837,2.837,0,0,1,292.333,57h11.333v8.5a2.837,2.837,0,0,1-2.833,2.833ZM269.667,48.5a2.837,2.837,0,0,1,2.833-2.833h28.333a2.837,2.837,0,0,1,2.833,2.833v2.833H292.333a8.509,8.509,0,0,0-8.5,8.5V71.539l-8.5,5.667V71.167a2.833,2.833,0,0,0-2.833-2.833,2.837,2.837,0,0,1-2.833-2.833Z" transform="translate(-160.167)"/><path d="M40.5,98v8.5a2.833,2.833,0,0,0,4.405,2.357L61.191,98H74.5A8.509,8.509,0,0,0,83,89.5v-17A8.509,8.509,0,0,0,74.5,64h-34A8.509,8.509,0,0,0,32,72.5v17A8.509,8.509,0,0,0,40.5,98ZM37.667,72.5A2.837,2.837,0,0,1,40.5,69.667h34A2.837,2.837,0,0,1,77.333,72.5v17A2.837,2.837,0,0,1,74.5,92.333H60.333a2.837,2.837,0,0,0-1.572.476l-12.595,8.4V95.167a2.833,2.833,0,0,0-2.833-2.833H40.5A2.837,2.837,0,0,1,37.667,89.5Z" transform="translate(-10.333 -15.5)"/><path d="M64,104h5.667v5.667H64Z" transform="translate(-31 -41.333)"/><path d="M96,104h5.667v5.667H96Z" transform="translate(-51.667 -41.333)"/><path d="M128,104h5.667v5.667H128Z" transform="translate(-72.333 -41.333)"/><path d="M235.333,214.667A11.333,11.333,0,1,0,224,203.333,11.333,11.333,0,0,0,235.333,214.667Zm0-17a5.667,5.667,0,1,1-5.667,5.667A5.666,5.666,0,0,1,235.333,197.667Z" transform="translate(-134.333 -98.167)"/><path d="M432,219.333A11.333,11.333,0,1,0,443.333,208,11.333,11.333,0,0,0,432,219.333Zm11.333-5.667a5.667,5.667,0,1,1-5.667,5.667A5.666,5.666,0,0,1,443.333,213.667Z" transform="translate(-268.667 -108.5)"/><path d="M27.333,230.667A11.333,11.333,0,1,0,16,219.333,11.333,11.333,0,0,0,27.333,230.667Zm0-17a5.667,5.667,0,1,1-5.667,5.667A5.666,5.666,0,0,1,27.333,213.667Z" transform="translate(0 -108.5)"/></g></svg>