<svg xmlns="http://www.w3.org/2000/svg" width="86.94" height="90.842" viewBox="0 0 86.94 90.842"><g transform="translate(0 0)"><path d="M90.8,89.334a43.47,43.47,0,1,0-72.665,0Z" transform="translate(-10.998 -18.092)" fill="#4fabf7"/><path d="M332.818,150.735c.035.082.069.165.1.247a8.021,8.021,0,0,1,.428,1.6,3.192,3.192,0,0,1,1.687-.388c.025-.875.071-1.774.118-2.564a10.019,10.019,0,0,1-2.335,1.1Z" transform="translate(-275.719 -123.083)" fill="#3c58a0"/><path d="M168.119,148.661c-.04.094-.079.187-.114.28a9.1,9.1,0,0,0-.485,1.815,3.616,3.616,0,0,0-1.912-.439c-.029-.991-.08-2.011-.134-2.906a11.352,11.352,0,0,0,2.646,1.25Z" transform="translate(-138.065 -121.256)" fill="#3c58a0"/><path d="M191.694,292.9a14.352,14.352,0,0,0,13.871-10.675l-2.277-1.011a3.756,3.756,0,0,1-2.057-2.27,17.134,17.134,0,0,1-.7-4.518c-2.4,2.792-5.126,4.693-8.835,4.693s-6.438-1.9-8.835-4.693a17.135,17.135,0,0,1-.7,4.52,3.756,3.756,0,0,1-2.058,2.27l-2.276,1.01A14.351,14.351,0,0,0,191.694,292.9Z" transform="translate(-148.224 -225.735)" fill="#fcad6d"/><path d="M182.858,274.425a17.134,17.134,0,0,1-.7,4.52,3.756,3.756,0,0,1-2.058,2.27l-2.276,1.01A14.368,14.368,0,0,0,188.6,292.563c3.494-5.272,3.1-13.445,3.1-13.445C187.984,279.118,185.255,277.217,182.858,274.425Z" transform="translate(-148.223 -225.735)" fill="#fd995b"/><path d="M67.66,330.467q-1.393.663-2.762,1.436a7.033,7.033,0,0,1-3.09,1.293c-6.856.561-10.247,4.88-11.9,9.524a43.711,43.711,0,0,0,11.479,11.99H67.66V330.467Z" transform="translate(-43.005 -271.833)" fill="#bec8f7"/><path d="M217.758,323.082a7.034,7.034,0,0,1-3.09-1.293,41.72,41.72,0,0,0-5.78-2.724l-2.012-.894a14.345,14.345,0,0,1-27.354.679V344.6h38.656a43.711,43.711,0,0,0,11.479-11.99c-1.651-4.644-5.043-8.964-11.9-9.525Z" transform="translate(-149.621 -261.72)" fill="#e9efff"/><path d="M396.041,426.406a43.687,43.687,0,0,0,5.392-4.513,11.073,11.073,0,0,0-2.23-3.613,1.986,1.986,0,0,0-3.453,1.337v6.79Z" transform="translate(-327.485 -343.529)" fill="#bec8f7"/><path d="M334.57,162.68a2.5,2.5,0,0,0-2.663.076,8.362,8.362,0,0,1,.025,2.463l-.7,5.116q0,.619-.037,1.214c1.713.517,2.563-1.021,2.707-2.076a7.857,7.857,0,0,1,.3-1.339c.456-1.423,2.1-3.867.368-5.454Z" transform="translate(-274.382 -133.521)" fill="#fcad6d"/><path d="M158.178,162.68a2.5,2.5,0,0,1,2.663.076,8.363,8.363,0,0,0-.025,2.463l.7,5.116q0,.619.037,1.214c-1.713.517-2.564-1.021-2.707-2.076a7.851,7.851,0,0,0-.3-1.339c-.456-1.423-2.1-3.867-.368-5.454Z" transform="translate(-131.426 -133.521)" fill="#fd995b"/><g transform="translate(29.232 27.31)"><path d="M203.629,154.072a11.156,11.156,0,0,1-3.288.49H180.152a11.077,11.077,0,0,1-3.734-.639c-.04.089-.08.18-.117.277a8.278,8.278,0,0,0-.468,4.12l.7,5.106a18.918,18.918,0,0,0,7.3,15.012,10.066,10.066,0,0,0,12.318,0,18.91,18.91,0,0,0,7.3-15l.7-5.116a8.285,8.285,0,0,0-.452-4.082c-.022-.058-.045-.112-.068-.167Z" transform="translate(-175.754 -153.922)" fill="#f9ba8f"/></g><g transform="translate(29.232 27.31)"><path d="M193.855,178.436a18.919,18.919,0,0,1-7.3-15.012l-.7-5.106a8.317,8.317,0,0,1,.34-3.758h-6.044a11.079,11.079,0,0,1-3.734-.639c-.04.089-.08.18-.117.277a8.278,8.278,0,0,0-.468,4.12l.7,5.106a18.918,18.918,0,0,0,7.3,15.012A10.071,10.071,0,0,0,195,179.2,9.966,9.966,0,0,1,193.855,178.436Z" transform="translate(-175.754 -153.921)" fill="#fcad6d"/></g><path d="M281.1,438.861a9.163,9.163,0,0,1-1.38-1.48H256.646q-.314.526-.646,1.055V450.62a43.27,43.27,0,0,0,25.576-8.321c.088-.355.177-.705.269-1.045a2.339,2.339,0,0,0-.741-2.394Z" transform="translate(-212.53 -359.778)" fill="#ffc839"/><path d="M135.153,437.38H112.075a9.164,9.164,0,0,1-1.38,1.48,2.34,2.34,0,0,0-.742,2.394c.092.34.181.689.269,1.045A43.271,43.271,0,0,0,135.8,450.62V438.435Q135.467,437.906,135.153,437.38Z" transform="translate(-92.329 -359.777)" fill="#ffc839"/><g transform="translate(19.553 55.65)"><path d="M124.723,316.561c-.1,2.135-.339,6.367-.788,11.651a13.769,13.769,0,0,1-2.732,7.639h23.421q-.227-.376-.446-.75a13.333,13.333,0,0,0-.818-1.241A63.025,63.025,0,0,1,133.6,314.8a1.612,1.612,0,0,0-1.852-1.124l-5.472,1.076A1.93,1.93,0,0,0,124.723,316.561Z" transform="translate(-121.202 -313.65)" fill="#ffdd40"/><path d="M282.216,335.852a13.77,13.77,0,0,1-2.732-7.639c-.45-5.285-.685-9.516-.789-11.651a1.929,1.929,0,0,0-1.548-1.8l-5.472-1.076a1.612,1.612,0,0,0-1.852,1.124,63.012,63.012,0,0,1-9.764,19.056,13.306,13.306,0,0,0-.818,1.241q-.219.374-.446.75Z" transform="translate(-234.382 -313.651)" fill="#ffdd40"/><path d="M250.3,436.328a1.236,1.236,0,0,0-1.229,1.242v12.166c.408.011.818.018,1.229.018s.821-.007,1.229-.018V437.57A1.236,1.236,0,0,0,250.3,436.328Z" transform="translate(-226.385 -414.562)" fill="#ffdd40"/></g><g transform="translate(41.933 80.323)"><path d="M248.877,458.876a1.545,1.545,0,0,1-1.536-1.552v-3.062a1.537,1.537,0,1,1,3.073,0v3.062A1.545,1.545,0,0,1,248.877,458.876Z" transform="translate(-247.34 -452.709)" fill="#e9efff"/></g><path d="M335.053,313.053l-2.935-.577a.614.614,0,0,0-.728.607v32.685a43.166,43.166,0,0,0,4.159-1.585V313.659A.616.616,0,0,0,335.053,313.053Z" transform="translate(-274.543 -257.024)" fill="#ffb332"/><path d="M160.6,312.476l-2.935.577a.616.616,0,0,0-.495.607v30.523a43.158,43.158,0,0,0,4.159,1.585V313.083a.613.613,0,0,0-.729-.606Z" transform="translate(-131.237 -257.025)" fill="#ffb332"/><path d="M334.272,440.257a2.062,2.062,0,0,1-2.883-1.888v10.95a43.166,43.166,0,0,0,4.159-1.585v-9.382A2.052,2.052,0,0,1,334.272,440.257Z" transform="translate(-274.543 -360.577)" fill="#ff9100"/><path d="M158.49,440.273a2.052,2.052,0,0,1-1.317-1.922v9.382a43.148,43.148,0,0,0,4.159,1.585v-10.95a2.062,2.062,0,0,1-2.842,1.9Z" transform="translate(-131.238 -360.577)" fill="#ff9100"/><path d="M181.749,95.174l-1.251-.516c.06.5.095.908.114,1.178a1.01,1.01,0,0,1-.2.673A12.673,12.673,0,0,1,176.5,99.8a7.016,7.016,0,0,1-3.431.879H152.454a7.015,7.015,0,0,1-3.431-.879,12.67,12.67,0,0,1-3.916-3.288,1.009,1.009,0,0,1-.2-.673c.019-.27.053-.674.113-1.178l-1.251.516a2.11,2.11,0,0,0-1.324,2.62,19.144,19.144,0,0,0,2.316,4.735,7.71,7.71,0,0,0,1.72,1.695,10.5,10.5,0,0,0,6.183,1.928h20.188a10.5,10.5,0,0,0,6.183-1.928,7.7,7.7,0,0,0,1.72-1.695,19.145,19.145,0,0,0,2.316-4.735,2.11,2.11,0,0,0-1.324-2.62Z" transform="translate(-119.035 -77.863)" fill="#ffe98d"/><path d="M158.606,106.152c-2.616-2.616.229-5.351.229-5.351l-.129-.125h-6.252a7.015,7.015,0,0,1-3.431-.879,12.67,12.67,0,0,1-3.916-3.288,1.009,1.009,0,0,1-.2-.673c.019-.27.053-.674.114-1.178l-1.251.516a2.11,2.11,0,0,0-1.324,2.62,19.145,19.145,0,0,0,2.316,4.735,7.707,7.707,0,0,0,1.72,1.695,10.5,10.5,0,0,0,6.183,1.928Z" transform="translate(-119.036 -77.862)" fill="#ffdd40"/><path d="M170.072,10.778a18.914,18.914,0,0,0-8.509,3.744c-4.627,3.793-5.432,10.93-5.56,12.641a1,1,0,0,0,.222.7,12.578,12.578,0,0,0,3.958,3.1,7.594,7.594,0,0,0,3.508.839h6.381Z" transform="translate(-130.273 -8.865)" fill="#ffc839"/><path d="M291.923,15.311a18.48,18.48,0,0,0-7.678-3.574V32.593h5.549a7.6,7.6,0,0,0,3.508-.839,12.578,12.578,0,0,0,3.958-3.1,1,1,0,0,0,.222-.7c-.128-1.711-.933-8.847-5.56-12.641Z" transform="translate(-235.764 -9.654)" fill="#ffdd40"/><path d="M220.351,22.577c1.87-1.451,4.1-3.69,4.1-6.118V5.95c0-.014,0-.028,0-.043a23.368,23.368,0,0,0-3.146.584,1.389,1.389,0,0,0-1.137,1.268V22.725c.06-.05.12-.1.182-.149Z" transform="translate(-183.057 -4.859)" fill="#ff9100"/><path d="M270.564,5.95V16.458c0,2.428,2.229,4.667,4.1,6.118.062.048.122.1.182.149V7.758a1.389,1.389,0,0,0-1.137-1.268,23.37,23.37,0,0,0-3.146-.584C270.563,5.921,270.564,5.935,270.564,5.95Z" transform="translate(-224.508 -4.859)" fill="#ffb332"/><path d="M222.2,17.633c-1.848-1.434-4.054-3.646-4.054-6.033V1.091A1.161,1.161,0,0,0,216.967.044a19.164,19.164,0,0,0-2.6,0A1.162,1.162,0,0,0,213.2,1.091V11.6c0,2.387-2.206,4.6-4.054,6.033a6.02,6.02,0,0,0-2.48,4.728v.578h18.017V22.36a6.02,6.02,0,0,0-2.48-4.728Z" transform="translate(-171.945 0)" fill="#ffc839"/><g transform="translate(34.716 12.683)"><path d="M242.651,71.481h0l0,.011,0-.011Z" transform="translate(-236.263 -71.481)" fill="#ffb332"/><path d="M215.625,77.023c-3.674-.88-2.668-5.081-2.583-5.412-.53,1.955-2.343,3.717-3.9,4.927a6.02,6.02,0,0,0-2.48,4.728v.578h9.269C217,79.827,217.693,77.519,215.625,77.023Z" transform="translate(-206.66 -71.588)" fill="#ffb332"/></g><path d="M243.161,106.934V105.76a3.936,3.936,0,0,0-7.851,0v1.174Z" transform="translate(-195.511 -83.996)" fill="#ffdd40"/><path d="M369.428,71.481c-1.726,1.959-3.714,5.624-.943,10.551,4.258,7.57-14.076,25-2.6,29.472,7.845,3.06,14.306,4.719,18.214,9.516a43.514,43.514,0,0,0-14.669-49.539Z" transform="translate(-299.761 -58.798)" fill="#73c3f9"/><path d="M28.27,71.481c1.726,1.959,3.714,5.624.943,10.551-4.258,7.57,14.076,25,2.6,29.472-7.845,3.06-14.306,4.719-18.214,9.516A43.514,43.514,0,0,1,28.27,71.481Z" transform="translate(-10.997 -58.798)" fill="#73c3f9"/><path d="M319.742,37.785c-.561-2.925-1.92-7.282-5.194-9.967-.386-.317-.784-.607-1.187-.877a3.725,3.725,0,0,0-1.611,3.195c0,3.549.1,10.143,3.45,10.143,2.418,0,3.9-1.032,4.542-2.494Z" transform="translate(-258.389 -22.162)" fill="#ffe98d"/></g></svg>