<svg xmlns="http://www.w3.org/2000/svg" width="86" height="115.374" viewBox="0 0 86 115.374"><g transform="translate(-65.177 0.001)"><path d="M250.207,178.088a3.141,3.141,0,0,0,3.138-3.137V172.41a1.69,1.69,0,0,0-3.38,0v2.315a1.69,1.69,0,0,0,.242,3.363Z" transform="translate(-142.027 -132.251)"/><path d="M201.446,376.393a1.69,1.69,0,1,0,0-3.38h-1.071l.416-1.552a1.69,1.69,0,1,0-3.265-.875l-.65,2.427h-2.7l.416-1.553a1.69,1.69,0,1,0-3.265-.875l-.65,2.427h-2.79a1.69,1.69,0,1,0,0,3.38h1.884l-.757,2.824h-2.287a1.69,1.69,0,0,0,0,3.38H188.1l-.292,1.09a1.69,1.69,0,1,0,3.265.875l.526-1.965h2.7l-.292,1.09a1.69,1.69,0,1,0,3.265.875l.527-1.965h2.479a1.69,1.69,0,1,0,0-3.38h-1.573l.757-2.824h1.977Zm-6.233,2.823h-2.7l.756-2.824h2.7Z" transform="translate(-92.847 -286.108)"/><path d="M283.128,382.435a1.69,1.69,0,1,0,0,3.38h6.88a1.69,1.69,0,1,0,0-3.38h-1.75V371.024a1.69,1.69,0,0,0-3.38,0,1.26,1.26,0,0,1-1.258,1.259,1.69,1.69,0,1,0,0,3.38,4.629,4.629,0,0,0,1.258-.174v6.946h-1.75Z" transform="translate(-167.529 -286.109)"/><path d="M143.09,62.051a1.69,1.69,0,0,0,1.69-1.69V28.79a1.938,1.938,0,0,0,2.034-.452l3.8-3.8a1.942,1.942,0,0,0,0-2.741l-5.831-5.831V9.062A2.666,2.666,0,0,0,142.117,6.4h-6.908L129.378.568a1.939,1.939,0,0,0-2.742,0l-3.8,3.8a1.943,1.943,0,0,0-.449,2.033H93.964a1.943,1.943,0,0,0-.451-2.034L89.719.569a1.938,1.938,0,0,0-2.744,0L81.145,6.4H74.237a2.666,2.666,0,0,0-2.663,2.663v6.908L65.743,21.8a1.942,1.942,0,0,0,0,2.741l3.795,3.795a1.94,1.94,0,0,0,2.036.453V86.583a1.938,1.938,0,0,0-2.034.452l-3.8,3.8a1.942,1.942,0,0,0,0,2.741L71.574,99.4v6.908a2.666,2.666,0,0,0,2.663,2.663h6.908l5.83,5.83a1.939,1.939,0,0,0,2.742,0l3.8-3.8a1.943,1.943,0,0,0,.449-2.033c29.368,0,25.083,0,25.521,0a25.415,25.415,0,0,0,25.294-25.294c0-.027,0,.552,0-15.433a1.69,1.69,0,1,0-3.38,0c0,.118,0,15.291,0,15.4a8.138,8.138,0,0,1-8.159,8.038h-3.084a2.666,2.666,0,0,0-2.663,2.663v3.084a8.138,8.138,0,0,1-8.038,8.159H90.842L74.954,89.707V25.666l4.6-4.6v6.915a1.69,1.69,0,1,0,3.38,0V17.762h50.478V75.541H129.56V72.575a1.69,1.69,0,0,0-3.38,0v2.966h-3.574V69.2a1.69,1.69,0,1,0-3.38,0v6.342h-7.475l5.388-18.163h3.079a5.969,5.969,0,0,1,5.962,5.962v1.348a1.69,1.69,0,0,0,3.38,0V63.34A9.353,9.353,0,0,0,120.217,54h-4.345a.6.6,0,0,1-.6-.6V51.955a10.616,10.616,0,0,0,4.457-7.442c.011-.143.72-9.768.728-9.882a12.311,12.311,0,1,0-24.567-.019c.011.18.062.871.727,9.9a10.616,10.616,0,0,0,4.457,7.442V53.4a.6.6,0,0,1-.6.6H96.137A9.353,9.353,0,0,0,86.8,63.339v12.2H82.939V35.864a1.69,1.69,0,1,0-3.38,0V76.887a2.036,2.036,0,0,0,2.034,2.034h53.17a2.036,2.036,0,0,0,2.034-2.034V21.063l4.6,4.6V60.361a1.69,1.69,0,0,0,1.69,1.69Zm-30.891.094-1.1-1.9,1.986-1.092-.888,2.994Zm-8.932-2.994,1.986,1.092-1.1,1.9-.888-2.994Zm4.862,16.39L105.48,66.61l2.7-4.672,2.7,4.672-2.649,8.931Zm-.065-50.669a8.93,8.93,0,0,1,8.994,7.948h-8.706a.223.223,0,0,1-.223-.223V29.743a1.69,1.69,0,0,0-2.885-1.195l-4.14,4.14a.445.445,0,0,1-.317.131H99.31a8.883,8.883,0,0,1,8.754-7.948ZM99.4,36.2h1.39a3.8,3.8,0,0,0,2.707-1.121l1.416-1.416a3.609,3.609,0,0,0,3.442,2.537h8.6l-.594,8.065c-.306,4.152-5.9,7.187-8.185,7.187s-7.879-3.035-8.185-7.187Zm8.779,18.633a10.036,10.036,0,0,0,3.754-.91,3.955,3.955,0,0,0,.623,1.665l-4.377,2.406L103.8,55.586a3.955,3.955,0,0,0,.623-1.665,10.036,10.036,0,0,0,3.754.91ZM97.128,75.541V69.2a1.69,1.69,0,1,0-3.38,0v6.342H90.174V63.34a5.969,5.969,0,0,1,5.962-5.962h3.079L104.6,75.541H97.128Zm48.315-50.612L130.292,9.778h3.516L147.2,23.171ZM141.4,9.778v2.811l-2.811-2.811Zm-13.393-5.8L130.428,6.4h-3.516l-.663-.663Zm-39.66,0L90.1,5.735,74.954,20.886V17.37L88.347,3.977Zm-13.393,5.8h2.811l-2.811,2.811Zm-5.8,13.393,2.421-2.421v3.516l-.663.663Zm1.758,67.273,15.151,15.151H82.545L69.152,92.2Zm4.043,15.151v-2.811l2.811,2.811Zm13.393,5.8-2.421-2.421h3.516l.663.663Zm42.527-13.961V95.068h2.367a11.514,11.514,0,0,0,5.789-1.553,22.263,22.263,0,0,1-9.709,9.709A11.516,11.516,0,0,0,130.873,97.435ZM90.842,9.778h34.67l4.6,4.6H86.238Z"/></g></svg>