<svg xmlns="http://www.w3.org/2000/svg" width="99.181" height="115.411" viewBox="0 0 99.181 115.411"><g transform="translate(-36)"><path d="M78.828,65.369a2.254,2.254,0,0,0,2.254-2.254V49.591a2.254,2.254,0,0,0-2.254-2.254H70.294c2.636-2.758,4.026-6.63,4.026-11.271,0-7.35-7.022-15.2-11.251-19.257a9.016,9.016,0,1,0-9.055,0c-4.23,4.06-11.251,11.907-11.251,19.257,0,4.64,1.39,8.513,4.026,11.271H38.254A2.254,2.254,0,0,0,36,49.591V63.115a2.254,2.254,0,0,0,2.254,2.254H49.525V86.107A11.283,11.283,0,0,1,38.254,97.378,2.254,2.254,0,0,0,36,99.632v13.525a2.254,2.254,0,0,0,2.254,2.254H48.4a2.254,2.254,0,1,0,0-4.508H40.508v-9.016H76.574V110.9H68.685a2.254,2.254,0,0,0,0,4.508H78.828a2.254,2.254,0,0,0,2.254-2.254V99.632a2.254,2.254,0,0,0-2.254-2.254A11.283,11.283,0,0,1,67.558,86.107V65.369ZM58.541,4.508a4.508,4.508,0,1,1-4.508,4.508A4.513,4.513,0,0,1,58.541,4.508ZM47.271,36.066c0-5.983,7.175-13.652,11.272-17.321,4.1,3.664,11.269,11.324,11.269,17.321,0,10.172-7.882,11.271-11.271,11.271S47.271,46.238,47.271,36.066ZM40.508,51.845H76.574v9.016H40.508ZM67.8,97.378H49.283a15.73,15.73,0,0,0,4.75-11.271V65.369h9.016V86.107A15.73,15.73,0,0,0,67.8,97.378Z"/><path d="M318.828,58.607a2.254,2.254,0,0,0,2.254-2.254V42.828a2.254,2.254,0,0,0-2.254-2.254h-9.878l5.131-10.263a2.254,2.254,0,0,0,.238-1.008V22.541a2.254,2.254,0,0,0-2.254-2.254H300.8V11.271H305.3a2.254,2.254,0,0,0,0-4.508H300.8V2.254a2.254,2.254,0,0,0-4.508,0V6.762h-4.508a2.254,2.254,0,1,0,0,4.508h4.508v9.016H285.016a2.254,2.254,0,0,0-2.254,2.254V29.3A2.251,2.251,0,0,0,283,30.312l5.131,10.263h-9.878A2.254,2.254,0,0,0,276,42.828V56.353a2.254,2.254,0,0,0,2.254,2.254h11.271v27.5a11.283,11.283,0,0,1-11.271,11.271A2.254,2.254,0,0,0,276,99.632v13.525a2.254,2.254,0,0,0,2.254,2.254H288.4a2.254,2.254,0,1,0,0-4.508h-7.889v-9.016h36.066V110.9h-7.889a2.254,2.254,0,1,0,0,4.508h10.144a2.254,2.254,0,0,0,2.254-2.254V99.632a2.254,2.254,0,0,0-2.254-2.254,11.283,11.283,0,0,1-11.271-11.271v-27.5ZM287.271,28.772V24.8h22.541v3.976l-5.9,11.8H293.172Zm-6.762,16.311h36.066V54.1H280.508Zm27.292,52.3H289.283a15.731,15.731,0,0,0,4.75-11.271v-27.5h9.016v27.5A15.73,15.73,0,0,0,307.8,97.378Z" transform="translate(-185.901)"/><ellipse cx="2.5" cy="2" rx="2.5" ry="2" transform="translate(56 111)"/><ellipse cx="2.5" cy="2" rx="2.5" ry="2" transform="translate(110 111)"/></g></svg>