<svg xmlns="http://www.w3.org/2000/svg" width="170" height="170" viewBox="0 0 170 170"><g transform="translate(-24 -24)"><path d="M223.832,179.965A43.994,43.994,0,1,1,178.2,136.037c.553-.026,1.11-.037,1.671-.037a43.926,43.926,0,0,1,43.966,43.886Z" transform="translate(-70.867 -70.965)" fill="#0093b9"/><g transform="translate(65.024 65.034)"><path d="M296.237,171.381,285.352,174.1l-17.586-2.931v-8.793l-5.862-8.793-8.793-5.862-1.671-11.687c.553-.026,1.11-.037,1.671-.037A43.981,43.981,0,0,1,296.237,171.381Z" transform="translate(-209.134 -136)" fill="#85bb40"/><path d="M162.361,197.8v8.793l5.862,8.793v13.072a43.978,43.978,0,0,1-5.562-82.816l5.562,11.123v14.655l11.724,5.862-5.862,14.655Z" transform="translate(-135.971 -142.108)" fill="#85bb40"/><path d="M303.283,283.521a44,44,0,0,1-37.231,31.369L264,300.517l8.793-5.862L278.655,280h17.586Z" transform="translate(-217.093 -227.241)" fill="#85bb40"/></g><path d="M78.9,55.448a23.437,23.437,0,1,1,0-.023Z" transform="translate(-5.069 -5.069)" fill="#0093b9"/><circle cx="8.5" cy="8.5" r="8.5" transform="translate(42 39)" fill="#f6bc1b"/><path d="M87.448,123.724v2.726a23.483,23.483,0,0,1-23.448,0v-2.726a11.724,11.724,0,1,1,23.448,0Z" transform="translate(-25.345 -55.759)" fill="#f6bc1b"/><path d="M398.9,55.448a23.437,23.437,0,1,1,0-.023Z" transform="translate(-207.828 -5.069)" fill="#0093b9"/><circle cx="8.5" cy="8.5" r="8.5" transform="translate(159 39)" fill="#f6bc1b"/><path d="M407.448,123.724v2.726a23.483,23.483,0,0,1-23.448,0v-2.726a11.724,11.724,0,0,1,23.448,0Z" transform="translate(-228.103 -55.759)" fill="#f6bc1b"/><path d="M78.9,375.448a23.437,23.437,0,1,1,0-.023Z" transform="translate(-5.069 -207.828)" fill="#0093b9"/><circle cx="8.5" cy="8.5" r="8.5" transform="translate(42 156)" fill="#f6bc1b"/><path d="M87.448,443.724v2.726a23.483,23.483,0,0,1-23.448,0v-2.726a11.724,11.724,0,1,1,23.448,0Z" transform="translate(-25.345 -258.517)" fill="#f6bc1b"/><path d="M398.9,375.448a23.437,23.437,0,1,1,0-.023Z" transform="translate(-207.828 -207.828)" fill="#0093b9"/><circle cx="8.5" cy="8.5" r="8.5" transform="translate(159 156)" fill="#f6bc1b"/><path d="M407.448,443.724v2.726a23.483,23.483,0,0,1-23.448,0v-2.726a11.724,11.724,0,0,1,23.448,0Z" transform="translate(-228.103 -258.517)" fill="#f6bc1b"/><path d="M50.379,344a26.379,26.379,0,1,0,26.379,26.379A26.379,26.379,0,0,0,50.379,344Zm-8.793,44.913v-.947a8.793,8.793,0,0,1,17.586,0v.947A20.481,20.481,0,0,1,41.586,388.913Zm2.931-21.465a5.862,5.862,0,1,1,5.862,5.862A5.862,5.862,0,0,1,44.517,367.448Zm20.221,17.568a14.549,14.549,0,0,0-3.994-7.414,14.8,14.8,0,0,0-2.162-1.786A11.724,11.724,0,1,0,42,375.638c.06.062.121.123.183.183a14.692,14.692,0,0,0-6.162,9.2,20.517,20.517,0,1,1,29.014-.3q-.148.151-.3.3Z" transform="translate(0 -202.759)"/><path d="M50.379,76.759A26.379,26.379,0,1,0,24,50.379,26.38,26.38,0,0,0,50.379,76.759Zm-8.793-7.846v-.947a8.793,8.793,0,0,1,17.586,0v.947A20.481,20.481,0,0,1,41.586,68.913Zm2.931-21.465a5.862,5.862,0,1,1,5.862,5.862A5.862,5.862,0,0,1,44.517,47.448Zm5.862-17.586A20.5,20.5,0,0,1,64.738,65.016,14.549,14.549,0,0,0,60.745,57.6a14.8,14.8,0,0,0-2.162-1.786A11.724,11.724,0,1,0,42,55.638c.06.062.121.123.183.183a14.692,14.692,0,0,0-6.162,9.2A20.5,20.5,0,0,1,50.379,29.862Z"/><path d="M174.9,128a46.9,46.9,0,1,0,46.9,46.9A46.9,46.9,0,0,0,174.9,128Zm39.609,36.171-7.487,1.872-14.536-2.423v-6.31a2.931,2.931,0,0,0-.492-1.626l-5.862-8.793a2.939,2.939,0,0,0-.813-.813l-7.7-5.136-1.007-7.044a41.114,41.114,0,0,1,37.9,30.272ZM133.862,174.9a41.08,41.08,0,0,1,22.409-36.558l3.97,7.94v13.963a2.931,2.931,0,0,0,1.62,2.621l9.312,4.656-4.447,11.117L156,184a2.932,2.932,0,0,0-1.619,2.621v8.793a2.931,2.931,0,0,0,.492,1.626l5.37,8.054v8.129A41.1,41.1,0,0,1,133.862,174.9ZM166.1,214.978V204.207a2.931,2.931,0,0,0-.492-1.626l-5.37-8.054v-6.094l10.1-5.052a2.932,2.932,0,0,0,1.411-1.533l5.862-14.655a2.931,2.931,0,0,0-1.411-3.71l-10.1-5.052V145.586a2.929,2.929,0,0,0-.31-1.311l-4.114-8.229a40.713,40.713,0,0,1,9.03-1.972l1.286,9a2.931,2.931,0,0,0,1.275,2.024l8.305,5.537,5.045,7.567V166.1a2.931,2.931,0,0,0,2.449,2.891l17.586,2.931a2.943,2.943,0,0,0,1.193-.048l7.781-1.946a41.12,41.12,0,0,1-.494,13.014l-3.756-1.878a2.929,2.929,0,0,0-1.311-.31H192.483a2.931,2.931,0,0,0-2.721,1.843l-5.522,13.81-8.036,5.357a2.931,2.931,0,0,0-1.276,2.853l1.61,11.274c-.544.021-1.09.037-1.639.037a41.037,41.037,0,0,1-8.795-.954Zm16.261.268-1.374-9.627,7.257-4.836a2.933,2.933,0,0,0,1.1-1.35l5.125-12.813h14.909l4.162,2.081a41.174,41.174,0,0,1-31.174,26.546Z" transform="translate(-65.897 -65.897)"/><path d="M320,304h5.862v5.862H320Z" transform="translate(-187.552 -177.414)"/><path d="M320,200h5.862v5.862H320Z" transform="translate(-187.552 -111.517)"/><path d="M184,192h5.862v5.862H184Z" transform="translate(-101.379 -106.448)"/><path d="M168,280h5.862v5.862H168Z" transform="translate(-91.241 -162.207)"/><path d="M312,408h5.862v5.862H312Z" transform="translate(-182.483 -243.31)"/><path d="M280,408h5.862v5.862H280Z" transform="translate(-162.207 -243.31)"/><path d="M248,408h5.862v5.862H248Z" transform="translate(-141.931 -243.31)"/><path d="M216,408h5.862v5.862H216Z" transform="translate(-121.655 -243.31)"/><path d="M184,408h5.862v5.862H184Z" transform="translate(-101.379 -243.31)"/><path d="M370.379,344a26.379,26.379,0,1,0,26.379,26.379A26.38,26.38,0,0,0,370.379,344Zm-8.793,44.913v-.947a8.793,8.793,0,0,1,17.586,0v.947A20.481,20.481,0,0,1,361.586,388.913Zm2.931-21.465a5.862,5.862,0,1,1,5.862,5.862A5.862,5.862,0,0,1,364.517,367.448Zm20.219,17.569a14.692,14.692,0,0,0-6.162-9.2A11.724,11.724,0,1,0,362,375.632q.091.092.183.183a14.817,14.817,0,0,0-2.162,1.786,14.549,14.549,0,0,0-3.994,7.414,20.517,20.517,0,1,1,29.014-.3q-.148.151-.3.3Z" transform="translate(-202.759 -202.759)"/><path d="M370.379,76.759A26.379,26.379,0,1,0,344,50.379,26.38,26.38,0,0,0,370.379,76.759Zm-8.793-7.846v-.947a8.793,8.793,0,0,1,17.586,0v.947A20.481,20.481,0,0,1,361.586,68.913Zm2.931-21.465a5.862,5.862,0,1,1,5.862,5.862A5.862,5.862,0,0,1,364.517,47.448Zm5.862-17.586a20.5,20.5,0,0,1,14.357,35.156,14.692,14.692,0,0,0-6.162-9.2A11.724,11.724,0,1,0,362,55.632q.091.092.183.183a14.82,14.82,0,0,0-2.162,1.786,14.549,14.549,0,0,0-3.994,7.414,20.5,20.5,0,0,1,14.356-35.154Z" transform="translate(-202.759)"/><path d="M312,88h5.862v5.862H312Z" transform="translate(-182.483 -40.552)"/><path d="M280,88h5.862v5.862H280Z" transform="translate(-162.207 -40.552)"/><path d="M248,88h5.862v5.862H248Z" transform="translate(-141.931 -40.552)"/><path d="M216,88h5.862v5.862H216Z" transform="translate(-121.655 -40.552)"/><path d="M184,88h5.862v5.862H184Z" transform="translate(-101.379 -40.552)"/><path d="M88,312h5.862v5.862H88Z" transform="translate(-40.552 -182.483)"/><path d="M88,280h5.862v5.862H88Z" transform="translate(-40.552 -162.207)"/><path d="M88,248h5.862v5.862H88Z" transform="translate(-40.552 -141.931)"/><path d="M88,216h5.862v5.862H88Z" transform="translate(-40.552 -121.655)"/><path d="M88,184h5.862v5.862H88Z" transform="translate(-40.552 -101.379)"/><path d="M408,312h5.862v5.862H408Z" transform="translate(-243.31 -182.483)"/><path d="M408,280h5.862v5.862H408Z" transform="translate(-243.31 -162.207)"/><path d="M408,248h5.862v5.862H408Z" transform="translate(-243.31 -141.931)"/><path d="M408,216h5.862v5.862H408Z" transform="translate(-243.31 -121.655)"/><path d="M408,184h5.862v5.862H408Z" transform="translate(-243.31 -101.379)"/></g></svg>