<svg xmlns="http://www.w3.org/2000/svg" width="170" height="170" viewBox="0 0 170 170"><rect width="164" height="164" transform="translate(3 3)" fill="#ececec"/><rect width="88" height="77" transform="translate(13 74)" fill="#b6c1ce"/><rect width="88" height="33" transform="translate(13 118)" fill="#fcd770"/><rect width="54" height="164" transform="translate(113 3)" fill="#b6c1ce"/><g transform="translate(2.684 2.684)"><rect width="164" height="22" transform="translate(0.315 0.315)" fill="#fb5968"/><ellipse cx="32.5" cy="33" rx="32.5" ry="33" transform="translate(22.315 38.315)" fill="#fb5968"/></g><path d="M104.9,232.79A32.887,32.887,0,0,1,72.285,204a32.9,32.9,0,1,0,65.236,0A32.887,32.887,0,0,1,104.9,232.79Z" transform="translate(-47.323 -134.081)" fill="#cd2c5a"/><path d="M136,203.419V176l27.419,13.71Z" transform="translate(-89.387 -115.677)" fill="#ececec"/><ellipse cx="8.5" cy="8" rx="8.5" ry="8" transform="translate(49 126)" fill="#fea82f"/><g transform="translate(128.842 35.789)"><rect width="22" height="21" transform="translate(0.158 0.211)" fill="#ececec"/><rect width="22" height="21" transform="translate(0.158 44.211)" fill="#ececec"/><rect width="22" height="22" transform="translate(0.158 87.211)" fill="#ececec"/></g><path d="M356.548,29.935V8H298.968L288,29.935Z" transform="translate(-189.29 -5.258)" fill="#cd2c5a"/><path d="M0,0V170H170V0ZM164.516,5.484V21.935H5.484V5.484ZM5.484,27.419H109.677v137.1H5.484Zm109.677,137.1V27.419h49.355v137.1Z"/><path d="M114.118,144.9a35.608,35.608,0,0,0-71.011,0H32v82.258h93.226V144.9ZM78.613,117.484a30.161,30.161,0,1,1-30.161,30.161A30.2,30.2,0,0,1,78.613,117.484Zm-35.505,32.9a35.608,35.608,0,0,0,71.011,0h5.624v38.387H37.484V150.387Zm-5.624,71.29V194.258h82.258v27.419Z" transform="translate(-21.032 -73.613)"/><path d="M128,163.056v36.292L164.292,181.2Zm5.484,8.873L152.03,181.2l-18.546,9.273Z" transform="translate(-84.129 -107.17)"/><path d="M99.645,368a8.215,8.215,0,0,0-7.721,5.484H64v5.484H91.924a8.178,8.178,0,0,0,15.443,0H135.29v-5.484H107.366A8.215,8.215,0,0,0,99.645,368Zm0,10.968a2.742,2.742,0,1,1,2.742-2.742A2.746,2.746,0,0,1,99.645,378.968Z" transform="translate(-42.065 -241.871)"/><path d="M368,123.419h27.419V96H368Zm5.484-21.935h16.452v16.452H373.484Z" transform="translate(-241.871 -63.097)"/><rect width="16" height="6" transform="translate(126 66)"/><path d="M368,251.419h27.419V224H368Zm5.484-21.935h16.452v16.452H373.484Z" transform="translate(-241.871 -147.226)"/><rect width="16" height="5" transform="translate(126 110)"/><path d="M368,379.419h27.419V352H368Zm5.484-21.935h16.452v16.452H373.484Z" transform="translate(-241.871 -231.355)"/><rect width="16" height="5" transform="translate(126 154)"/><rect width="5" height="5" transform="translate(11 11)"/><rect width="6" height="5" transform="translate(22 11)"/><rect width="5" height="5" transform="translate(33 11)"/><rect width="6" height="6" transform="translate(148 66)"/><rect width="6" height="5" transform="translate(148 110)"/><rect width="6" height="5" transform="translate(148 154)"/></svg>