<svg xmlns="http://www.w3.org/2000/svg" width="141.83" height="189" viewBox="0 0 141.83 189"><g transform="translate(-59.865 0)"><path d="M147.865,47.73H251.874V202.167H147.865V47.73Z" transform="translate(-53.33 -28.926)" fill="#c0e5e7"/><path d="M99.383,23.489a15.759,15.759,0,0,0-31.518,0V177.926H99.383Z" transform="translate(-4.848 -4.685)" fill="#71c285"/><path d="M99.383,410.641v-3.152a15.759,15.759,0,1,0-15.759,15.759h88.25V410.641Z" transform="translate(-4.848 -237.4)" fill="#4d8157"/><path d="M179.865,79.73h78.794v31.518H179.865V79.73Z" transform="translate(-72.723 -48.319)" fill="#29abe2"/><path d="M179.865,191.73h37.821V226.4H179.865V191.73Z" transform="translate(-72.723 -116.194)" fill="#f15a24"/><path d="M283.865,311.73h37.821v37.821H283.865Z" transform="translate(-135.75 -188.917)" fill="#24ae5f"/><path d="M198.543,15.652H97.4A18.911,18.911,0,0,0,59.865,18.8V173.241h.284A18.93,18.93,0,0,0,78.776,189h88.25a3.152,3.152,0,0,0,3.152-3.152v-9.455h28.366a3.152,3.152,0,0,0,3.152-3.152V18.8A3.152,3.152,0,0,0,198.543,15.652ZM78.776,6.2A12.607,12.607,0,0,1,91.383,18.8V156.032a18.8,18.8,0,0,0-25.214,0V18.8A12.607,12.607,0,0,1,78.776,6.2Zm85.1,176.5h-85.1a12.607,12.607,0,1,1,12.607-12.607v3.152a3.152,3.152,0,0,0,3.152,3.152h69.339Zm31.518-12.607H97.686V21.956h97.705Z" transform="translate(0 0)"/><path d="M175.017,109.551h78.794a3.152,3.152,0,0,0,3.152-3.152V74.882a3.152,3.152,0,0,0-3.152-3.152H175.017a3.152,3.152,0,0,0-3.152,3.152V106.4A3.152,3.152,0,0,0,175.017,109.551Zm3.152-31.518h72.491v25.214H178.169V78.034Z" transform="translate(-67.875 -43.471)"/><path d="M175.017,224.7h37.821a3.152,3.152,0,0,0,3.152-3.152v-34.67a3.152,3.152,0,0,0-3.152-3.152H175.017a3.152,3.152,0,0,0-3.152,3.152v34.67A3.152,3.152,0,0,0,175.017,224.7Zm3.152-34.67h31.518V218.4H178.169V190.034Z" transform="translate(-67.875 -111.346)"/><path d="M316.838,303.73H279.017a3.152,3.152,0,0,0-3.152,3.152V344.7a3.152,3.152,0,0,0,3.152,3.152h37.821a3.152,3.152,0,0,0,3.152-3.152V306.882A3.152,3.152,0,0,0,316.838,303.73Zm-3.152,37.821H282.169V310.034h31.518Z" transform="translate(-130.902 -184.069)"/><path d="M299.865,191.73h34.669v6.3H299.865Z" transform="translate(-145.447 -116.194)"/><path d="M299.865,223.73h34.669v6.3H299.865Z" transform="translate(-145.447 -135.587)"/><path d="M299.865,255.73h34.669v6.3H299.865Z" transform="translate(-145.447 -154.98)"/><path d="M171.865,303.73h34.67v6.3h-34.67v-6.3Z" transform="translate(-67.875 -184.069)"/><path d="M171.865,335.73h34.67v6.3h-34.67v-6.3Z" transform="translate(-67.875 -203.462)"/><path d="M171.865,367.73h34.67v6.3h-34.67v-6.3Z" transform="translate(-67.875 -222.855)"/><path d="M171.865,399.73h34.67v6.3h-34.67v-6.3Z" transform="translate(-67.875 -242.248)"/></g></svg>