<svg xmlns="http://www.w3.org/2000/svg" width="86.938" height="90.842" viewBox="0 0 86.938 90.842"><g transform="translate(0 0)"><path d="M93.014,85.584a43.469,43.469,0,1,0-77.087,0Z" transform="translate(-11.002 -18.1)" fill="#5aab5f"/><g transform="translate(25.781 0)"><path d="M170.736.2c-9.788,1.334-10.718,6.883-10.722,8.919a1.121,1.121,0,0,1-.621,1.009c-5.091,2.477-2.346,14.413-2.346,14.413a4.138,4.138,0,0,1,1.445.435,8.748,8.748,0,0,1,.483-1.786,7.486,7.486,0,0,1,.655-1.308,4.017,4.017,0,0,0,.614-2.454c-.183-2.49-.095-7.4,3.192-8.876,2.785-1.253,6.2-.527,8.379.2a6.918,6.918,0,0,0,4.362,0c2.178-.724,5.594-1.45,8.379-.2,3.278,1.475,3.375,6.358,3.194,8.855a4.056,4.056,0,0,0,.613,2.475,7.526,7.526,0,0,1,.671,1.35,8.738,8.738,0,0,1,.466,1.743,3.474,3.474,0,0,1,1.837-.422c.075-2.61.316-5.424.316-5.424C194.554,4.927,181.275-1.233,170.736.2Z" transform="translate(-156.308 0)" fill="#665364"/></g><path d="M170.737.206c-9.788,1.334-10.718,6.883-10.722,8.919a1.12,1.12,0,0,1-.621,1.009c-5.091,2.477-2.346,14.413-2.346,14.413a4.138,4.138,0,0,1,1.445.435,8.746,8.746,0,0,1,.483-1.786,7.5,7.5,0,0,1,.655-1.308,4.017,4.017,0,0,0,.614-2.454c-.183-2.49-.095-7.4,3.192-8.876,2.65-1.192,5.87-.593,8.052.092-.02-.036-.037-.073-.058-.109C167.786,4.17,173.953.15,174.176.007a22.667,22.667,0,0,0-3.439.2Z" transform="translate(-130.527 -0.003)" fill="#543e5b"/><path d="M342.666,138.48c-.762-.7-2.281-.345-2.937.083a9.22,9.22,0,0,1,.028,2.717l-.775,5.643c0,.455-.014.9-.041,1.34,1.889.57,2.828-1.126,2.986-2.29a8.644,8.644,0,0,1,.334-1.477c.5-1.57,2.316-4.265.406-6.016Z" transform="translate(-280.756 -113.584)" fill="#fcad6d"/><path d="M341.026,162.593a2.8,2.8,0,0,1-1.479-.422l-.565,4.115q0,.682-.041,1.34c1.889.57,2.828-1.126,2.986-2.29a8.65,8.65,0,0,1,.334-1.477c.2-.614.593-1.4.89-2.235a2.81,2.81,0,0,1-2.125.97Z" transform="translate(-280.756 -132.947)" fill="#fd995b"/><path d="M148.1,138.48c.762-.7,2.281-.345,2.937.083a9.22,9.22,0,0,0-.028,2.717l.775,5.643c0,.455.014.9.041,1.34-1.889.57-2.828-1.126-2.986-2.29a8.647,8.647,0,0,0-.334-1.477c-.5-1.57-2.316-4.265-.406-6.016Z" transform="translate(-123.07 -113.584)" fill="#fcad6d"/><path d="M153.677,163.572a2.81,2.81,0,0,1-3.411.092c.265.67.563,1.292.725,1.8a8.65,8.65,0,0,1,.334,1.477c.158,1.164,1.1,2.86,2.986,2.29-.026-.438-.041-.885-.041-1.34Z" transform="translate(-125.557 -134.55)" fill="#fd995b"/><path d="M197.343,271.2a18.474,18.474,0,0,0,5.473,7.036,1.455,1.455,0,0,1,.524,1.066l.009.249h7.266l.009-.249a1.456,1.456,0,0,1,.524-1.066,18.475,18.475,0,0,0,5.473-7.036,11.787,11.787,0,0,0,.935-4.3,18.616,18.616,0,0,1-.828-5.154,20.839,20.839,0,0,1-3,2.872,11.01,11.01,0,0,1-13.482,0,20.82,20.82,0,0,1-3-2.872,18.623,18.623,0,0,1-.828,5.154,11.787,11.787,0,0,0,.935,4.3Z" transform="translate(-163.512 -215.301)" fill="#fcad6d"/><path d="M206.98,266.918a10.992,10.992,0,0,1-6.741-2.3,20.82,20.82,0,0,1-3-2.872,18.63,18.63,0,0,1-.828,5.154,11.8,11.8,0,0,0,.935,4.3,18.474,18.474,0,0,0,5.473,7.036c.024.02.046.042.068.063,3.86-3.614,4.1-11.379,4.1-11.379Z" transform="translate(-163.511 -215.301)" fill="#fd995b"/><path d="M207.885,396.732a79.56,79.56,0,0,0,7.63-18.89c-.575.884-1.121,1.682-1.591,2.349a1.328,1.328,0,0,1-1.07.568,1.343,1.343,0,0,1-1.1-.529l-1.526-2-1.563,2.781a2.355,2.355,0,0,1-2.118,1.309h-4.313a2.355,2.355,0,0,1-2.118-1.309l-1.574-2.8L197,380.231a1.349,1.349,0,0,1-1.1.529,1.328,1.328,0,0,1-1.07-.568c-.47-.667-1.016-1.465-1.591-2.349a79.563,79.563,0,0,0,7.63,18.889h7.008Z" transform="translate(-160.911 -310.803)" fill="#bec8f7"/><path d="M234.382,402.479h-4.313a2.394,2.394,0,0,1-.605-.079,56.565,56.565,0,0,0-2.383,11.451,75.03,75.03,0,0,0,4.66,7.943c.157,0,.313.006.47.006s.314,0,.471-.006a75.062,75.062,0,0,0,4.847-8.313,55.168,55.168,0,0,0-2.357-11.137A2.377,2.377,0,0,1,234.382,402.479Z" transform="translate(-188.743 -330.957)" fill="#543e5b"/><path d="M234.382,402.479h-4.313a2.394,2.394,0,0,1-.605-.079,56.565,56.565,0,0,0-2.383,11.451,75.03,75.03,0,0,0,4.66,7.943c.157,0,.313.006.47.006s.314,0,.471-.006a75.062,75.062,0,0,0,4.847-8.313,55.168,55.168,0,0,0-2.357-11.137A2.377,2.377,0,0,1,234.382,402.479Z" transform="translate(-188.743 -330.957)" fill="#543e5b"/><path d="M232.229,439.7a5.3,5.3,0,0,1-4.377-2.31c-.309,1.706-.563,3.456-.77,5.091a75.024,75.024,0,0,0,4.66,7.943c.157,0,.313.006.47.006s.314,0,.471-.006a75.063,75.063,0,0,0,4.847-8.313c-.208-1.6-.462-3.3-.768-4.963A5.3,5.3,0,0,1,232.229,439.7Z" transform="translate(-188.744 -359.583)" fill="#422953"/><path d="M232.141,360.656h-7.4l-2.367,3.735,1.474,2.948a2.627,2.627,0,0,0,2.349,1.452h4.313a2.627,2.627,0,0,0,2.349-1.452l1.474-2.948Z" transform="translate(-184.872 -296.666)" fill="#665364"/><path d="M228.972,367.3a5.973,5.973,0,0,1,.3-5.869l.494-.78h-5.022l-2.367,3.735,1.474,2.948a2.627,2.627,0,0,0,2.349,1.452h4.313a2.638,2.638,0,0,0,.43-.037,2.688,2.688,0,0,1-1.97-1.45Z" transform="translate(-184.872 -296.666)" fill="#543e5b"/><path d="M278.849,304.2a1.6,1.6,0,0,0,2.583-.048c.528-.75,1.179-1.7,1.868-2.781a83.755,83.755,0,0,0,2.275-13.493l-2.936-2.56a.4.4,0,0,0-.655.317c.094,2.016-.413,6.821-6.307,11.714a1.707,1.707,0,0,0-.269,2.35Z" transform="translate(-228.209 -234.61)" fill="#e9efff"/><path d="M179.943,301.367c.688,1.076,1.338,2.029,1.867,2.779a1.6,1.6,0,0,0,2.583.048l3.44-4.5a1.707,1.707,0,0,0-.269-2.35c-5.894-4.893-6.4-9.7-6.307-11.714a.4.4,0,0,0-.655-.317l-2.936,2.56a83.808,83.808,0,0,0,2.277,13.5Z" transform="translate(-148.095 -234.609)" fill="#e9efff"/><path d="M185.6,295.519c-4.046-4.226-4.424-8.126-4.341-9.89a.4.4,0,0,0-.655-.317l-2.936,2.56a82.618,82.618,0,0,0,1.679,10.965,2.591,2.591,0,0,0,1.66-1.084c2.227-3.248,4.593-2.234,4.593-2.234Z" transform="translate(-148.097 -234.609)" fill="#dae2fe"/><path d="M59.726,344.255a.751.751,0,0,1-.056-.911l3.068-4.57a1.269,1.269,0,0,0-.639-1.907L56.97,335.1a.756.756,0,0,1-.5-.641,59.622,59.622,0,0,1,.077-11.937,2.534,2.534,0,0,1,.384-1.08c-1.3.588-2.582,1.241-3.856,1.959-1.482.836-2.151,1.324-3.409,1.426a13.966,13.966,0,0,0-11.428,6.89,43.5,43.5,0,0,0,32.807,23.145,79.753,79.753,0,0,1-11.316-10.605Z" transform="translate(-33.403 -264.409)" fill="#422953"/><path d="M48.914,345.065c.64-11.193,7.032-13.617,7.032-13.617.1-.1.2-.2.3-.289a60.21,60.21,0,0,1,.3-8.638,2.534,2.534,0,0,1,.384-1.08c-1.3.588-2.582,1.241-3.856,1.959-1.482.836-2.151,1.324-3.409,1.426a13.966,13.966,0,0,0-11.428,6.89,43.641,43.641,0,0,0,10.679,13.349Z" transform="translate(-33.403 -264.409)" fill="#30144a"/><path d="M145.671,294.708a.749.749,0,0,0-1.2-.533l-5,3.854a2.791,2.791,0,0,0-1.071,1.906,60.2,60.2,0,0,0-.077,11.99,1.013,1.013,0,0,0,.676.86l5.129,1.771a1.01,1.01,0,0,1,.509,1.518l-3.068,4.57a1.008,1.008,0,0,0,.076,1.225,80.2,80.2,0,0,0,10.985,10.362,43.816,43.816,0,0,0,6.2.462,80.864,80.864,0,0,1-13.154-37.984Z" transform="translate(-115.514 -241.851)" fill="#543e5b"/><path d="M145.673,294.708a.749.749,0,0,0-1.2-.533l-5,3.854a2.791,2.791,0,0,0-1.071,1.906,60.9,60.9,0,0,0-.29,8.906,8.828,8.828,0,0,1,7.794-2.75,2.539,2.539,0,0,0,1.486-.214,78.939,78.939,0,0,1-1.716-11.17Z" transform="translate(-115.516 -241.851)" fill="#422953"/><path d="M289.054,354.857a43.5,43.5,0,0,0,32.773-23.14,13.966,13.966,0,0,0-11.428-6.89c-1.258-.1-1.927-.591-3.409-1.426-1.274-.718-2.555-1.371-3.856-1.959a2.533,2.533,0,0,1,.384,1.08,59.635,59.635,0,0,1,.077,11.937.757.757,0,0,1-.5.641l-5.129,1.77a1.269,1.269,0,0,0-.639,1.907l3.068,4.57a.752.752,0,0,1-.056.911A75.841,75.841,0,0,1,289.054,354.857Z" transform="translate(-239.72 -264.409)" fill="#543e5b"/><path d="M276.256,298.029l-5-3.854a.749.749,0,0,0-1.2.533A80.858,80.858,0,0,1,256.9,332.691a43.8,43.8,0,0,0,6.2-.462,80.209,80.209,0,0,0,10.984-10.362,1.008,1.008,0,0,0,.075-1.225l-3.068-4.57a1.01,1.01,0,0,1,.509-1.518l5.129-1.771a1.013,1.013,0,0,0,.676-.86,60.189,60.189,0,0,0-.077-11.99,2.791,2.791,0,0,0-1.071-1.907Z" transform="translate(-213.272 -241.851)" fill="#665364"/><path d="M198.308,68.574c-.551-1.438-1.405-2.033-1.278-3.788.457-6.3-1.837-8.306-3.244-8.94-2.76-1.242-6.114-.58-8.441.194a6.868,6.868,0,0,1-4.308,0c-2.327-.774-5.681-1.436-8.441-.194-1.41.634-3.707,2.643-3.243,8.961.127,1.719-.715,2.314-1.263,3.723a9.132,9.132,0,0,0-.516,4.545l.774,5.632A20.868,20.868,0,0,0,176.4,95.266a11.1,11.1,0,0,0,13.587,0,20.859,20.859,0,0,0,8.048-16.547l.775-5.643a9.136,9.136,0,0,0-.5-4.5Z" transform="translate(-139.721 -45.369)" fill="#f9ba8f"/><g transform="translate(27.764 9.786)"><path d="M184.558,95.268a20.868,20.868,0,0,1-8.049-16.559l-.774-5.632a9.132,9.132,0,0,1,.516-4.545c.548-1.409,1.39-2,1.263-3.723-.45-6.126,1.7-8.2,3.112-8.9-2.3-.712-5.428-1.233-8.03-.062-1.41.634-3.707,2.643-3.243,8.961.127,1.719-.715,2.314-1.263,3.723a9.134,9.134,0,0,0-.516,4.545l.774,5.632A20.868,20.868,0,0,0,176.4,95.268a11.111,11.111,0,0,0,10.875,1.545,10.987,10.987,0,0,1-2.714-1.545Z" transform="translate(-167.486 -55.156)" fill="#fcad6d"/></g><path d="M397.6,435.593a17.584,17.584,0,0,0-1.7-1.733,2.271,2.271,0,0,0-3.769,1.712v4.357A43.671,43.671,0,0,0,397.6,435.593Z" transform="translate(-324.509 -356.411)" fill="#422953"/><g transform="translate(0 12.932)"><path d="M398.29,107.328a43.394,43.394,0,0,0-16.949-34.441,25.27,25.27,0,0,1-1.048,17.386c-4.507,10.5-7.026,17.195,1.417,20.287,5.987,2.193,11.922,3.262,15.437,6.71A43.552,43.552,0,0,0,398.29,107.328Z" transform="translate(-311.352 -72.887)" fill="#81c66d"/><path d="M11,107.328A43.394,43.394,0,0,1,27.951,72.887,25.27,25.27,0,0,0,29,90.273c4.507,10.5,7.026,17.195-1.417,20.287-5.987,2.193-11.922,3.262-15.437,6.71A43.559,43.559,0,0,1,11,107.328Z" transform="translate(-11.002 -72.887)" fill="#81c66d"/></g></g></svg>