<svg xmlns="http://www.w3.org/2000/svg" width="454.02" height="505.073" viewBox="0 0 454.02 505.073"><g transform="translate(-610.555 379.196)"><g transform="translate(610.555 -220.364)"><path d="M617.79,695.587C585.9,656.609,542.306,616.363,559.4,555.567c11.242-39.987,38.808-51.133,61.721-75.791,11.308-12.169,4.2-29.882,3.986-47.462-.479-45.02,44.285-79.955,85.439-79.226,44.577.789,63.873,51.09,101.266,53.788,14.683.253,27.831-9.419,40.822-17.1,38.494-22.765,99.575-8.247,102.662,46.806.8,29.731-29.352,77.564.855,93.2,24.074,12.463,48.395,17.053,52.733,61.629,5.679,58.343-24.342,90.364-63.462,105.379Z" transform="translate(-555.555 -353.078)" fill="#e3eaff"/><g transform="translate(81.4 71.394)"><path d="M1032.981,682.231h43.979c5.444,0,9.857,4.681,9.857,10.455v21.747c0,5.774-4.413,10.455-9.857,10.455h-.326l3.53,12.543a.568.568,0,0,1-.877.643l-16.295-13.186h-30.01c-5.444,0-9.857-4.681-9.857-10.455V692.686C1023.124,686.912,1027.537,682.231,1032.981,682.231Z" transform="translate(-1023.124 -682.231)" fill="#fff"/><path d="M1101.174,729.051h-42.223a5.034,5.034,0,0,1-4.879-5.175h0a5.034,5.034,0,0,1,4.879-5.175h42.223a5.034,5.034,0,0,1,4.879,5.175h0A5.034,5.034,0,0,1,1101.174,729.051Z" transform="translate(-1047.359 -710.79)" fill="#e3eaff"/><path d="M1101.174,801.917h-42.223a5.034,5.034,0,0,1-4.879-5.175h0a5.034,5.034,0,0,1,4.879-5.175h42.223a5.034,5.034,0,0,1,4.879,5.175h0A5.033,5.033,0,0,1,1101.174,801.917Z" transform="translate(-1047.359 -767.852)" fill="#e3eaff"/></g><g transform="translate(302.983 44.399)"><path d="M2351.123,557.776h-44.531c-5.512,0-9.981,4.74-9.981,10.587v22.02c0,5.847,4.469,10.587,9.981,10.587h.331l-3.574,12.7a.575.575,0,0,0,.888.651l16.5-13.352h30.387c5.512,0,9.981-4.74,9.981-10.587v-22.02C2361.1,562.516,2356.635,557.776,2351.123,557.776Z" transform="translate(-2296.611 -557.776)" fill="#fff"/><rect width="52.89" height="9.61" rx="4.805" transform="translate(5.273 9.001)" fill="#e3eaff"/><rect width="30.056" height="9.61" rx="4.805" transform="translate(6.724 23.531)" fill="#e3eaff"/></g><g transform="translate(36.629 228.707)"><path d="M726.206,1410.177a12.4,12.4,0,0,1,8-2.672c6.717,0,10.273,3.876,10.273,9.325,0,3.143-1.432,6.339-4.346,9.535-3.7,4.138-6.371,6.182-8.051,6.182a2.872,2.872,0,0,1-2.815-2.986c0-1.467,1.284-2.934,3.507-5.082a2.207,2.207,0,0,1,.4-.366c2.519-2.463,3.309-3.825,3.309-5.5a3.015,3.015,0,0,0-3.26-3.248,10.049,10.049,0,0,0-3.161.629,9.658,9.658,0,0,1-2.667.629,3.184,3.184,0,0,1-2.963-3.353A4.01,4.01,0,0,1,726.206,1410.177Zm6.766,34.944a5.064,5.064,0,0,1-5.038-5.344,4.964,4.964,0,0,1,5.038-4.925,4.887,4.887,0,0,1,4.643,4.925C737.615,1442.658,735.689,1445.121,732.972,1445.121Z" transform="translate(-724.428 -1407.505)" fill="#fff"/></g><g transform="translate(355.412 112.062)"><path d="M2588.677,871.484a8.152,8.152,0,0,1,5.262-1.757c4.417,0,6.756,2.55,6.756,6.133a9.409,9.409,0,0,1-2.858,6.271c-2.436,2.722-4.19,4.065-5.295,4.065a1.889,1.889,0,0,1-1.851-1.964c0-.965.844-1.929,2.306-3.342a1.464,1.464,0,0,1,.26-.241c1.656-1.619,2.176-2.515,2.176-3.618a1.983,1.983,0,0,0-2.143-2.136,6.609,6.609,0,0,0-2.079.414,6.341,6.341,0,0,1-1.754.413,2.094,2.094,0,0,1-1.948-2.205A2.637,2.637,0,0,1,2588.677,871.484Zm4.45,22.981a3.33,3.33,0,0,1-3.313-3.514,3.264,3.264,0,0,1,3.313-3.239,3.214,3.214,0,0,1,3.053,3.239A3.27,3.27,0,0,1,2593.127,894.465Z" transform="translate(-2587.508 -869.727)" fill="#fff"/></g><g transform="translate(379.435 180.653)"><path d="M2811.041,1246.454h-61.667a2.037,2.037,0,0,1-1.974-2.094v-56.307a1.977,1.977,0,1,1,3.948,0v54.213h59.694a2.1,2.1,0,0,1,0,4.188Z" transform="translate(-2747.4 -1185.959)" fill="#fff"/><g transform="translate(4.668 9.032)"><g transform="translate(0 5.486)"><path d="M2770.9,1285.105a1.909,1.909,0,0,1-1.372-.588,2.185,2.185,0,0,1-.047-2.961l19.931-21.87a1.892,1.892,0,0,1,2.494-.3l9.425,6.485,9.938-12.25a1.9,1.9,0,0,1,2.784-.221,2.183,2.183,0,0,1,.208,2.953l-11.062,13.635a1.9,1.9,0,0,1-2.571.391l-9.507-6.542-18.8,20.63A1.915,1.915,0,0,1,2770.9,1285.105Z" transform="translate(-2768.922 -1252.893)" fill="#fff"/></g><g transform="translate(36.513)"><path d="M2946.127,1242.792l-2.812-6.044-6.053-2.049,13.476-7.1Z" transform="translate(-2937.262 -1227.6)" fill="#fff"/></g></g></g><g transform="translate(123.542 24.289)"><path d="M1264.175,490.4c-6.587,0-11.945-5.684-11.945-12.671s5.359-12.671,11.945-12.671,11.946,5.684,11.946,12.671S1270.763,490.4,1264.175,490.4Zm0-21.852a9.2,9.2,0,1,0,8.656,9.181A8.94,8.94,0,0,0,1264.175,468.549Z" transform="translate(-1252.23 -465.059)" fill="#fff"/></g><g transform="translate(384.472 119.25)"><path d="M2779.372,921.427a9.3,9.3,0,1,1,8.75-9.281A9.037,9.037,0,0,1,2779.372,921.427Zm0-16.006a6.737,6.737,0,1,0,6.339,6.725A6.549,6.549,0,0,0,2779.372,905.42Z" transform="translate(-2770.622 -902.864)" fill="#e3eaff"/></g><g transform="translate(21.998 172.023)"><path d="M664.83,1162.839a8.348,8.348,0,1,1,7.856-8.333A8.115,8.115,0,0,1,664.83,1162.839Zm0-14.372a6.049,6.049,0,1,0,5.692,6.038A5.879,5.879,0,0,0,664.83,1148.467Z" transform="translate(-656.974 -1146.172)" fill="#fff"/></g><path d="M2032.142,649.892a4.282,4.282,0,1,1-4.274-4.534A4.41,4.41,0,0,1,2032.142,649.892Z" transform="translate(-1761.617 -581.962)" fill="#fff"/><path d="M846.893,707.9a8.419,8.419,0,1,1-8.4-8.915A8.671,8.671,0,0,1,846.893,707.9Z" transform="translate(-770.538 -623.956)" fill="#e3eaff"/><path d="M1971.508,499.283a6.329,6.329,0,1,1-6.318-6.7A6.518,6.518,0,0,1,1971.508,499.283Z" transform="translate(-1708.856 -462.323)" fill="#e3eaff"/><path d="M2856.188,993.306a5.4,5.4,0,1,1-5.393-5.721A5.563,5.563,0,0,1,2856.188,993.306Z" transform="translate(-2444.71 -849.959)" fill="#e3eaff"/><path d="M2120.582,617.83a6.735,6.735,0,1,1-6.724-7.132A6.937,6.937,0,0,1,2120.582,617.83Z" transform="translate(-1830.795 -554.82)" fill="#fff"/><ellipse cx="6.82" cy="7.234" rx="6.82" ry="7.234" transform="translate(145.379 9.842)" fill="#fff"/></g><g transform="translate(746.833 -378.779)"><g transform="translate(112.987 0)"><path d="M2063.308-38.68h-.015l-12.69.047L2047.729-8.66l14.814,7.822,15.8-7.734-2.553-30.061Z" transform="translate(-2028.339 112.122)" fill="#f37a50"/><path d="M2024.061-292.672c-1.932,20.933-16.825,36.672-33.266,35.155s-28.2-19.716-26.271-40.649,16.825-36.672,33.266-35.155S2025.993-313.6,2024.061-292.672Z" transform="translate(-1963.019 342.934)" fill="#f37a50"/><path d="M2042.313-136.368c-2.851,4.039-6.453,8.96-6.453,8.96s1.285,4.5,7.1,4.889c-2.408-1.157-4.752-2.953-3.563-6.182S2042.313-136.368,2042.313-136.368Z" transform="translate(-2019.045 188.621)" fill="#de623c"/><path d="M2025.452-344.024c.979-19.91-17.524-25.694-17.524-25.694s4.028-1.6,2.8-7.559a15.95,15.95,0,0,1-9.684,2.649c-22.772-1.338-36.9,2.964-34.288,11.763.93,3.131-13.719,5.342-6.325,26.069,1.3-2.535,2.191-11.889,6.52-14.115,4.344-2.233,2.008,5.132,11.981,3.6,10.063-1.543,16.476-6,24-2.3,6.033,3.383,14.365,27.243,14.095,28.907C2017.643-324.521,2025.022-335.274,2025.452-344.024Z" transform="translate(-1958.335 377.276)"/><path d="M1965.153-146.894s2.385,11.238,4.976,14.163c.341-4.892,11.149-2.256,15.808-2.034,8.438.4,16.674-7.4,19.949,3.527,10.732.192,13.686-23.536,13.686-23.536,7.529,23.292-5.682,41.713-31.547,45.146C1970.985-107.367,1962.745-129.583,1965.153-146.894Z" transform="translate(-1963.352 203.036)"/><g transform="translate(15.452 68.704)"><path d="M2044.3-55.478a21.754,21.754,0,0,0,4.379-3.414.955.955,0,0,0,.008-1.351.955.955,0,0,0-1.351-.008c-3.2,3.16-6.433,4.75-9.616,4.726a9.97,9.97,0,0,1-6.511-2.606.957.957,0,0,0-1.35-.016.954.954,0,0,0-.02,1.347,11.739,11.739,0,0,0,7.83,3.184A12.893,12.893,0,0,0,2044.3-55.478Z" transform="translate(-2029.575 60.526)" fill="#de623c"/></g><path d="M2114.689-161.486a2.988,2.988,0,0,0,3.068-2.906,2.988,2.988,0,0,0-2.906-3.068,2.988,2.988,0,0,0-3.068,2.906A2.987,2.987,0,0,0,2114.689-161.486Z" transform="translate(-2078.499 212.97)"/><path d="M2004.928-164.455a2.988,2.988,0,0,0,3.068-2.906,2.989,2.989,0,0,0-2.907-3.068,2.988,2.988,0,0,0-3.068,2.906A2.988,2.988,0,0,0,2004.928-164.455Z" transform="translate(-1992.545 215.295)"/><g transform="translate(5.878 39.275)"><path d="M1986.831-190.457a1.435,1.435,0,0,0,1.254-.67,4.282,4.282,0,0,1,2.716-2.145,5.183,5.183,0,0,1,3.521.9,1.439,1.439,0,0,0,2-.312,1.431,1.431,0,0,0-.3-2,8.075,8.075,0,0,0-5.735-1.412,7,7,0,0,0-4.633,3.439,1.435,1.435,0,0,0,.449,1.979A1.43,1.43,0,0,0,1986.831-190.457Z" transform="translate(-1985.435 196.202)"/></g><g transform="translate(31.609 39.793)"><path d="M2114.464-187.5a1.428,1.428,0,0,0,.905-.291,1.435,1.435,0,0,0,.277-2.011c-1.822-2.4-3.874-3.742-6.1-3.976a7,7,0,0,0-4.983,1.494,1.435,1.435,0,0,0-.145,2.024,1.435,1.435,0,0,0,2.015.154,4.128,4.128,0,0,1,2.851-.813c1.392.16,2.763,1.119,4.075,2.851A1.432,1.432,0,0,0,2114.464-187.5Z" transform="translate(-2104.067 193.816)"/></g><g transform="translate(53.6 45.245)"><path d="M2208.351-165.58c-3.442,3.548-3.88,8.707-.976,11.524s8.047,2.225,11.489-1.322,3.88-8.707.977-11.525S2211.793-169.127,2208.351-165.58Z" transform="translate(-2205.453 168.682)" fill="#f37a50"/><g transform="translate(4.38 4.098)"><path d="M2227.8-140.843a1.07,1.07,0,0,1-.421-.262,4.887,4.887,0,0,1-1.2-5.88,5.207,5.207,0,0,1,5.379-2.731,1.082,1.082,0,0,1,.87,1.257,1.081,1.081,0,0,1-1.257.87,3.082,3.082,0,0,0-3.078,1.609c-.56,1.067-.269,2.256.821,3.35a1.081,1.081,0,0,1,0,1.529A1.082,1.082,0,0,1,2227.8-140.843Z" transform="translate(-2225.646 149.789)" fill="#de623c"/></g></g></g><path d="M1876.007,1769.18c-11.221,15.481-38.776,5.981-37.864,26.921,41.9-.269,59.318,0,59.318,0-.055-4.809-.883-16.225-1.85-20.693Z" transform="translate(-1751.208 -1303.61)" fill="#201d40"/><path d="M2160.49,1769.18c-11.221,15.481-38.776,5.981-37.864,26.921,41.9-.269,59.318,0,59.318,0-.055-4.809-.884-16.225-1.85-20.693Z" transform="translate(-1973.987 -1303.61)" fill="#201d40"/><path d="M1879.3,680.018s-4.017,102.361-1.253,124.422,17.9,46.765,16.789,119.732c13.66,3.42,33.451,0,33.451,0s2.934-82.506-11.506-119.357c5.872-35.8,24.714-117.784,24.714-117.784Z" transform="translate(-1781.714 -450.689)" fill="#748ddb"/><path d="M2022.394,692.012s13.738,111.4,20.462,132.526,16.828,36.775,29,108.656c14.037.7,26.865,2.294,26.865,2.294s6.4-92.062-15.459-112.8c-.74-36.3-1.508-129.964-1.508-129.964Z" transform="translate(-1895.512 -460.081)" fill="#89a2f0"/><g transform="translate(92.873 99.056)"><path d="M1967.312,85.858s-23.86-8.353-31.816-4.522c-24.722,11.9-30.393,0-30.393,0-8.672-1.924-29.155-1.924-29.155-1.924-2.593,34.6-10.349,145.1-10.349,145.1s29.765,7.06,54.65,7.24c24.885-.162,50.212-6.8,50.212-6.8s-1.329-48.374-2.434-66.355C1968.387,138.451,1967.312,112.418,1967.312,85.858Z" transform="translate(-1865.6 -79.411)" fill="#e62552"/></g><path d="M2334.533,109.132c21.8,9.378,48.546,30.991,65.007,65.226,5.645,11.74-21.191,14.11-26.541,9.482s-38.466-39.191-38.466-39.191Z" transform="translate(-2139.948 -3.629)" fill="#c4204a"/><path d="M1540.642,79.411,1437.42,121.759l5.153,26.037,95.641-27.173Z" transform="translate(-1437.42 19.645)" fill="#c4204a"/></g><g transform="translate(640.209 -379.196)"><g transform="translate(127.826 231.704)"><path d="M1543.138,689.047l.256,11.137s-7.948-.238-8.225,5.192l7.464.231s4.541,5.867-1.969,17.312c-2.6,11.214,5.622,6.47,6.186,10.2.832,5.5,11.686-3.928,13.41-15.13,2.231-14.495-.728-16.236-.728-16.236l-3.283-11.007Z" transform="translate(-1535.169 -689.047)" fill="#f37a50"/></g><path d="M1498.688,104.254c12.706,2.8,36.085,78.212,36.085,78.212l-7.013,57.668-21.1-2.361,1.268-44.964-15.814-42.621Z" transform="translate(-1373.623 0.607)" fill="#201d40"/><path d="M1315.571,1783.454c11.471,15.3,39.64,5.912,38.708,26.606-42.837-.266-60.64,0-60.64,0,.056-4.753.9-16.035,1.891-20.451Z" transform="translate(-1218.201 -1314.371)"/><path d="M1020.085,1785.305c11.471,15.3,39.64,5.911,38.707,26.605-42.837-.265-60.64,0-60.64,0,.056-4.753.9-16.034,1.891-20.45Z" transform="translate(-986.806 -1315.821)"/><path d="M1291.458,703.594s6.876,98.57,4.05,120.371-17.557,49.886-16.423,122c-13.964,3.38-34.2,0-34.2,0s-3-81.54,11.763-117.96c-6-35.377-25.265-116.4-25.265-116.4Z" transform="translate(-1169.453 -468.735)" fill="#201d40"/><path d="M1040.933,719.511s-2.8,109.961-9.672,130.843-18.077,34.641-30.523,105.679c-14.351.694-35.015.99-35.015.99s10.142-89.547,32.492-110.039c.756-35.875-6.722-126.9-6.722-126.9Z" transform="translate(-961.412 -481.2)" fill="#2c2858"/><path d="M1262.382,34.433l-19.113-4-19.283,3.087,18.594,24.066Z" transform="translate(-1163.656 58.417)" fill="#95a6db"/><path d="M1271.945-1.543a25.706,25.706,0,0,1-29.052-.766l.416-29.516,27.471.95Z" transform="translate(-1178.462 107.17)" fill="#f37a50"/><path d="M1122.531,54.449h0l5.983-1.614.154-8.174,14.43,14.56,4.4,1.223,4.457-1.012,15.106-13.857-.236,8.172,4.937,1.588h0l17.882,5.022-9.33,101.36,3.276,35.218c-25.088,5.291-52.348,4.224-78.507-2.461l4.82-34.434-7.64-100.965Z" transform="translate(-1068.337 47.274)" fill="#95a6db"/><path d="M1299.267,165.824l5.768,78.332-6.99,8.347-7.8-6.96,3.006-79.514Z" transform="translate(-1215.541 -47.608)" fill="#2c2858"/><path d="M1298.941,116.044l-7.179-1.538-7.965,1.69,4.4,9.8,6.044-.1Z" transform="translate(-1210.495 -7.422)" fill="#2c2858"/><g transform="translate(97.784 95.548)"><path d="M1399.191,65.624l-.645,88.493-1.883,62.3s17.816,6.357,31.107-3.691L1424.183,74Z" transform="translate(-1396.663 -64.69)" fill="#2c2858"/><path d="M1404.883,61.318l-.394,95.568,14.048-74.155Z" transform="translate(-1402.791 -61.318)" fill="#494c7f"/></g><g transform="translate(19.018 92.504)"><path d="M1074.306,48.7l4.63,156.884s-32.25,5.651-45.412-3.049l7.135-49.576,1.487-93.107Z" transform="translate(-1033.524 -48.39)" fill="#2c2858"/><path d="M1171.759,47.285l2.513,95.978-16.7-75.554Z" transform="translate(-1130.665 -47.285)" fill="#494c7f"/></g><g transform="translate(37.375)"><ellipse cx="29.136" cy="37.097" rx="29.136" ry="37.097" transform="matrix(0.977, -0.213, 0.213, 0.977, 10.151, 18.072)" fill="#f37a50"/><path d="M1412.206-171.926a3.017,3.017,0,0,0,3.756-2.025,3.017,3.017,0,0,0-2.025-3.755,3.016,3.016,0,0,0-3.755,2.025A3.016,3.016,0,0,0,1412.206-171.926Z" transform="translate(-1346.74 221.51)"/><path d="M1305.1-170.643a3.029,3.029,0,0,0,4.1,1.228,3.029,3.029,0,0,0,1.229-4.1,3.029,3.029,0,0,0-4.1-1.229A3.03,3.03,0,0,0,1305.1-170.643Z" transform="translate(-1264.266 219.377)"/><path d="M1382.582-161.221c2.161,4.92,4.931,10.942,4.931,10.942s-2.343,4.515-8.627,3.668c2.816-.711,5.7-2.115,5.135-5.813S1382.582-161.221,1382.582-161.221Z" transform="translate(-1322.333 208.5)" fill="#de623c"/><g transform="translate(36.711 38.791)"><path d="M1288.239-195a1.4,1.4,0,0,0,1.675-.433c.094-.122,2.422-3.071,5.281-1.825a1.4,1.4,0,0,0,1.838-.722,1.4,1.4,0,0,0-.722-1.838c-3.9-1.7-7.345,1.018-8.62,2.694a1.4,1.4,0,0,0,.266,1.957A1.42,1.42,0,0,0,1288.239-195Z" transform="translate(-1287.406 200.353)" fill="#2c2858"/></g><g transform="translate(62.74 38.791)"><path d="M1416.319-195a1.4,1.4,0,0,1-1.674-.433c-.094-.122-2.422-3.071-5.281-1.825a1.4,1.4,0,0,1-1.838-.722,1.4,1.4,0,0,1,.722-1.838c3.9-1.7,7.345,1.018,8.62,2.694a1.4,1.4,0,0,1-.267,1.957A1.4,1.4,0,0,1,1416.319-195Z" transform="translate(-1407.41 200.353)" fill="#2c2858"/></g><path d="M1139.279-324.057c.836-7.391,7.1-5.094,8.885-14.763s3.553-16.957,12.619-14.3,11.527.722,15.509-1.046c11.973-5.313,16.4,15.084,16.4,15.084s8.661-16.387-.292-25.344c-9.924-9.93-12.854-3.112-22.094-10.33s-23.992-4.718-27.579,1.017c-3.781,6.046-4.842,10.559-14,14.061s-14.33,10.471-7.3,20.636-7.033,15.376,5.553,25.443c4.882,3.9,13.878,5.71,15.54,3.981C1144.74-311.935,1138.74-319.293,1139.279-324.057Z" transform="translate(-1118.154 379.196)" fill="#2c2858"/><path d="M1271.735-147.481s-1.522,9.948-3.748,12.98c-.758-4.659-5.157-.759-8.515-.979-8.114-.531-21.849-6.012-25.628,5.563-10.271,1.13-15.65-20.945-15.65-20.945-5.163,22.991,9.58,39.073,34.675,40.083C1269.4-110.113,1275.569-131.1,1271.735-147.481Z" transform="translate(-1195.692 200.388)" fill="#2c2858"/><path d="M1358.224-56.618a.892.892,0,0,0-.784-1.44,74.792,74.792,0,0,1-8.409.357,74.917,74.917,0,0,1-8.382-.763.891.891,0,0,0-.852,1.4,11.427,11.427,0,0,0,9.1,5.112A11.427,11.427,0,0,0,1358.224-56.618Z" transform="translate(-1291.591 128.039)" fill="#fff"/><g transform="translate(10.68 46.846)"><path d="M1180.982-159.948c3.395,3.647,3.727,8.855.742,11.633s-8.156,2.073-11.55-1.574-3.726-8.855-.742-11.632S1177.588-163.595,1180.982-159.948Z" transform="translate(-1167.394 163.219)" fill="#f37a50"/><g transform="translate(5.203 4.136)"><path d="M1195.894-135.073a1.09,1.09,0,0,0,.431-.255,4.925,4.925,0,0,0,1.337-5.9,5.247,5.247,0,0,0-5.362-2.865,1.089,1.089,0,0,0-.9,1.248,1.09,1.09,0,0,0,1.248.9,3.108,3.108,0,0,1,3.068,1.686c.542,1.086.223,2.279-.9,3.357a1.09,1.09,0,0,0-.03,1.541A1.089,1.089,0,0,0,1195.894-135.073Z" transform="translate(-1191.382 144.15)" fill="#de623c"/></g></g></g><path d="M1231.708,59.812,1217.84,72.146l-10.73-21.959,3.661-5.525Z" transform="translate(-1150.44 47.273)" fill="#fff"/><path d="M1320.518,63.111l10.661,11.321,10.037-19.579-3.239-5.977Z" transform="translate(-1239.25 43.974)" fill="#fff"/><path d="M973.482,100.112s-7.017,1.2-18.842,35.235c-3.524,10.143-7.176,33.6-7.972,44.419-2.589,35.219,1.735,61,1.735,61-.4,9.9,25.325,15.5,25.325-4.832V181.018l9.489-32.976S987.392,105.083,973.482,100.112Z" transform="translate(-945.842 3.851)" fill="#201d40"/><g transform="translate(6.983 244.972)"><path d="M993.753,752.164l1.054,11.09s4.969,11.882,5.883,17.241c0,0-8.309-5.585-.5,5.016,3.9,10.831-4.823,7.086-4.945,10.852-.18,5.557-12.067-2.528-15.1-13.45-3.918-14.132-1.185-16.209-1.185-16.209a77.6,77.6,0,0,0,.547-10.874C979.112,748.4,993.78,749.666,993.753,752.164Z" transform="translate(-978.037 -750.219)" fill="#f37a50"/></g></g><g transform="translate(896.392 -337.328)"><g transform="translate(0 0)"><path d="M2271.631-185.048c-21.827-6.159-65.423,11.492-52.736,90.878S2288.664-25.8,2288.664-25.8s26.2-8.234,28.547-58.668S2308.337-174.691,2271.631-185.048Z" transform="translate(-2197.171 186.171)" fill="#201d40"/><g transform="translate(0 90.743)"><path d="M2174.7,252.607c-4.647,13.385-22.084,39.563-28.312,44.366-4.146-5.907-19.452-2.962-19.452-2.962s15.306-37.089,29.127-55.063C2162.514,226.843,2182.334,230.769,2174.7,252.607Z" transform="translate(-2126.941 -232.191)" fill="#7890db"/><path d="M2126.941,510.677c2.972,16.31,22.688,37.515,22.688,37.515s2.217-1.276,2.7-10.89c-2.445-6.583-5.935-23.663-5.935-23.663A16.984,16.984,0,0,0,2126.941,510.677Z" transform="translate(-2126.941 -448.857)" fill="#f37a50"/></g><g transform="translate(49.485 70.79)"><path d="M2361.105,142.636l16.269-2.437-1.3,15.1s-8.239,14.847-16.057,12.29-4-9.116-4-9.116Z" transform="translate(-2355.087 -140.199)" fill="#f37a50"/></g><g transform="translate(33.421 8.822)"><path d="M2333-92.527c-2.644,17.841-16.147,30.622-30.16,28.545s-23.229-18.223-20.585-36.065,16.147-30.622,30.16-28.545S2335.646-110.368,2333-92.527Z" transform="translate(-2281.635 132.431)" fill="#f37a50"/><g transform="translate(29.178 30.344)"><path d="M2422.5-.853a.922.922,0,0,1-.5-.359c-1.816-2.608-5.47-2.534-5.507-2.533a.927.927,0,0,1-.954-.9.926.926,0,0,1,.894-.955c.19-.007,4.689-.119,7.089,3.327a.928.928,0,0,1-.23,1.291A.927.927,0,0,1,2422.5-.853Z" transform="translate(-2415.544 5.601)" fill="#201d40"/></g><g transform="translate(4.296 30.827)"><path d="M2301.419.373a.925.925,0,0,1-.261-.156.928.928,0,0,1-.107-1.307,6.51,6.51,0,0,1,6.3-2.146.927.927,0,0,1,.676,1.124.927.927,0,0,1-1.12.677,4.651,4.651,0,0,0-4.44,1.545A.927.927,0,0,1,2301.419.373Z" transform="translate(-2300.83 3.374)" fill="#201d40"/></g><path d="M2349.879,48.154a23.5,23.5,0,0,1-3.329,3.772.931.931,0,0,0-.2,1.261c1.144,1.667,4.16,2.857,6,3.453a.249.249,0,0,0,.223-.437,12.048,12.048,0,0,1-3.174-3.1,1.108,1.108,0,0,1-.085-1c.3-.757.9-2.3,1.288-3.564A.418.418,0,0,0,2349.879,48.154Z" transform="translate(-2332.056 -6.028)" fill="#de623c"/><path d="M2361.622,106.7a.739.739,0,0,0-.748-1.135,52.432,52.432,0,0,1-13.9.833.739.739,0,0,0-.607,1.216,9.227,9.227,0,0,0,15.254-.914Z" transform="translate(-2332.057 -51.102)" fill="#fff"/><path d="M2396.093-107.226c-16.574-.75-38.371-16.047-41.005-24.445,2.262-10.567,10.594-16.539,20.546-12.613S2401.891-120.784,2396.093-107.226Z" transform="translate(-2339.023 145.497)" fill="#201d40"/><path d="M2300.874-114.469s-9.863,10.025-19.851,12.315c3.5-11.692,5.993-20.556,11.985-23.428a40.078,40.078,0,0,1,12.609-3.371Z" transform="translate(-2281.023 132.541)" fill="#201d40"/><g transform="translate(44.705 34.77)"><path d="M2489.917,17.169c-3.106,2.888-3.708,7.29-1.344,9.832s6.8,2.261,9.9-.627,3.708-7.29,1.344-9.832S2493.023,14.281,2489.917,17.169Z" transform="translate(-2487.129 -14.805)" fill="#f37a50"/><g transform="translate(3.794 3.502)"><path d="M2506.292,38.493a.923.923,0,0,1-.35-.243,4.194,4.194,0,0,1-.773-5.092,4.468,4.468,0,0,1,4.729-2.1.927.927,0,0,1-.425,1.805,2.645,2.645,0,0,0-2.709,1.244,2.375,2.375,0,0,0,.556,2.906.927.927,0,0,1-1.029,1.483Z" transform="translate(-2504.62 -30.952)" fill="#de623c"/></g></g><path d="M2418.852,18.585A2.848,2.848,0,1,1,2416,15.737,2.848,2.848,0,0,1,2418.852,18.585Z" transform="translate(-2384.496 19.235)"/><path d="M2323.175,18.585a2.848,2.848,0,1,1-2.848-2.848A2.848,2.848,0,0,1,2323.175,18.585Z" transform="translate(-2309.572 19.235)"/></g><g transform="translate(15.318 196.876)"><path d="M2257.2,939.789c1.09-10.865-4.516-93.555-4.516-93.555-15.854-72.7-9.626-124.734-9.626-124.734l27.249,1.915,10.74,41.079-5.094,68.6s1.912,5.281,2.921,9.5c5.471,22.9.022,50.269-3.348,68.511-1.561,8.453-3.99,26.218-4.053,30.256l6.846,8.85s-24.776,27.42-28.587,27.592c-7.408.335-5.226-7-5.226-7C2254.687,960.352,2256.886,942.9,2257.2,939.789Z" transform="translate(-2232.243 -721.501)" fill="#f37a50"/><path d="M2244.059,1753.743l-1.363,17.617-3.167.143-1.6-16.361c-8.428,2.151-14.466,17.447-14.466,17.447-5.805,2.082-20.562,3.51-25.814.8-1.269-5.146,12.2-8.756,12.2-8.756,1.217,1.441,8.405,2.544,10.958,1,9.4-8,13.983-19.64,15.987-30.462C2236.789,1735.177,2251.642,1736.213,2244.059,1753.743Z" transform="translate(-2197.563 -1515.309)" fill="#c4204a"/></g><g transform="translate(38.195 196.876)"><path d="M2314.326,726.788l38.388-5.287c14.685,33.224,19.472,91.07,23.458,111.677,16,26.83,21.082,108.191,21.082,108.191l6.846,8.85s-24.776,27.42-28.588,27.592c-7.408.335-5.225-7-5.225-7,10.183-10.457,12.168-24.35,12.828-27.408.991-4.594-31.071-94.854-31.071-94.854l-3.423-8.564c-39.161-64.681-45.587-113.58-45.587-113.58Z" transform="translate(-2303.034 -721.501)" fill="#f37a50"/><path d="M2603.071,1753.743l-1.363,17.617-3.167.143-1.6-16.361c-8.429,2.151-14.467,17.447-14.467,17.447-5.805,2.082-20.562,3.51-25.814.8-1.268-5.146,12.2-8.756,12.2-8.756,1.217,1.441,8.4,2.544,10.958,1,9.4-8,13.983-19.64,15.987-30.462C2595.8,1735.177,2610.654,1736.213,2603.071,1753.743Z" transform="translate(-2501.581 -1515.309)" fill="#c4204a"/></g><g transform="translate(17.862 175.177)"><g transform="translate(0 0)"><path d="M2312.285,751.064c-3.834-12.827-2.166-104.636-36.009-129.6l-58.239,6.136c-13.458,21.785-8.521,78.469-3.99,125.12C2241.43,762.492,2263.2,766.415,2312.285,751.064Z" transform="translate(-2209.291 -621.463)" fill="#070635"/></g></g><g transform="translate(18.704 84.223)"><path d="M2220.368,284.849c0-12.754-11.053-31.862-5.755-44.737,3.859-10.357,10.619-29.031,18.514-31.932,3.725-1.369,7.241-1.034,11.883-2.318,0,0-1.444,8.486,4.013,8.924,10.5.842,16.023-12.623,16.023-12.623,5.663-.541,25.412,5.353,25.4,7.485-.062,16.707-7.409,43.723-11.848,61.786a81.055,81.055,0,0,0,.749,21.536c1.682,5.426,3.735,8.531,3.748,9.7,0,0-38.931,13.226-63.7-.411C2219.394,302.265,2220.368,293.463,2220.368,284.849Z" transform="translate(-2213.175 -202.129)" fill="#95a6db"/></g><g transform="translate(68.006 175.061)"><path d="M2467.628,624.932l-3.319,1.326s-3.458-5.5-6.966-5.325l1.748,5.254s-1.984,6.141-12.609,5.438c-9.076,2.063-2.727,6.372-5.24,8.1-3.708,2.543,6.69,8.789,15.451,6.1,11.335-3.486,18.7-14.19,18.7-14.19Z" transform="translate(-2440.472 -620.928)" fill="#f37a50"/></g><path d="M2518.459,232.191s27.739,16.249,41.17,55.2c-12.063,13.373-22.227,3.394-22.227,3.394l-26.874-26.554s-7.9-9.7-4.122-21.557C2509.7,232.345,2518.459,232.191,2518.459,232.191Z" transform="translate(-2423.298 -141.447)" fill="#f37a50"/><path d="M2565.67,512.959l19.392-28.4s4.58-10.894,21.777-4.723c.832,9.246-5.863,22.412-36.535,42.7A67.835,67.835,0,0,0,2565.67,512.959Z" transform="translate(-2470.509 -333.894)" fill="#f37a50"/><path d="M2377.775,205.52c-.937,4.369,1.6,9.608,8.922,7.151,8.768-2.942,12.863-19.4,12.863-19.4l-5.5-2.978S2389.889,201.662,2377.775,205.52Z" transform="translate(-2323.223 -108.639)" fill="#fff"/><path d="M2337.455,219.856c-1.082,2.25-7.248,8.022-10.171,4.584s.489-12.46.489-12.46l6.649-3.378S2331.815,216.729,2337.455,219.856Z" transform="translate(-2282.903 -122.975)" fill="#fff"/><path d="M2518.459,232.191s27.739,16.249,41.17,55.2c-12.063,13.373-23.274,2.359-23.274,2.359l-25.827-25.52s-7.9-9.7-4.122-21.557C2509.7,232.345,2518.459,232.191,2518.459,232.191Z" transform="translate(-2423.298 -141.447)" fill="#7890db"/><path d="M2213.212,648.2a2.252,2.252,0,0,1,.64-.292c-.024-.033-.05-.064-.073-.1-1.375-2-1.327-4.418.107-5.4a2.34,2.34,0,0,1,.768-.337,3.247,3.247,0,0,1,.935-3.629,2.439,2.439,0,0,1,1.384-.412,3.247,3.247,0,0,1,1-3.8c1.434-.985,3.548-.4,4.722,1.3s.962,3.888-.472,4.874a2.719,2.719,0,0,1-1.194.453c1,1.865.839,3.928-.458,4.819a2.327,2.327,0,0,1-.768.338,3.247,3.247,0,0,1-.935,3.629,2.413,2.413,0,0,1-1.277.41,2.774,2.774,0,0,1-.787,3.362,3.214,3.214,0,0,1-3.589-5.217Z" transform="translate(-2193.686 -455.903)" fill="#f37a50"/></g></g><g transform="translate(720.765 -347.799)"><g transform="translate(32.383 219.087)"><path d="M1536.207,1011.386l11.122,5.168,5.643-11.77,16.156-105.651c-2.79-35.34-29.856-110.523-29.856-110.523l-31.252,45.438,35.473,71.477C1529.554,919.792,1537.994,963.683,1536.207,1011.386Z" transform="translate(-1479.447 -785.795)" fill="#f37a50"/><path d="M1769.591,780.938c-.279-2.184-35.15-5.307-35.15-5.307-6.6,27.563-7.125,72.122-1.916,102.551-7.626,26.334-3.964,88.233.281,119.805l18.378-.046c1.209-17.056.307-72.894,15.352-119.759C1769.512,860.58,1770.8,792.672,1769.591,780.938Z" transform="translate(-1728.096 -775.631)" fill="#f37a50"/></g><g transform="translate(87.792 438.077)"><path d="M1445.972,1792.382c2.281-6.412,7.154-7.126,7.154-7.126,9.475,13.536,32.744,5.23,31.974,23.539-35.384-.235-50.09,0-50.09,0a138.795,138.795,0,0,1,1.562-18.093l1.844.351Z" transform="translate(-1435.01 -1785.256)" fill="#e62552"/><path d="M0,0H50.108a0,0,0,0,1,0,0V0a5.392,5.392,0,0,1-5.392,5.392H5.391A5.391,5.391,0,0,1,0,0V0A0,0,0,0,1,0,0Z" transform="translate(0 23.035)" fill="#fff"/></g><g transform="translate(32.228 437.714)"><path d="M1821.846,1807.661s-2.84-11.351-3.091-12.808c-.285-1.659-1.12-5.578-1.29-7.588-.042-.495-4.919-3.69-8.643-3.683-5.045.009-9.643,3.139-9.735,3.73-.6,3.788-.613,8.241-1.578,11.93-.717,2.745-2.667,9.138-2.667,9.138Z" transform="translate(-1794.223 -1783.581)" fill="#e62552"/><g transform="translate(0 22.853)"><path d="M1817.343,1889.287c-.662,2.253-8.829-.346-14.79-.344-5,0-11.478,2.078-12.214,1.27-1.251,2.366-.221,7.272-.221,7.272s5.215.289,11.469,0,13.482.139,16.205-.728C1819.51,1893.681,1817.343,1889.287,1817.343,1889.287Z" transform="translate(-1789.72 -1888.943)" fill="#fff"/></g></g><path d="M1555.182-194.886c1.145-15.585-3.362-29.354-15.788-36.366-12.6-7.107-28.375-.136-28.375-.136h0s-13.356-4.752-25.46,8.581-2.948,25.066-7.9,34.79c-2.932,5.758-17.843,6.946-13.991,25.7,1.111,5.41,7.617,9.05,13.128,9.413,9.682.636,18.7-3.107,22.622.636,12.933,12.333,41.593,7.873,45.6-3.409,1.243-3.5,27.024,3.271,24.452-20.555C1568.17-188.3,1554.159-180.96,1555.182-194.886Z" transform="translate(-1437.832 234.446)"/><g transform="translate(71.933 70.736)"><g transform="translate(0 0)"><path d="M1650.3,94.162l-16.62-2.489,1.324,15.427s4.92,14.416,14.724,14.693,6.166-11.284,6.166-11.284Z" transform="translate(-1633.683 -91.673)" fill="#f37a50"/></g></g><g transform="translate(39.792 84.421)"><g transform="translate(0 0)"><path d="M1568.208,239.308c0-13.029,11.292-32.549,5.879-45.7-3.943-10.581-10.528-28.342-18.594-31.305-3.806-1.4-7.63-2.348-12.372-3.66,0,0,1.388,8.646-4.186,9.093-10.73.86-16.415-12.943-16.415-12.943-5.785-.553-32.077,8.1-33.318,12.327.063,17.067,14.985,40.034,19.52,58.487,1.784,19.929-2.474,30.568-2.5,32.836,0,0,37.676,12.59,62.981-1.341C1569.2,257.1,1568.208,248.108,1568.208,239.308Z" transform="translate(-1489.201 -154.766)" fill="#3f964f"/></g></g><g transform="translate(50.367 5.62)"><ellipse cx="33.362" cy="26.203" rx="33.362" ry="26.203" transform="matrix(-0.185, -0.983, 0.983, -0.185, 13.674, 78.071)" fill="#f37a50"/><g transform="translate(21.566 33.546)"><path d="M1701.045-49.428a.944.944,0,0,0,.531-.332c2.031-2.533,5.75-2.205,5.788-2.2a.948.948,0,0,0,1.035-.849.946.946,0,0,0-.845-1.036c-.193-.02-4.771-.445-7.455,2.9a.948.948,0,0,0,.146,1.332A.945.945,0,0,0,1701.045-49.428Z" transform="translate(-1699.89 53.875)"/></g><g transform="translate(46.782 33.498)"><path d="M1596.208-49.868a.951.951,0,0,0,.279-.137.947.947,0,0,0,.22-1.322,6.652,6.652,0,0,0-6.231-2.719.948.948,0,0,0-.783,1.087.948.948,0,0,0,1.083.784,4.749,4.749,0,0,1,4.389,1.95A.948.948,0,0,0,1596.208-49.868Z" transform="translate(-1589.681 54.096)"/></g><path d="M1633-.086a18.635,18.635,0,0,0,3.188,3.368.873.873,0,0,1,.15,1.231c-1.2,1.786-4.261,3.311-6.119,4.113-.271.117-.44-.218-.207-.409a14.987,14.987,0,0,0,3.285-3.443,1.14,1.14,0,0,0,.121-1c-.274-.717-.817-2.18-1.156-3.393C1632.141-.043,1632.721-.406,1633-.086Z" transform="translate(-1591.256 45.394)" fill="#de623c"/><path d="M1629.568,60.121a.755.755,0,0,1,.787-1.145,63.457,63.457,0,0,0,7.052,1.037,63.277,63.277,0,0,0,7.127.092.755.755,0,0,1,.6,1.255,9.426,9.426,0,0,1-15.561-1.239Z" transform="translate(-1599.961 -0.94)" fill="#fff"/><path d="M1705.772-30.341a2.928,2.928,0,0,1-2.928,2.928,2.928,2.928,0,0,1-2.929-2.928,2.929,2.929,0,0,1,2.929-2.929A2.929,2.929,0,0,1,1705.772-30.341Z" transform="translate(-1675.698 71.285)"/><path d="M1606.064-30.341a2.928,2.928,0,0,1-2.929,2.928,2.929,2.929,0,0,1-2.929-2.928,2.929,2.929,0,0,1,2.929-2.929A2.929,2.929,0,0,1,1606.064-30.341Z" transform="translate(-1554.363 71.285)"/><path d="M1607.275-201.654h0c-6.394-6.087-17.909-8.755-25.442-5.441-10,4.4-20.258,24.869-13.8,38.48,13.232-1.113,31.022-11.136,39.241-19.6a81.348,81.348,0,0,0,15.377,10.751C1623.525-183.929,1610.239-200.378,1607.275-201.654Z" transform="translate(-1563.572 208.532)"/><g transform="translate(0 35.78)"><path d="M1782.958-41.377c3.285,2.826,4.073,7.3,1.76,9.983s-6.85,2.577-10.134-.249-4.073-7.3-1.76-9.984S1779.673-44.2,1782.958-41.377Z" transform="translate(-1771.497 43.572)" fill="#f37a50"/><g transform="translate(4.4 3.566)"><path d="M1794.153-19.537a.951.951,0,0,0,.348-.262,4.284,4.284,0,0,0,.588-5.228,4.564,4.564,0,0,0-4.911-1.96.947.947,0,0,0-.66,1.166.947.947,0,0,0,1.165.66A2.7,2.7,0,0,1,1793.5-24a2.425,2.425,0,0,1-.454,2.989.948.948,0,0,0,.123,1.334A.948.948,0,0,0,1794.153-19.537Z" transform="translate(-1789.483 27.13)" fill="#de623c"/></g></g></g><g transform="translate(18.977 178.806)"><path d="M1423.276,722.619c19.089-23.581,5.109-107.194,39.683-132.7l59.413,4.837c19.828,25.7,6.082,80.7,22.373,133.1C1516.771,737.844,1473.418,738.3,1423.276,722.619Z" transform="translate(-1423.276 -589.921)" fill="#3f964f"/></g><g transform="translate(35.202 182.425)"><path d="M1747.311,610.814l3.49,1.4s3.638-5.785,7.327-5.6l-1.838,5.525s2.086,6.46,13.261,5.72c9.546,2.17,2.868,6.7,5.511,8.514,3.9,2.675-7.037,9.244-16.251,6.411-11.922-3.666-19.669-14.925-19.669-14.925Z" transform="translate(-1739.143 -606.604)" fill="#f37a50"/></g><path d="M1914.2,493.04l-20.4-29.872s-4.818-11.459-22.9-4.969c-.875,9.724,6.166,23.573,38.427,44.912A71.4,71.4,0,0,1,1914.2,493.04Z" transform="translate(-1870.824 -306.405)" fill="#f37a50"/><path d="M1850.715,197.734s-29.175,17.09-43.3,58.054c12.688,14.066,24.479,2.482,24.479,2.482l27.164-26.841s8.309-10.206,4.336-22.673C1859.932,197.9,1850.715,197.734,1850.715,197.734Z" transform="translate(-1807.344 -103.994)" fill="#f37a50"/><path d="M1602.069,178.3a2.766,2.766,0,1,0,2.767-2.767A2.767,2.767,0,0,0,1602.069,178.3Z" transform="translate(-1505.937 -86.61)" fill="#fff"/><path d="M1602.069,203.813a2.766,2.766,0,1,0,2.767-2.767A2.767,2.767,0,0,0,1602.069,203.813Z" transform="translate(-1505.937 -106.587)" fill="#fff"/><path d="M1606.187,227.062a2.767,2.767,0,1,0,2.766-2.767A2.766,2.766,0,0,0,1606.187,227.062Z" transform="translate(-1510.949 -124.793)" fill="#fff"/><path d="M1620.927,245.37a2.767,2.767,0,1,0,2.767-2.767A2.767,2.767,0,0,0,1620.927,245.37Z" transform="translate(-1528.886 -139.13)" fill="#fff"/><ellipse cx="2.767" cy="2.767" rx="2.767" ry="2.767" transform="translate(86.786 105.035)" fill="#fff"/><path d="M1668.955,245.37a2.767,2.767,0,1,0,2.767-2.767A2.767,2.767,0,0,0,1668.955,245.37Z" transform="translate(-1587.331 -139.13)" fill="#fff"/><path d="M1689.86,232.615a2.767,2.767,0,1,0,2.767-2.767A2.767,2.767,0,0,0,1689.86,232.615Z" transform="translate(-1612.771 -129.142)" fill="#fff"/><path d="M1706.678,216.568a2.767,2.767,0,1,0,2.767-2.767A2.767,2.767,0,0,0,1706.678,216.568Z" transform="translate(-1633.236 -116.576)" fill="#fff"/><path d="M1724.07,200.5a2.767,2.767,0,1,0,2.767-2.767A2.766,2.766,0,0,0,1724.07,200.5Z" transform="translate(-1654.401 -103.994)" fill="#fff"/><path d="M1736.825,181.281a2.767,2.767,0,1,0,2.767-2.767A2.766,2.766,0,0,0,1736.825,181.281Z" transform="translate(-1669.923 -88.942)" fill="#fff"/><path d="M1745.065,160.227a2.767,2.767,0,1,0,2.767-2.767A2.767,2.767,0,0,0,1745.065,160.227Z" transform="translate(-1679.95 -72.455)" fill="#fff"/></g><path d="M1275.1,1931.116H871.413a2.46,2.46,0,0,1-2.385-2.53h0a2.46,2.46,0,0,1,2.385-2.529H1275.1a2.46,2.46,0,0,1,2.385,2.529h0A2.46,2.46,0,0,1,1275.1,1931.116Z" transform="translate(-245.48 -1805.239)" fill="#201d40"/></g></svg>