<svg xmlns="http://www.w3.org/2000/svg" width="115" height="115" viewBox="0 0 115 115"><g transform="translate(-8 -8)"><path d="M111.871,70.193V33.819A12.977,12.977,0,1,0,97.032,20.984H8V95.177H63.74a29.658,29.658,0,1,0,48.131-24.985ZM110.016,11.71a9.274,9.274,0,1,1-9.274,9.274A9.285,9.285,0,0,1,110.016,11.71ZM11.71,24.694h85.87a12.975,12.975,0,0,0,2.053,4.053L88.289,40.091a5.371,5.371,0,0,0-4.769,0l-3.737-3.737a5.513,5.513,0,0,0,.556-2.385,5.565,5.565,0,1,0-11.129,0,5.473,5.473,0,0,0,.558,2.383l-9.3,9.3a5.513,5.513,0,0,0-2.385-.556,5.565,5.565,0,1,0,5.565,5.565,5.473,5.473,0,0,0-.558-2.383l9.3-9.3a5.379,5.379,0,0,0,4.769,0L80.9,42.711a5.513,5.513,0,0,0-.556,2.385,5.565,5.565,0,0,0,11.129,0,5.473,5.473,0,0,0-.558-2.383l11.346-11.344a12.9,12.9,0,0,0,5.906,2.452V67.663a29.5,29.5,0,0,0-37.1,6.1V65.5H59.935V87.758h4.251a29.755,29.755,0,0,0-.447,3.71H11.71ZM85.9,43.242A1.855,1.855,0,1,1,84.048,45.1,1.857,1.857,0,0,1,85.9,43.242ZM72.919,33.968a1.855,1.855,0,1,1,1.855,1.855A1.857,1.857,0,0,1,72.919,33.968ZM59.935,50.661a1.855,1.855,0,1,1-1.855-1.855A1.857,1.857,0,0,1,59.935,50.661Zm33.387,57.5a14.839,14.839,0,1,1,14.839-14.839A14.856,14.856,0,0,1,93.323,108.161ZM67.355,78.987a29.453,29.453,0,0,0-2.205,5.062h-1.5V69.21h3.71ZM91.468,67.449v7.419a18.51,18.51,0,0,0-15.041,26.066l-6.434,3.715a25.879,25.879,0,0,1,21.475-37.2Zm1.855,51.841a25.955,25.955,0,0,1-21.494-11.417l6.46-3.73a18.488,18.488,0,0,0,30.067,0l6.46,3.73A25.955,25.955,0,0,1,93.323,119.29Zm23.33-14.64-6.434-3.715A18.51,18.51,0,0,0,95.177,74.869V67.449a25.879,25.879,0,0,1,21.475,37.2Z"/><path d="M339.129,328a11.129,11.129,0,1,0,11.129,11.129A11.14,11.14,0,0,0,339.129,328Zm0,18.548a7.419,7.419,0,1,1,7.419-7.419A7.427,7.427,0,0,1,339.129,346.548Z" transform="translate(-245.806 -245.806)"/><path d="M40,96h3.71v3.71H40Z" transform="translate(-24.581 -67.597)"/><path d="M72,96H97.968v3.71H72Z" transform="translate(-49.161 -67.597)"/><path d="M40,128h3.71v3.71H40Z" transform="translate(-24.581 -92.177)"/><path d="M72,128H97.968v3.71H72Z" transform="translate(-49.161 -92.177)"/><path d="M40,160h3.71v3.71H40Z" transform="translate(-24.581 -116.758)"/><path d="M72,160H97.968v3.71H72Z" transform="translate(-49.161 -116.758)"/><path d="M40,192h3.71v3.71H40Z" transform="translate(-24.581 -141.339)"/><path d="M72,192H97.968v3.71H72Z" transform="translate(-49.161 -141.339)"/><path d="M40,290.548H51.129V272H40Zm3.71-14.839h3.71v11.129H43.71Z" transform="translate(-24.581 -202.79)"/><path d="M104,302.839h11.129V288H104Zm3.71-11.129h3.71v7.419h-3.71Z" transform="translate(-73.742 -215.081)"/><path d="M168,253.677h11.129V224H168Zm3.71-25.968h3.71v22.258h-3.71Z" transform="translate(-122.903 -165.919)"/></g></svg>