<svg xmlns="http://www.w3.org/2000/svg" width="551" height="169" viewBox="0 0 551 169"><g transform="translate(-425 -2502)"><text transform="translate(570 2531)" fill="#00223d" font-size="30" font-family="Montserrat-Bold, Montserrat" font-weight="700"><tspan x="0" y="0">REVISTA</tspan></text><g transform="translate(-3988.216 1631.532)"><path d="M4413.216,988.525V885.05a10.418,10.418,0,0,1,1.99-.414c14.964.025,29.937-.238,44.888.2,22.958.669,41.236,16.948,45.283,39.446,2.678,14.888.631,28.9-7.305,41.861-7.154,11.689-17.789,19.347-31.3,20.573C4449.15,988.314,4431.35,988,4413.216,988.525Zm31.445-24.116c14.785,2.3,22.209-2.043,26.608-15.168a41.643,41.643,0,0,0-.078-26.669c-3.731-11.512-9.588-15.527-21.68-15.466-3.579.018-5.049.99-4.921,4.762.247,7.239.071,14.492.071,21.739C4444.66,943.791,4444.661,953.974,4444.661,964.409Z" fill="#008e2c"/><path d="M4557.219,911.483H4584.1c.238,3.079.48,6.2.839,10.846,5.925-9.73,13.848-12.992,23.347-12.956,15.083.057,23.769,7.291,24.441,22.127.8,17.618.36,35.293.265,52.943-.006,1.075-1.678,3.045-2.617,3.071-8.761.238-17.531.141-26.85.141,0-4.828,0-9.236,0-13.643-.01-11.548.1-23.1-.084-34.643-.106-6.613-2.311-9.419-6.84-9.742-5.431-.386-8.884,2.462-9.55,9.014-.63,6.208-.47,12.5-.521,18.76-.074,8.908.1,17.821-.162,26.721-.04,1.33-1.852,3.7-2.91,3.735-8.6.306-17.226.172-26.239.172Z" fill="#008e2c"/><path d="M4724.425,955h-51.674c-1.859,6.91,2.382,13.345,7.174,14.75,6.777,1.986,12.718-.3,16.059-6.238.637-1.133,2.278-2.507,3.389-2.451,8.441.42,16.865,1.168,25.755,1.849-1.846,8.354-6.485,14.289-12.954,18.949-15.244,10.981-43.063,10.129-57.586-1.838-11.8-9.724-15.139-22.78-12.743-37.033,2.454-14.6,10.6-25.468,25.266-30.45a50.026,50.026,0,0,1,25.021-2.154C4714.115,914.187,4726.5,932.293,4724.425,955Zm-30.2-14.7c.608-9.236-3.254-13.758-11.135-13.661-7.272.089-11.439,5.3-10.544,13.661Z" fill="#008e2c"/><path d="M4827.761,989.238c-20.322.119-36.133-10.652-41.143-27.907-6.635-22.856,5.84-44.7,29.089-50.361,16.617-4.049,31.971-1.2,43.982,11.41,11.832,12.424,14.044,27.533,7.656,43.163-6.149,15.047-18.755,22.011-34.6,23.671A47.787,47.787,0,0,1,4827.761,989.238Zm-11.6-39.176c.794,4.958,1.285,10.384,2.616,15.6,1.08,4.23,4.277,6.241,9,6.213s7.791-2.167,9.005-6.322a54.089,54.089,0,0,0,.383-30.231c-1.237-4.405-4-7.48-9.222-7.56-5.446-.084-8.457,3.048-9.65,7.652C4817.11,939.983,4816.886,944.8,4816.165,950.062Z" fill="#008e2c"/><path d="M4733.492,987.255V911.463h24.576v14.183l1.2.754c3.307-11.908,10.07-18.791,23.451-16.68v25.75c-1.974,0-3.9-.03-5.831.005-9.263.167-13.8,4.443-13.936,13.7-.179,12.534-.045,25.073-.045,38.081Z" fill="#008e2c"/><path d="M4544.023,988.018c-8.849,0-17.295.122-25.727-.158-1.028-.035-2.836-2.223-2.846-3.424q-.257-32.886.026-65.773c.011-1.223,2.113-3.434,3.307-3.478,8.272-.307,16.56-.162,25.24-.162Z" fill="#008e2c"/><path d="M4541.375,895.976c-.007,6.147-5.566,11.549-11.886,11.552a11.826,11.826,0,0,1-11.621-11.765c0-6.484,5.079-11.307,11.883-11.295C4536.49,884.48,4541.383,889.324,4541.375,895.976Z" fill="#008e2c"/></g><path d="M-421-4062.068H129" transform="translate(846 6700)" fill="none" stroke="#707070" stroke-width="2"/><text transform="translate(754 2666)" fill="#00223d" font-size="20" font-family="Montserrat-Bold, Montserrat" font-weight="700"><tspan x="0" y="0">Sasser y Arbeit (1976)</tspan></text></g></svg>