<svg xmlns="http://www.w3.org/2000/svg" width="190" height="190" viewBox="0 0 190 190"><g transform="translate(-177 -1355)"><circle cx="95" cy="95" r="95" transform="translate(177 1355)" fill="#002b45"/><g transform="translate(214.788 1362.167)"><path d="M4186.608,521.388c-1.338-.671-2.692-.379-4.015-.47a6.247,6.247,0,0,1-1.8-.326,14.454,14.454,0,0,1-5.951-4.509,4.317,4.317,0,0,1-.513-1.05c-.143-.329-.256-.67-.388-1-.082-.208-.281-.432-.244-.613.229-1.153-.59-1.944-.951-2.888-.371-.965-.806-1.905-1.209-2.858-.1-.237-.191-.478-.345-.866.255.124.357.139.393.2.927,1.459,2.088,2.739,2.916,4.288a16.386,16.386,0,0,0,7.334,7.273c1.052.51,2.167.887,3.251,1.331C4185.752,520.164,4186.459,520.4,4186.608,521.388Z" transform="translate(-4064.052 -408.02)" fill="#fff"/><path d="M4165.187,521.807c-.681-.2-.885-.746-1.149-1.215-.741-1.313-1.45-2.644-2.187-3.96-.2-.363-.468-.692-.687-1.048a1.539,1.539,0,0,1-.318-.668c-.009-1,.036-2,.073-3.005,0-.062.1-.12.159-.178C4162.28,512.5,4165.473,520.241,4165.187,521.807Z" transform="translate(-4056.023 -411.841)" fill="#fff"/><path d="M4165.564,585.62a15.7,15.7,0,0,1,.555-1.743c.1-.223.471-.513.655-.473.414.089.25.469.167.764-.151.537-.328,1.069-.443,1.613a5,5,0,0,0,1.055,3.847,5.784,5.784,0,0,1,.636.983,1.611,1.611,0,0,1,.026.937c-.052.194-.329.462-.493.455a.808.808,0,0,1-.525-.458,31.477,31.477,0,0,1-1.534-5.561,1.506,1.506,0,0,1,0-.335Z" transform="translate(-4059.685 -467.429)" fill="#fff"/><path d="M4308.309,451.129" transform="translate(-4170.401 -364.836)" fill="#fff"/><path d="M4148.86,698.154a5.6,5.6,0,0,1,.11,1.427c-.208,1.18-.516,2.344-.79,3.513a.933.933,0,0,1-.16.381.47.47,0,0,1-.333.183c-.1-.014-.27-.174-.265-.263.056-1.137-.6-2.3.159-3.419a8.667,8.667,0,0,0,.486-1.154,6.749,6.749,0,0,1,.467-.725Z" transform="translate(-4045.449 -556.39)" fill="#fff"/><path d="M4182.265,566a2.033,2.033,0,0,1-1.742,1.953,1.4,1.4,0,0,1-.818-.329c-.356-.306-.237-.74.226-.774a1.272,1.272,0,0,0,1.28-.985c.057-.183.465-.435.591-.38C4182.034,565.591,4182.177,565.9,4182.265,566Z" transform="translate(-4070.492 -453.531)" fill="#fff"/><path d="M4169.738,394.831c-.145-1.1,1.614-2.5,2.511-2.149a2.016,2.016,0,0,1,.792.728A4.106,4.106,0,0,0,4169.738,394.831Z" transform="translate(-4062.916 -319.46)" fill="#fff"/><path d="M4123.672,779.5c.384-1.536,1.407-2.122,2.648-1.669Z" transform="translate(-4027.192 -618.121)" fill="#fff"/><path d="M4173.623,402.109c.334-1.43,1.109-1.862,2.111-1.269C4175.231,401.543,4174.443,401.681,4173.623,402.109Z" transform="translate(-4065.935 -325.63)" fill="#fff"/><path d="M4211.6,396.18c-.155.465-.28.943-.476,1.39-.129.294-.381.528-.731.255a.542.542,0,0,1-.107-.873,11.823,11.823,0,0,1,1.145-.9Z" transform="translate(-4094.235 -322.12)" fill="#fff"/><path d="M4195.153,384.022c-.286.239-.417.433-.586.473-.284.068-.691-.418-.6-.738.047-.162.354-.412.412-.38A5.027,5.027,0,0,1,4195.153,384.022Z" transform="translate(-4081.705 -312.284)" fill="#fff"/><path d="M4190.706,375.418c-.6.095-.973-.025-1.057-.526-.022-.135.231-.455.342-.448C4190.522,374.477,4190.576,374.914,4190.706,375.418Z" transform="translate(-4078.365 -305.357)" fill="#fff"/><path d="M4189.11,406.076c.054-.61.09-1.026.131-1.5C4189.967,405.043,4189.958,405.191,4189.11,406.076Z" transform="translate(-4077.947 -328.732)" fill="#fff"/><path d="M3845.372,512.124l3.024,1.552c.448.229.909.436,1.336.7a.56.56,0,0,1,.236.465c-.036.136-.273.223-.429.32a.277.277,0,0,1-.165.022c-1.7-.18-3.365.653-5.083.221-.1-.026-.24.071-.424.131.1.148.143.3.212.308a11.959,11.959,0,0,0,2.214.354,21.191,21.191,0,0,0,2.315-.341,3.055,3.055,0,0,1,3.338,1.375,1.241,1.241,0,0,0,.246.229c.656-.183.724-1.226,1.714-1.033-.258.857-1.04,1.291-1.448,1.967a3.441,3.441,0,0,1-2.033,1.525c-.777.239-1.6.339-2.4.661.283.032.566.072.85.094.557.043,1.123.035,1.67.132.23.041.422.3.631.453-.206.2-.379.515-.622.582a3.593,3.593,0,0,1-2.311-.086c-.391-.153-.782-.311-1.184-.43a1.964,1.964,0,0,0-.9-.146c-1.676.375-3.053-.45-4.487-1.056-.386-.163-.75-.386-1.142-.531a1.509,1.509,0,0,0-.8-.116,1.486,1.486,0,0,1-1.32-.35,21.738,21.738,0,0,1-4.04-4.01c-1.114-1.437-2.266-2.844-3.395-4.27a1.5,1.5,0,0,1-.332-.574,6.692,6.692,0,0,0-2.151-3.424c-1.061-1.032-2.158-2.028-3.27-3.005a3.66,3.66,0,0,0-.936-.437l-.2.154a13.952,13.952,0,0,0,.467,1.543c.725,1.7,1.546,3.36,2.215,5.08.5,1.3.833,2.664,1.24,4a23.5,23.5,0,0,0,2.556,5.909c.614.962,1.125,1.99,1.683,2.988l2.866,5.123c.067.12.219.284.184.353-.36.716.183,1.169.5,1.646a7.37,7.37,0,0,0,1.939,2.4c.128.082.127.365.186.555-.206-.01-.481.063-.606-.043a16.209,16.209,0,0,1-1.9-1.748c-1.329-1.548-2.61-3.137-3.876-4.738a21.591,21.591,0,0,1-3.409-4.864,8.954,8.954,0,0,1-.8-3.494,18.064,18.064,0,0,0-1.542-7.244c-1.169-2.723-2.138-5.531-3.189-8.3a1.284,1.284,0,0,1-.132-.568c.214-1.691-.729-3.1-1.111-4.645-.1-.4-.309-.784-.4-1.19-.2-.884-.13-.938.7-1.331.44-.209.685-.126.82.334.158.537.319,1.074.488,1.608.141.443.38.754.919.625s.554-.521.526-.98c-.055-.92-.087-1.843-.086-2.765a2.66,2.66,0,0,1,.731-1.806,1.847,1.847,0,0,1,.244.409c.212.926.413,1.854.61,2.783q.488,2.295.965,4.592c.068.328.117.661.181.99a3.313,3.313,0,0,0,1.392,2.389,2.9,2.9,0,0,1,.776,1.066c.38.685.7,1.4,1.071,2.094a8.156,8.156,0,0,0,2.093,2.483,14.8,14.8,0,0,1,3.433,4.088c.631,1.088,1.263,2.176,1.918,3.25a5.49,5.49,0,0,0,2.112,1.878,1.308,1.308,0,0,0,.8.141,2.622,2.622,0,0,1,1.673.4c1.047.52,2.123.981,3.187,1.466l.132-.18a6.641,6.641,0,0,0-.637-.517c-1.348-.851-2.693-1.706-4.06-2.527a4.622,4.622,0,0,1-2.421-3.25,1.393,1.393,0,0,1,.271-1.33,3.48,3.48,0,0,0,.444-1.027c.184.092.369.127.458.238a1.771,1.771,0,0,0,2.068.45c.429-.112.866-.194,1.3-.293a1.252,1.252,0,0,0,.472-.134,3.218,3.218,0,0,1,3.487-.192,19.788,19.788,0,0,0,2.037.785c.5.149,1.053.127,1.564.253.269.066.688.268.706.443a1.854,1.854,0,0,1-.282,1.087c-.061.1-.569.014-.816-.1-.935-.445-1.837-.961-2.773-1.4a7.445,7.445,0,0,0-1.431-.467,1.953,1.953,0,0,0-.649.069Zm.588,5.645a2.635,2.635,0,0,0-2.56-1.481A10,10,0,0,0,3845.96,517.769Z" transform="translate(-3792.333 -396.537)" fill="#fff"/><path d="M3713.829,487.536a3.561,3.561,0,0,0-1.467-2.357,2.94,2.94,0,0,1-1.148-1.172c-.091-.209-.382-.331-.608-.513l-.39,1.2c-.174-.233-.3-.322-.287-.4.093-.791-.425-1.273-.851-1.828-.7-.907-1.346-1.853-1.989-2.8a1.093,1.093,0,0,1-.209-.7c.1-.644.287-1.274.46-1.992.645.886,1.208,1.639,1.745,2.41a1.361,1.361,0,0,1,.216.629,2.734,2.734,0,0,0,1.266,1.882,11.665,11.665,0,0,0,.942.7,7.244,7.244,0,0,0,1.979,1.018,4.36,4.36,0,0,1,2.263,1.917,1,1,0,0,1,.108.712q-.5,2.115-1.071,4.213a1.993,1.993,0,0,1-.482.757,2.426,2.426,0,0,0-.623,1.514c-.058.659-.24,1.305-.357,1.959a3.1,3.1,0,0,0-.073.746,4.811,4.811,0,0,1-.787,2.6c-.6,1.133-1.092,2.32-1.614,3.492-.181.408-.322.834-.463,1.258a7.745,7.745,0,0,0-.559,2.944,1.15,1.15,0,0,1-.565,1.3,3.756,3.756,0,0,1-.434-.681,12.443,12.443,0,0,1-.484-1.6c-.281-1.282-.519-2.574-.793-3.858a5.855,5.855,0,0,0-.3-.814l-.208-.009a2.209,2.209,0,0,0-.213.539,5.864,5.864,0,0,1-.021.916,16.905,16.905,0,0,0-.264,4.427,3.312,3.312,0,0,0,.876,2.532c.578.614.834,1.5,1.564,2.038a7.951,7.951,0,0,1,.867.891l-.712.906a1.713,1.713,0,0,0,1.753.6,5.378,5.378,0,0,1,.925.088,3.6,3.6,0,0,1-.546.859,1.849,1.849,0,0,1-2.2.194,4.041,4.041,0,0,0-2.008-.5,2.292,2.292,0,0,1-2.119-1.289,22.838,22.838,0,0,1-2.989-7.708,12.925,12.925,0,0,0-.621-2.264,1.177,1.177,0,0,0-2.013-.53,17.011,17.011,0,0,0-1.429,1.636c-.28.324-.488.93-1.008.687-.574-.268-.275-.852-.114-1.269a10.152,10.152,0,0,1,4.276-5.122.842.842,0,0,1,.464-.179c1.153.156,1.412-.771,1.7-1.5a10.68,10.68,0,0,1,1.8-3.286,7.487,7.487,0,0,0,1.123-1.669,7.035,7.035,0,0,1,3.144-2.891,3.3,3.3,0,0,0,1.639-1.6.8.8,0,0,1,1.122-.446,4.9,4.9,0,0,1,1.189.862,2.916,2.916,0,0,1,.432.662Zm-7.147,11.565.06-.29c-.241-.061-.48-.132-.724-.18a7.206,7.206,0,0,0-4.633.995c-.526.254-.572.5-.092.84a5.153,5.153,0,0,1,1.869,3.613c.056.314.135.624.218,1,.667-.563.566-1.263.607-1.992.33.458-.068,1.065.565,1.359.272-.786-.388-1.692.361-2.369l.428.371a9.248,9.248,0,0,1,.417-1.679c.292-.637.042-1.091-.468-1.666Zm4.762-11.3-.269-.076c-.322.837-.65,1.671-.953,2.515-.02.056.148.18.228.272a8.438,8.438,0,0,0,.965-1.178A1.3,1.3,0,0,0,3711.444,487.8Zm-3.532,24.088-2.186-1.243C3705.96,512.082,3706.714,512.535,3707.911,511.885Z" transform="translate(-3695.904 -384.882)" fill="#fff"/><path d="M3867.622,441.061c.873.144.879.147,1.24-.605.432-.9.819-1.82,1.282-2.7a9.83,9.83,0,0,1,4.942-4.806,2.136,2.136,0,0,1,.8-.23c1.143.022,2.287.059,3.425.158a2.511,2.511,0,0,1,.981.446.365.365,0,0,1-.189.684,2.613,2.613,0,0,1-.9-.147,4.5,4.5,0,0,0-4.179.395,1.368,1.368,0,0,0-.568,2.113,6.929,6.929,0,0,0,1.216,1.248c.4.359.856.664,1.432,1.1-.993.267-1.559-.386-2.412-.434.162.313.269.577.423.811a3.971,3.971,0,0,1-1.956,5.8c-.529.185-1.053.384-1.589.543a1.782,1.782,0,0,1-1.671-.287,1.2,1.2,0,0,1-.481-1.6,16.207,16.207,0,0,0,.437-1.949,1.525,1.525,0,0,0-.142-.573h-.216c-.069.283-.129.568-.209.847-.113.4-.271.759-.8.659a.468.468,0,0,0-.611.416,2.824,2.824,0,0,1-1.179,1.862c-.049.038-.042.148-.06.217.761.177,1.516.307,2.241.535s1.424.557,2.173.857c-.216.407-.565.36-.878.284a10.85,10.85,0,0,1-1.607-.475c-2.469-1.02-4.414.715-5.344,2.283a3.475,3.475,0,0,0-.22,1.386,8.568,8.568,0,0,1-.069,1.252.931.931,0,0,1-.544.613c-.371.072-.485-.282-.507-.618-.012-.192-.037-.383-.068-.686l-.773.667c-.436-1.161-.288-1.508.573-2.348,1.02-1,1.958-2.075,2.925-3.124.472-.513.918-1.051,1.395-1.559A7.163,7.163,0,0,0,3867.622,441.061Z" transform="translate(-3823.304 -350.555)" fill="#fff"/><path d="M3868.512,520.061c.292.2.5.274.582.416a5.846,5.846,0,0,0,2.327,2.009c1.768.995,2.073,2.635,2.2,4.469a25.651,25.651,0,0,0,.778,3.757c.111.491.278.968.392,1.458a3.012,3.012,0,0,1,.007.621,1.974,1.974,0,0,1-1.513-1.154,11.3,11.3,0,0,0-2.039-2.956,10.671,10.671,0,0,1-1-1.54c-.354-.6-.671-1.225-1.012-1.835a1.6,1.6,0,0,1-.217-1.572,2.44,2.44,0,0,0-.093-1.3c-.095-.464-.3-.9-.4-1.368A5.39,5.39,0,0,1,3868.512,520.061Z" transform="translate(-3829.269 -418.302)" fill="#fff"/><path d="M3786.226,588.077a2.7,2.7,0,0,0-.621-.348,4.2,4.2,0,0,1-2.226-1.823,1.511,1.511,0,0,1,.262-2.189,8.516,8.516,0,0,1,1.941-1.575,6.164,6.164,0,0,0,2.084-2c.76-1.034,1.561-2.04,2.3-3.086a6.054,6.054,0,0,0,.838-1.532,13.735,13.735,0,0,0,1.162-4.269c0-.153.182-.306.279-.459.147.138.4.264.422.418a3.9,3.9,0,0,1,.014,1.489c-.472,1.635-.971,3.269-1.585,4.855a5.993,5.993,0,0,1-1.263,1.754c-1.224,1.33-2.335,2.8-4.059,3.572a5.511,5.511,0,0,0-1.119.737,1.286,1.286,0,0,0,.072,2.235,12.872,12.872,0,0,0,2.056.9c.256.1.556.106.8.224a1.06,1.06,0,0,1,.52,1.542,2.333,2.333,0,0,1-.9.95,5.465,5.465,0,0,1-4.634.027,2.634,2.634,0,0,1-.567-.485c.416-.587.932-.516,1.465-.48.694.047,1.393.054,2.088.038a2.321,2.321,0,0,0,.653-.22Z" transform="translate(-3762.188 -457.65)" fill="#fff"/><path d="M3800.817,500.615a5.893,5.893,0,0,0-.5,4.192c.185-.283.267-.386.325-.5.4-.8.829-.962,1.6-.509a4.684,4.684,0,0,1,1.319,1.007,2.3,2.3,0,0,1,.223,2.942c-.156.231-.289.479-.445.71-.6.887-.872.986-2.09.651.144.348.18.686.357.8a.9.9,0,0,0,.752-.032c.26-.136.425-.442.672-.62a.4.4,0,0,1,.663.42,1.937,1.937,0,0,1-2.622,1.2,1.1,1.1,0,0,1-.472-.552,12.627,12.627,0,0,1-.519-1.935c-.279-1.7-.509-3.418-.753-5.128a1.52,1.52,0,0,1,.516-1.646,4.186,4.186,0,0,0,.749-1.068Z" transform="translate(-3775.59 -403.16)" fill="#fff"/><path d="M3784.277,584.378a1.091,1.091,0,0,1-.034-.377,4.668,4.668,0,0,0-.155-2.961,2.7,2.7,0,0,1,.571-2.659,7.261,7.261,0,0,1,.845-1.037c.815-.759,1.644-1.507,2.517-2.2a3.23,3.23,0,0,1,1.111-.3c.259-.315.025-1.03.8-1.267a4.5,4.5,0,0,1-.174,3,7.86,7.86,0,0,0-.491.87,2.976,2.976,0,0,1-1.276,1.354,11.754,11.754,0,0,0-2.262,2.079,2.069,2.069,0,0,0-.256,1.349c.059.976-.66,1.483-1.017,2.2Z" transform="translate(-3763.684 -459.813)" fill="#fff"/><path d="M4026.021,782.148c1.244-.61,2.474-1.249,3.739-1.813a3.413,3.413,0,0,1,1.46-.293,6.2,6.2,0,0,0,3.06-.725c.215-.108.452-.173.752-.285a2.393,2.393,0,0,1,.128.612,4.827,4.827,0,0,1-3.012,3.612,7.184,7.184,0,0,1-4.279-.119c-.644-.233-1.269-.517-1.9-.779Z" transform="translate(-3951.409 -619.166)" fill="#fff"/><path d="M3884.537,612.1a2.567,2.567,0,0,1-.6-.413c-.93-1.036-1.859-2.077-2.734-3.159a5.853,5.853,0,0,1-.53-1.191,2.831,2.831,0,0,0-.386-.591c-.356-.424-.741-.825-1.092-1.253a.662.662,0,0,1-.168-.458,1.191,1.191,0,0,1,.307-.7.737.737,0,0,1,.669.1c.4.3.71.713,1.1,1.027.8.646,1.6,1.292,2.445,1.873a2.683,2.683,0,0,1,1.382,1.583c.078.334.442.62.716.886.641.621.6,1.013-.135,1.491A11.115,11.115,0,0,0,3884.537,612.1Z" transform="translate(-3837.437 -483.631)" fill="#fff"/><path d="M3881.584,626.493c-.339-.235-.679-.468-1.016-.707-.723-.513-1.459-1.007-2.158-1.552a10.979,10.979,0,0,1-1.271-1.185,22.53,22.53,0,0,1-1.578-1.84,9.27,9.27,0,0,1-1.016-1.712c-.09-.2.121-.534.194-.807.275.077.649.067.808.246,1.09,1.233,2.142,2.5,3.19,3.767q1.172,1.419,2.3,2.876a7.276,7.276,0,0,1,.53.933Z" transform="translate(-3833.946 -494.801)" fill="#fff"/><path d="M3700.782,549.75a7,7,0,0,1-.914.619,14.516,14.516,0,0,0-5.057,3.477,1.636,1.636,0,0,1-.422.4,3.939,3.939,0,0,1-.716.212c.007-.233,0-.466.025-.7a.44.44,0,0,1,.118-.219c1.49-1.714,3.021-3.375,5.3-4.07A1.807,1.807,0,0,1,3700.782,549.75Z" transform="translate(-3693.672 -441.04)" fill="#fff"/><path d="M3916.667,699.056a2.586,2.586,0,0,1-.384-.11,29.8,29.8,0,0,0-3.4-1.531c-1.853-.577-2.93-2.05-4.223-3.289a1.839,1.839,0,0,1-.281-.407c-.021-.037.009-.1.035-.336a10.9,10.9,0,0,1,1.042.66c.368.3.685.657,1.04.97.186.164.4.4.614.408,1.174.057,1.84.962,2.69,1.551a2.764,2.764,0,0,0,1.8.722c.734-.036.876.727,1.176,1.228Z" transform="translate(-3860.2 -552.735)" fill="#fff"/><path d="M4044.734,730.923c.213.266.427.549.657.818.286.334.6.644.874.989.177.226.419.5.418.747,0,.585.319.6.753.631a4.767,4.767,0,0,1,1.2.248c.121.041.211.3.223.468,0,.062-.262.214-.394.2a6.778,6.778,0,0,1-2.62-.442,3.333,3.333,0,0,1-1.841-2.717C4043.932,731.372,4044.19,731.082,4044.734,730.923Z" transform="translate(-3965.392 -581.852)" fill="#fff"/><path d="M3723.771,505.611a2.047,2.047,0,0,1-.553.378,2.124,2.124,0,0,1-1.907-1.066c-.3-.74-.627-1.471-.962-2.2-.13-.28-.118-.491.177-.617.406-.173.823-.325,1.362-.536.057.34.121.615.145.893a12.021,12.021,0,0,0,.073,1.25c.143.738.419,1.4,1.3,1.534a.5.5,0,0,1,.215.12A1.209,1.209,0,0,1,3723.771,505.611Z" transform="translate(-3714.302 -403.962)" fill="#fff"/><path d="M3963.482,591.781c-.689,1.064-1.32,1.263-2.248.9a2.14,2.14,0,0,0-.808-.041,8.728,8.728,0,0,1-1.164.054.659.659,0,0,1-.458-.406.617.617,0,0,1,.26-.53,2.762,2.762,0,0,1,1.148-.384,19.681,19.681,0,0,1,2.329.168A7.146,7.146,0,0,1,3963.482,591.781Z" transform="translate(-3899.311 -473.614)" fill="#fff"/><path d="M3763.965,573.46c.262,1.249-1.3,3.657-2.861,4.4C3760.911,576.585,3762.67,573.878,3763.965,573.46Z" transform="translate(-3745.963 -459.719)" fill="#fff"/><path d="M3847.507,502.174a1.029,1.029,0,0,1-.111-.213c-.407-1.582-.827-3.16-1.2-4.75a2.408,2.408,0,0,1,.11-1.208c.616.732,1.419,1.307,1.339,2.386-.046.611-.066,1.225-.069,1.838,0,.38.045.761.079,1.141.021.235.058.469.087.7Z" transform="translate(-3811.945 -399.641)" fill="#fff"/><path d="M3866.436,459.769c.442-.6.857-1.219,1.339-1.783a3.053,3.053,0,0,1,.811-.5c.659.885.577,1.4-.294,1.756-.721.293-.741,1.077-1.215,1.532a5.37,5.37,0,0,0-.518.676l-.231-.113a2.738,2.738,0,0,1,.257-.675.577.577,0,0,0-.166-.921Z" transform="translate(-3827.59 -369.77)" fill="#fff"/><path d="M3863.425,582.533a21.171,21.171,0,0,1,3,3.821.877.877,0,0,1-1.3-.279c-.65-1.1-1.192-2.262-1.771-3.4C3863.343,582.645,3863.4,582.58,3863.425,582.533Z" transform="translate(-3825.283 -466.757)" fill="#fff"/><path d="M3880.958,508.009a1.519,1.519,0,0,1-1.426-1.063,1.078,1.078,0,0,1,.676-1.144.9.9,0,0,1,.814-.021,1.252,1.252,0,0,1,.385.911A5.727,5.727,0,0,1,3880.958,508.009Z" transform="translate(-3837.817 -407.157)" fill="#fff"/><path d="M4037,706.179a4.176,4.176,0,0,1-.461,2.546.835.835,0,0,1-.714.353.893.893,0,0,1-.468-.656A2.433,2.433,0,0,1,4037,706.179Z" transform="translate(-3958.685 -562.66)" fill="#fff"/><path d="M3779.711,566.681c.129-.287.254-.576.388-.861.091-.194.273-.38.277-.573.006-.328-.028-.669.4-.672a5.184,5.184,0,0,1,1.344.184c.069.018.128.578.03.644a7.426,7.426,0,0,1-2.225,1.461Z" transform="translate(-3760.406 -452.828)" fill="#fff"/><path d="M3933.255,469.278v-2.272c.914-.013,1.6.469,1.6,1.065S3934.157,469.208,3933.255,469.278Z" transform="translate(-3879.499 -377.15)" fill="#fff"/><path d="M3744.281,453.911c-.395.923-.72,1.766-1.124,2.57-.092.184-.448.236-.683.348a2.063,2.063,0,0,1-.254-.723A2.7,2.7,0,0,1,3744.281,453.911Z" transform="translate(-3731.328 -366.994)" fill="#fff"/><path d="M3961.622,462.726a2.505,2.505,0,0,1-3.868.62c.6-.49,1.283-.243,1.9-.314C3960.3,462.957,3960.94,462.834,3961.622,462.726Z" transform="translate(-3898.501 -373.831)" fill="#fff"/><path d="M3934.461,644.387c-1.594,1.135-2.769,1.559-3.83,1.421C3931.067,644.592,3932.151,644.418,3934.461,644.387Z" transform="translate(-3877.464 -514.732)" fill="#fff"/><path d="M3988.578,462.544a3.8,3.8,0,0,1-1.4,1.7c-.333.289-.645.042-.619-.309a2.373,2.373,0,0,1,.4-1.284C3987.353,462.168,3987.948,462.307,3988.578,462.544Z" transform="translate(-3920.845 -373.522)" fill="#fff"/><path d="M4078.9,617.291a2.765,2.765,0,0,1-.231.666c-.368.554-.759,1.094-1.175,1.612-.1.126-.414.253-.485.2a1.094,1.094,0,0,1-.273-.544.383.383,0,0,1,.073-.315c.591-.628,1.027-1.437,1.9-1.739Z" transform="translate(-3990.784 -493.62)" fill="#fff"/><path d="M3767.679,589.508c-.238-1.257,1.114-2.013,2.314-2.1C3769.8,588.75,3768.6,588.882,3767.679,589.508Z" transform="translate(-3751.052 -470.536)" fill="#fff"/><path d="M3905.905,653.485c.668.912,1.353,1.812,1.994,2.742.17.247.234.629-.151.781s-.623-.12-.77-.448a4.044,4.044,0,0,1-.083-.4c-.185-.569-.371-1.137-.571-1.7-.119-.336-.266-.661-.4-.992Z" transform="translate(-3858.286 -521.773)" fill="#fff"/><path d="M4038.27,672.022a3.287,3.287,0,0,1,1.086.3,1.327,1.327,0,0,1,.443.878c.018.171-.339.554-.482.533a1.265,1.265,0,0,1-.781-.477,4.47,4.47,0,0,1-.406-1.068Z" transform="translate(-3960.843 -536.167)" fill="#fff"/><path d="M3939.707,469.117c.723.477.813.724.479,1.276a4.143,4.143,0,0,1-2.177,1.918C3938.539,471.152,3939.979,470.609,3939.707,469.117Z" transform="translate(-3883.186 -378.788)" fill="#fff"/><path d="M3966.13,625.253a2.649,2.649,0,0,1-.422.729,2.136,2.136,0,0,1-.955.528.78.78,0,0,1-.931-.7C3964.573,625.537,3965.2,624.935,3966.13,625.253Z" transform="translate(-3903.207 -499.822)" fill="#fff"/><path d="M3902.662,433.017c-.213.1-.4.264-.56.24a2.034,2.034,0,0,1-.757-.323c-.211-.136-.561-.447-.531-.5a1.944,1.944,0,0,1,.675-.755c.125-.069.5.149.649.329A5.474,5.474,0,0,1,3902.662,433.017Z" transform="translate(-3854.335 -349.739)" fill="#fff"/><path d="M4123.156,552.458a5.744,5.744,0,0,1-2.267,3.506C4121.743,554.858,4121.932,553.328,4123.156,552.458Z" transform="translate(-4025.033 -443.43)" fill="#fff"/><path d="M4078.99,644.752a2.213,2.213,0,0,1-.149.676,11.488,11.488,0,0,1-.951,1.376c-.112.138-.372.155-.564.227-.02-.2-.135-.477-.044-.6.466-.616.638-1.5,1.468-1.8Z" transform="translate(-3991.184 -514.925)" fill="#fff"/><path d="M3854.167,643.187a3.328,3.328,0,0,1-.537-2.859A2.39,2.39,0,0,1,3854.167,643.187Z" transform="translate(-3817.623 -511.584)" fill="#fff"/><path d="M3904.5,498.4a4.789,4.789,0,0,1,2.886-.978A2.453,2.453,0,0,1,3904.5,498.4Z" transform="translate(-3857.192 -400.739)" fill="#fff"/><path d="M3733.941,201.783" transform="translate(-3724.906 -171.436)" fill="#fff"/><path d="M4029.781,624.266a1.948,1.948,0,0,1,1.968-1.047A1.368,1.368,0,0,1,4029.781,624.266Z" transform="translate(-3954.367 -498.305)" fill="#fff"/><path d="M3923.831,627.224c.8,0,1.219.285,1.183.672-.04.423-.35.522-.707.532-.481.014-1-.38-.9-.75C3923.466,627.458,3923.756,627.3,3923.831,627.224Z" transform="translate(-3871.851 -501.42)" fill="#fff"/><path d="M3848.012,478.537a5.788,5.788,0,0,1-.751,1.09c-.149.14-.528.037-.8.044.057-.242.033-.586.186-.7a7.34,7.34,0,0,1,1.182-.636Z" transform="translate(-3812.178 -385.934)" fill="#fff"/><path d="M3977.164,638.286a1.589,1.589,0,0,1-1.5.664c-.175-.033-.313-.26-.469-.4.155-.127.294-.333.466-.364.476-.085.965-.1,1.449-.138Z" transform="translate(-3912.028 -509.817)" fill="#fff"/><path d="M3918.569,675.044c-.379-.42-.683-.72-.936-1.059a.462.462,0,0,1,.02-.448.569.569,0,0,1,.455-.094C3918.725,673.559,3918.933,674.083,3918.569,675.044Z" transform="translate(-3867.344 -537.262)" fill="#fff"/><path d="M3875.875,519.151c-1.011-.061-1.488-.441-1.633-1.239C3874.914,517.769,3875.28,518.037,3875.875,519.151Z" transform="translate(-3833.727 -416.607)" fill="#fff"/><path d="M3965.622,471.43c.7-.776,1.76-.9,2.542-1.568l.211.247c-.14.188-.241.475-.426.547C3967.188,470.95,3966.4,471.178,3965.622,471.43Z" transform="translate(-3904.604 -379.366)" fill="#fff"/><path d="M3861.791,481.59c.026.538-.546,1.215-.92,1.2a.453.453,0,0,1-.329-.268c-.083-.34.483-1.131.82-1.134C3861.526,481.385,3861.692,481.54,3861.791,481.59Z" transform="translate(-3823.094 -388.304)" fill="#fff"/><path d="M3973.882,649.3c-.23.963-.825,1.284-1.68.969C3972.4,649.736,3972.736,649.538,3973.882,649.3Z" transform="translate(-3909.708 -518.546)" fill="#fff"/><path d="M3795.649,603.945c-.154-.793.049-1.12.849-1.452C3796.71,603.179,3796.545,603.479,3795.649,603.945Z" transform="translate(-3772.731 -482.238)" fill="#fff"/><path d="M3765.485,279.608c-.1.682-.139,1.419-1.148,1.695A2.4,2.4,0,0,1,3765.485,279.608Z" transform="translate(-3748.482 -231.8)" fill="#fff"/><path d="M3990.151,643.1c-.431.635-.608,1.335-1.443,1.524C3988.91,643.733,3989.5,643.089,3990.151,643.1Z" transform="translate(-3922.51 -513.734)" fill="#fff"/><path d="M3888.363,647.171c1.009.14,1.349.538,1.313,1.351C3888.973,648.377,3888.808,647.778,3888.363,647.171Z" transform="translate(-3844.679 -516.892)" fill="#fff"/><path d="M4135.368,555.758a1.083,1.083,0,0,1,.555-1.36C4136.282,555.056,4136.193,555.294,4135.368,555.758Z" transform="translate(-4036.218 -444.934)" fill="#fff"/><path d="M3860.113,472.466c-.288.2-.472.425-.6.4-.195-.044-.351-.261-.524-.4.161-.167.3-.431.489-.468C3859.617,471.962,3859.814,472.229,3860.113,472.466Z" transform="translate(-3821.896 -381.014)" fill="#fff"/><path d="M3861.029,534.837q.365.791.729,1.582l-.179.084a1.648,1.648,0,0,1-.774-1.587Z" transform="translate(-3823.301 -429.762)" fill="#fff"/><path d="M4038,722.449c-.583-.1-.721-.435-.649-.853.019-.105.344-.277.432-.231C4038.288,721.625,4038.107,722.02,4038,722.449Z" transform="translate(-3960.228 -574.432)" fill="#fff"/><path d="M4116.286,342.269a1.924,1.924,0,0,1-.944-1.935Z" transform="translate(-4020.725 -278.9)"/><path d="M3815.81,355.07a2.794,2.794,0,0,1,1.193-2.1c.9-.663,1.745-1.406,2.688-2a18.073,18.073,0,0,1,4.974-2.561,12.341,12.341,0,0,1,2.747-.248c1.106-.024,1.107.014,1.269,1.288l-2.948.767.035.2c2.025-.34,4.069-.981,6.055.2-.271.508-.682.486-1.065.508-1.421.082-2.842.161-4.263.23a1.7,1.7,0,0,1-1.473-.419.971.971,0,0,0-.849-.1c-1.434.541-2.873,1.083-4.26,1.731a7.811,7.811,0,0,0-2.552,1.875A1.837,1.837,0,0,1,3815.81,355.07Z" transform="translate(-3788.406 -284.973)" fill="#fff"/><path d="M3904.481,363.63a1.888,1.888,0,0,1,2.141-.318A1.283,1.283,0,0,1,3904.481,363.63Z" transform="translate(-3857.181 -296.572)" fill="#fff"/><path d="M3887.674,346.879c.81.086,1.439-.714,2.31-.419C3889.531,347.267,3888.15,347.552,3887.674,346.879Z" transform="translate(-3844.145 -283.6)" fill="#fff"/><path d="M3968.1,319.572a4.323,4.323,0,0,1,2.069-.961c.1-.022.337.094.34.154a.837.837,0,0,1-.125.52A2.174,2.174,0,0,1,3968.1,319.572Z" transform="translate(-3906.526 -262.049)" fill="#fff"/><path d="M4019.786,329.591a2.806,2.806,0,0,1-2.176.88A2.371,2.371,0,0,1,4019.786,329.591Z" transform="translate(-3944.927 -270.565)" fill="#fff"/><path d="M3991.925,331.091c-.315.678-.561.761-1.416.478C3990.774,330.87,3991.2,330.725,3991.925,331.091Z" transform="translate(-3923.906 -271.58)" fill="#fff"/><path d="M3981.458,144.906a.632.632,0,0,1-.953.19,1.048,1.048,0,0,0-1.436.137.563.563,0,0,1-.937-.077c-.223-.345-.055-.631.246-.863a1.484,1.484,0,0,1,2.212-.008C3980.869,144.493,3981.156,144.691,3981.458,144.906Z" transform="translate(-3914.227 -126.459)" fill="#fff"/><path d="M3988.3,158l-2.3-1.386a2.009,2.009,0,0,1,2.437,1.205Z" transform="translate(-3920.416 -136.341)" fill="#fff"/><path d="M4083.261,444.814a5.955,5.955,0,0,1,.931.3,7.28,7.28,0,0,1,2.726,2.313,10.3,10.3,0,0,1,.7,1.75,6.107,6.107,0,0,0,.658,1.116,2.762,2.762,0,0,0,.584.463c-.407.451-.7.487-.86.057a2.151,2.151,0,0,0-1.416-1.518.8.8,0,0,1-.414-.578c-.134-1.28-1.12-1.944-1.918-2.741-.348-.347-.744-.645-1.118-.965Z" transform="translate(-3995.749 -359.938)" fill="#fff"/><path d="M4081.7,500.517c-.265-.829.261-1.147.729-1.568A1.484,1.484,0,0,1,4081.7,500.517Z" transform="translate(-3994.585 -401.927)" fill="#fff"/><path d="M3732.81,579.008a2.86,2.86,0,0,1,.392.789c.02.121-.282.3-.437.448a4.064,4.064,0,0,1-.483-.771c-.039-.1.172-.3.27-.458Z" transform="translate(-3723.615 -464.022)" fill="#fff"/><g transform="translate(2.184 0)"><path d="M4021.575,834.2Z" transform="translate(-3950.183 -661.956)" fill="#fff"/><path d="M3866.715,467.541l-.006.02.022,0Z" transform="translate(-3830.068 -377.566)" fill="#fff"/><path d="M3822.588,157.373a1.781,1.781,0,0,0-.4-.425,14.374,14.374,0,0,0-2.3-1.686c-2.181-1.051-2.771-3.252-3.955-5.02.709-.593.74-.8.109-1.233a8.557,8.557,0,0,1-2.344-2.489c-.115-.179-.3-.436-.459-.443-.5-.024-.636-.391-.841-.719a1.627,1.627,0,0,0-.348-.466.684.684,0,0,0-.521-.153c-.124.045-.229.3-.241.463a5.283,5.283,0,0,0,.052.827,3.5,3.5,0,0,0-.922.017c-.314.09-.593.366-.949-.165.35-.346.707-.717,1.085-1.065.244-.224.5-.5.219-.762-.147-.137-.547-.057-.812.009a1.135,1.135,0,0,0-.452.362c-.387.4-.764.818-1.142,1.231-.943,1.03-2.034.832-2.379-.5a16.048,16.048,0,0,1-.474-5.152c.1-1.365.177-2.73.293-4.093a9.088,9.088,0,0,0-.456-4.463,11,11,0,0,1-.492-1.516,15.513,15.513,0,0,0-1.821-3.947c-.1-.172-.174-.362-.26-.544a1.466,1.466,0,0,1,.728.475c.5.641.99,1.287,1.434,1.963,1.314,2,2.415,4.008,2.284,6.592a11.519,11.519,0,0,1-.97,4.343,2.109,2.109,0,0,0-.059.7c.242-.067.551-.061.716-.212a6.509,6.509,0,0,1,3.127-1.542,1.82,1.82,0,0,0,1.526-1.483c.146-.655.293-1.309.418-1.968.138-.727.519-.941,1.2-.64a4.657,4.657,0,0,1,.437.25,5.683,5.683,0,0,1,1.785,1.744c.444.634.9.571,1.279-.1a1.5,1.5,0,0,0-.28-2.114c-.491-.5-1.011-.972-1.48-1.491a5.066,5.066,0,0,1-1.21-2.647,1.481,1.481,0,0,1,.406.405,15.458,15.458,0,0,0,1.255,1.658c.624.635,1.366,1.154,2.02,1.762.568.528.626.814.259,1.486-.48.879-1.015,1.729-1.553,2.575a3.037,3.037,0,0,0-.578,1.664c1.3-.557,1.365-2.037,2.255-2.758.248.559.459,1.067.7,1.563a.725.725,0,0,1-.256,1.024c-.674.453-1.35.9-2.041,1.328a4.19,4.19,0,0,1-.779.284l-.319-1.015c-1.176.8-1.081,3.435.229,4.514-.034-.555-.045-.985-.09-1.411a1.123,1.123,0,0,1,.743-1.261c.532-.242,1.031-.557,1.543-.842a4.363,4.363,0,0,1,1.024-.56,2.129,2.129,0,0,0,1.7-1.323c.266-.688.578-1.358.867-2.038.005-.012-.032-.042-.078-.1-.5.124-.708.532-.946.946-.1.179-.417.4-.559.355a.9.9,0,0,1-.525-.543,1.638,1.638,0,0,1,.085-.894,2.227,2.227,0,0,1,1.3-1.347,1.8,1.8,0,0,0,1.214-1.756,13.752,13.752,0,0,0-.4-2.562c-.21-.891-.364-.993-1.282-.989a4.974,4.974,0,0,1-2.693-.838,2.335,2.335,0,0,1-.9-1.146c-.415-1.245-.748-2.521-1.046-3.8a22.352,22.352,0,0,0-1.82-5.311,3.087,3.087,0,0,1-.375-1.273,5.09,5.09,0,0,0-2.075-3.865,4.422,4.422,0,0,1-1.331-2.086c-.313-.9-.674-1.776-.934-2.686a5.369,5.369,0,0,1-.33-2.029,11.939,11.939,0,0,0,.161-4.227,1.99,1.99,0,0,0-.8-1.384,5.549,5.549,0,0,1-2.17-2.709,4.644,4.644,0,0,0-1.67-2.151,5.121,5.121,0,0,1-1.282-1.514,12.482,12.482,0,0,1-.881-2.083,6.173,6.173,0,0,0-2.5-3.367,16.817,16.817,0,0,1-1.576-1.114,7.1,7.1,0,0,1-2.445-2.929,5.686,5.686,0,0,0-.615-.938c-.28.473-.29,1.008-.932.783-.887-.31-1.8-.534-2.706-.8a2.236,2.236,0,0,1-.366-.2q-1.038-.548-2.078-1.092a10.281,10.281,0,0,1-2.373-1.624l.934-.4c-.15-.7-.75-.889-1.205-1.135a17.536,17.536,0,0,1-4.8-3.626,6.975,6.975,0,0,0-1.314-1.028c-.993-.67-2-1.318-3.013-1.96a3.72,3.72,0,0,0-.824-.4,2.325,2.325,0,0,1-1.714-1.878c-.958-2.644-11.251-3.186-22.97-4.034s-16.719,4.034-16.719,4.034c-.318.765-1.05.983-1.721,1.236a22.538,22.538,0,0,0-5.8,3.655c-1.675,1.307-3.322,2.65-4.957,4.006-.938.778-2.127,1.359-2.554,2.6a26.431,26.431,0,0,1-2.04,4.024c-1.1,2.008-1.957,4.147-2.917,6.231-.48,1.042-.922,2.1-1.452,3.12a5.71,5.71,0,0,1-.964,1.148c-.15.16-.392.24-.526.409a1.37,1.37,0,0,0-.139.509c.178.008.395.085.528.012.365-.2.674-.506,1.043-.695a2.358,2.358,0,0,0,1.144-1.176c.556-1.254,1.087-2.52,1.688-3.752.988-2.025,1.666-4.24,3.47-5.78a2.245,2.245,0,0,0,.458-.6,14.686,14.686,0,0,1,3.554-4.124,6.7,6.7,0,0,1-.458,1.619,13.962,13.962,0,0,1-.978,1.665c-1.282,1.972-2.47,4.017-3.9,5.872a12.473,12.473,0,0,0-2.077,4.071,5.655,5.655,0,0,1-1.844,3.042,8.154,8.154,0,0,0-2.261,2.548,11.5,11.5,0,0,1-3.481,4.016,2.066,2.066,0,0,0-.863,2.289,4.221,4.221,0,0,1-.034,1.567c-.135.771-.357,1.527-.561,2.284a7.188,7.188,0,0,0,.461,5.234,2.692,2.692,0,0,1-.358,3.449,10.224,10.224,0,0,0-1.728,2.958c-.263.589-.483,1.221.216,1.736.135.1.142.359.241.525.241.4.484.81.759,1.191.441.612.962,1.173,1.352,1.815a3.81,3.81,0,0,1,.589,2.407c-.087.841-.131,1.686-.194,2.53l-.237-.009v-1.642a.9.9,0,0,0-.813.861,5.786,5.786,0,0,0,.172,1.72,2.055,2.055,0,0,1,.013,1.466c-.316.716-.655,1.422-.961,2.142a14.564,14.564,0,0,0-.882,2.251,5.868,5.868,0,0,1-1.292,2.864,2.237,2.237,0,0,0-.517.945,7.223,7.223,0,0,0,.192,4.766,11.189,11.189,0,0,1,1,5.73,15.483,15.483,0,0,0,.164,5.069,6.628,6.628,0,0,1-.413,4.75.969.969,0,0,0-.141.561c.031.229.117.568.273.633a1.043,1.043,0,0,0,.766-.094c.176-.088.258-.35.4-.523.217-.269.447-.528.667-.785l.687.551a4.85,4.85,0,0,1,.588-1.2,22.073,22.073,0,0,0,2.836-4.248c.726-1.256.6-2.6.709-4.046-1.788.653-1.9,2.162-2.188,3.421a3.623,3.623,0,0,0-.686-.979c-.64-.479-.769-.816-.373-1.593l.552.729a2.932,2.932,0,0,0,.5-.632,3.027,3.027,0,0,1,1.548-1.581,14.485,14.485,0,0,0,1.851-1.134,12.4,12.4,0,0,0,3.68-3.956c.3-.56.619-1.112.932-1.672l.748.286a6.6,6.6,0,0,0,.263-.738c.221-.982.391-1.977.645-2.949a14.614,14.614,0,0,0,.553-4.231c-.029-.839.035-1.682-.005-2.521a15.047,15.047,0,0,0-.251-1.9,1.334,1.334,0,0,1,.238-1.269,2.939,2.939,0,0,1,.394,1.028c.162,1.036-.016,2.132.622,3.085.12.18.052.492.053.744,0,.922,0,1.844,0,2.709.217-.142.4-.264.585-.382a1.61,1.61,0,0,0,.623-1.706c-.062-.723-.094-1.449-.169-2.17a9.163,9.163,0,0,0-.25-1.567,18.143,18.143,0,0,1-.843-5.865,26.8,26.8,0,0,0,.09-5.859,10.631,10.631,0,0,1,.063-1.251c-.049-1.055-.134-2.109-.215-3.162a.427.427,0,0,0-.148-.293,4.685,4.685,0,0,1-1.365-1.849c-.013-.023-.1,0-.187,0-.655.786.2,1.769-.268,2.662l-1.049-1.116c-.506,1.084.357,1.941.142,2.938-.15-.142-.266-.2-.3-.288q-.449-1.342-.871-2.693c-.125-.4-.217-.812-.324-1.221-1.383.292-1.479,1.493-2.09,2.285a4.428,4.428,0,0,1,.774-2.552,27.736,27.736,0,0,1,2.585-3.066c.548-.59,1.3-1,1.806-1.618.98-1.182,1.834-2.467,2.779-3.678a9.463,9.463,0,0,1,2.141-2.535.828.828,0,0,0,.224-1.214l-.786.382a2.215,2.215,0,0,1,.92-1.4,2.047,2.047,0,0,0,.874-1.182,15.928,15.928,0,0,1,.853-2.189q1.531-2.937,3.168-5.821a5.6,5.6,0,0,1,2.594-2.547,7.113,7.113,0,0,1,2.962-.487c.4,0,.848.087,1.174-.431a2.6,2.6,0,0,0-.571-.329c-.839-.222-1.679-.456-2.534-.6a4.763,4.763,0,0,0-1.657-.018c-.655.126-1.023.044-1.157-.595a6.294,6.294,0,0,1-.017-1.28A2.4,2.4,0,0,0,3732,86.283l-1.74,1.073a1.016,1.016,0,0,1,.327-1.177,4.176,4.176,0,0,1,3.455-1.428,7.625,7.625,0,0,1,6.026,4.014c.167.292.349.577.524.865l.239-.065a2.059,2.059,0,0,0,.023-.668,5.7,5.7,0,0,0-.49-1.155,11.772,11.772,0,0,0-3.182-3.642,15.971,15.971,0,0,1-1.359-1.123.753.753,0,0,1-.2-.575c.017-.115.287-.265.451-.275a4.666,4.666,0,0,1,4.545,1.941,9.477,9.477,0,0,0,.642.775l.241-.15c-.3-.675-.583-1.355-.893-2.024a4.56,4.56,0,0,0-4-2.98,4.574,4.574,0,0,1-.645-.148,1.16,1.16,0,0,1,1.365-.328,1.646,1.646,0,0,0,.869.18,3.93,3.93,0,0,1,3.837,1.175,16.056,16.056,0,0,1,4.122,5.638,3.514,3.514,0,0,1,.132.717l-.174.046c-.249-.577-.518-1.113-1.205-1.278-.175-.042-.285-.328-.442-.485a5.268,5.268,0,0,0-.437-.356c-1.051.8-.848,2.326-1.922,3.154l-.558-1.218c-.1.32-.23.517-.178.6a4.12,4.12,0,0,1,.35,2.514c0,.081.052.162.056.244a1.485,1.485,0,0,1-.788,1.472V90.591a.832.832,0,0,0-.228.056c-.583.44-.926,1.312-1.9,1.053-.031-.008-.085.065-.128.1-.47.4-.971.763-1.407,1.194-1.811,1.791-3.6,3.6-5.4,5.4a1,1,0,0,1-.481.311,3.9,3.9,0,0,0-2.41,1.822,34.311,34.311,0,0,0-4.137,6.9c-.374.812-.782,1.61-1.134,2.431-.374.871-.707,1.76-1.044,2.646a21.262,21.262,0,0,0-1.083,5.439,15.16,15.16,0,0,0,.23,2.815.942.942,0,0,1-.025.415,12.9,12.9,0,0,0-.5,3.645c-.082.808.055,1.108.5,1.142.476.037.725-.291.807-1.066a3.022,3.022,0,0,0,.022-.335c0-.841-.012-1.681-.01-2.522,0-.258.03-.517.047-.775.226.095.335.207.333.317a32.26,32.26,0,0,1-.119,3.686,6.311,6.311,0,0,0,.135,2.563,6.23,6.23,0,0,1,.3,2.057,24.42,24.42,0,0,0-.023,3c.084,1.872-.1,3.757,0,5.627a4.887,4.887,0,0,1-1.2,3.695,6.229,6.229,0,0,0-.621.794c-.462.745-1.177,1.349-1.217,2.329-.1,2.458-.231,4.914-.328,7.371a1.185,1.185,0,0,0,.216.706,10.411,10.411,0,0,1,1.185,2.943c.454,1.261,1,2.49,1.527,3.722a.768.768,0,0,0,.885.576,28.914,28.914,0,0,1-.816-4.8c-.014-1.616-.318-3.313.429-4.855.512,1.212-.051,2.6.551,3.928a.7.7,0,0,0,.333-.392,1.7,1.7,0,0,1,2.535-.482,3.893,3.893,0,0,1,1.369,2.551,8.143,8.143,0,0,1-1.249-.689,1.606,1.606,0,0,0-2.523.83,1.031,1.031,0,0,0,.134.9c.293.3.53-.077.742-.287.059-.059.113-.125.175-.182.512-.468.887-.5,1.389-.008a7.2,7.2,0,0,1,1.146,1.332c.572.928,1.049,1.914,1.59,2.862.194.339.317.78.929.891.065-.477.112-.912.187-1.343a2.262,2.262,0,0,1,.24-.956,9.909,9.909,0,0,1,1.484-1.584,1.75,1.75,0,0,1,1.022-.213,1.956,1.956,0,0,1,.809.209,2.84,2.84,0,0,0,2.971-.55c.115-.079.21-.188.326-.263.566-.365,1.047-.933,1.87-.542.31.147.55-.141.637-.475l-.691-.125c.45-.5.812-.876,1.14-1.278.4-.493.794-1,1.162-1.519.417-.588.758-1.237,1.217-1.788s1.054-1,1.55-1.535a57.44,57.44,0,0,1,7.09-6.524,3.273,3.273,0,0,1,.629-.3l.112.158a11.987,11.987,0,0,0-1.291,1.367,7.515,7.515,0,0,0-1.043,1.969,1.666,1.666,0,0,0,.66,1.792,1.315,1.315,0,0,0,1.578-.072,19.442,19.442,0,0,0,2.389-1.538,3.154,3.154,0,0,1,2.314-.742,8.319,8.319,0,0,0,3.652-.28,1.408,1.408,0,0,1,1.543.358,1.256,1.256,0,0,0,1.845-.174c-.474-.75-1.485-.017-2.061-.738.218-.106.376-.249.538-.253,2.19-.051,4.4-.295,6.5.668-.593,0-1.184-.044-1.774-.1-.7-.066-1.39-.193-2.084-.192-.226,0-.451.32-.677.493a3.622,3.622,0,0,0,.528.557c.149.1.377.091.561.155.249.087.49.2.839.341a3.607,3.607,0,0,0-.5.684,3.174,3.174,0,0,0-.111.756c.258.021.556.135.766.044a5.754,5.754,0,0,0,1.135-.714,3.978,3.978,0,0,1,4.988-.034c.9.587.949,1.47.006,1.985a7.193,7.193,0,0,1-1.911.523c-.323.071-.675.019-1,.1a.57.57,0,0,0-.359.391.54.54,0,0,0,.288.441,6.242,6.242,0,0,0,1.388.139,5.637,5.637,0,0,0,1.036-.21.54.54,0,0,1-.2.409,2.2,2.2,0,0,0-.648,2.674,5.825,5.825,0,0,0,3.719,3.735,3.5,3.5,0,0,1,.584.324c-.3.1-.463.213-.593.181a23.416,23.416,0,0,1-2.335-.658,2,2,0,0,1-1.205-1.211c-.266-.681-.553-.736-1.141-.266-.611.488-1.175,1.035-1.783,1.526a17.9,17.9,0,0,1-1.621,1.178.883.883,0,0,1-.71.1c-1.276-.571-2.4.02-3.547.416a2.246,2.246,0,0,0-.537.414,2.177,2.177,0,0,0,2,1.266,12.176,12.176,0,0,0,2.368-.471.8.8,0,0,0,.647-.786.5.5,0,0,1,.622-.518,4.512,4.512,0,0,1,1.527.381,2.188,2.188,0,0,0,1.76.173,31.407,31.407,0,0,1,3.123-.562c.884-.121,1.781-.142,2.67-.238.943-.1,1.881-.249,2.824-.352a2.682,2.682,0,0,1,.737.065,5.918,5.918,0,0,0,2.56.142,7.493,7.493,0,0,1,2.175-.087c1.008.053,1.424.715.973,1.616a6.337,6.337,0,0,1-1.1,1.362,1.337,1.337,0,0,1-1.756.308,10.437,10.437,0,0,0-3.742-1.042c-1.963-.293-3.851.228-5.775.129a1.832,1.832,0,0,0-.869.278,5.02,5.02,0,0,1-2.349.516,6.121,6.121,0,0,0-2.135.323,8.871,8.871,0,0,1-2.448.462,27.532,27.532,0,0,0-3.018.625c-.566.125-1.124.3-1.695.383a8.679,8.679,0,0,0-1.578.133,7.319,7.319,0,0,1-3.31.357,1.164,1.164,0,0,0-1.433.846,1.007,1.007,0,0,1-.855.714,2.334,2.334,0,0,0-.554.193,1.569,1.569,0,0,0-1.03,1.579,1.468,1.468,0,0,0,1.218,1.421,10.052,10.052,0,0,0,1.98.315c1.7.079,3.393-.42,5.092,0a1.2,1.2,0,0,0,.5-.026c1.454-.285,2.909-.564,4.358-.872a22.452,22.452,0,0,1,4.586-.978,7.621,7.621,0,0,0,1.88-.411c1.052-.284,2.086-.637,3.145-.886,1.58-.371,3.178-.664,4.763-1.014,1.124-.248,1.482-.866,1.166-1.911-.01-.032.057-.087.038-.06l2.958.585a9.234,9.234,0,0,1-.907.662,30.215,30.215,0,0,0-2.732,1.465,7.884,7.884,0,0,1-3.409,1.335,22.24,22.24,0,0,0-5.463,1.215.361.361,0,0,1-.082.018,26.094,26.094,0,0,0-6.074,1.5,18.246,18.246,0,0,1-2.748.752,5.065,5.065,0,0,1-1.236.185c-1.788-.018-3.568-.027-5.36-.2a16.858,16.858,0,0,1-4.708-1.12c-1.426-.575-2.828-1.211-4.254-1.788-.417-.169-.935-.521-1.313-.035-.414.532.225.809.434,1.2.332.615.988,1.079.838,1.931-.1.571-.06,1.165-.112,1.746a2.8,2.8,0,0,1-.195.978c-.646,1.306-.071,2.375.62,3.42a15.889,15.889,0,0,1,1.5,2.2c.561,1.278,1.176,1.661,2.471,1.119.826-.345,1.623-.763,2.415-1.181a2.993,2.993,0,0,1,2.443-.221c.731.255,1.394.7,2.113,1,.609.256,1.254.427,1.883.635.653-.565,1.346-.245,2.046-.121a2.924,2.924,0,0,0,.816-.134c.739-.1,1.478-.189,2.419-.308-.514.794-.073,1.1.346,1.4a1.8,1.8,0,0,0,2.058.088,4.664,4.664,0,0,1,2.713-.158c.152.009.308.215.436.355.423.464.655.47,1.076.011.189-.206.382-.408.592-.632.6.9.7.922,1.656.762.771-.129,1.547-.25,2.325-.3a15.019,15.019,0,0,1,1.716.071c-.962.26-1.935.351-2.877.573-1.427.336-2.914.49-4.121,1.507a4.04,4.04,0,0,1-2.5.886,3.832,3.832,0,0,0-2.417.843c-1.25,1.073-2.42,2.238-3.643,3.343-.387.35-.836.631-1.256.946-.2.149-.394.3-.59.454l.1.24a3.6,3.6,0,0,0,.823-.1c.312-.111.575-.369.89-.463a2.294,2.294,0,0,1,1.041-.085.746.746,0,0,1,.427.533c.022.132-.229.353-.4.461a3.442,3.442,0,0,1-.689.252c.017.061.034.123.051.184.295-.031.591-.058.885-.095a2.582,2.582,0,0,1,2.054.383,2.512,2.512,0,0,0,2.538.5c1.5-.72,3.126-.556,4.682-.856a4.723,4.723,0,0,0,2.052-.83,5.264,5.264,0,0,1,2.09-1.19,7.351,7.351,0,0,1,4.051.221,1.614,1.614,0,0,0,2.079-.238,3,3,0,0,1,3.241-.787,2.223,2.223,0,0,0,2.714-1.079c.265-.445.545-.908-.248-1.3.768-.9,1.451-1.741,2.186-2.538.759-.823,1.559-1.61,2.36-2.394a2.222,2.222,0,0,0,.736-1.457,1.2,1.2,0,0,1,1.068-1.12,2.57,2.57,0,0,0,.739-.347c.964-.58,1.167-1.672,1.7-2.545.186-.306.337-.737.616-.863a2.617,2.617,0,0,0,1.33-1.919,10.334,10.334,0,0,1,.564-1.309c.6-1.266,1.186-2.536,1.813-3.787.349-.7.766-1.361,1.152-2.04l.186.09c-.109.307-.235.609-.325.922a33.849,33.849,0,0,0-.9,3.308c-.3,1.694.039,3.466-.573,5.134a2.55,2.55,0,0,0-.021.5,4.554,4.554,0,0,1-1.514,2.908,5.449,5.449,0,0,0-.878,1.1c-.277.418-.5.875-.743,1.313-.509.9-1.029,1.8-1.529,2.7-.29.525-.547,1.068-.869,1.7-.527-.789.08-1.459-.07-2.24-.218.278-.385.456-.512.66a8.11,8.11,0,0,1-2.017,2.54,1.6,1.6,0,0,0-.7,1.628c.293,1.138-.161,2.348.412,3.449a5.138,5.138,0,0,1,.354,1.1,3.858,3.858,0,0,1,.188,1.043c-.021.7-.142,1.387-.179,2.083a8.154,8.154,0,0,1-1.467,3.735l-.87-1.6c-.208.308-.4.471-.43.66a5.027,5.027,0,0,0,.127,3.051c.495,1.066,1.019,2.119,1.529,3.178a1.051,1.051,0,0,1-.02,1.289c-.167-.369-.284-.628-.4-.887-.323-.71-.638-1.425-.972-2.13-.406-.855-.826-1.7-1.245-2.551a1.675,1.675,0,0,1,.007-1.452,2.319,2.319,0,0,0,.009-1.893,1.676,1.676,0,0,0-.41.18q-1.3,1.113-2.573,2.247a.642.642,0,0,0-.181.28c-.47,1.553-1.67,2.551-2.747,3.648a2.286,2.286,0,0,1-2.106.883c-.813-.121-1.153.134-1.328.95a4.782,4.782,0,0,0-.135,2.385,3.816,3.816,0,0,1-.181,2.585c-.1.32-.243.628-.333.951a2,2,0,0,0,.42,2.24.779.779,0,0,1,.183.528,2.57,2.57,0,0,0,1.249,2.163c.4.287.818.708,1.359.416.6-.323.639-.941.6-1.547-.011-.194-.094-.384-.1-.578a1.9,1.9,0,0,1,.052-.82c.54-1.155.922-2.435,2.222-3.048a1.048,1.048,0,0,0,.392-.421.743.743,0,0,1,1.156-.246,4.9,4.9,0,0,1,2.368,3.406,1.961,1.961,0,0,1-.145.6l-1.545-2.266v4.643c-1.1-.6-.35-1.821-1.131-2.624a3.991,3.991,0,0,0-.365,1.189,6.117,6.117,0,0,0,.354,1.951,8.9,8.9,0,0,0,1.064,1.594c.4.574.835,1.123,1.173,1.729a.7.7,0,0,1-.281,1.016c-.181.079-.523-.141-.763-.277-.264-.15-.47-.41-.742-.533-.458-.208-.718,0-.658.49a1.137,1.137,0,0,0,.15.477,4.508,4.508,0,0,1,.4,3.508,8.2,8.2,0,0,0,.607,4.166c.166.56.484.767.993.515l.6,1.012.794-.339a5.561,5.561,0,0,0,.135.819c.062.19.181.466.322.5a.721.721,0,0,0,.54-.267,2.4,2.4,0,0,0,.416-.724,8,8,0,0,0,.755-3.5c-.025-.324-.113-.723.275-.939.1.066.162.086.184.128a.952.952,0,0,1,.118.31,8.4,8.4,0,0,1-1.364,5.513.794.794,0,0,1-.457.335,1.49,1.49,0,0,0-1.151,1.007c-.271.785-.956.8-1.574,1.038-.6.228-.925,1.015-1.725.9a.583.583,0,0,0-.084,0c-1.709,0-3.418-.032-5.127,0-.807.013-1.61.154-2.417.2a5.42,5.42,0,0,1-5.139-2.183,21.625,21.625,0,0,0-4.448-4.544,13.5,13.5,0,0,1-2.637-2.173c-.115-.146-.428-.136-.649-.2-.016.207-.123.479-.031.61a11.015,11.015,0,0,0,1.531,1.961,33.219,33.219,0,0,1,3.365,3.124,18.01,18.01,0,0,1,2.89,4.393,3.614,3.614,0,0,1,.5,2.136c.479,3.762,16.181,4.964,17.31.331.077-.213.121-.389.152-.476a9.634,9.634,0,0,1,1.4-3.244c.666-.921,1.483-1.733,2.237-2.59.588-.67,1.174-1.342,1.776-2,.308-.337.648-.644.974-.964l.263.231c-.35.482-.689.972-1.052,1.444a21.446,21.446,0,0,1-1.974,2.485,13.25,13.25,0,0,0-2.9,4.262c-.08.181-.372,1.266-.558,1.317,2.08-.008,4.31-2.06,4.825-2.391a6.962,6.962,0,0,0,2.048-2.4c.809-1.307,1.668-2.584,2.522-3.862a11.415,11.415,0,0,0,1.985-4.221,3.6,3.6,0,0,0,.006-.649l-.216-.052a17.909,17.909,0,0,1-2.926,4.04c0-.4,0-.59,0-.781.009-.859-.4-1.183-1.155-.782a11.31,11.31,0,0,0-3.352,2.2,8.48,8.48,0,0,1-1.526,1.436,25.666,25.666,0,0,0-3.926,3.406,7.1,7.1,0,0,1-1.459,1.116,1.4,1.4,0,0,1-1.585.061c.343-.217.6-.368.844-.537a12.575,12.575,0,0,0,1.427-1.022c1.193-1.1,2.378-2.212,3.506-3.378a4.664,4.664,0,0,0,1.311-3.362c-.011-1.4-.107-2.791-.15-4.186a2.911,2.911,0,0,1,1.153-2.64,2.105,2.105,0,0,0,.519-.649c1.253-2.153,2.493-4.313,3.742-6.468a1.734,1.734,0,0,1,.439-.605c1.036-.674,1.106-1.817,1.423-2.837a2.5,2.5,0,0,0-.059-.712,3.2,3.2,0,0,1-2.777.892c.156-.156.369-.38.531-.347.793.159,1.121-.355,1.429-.906.342-.611.606-1.272,1-1.843a12.363,12.363,0,0,0,1.69-3.359,15.878,15.878,0,0,1,.976-2.032c.451.867-.382,1.633.087,2.387.608-.293.733-.415,1.017-1.192a19.465,19.465,0,0,0,1.151-6.5c.022-2.448-.258-4.9-.477-7.349-.209-2.336-.5-4.666-.771-7-.08-.693-.191-1.382-.295-2.072q-.284-1.9-.577-3.8c-.046-.3-.113-.6-.146-.91-.138-1.251-.264-2.5-.4-3.755a11.631,11.631,0,0,1,.043-4.5,30.811,30.811,0,0,0,.687-3.028,5.32,5.32,0,0,0-.075-1.315,23.44,23.44,0,0,1-.231-3.231,11.274,11.274,0,0,0,.035-1.815,3.444,3.444,0,0,1,.312-2.6,1.149,1.149,0,0,0,0-1.436A15.124,15.124,0,0,1,3804.1,152c-.035-.114.148-.295.23-.445.108.133.319.275.309.4-.115,1.287.747,2.161,1.392,3.061a35.473,35.473,0,0,1,1.912,3.62,4.164,4.164,0,0,1,.248.972c.147.564.271,1.137.462,1.686.266.766.588,1.513.877,2.272a18.74,18.74,0,0,0,.892,2.351c1.11,2.038,2.286,4.04,3.469,6.037a2.412,2.412,0,0,0,1.809,1.207c.32-.152.353-.8.939-.476a1.906,1.906,0,0,1-.206.286c-.268.249-.4.511,0,.732.324.177.612.19.809-.25.107-.241.376-.411.585-.627-.6-2-2.372-2.918-3.964-4.034a.59.59,0,0,1,.426-.028,10.266,10.266,0,0,1,3.186,1.984,3.32,3.32,0,0,0,.994.744c.482.208.906-.154.742-.622a4.151,4.151,0,0,0-.889-1.861c-1.217-.972-1.649-2.45-2.6-3.573-.354-.416-.13-.822.423-.953.281-.066.559-.149.838-.225v-.247a6.627,6.627,0,0,0-.8-.189.68.68,0,0,1-.659-.608,1.372,1.372,0,0,1,2.234.8,3.924,3.924,0,0,0,1.467,2.261c.036-.415-.02-.816-.02-1.216s.055-.8.1-1.33c1.139,1.638,1.311,3.4,1.716,5.11a.965.965,0,0,0,.385-.455,5.259,5.259,0,0,0-.579-4.119,2.039,2.039,0,0,1-.375-.912,3.675,3.675,0,0,0-1.426-2.819,3.686,3.686,0,0,1-.918-1.463,1.474,1.474,0,0,1,1.855-1.959,2.067,2.067,0,0,1,.9.563,1.665,1.665,0,0,0,1.392.437C3822.75,158.071,3822.869,157.8,3822.588,157.373Zm-12.878-24.1a10.866,10.866,0,0,0,.965-1.136,1.617,1.617,0,0,1,1.52-.507,2.089,2.089,0,0,1,1.813,1.268c-.372-.156-.591-.242-.8-.339-1.4-.637-1.719-.575-2.77.713a24.418,24.418,0,0,0-1.529,2.393,4.89,4.89,0,0,1-.341.428l-.149-.1A4.758,4.758,0,0,1,3809.71,133.274ZM3706.915,157c-.03.07-.115.115-.271.264-.2-.17-.435-.276-.514-.452a4.742,4.742,0,0,1-.183-2.953c.088-.439.566-.526.727-.175A3.961,3.961,0,0,1,3706.915,157Zm6.806-54.089a2.617,2.617,0,0,1,.242-.8c1.156-2.292,2.326-4.578,3.491-6.866.418-.821.826-1.647,1.252-2.463.17-.325.379-.629.57-.943l.249.113a3.149,3.149,0,0,1-.159,2.176c-.475.979-.905,1.979-1.372,2.962a6.641,6.641,0,0,0-.6,2.574,4.227,4.227,0,0,1-.856,1.935,11.9,11.9,0,0,1-1.469,1.6,1.5,1.5,0,0,1-.549.367C3713.958,103.761,3713.638,103.5,3713.722,102.912Zm-1.9,46.652a5.449,5.449,0,0,1-2.315,2.005.785.785,0,0,1-1.212-.759c-.018-.639.064-1.281.092-1.922.014-.355.008-.711.01-1.067,0-.317,0-.634,0-.951l.191-.014c.1,1.015.207,2.031.319,3.133a4.219,4.219,0,0,0,.628-.2c.171-.091.3-.276.475-.342,1.5-.563,2.024-1.854,2.395-3.232.3-1.127.527-2.274.769-3.341A9.9,9.9,0,0,1,3711.821,149.565Zm-.547-11.916c.208.629.375,1.109-.185,1.568C3710.726,138.653,3710.976,138.22,3711.274,137.648Zm3-21.062c-.543.563-1.144,1.07-1.68,1.639a5.714,5.714,0,0,0-.768,1.079c-.421.734-.807,1.488-1.2,2.236a1.809,1.809,0,0,0-.273.595c-.112,1.109-.168,2.223-.288,3.331-.066.619-.217,1.229-.33,1.843l-.177-.011c-.026-.2-.043-.409-.08-.611-.085-.464-.189-.925-.27-1.389-.154-.876-.312-1.751-.434-2.632a1.231,1.231,0,0,1,.107-.737,15.1,15.1,0,0,0,.988-3.538,8.347,8.347,0,0,1,.609-1.463,1.259,1.259,0,0,1,1.251-.651c-.752.938-1.485,1.746-1.411,2.924,1.721-.8,2.658-2.482,4.2-3.42l.159.1A3.188,3.188,0,0,1,3714.277,116.586Zm6.2-16.856c-.074.343-.108.694-.176,1.038a5.973,5.973,0,0,1-.186.725c-.146.441-.293.883-.47,1.313a5.368,5.368,0,0,0-.444.9,4.323,4.323,0,0,1-1.527,2.343c-.636.589-1.189,1.271-1.849,1.828a9.726,9.726,0,0,1-1.81,1.176.8.8,0,0,1-1.127-.219.813.813,0,0,1,.262-1.171c1.151-.974,2.324-1.928,3.427-2.955.793-.738,1.5-1.574,2.218-2.386a1.816,1.816,0,0,0,.225-.577l-.164-.114-1.347.727c-.129-.58.231-.815.434-1.115a17.751,17.751,0,0,0,2.543-4.51,5.4,5.4,0,0,0,.222-1.315,3.739,3.739,0,0,1,1.406-2.722,2.389,2.389,0,0,1-.065.789,4.337,4.337,0,0,0-.208,2.395,1.7,1.7,0,0,1-.672,1.687C3720.449,98.1,3720.635,98.985,3720.473,99.73Zm.857,3.813a5.073,5.073,0,0,1,2.2-2.9C3723.49,101.328,3723.067,101.9,3721.33,103.543Zm3.374-7.786c.566-2.7,1.213-5.357,3.514-7.209C3727.678,91.265,3725.8,93.317,3724.7,95.757Zm29.842,72.517c-.392-.01-.8-.152-.853-.634s.286-.679.693-.792c.5-.139,1.005-.283,1.546-.435.061.571.116,1.1.185,1.749A15.114,15.114,0,0,1,3754.546,168.274Zm-4.934,8.218c-.075.661-.021,1.335-.043,2-.01.322-.062.643-.095.964l-.229,0c-.251-1.4-.763-2.766-.428-4.3A1.17,1.17,0,0,1,3749.613,176.492Zm21.484.316a5.576,5.576,0,0,0-2.287.753,7.579,7.579,0,0,1-5.149.532,2.72,2.72,0,0,0-1.4.08,7.66,7.66,0,0,1-3.4-.024c-.345-.037-.653-.455-.969-.71a12.924,12.924,0,0,0-1.354-1.1c-.848-.51-1.746-.936-2.623-1.4-.465-.244-.929-.493-1.4-.729a9.356,9.356,0,0,0-.894-.409c-.271-.1-.558-.165-.838-.245l.064-.261a27.178,27.178,0,0,1,9.331,1.935.681.681,0,0,1-.983.12c-.732-.638-1.652-.43-2.484-.608-.174-.037-.386.1-.767.2a5.1,5.1,0,0,0,5.049.7l-.085-.554c.391-.035.83-.209,1.14-.078,1.563.66,3.163.171,4.74.222a8.239,8.239,0,0,0,2.314-.321c1.484-.389,2.947-.863,4.416-1.309.793-.241,1.677-.131,2.406-.659.094-.068.529.155.64.342a.765.765,0,0,1-.029.725,13.64,13.64,0,0,1-2.067,1.694A6.25,6.25,0,0,1,3771.1,176.808Zm9.194,2.948a10.613,10.613,0,0,0-4.209.947c-.558.182-1.1.414-1.666.576a8.557,8.557,0,0,1-1.184.155,2.666,2.666,0,0,1,1.527-1.042c.485-.217.935-.443.627-1.1,1.422-.367,4.977-.272,5.646.264A2.712,2.712,0,0,1,3780.291,179.755Zm7-90.959a1.19,1.19,0,0,1,.929-.337,3.288,3.288,0,0,1,1.429.431,16.864,16.864,0,0,1,2.9,2.124,11.923,11.923,0,0,0,4.912,2.97,8.938,8.938,0,0,1,4.437,3.17,21.321,21.321,0,0,1,1.72,3.2l-.247.171c-.951-.46-1.959-.814-2.044-2.184-.021-.336-.5-.771-.87-.933a20.636,20.636,0,0,0-3.452-1.276,14.751,14.751,0,0,1-4.53-1.917,12.13,12.13,0,0,1-3.131-2.344c-.6-.734-1.252-1.433-1.827-2.189C3787.339,89.444,3787.171,88.948,3787.288,88.8Zm13.627,9.957a1.083,1.083,0,0,1-1.176.017c-.81-.476-1.583-1.014-2.377-1.519-.14-.089-.3-.138-.385-.278C3797.7,96.829,3800.389,98.131,3800.915,98.753Zm-23.862-13.544c-.555.581-1.434.458-2.985-.418A2.669,2.669,0,0,1,3777.053,85.209Zm-21.73,36.632c.7.364.582,1.016.546,1.622a.959.959,0,0,1-.96.98c-.831.034-1.667-.021-2.5-.065-.519-.028-1.036-.105-1.554-.161l-.2-.281a1.672,1.672,0,0,0,.45-.206,7.886,7.886,0,0,0,1.115-1.088A2.929,2.929,0,0,1,3755.323,121.841Zm-4.51-41.41c-.086-1.327-.34-2.682.678-3.825C3752.272,78.069,3751.392,79.221,3750.813,80.431Zm-1.367,0-.2.093a3.916,3.916,0,0,1-1.608-2.12,17.062,17.062,0,0,0-.78-1.809c-.177-.372-.551-.787-.151-1.125s.841.014,1.19.287a1.009,1.009,0,0,1,.337.469C3748.65,77.62,3749.045,79.024,3749.445,80.427Zm-12.892-9.057.339.119A.55.55,0,0,1,3736.553,71.37Zm9.017,11.478a1.844,1.844,0,0,1-.072-1.548.685.685,0,0,0-.312-.942,5.411,5.411,0,0,1-1.673-1.609c-.395-.457-.759-.94-1.133-1.415a3.762,3.762,0,0,1,.791.336,17,17,0,0,1,3.913,3.747,15,15,0,0,0,4.56,4.129,2.909,2.909,0,0,1-.624.032,4.467,4.467,0,0,1-2.763-1.771c-.283-.383-.548-.781-.86-1.139a1.755,1.755,0,0,0-.534-.289,1.575,1.575,0,0,0-.159.586c.147.961.335,1.917.533,3a3.712,3.712,0,0,1-.5-.608Q3746.129,84.116,3745.57,82.848Zm-20.7,43.907a3.711,3.711,0,0,0,.241-.7c.084-.247.17-.494.292-.851a.958.958,0,0,1,.315,1.214c-.177.5-.437.97-.616,1.47s-.3,1.015-.462,1.593A3.214,3.214,0,0,1,3724.867,126.755Zm29.9,13.511-.236-.1,1.075-2.638.286.1A5.1,5.1,0,0,1,3754.769,140.265Zm1.549-13.139c-.051,1.086-.152,2.169-.233,3.253-.025.331-.039.664-.069.995q-.074.829-.161,1.656a.55.55,0,0,1-.094.318c-.5.471-1.019.925-1.59,1.438-.264-.856.681-1.124.657-1.836-.127,0-.278-.047-.366.007q-1.244.775-2.467,1.582c-.652.43-1.275.906-1.941,1.313a5.2,5.2,0,0,0-1.83,1.552,4.175,4.175,0,0,1-1.19,1.036,33.988,33.988,0,0,1-3.24,2.093,15.027,15.027,0,0,1-2.384.733,15.346,15.346,0,0,1-5.493,1.054,2.847,2.847,0,0,1-1.579-.443c-.539-.369-1.141-.645-1.843-1.032a2.018,2.018,0,0,1,1.753.092,2.937,2.937,0,0,0,2.362-.118.968.968,0,0,0,.356-.216c.622-.81,1.605-.985,2.444-1.413,1.166-.6,2.354-1.156,3.487-1.808.822-.473,1.568-1.074,2.353-1.612a3.9,3.9,0,0,1,.448-.23l-.1-.27-1.435-.538,1.979-.409c.008-.074.017-.147.025-.221a5.357,5.357,0,0,0-.966-.2,14.809,14.809,0,0,0-5.939.888c-1.27.508-2.584.906-3.852,1.418-.713.288-.719.418-.477,1.167-1.383.867-2.749,1.785-4.177,2.594a25.287,25.287,0,0,1-2.69,1.168,3.135,3.135,0,0,0-2.24,2.37c-.095.525-.6.976-.956,1.517-.426-.365-.8-.122-1.258.287a7.859,7.859,0,0,1,1.172-4.1c.775-1.026,1.489-2.1,2.211-3.164.478-.707.495-1.3-.119-1.805-1.413-1.168-1.179-2.694-.977-4.183.095-.7.366-1.331-.136-1.994a.83.83,0,0,1,.068-.771,16.718,16.718,0,0,1,1.692-1.943,10.963,10.963,0,0,1,1.521-1.045c1.552-1.038,3.285-.967,5.03-.817.067.006.127.09.352.26a4.779,4.779,0,0,1-1,.241,10.127,10.127,0,0,0-6.441,2.7,3.856,3.856,0,0,0-.6.836l.15.208,3.54-1.374c0,.327-.1.694.023.8a1.08,1.08,0,0,0,.839.249,20.04,20.04,0,0,0,2.524-.838,11.8,11.8,0,0,0,1.2-.767,1.408,1.408,0,0,0,.9-1.533c-.062-.414.222-.565.625-.6,1.414-.131,2.824-.31,4.239-.429a15.526,15.526,0,0,1,1.649.037c.361.009.724.031,1.083.009.668-.041,1.333-.121,2-.161a1.085,1.085,0,0,1,1.046.4.868.868,0,0,0,.57.283c.891.076,1.785.138,2.679.153.927.015.98-.066.988-1.145a17.647,17.647,0,0,1,5.033,2.066l.324-.516C3756.284,126.434,3756.332,126.81,3756.317,127.127Zm-20.655,12.453,2.073-.517.063.2A1.556,1.556,0,0,1,3735.663,139.58Zm18.469-62.992c.315-1.11,1.386-1.207,2.255-1.578Zm2.985,48.6c.2-.354.351-.6.485-.853.12-.225.224-.458.389-.8C3758.232,124.367,3758.174,124.467,3757.117,125.191Zm11.989,5.348.732-.817a.979.979,0,0,0-1.314-.031,2.358,2.358,0,0,1-1.472.5.337.337,0,0,0-.164.032c-1.483.874-2.457-.165-3.463-.956a13.818,13.818,0,0,1-2.95-3.84,2.4,2.4,0,0,1,.437-2.768,5.111,5.111,0,0,1,3.225-1.246l-.3.753a2.008,2.008,0,0,0,.645.038,17.494,17.494,0,0,1,5.329-.367,11.468,11.468,0,0,0,5.561-1.362,3.631,3.631,0,0,1,2.781-.181c.565.162,1.112.391,1.68.533a2.1,2.1,0,0,0,1,.046c1.753-.462,3.511-.024,5.263-.027a8.76,8.76,0,0,1,2.219.683,5.326,5.326,0,0,0,.944.1,3.177,3.177,0,0,0-.387-.923,16.573,16.573,0,0,1-1.309-1.439,4.07,4.07,0,0,1,.938.424,17.006,17.006,0,0,1,1.738,1.576.948.948,0,0,1,.2.821,1.015,1.015,0,0,1-.712.455,4.706,4.706,0,0,1-1.34-.015,1.4,1.4,0,0,1-1.4-1.346,1.468,1.468,0,0,1-2.08.434,3.79,3.79,0,0,0-3.15-.282c-.616.263-1.285.4-1.9.678a15.708,15.708,0,0,1-4.041,1.094,15.676,15.676,0,0,0-2.495.7,3.726,3.726,0,0,0-.8.523q.029.127.056.254a3.677,3.677,0,0,0,.714-.008c.466-.094.917-.276,1.385-.342a6.634,6.634,0,0,1,1.4-.035c1.169.084,2.335.259,3.5.3,1.792.056,3.589.079,5.38.019a8.742,8.742,0,0,1,4.369.991,2.838,2.838,0,0,0,2.823-.086l-.741-.664a2.53,2.53,0,0,1,2.262.7.577.577,0,0,1,0,.529c-.2.2-.586.489-.733.416-1.068-.532-1.876.127-2.754.5-1.533.648-3.079.311-4.63.065a15.988,15.988,0,0,0-5.583-.212c-1.7.329-3.408.657-5.1,1.029-.942.207-1.087.429-1.14,1.336-1.009.6-2.276.361-3.3.908-.006.071-.012.141-.018.212a2.657,2.657,0,0,0,.7.29c.695.073,1.4.1,2.093.127,2.044.085,4.093.1,6.128.272a8.714,8.714,0,0,1,2.3.741,2.588,2.588,0,0,0,2.117.041,1.349,1.349,0,0,1,.648-.1,8.568,8.568,0,0,0,3.8-.162l.054.189c-.885.37-1.784.709-2.651,1.116a19.835,19.835,0,0,1-4.773,1.269,3.293,3.293,0,0,1-.833.021,18.041,18.041,0,0,0-2.336-.165,13.627,13.627,0,0,1-6.479-1.33l.481-.36C3771.052,131.283,3769.987,131.114,3769.105,130.539Zm-6.416-43.189c.583.131.825.586,1.221,1.1C3763,88.293,3762.8,88.105,3762.689,87.351Zm9.332,31.553c1.33-1.2,5.8-1.677,7.274-.8a16.71,16.71,0,0,1-1.837-.011,9.659,9.659,0,0,0-4.254.618A7.766,7.766,0,0,1,3772.021,118.9Zm16.482,10.962-.049.275c-1.66-.1-3.347.272-5.1-.293a1.048,1.048,0,0,1,1.114-.43c1.055.086,2.11.168,3.164.269A8,8,0,0,1,3788.5,129.866Zm-14.5,20.2a8.864,8.864,0,0,0-.348-2,8.958,8.958,0,0,0-1.216-1.647,3.11,3.11,0,0,1,2.164,2.631C3774.667,149.325,3774.228,149.71,3774.008,150.062Zm4.635,5.315a6.71,6.71,0,0,1-.747-.33q-1.011-.6-2-1.228a2.61,2.61,0,0,1-.982-2.985,7.006,7.006,0,0,1,.376.682,4.789,4.789,0,0,0,2.144,2.483,8.847,8.847,0,0,1,1.367,1.187Zm6.828,2.9a3.949,3.949,0,0,1-.725-.208,2.017,2.017,0,0,0-1.552-.072,2.223,2.223,0,0,1-.542.057c-.05-.1-.106-.175-.1-.186.792-.784.875-2.14,2.086-2.584.985-.361,1.955-.49,2.6.693.3.555.779,1.014,1.094,1.564a10.058,10.058,0,0,1,.562,1.475l-1.256,2.17-.254-.047c-.044-.307-.089-.613-.131-.92C3787.073,158.884,3786.785,158.573,3785.471,158.279Zm.792,27.323a7.682,7.682,0,0,0-1.275.145,1.435,1.435,0,0,0-1.255-1.048c.68-.186,1.378-.324,2.037-.569a2.007,2.007,0,0,0,1.383-2.451c-.084-.562-.333-1.164.307-1.589-.188-.457-.559-.53-.944-.635a3.11,3.11,0,0,1-.935-.454.511.511,0,0,1-.132-.486.528.528,0,0,1,.483-.184,7.171,7.171,0,0,1,1.561.927c1.273,1.127,1.311,1.447.65,2.972a1.575,1.575,0,0,0-.151.561,1.99,1.99,0,0,1-.722,1.547c-.089.075-.116.223-.233.463,1.043-.106,1.538-.955,2.329-1.252A3.39,3.39,0,0,1,3786.263,185.6Zm5.476-26.846a9.852,9.852,0,0,1-.8,1.04,2.123,2.123,0,0,0-.468,1.562,9.453,9.453,0,0,1-.095,1.748,5.138,5.138,0,0,1-.6,1.536,4.629,4.629,0,0,0-.8,2.934,8.728,8.728,0,0,1,.013,1.677,2.213,2.213,0,0,1-.332.7,4.163,4.163,0,0,1-.57-.611,1.528,1.528,0,0,1-.17-.644,6.977,6.977,0,0,0-1.033-2.9,1.87,1.87,0,0,1,.21-2.054c.549-.843,1.173-1.636,1.761-2.454a1.728,1.728,0,0,0,.31-.5,7.268,7.268,0,0,1,2.216-2.988,2.247,2.247,0,0,0,.37-.452c.31-.562.1-.944-.532-.886a1.307,1.307,0,0,1-1.283-.612,3.985,3.985,0,0,0-.623-.788,4.454,4.454,0,0,0-1.493-1.029,9.268,9.268,0,0,1-4.437-3.152c-.641-.695-1.33-1.345-2-2.014-.87-.87-1.755-1.725-2.6-2.618a1.9,1.9,0,0,1-.388-.826,1.047,1.047,0,0,1,.96-1.371,4.326,4.326,0,0,1,.922-.006,15.04,15.04,0,0,1,4.4,1.4c-1.056.7-1.963.112-2.875.16a4.713,4.713,0,0,0,2.524,1.14,13.845,13.845,0,0,1,7.073,2.6,9.086,9.086,0,0,1,3.639,5,9.5,9.5,0,0,0,.659,2.3c.271.449-.221,1.042-.682,1.3-.738.418-1.545.714-2.323,1.061l-.106-.152.263-.72C3792.23,158.011,3792,158.4,3791.739,158.756Zm.906,21.715-.252-.06a4.127,4.127,0,0,1,.233-.936c.69-1.342,1.462-2.643,2.107-4a27.141,27.141,0,0,0,.97-2.789C3795.6,175.758,3793.8,177.983,3792.645,180.471Zm3.311-8.334-.2-.076a6,6,0,0,1,1.2-3.043Zm2.3-5.91c-.231-1.1-.2-1.331.311-2.045C3798.892,165.005,3798.449,165.564,3798.259,166.226Zm.674-5.589a3.11,3.11,0,0,1-.084.458c-.084-.044-.124-.054-.125-.068-.141-1.382-.274-2.765-.422-4.146a8.674,8.674,0,0,0-.221-1.4c-.405-1.454-.912-2.883-1.257-4.351a4.605,4.605,0,0,0-2.063-2.837c-.224-.152-.449-.3-.725-.488a4.782,4.782,0,0,1,4.465,3.638A48.88,48.88,0,0,1,3798.933,160.638Zm1.391-38.044c-1.384.228-4.1-2.549-4.745-4.478C3797.19,119.637,3798.151,121.655,3800.324,122.593Zm-4.708-6.548c.215-.07.49-.258.633-.186a1.857,1.857,0,0,1,.722.665c.343.567.612,1.179.912,1.773l-.163.137c-.338-.4-.664-.807-1.02-1.187-.241-.257-.538-.461-.784-.714A2.576,2.576,0,0,1,3795.615,116.045Zm1.166,13.855a1.925,1.925,0,0,1-.944-1.935Zm4.828,21.192c-.4-.5-.791-1-1.179-1.51a.84.84,0,0,1-.146-.3c-.213-.864-.3-1.794-1.244-2.261-.051-.025-.065-.15-.073-.23-.005-.048.035-.1.081-.213.568.5,1.057.286,1.615-.4C3800.939,147.972,3801.826,149.413,3801.609,151.092Zm.471-8.675a7.4,7.4,0,0,1-.022,1.922c-.033.449-.069.446-.587.66-.065-.073-.1-.1-.1-.114.368-1.53-.163-3.046-.069-4.572.045-.727.1-.836.976-1.344A5.277,5.277,0,0,0,3802.08,142.418Zm-1.232-37.008a18.39,18.39,0,0,0-7.752-4.177c-.884-.266-1.751-.586-2.631-.867a2.144,2.144,0,0,0-1.019-.092l.534.655-.072.169a2.758,2.758,0,0,1-.621-.174c-1.247-.691-2.495-1.383-3.724-2.106q-3.11-1.83-6.2-3.7c-.692-.42-1.36-.884-2.019-1.355a38.666,38.666,0,0,0-4.924-2.876c-1.417-.725-2.765-1.582-4.157-2.357-.658-.367-1.351-.669-2.019-1.02a19.7,19.7,0,0,1-1.966-1.1,1.833,1.833,0,0,1,.426-3.107,4.317,4.317,0,0,0,.909-.6l-.137-.253c-1.447.263-2.7,1.148-4.111,1.526l-.1-.2,1.718-1.077a7.345,7.345,0,0,1,4.231-1.078c.633.019.888.489,1.2.984l-.588.356a2.085,2.085,0,0,0,2.039,1.33,4.642,4.642,0,0,1,3.4,1.5c1.576,1.611,2.974,3.457,5.055,4.506.493.249,1.057.359,1.553.6a8.766,8.766,0,0,1,1.94,1.115c1.791,1.567,3.514,3.21,5.266,4.822a.291.291,0,0,0,.285.052c-.37-.43-.744-.855-1.109-1.289-1.492-1.776-2.947-3.585-4.483-5.322-1.331-1.506-2.753-2.932-4.161-4.421l.19-.561,1.228.611-.644.275c.378.321.671.591.986.831.622.473,1.26.926,1.886,1.394.295.22.553.438.984.249a.758.758,0,0,1,.642.2c1.978,1.94,3.92,3.916,5.906,5.848,1.4,1.365,2.859,2.676,4.289,4.014a42.645,42.645,0,0,0,5.916,4.682c.821.533,1.623,1.1,2.485,1.56a3.487,3.487,0,0,0,1.593.408,2.865,2.865,0,0,1,3.184,2.339,2.835,2.835,0,0,1,.113,1.027c-.094-.167-.187-.334-.282-.5a.755.755,0,0,0-.895-.456,2.133,2.133,0,0,1-1.819-.441A19.763,19.763,0,0,1,3800.848,105.409Zm-18.418,108.8a1.837,1.837,0,0,1,.137-1.818A1.639,1.639,0,0,1,3782.429,214.206Zm15.061-17.966c.425.4.275.872.2,1.336l-.345.031-.1-1.344Zm1.292,17c-.275.517-.574,1.023-.891,1.516-.093.145-.31.35-.411.321a.882.882,0,0,1-.475-.409,1.253,1.253,0,0,1,.525-1.456c.21-.133.459-.2.679-.323s.413-.255.619-.384l.141.077A3.146,3.146,0,0,1,3798.782,213.244Zm.943-5.486-.21-.121a3.257,3.257,0,0,1,.308-.749c.883-1.192,2.372-2.423,3.075-2.414A27.088,27.088,0,0,1,3799.725,207.757Zm5.432-56.732c-.063-.069-.13-.117-.122-.137a3.219,3.219,0,0,0-.595-3.145,4.265,4.265,0,0,1-.854-2.646c.611,1.155,1.192,2.327,1.844,3.458A2.063,2.063,0,0,1,3805.157,151.026Zm7.15,3.308c-.893-1.267-1.792-2.529-2.67-3.805a1.25,1.25,0,0,1-.191-.634,3.767,3.767,0,0,0-.747-2.1,1.879,1.879,0,0,1-.148-.446,1.21,1.21,0,0,1,1.081.867,12.435,12.435,0,0,1,.4,1.273c.193.663.357.749,1.12.54.1-.888-.719-1.887.273-2.756a2.388,2.388,0,0,1,.273,2.035,3.213,3.213,0,0,0,.3,3.174,5.26,5.26,0,0,1,.508,1.717Z" transform="translate(-3703.404 -66.532)" fill="#fff"/></g></g></g></svg>