<svg xmlns="http://www.w3.org/2000/svg" width="115.468" height="115.239" viewBox="0 0 115.468 115.239"><g transform="translate(-153.75 -88.749)"><path d="M153.75,370.862c.962-2.67,2.91-3.72,5.684-3.562,1.573.09,3.156,0,4.734.012,1.384.011,2.195.671,2.181,1.732-.013,1.023-.783,1.636-2.117,1.646-1.8.013-3.607-.006-5.411.006-1.336.009-1.682.35-1.683,1.654q-.008,6.975,0,13.951c0,1.35.314,1.66,1.642,1.674.676.007,1.354-.022,2.029.009a1.661,1.661,0,0,1,1.758,1.773c.032,1.081.007,2.164.007,3.43a8.7,8.7,0,0,0,.793-.538c1.47-1.285,2.887-2.635,4.418-3.841a3.756,3.756,0,0,1,2.1-.8c4.734-.071,9.469-.038,14.2-.043,1.613,0,1.868-.263,1.87-1.913q.007-6.694.008-13.389c0-1.689-.282-1.97-1.944-1.97l-10.6-.005c-.225,0-.451.007-.676-.005a1.675,1.675,0,1,1-.036-3.346c4.133-.035,8.269-.1,12.4.024a4.355,4.355,0,0,1,4.229,4.545q.057,7.425,0,14.851a4.457,4.457,0,0,1-4.662,4.584c-4.584.021-9.169-.016-13.752.035a2.861,2.861,0,0,0-1.676.64c-2.323,1.961-4.588,3.991-6.868,6a1.8,1.8,0,0,1-3.206-1.428c.017-1.714,0-3.429,0-5.121a23.19,23.19,0,0,1-2.323-.362c-1.641-.429-2.419-1.756-3.111-3.145Z" transform="translate(0 -194.781)"/><path d="M436.6,88.749c.686.614,1.325,1.255.907,2.295s-1.295,1.093-2.243,1.089c-3.643-.017-7.286-.011-10.929,0-1.338,0-1.682.332-1.684,1.645q-.012,6.972,0,13.945c0,1.363.34,1.68,1.769,1.682,4.695.005,9.39.02,14.084-.013a3.4,3.4,0,0,1,2.533.944c1.554,1.451,3.187,2.817,5.012,4.414,0-1.335-.018-2.4,0-3.464a1.676,1.676,0,0,1,1.875-1.873c.6-.022,1.2,0,1.8-.008,1.457-.013,1.749-.311,1.75-1.806q0-6.8,0-13.607c0-1.585-.258-1.849-1.8-1.856-1.69-.008-3.38-.023-5.07,0-.956.014-1.821-.087-2.215-1.128-.4-1.061.254-1.675.977-2.255h7.893a5.212,5.212,0,0,1,3.608,3.6v16.881c-1.275,2.768-1.887,3.191-5.434,3.682,0,1.658-.017,3.337.007,5.015a1.967,1.967,0,0,1-1.016,2.08,1.923,1.923,0,0,1-2.23-.6c-2.244-2-4.481-4-6.78-5.932a3.043,3.043,0,0,0-1.782-.658c-4.358-.055-8.718-.026-13.077-.03-3.517,0-5.291-1.758-5.294-5.236,0-4.388.078-8.778-.029-13.163-.068-2.779.92-4.709,3.611-5.643Z" transform="translate(-185.651)"/><path d="M439.172,393.732a4.828,4.828,0,0,1-5.427,3.6v4.049a4.118,4.118,0,0,1-.029,1.34,4.238,4.238,0,0,1-1.02,1.821c-.665.546-1.409.131-2.016-.406-2.277-2.014-4.578-4-6.834-6.041a2.725,2.725,0,0,0-2-.777c-6.688.034-13.377.021-20.066.018-3.156,0-4.976-1.8-4.988-4.939-.008-1.8-.021-3.6,0-5.4a4.462,4.462,0,0,1,4.6-4.651c6.651-.04,13.3-.02,19.953-.008,1.242,0,1.991.659,2.014,1.657.023,1.027-.759,1.7-2.061,1.706q-9.582.016-19.164.007c-1.711,0-1.962.252-1.964,1.94q0,2.25.007,4.5c.008,1.543.273,1.8,1.86,1.8,6.726,0,13.453.034,20.178-.025a4.57,4.57,0,0,1,3.528,1.33c1.385,1.358,2.9,2.579,4.6,4.062v-1.872c0-3.415.068-3.484,3.437-3.488.263,0,.527.007.789-.005a1.118,1.118,0,0,0,1.2-1.205c.018-1.95.024-3.9,0-5.85-.013-.918-.643-1.191-1.453-1.19-1.466,0-2.931.016-4.4,0-1.384-.013-2.077-.576-2.088-1.656s.7-1.7,2.041-1.724c1.2-.025,2.409.054,3.607-.024,2.771-.179,4.726.874,5.689,3.549Z" transform="translate(-169.954 -205.271)"/><path d="M153.75,129.715c.911-2.7,2.836-3.792,5.63-3.608,1.272.084,2.554,0,3.831.022a1.693,1.693,0,0,1,1.877,1.658c.018,1.046-.693,1.694-1.923,1.707-1.465.016-2.931,0-4.4.007-1.275.01-1.623.345-1.631,1.58-.011,1.725.018,3.45-.011,5.174a1.3,1.3,0,0,0,1.491,1.522c.751,0,1.5-.022,2.254.012a1.6,1.6,0,0,1,1.691,1.7c.036,1.109.008,2.219.008,3.62,1.66-1.452,3.181-2.655,4.544-4.016a4.627,4.627,0,0,1,3.627-1.343c6.649.059,13.3.027,19.949.025,1.814,0,2.052-.244,2.052-2.09q0-2.137-.007-4.274c0-1.629-.277-1.913-1.882-1.913q-9.354,0-18.709,0c-1.752,0-2.554-.507-2.591-1.631-.039-1.175.812-1.75,2.6-1.751q9.467,0,18.934,0c3.215,0,5.033,1.812,5.044,5.007q.009,2.531,0,5.062c-.014,3.106-1.863,4.953-5,4.958q-10.031.016-20.061-.014a2.73,2.73,0,0,0-2,.767c-2.2,1.988-4.452,3.917-6.667,5.887a1.8,1.8,0,0,1-3.222-1.4c.018-1.715.005-3.431.005-5.231a4.95,4.95,0,0,1-5.433-3.562Z" transform="translate(0 -26.111)"/><path d="M305.974,217.295a26.343,26.343,0,0,1-2.737-.153,5.372,5.372,0,0,1-4.682-5.261q-.089-10.465,0-20.932a5.365,5.365,0,0,1,5.026-5.276c.448-.044.9-.054,1.351-.054q17.421-.009,34.842-.011c3.931,0,6.154,2.205,6.16,6.128q.014,9.678,0,19.357c0,3.928-2.221,6.142-6.14,6.144-7.292,0-14.584.012-21.875-.015a1.948,1.948,0,0,0-1.7.812c-2.25,2.766-4.551,5.49-6.829,8.234-.6.722-1.227,1.371-2.288.966-1.034-.4-1.144-1.264-1.138-2.218C305.985,222.472,305.974,219.928,305.974,217.295Zm3.393,3.6c.406-.434.636-.657.84-.9,1.394-1.67,2.816-3.32,4.16-5.03a2.759,2.759,0,0,1,2.412-1.12c7.664.032,15.327.02,22.99.016,2.064,0,2.775-.71,2.777-2.775q.009-9.673,0-19.346c0-2.021-.694-2.705-2.7-2.707q-6.987-.007-13.975-.009-10.65,0-21.3,0c-1.776,0-2.645.734-2.651,2.328q-.033,10.067,0,20.134a2.189,2.189,0,0,0,2.41,2.369c.976.026,1.953,0,2.93.008,1.53.012,2.087.564,2.1,2.107S309.367,219.081,309.367,220.9Z" transform="translate(-101.23 -67.734)"/><path d="M271.532,281.468c0-1.444,0-2.888,0-4.332.006-1.984.477-2.454,2.447-2.456.827,0,1.653.008,2.48,0,1.687-.021,2.491-.785,2.513-2.475.029-2.175,0-4.35,0-6.525a7.2,7.2,0,0,1,.039-1.01,1.556,1.556,0,0,1,1.569-1.475,1.535,1.535,0,0,1,1.728,1.415,13.844,13.844,0,0,1,.061,2.019c.006,1.8.012,3.6,0,5.4-.027,3.779-2.271,6.017-6.032,6.029-.408,0-.816,0-1.347,0-.025.458-.064.852-.065,1.246q-.009,3.431,0,6.862a1.781,1.781,0,0,1-1.207,1.944,1.819,1.819,0,0,1-2.05-.809c-2.32-2.8-4.673-5.582-6.971-8.4a2.06,2.06,0,0,0-1.795-.858c-7.289.031-14.578.02-21.867.017-3.829,0-6.09-2.225-6.1-6.074q-.032-9.844.005-19.687a5.48,5.48,0,0,1,5.782-5.807c2.63-.028,5.26-.016,7.89,0,1.332.008,2.068.639,2.053,1.7s-.76,1.673-2.1,1.681c-2.555.016-5.11,0-7.665.008-1.788.008-2.567.744-2.571,2.516q-.025,9.844,0,19.687c0,1.831.793,2.6,2.62,2.6,7.7.006,15.4.019,23.107-.016a2.915,2.915,0,0,1,2.511,1.175c1.542,1.924,3.146,3.8,4.724,5.693Z" transform="translate(-56.76 -110.295)"/></g></svg>