<svg xmlns="http://www.w3.org/2000/svg" width="190" height="155.928" viewBox="0 0 190 155.928"><g transform="translate(0 -45.908)"><g transform="translate(2.686 48.698)"><g transform="translate(36.48 22.348)"><path d="M105.543,113.648h111.64v89.19H105.543Z" transform="translate(-105.543 -113.648)" fill="#def6ea"/></g><g transform="translate(55.911)"><path d="M157.9,53.427h72.8v44.7H157.9Z" transform="translate(-157.905 -53.427)" fill="#9eb6f4"/></g><g transform="translate(55.911)"><path d="M166.3,78V53.427H157.9v44.7h72.8V78Z" transform="translate(-157.905 -53.427)" fill="#6e91ef"/></g><g transform="translate(55.911 33.298)"><path d="M157.9,143.155h72.8v11.4H157.9Z" transform="translate(-157.905 -143.155)" fill="#c8d1da"/></g><g transform="translate(55.911 33.298)"><path d="M157.9,143.155H166.3v11.4H157.9Z" transform="translate(-157.905 -143.155)" fill="#adb9c8"/></g><g transform="translate(0 89.19)"><path d="M7.239,293.77h72.8v44.695H7.239Z" transform="translate(-7.239 -293.77)" fill="#f0c6d0"/></g><g transform="translate(0 89.19)"><path d="M15.634,318.343V293.77H7.239v44.695h72.8V318.343Z" transform="translate(-7.239 -293.77)" fill="#e08ea2"/></g><g transform="translate(0 122.487)"><path d="M7.239,383.5h72.8v11.4H7.239Z" transform="translate(-7.239 -383.497)" fill="#c8d1da"/></g><g transform="translate(0 122.487)"><path d="M7.239,383.5h8.395v11.4H7.239Z" transform="translate(-7.239 -383.497)" fill="#adb9c8"/></g><g transform="translate(111.718 89.19)"><path d="M308.29,293.77H381.1v44.695H308.29Z" transform="translate(-308.29 -293.77)" fill="#efc17a"/></g><g transform="translate(111.718 89.19)"><path d="M316.685,318.343V293.77H308.29v44.695H381.1V318.343Z" transform="translate(-308.29 -293.77)" fill="#e8ab4c"/></g><g transform="translate(111.718 122.487)"><path d="M308.29,383.5H381.1v11.4H308.29Z" transform="translate(-308.29 -383.497)" fill="#c8d1da"/></g><g transform="translate(111.718 122.487)"><path d="M308.29,383.5h8.395v11.4H308.29Z" transform="translate(-308.29 -383.497)" fill="#adb9c8"/></g><g transform="translate(64.306 8.141)"><path d="M180.527,75.364h5.581v5.581h-5.581Z" transform="translate(-180.527 -75.364)" fill="#fff"/></g><g transform="translate(75.467 8.141)"><path d="M210.6,75.364h16.742v5.581H210.6Z" transform="translate(-210.604 -75.364)" fill="#fff"/></g><g transform="translate(8.499 97.33)"><path d="M30.141,315.707h5.581v5.581H30.141Z" transform="translate(-30.141 -315.707)" fill="#fff"/></g><g transform="translate(19.66 97.33)"><path d="M60.218,315.707H76.96v5.581H60.218Z" transform="translate(-60.218 -315.707)" fill="#fff"/></g><g transform="translate(120.113 97.33)"><path d="M330.912,315.707h5.581v5.581h-5.581Z" transform="translate(-330.912 -315.707)" fill="#fff"/></g><g transform="translate(131.274 97.33)"><path d="M360.989,315.707h16.742v5.581H360.989Z" transform="translate(-360.989 -315.707)" fill="#fff"/></g></g><g transform="translate(0 45.908)"><path d="M300.835,135.636h5.58v5.581h-5.58Z" transform="translate(-189.197 -102.339)"/><path d="M150.45,375.977h5.58v5.581h-5.58Z" transform="translate(-94.619 -253.49)"/><path d="M190,270.126V219.85H153.494V180.67h-5.581v39.18h-36.3V242.2H78.385V219.85H41.957v-5.7H36.376v5.7H0v50.276H36.3v10.882H27.927v5.581H50.25v-5.581H41.879V270.126H78.385V247.779h33.229v22.348h36.3v10.882h-8.371v5.581h22.323v-5.581h-8.371V270.126ZM5.581,264.545v-5.817H50.25v-5.581H5.581V225.431H72.805v27.716H66.993v5.581h5.812v5.817Zm111.614-5.817h44.669v-5.581H117.195V225.431h67.224v27.716h-5.812v5.581h5.812v5.817H117.195Z" transform="translate(0 -130.661)"/><path d="M451.22,375.977H456.8v5.581H451.22Z" transform="translate(-283.775 -253.49)"/><path d="M98.024,240.825H103.6v5.457H98.024Z" transform="translate(-61.648 -168.493)"/><path d="M103.6,73.836h13.85V96.184h36.3v10.882h-8.371v5.581h22.323v-5.581h-8.371V96.184h36.506V73.836h13.72v5.339h5.581V68.256h-19.3V45.908H117.455V68.256H98.024v44.28H103.6ZM190.26,51.489V79.205h-5.812v5.581h5.812V90.6H123.036V84.786H167.7V79.205H123.036V51.489Z" transform="translate(-61.648 -45.908)"/><path d="M398.585,150.594h5.581v5.581h-5.581Z" transform="translate(-250.673 -111.746)"/></g></g></svg>