<svg xmlns="http://www.w3.org/2000/svg" width="170" height="169.999" viewBox="0 0 170 169.999"><g transform="translate(0 -0.001)"><g transform="translate(2.834 47.389)"><path d="M344.935,142.723v47.058L308.55,220.1l64.718,42.4V166.169Z" transform="translate(-208.937 -142.723)" fill="#d8b62c"/><path d="M36.868,166.169V142.723L8.535,166.169V262.5l64.718-42.4L36.868,189.781Z" transform="translate(-8.535 -142.723)" fill="#d8b62c"/></g><g transform="translate(2.834 2.835)"><path d="M418.135,166.169h28.333l-28.333-23.446Z" transform="translate(-282.137 -98.17)" fill="#f7e6a1"/><path d="M36.868,142.723,8.535,166.169H36.868Z" transform="translate(-8.535 -98.17)" fill="#f7e6a1"/><path d="M235.934,25.537l-19.833-17-19.833,17Z" transform="translate(-133.935 -8.537)" fill="#f7e6a1"/></g><g transform="translate(2.834 70.834)"><path d="M36.868,213.337H8.535v96.332H172.866V213.337H144.534" transform="translate(-8.535 -213.337)" fill="#d8b62c"/><path d="M344.935,213.337v23.612L308.55,267.269l64.718,42.4V213.337Z" transform="translate(-208.937 -213.337)" fill="#d8b62c"/><path d="M36.868,236.949V213.337H8.535v96.332l64.718-42.4Z" transform="translate(-8.535 -213.337)" fill="#d8b62c"/></g><path d="M169.908,59.737H93.868v74.609l36.385,30.319,9.412-6.168a14.666,14.666,0,0,1,16.07,0l9.412,6.168,36.385-30.316V59.737Z" transform="translate(-62.701 -39.902)" fill="#e7eced"/><g transform="translate(2.834 70.834)"><path d="M308.55,267.269l64.718,42.4V213.337Z" transform="translate(-208.937 -213.337)" fill="#f7e6a1"/><path d="M8.535,213.337v96.332l64.718-42.4Z" transform="translate(-8.535 -213.337)" fill="#f7e6a1"/></g><circle cx="28.333" cy="28.333" r="28.333" transform="translate(104.833 2.835)" fill="#25ae88"/><g transform="translate(0 0.001)"><path d="M167.167,306.8H2.835A2.832,2.832,0,0,1,0,303.969V207.637A2.832,2.832,0,0,1,2.835,204.8H31.168v5.667H5.668v90.666H164.333V210.47h-25.5V204.8h28.333A2.832,2.832,0,0,1,170,207.636v96.333A2.832,2.832,0,0,1,167.167,306.8Z" transform="translate(-0.001 -136.803)"/><path d="M367.57,306.8a2.847,2.847,0,0,1-1.553-.462l-64.718-42.4a2.835,2.835,0,0,1-.261-4.547l64.718-53.935a2.834,2.834,0,0,1,4.646,2.176v96.332a2.833,2.833,0,0,1-2.833,2.833ZM307.607,261.3l57.131,37.431V213.688Z" transform="translate(-200.405 -136.806)"/><path d="M2.835,306.8A2.833,2.833,0,0,1,0,303.971V207.639a2.834,2.834,0,0,1,4.646-2.176l64.718,53.932a2.835,2.835,0,0,1-.261,4.547l-64.718,42.4A2.825,2.825,0,0,1,2.835,306.8Zm2.833-93.117v85.042L62.8,261.3Z" transform="translate(-0.001 -136.806)"/><path d="M367.57,306.8a2.847,2.847,0,0,1-1.553-.462l-64.718-42.4a2.835,2.835,0,0,1-.261-4.547L336.4,229.921V207.637a2.832,2.832,0,0,1,2.833-2.833H367.57a2.832,2.832,0,0,1,2.833,2.833v96.332a2.833,2.833,0,0,1-2.833,2.833ZM307.607,261.3l57.131,37.431V210.47H342.071v20.777a2.841,2.841,0,0,1-1.02,2.179Zm31.631-30.05h0Z" transform="translate(-200.405 -136.804)"/><path d="M2.835,306.8A2.833,2.833,0,0,1,0,303.969V207.637A2.832,2.832,0,0,1,2.835,204.8H31.168A2.832,2.832,0,0,1,34,207.637v22.281L69.367,259.39a2.835,2.835,0,0,1-.261,4.547l-64.718,42.4A2.825,2.825,0,0,1,2.835,306.8ZM5.668,210.47v88.257L62.8,261.3,29.355,233.426a2.837,2.837,0,0,1-1.02-2.179V210.47Z" transform="translate(-0.001 -136.804)"/><path d="M31.167,163.3H2.834a2.833,2.833,0,0,1-1.808-5.015l28.333-23.445A2.834,2.834,0,0,1,34,137.026v23.445A2.832,2.832,0,0,1,31.167,163.3ZM10.7,157.638H28.334V143.05Z" transform="translate(0 -89.638)"/><path d="M229.517,22.668H188.434a2.833,2.833,0,0,1-1.808-5.015l20.542-17a2.826,2.826,0,0,1,3.612,0l20.542,17a2.833,2.833,0,0,1-1.805,5.015ZM196.3,17h25.347L208.975,6.513Z" transform="translate(-123.976 -0.001)"/><path d="M440.768,178.914H412.435a2.832,2.832,0,0,1-2.833-2.833v-11.9a2.831,2.831,0,0,1,2.272-2.777A25.174,25.174,0,0,0,420.306,158a2.839,2.839,0,0,1,3.315.215L442.576,173.9a2.833,2.833,0,0,1-1.808,5.015Zm-25.5-5.667H432.9l-11.37-9.409a30.678,30.678,0,0,1-6.262,2.564Z" transform="translate(-273.603 -105.247)"/><path d="M338.367,62.336a31.166,31.166,0,1,1,31.166-31.166A31.2,31.2,0,0,1,338.367,62.336Zm0-56.666a25.5,25.5,0,1,0,25.5,25.5A25.527,25.527,0,0,0,338.367,5.67Z" transform="translate(-205.202 -0.002)"/><path d="M369.733,82.407a2.818,2.818,0,0,1-2-.83l-8.5-8.5a2.833,2.833,0,0,1,4.006-4.006l6.307,6.307,12.18-14.617a2.833,2.833,0,1,1,4.352,3.629l-14.167,17A2.821,2.821,0,0,1,369.86,82.4C369.818,82.407,369.776,82.407,369.733,82.407Z" transform="translate(-239.401 -39.906)"/><path d="M278.668,210.47H258.835a2.833,2.833,0,0,1,0-5.666h19.833a2.833,2.833,0,0,1,0,5.666Z" transform="translate(-171.002 -136.804)"/><path d="M162,210.47H130.835a2.833,2.833,0,0,1,0-5.666H162a2.833,2.833,0,0,1,0,5.666Z" transform="translate(-85.502 -136.804)"/><path d="M304.268,295.8H284.435a2.833,2.833,0,1,1,0-5.666h19.833a2.833,2.833,0,0,1,0,5.666Z" transform="translate(-188.102 -193.804)"/><path d="M187.6,295.8H156.435a2.833,2.833,0,0,1,0-5.666H187.6a2.833,2.833,0,0,1,0,5.666Z" transform="translate(-102.602 -193.804)"/><path d="M358.368,210.47H352.7a2.833,2.833,0,0,1,0-5.666h5.667a2.833,2.833,0,1,1,0,5.666Z" transform="translate(-233.702 -136.804)"/><path d="M201.868,253.137H182.035a2.833,2.833,0,0,1,0-5.666h19.833a2.833,2.833,0,1,1,0,5.666Z" transform="translate(-119.702 -165.304)"/><path d="M307.068,253.137H275.9a2.833,2.833,0,1,1,0-5.666h31.166a2.833,2.833,0,0,1,0,5.666Z" transform="translate(-182.402 -165.304)"/><path d="M142.135,167.8H122.3a2.833,2.833,0,0,1,0-5.666h19.833a2.833,2.833,0,1,1,0,5.666Z" transform="translate(-79.802 -108.303)"/><path d="M247.335,167.8H216.168a2.833,2.833,0,1,1,0-5.666h31.166a2.833,2.833,0,0,1,0,5.666Z" transform="translate(-142.502 -108.303)"/><path d="M136.5,253.137h-5.667a2.833,2.833,0,0,1,0-5.666H136.5a2.833,2.833,0,1,1,0,5.666Z" transform="translate(-85.502 -165.304)"/><path d="M216.035,125.137h-34a2.833,2.833,0,0,1,0-5.666h34a2.833,2.833,0,0,1,0,5.666Z" transform="translate(-119.702 -79.804)"/><path d="M136.5,125.137h-5.667a2.833,2.833,0,1,1,0-5.666H136.5a2.833,2.833,0,1,1,0,5.666Z" transform="translate(-85.502 -79.804)"/><path d="M159.449,161.8a2.839,2.839,0,0,1-1.553-.462l-9.412-6.168a11.818,11.818,0,0,0-12.962,0l-9.415,6.171a2.835,2.835,0,0,1-3.366-.193L86.355,130.825a2.837,2.837,0,0,1-1.02-2.179V54.037A2.832,2.832,0,0,1,88.168,51.2h76.04a2.832,2.832,0,0,1,2.6,3.967,25.486,25.486,0,0,0,23.363,35.7,25.609,25.609,0,0,0,5.1-.513,2.834,2.834,0,0,1,3.4,2.776v35.513a2.841,2.841,0,0,1-1.02,2.179l-36.385,30.322A2.818,2.818,0,0,1,159.449,161.8ZM142,147.57a17.47,17.47,0,0,1,9.588,2.864l7.659,5.018L193,127.321V96.412c-.941.082-1.887.125-2.833.125A31.167,31.167,0,0,1,160.183,56.87H91v70.447l33.753,28.132,7.659-5.018A17.489,17.489,0,0,1,142,147.57Z" transform="translate(-57.001 -34.203)"/></g></g></svg>