<svg xmlns="http://www.w3.org/2000/svg" width="395.099" height="280.274" viewBox="0 0 395.099 280.274"><g transform="translate(21.523 150.653)"><g transform="translate(0 39.493)"><path d="M216.586,412.315c7.257-7.564,13.578,1.824,15.781,6.826,3.834,8.707,5.712,15.271.565,57.154-4.719,0-11.829-1.753-13.16-7.038C215.07,450.584,211.535,433.212,216.586,412.315Z" transform="translate(-152.751 -398.776)" fill="#4a4b5e"/><path d="M177.255,401.013c-2.2-3.674-23.9-12.21-31.5-11.943-7.3.256-28.543,8.574-30.329,11.943a17.245,17.245,0,0,0-1.479,9.584c1.117,13.6,8.567,25.688,7.649,39.568-.654,9.878-2.571,18.143-3.585,29.026h55.381C171.835,454.023,180.4,406.281,177.255,401.013Z" transform="translate(-105.039 -389.063)" fill="#4a4b5e"/><g transform="translate(66.659 17.585)"><path d="M225.061,448.612h0a.262.262,0,0,1-.259-.265c.1-9.256-.1-17.821-.586-25.456a.262.262,0,0,1,.244-.279.25.25,0,0,1,.279.245c.489,7.648.687,16.226.587,25.5A.263.263,0,0,1,225.061,448.612Z" transform="translate(-224.212 -422.611)" fill="#8695bf"/></g><path d="M240.934,513.519c-2.268-2.928,2.43-10.009,4.353-19.181l7.867-2.814c1.57,9.019,1.113,17.584-1.757,21.214C249.6,515.011,243.513,516.848,240.934,513.519Z" transform="translate(-165.221 -437.815)" fill="#4a4b5e"/><g transform="translate(74.441 60.951)"><path d="M242.765,521.775a.26.26,0,0,1-.113-.025c-3.772-1.808-4.74-9.244-2.116-16.239a.262.262,0,1,1,.49.185c-2.794,7.45-1.3,14.071,1.852,15.581a.262.262,0,0,1-.113.5Z" transform="translate(-239.058 -505.34)" fill="#8695bf"/></g><path d="M107.2,410.4c8.834-5.641,12.767,4.97,13.73,10.351,1.426,7.971,1.834,14.114-7.242,40.116a102.29,102.29,0,0,0,29.948-12.481l4.99,9.235C133.9,473.265,102.25,484.191,98.5,466.45,94.525,447.609,99.105,429.8,107.2,410.4Z" transform="translate(-97.046 -398.452)" fill="#4a4b5e"/><g transform="translate(14.916 22.039)"><path d="M125.764,486.454a.262.262,0,0,1-.007-.524c11.269-.283,26.747-7.9,36.087-17.734l-4.767-8.823a103.124,103.124,0,0,1-29.786,12.366.261.261,0,0,1-.311-.34c9.051-25.931,8.644-32.087,7.232-39.984a.262.262,0,0,1,.212-.3.265.265,0,0,1,.3.212c1.42,7.933,1.836,14.121-7.092,39.788a102.248,102.248,0,0,0,29.4-12.33.263.263,0,0,1,.369.1l4.989,9.235a.261.261,0,0,1-.039.3c-9.411,10-25.139,17.75-36.585,18.036Z" transform="translate(-125.502 -431.107)" fill="#8695bf"/></g><path d="M213.573,479.494H185.43c-1.976,0-3.188-1.241-2.706-2.771l12.759-40.566c.481-1.53,2.474-2.771,4.449-2.771h28.143c1.976,0,3.188,1.241,2.706,2.771l-12.759,40.566C217.541,478.253,215.549,479.494,213.573,479.494Z" transform="translate(-137.762 -410.153)" fill="#c0d9fd"/><path d="M192.4,489.842c-2.783,2.465-6.981,2.865-8.82.73-3.647-4.232-3.938-9.626.457-13.158,1.406-1.13,3-2.072,4.4-3.163,2.82-2.207,2.415.805,1.151,2.986-.881,1.519-3.727,2.286-1.939,3.557,1.158.824,5.07,1.284,6.367,1.053C198.451,481.056,197.356,485.455,192.4,489.842Z" transform="translate(-136.895 -429.23)" fill="#f9b09f"/><path d="M255.269,478.145c.037-1.562-.186-3.186-.172-4.721.028-3.1-1.741-1.4-2.673.519-.566,1.164-1.689,4.631-2.7,5.165-.923.486-2.426.41-4.461.41-3.989,0-1.688,3.28-3.7,7.994-.555,1.3,1.954,1.992,3.572,2.089C249.722,489.6,255.161,482.745,255.269,478.145Z" transform="translate(-165.771 -428.389)" fill="#f9b09f"/></g><g transform="translate(36.457)"><path d="M169.4,360.917a75.3,75.3,0,0,1,.094,10.779,38.647,38.647,0,0,1-1.354,6.928c3.244,2.981,9.145,4.346,13.7,3.772.625-3.212,1.088-6.424,1.44-9.634.393-3.575.649-7.147.822-10.708Z" transform="translate(-167.329 -336.177)" fill="#f9b09f"/><path d="M213.574,343.358c-1.183,5.612-6.446,13.264-9.517,14.68.092-.592,5.277-20.431,6.3-20.938C211.408,336.584,214.185,340.459,213.574,343.358Z" transform="translate(-184.42 -324.823)" fill="#34495e"/><path d="M195.734,340.123a23.471,23.471,0,0,1-4.155,13.115c-2.019,3.076-4.215,5.8-7.727,7.1a5.047,5.047,0,0,1-5.8-1.195,20.273,20.273,0,0,1-5.391-13.637c.109-6.2,1.175-14.519,8.543-15.578,4.034-.58,8.556.022,11.9,2.515C195.27,334.051,195.7,337.427,195.734,340.123Z" transform="translate(-169.48 -321.334)" fill="#f9b09f"/><path d="M171.214,323.138c1.855-2.233,4.989-1.444,6.636.559a5.3,5.3,0,0,1,1.048,5.072c-.251.923-2.683,10.591-4.714,9.947.036-.946-.756-3.756-1.359-3.946-1.523-.478-1.315,4.808-1.124,6.621.232,2.2-2.266,4.79-2.8,6.65-1.8-.518-3.475-6.272-1.216-14.114C168.444,331.292,169.367,325.362,171.214,323.138Z" transform="translate(-166.595 -317.56)" fill="#34495e"/><path d="M193.106,328.44c3.036,1.036,6.713.778,9.04-1.429a7.2,7.2,0,0,0,1.949-6.758,7.953,7.953,0,0,0-4.634-5.372,3.586,3.586,0,0,1,.142,3.384,11.676,11.676,0,0,0-7.864-4.543,2.34,2.34,0,0,1,1.529,2.385,18.576,18.576,0,0,0-10.8-.7,3.114,3.114,0,0,0-2.178,2.545,3.449,3.449,0,0,0,1.381,3.206,25.754,25.754,0,0,0,2.954,1.546,18.14,18.14,0,0,1,1.985,1.719A20.526,20.526,0,0,0,193.106,328.44Z" transform="translate(-173.086 -313.721)" fill="#34495e"/><path d="M192.305,372.555l1.218-10.926c-2.546-2.821-7.99-3.849-14.019-4.04l1.78-9.41-2.521,3.094-1.835,6.4a22.979,22.979,0,0,0,.113,11.7,2.965,2.965,0,0,0,2.019,2.2l10.291,2.966A2.326,2.326,0,0,0,192.305,372.555Z" transform="translate(-171.172 -330.117)" fill="#34495e"/></g></g><g transform="translate(128.859 154.739)"><g transform="translate(0 33.084)"><path d="M398.076,416.855c-.519-10.469,8.659-8.174,11.774-3.682,5.493,7.922,4.235,9.809,21.731,48.209-.178,2.735-4.809,9.106-8.705,5.3C409.109,453.212,398.63,428.013,398.076,416.855Z" transform="translate(-347.605 -396.413)" fill="#535c68"/><path d="M435.249,434.185c5.43,22.748,2.834,42.861,7.425,45.475,3.659,2.084,5.742-2.852,7.078-5.422,5.63-10.836-.16-29.083-7.4-40.89Z" transform="translate(-365.302 -407.811)" fill="#535c68"/><path d="M372.088,446.077c1.933-8.11,5.224-15.949,5.933-24.256.327-3.828.054-7.847-1.789-11.218-5.606-10.255-24.2-8.157-33.517-6.512-3.578.632-7.549,1.884-9.119,5.161a12.459,12.459,0,0,0-.766,5.757q.491,18.23,2.062,36.409a45.44,45.44,0,0,1,.216,10.143c-.707,5.087-4.706,16.055-6.522,24.127h50.355C375.209,473.35,370.7,451.919,372.088,446.077Z" transform="translate(-314.551 -393.238)" fill="#535c68"/><path d="M301.811,465.3c-.094-19.257,10.376-44.507,18.017-52.657,4.429-4.723,11.9.416,10.894,5.789-1.6,8.528-3.975,13.736-15.386,43.44,7.428-1.992,17.5-4.38,27.683-9.04L346.7,459.7c-8.812,8.264-24.81,17.365-36.441,13.645-1.751-.56-4.487-1.259-5.889-2.7A6.613,6.613,0,0,1,301.811,465.3Z" transform="translate(-301.811 -397.077)" fill="#535c68"/><g transform="translate(18.439 62.363)"><path d="M337.25,518.232a.262.262,0,0,1-.044-.521c10.013-1.716,20.3-8.635,26.057-14.039a.262.262,0,1,1,.358.382c-5.814,5.454-16.2,12.438-26.327,14.173A.255.255,0,0,1,337.25,518.232Z" transform="translate(-336.988 -503.601)" fill="#7693a6"/></g><g transform="translate(20.427 55.499)"><path d="M341.043,498.165a.262.262,0,0,1-.069-.515,131.337,131.337,0,0,0,20.478-7.12.262.262,0,1,1,.218.477,133.929,133.929,0,0,1-20.558,7.149A.288.288,0,0,1,341.043,498.165Z" transform="translate(-340.781 -490.507)" fill="#7693a6"/></g><g transform="translate(19.376 26.607)"><path d="M339.037,458a.261.261,0,0,1-.245-.356c4.448-11.5,6.646-17.248,7.991-22.066a.262.262,0,1,1,.5.141c-1.352,4.841-3.552,10.593-8.006,22.114A.263.263,0,0,1,339.037,458Z" transform="translate(-338.775 -435.39)" fill="#7693a6"/></g><path d="M410.306,411.5h12.038a2.954,2.954,0,0,0,2.607-1.975l7.347-22.916a1.39,1.39,0,0,0-1.341-1.974H418.919a2.955,2.955,0,0,0-2.607,1.974l-7.347,22.916A1.391,1.391,0,0,0,410.306,411.5Z" transform="translate(-352.749 -384.631)" fill="#c0d9fd"/><path d="M444.811,403.425a9.114,9.114,0,0,0-5.923-5.218c-1.672-.482-1.287,1.222-.757,2.185.486.881,1.068,1.445.68,2.53-.774,2.165-2.991,3.507-4.479,5.088-.986,1.047-1.792,1.655-1.616,3.2a16.111,16.111,0,0,1,1.268,5.987c.036.817,0,2.375.932,2.716C436.559,420.521,448.713,414.877,444.811,403.425Z" transform="translate(-364.086 -391.051)" fill="#f9b09f"/><path d="M385.747,492c.409.634,6.1-4.173,5.481-9.255a4.1,4.1,0,0,0-2.088-3c1.414-2.175,4.332-2.44,5.814-4.569.241-.346.431-.84.159-1.163a1.094,1.094,0,0,0-1.01-.2c-2.528.354-6.143,2.291-8.47,3.341a9.973,9.973,0,0,0-5.23,5.994c-.315,1.4,2.707,5.329,3.817,5.944C385.565,489.84,385.054,490.927,385.747,492Z" transform="translate(-339.195 -427.051)" fill="#f9b09f"/><g transform="translate(58.749 28.322)"><path d="M414.149,457.352a.259.259,0,0,1-.1-.019.262.262,0,0,1-.145-.341,80.964,80.964,0,0,0,4.444-18.106.265.265,0,0,1,.3-.222.262.262,0,0,1,.222.3,81.551,81.551,0,0,1-4.476,18.228A.263.263,0,0,1,414.149,457.352Z" transform="translate(-413.887 -438.662)" fill="#7693a6"/></g><g transform="translate(71.837 37.653)"><path d="M441.515,481.966a.262.262,0,0,1-.26-.237l-2.4-24.981a.262.262,0,0,1,.236-.286.266.266,0,0,1,.286.236l2.4,24.981a.262.262,0,0,1-.236.286Z" transform="translate(-438.856 -456.461)" fill="#7693a6"/></g></g><g transform="translate(20.645)"><path d="M382.326,371.691l-9.229-4.524c.365,3.9-.22,18.592-.227,18.6,1.3,2.392,6.679,1.905,9.7,1.185C383.472,382.372,383.759,376.439,382.326,371.691Z" transform="translate(-356.266 -343.238)" fill="#f9b09f"/><path d="M394.851,339.153c-6.945-3.143-15.625-1.581-18.807,6.97-4.12,11.071,8.94,21.622,10.5,21.993C394.689,370.057,403.649,343.134,394.851,339.153Z" transform="translate(-357.396 -329.195)" fill="#f9b09f"/><g transform="translate(19.784 28.955)"><path d="M385.256,384.8a.261.261,0,0,1-.176-.068,29.258,29.258,0,0,1-6.112-7.587.262.262,0,1,1,.46-.253,28.709,28.709,0,0,0,6,7.451.263.263,0,0,1-.176.457Z" transform="translate(-378.936 -376.755)" fill="#db8370"/></g><path d="M360.186,345.268c5.619.236,4.743-5.456,6.928-6.267,1.864-.691,17.452,4.594,19.244,3.514,8.449-5.092-4.574-17.654-6.162-18.678-8.716-5.62-6.482.764-12.457.559-1.911-.065-3.926-1.043-5.855-.611-11.462,2.565-8.815,13.41-8.815,15.306,0,11.644-12.726,24.377-11.829,27.342,1.757,5.807,11.694,4.842,14.4,4.842C365.093,371.275,361.108,347.319,360.186,345.268Z" transform="translate(-341.195 -321.517)" fill="#34495e"/></g></g><g transform="translate(235.558 133.232)"><path d="M531.8,375.483c-5.925-8.646-13.693-.416-16.683,4.16-5.026,7.693-7.925,13.712-9.7,52.115a4.22,4.22,0,0,0,4.373,4.436c3.922-.195,8.035-1.512,9.575-5.051C527.054,413.487,533.375,396.925,531.8,375.483Z" transform="translate(-505.388 -323.884)" fill="#373d7a"/><path d="M592.05,390.612c.629-7.9,2-18.914-5.352-24.029-10.655-7.412-36.184-5.936-48-2.834-15.239,4-11.96,18.728-10.59,32.246,1.205,11.9,5.5,38.711,4.269,69.94h56.971C587.439,437.94,591,403.8,592.05,390.612Z" transform="translate(-515.583 -318.894)" fill="#d5e5fd"/><path d="M544.814,363.665c-2.278.366-4.35.792-6.112,1.254-15.239,4-11.96,18.728-10.59,32.246,1.205,11.9,5.5,38.711,4.269,69.94h9.264C542.021,419.543,538.78,378.438,544.814,363.665Z" transform="translate(-515.583 -320.064)" fill="#373d7a"/><g transform="translate(11.254 67.309)"><path d="M531.9,456.351a.262.262,0,0,1-.261-.245c-.763-11.947-2.006-22.259-2.913-29.788-.356-2.957-.665-5.512-.876-7.605-.128-1.261-.272-2.532-.416-3.8-.214-1.888-.436-3.84-.6-5.731a.262.262,0,0,1,.522-.045c.16,1.884.382,3.833.6,5.718.145,1.273.289,2.547.417,3.809.212,2.089.52,4.641.875,7.6.908,7.535,2.152,17.855,2.916,29.817a.263.263,0,0,1-.245.278Z" transform="translate(-526.832 -408.893)" fill="#8695bf"/></g><path d="M623.694,367.008c-3.879-2.7-9.731-4.216-16.173-4.909-5.671,14.02-1.946,55.788,1.5,104.261h17.329c-1.913-28,1.65-62.135,2.7-75.324C629.674,383.14,631.044,372.121,623.694,367.008Z" transform="translate(-552.578 -319.319)" fill="#373d7a"/><path d="M505.392,475.9c-.472,7.3,4.945,8.924,7.834,9.125,7.821.542,11.22-5.533,19.147-12.81l-7.955-8.01C509.361,473.4,505.662,471.725,505.392,475.9Z" transform="translate(-505.363 -367.902)" fill="#373d7a"/><g transform="translate(4.527 96.04)"><path d="M514.261,471.612a.262.262,0,0,1-.1-.5l.168-.073a103.8,103.8,0,0,0,14.067-7.294.262.262,0,0,1,.273.448,104.246,104.246,0,0,1-14.131,7.327l-.168.073A.273.273,0,0,1,514.261,471.612Z" transform="translate(-513.998 -463.703)" fill="#8695bf"/></g><g transform="translate(16.056 104.051)"><path d="M536.256,489.7a.262.262,0,0,1-.156-.473,51.745,51.745,0,0,0,5.709-5.306c1.451-1.478,3.095-3.153,4.961-4.867a.262.262,0,0,1,.354.386c-1.856,1.7-3.5,3.374-4.942,4.848a52.027,52.027,0,0,1-5.771,5.359A.261.261,0,0,1,536.256,489.7Z" transform="translate(-535.993 -478.986)" fill="#8695bf"/></g><path d="M637.583,369.629c19.712,7.864,21.064,29.709,19.826,62.259-.292,5.389-12.062,2.676-13.935-2.442C636.853,411.364,636.347,391.344,637.583,369.629Z" transform="translate(-568.021 -322.902)" fill="#373d7a"/><g transform="translate(75.024 98.65)"><path d="M648.749,472.125a.262.262,0,0,1-.1-.506L656.1,468.7a.262.262,0,1,1,.191.488l-5.546,2.172,9.334-1.111a.262.262,0,1,1,.062.52l-11.365,1.353Z" transform="translate(-648.487 -468.682)" fill="#8695bf"/></g><g transform="translate(68.816 68.04)"><path d="M641.141,442.414a.262.262,0,0,1-.253-.193,127.754,127.754,0,0,1-4.244-31.667.262.262,0,0,1,.258-.266.273.273,0,0,1,.266.258,127.2,127.2,0,0,0,4.226,31.537.263.263,0,0,1-.184.322A.286.286,0,0,1,641.141,442.414Z" transform="translate(-636.644 -410.288)" fill="#8695bf"/></g><path d="M659.319,481.688c0-2.886-6.913-5.538-14.962-6.723l-3.315,13.007a21.779,21.779,0,0,0,10.128,2.172C654.06,489.944,659.319,488.9,659.319,481.688Z" transform="translate(-569.921 -373.022)" fill="#373d7a"/><g transform="translate(74.175 101.682)"><path d="M662.091,481.713a.262.262,0,0,1-.262-.262c0-2.488-6.2-5.207-14.739-6.464a.263.263,0,0,1-.221-.3.267.267,0,0,1,.3-.221c7.559,1.113,15.186,3.7,15.186,6.983A.262.262,0,0,1,662.091,481.713Z" transform="translate(-646.867 -474.467)" fill="#8695bf"/></g><path d="M562.834,433.34a.861.861,0,0,1-1.018-.666l-4.055-19.36a.86.86,0,1,1,1.684-.352l4.055,19.359A.861.861,0,0,1,562.834,433.34Z" transform="translate(-530.286 -343.195)" fill="#83a1b5"/><path d="M541.716,454.615c2.023-1.807,2.561-4.082,3.832-6.4,1.232-2.246,3.1-2.674,5.534-3.3,2.415-.621,7.751-2.174,7.668,1.469-.016.733-.471.887-.121,1.787.255.654,1.055,1.211,1.281,1.938.508,1.631-.078,2.638-.645,4.094-.611,1.567-.626,4.17-1.74,5.469-.832.971-6.336,2.783-7.45,2.952C546.8,463.121,543.743,458.23,541.716,454.615Z" transform="translate(-522.66 -358.312)" fill="#f9b09f"/><path d="M591.819,471.891H563.676c-1.976,0-2.906-1.241-2.076-2.771l21.985-40.566a6.245,6.245,0,0,1,5.079-2.771h28.143c1.976,0,2.906,1.24,2.076,2.771L596.9,469.12A6.245,6.245,0,0,1,591.819,471.891Z" transform="translate(-531.977 -349.621)" fill="#83a1b5"/><path d="M642.264,473.753c1.911-3.678-3.78-4.992-6.219-5.958-.719-.285-2.059-1.112-2.25.121-.12.774,1.247,2.611,1.537,3.384-.563.607-1.42,1.293-1.425,2.212,0,.848.779,1.4.62,2.331-.2,1.157-1.171,2.116-1.382,3.318a7.294,7.294,0,0,0-.006,3.064c.485,1.481,3.31,2.463,4.828,2.221,2.585-.412,2.98-3.674,3.775-5.627a8.5,8.5,0,0,0,1.016-3.194A4.443,4.443,0,0,0,642.264,473.753Z" transform="translate(-566.082 -369.355)" fill="#f9b09f"/><g transform="translate(25.974)"><path d="M571.037,326.3h13.128a102.334,102.334,0,0,0,1.536,16.442c-3.726,5.42-8.3,6.621-14.912,5.375A135.371,135.371,0,0,1,571.037,326.3Z" transform="translate(-562.312 -302.285)" fill="#f9b09f"/><path d="M554.914,299.431c0,5.465,2.264,14.566,4.661,16.8.187-3.628,1.661-21,1-21.893C558.581,291.677,554.914,296.444,554.914,299.431Z" transform="translate(-554.914 -286.707)" fill="#34495e"/><path d="M573.149,318.185c-2.168,1.759-5.174,3.122-7.689,1.912-2.089-1-3.056-3.407-3.709-5.631a59.774,59.774,0,0,1-2.28-12.764,14.707,14.707,0,0,1,.678-6.582c1.715-4.191,6.871-6.334,11.294-5.365A12.1,12.1,0,0,1,581.157,302,22.258,22.258,0,0,1,573.149,318.185Z" transform="translate(-557.044 -284.787)" fill="#f9b09f"/><path d="M555.493,286.208c.725,2.482,3.885,4.46,6.88,4.46,2.155,0,6.194-1.778,15.285-.015.082-4.832-4.358-9.019-8.715-9.728C558.206,279.177,554.558,283.008,555.493,286.208Z" transform="translate(-555.122 -280.487)" fill="#34495e"/><path d="M596.825,293.582c-1.144-2.668-3.688-3.787-5.836-2.335a5.3,5.3,0,0,0-2.446,4.565c-.022.956-.437,10.917,1.693,10.877.234-.918,1.793-3.387,2.424-3.4,1.4-.023,1,3.085-.23,5.625a5.011,5.011,0,0,0-.394,2.779,16.345,16.345,0,0,0,1,4.177c1.1-1.415,1.692-3.787,2.6-5.412,1.623-2.915.816-5.666,1.172-8.787C597.117,298.948,597.964,296.239,596.825,293.582Z" transform="translate(-570.893 -285.302)" fill="#34495e"/><path d="M565.608,333.92c-2.021,0-4.613-5.838-3.926-11.524,1.978-3,6.993-2.985,12.792-.044l1.5-6.766,1.451,2.989.437,8.1a20.971,20.971,0,0,1-3.675,3.913A15.478,15.478,0,0,1,565.608,333.92Z" transform="translate(-558.081 -297.187)" fill="#34495e"/><path d="M582.159,351.435l-9.652,9.1,10.959,8.681,2.9-12.506Zm-18.007,17.784,8.356-8.681-5.036-7.812-2.771,4.066Z" transform="translate(-559.31 -314.245)" fill="#fff"/></g><g transform="translate(6.07 98.368)"><path d="M525.821,468.668h-8.616a.262.262,0,0,1,0-.524h8.616a.262.262,0,0,1,0,.524Z" transform="translate(-516.943 -468.144)" fill="#8695bf"/></g></g><rect width="83.335" height="68.865" rx="23.958" transform="translate(31.239 24.569)" fill="#fdc957"/><path d="M23.958,0H36.4A23.958,23.958,0,0,1,60.36,23.958V56.472A23.958,23.958,0,0,1,36.4,80.431H0a0,0,0,0,1,0,0V23.958A23.958,23.958,0,0,1,23.958,0Z" transform="translate(104.445 41.921)" fill="#9b87fe"/><path d="M25.267,0H47.872A25.267,25.267,0,0,1,73.139,25.267v25.27a0,0,0,0,1,0,0H25.266A25.266,25.266,0,0,1,0,25.27v0A25.267,25.267,0,0,1,25.267,0Z" transform="translate(157.719 60.965)" fill="#00a7fe"/><path d="M483.616,200.349v30.8l-14.078-30.8Z" transform="translate(-252.759 -109.124)" fill="#00a7fe"/><path d="M255.236,248.625v30.8l14.078-30.8Z" transform="translate(-150.791 -132.094)" fill="#9b87fe"/><path d="M222.718,190.725v30.8l-14.078-30.8Z" transform="translate(-128.62 -104.545)" fill="#fdc957"/><rect width="68.027" height="85.514" rx="25.267" transform="translate(216.914 13.565)" fill="#ff713b"/><path d="M562.547,210.791v29.861l-14.078-29.861Z" transform="translate(-290.315 -114.093)" fill="#ff713b"/><path d="M665.21,180.32H590.771v-57.4a13.244,13.244,0,0,1,13.244-13.244H665.21a13.244,13.244,0,0,1,13.244,13.244v44.155A13.245,13.245,0,0,1,665.21,180.32Z" transform="translate(-310.443 -65.981)" fill="#b0bbd9"/><circle cx="10.975" cy="10.975" r="10.975" transform="matrix(0.924, -0.383, 0.383, 0.924, 202.796, 8.4)" fill="#d5e5fd"/><g transform="translate(0 96.698)"><path d="M55.985,223.7q0-6.264,1.779-9.511a6.479,6.479,0,0,1,5.877-3.4l1.469,3.016a3.736,3.736,0,0,0-3.248,2.242,16.632,16.632,0,0,0-.928,6.5h4.1v8.66H55.985Zm13.611,0q0-6.264,1.778-9.511a6.48,6.48,0,0,1,5.877-3.4l1.469,3.016a3.733,3.733,0,0,0-3.247,2.242,16.6,16.6,0,0,0-.928,6.5h4.1v8.66H69.6Z" transform="translate(-55.985 -210.791)" fill="#b0bbd9"/></g><g transform="translate(372.364 29.808)"><path d="M766.35,100.582a3.573,3.573,0,0,0,3.247-2.164,16.6,16.6,0,0,0,.928-6.5h-4.1V83.184h9.046v7.5q0,6.264-1.778,9.512a6.643,6.643,0,0,1-5.877,3.48Zm13.609,0a3.576,3.576,0,0,0,3.248-2.164,16.628,16.628,0,0,0,.928-6.5h-4.1V83.184h9.048v7.5q0,6.264-1.78,9.512a6.641,6.641,0,0,1-5.877,3.48Z" transform="translate(-766.35 -83.184)" fill="#b0bbd9"/></g><path d="M590.753,239.031v15.441l11.457-15.441Z" transform="translate(-310.434 -127.529)" fill="#b0bbd9"/></svg>