<svg xmlns="http://www.w3.org/2000/svg" xmlns:xlink="http://www.w3.org/1999/xlink" width="387.592" height="382.421" viewBox="0 0 387.592 382.421"><defs><clipPath id="a"><path d="M286.183,917.5a95.344,95.344,0,0,0,8.552,10.78,15.23,15.23,0,0,0-3.078,6.608c-.723,5.455,2.555,7.672,2.555,7.672v5.8h-8.7v-9.842l-5.1-20.85Z" fill="none"/></clipPath></defs><g transform="translate(34.429 -573.643)"><path d="M-34.429,573.643c13.4,1.893,54.169,14.966,48.547,59.453l.338-.065C9.115,683.2,53.946,688.97,77.348,720.8c20.133,32.116-22.177,71.063,2.687,102.093,10.681,13.331,28.99,17.3,45.248,17.77,85.33-6.116,60.488,26.263,118.857,36,18.039,1.675,36.213,1.988,54.323,2.044,5.934.56,8.4-1.589,11.075-6.636-.755.021-1.83-.6-3.093-2.943-5.515-10.214,8.474-29.815-5.963-62.77-10.132-23.127-39.545-33.582-19.668-70.72,8.15-15.229,28.874-23.015,21.633-59.914-2.242-11.425-9.1-24.987-3.913-36.483,14.954-23.816,50.059-29.326,54.629-65.593H-34.429Z" fill="#ffbe00"/><path d="M309.533,872.062" fill="#fdbd10"/><path d="M72.686,777.968a75.578,75.578,0,0,0,21.658,5.584c28.661,3.446,57.53-3.815,84.837-13.18s54.029-20.934,82.329-26.589c6.161-1.232,12.523-2.177,18.7-1.044a28.722,28.722,0,0,1,3.5.872" fill="none" stroke="#2d3e77" stroke-linecap="round" stroke-linejoin="round" stroke-width="2" stroke-dasharray="4 4"/><path d="M340.036,822.989a9.253,9.253,0,1,0-15.866,6.454,8.746,8.746,0,0,1,2.638,6.082v.3h7.957v-.014a8.82,8.82,0,0,1,2.548-6.273A9.2,9.2,0,0,0,340.036,822.989Z" fill="#fdbd10"/><path d="M335.117,833.959h-8.66a.782.782,0,0,0-.782.782h0v5a.782.782,0,0,0,.782.782h1.381a1.126,1.126,0,0,0,1.12,1.075h3.659a1.125,1.125,0,0,0,1.119-1.075h1.381a.783.783,0,0,0,.782-.782h0v-5a.782.782,0,0,0-.782-.782Z" fill="#1f2f5a"/><path d="M334.457,836.191h-7.342a.549.549,0,0,1-.549-.549h0a.549.549,0,0,1,.549-.549h7.342a.549.549,0,0,1,.549.549h0a.55.55,0,0,1-.548.55Z" fill="#314581"/><path d="M334.457,837.79h-7.342a.549.549,0,0,1-.549-.549h0a.549.549,0,0,1,.549-.549h7.342a.549.549,0,0,1,.549.549h0a.55.55,0,0,1-.548.55Z" fill="#314581"/><path d="M334.457,839.39h-7.342a.549.549,0,0,1-.549-.549h0a.548.548,0,0,1,.548-.55h7.343a.549.549,0,0,1,.549.549h0a.549.549,0,0,1-.549.549Z" fill="#314581"/><path d="M319.06,821.632l-7.825-2.252.535-2.022,7.487,3.1Z" fill="#fdbd10"/><path d="M342.54,821.445l7.611-2.9-.7-1.971-7.2,3.711Z" fill="#fdbd10"/><path d="M322,814.894l-5.837-5.679,1.426-1.53,5.139,6.265Z" fill="#fdbd10"/><path d="M337.379,814.293l4.674-6.668-1.686-1.237-3.879,7.114Z" fill="#fdbd10"/><path d="M328.441,811.566l-.622-8.119,2.082-.2-.29,8.1Z" fill="#fdbd10"/><path d="M289.3,934.136h0a8.629,8.629,0,0,0,11.813-3.062h0l20.522-34.88-14.877-8.758-20.521,34.88a8.628,8.628,0,0,0,3.054,11.815Z" fill="#1f2f5a"/><path d="M286.785,901.5l12.594,12.432a4.518,4.518,0,0,0,6.389-.041h0a4.52,4.52,0,0,0-.041-6.39l-12.594-12.431a4.517,4.517,0,0,0-6.387.038l0,0h0A4.517,4.517,0,0,0,286.785,901.5Z" fill="#f6ce89"/><g opacity="0.4"><path d="M299.762,913.253h0a3.628,3.628,0,0,0,5.13-.034h0a3.629,3.629,0,0,0-.033-5.13h0a3.628,3.628,0,0,0-5.13.031v0h0a3.626,3.626,0,0,0,.031,5.129Z" fill="#fff"/></g><path d="M290.816,893.235l13.323,13.153a4.52,4.52,0,0,0,6.39-.041h0a4.519,4.519,0,0,0-.041-6.389L297.167,886.8a4.517,4.517,0,0,0-6.387.038l0,0h0A4.517,4.517,0,0,0,290.816,893.235Z" fill="#f6ce89"/><rect width="7.256" height="7.256" rx="0.955" transform="matrix(0.703, -0.712, 0.712, 0.703, 301.941, 903.162)" fill="#f7dcb0"/><path d="M281.054,918.045a4.516,4.516,0,0,0,.972-.97L295.941,924l14.945-9.536-5.155-6.96-8.158-2.2a5.173,5.173,0,0,1,1.938-10.133l9.892,1.144a5.75,5.75,0,0,1,3.914,2.23l10.99,14.448a5.57,5.57,0,0,1-.045,6.8l-18.138,23.188v5.371H285.507l.09-9.842Z" fill="#f5c266"/><path d="M282.237,916.755l3.947.741a95.348,95.348,0,0,0,8.552,10.78,15.23,15.23,0,0,0-3.078,6.608c-.723,5.455,2.555,7.672,2.555,7.672v5.8h-8.7V938.51L280.8,919.3C281.4,918.921,281.879,917.331,282.237,916.755Z" fill="#ecb860"/><path d="M282.634,909.71l13.13,12.961a3.448,3.448,0,0,0,4.876-.03h0l1.5-1.521a3.449,3.449,0,0,0-.03-4.876h0l-12.369-12.211a4.519,4.519,0,0,0-6.39.041l-.751.761A3.449,3.449,0,0,0,282.634,909.71Z" fill="#f6ce89"/><g opacity="0.4"><path d="M295.384,921.243h0a3.628,3.628,0,0,0,5.13-.034h0a3.629,3.629,0,0,0-.033-5.131h0a3.628,3.628,0,0,0-5.131.033h0a3.627,3.627,0,0,0,.032,5.13Z" fill="#fff"/></g><g opacity="0.5"><rect width="8.472" height="8.472" rx="2.89" transform="translate(294.556 904.105) rotate(-82.704)" fill="#fff"/></g><g clip-path="url(#a)"><path d="M305.586,923.465l-5.15,8.751a7.3,7.3,0,0,1-9.992,2.6l-.008-.005-2.282-1.343a7.306,7.306,0,0,1-2.592-10Z" fill="#1f2f5a"/></g><path d="M281.735,921.227l9.036,8.921a4.518,4.518,0,0,0,6.388-.042h0a4.518,4.518,0,0,0-.039-6.388h0l-9.036-8.92a4.519,4.519,0,0,0-6.39.041h0a4.517,4.517,0,0,0,.04,6.389Z" fill="#f6ce89"/><g opacity="0.4"><path d="M291.153,929.47h0a3.628,3.628,0,0,0,5.13-.034h0a3.626,3.626,0,0,0-.033-5.129h0a3.628,3.628,0,0,0-5.13.031v0h0A3.628,3.628,0,0,0,291.153,929.47Z" fill="#fff"/></g><path d="M267.472,817.082l-10.97-7.487L238.02,833.683l14.1,10.585Z" fill="#314581"/><path d="M346.379,873.476l-22.023-20.571L300.6,886.044l27.521,15.13Z" fill="#314581"/><path d="M324.355,852.9l-37.926-59.875-52.889,73.4L300.6,886.041Z" fill="#ecebe7"/><rect width="90.472" height="9.56" transform="translate(229.663 863.637) rotate(-54.196)" fill="#1f2f5a"/><rect width="37.285" height="12.747" transform="translate(320.701 897.962) rotate(-54.196)" fill="#1f2f5a"/><path d="M237.007,803.779l-2.682,3.475-35.768-23.7,8.626-8.6Z" fill="#2d3e77"/><path d="M225.236,825.728l-1.145,4.237-42.122-8.185,4.671-11.25Z" fill="#2d3e77"/><path d="M258.766,795.143l-3.853,2.1L231.7,761.152l10.584-7.277Z" fill="#2d3e77"/><rect width="26.077" height="6.519" transform="translate(282.497 944.578)" fill="#ecebe7"/><rect width="28.995" height="8.196" transform="translate(281.038 947.868)" fill="#1f2f5a"/><circle cx="15.323" cy="15.323" r="15.323" transform="translate(304.089 633.095)" fill="#2d3e77"/><path d="M328.046,642.889c-2.909-3.776-8.633-1.548-8.633,2.287,0-3.835-5.726-6.065-8.635-2.287-3.007,3.9-.043,10.744,8.635,14.672C328.088,653.632,331.052,646.793,328.046,642.889Z" fill="#fff"/><path d="M342.441,871.75H341.6a1.6,1.6,0,0,1-1.6-1.6h0V869.3a1.6,1.6,0,0,0-1.6-1.6h0a1.6,1.6,0,0,0-1.6,1.6h0v.845a1.6,1.6,0,0,1-1.6,1.6h-.845a1.6,1.6,0,0,0-1.6,1.6h0a1.6,1.6,0,0,0,1.6,1.6h.845a1.6,1.6,0,0,1,1.6,1.6h0v.844a1.6,1.6,0,0,0,1.6,1.6h0a1.6,1.6,0,0,0,1.6-1.6h0v-.844a1.6,1.6,0,0,1,1.6-1.6h.845a1.6,1.6,0,0,0,1.6-1.6h0a1.6,1.6,0,0,0-1.6-1.6Z" fill="#fff"/><path d="M336.372,885.135H336a.7.7,0,0,1-.7-.7h0v-.369a.7.7,0,0,0-.7-.7h0a.7.7,0,0,0-.7.7h0v.369a.7.7,0,0,1-.7.7h-.369a.7.7,0,0,0-.7.7h0a.7.7,0,0,0,.7.7h.369a.7.7,0,0,1,.7.7h0v.372a.7.7,0,0,0,.7.7h0a.7.7,0,0,0,.7-.7h0v-.369a.7.7,0,0,1,.7-.7h.37a.7.7,0,0,0,.7-.7h0a.7.7,0,0,0-.7-.7Z" fill="#fff"/><path d="M283.712,743.61c7.767,2.458,14.421,8.089,19.251,14.732a54.639,54.639,0,0,1,8.088,46.824c-8.8,29.862-72.091,88.643-52.423,128.816" fill="none" stroke="#2d3e77" stroke-linecap="round" stroke-linejoin="round" stroke-width="2" stroke-dasharray="4 4"/><path d="M74.439,697.892c.2,6.8-4.609,12.589-9.174,17.626-7.055,7.781-14.537,16.139-16.094,26.528-1.7,11.306,4.381,22.807,13.367,29.875a47.771,47.771,0,0,0,10.149,6.048" fill="none" stroke="#2d3e77" stroke-linecap="round" stroke-linejoin="round" stroke-width="2" stroke-dasharray="4 4"/></g></svg>