<svg xmlns="http://www.w3.org/2000/svg" width="206.544" height="260.604" viewBox="0 0 206.544 260.604"><g transform="translate(0 131.133)"><g transform="translate(0 37.929)"><path d="M1042.714,408.995c7.379-8.753,12.63-4.021,15.456.4,4.918,7.7,10.222,16.851,7.919,58.487-.238,3.646-1.524,6.073-3.542,10.51C1049.7,478.394,1038.833,430.254,1042.714,408.995Z" transform="translate(-969.758 -394.878)" fill="#34495e"/><path d="M955.769,447.621c1.449-13.834-6.532-25.968-7.649-39.568a17.244,17.244,0,0,1,1.479-9.584c1.786-3.369,26.953-11.943,34.26-11.943,9.464,0,25.371,8.269,27.568,11.943,3.134,5.241-5.335,52.533-3.887,79.514H952.693C954.067,462.985,954.926,455.667,955.769,447.621Z" transform="translate(-925.08 -386.526)" fill="#34495e"/><path d="M1086.481,440.085c.214-1.9-.147-7.346,2.333-7.853,3.749-.767,5.956,7.428,6.479,9.615,3.166,13.245,2.767,37.574-6.939,46.212-2.164,1.926-8.946,5.786-11.623,2.534C1073.275,486.395,1083.781,464.049,1086.481,440.085Z" transform="translate(-985.994 -408.249)" fill="#34495e"/><path d="M905.24,457.609c5.741-17.532,9.1-34.334,23.819-50.155,7.194-5.19,11.987,7.172,11.984,12.421,0,8.848,2.068,15.308-20.135,46.443.035,5.076,1.8,12.693,5.126,21.115H911.654C906.021,477.349,902.421,466.22,905.24,457.609Z" transform="translate(-904.259 -395.891)" fill="#34495e"/><path d="M1071.765,430.675H1083.8a2.954,2.954,0,0,0,2.607-1.974l7.347-22.916a1.391,1.391,0,0,0-1.341-1.975h-12.038a2.954,2.954,0,0,0-2.607,1.975l-7.347,22.916A1.39,1.39,0,0,0,1071.765,430.675Z" transform="translate(-983.275 -394.75)" fill="#c0d9fd"/><path d="M1106.27,422.6a9.114,9.114,0,0,0-5.924-5.218c-1.672-.481-1.287,1.222-.757,2.185.486.881,1.068,1.445.68,2.53-.774,2.164-2.99,3.507-4.479,5.087-.985,1.047-1.792,1.655-1.616,3.2a16.114,16.114,0,0,1,1.269,5.987c.036.817,0,2.375.932,2.716C1098.018,439.7,1110.172,434.057,1106.27,422.6Z" transform="translate(-994.612 -401.17)" fill="#f9b09f"/><g transform="translate(29.764 35.662)"><path d="M961.3,468.9a.262.262,0,0,0,.229-.134,60.114,60.114,0,0,0,5.91-13.875.262.262,0,1,0-.506-.133,59.651,59.651,0,0,1-5.861,13.753.262.262,0,0,0,.229.39Z" transform="translate(-961.04 -454.559)" fill="#8695bf"/></g><g transform="translate(82.181 42.052)"><path d="M1061.3,498.2a.263.263,0,0,0,.262-.257c.223-11.822.877-17.17,2.733-30.894a.261.261,0,0,0-.224-.295.257.257,0,0,0-.3.224c-1.86,13.746-2.514,19.1-2.738,30.954a.262.262,0,0,0,.257.267Z" transform="translate(-1061.037 -466.75)" fill="#8695bf"/></g><g transform="translate(91.041 50.365)"><path d="M1078.2,504.49a.262.262,0,0,0,.259-.225,109.64,109.64,0,0,1,5.69-21.308.262.262,0,1,0-.493-.177,110.093,110.093,0,0,0-5.715,21.41.262.262,0,0,0,.223.3Z" transform="translate(-1077.939 -482.608)" fill="#8695bf"/></g></g><g transform="translate(50.694)"><path d="M1005.6,330.833a23.664,23.664,0,0,1-2.624,8.98c-.955,1.566-2.05,3.252-2.006,5.153a3.191,3.191,0,0,0,.564,1.968c.5.638,1.333.8,1.781,1.486.7,1.068.435,2.7,1.369,3.633.74.738,1.883.585,2.851.461,2.118-.271,3-1.8,2.941-3.848a26.534,26.534,0,0,0-.679-3.555,10.742,10.742,0,0,1,.416-4.346c.427-1.817-.026-4.294-1.965-5.137C1007.363,335.244,1006.464,330.291,1005.6,330.833Z" transform="translate(-1000.969 -322.079)" fill="#34495e"/><path d="M1017.72,354.831l-10.123.862c.4,6.909-3.29,16.341-3.332,16.972,2.573,1.915,8.885,3.922,15.22,4.289C1018.5,372.121,1017.783,355.281,1017.72,354.831Z" transform="translate(-1002.538 -333.517)" fill="#f9b09f"/><path d="M1015.1,352.855c1.752,2.159,4.4,4.1,7.1,3.44,2.242-.551,3.678-2.694,4.77-4.728a59.507,59.507,0,0,0,4.84-11.975,14.65,14.65,0,0,0,.69-6.555c-.812-4.437-5.4-7.584-9.909-7.545a12.053,12.053,0,0,0-11.982,9.946A22.172,22.172,0,0,0,1015.1,352.855Z" transform="translate(-1005.417 -319.557)" fill="#f9b09f"/><g transform="translate(6.188 27.434)"><path d="M1022.279,376.205c.089,0,.178,0,.269-.008a.261.261,0,0,0,.247-.276.253.253,0,0,0-.276-.247c-2.784.139-5.156-2.375-6.043-3.469a20.666,20.666,0,0,1-3.2-5.532.262.262,0,1,0-.489.191,21.221,21.221,0,0,0,3.277,5.672C1016.979,373.657,1019.368,376.205,1022.279,376.205Z" transform="translate(-1012.774 -366.506)" fill="#db8370"/></g><path d="M1002.292,332.988c1.709-4.382,1.317-4.662,1.8-11.548s6.789-6.192,8.419-5.031a8.384,8.384,0,0,1,8.585-1.724c3.535,1.353,5.487,4.8,11.788,5.82-2.312,2.751-1.629,9.254-8.689,5.957-6.733-3.144-11.936-4.625-8.954-.551-1.057,7.394-3.386,8.133-4.242,8.894C1006.265,335.935,999.951,338.989,1002.292,332.988Z" transform="translate(-1001.359 -314.169)" fill="#34495e"/><path d="M1009.767,350.866a4.462,4.462,0,0,1,.332-2.337,2.53,2.53,0,0,1,1.619-1.459,2.182,2.182,0,0,1,2.316,1.41,5.728,5.728,0,0,1,.275,3.21,3.554,3.554,0,0,1-1.319,2.548C1012.117,354.757,1009.9,352.108,1009.767,350.866Z" transform="translate(-1005.14 -329.805)" fill="#f9b09f"/></g></g><g transform="translate(90.953 115.242)"><path d="M1168.2,361.283c-8.879-1.9-19.789-.031-55.8-1.136-2.55-8.1-8.131-20.8-10.99-36.021l-6.831,2.134c-1.787,13.693,3.312,36.079,12.82,43.739l.038.035c.013.01.025.025.038.035s.048.035.074.056a8.14,8.14,0,0,0,2.192,1.349c17.727,7.522,45.019,7.494,55.53,3.711C1175.139,371.634,1173.546,362.428,1168.2,361.283Z" transform="translate(-1085.603 -303.015)" fill="#5c656b"/><path d="M1235.811,447.862q2.831-10.251,5.661-20.5c1.882-6.817,3.771-13.667,4.584-20.692.211-1.821.311-3.809-.707-5.335-1.151-1.726-3.364-2.332-5.391-2.776a194.289,194.289,0,0,0-22.242-3.531c-6.74-.674-14.209,8.388-18.487,15.246-4.867,7.8-.752,27.956.046,35.189.436,3.952-.372,17.064-1.614,36.549h44.582C1239.225,463.235,1235,450.8,1235.811,447.862Z" transform="translate(-1134.45 -336.734)" fill="#5c656b"/><g transform="translate(64.064 64.915)"><path d="M1200.249,417.708a.262.262,0,0,1-.23-.387,40.992,40.992,0,0,1,6.841-9.552.262.262,0,1,1,.37.372,40.467,40.467,0,0,0-6.75,9.431A.262.262,0,0,1,1200.249,417.708Z" transform="translate(-1199.987 -407.693)" fill="#7693a6"/></g><path d="M1241.222,408.993c-4.413,7.264-6.459,13.478-17.262,41.84a147.717,147.717,0,0,1-9.424-18.611l-6.389,4.7c1.457,10.431,8.693,28.763,17.311,28.763a6.994,6.994,0,0,0,5.991-2.495c12.929-14.272,21.869-40.057,21.749-51.228C1253.084,401.476,1244.06,404.321,1241.222,408.993Z" transform="translate(-1139.805 -341.398)" fill="#5c656b"/><g transform="translate(68.079 77.741)"><path d="M1225.835,478.987c-.209,0-.42-.007-.635-.024-8.858,0-16.138-18.872-17.552-28.988a.263.263,0,0,1,.1-.248l6.389-4.7a.266.266,0,0,1,.228-.04.263.263,0,0,1,.171.156,141.354,141.354,0,0,0,9.064,17.972l.07.122c1.6-4.216,3.015-7.936,4.266-11.239,3.479-9.181,5.777-15.247,7.631-19.68a.262.262,0,0,1,.483.2c-1.85,4.425-4.147,10.487-7.624,19.663-1.3,3.439-2.777,7.329-4.465,11.76a.262.262,0,0,1-.224.168.265.265,0,0,1-.248-.132l-.344-.606a146.4,146.4,0,0,1-8.972-17.722l-5.988,4.4c1.443,10,8.5,28.383,17.03,28.383a6.749,6.749,0,0,0,5.8-2.409c6.39-7.055,11.091-16.079,13.909-22.407a.262.262,0,0,1,.479.213c-2.834,6.363-7.562,15.44-14,22.546A7.233,7.233,0,0,1,1225.835,478.987Z" transform="translate(-1207.645 -432.161)" fill="#7693a6"/></g><path d="M1145.743,451.4h28.143c1.976,0,3.188-1.241,2.706-2.771l-12.759-40.566c-.481-1.53-2.474-2.771-4.449-2.771h-28.143c-1.976,0-3.188,1.241-2.706,2.771l12.759,40.566C1141.775,450.158,1143.767,451.4,1145.743,451.4Z" transform="translate(-1101.875 -341.635)" fill="#c0d9fd"/><path d="M1194.2,456.747c2.783,2.465,6.98,2.865,8.82.73,3.647-4.232,3.938-9.626-.457-13.158-1.405-1.13-3-2.072-4.4-3.163-2.819-2.207-2.415.805-1.151,2.986.881,1.519,3.727,2.286,1.939,3.557-1.158.823-5.07,1.284-6.367,1.053C1188.148,447.962,1189.243,452.36,1194.2,456.747Z" transform="translate(-1131.074 -358.333)" fill="#f9b09f"/><g transform="translate(66.726 17.128)"><path d="M1229.919,356.4c2.423,7.745,2.522,17.349,1.343,21.451,4.34,2.081,12.41,1.6,15.363-.007-1.177-8.949-1.973-16.356-3.746-21.979Z" transform="translate(-1216.891 -335.247)" fill="#f9b09f"/><path d="M1217.773,330.871c-1.286,2.466-.731,6.839-.6,9.56a38.253,38.253,0,0,0,1.309,8.8c.5,1.733.774,3.707,2.825,4.183,2.215.515,5.39-1.431,7.295-2.39,5.208-2.623,7.924-7.018,8.741-12.733.755-5.283.722-12.118-5.855-13.282-3.554-.629-9.586-.027-12.155,2.8-.894.987-.939,2.386-1.751,3.447C1217.692,331.565,1217.7,331.249,1217.773,330.871Z" transform="translate(-1210.716 -320.457)" fill="#f9b09f"/><g transform="translate(14.73 27.66)"><path d="M1233.429,374.122a.262.262,0,0,1-.1-.506,21.208,21.208,0,0,0,6.639-4.242.262.262,0,0,1,.374.368,21.806,21.806,0,0,1-6.82,4.361A.26.26,0,0,1,1233.429,374.122Z" transform="translate(-1233.167 -369.296)" fill="#db8370"/></g><path d="M1205.131,323.936a7.939,7.939,0,0,0,9.3,5.392c6.661-1.986,9.673-5,12.79-3.443,2.864,1.43,1.619,5.355,1.262,7.849-.586,4.093,1.478,7.384,3.944,10.488a4.125,4.125,0,0,1,.4-.126c-.132-1.823,1.286-3.92,1.6-5.755.428-2.472-.043-4.771-.112-7.234-.128-4.593,1.943-9.784-2.548-13.15-3.38-2.533-8,.5-11.6-.81C1212.949,314.527,1204.221,320.881,1205.131,323.936Z" transform="translate(-1205.066 -316.528)" fill="#34495e"/><path d="M1253.9,338.478c.964,6.13,4.979,11.582,9.581,17.614,2.525,3.309,5.908,5.66,6.545,10.05.675,4.663-2.165,9.29-5.618,12.207-2.977,2.514-7.495,5.041-10.662,1.875a27.321,27.321,0,0,1-6.8-11.2c-1.746-5.556-1.079-15.444.995-24.916C1250.3,336.9,1253.9,338.478,1253.9,338.478Z" transform="translate(-1224.514 -326.902)" fill="#34495e"/></g><path d="M1083.629,305.2a21.889,21.889,0,0,1-1.575-5.251,35.524,35.524,0,0,0-4.05-9.077c-.184-.313-.36-.744-.107-1.005.276-.286.755-.06,1.065.188a12.107,12.107,0,0,1,2.922,3.4c.288.5.673,1.1,1.249,1.057a8.82,8.82,0,0,0-.916-2.493l-1.793-3.683a1.537,1.537,0,0,1-.223-.825,1.472,1.472,0,0,1,.335-.679,16.188,16.188,0,0,1,1.172-1.4.8.8,0,0,1,.416-.284.783.783,0,0,1,.555.191c1.988,1.375,3.093,3.672,4.111,5.864l-2.14-5.741c-.18-.482-.33-1.1.054-1.447a.885.885,0,0,1,1.076.028,2.512,2.512,0,0,1,.683.929,58.688,58.688,0,0,1,4.921,13.328,2.63,2.63,0,0,0,.84-1.334l1.113-2.983a3.12,3.12,0,0,1,1.068-1.655c.566-.357,1.506-.159,1.626.5a1.838,1.838,0,0,1-.263,1.027c-1.217,2.791.257,6.064-.362,9.045C1094.322,308.139,1086.386,310.23,1083.629,305.2Z" transform="translate(-1077.771 -283.854)" fill="#f9b09f"/></g><rect width="83.335" height="55.365" rx="23.958" transform="translate(206.544 102.597) rotate(180)" fill="#70a0fe"/><rect width="60.36" height="80.431" rx="23.958" transform="translate(143.206 80.431) rotate(180)" fill="#fdc957"/><path d="M1193.914,249.488V273.87l14.078-24.381Z" transform="translate(-1042.081 -152.26)" fill="#70a0fe"/><path d="M25.267,0H47.872A25.267,25.267,0,0,1,73.139,25.267v25.27a0,0,0,0,1,0,0H25.267A25.267,25.267,0,0,1,0,25.27v0A25.267,25.267,0,0,1,25.267,0Z" transform="translate(18.58 12.153)" fill="#9b87fe"/><circle cx="17.741" cy="17.741" r="17.741" transform="translate(68.538 63.571) rotate(-22.5)" fill="#d5e5fd"/></svg>