<svg xmlns="http://www.w3.org/2000/svg" width="170" height="81.695" viewBox="0 0 170 81.695"><path d="M39.055,22A39.052,39.052,0,0,0,9.223,86.254l50.769,7.769A39.057,39.057,0,0,0,39.055,22Z" transform="translate(0 -18.49)" fill="#816ae2"/><path d="M233.84,268.031a25.774,25.774,0,0,1-.29,4.194,31.517,31.517,0,0,1-3.354,8.917,13.262,13.262,0,0,1-2.428,3.027l-.122.114v.772a3.6,3.6,0,0,0,.84,2.221,28.181,28.181,0,0,0,7.467-1.463,3.994,3.994,0,0,0,2.13-5.82c-3.074-5.1-2.616-11.961-2.616-11.961Z" transform="translate(-191.357 -225.305)" fill="#2a428c"/><path d="M238.081,328.688a14.62,14.62,0,0,1-.775-1.474c-3.578,2.076-5.008-.865-5.008-.865s-.092-.135-.262-.388a26.652,26.652,0,0,1-1.842,3.876,13.261,13.261,0,0,1-2.428,3.027l-.122.114v.772a3.6,3.6,0,0,0,.84,2.221,28.181,28.181,0,0,0,7.467-1.463A3.994,3.994,0,0,0,238.081,328.688Z" transform="translate(-191.356 -274.001)" fill="#1c2e7a"/><path d="M89.965,285.812a28.185,28.185,0,0,0,7.467,1.463,3.6,3.6,0,0,0,.84-2.221v-.948l-.117-.113a13.268,13.268,0,0,1-2.241-2.851,31.5,31.5,0,0,1-3.354-8.913,23.829,23.829,0,0,1-.291-4.2H90.451s.458,6.865-2.616,11.961a3.994,3.994,0,0,0,2.13,5.82Z" transform="translate(-73.357 -225.305)" fill="#1c2e7a"/><g transform="translate(0 5.08)"><path d="M9.105,72.69a24.578,24.578,0,0,1,6.577-22.011c3.054-3.047,6.852-5.212,10.45-7.592,2.3-1.52,4.774-3.615,4.645-6.366a7.244,7.244,0,0,0-2.216-4.308q-.25-.276-.509-.544A39.077,39.077,0,0,0,3.55,85.633a9.5,9.5,0,0,0,1.578-.378,7.321,7.321,0,0,0,4.717-4.485c.835-2.61-.181-5.4-.74-8.081Z" transform="translate(0 -31.869)" fill="#9181f2"/></g><g transform="translate(53.569 40.506)"><path d="M356.741,255.132a22.426,22.426,0,0,0-11.6-.507c-3.144.595-6.49,1.839-8.045,4.635a12.007,12.007,0,0,0-1.017,6.3c.132,3.77.746,7.923,3.621,10.365,2.758,2.343,7.007,2.548,9.39,5.271a16.277,16.277,0,0,1,1.1,1.5,38.905,38.905,0,0,0,10.391-25.525A14.632,14.632,0,0,0,356.741,255.132Z" transform="translate(-336.055 -254.107)" fill="#9181f2"/></g><path d="M271.91,10.967a4.63,4.63,0,0,1,4.616-4.616h21.979V4.616A4.63,4.63,0,0,0,293.889,0H270.022a4.63,4.63,0,0,0-4.616,4.616v18.95a4.63,4.63,0,0,0,4.616,4.616h1.887V10.967Z" transform="translate(-223.099)" fill="#4fabf7"/><path d="M283.195,0H270.022a4.63,4.63,0,0,0-4.616,4.616v18.95a4.63,4.63,0,0,0,4.616,4.616h1.887V10.967a4.63,4.63,0,0,1,4.616-4.616H283.1c.058-.19.1-.295.1-.295a3.93,3.93,0,0,1,0-6.056Z" transform="translate(-223.099)" fill="#1886ea"/><path d="M332.841,37.992H308.974a4.63,4.63,0,0,0-4.616,4.616v18.95a4.63,4.63,0,0,0,4.616,4.616.779.779,0,0,1,.612,1.259,10.926,10.926,0,0,1-1.423,1.521,1.509,1.509,0,0,0,.816,2.634,10.421,10.421,0,0,0,8.148-4.232,2.986,2.986,0,0,1,2.359-1.181h13.355a4.63,4.63,0,0,0,4.616-4.616V42.608a4.63,4.63,0,0,0-4.616-4.616Z" transform="translate(-255.842 -31.936)" fill="#e9efff"/><path d="M308.974,37.992a4.63,4.63,0,0,0-4.616,4.616v18.95a4.63,4.63,0,0,0,4.616,4.616.779.779,0,0,1,.612,1.259,10.926,10.926,0,0,1-1.423,1.521,1.509,1.509,0,0,0,.816,2.634,10.421,10.421,0,0,0,8.148-4.232,2.986,2.986,0,0,1,2.359-1.181h5.963c-7.173-4.191-4.021-11.576-4.021-11.576l-.937-4.229c-7.568-4.437-4.553-12.378-4.553-12.378Z" transform="translate(-255.842 -31.936)" fill="#bec8f7"/><ellipse cx="2.218" cy="2.218" rx="2.218" ry="2.218" transform="translate(54.862 18.434)" fill="#1886ea"/><ellipse cx="2.218" cy="2.218" rx="2.218" ry="2.218" transform="translate(62.43 18.434)" fill="#1886ea"/><ellipse cx="2.218" cy="2.218" rx="2.218" ry="2.218" transform="translate(69.998 18.434)" fill="#4fabf7"/><g transform="translate(17.238 21.331)"><path d="M128.542,135.428a15.773,15.773,0,0,0-13.884,0,12.008,12.008,0,0,0-6.517,10.669v5.5a3.317,3.317,0,0,1,1.793.5,3.668,3.668,0,0,1,.7-1.368,1.766,1.766,0,0,0,.465-1.116c.047-1.587.464-5.338,3.259-6.774a1.645,1.645,0,0,1,2.168.664c1.684,2.919,5.611,6.766,14.345,5.127a1.029,1.029,0,0,1,1.221.974s0,.007,0,.01a1.766,1.766,0,0,0,.465,1.116,3.668,3.668,0,0,1,.7,1.368,3.318,3.318,0,0,1,1.793-.5v-5.5a12.008,12.008,0,0,0-6.517-10.669Z" transform="translate(-108.141 -133.818)" fill="#2a428c"/></g><path d="M121.432,147.644c-4.329-8.27,3.8-13.423,3.8-13.423a16.076,16.076,0,0,0-3.636-.4,14.923,14.923,0,0,0-6.942,1.61,12.008,12.008,0,0,0-6.517,10.669v5.5a3.317,3.317,0,0,1,1.793.5,3.668,3.668,0,0,1,.7-1.368,1.766,1.766,0,0,0,.465-1.116c.047-1.587.464-5.338,3.259-6.774a1.645,1.645,0,0,1,2.168.664,10.581,10.581,0,0,0,5.105,4.533l-.2-.387Z" transform="translate(-90.903 -112.487)" fill="#1c2e7a"/><path d="M100.369,253.2s-.73-4.62.111-7.372c-.763-.508-2.237-.757-2.9-.109-1.357,1.327-.363,3.331.113,4.6a4.8,4.8,0,0,1,.283,1.175,2.182,2.182,0,0,0,2.48,2.078c-.029-.123-.059-.245-.087-.37Z" transform="translate(-81.448 -206.225)" fill="#fd995b"/><path d="M268.661,245.721c-.663-.648-2.137-.4-2.9.109.841,2.751.111,7.372.111,7.372-.028.125-.058.247-.087.37a2.182,2.182,0,0,0,2.48-2.078,4.8,4.8,0,0,1,.283-1.175c.476-1.266,1.47-3.269.113-4.6Z" transform="translate(-223.397 -206.225)" fill="#fcad6d"/><path d="M115.91,374.791a19.528,19.528,0,0,0,9.2,8.086,6.979,6.979,0,0,0,5.521,0,19.529,19.529,0,0,0,9.2-8.086c.095-.162.188-.328.281-.493-3.28-1.292-6.269-3.109-6.269-5.469v-1.137c-1.471,1.315-3.993,2.99-6.07,3.04-2.077-.05-4.6-1.725-6.07-3.04,0,1.568.416,3.455-4.512,5.848-.506.246-1.042.479-1.593.7.1.185.208.37.314.552Z" transform="translate(-97.169 -309.08)" fill="#fcad6d"/><path d="M127.76,370.731c-2.075-.055-4.592-1.727-6.06-3.04,0,1.568.416,3.455-4.512,5.848-.506.246-1.042.479-1.593.7.1.186.208.37.314.552a19.368,19.368,0,0,0,7.09,7.026A19.1,19.1,0,0,0,127.76,370.731Z" transform="translate(-97.169 -309.079)" fill="#fd995b"/><path d="M107.874,416.627a11.145,11.145,0,0,0-7.929-6.049,56.458,56.458,0,0,1-8.672-2.515q-.167.3-.338.594A18.946,18.946,0,0,1,82.01,416.5a6.771,6.771,0,0,1-5.356,0,18.945,18.945,0,0,1-8.925-7.844q-.188-.322-.371-.653a54.474,54.474,0,0,1-8.83,2.574c-.2.038-.424.088-.67.152a39.06,39.06,0,0,0,50.769,7.769,13.792,13.792,0,0,0-.753-1.872Z" transform="translate(-48.635 -342.966)" fill="#fc90ce"/><path d="M138.981,194.749c-.006-.2-.019-.446-.042-.719a1.31,1.31,0,0,0-1.328-.545c-8.328,1.563-12.233-1.85-14.043-4.988a1.953,1.953,0,0,0-1.51-.975,4.892,4.892,0,0,0-1.415.641c-2.44,1.625-2.8,5.146-2.846,6.585a1.66,1.66,0,0,1-.441,1.055c-1.528,1.722-1.193,6.753-.837,8.824a31.882,31.882,0,0,0,3.4,9.032,13.832,13.832,0,0,0,6.516,5.727,4.944,4.944,0,0,0,3.911,0,13.832,13.832,0,0,0,6.516-5.727,31.89,31.89,0,0,0,3.4-9.038c.342-2.177.707-7.076-.838-8.818a1.659,1.659,0,0,1-.441-1.055Z" transform="translate(-97.691 -157.63)" fill="#f9ba8f"/><path d="M130.13,213.66a31.88,31.88,0,0,1-3.4-9.032c-.357-2.071-.691-7.1.837-8.824a1.66,1.66,0,0,0,.441-1.055,12.946,12.946,0,0,1,.211-1.962,10.271,10.271,0,0,1-4.653-4.29,1.953,1.953,0,0,0-1.51-.975,4.892,4.892,0,0,0-1.415.641c-2.44,1.625-2.8,5.146-2.846,6.585a1.66,1.66,0,0,1-.441,1.055c-1.528,1.722-1.193,6.753-.837,8.824a31.882,31.882,0,0,0,3.4,9.032,13.833,13.833,0,0,0,6.516,5.727,4.943,4.943,0,0,0,3.911,0,14.266,14.266,0,0,0,3.151-1.873,13.637,13.637,0,0,1-3.365-3.855Z" transform="translate(-97.691 -157.63)" fill="#fcad6d"/><g transform="translate(9.223 65.038)"><path d="M74.657,415.5a18.791,18.791,0,0,1-6.926-6.843q-.188-.322-.371-.653a54.474,54.474,0,0,1-8.83,2.574c-.2.038-.424.088-.67.152A39.243,39.243,0,0,0,68.6,419.6a15.943,15.943,0,0,0,6.055-4.1Z" transform="translate(-57.86 -408.004)" fill="#f964b2"/><path d="M317.587,477.826a9.038,9.038,0,0,0-1.77-2.676,1.19,1.19,0,0,0-2.042.834v3.174A38.809,38.809,0,0,0,317.587,477.826Z" transform="translate(-272.981 -464.142)" fill="#f964b2"/></g><g transform="translate(88.385 0.08)"><path d="M644.561,87.657l-52.71,4.961a39.055,39.055,0,1,1,52.71-4.961Z" transform="translate(-572.955 -18.99)" fill="#4ce088"/><g transform="translate(37.691 57.556)"><path d="M809.087,372.86a11.277,11.277,0,0,1-13.809,0,21.557,21.557,0,0,1-4.369-4.6q.574-.167,1.162-.315a1.8,1.8,0,0,0,1.027-.693,11.092,11.092,0,0,0,1.461-5.679,16.291,16.291,0,0,0,2.35,2.247,8.613,8.613,0,0,0,10.545,0,16.3,16.3,0,0,0,2.35-2.247c.061,1.775.377,4.237,1.535,5.781a1.559,1.559,0,0,0,.867.569q.631.156,1.247.337a21.561,21.561,0,0,1-4.368,4.6Z" transform="translate(-790.91 -361.569)" fill="#fcad6d"/></g><path d="M862.679,365.615a8.582,8.582,0,0,0,5.105-1.8,16.306,16.306,0,0,0,2.35-2.247c.061,1.775.377,4.237,1.535,5.781a1.559,1.559,0,0,0,.867.569q.631.156,1.247.337a21.559,21.559,0,0,1-4.368,4.6,11.207,11.207,0,0,1-2.345,1.4c-3.035-2.378-4.053-6.392-4.392-8.643Z" transform="translate(-813.548 -304.013)" fill="#fd995b"/><g transform="translate(34.835 21.331)"><path d="M789.676,134.477c7.656,1.043,8.383,5.384,8.387,6.976a.877.877,0,0,0,.486.79c3.982,1.937,1.835,11.274,1.835,11.274a4.508,4.508,0,0,0-1.312.521,6.829,6.829,0,0,0-.377-1.4,5.857,5.857,0,0,0-.512-1.023,3.141,3.141,0,0,1-.481-1.919c.143-1.948.255-5.6-2.316-6.761-2.178-.98-4.85-.413-6.554.154a5.411,5.411,0,0,1-3.412,0c-1.7-.567-4.376-1.134-6.554-.154-2.564,1.154-2.458,4.792-2.317,6.745a3.172,3.172,0,0,1-.479,1.936,5.89,5.89,0,0,0-.525,1.056,6.834,6.834,0,0,0-.365,1.364,3.567,3.567,0,0,0-1.618-.512c-.059-2.042-.247-4.242-.247-4.242-2.268-11.112,8.118-15.93,16.361-14.807Z" transform="translate(-772.999 -134.318)" fill="#2a428c"/><path d="M855.49,134.48c7.656,1.043,8.383,5.384,8.387,6.976a.877.877,0,0,0,.486.79c3.982,1.937,1.835,11.274,1.835,11.274a4.508,4.508,0,0,0-1.312.521,6.829,6.829,0,0,0-.377-1.4,5.857,5.857,0,0,0-.512-1.023,3.141,3.141,0,0,1-.481-1.919c.143-1.948.255-5.6-2.316-6.761-2.178-.98-4.85-.413-6.554.154a5.4,5.4,0,0,1-1.434.265c.074-.128.154-.254.242-.379,3.284-4.616-1.281-7.98-2.162-8.568a18.017,18.017,0,0,1,4.2.067Z" transform="translate(-838.813 -134.321)" fill="#1c2e7a"/></g><path d="M768.748,254.847a2.159,2.159,0,0,1,2.3.065,7.214,7.214,0,0,0-.022,2.125l.606,4.414q0,.534.032,1.048c-1.478.446-2.212-.881-2.335-1.791a6.775,6.775,0,0,0-.261-1.155c-.393-1.228-1.811-3.337-.317-4.706Z" transform="translate(-734.028 -214.043)" fill="#fcad6d"/><path d="M935.616,254.847a2.159,2.159,0,0,0-2.3.065,7.214,7.214,0,0,1,.022,2.125l-.606,4.414q0,.534-.032,1.048c1.478.446,2.212-.881,2.335-1.791a6.775,6.775,0,0,1,.261-1.155C935.692,258.325,937.11,256.216,935.616,254.847Z" transform="translate(-872.409 -214.043)" fill="#fd995b"/><path d="M785.443,193.226a5.894,5.894,0,0,1,.525-1.056,3.172,3.172,0,0,0,.479-1.936c-.141-1.953-.065-5.772,2.5-6.926,2.178-.98,4.85-.413,6.554.154a5.41,5.41,0,0,0,3.412,0c1.7-.567,4.375-1.134,6.554-.154,2.571,1.157,2.64,4.995,2.5,6.943a3.141,3.141,0,0,0,.48,1.919,5.861,5.861,0,0,1,.512,1.023,7.059,7.059,0,0,1,.4,3.521l-.606,4.415a16.219,16.219,0,0,1-6.27,12.9,8.612,8.612,0,0,1-10.545,0,16.219,16.219,0,0,1-6.27-12.9l-.606-4.414a7.058,7.058,0,0,1,.386-3.489Z" transform="translate(-748.242 -153.72)" fill="#f9ba8f"/><g transform="translate(44.755 29.056)"><path d="M836.294,214.029a16.219,16.219,0,0,0,6.27-12.9l.606-4.415a7.056,7.056,0,0,0-.4-3.521,5.865,5.865,0,0,0-.512-1.023,3.14,3.14,0,0,1-.48-1.919c.129-1.761.085-5.067-1.825-6.54a5.406,5.406,0,0,0,1.192-.249c1.7-.567,4.375-1.134,6.554-.154,2.571,1.157,2.64,4.995,2.5,6.943a3.141,3.141,0,0,0,.48,1.919,5.865,5.865,0,0,1,.512,1.023,7.058,7.058,0,0,1,.4,3.521l-.606,4.415a16.219,16.219,0,0,1-6.27,12.9,8.61,8.61,0,0,1-9.481.7,8.6,8.6,0,0,0,1.064-.7Z" transform="translate(-835.23 -182.777)" fill="#fcad6d"/></g><path d="M681.791,407.33a6.07,6.07,0,0,0,2.666-1.116A34.233,34.233,0,0,1,692.1,403a20.884,20.884,0,0,0,4.288,4.538,10.925,10.925,0,0,0,13.377,0,20.889,20.889,0,0,0,4.289-4.54,34.423,34.423,0,0,1,7.639,3.213,6.067,6.067,0,0,0,2.666,1.116c.472.039.925.1,1.36.177a39.051,39.051,0,0,1-52.71,4.961A10.913,10.913,0,0,1,681.791,407.33Z" transform="translate(-654.11 -338.84)" fill="#3c58a0"/><path d="M890.7,410.047a8.631,8.631,0,0,1-1.738-1.125,10.856,10.856,0,0,0,2.332-1.382,20.889,20.889,0,0,0,4.289-4.54,34.426,34.426,0,0,1,7.639,3.213,6.067,6.067,0,0,0,2.666,1.116c.472.039.925.1,1.36.177a39.238,39.238,0,0,1-9.408,7.657C896.9,412.747,894.757,412.03,890.7,410.047Z" transform="translate(-835.638 -338.839)" fill="#2a428c"/><path d="M620.011,11.467a4.63,4.63,0,0,0-4.616-4.616H593.415V5.116A4.63,4.63,0,0,1,598.031.5H621.9a4.63,4.63,0,0,1,4.616,4.616v18.95a4.63,4.63,0,0,1-4.616,4.616h-1.887V11.467Z" transform="translate(-587.206 -0.5)" fill="#4fabf7"/><path d="M689.465.5h13.172a4.63,4.63,0,0,1,4.616,4.616v18.95a4.63,4.63,0,0,1-4.616,4.616H700.75V11.467a4.63,4.63,0,0,0-4.616-4.616h-6.57c-.058-.19-.1-.295-.1-.295a3.93,3.93,0,0,0,0-6.056Z" transform="translate(-667.945 -0.5)" fill="#1886ea"/><path d="M559.081,38.492h23.866a4.63,4.63,0,0,1,4.616,4.616v18.95a4.63,4.63,0,0,1-4.616,4.616.779.779,0,0,0-.612,1.259,10.925,10.925,0,0,0,1.423,1.521,1.509,1.509,0,0,1-.815,2.634,10.421,10.421,0,0,1-8.148-4.232,2.986,2.986,0,0,0-2.359-1.181H559.081a4.63,4.63,0,0,1-4.616-4.616V43.108a4.63,4.63,0,0,1,4.616-4.616Z" transform="translate(-554.465 -32.436)" fill="#e9efff"/><path d="M646.272,38.492a4.63,4.63,0,0,1,4.616,4.616v18.95a4.63,4.63,0,0,1-4.616,4.616.779.779,0,0,0-.612,1.259,10.922,10.922,0,0,0,1.423,1.521,1.509,1.509,0,0,1-.816,2.634,10.421,10.421,0,0,1-8.148-4.232,2.986,2.986,0,0,0-2.359-1.181H629.8c7.173-4.191,4.021-11.576,4.021-11.576l.938-4.229c7.568-4.437,4.553-12.378,4.553-12.378Z" transform="translate(-617.789 -32.436)" fill="#bec8f7"/><ellipse cx="2.218" cy="2.218" rx="2.218" ry="2.218" transform="translate(22.317 18.434)" fill="#1886ea"/><ellipse cx="2.218" cy="2.218" rx="2.218" ry="2.218" transform="translate(14.749 18.434)" fill="#1886ea"/><ellipse cx="2.218" cy="2.218" rx="2.218" ry="2.218" transform="translate(7.181 18.434)" fill="#4fabf7"/><g transform="translate(47.174 4.034)"><path d="M869.584,77.551c-1.406-2.971.211-6.392,1.326-9.484a26.187,26.187,0,0,0,.875-15.629,20.122,20.122,0,0,0-9.368-12.323c-2.383-1.317-5.047-2.076-7.4-3.449s-4.468-3.615-4.611-6.334a6.2,6.2,0,0,1,1.8-4.525,39.074,39.074,0,0,1,28.882,55.251,10.189,10.189,0,0,1-9.627-1.233,6.516,6.516,0,0,1-1.877-2.273Z" transform="translate(-850.4 -25.806)" fill="#5efc9e"/></g><g transform="translate(3.522 41.06)"><path d="M586.293,285.4a38.891,38.891,0,0,1-9.735-24.777,16.17,16.17,0,0,1,9.711-2.513c4.959.271,9.631,2.454,13.792,5.167a17,17,0,0,1,4.528,3.928,7.211,7.211,0,0,1,1.475,5.658c-.636,2.977-3.575,4.89-6.462,5.854s-6.011,1.339-8.647,2.862a27.788,27.788,0,0,0-4.661,3.822Z" transform="translate(-576.558 -258.082)" fill="#5efc9e"/></g><path d="M728.638,478.857a8.985,8.985,0,0,1,1.719-2.563,1.19,1.19,0,0,1,2.042.834v3.049A38.751,38.751,0,0,1,728.638,478.857Z" transform="translate(-700.874 -400.145)" fill="#2a428c"/></g></svg>