<svg xmlns="http://www.w3.org/2000/svg" width="115.005" height="115.007" viewBox="0 0 115.005 115.007"><g transform="translate(-16 -15.992)"><path d="M125.255,40.912h-3.834V39h1.917a5.75,5.75,0,1,0,0-11.5h-1.917V17.911a1.855,1.855,0,0,0-.786-1.533,1.9,1.9,0,0,0-1.687-.307L94.3,23.661H81.17a1.917,1.917,0,0,0-1.917,1.917v1.917H75.42A1.917,1.917,0,0,0,73.5,29.412v7.667A1.917,1.917,0,0,0,75.42,39h3.834v1.917h-11.5V23.661a1.917,1.917,0,0,0-1.917-1.917H27.5a1.917,1.917,0,0,0-1.917,1.917V40.912H21.75A5.768,5.768,0,0,0,16,46.662V108a5.768,5.768,0,0,0,5.75,5.75H65.836v5.75h-11.5a1.917,1.917,0,0,0-1.917,1.917v7.667A1.917,1.917,0,0,0,54.335,131H92.67a1.917,1.917,0,0,0,1.917-1.917v-7.667A1.917,1.917,0,0,0,92.67,119.5H81.17v-5.75h44.085a5.768,5.768,0,0,0,5.75-5.75V46.662A5.768,5.768,0,0,0,125.255,40.912Zm-3.834-9.584h1.917a1.917,1.917,0,0,1,0,3.834h-1.917ZM96.5,27l21.084-6.5V45.992L96.5,39.494Zm-13.417.5H92.67V39H83.087Zm5.463,15.334-1.38,9.584H85V42.829ZM77.336,35.162V31.328h1.917v3.834ZM29.417,25.578h34.5V52.413h-34.5Zm61.336,97.755v3.834h-34.5v-3.834ZM69.669,119.5v-5.75h7.667v5.75Zm57.5-11.5a1.917,1.917,0,0,1-1.917,1.917H21.75A1.917,1.917,0,0,1,19.834,108v-1.917H127.172Zm0-5.75H19.834V46.662a1.917,1.917,0,0,1,1.917-1.917h3.834v9.584A1.917,1.917,0,0,0,27.5,56.246H65.836a1.917,1.917,0,0,0,1.917-1.917V44.746H81.17v9.584a1.917,1.917,0,0,0,1.917,1.917h5.75a1.917,1.917,0,0,0,1.9-1.648l1.687-11.769H94.3l24.65,7.59a1.775,1.775,0,0,0,.556.077,1.945,1.945,0,0,0,1.917-1.917V44.746h3.834a1.917,1.917,0,0,1,1.917,1.917Z"/><path d="M49.917,250.5H99.752a1.917,1.917,0,0,0,1.917-1.917V217.917A1.917,1.917,0,0,0,99.752,216H49.917A1.917,1.917,0,0,0,48,217.917v30.668A1.917,1.917,0,0,0,49.917,250.5Zm1.917-3.834V221.346l22,13.538a1.916,1.916,0,0,0,2.009,0l22-13.538v25.322Zm4.855-26.835H92.981L74.835,231Z" transform="translate(-24.333 -152.087)"/><path d="M289.917,226.835h3.834v5.75a1.917,1.917,0,0,0,1.917,1.917h32.585a1.917,1.917,0,0,0,1.917-1.917v-23a1.917,1.917,0,0,0-1.917-1.917h-1.917v-5.75A1.917,1.917,0,0,0,324.418,200h-34.5A1.917,1.917,0,0,0,288,201.917v23A1.917,1.917,0,0,0,289.917,226.835Zm36.418,3.834H297.584V211.5h28.751Zm-34.5-26.835H322.5v3.834H295.667a1.917,1.917,0,0,0-1.917,1.917V223h-1.917Z" transform="translate(-206.83 -139.92)"/><path d="M344,264h3.833v3.833H344Z" transform="translate(-249.413 -188.586)"/><path d="M376,264h13.417v3.833H376Z" transform="translate(-273.746 -188.586)"/><path d="M344,296h7.667v3.833H344Z" transform="translate(-249.413 -212.919)"/><path d="M392,296h9.584v3.833H392Z" transform="translate(-285.912 -212.919)"/><path d="M120.909,95.044a1.917,1.917,0,0,0,1.865.084l11.5-5.75a1.917,1.917,0,0,0,0-3.431l-11.5-5.75A1.917,1.917,0,0,0,120,81.913v11.5A1.917,1.917,0,0,0,120.909,95.044Zm2.925-10.03,5.3,2.649-5.3,2.649Z" transform="translate(-79.082 -48.667)"/></g></svg>