<svg xmlns="http://www.w3.org/2000/svg" width="353.054" height="359.474" viewBox="0 0 353.054 359.474"><g transform="translate(-28.01 -326.976)"><path d="M381.064,436.814H28.01a19.257,19.257,0,0,1,19.256-19.256H361.808a19.257,19.257,0,0,1,19.256,19.256Z" transform="translate(0 249.635)" fill="#555152"/><g transform="translate(47.266 448.94)"><rect width="301.7" height="218.251" transform="translate(6.42)" fill="#cacdd1"/><g transform="translate(0 186.155)"><path d="M2,0H312.539a2,2,0,0,1,2,2V32.1a0,0,0,0,1,0,0H0a0,0,0,0,1,0,0V2A2,2,0,0,1,2,0Z" transform="translate(0.001 0)" fill="#3c966e"/><path d="M341.259,409.012H39.556a6.418,6.418,0,0,0-6.419,6.419H347.678A6.418,6.418,0,0,0,341.259,409.012Z" transform="translate(-33.137 -409.012)" fill="#74d4a8"/></g></g><g transform="translate(175.651 493.874)"><rect width="160.479" height="121.964" fill="#a7a7b8"/><rect width="147.641" height="109.126" transform="translate(6.419 6.419)" fill="#5aa5ad"/><rect width="147.641" height="6.419" transform="translate(6.419 6.419)" fill="#1d7789"/><g transform="translate(6.419 44.934)"><path d="M210.25,412.262V386.585H197.411v25.677H184.573V399.424H171.735v12.838h-9.629V383.376h-9.629v28.886h-6.419V399.424H133.22v12.838H125.2V396.214h-9.629v16.048h-8.024V399.424H94.705v12.838H88.286V386.585H75.447v25.677H69.028v3.21H216.669v-3.21Z" transform="translate(-69.028 -383.376)" fill="#3c8e9b"/><rect width="12.838" height="25.676" transform="translate(128.383 44.934)" fill="#3c8e9b"/><rect width="12.838" height="25.676" transform="translate(104.311 44.934)" fill="#3c8e9b"/><rect width="12.838" height="25.676" transform="translate(85.054 44.934)" fill="#3c8e9b"/><rect width="12.838" height="19.257" transform="translate(6.419 51.354)" fill="#3c8e9b"/><rect width="12.838" height="19.257" transform="translate(56.156 51.354)" fill="#3c8e9b"/><rect width="9.629" height="28.886" transform="translate(25.677 41.725)" fill="#3c8e9b"/></g><path d="M121.655,375.685a44.934,44.934,0,1,0,44.932,44.932A44.932,44.932,0,0,0,121.655,375.685Zm9.626,54.562v22.468H112.024V430.247H89.557V410.99h22.468V388.523h19.256V410.99h22.468v19.257Z" transform="translate(-41.414 -359.637)" fill="#e6ebea"/></g><g transform="translate(72.944 493.874)"><rect width="83.449" height="141.222" fill="#a7a7b8"/><rect width="83.449" height="25.677" transform="translate(0 141.222)" fill="#555152"/><rect width="70.611" height="160.479" transform="translate(6.419 6.419)" fill="#e6ebea"/><rect width="57.772" height="128.383" transform="translate(12.838 12.838)" fill="#5aa5ad"/><rect width="57.772" height="6.419" transform="translate(12.838 12.838)" fill="#1d7789"/><rect width="57.772" height="6.419" transform="translate(12.838 109.126)" fill="#1d7789"/><path d="M112.294,401.762v6.415a6.438,6.438,0,0,1-6.419,6.423H48.1a6.438,6.438,0,0,1-6.419-6.423v-6.415l6.419-6.423h3.208v6.423h51.354v-6.423h3.211Z" transform="translate(-35.263 -305.472)" fill="#767475"/><path d="M0,0H51.353a0,0,0,0,1,0,0V5.419a1,1,0,0,1-1,1H1a1,1,0,0,1-1-1V0A0,0,0,0,1,0,0Z" transform="translate(16.048 96.288)" fill="#cacdd1"/><rect width="44.934" height="25.677" transform="translate(19.258 38.515)" fill="#e6ebea"/><rect width="83.449" height="6.419" transform="translate(0 166.898)" fill="#74d4a8"/></g><g transform="translate(28.01 391.167)"><path d="M34.846,391.472a15.977,15.977,0,0,0,6.423-12.766,16.047,16.047,0,1,0,32.094,0,16.047,16.047,0,1,0,32.094,0,16.049,16.049,0,0,0,32.1,0,16.047,16.047,0,1,0,32.094,0,16.049,16.049,0,0,0,32.1,0,16.047,16.047,0,1,0,32.094,0,16.049,16.049,0,0,0,32.1,0,16.047,16.047,0,1,0,32.094,0,16.049,16.049,0,0,0,32.1,0,15.963,15.963,0,0,0,6.419,12.766V359.449H34.846Z" transform="translate(-9.171 -301.674)" fill="#a7a7b8"/><g transform="translate(32.098 57.775)"><path d="M53.646,362.657a16.049,16.049,0,0,0,32.1,0v-3.208h-32.1Z" transform="translate(10.542 -359.449)" fill="#cacdd1"/><path d="M36.556,362.657a16.047,16.047,0,1,0,32.094,0v-3.208H36.556Z" transform="translate(-36.556 -359.449)" fill="#cacdd1"/><path d="M70.737,362.657a16.049,16.049,0,0,0,32.1,0v-3.208h-32.1Z" transform="translate(57.643 -359.449)" fill="#cacdd1"/><path d="M104.919,359.449v3.208a16.049,16.049,0,0,0,32.1,0v-3.208Z" transform="translate(151.845 -359.449)" fill="#cacdd1"/><path d="M87.828,362.657a16.049,16.049,0,0,0,32.1,0v-3.208h-32.1Z" transform="translate(104.744 -359.449)" fill="#cacdd1"/></g><g transform="translate(32.096)"><path d="M68.181,344.067,36.556,401.839h32.1L93.3,344.067Z" transform="translate(-36.556 -344.067)" fill="#e6ebea"/><path d="M71.32,344.067,53.646,401.839h32.1l10.7-57.773Z" transform="translate(10.545 -344.067)" fill="#e6ebea"/><path d="M84.98,344.067l10.7,57.773h32.1L110.1,344.067Z" transform="translate(96.898 -344.067)" fill="#e6ebea"/><path d="M74.458,344.067l-3.721,57.773h32.1l-3.721-57.773Z" transform="translate(57.646 -344.067)" fill="#e6ebea"/><path d="M98.356,344.067l24.65,57.773h32.1l-31.626-57.773Z" transform="translate(133.76 -344.067)" fill="#e6ebea"/></g><g transform="translate(0 57.775)"><path d="M62.192,362.657a16.047,16.047,0,1,0,32.094,0v-3.208H62.192Z" transform="translate(66.192 -359.449)" fill="#3c966e"/><path d="M45.1,362.657a16.047,16.047,0,1,0,32.094,0v-3.208H45.1Z" transform="translate(19.091 -359.449)" fill="#3c966e"/><path d="M28.01,362.657a16.049,16.049,0,0,0,32.1,0v-3.208H28.01Z" transform="translate(-28.01 -359.449)" fill="#3c966e"/><path d="M113.465,359.449v3.208a16.047,16.047,0,1,0,32.094,0v-3.208Z" transform="translate(207.495 -359.449)" fill="#3c966e"/><path d="M79.283,362.657a16.047,16.047,0,1,0,32.094,0v-3.208H79.283Z" transform="translate(113.293 -359.449)" fill="#3c966e"/><path d="M96.374,362.657a16.047,16.047,0,1,0,32.094,0v-3.208H96.374Z" transform="translate(160.394 -359.449)" fill="#3c966e"/></g><path d="M72.889,344.067l-10.7,57.773h32.1l3.721-57.773Z" transform="translate(66.191 -344.067)" fill="#74d4a8"/><path d="M69.75,344.067,45.1,401.839H77.2L94.87,344.067Z" transform="translate(19.091 -344.067)" fill="#74d4a8"/><path d="M62.8,349.772,28.01,401.84h32.1l31.625-57.773H73.475A12.836,12.836,0,0,0,62.8,349.772Z" transform="translate(-28.01 -344.066)" fill="#74d4a8"/><path d="M105.044,344.067l31.628,57.773h32.094l-34.791-52.068a12.836,12.836,0,0,0-10.674-5.705Z" transform="translate(184.288 -344.066)" fill="#74d4a8"/><path d="M91.668,344.067l17.673,57.773h32.1l-24.65-57.773Z" transform="translate(147.425 -344.067)" fill="#74d4a8"/><path d="M78.292,344.067l3.721,57.773h32.1l-10.7-57.773Z" transform="translate(110.562 -344.067)" fill="#74d4a8"/></g><g transform="translate(97.016 326.976)"><path d="M6,0H209.042a6,6,0,0,1,6,6V64.192a0,0,0,0,1,0,0H0a0,0,0,0,1,0,0V6A6,6,0,0,1,6,0Z" fill="#3c966e"/><rect width="202.204" height="51.353" rx="4" transform="translate(6.419 6.419)" fill="#e6ebea"/><g transform="translate(20.553 18.901)"><path d="M64.407,338.749v3.5c0,4.308-2.081,6.656-6.314,6.656h-2v10.126H51.855V332.09h6.239C62.326,332.09,64.407,334.438,64.407,338.749Zm-8.316-2.809v9.123h2c1.345,0,2.077-.616,2.077-2.543v-4.041c0-1.927-.732-2.539-2.077-2.539Z" transform="translate(-51.855 -331.782)" fill="#555152"/><path d="M61.851,359.035H57.618V332.09h4.233v11.546h4.815V332.09h4.312v26.945H66.666V347.485H61.851Z" transform="translate(-35.973 -331.782)" fill="#555152"/><path d="M78.37,359.035H74.1l-.732-4.89h-5.2l-.729,4.89H63.545l4.312-26.945h6.2Zm-9.664-8.545h4.079l-2.039-13.626Z" transform="translate(-19.639 -331.782)" fill="#555152"/><path d="M78.715,359.035a8.324,8.324,0,0,1-.383-3.309v-4.237c0-2.5-.849-3.425-2.772-3.425H74.095v10.971H69.862V332.09h6.393c4.387,0,6.272,2.039,6.272,6.2v2.118c0,2.768-.886,4.578-2.772,5.465,2.118.886,2.809,2.926,2.809,5.735v4.158a7.989,7.989,0,0,0,.462,3.271Zm-4.62-23.1v8.274h1.656c1.577,0,2.543-.691,2.543-2.847v-2.655c0-1.927-.657-2.772-2.156-2.772Z" transform="translate(-2.23 -331.782)" fill="#555152"/><path d="M84.827,351.219l2.888-19.129H93.6v26.945h-4V339.711l-2.926,19.324h-4l-3.155-19.054v19.054h-3.7V332.09h5.889Z" transform="translate(14.19 -331.782)" fill="#555152"/><path d="M97.747,359.035H93.473l-.729-4.89h-5.2l-.732,4.89H82.926l4.312-26.945h6.2Zm-9.66-8.545h4.079l-2.043-13.626Z" transform="translate(33.773 -331.782)" fill="#555152"/><path d="M101.767,349.214v3.579c0,4.312-2.16,6.776-6.314,6.776s-6.314-2.464-6.314-6.776V338.784c0-4.312,2.156-6.776,6.314-6.776s6.314,2.464,6.314,6.776V341.4h-4v-2.884c0-1.923-.845-2.655-2.193-2.655s-2.2.732-2.2,2.655v14.55c0,1.927.849,2.618,2.2,2.618s2.193-.691,2.193-2.618v-3.85Z" transform="translate(50.899 -332.008)" fill="#555152"/><path d="M99.906,350.1,94.554,332.09h4.432l3.23,12.278,3.234-12.278h4.041L104.139,350.1v8.932H99.906Z" transform="translate(65.819 -331.782)" fill="#555152"/></g></g></g></svg>