<svg xmlns="http://www.w3.org/2000/svg" width="221" height="155.39" viewBox="0 0 221 155.39"><g transform="translate(-47.46 -24.187)"><g transform="translate(47.46 24.187)"><path d="M253.163,190.887H67.482c-18.361-16.525-24.761-45.594-16.411-68.842s31.581-40.35,56.26-41.417c11.9-.514,23.907,2.358,35.651.391,14.79-2.476,27.14-12.21,39.321-20.957s26.016-17.129,40.984-16.221c15.22.923,28.6,11.746,35.861,25.152s9.234,29.061,9.309,44.308C268.584,138.863,262.689,167.166,253.163,190.887Z" transform="translate(-47.46 -37.024)" fill="#f7dd8c"/><path d="M194.665,61.656c4.6-.9,9.217-2.154,13.139-4.712s7.093-6.6,7.643-11.25c.643-5.435-2.422-10.821-6.743-14.18s-9.733-4.985-15.1-6.045c-7.437-1.469-15.233-1.967-22.532.082s-14.058,6.94-17.021,13.918C142.295,67.155,179.708,64.574,194.665,61.656Z" transform="translate(-115.847 -24.187)" fill="#f7dd8c"/><circle cx="14.195" cy="14.195" r="14.195" transform="matrix(0.23, -0.973, 0.973, 0.23, 0.109, 46.629)" fill="#f7dd8c"/></g><g transform="translate(104.531 26.604)"><rect width="111.583" height="151.445" rx="17" transform="translate(0)" fill="#797c99"/><rect width="145.242" height="105.381" rx="8" transform="translate(108.482 3.101) rotate(90)" fill="#b1f4ff"/></g><g transform="translate(121.649 41.779)"><path d="M388.578,310.155a221.935,221.935,0,0,1,7.852,41.2c-15.936,6.243-35.7,2.852-48.526-8.481C362.536,333.908,376.37,322.217,388.578,310.155Z" transform="translate(-318.566 -229.209)" fill="#7dd3e9"/><path d="M390.649,317.784q-.968-3.833-2.072-7.629c-12.208,12.062-26.041,23.753-40.674,32.719a44.172,44.172,0,0,0,9.112,6.181C365.014,345.233,378.686,336.467,390.649,317.784Z" transform="translate(-318.566 -229.209)" fill="#5fa5cc"/><path d="M336.376,165.111c-7.417,10.56-34.937,35.681-68.157,35.6,1.036-11.5,2.1-23.7,3.14-35.461a29.347,29.347,0,0,1,5.111-14.121l.129-.186a29.368,29.368,0,0,0,3.964-25.247c-2.308-7.611-4.621-15.3-6.914-22.671a41.7,41.7,0,0,1-10.884-8.666A36.921,36.921,0,0,1,280.588,82.06a46.471,46.471,0,0,0,46.673,23.368c-1.666,6.822-3.045,13.645-4.482,20.467a29.355,29.355,0,0,0,6.011,24.662l.813.993a29.471,29.471,0,0,1,4.73,8.179Z" transform="translate(-262.765 -79.71)" fill="#7dd3e9"/><path d="M351.986,174.857c9.446,10.284,23.382,10.49,30.127,9.871a29.39,29.39,0,0,1-.856-15.292c1.437-6.823,2.816-13.646,4.482-20.467a46.616,46.616,0,0,1-15.021-.477l0,.006C365.544,159.392,355.083,171.414,351.986,174.857Z" transform="translate(-321.243 -123.251)" fill="#5fa5cc"/><path d="M395.236,134.539a35.148,35.148,0,0,1-32.335-9.695,128.428,128.428,0,0,0,25.507-49.6c1.836.769,3.83,1.417,5.666,2.185C399.6,99.064,395.236,134.539,395.236,134.539Z" transform="translate(-328.397 -75.241)" fill="#7dd3e9"/></g><path d="M333.254,56.5a.172.172,0,0,0-.172.172V61.59h-5.057V56.672a.172.172,0,1,0-.345,0V61.59h-5.057V56.672a.172.172,0,1,0-.345,0V61.59h-5.057V56.672a.172.172,0,1,0-.345,0V61.59H311.82V56.672a.172.172,0,1,0-.345,0V61.59h-5.057V56.672a.172.172,0,1,0-.345,0V61.59h-5.057V56.672a.172.172,0,1,0-.345,0V61.59h-5.057V56.672a.172.172,0,1,0-.345,0V61.59h-5.057V56.672a.172.172,0,0,0-.345,0V61.59h-5.057V56.672a.172.172,0,1,0-.345,0V61.59h-5.057V56.672a.172.172,0,1,0-.345,0V61.59H274.01V56.672a.172.172,0,0,0-.345,0V61.59h-5.057V56.672a.172.172,0,1,0-.345,0V61.59h-5.057V56.672a.172.172,0,1,0-.345,0V61.59h-5.057V56.672a.172.172,0,1,0-.345,0V61.59H252.4V56.672a.172.172,0,0,0-.345,0V61.59H247V56.672a.172.172,0,1,0-.345,0V61.59H241.6V56.672a.172.172,0,1,0-.345,0v133.5a.172.172,0,1,0,.345,0v-4.547h5.057v4.547a.172.172,0,0,0,.345,0v-4.547h5.057v4.547a.172.172,0,0,0,.345,0v-4.547h5.057v4.547a.172.172,0,1,0,.345,0v-4.547h5.057v4.547a.172.172,0,1,0,.345,0v-4.547h5.057v4.547a.172.172,0,1,0,.345,0v-4.547h5.057v4.547a.172.172,0,0,0,.345,0v-4.547h5.057v4.547a.172.172,0,1,0,.345,0v-4.547h5.057v4.547a.172.172,0,1,0,.345,0v-4.547h5.057v4.547a.172.172,0,0,0,.345,0v-4.547h5.057v4.547a.172.172,0,1,0,.345,0v-4.547h5.057v4.547a.172.172,0,1,0,.345,0v-4.547h5.057v4.547a.172.172,0,1,0,.345,0v-4.547h5.057v4.547a.172.172,0,1,0,.345,0v-4.547h5.057v4.547a.172.172,0,1,0,.345,0v-4.547h5.057v4.547a.172.172,0,1,0,.345,0v-4.547h5.057v4.547a.172.172,0,1,0,.345,0v-4.547h5.057v4.547a.172.172,0,0,0,.345,0V56.672A.172.172,0,0,0,333.254,56.5Zm-48.441,69.907v-5.057h5.057v5.057Zm5.057.345v5.057h-5.057v-5.057Zm-5.057-5.746v-5.057h5.057v5.057Zm0-5.4v-5.057h5.057V115.6Zm-.345,0h-5.057v-5.057h5.057Zm0,.345v5.057h-5.057v-5.057Zm0,5.4v5.057h-5.057v-5.057Zm0,5.4v5.057h-5.057v-5.057Zm0,5.4v5.057h-5.057v-5.057Zm.345,0h5.057v5.057h-5.057Zm5.4,0h5.057v5.057h-5.057Zm0-.345v-5.057h5.057v5.057Zm0-5.4v-5.057h5.057v5.057Zm0-5.4v-5.057h5.057v5.057Zm0-5.4v-5.057h5.057V115.6Zm0-5.4v-5.057h5.057V110.2Zm-.345,0h-5.057v-5.057h5.057Zm-5.4,0h-5.057v-5.057h5.057Zm-5.4,0H274.01v-5.057h5.057Zm0,.345V115.6H274.01v-5.057Zm0,5.4v5.057H274.01v-5.057Zm0,5.4v5.057H274.01v-5.057Zm0,5.4v5.057H274.01v-5.057Zm0,5.4v5.057H274.01v-5.057Zm0,5.4v5.057H274.01v-5.057Zm.345,0h5.057v5.057h-5.057Zm5.4,0h5.057v5.057h-5.057Zm5.4,0h5.057v5.057h-5.057Zm5.4,0h5.057v5.057h-5.057Zm0-.345v-5.057h5.057v5.057Zm0-5.4v-5.057h5.057v5.057Zm0-5.4v-5.057h5.057v5.057Zm0-5.4v-5.057h5.057v5.057Zm0-5.4v-5.057h5.057V115.6Zm0-5.4v-5.057h5.057V110.2Zm0-5.4V99.745h5.057V104.8Zm-.345,0h-5.057V99.745h5.057Zm-5.4,0h-5.057V99.745h5.057Zm-5.4,0h-5.057V99.745h5.057Zm-5.4,0H274.01V99.745h5.057Zm-5.4,0h-5.057V99.745h5.057Zm0,.345V110.2h-5.057v-5.057Zm0,5.4V115.6h-5.057v-5.057Zm0,5.4v5.057h-5.057v-5.057Zm0,5.4v5.057h-5.057v-5.057Zm0,5.4v5.057h-5.057v-5.057Zm0,5.4v5.057h-5.057v-5.057Zm0,5.4v5.057h-5.057v-5.057Zm0,5.4v5.057h-5.057v-5.057Zm.345,0h5.057v5.057H274.01Zm5.4,0h5.057v5.057h-5.057Zm5.4,0h5.057v5.057h-5.057Zm5.4,0h5.057v5.057h-5.057Zm5.4,0h5.057v5.057h-5.057Zm5.4,0h5.057v5.057h-5.057Zm0-.345v-5.057h5.057v5.057Zm0-5.4v-5.057h5.057v5.057Zm0-5.4v-5.057h5.057v5.057Zm0-5.4v-5.057h5.057v5.057Zm0-5.4v-5.057h5.057v5.057Zm0-5.4v-5.057h5.057V115.6Zm0-5.4v-5.057h5.057V110.2Zm0-5.4V99.745h5.057V104.8Zm0-5.4V94.343h5.057V99.4Zm-.345,0h-5.057V94.343h5.057Zm-5.4,0h-5.057V94.343h5.057Zm-5.4,0h-5.057V94.343h5.057Zm-5.4,0h-5.057V94.343h5.057Zm-5.4,0H274.01V94.343h5.057Zm-5.4,0h-5.057V94.343h5.057Zm-5.4,0h-5.057V94.343h5.057Zm0,.345V104.8h-5.057V99.745Zm0,5.4V110.2h-5.057v-5.057Zm0,5.4V115.6h-5.057v-5.057Zm0,5.4v5.057h-5.057v-5.057Zm0,5.4v5.057h-5.057v-5.057Zm0,5.4v5.057h-5.057v-5.057Zm0,5.4v5.057h-5.057v-5.057Zm0,5.4v5.057h-5.057v-5.057Zm0,5.4v5.057h-5.057v-5.057Zm0,5.4v5.057h-5.057v-5.057Zm.345,0h5.057v5.057h-5.057Zm5.4,0h5.057v5.057H274.01Zm5.4,0h5.057v5.057h-5.057Zm5.4,0h5.057v5.057h-5.057Zm5.4,0h5.057v5.057h-5.057Zm5.4,0h5.057v5.057h-5.057Zm5.4,0h5.057v5.057h-5.057Zm5.4,0h5.057v5.057h-5.057Zm0-.345v-5.057h5.057v5.057Zm0-5.4v-5.057h5.057v5.057Zm0-5.4v-5.057h5.057v5.057Zm0-5.4v-5.057h5.057v5.057Zm0-5.4v-5.057h5.057v5.057Zm0-5.4v-5.057h5.057v5.057Zm0-5.4v-5.057h5.057V115.6Zm0-5.4v-5.057h5.057V110.2Zm0-5.4V99.745h5.057V104.8Zm0-5.4V94.343h5.057V99.4Zm0-5.4V88.942h5.057V94Zm-.345,0h-5.057V88.942h5.057Zm-5.4,0h-5.057V88.942h5.057Zm-5.4,0h-5.057V88.942h5.057Zm-5.4,0h-5.057V88.942h5.057Zm-5.4,0h-5.057V88.942h5.057Zm-5.4,0H274.01V88.942h5.057Zm-5.4,0h-5.057V88.942h5.057Zm-5.4,0h-5.057V88.942h5.057Zm-5.4,0h-5.057V88.942h5.057Zm0,.345V99.4h-5.057V94.343Zm0,5.4V104.8h-5.057V99.745Zm0,5.4V110.2h-5.057v-5.057Zm0,5.4V115.6h-5.057v-5.057Zm0,5.4v5.057h-5.057v-5.057Zm0,5.4v5.057h-5.057v-5.057Zm0,5.4v5.057h-5.057v-5.057Zm0,5.4v5.057h-5.057v-5.057Zm0,5.4v5.057h-5.057v-5.057Zm0,5.4v5.057h-5.057v-5.057Zm0,5.4v5.057h-5.057v-5.057Zm0,5.4v5.158h-5.057v-5.158Zm.345,0h5.057v5.158h-5.057Zm5.4,0h5.057v5.158h-5.057Zm5.4,0h5.057v5.158H274.01Zm5.4,0h5.057v5.158h-5.057Zm5.4,0h5.057v5.158h-5.057Zm5.4,0h5.057v5.158h-5.057Zm5.4,0h5.057v5.158h-5.057Zm5.4,0h5.057v5.158h-5.057Zm5.4,0h5.057v5.158h-5.057Zm5.4,0h5.057v5.158H311.82Zm0-.345v-5.057h5.057v5.057Zm0-5.4v-5.057h5.057v5.057Zm0-5.4v-5.057h5.057v5.057Zm0-5.4v-5.057h5.057v5.057Zm0-5.4v-5.057h5.057v5.057Zm0-5.4v-5.057h5.057v5.057Zm0-5.4v-5.057h5.057v5.057Zm0-5.4v-5.057h5.057V115.6Zm0-5.4v-5.057h5.057V110.2Zm0-5.4V99.745h5.057V104.8Zm0-5.4V94.343h5.057V99.4Zm0-5.4V88.942h5.057V94Zm0-5.4V83.54h5.057V88.6Zm-.345,0h-5.057V83.54h5.057Zm-5.4,0h-5.057V83.54h5.057Zm-5.4,0h-5.057V83.54h5.057Zm-5.4,0h-5.057V83.54h5.057Zm-5.4,0h-5.057V83.54h5.057Zm-5.4,0h-5.057V83.54h5.057Zm-5.4,0H274.01V83.54h5.057Zm-5.4,0h-5.057V83.54h5.057Zm-5.4,0h-5.057V83.54h5.057Zm-5.4,0h-5.057V83.54h5.057Zm-5.4,0H252.4V83.54h5.057Zm0,.345V94H252.4V88.942Zm0,5.4V99.4H252.4V94.343Zm0,5.4V104.8H252.4V99.745Zm0,5.4V110.2H252.4v-5.057Zm0,5.4V115.6H252.4v-5.057Zm0,5.4v5.057H252.4v-5.057Zm0,5.4v5.057H252.4v-5.057Zm0,5.4v5.057H252.4v-5.057Zm0,5.4v5.057H252.4v-5.057Zm0,5.4v5.057H252.4v-5.057Zm0,5.4v5.057H252.4v-5.057Zm0,5.4v5.057H252.4v-5.057Zm0,5.4v5.158H252.4v-5.158Zm0,5.5v5.057H252.4v-5.057Zm.345,0h5.057v5.057h-5.057Zm5.4,0h5.057v5.057h-5.057Zm5.4,0h5.057v5.057h-5.057Zm5.4,0h5.057v5.057H274.01Zm5.4,0h5.057v5.057h-5.057Zm5.4,0h5.057v5.057h-5.057Zm5.4,0h5.057v5.057h-5.057Zm5.4,0h5.057v5.057h-5.057Zm5.4,0h5.057v5.057h-5.057Zm5.4,0h5.057v5.057h-5.057Zm5.4,0h5.057v5.057H311.82Zm5.4,0h5.057v5.057h-5.057Zm0-.345v-5.158h5.057v5.158Zm0-5.5v-5.057h5.057v5.057Zm0-5.4v-5.057h5.057v5.057Zm0-5.4v-5.057h5.057v5.057Zm0-5.4v-5.057h5.057v5.057Zm0-5.4v-5.057h5.057v5.057Zm0-5.4v-5.057h5.057v5.057Zm0-5.4v-5.057h5.057v5.057Zm0-5.4v-5.057h5.057V115.6Zm0-5.4v-5.057h5.057V110.2Zm0-5.4V99.745h5.057V104.8Zm0-5.4V94.343h5.057V99.4Zm0-5.4V88.942h5.057V94Zm0-5.4V83.54h5.057V88.6Zm0-5.4V78.139h5.057V83.2Zm-.345,0H311.82V78.139h5.057Zm-5.4,0h-5.057V78.139h5.057Zm-5.4,0h-5.057V78.139h5.057Zm-5.4,0h-5.057V78.139h5.057Zm-5.4,0h-5.057V78.139h5.057Zm-5.4,0h-5.057V78.139h5.057Zm-5.4,0h-5.057V78.139h5.057Zm-5.4,0H274.01V78.139h5.057Zm-5.4,0h-5.057V78.139h5.057Zm-5.4,0h-5.057V78.139h5.057Zm-5.4,0h-5.057V78.139h5.057Zm-5.4,0H252.4V78.139h5.057Zm-5.4,0H247V78.139h5.057Zm0,.345V88.6H247V83.54Zm0,5.4V94H247V88.942Zm0,5.4V99.4H247V94.343Zm0,5.4V104.8H247V99.745Zm0,5.4V110.2H247v-5.057Zm0,5.4V115.6H247v-5.057Zm0,5.4v5.057H247v-5.057Zm0,5.4v5.057H247v-5.057Zm0,5.4v5.057H247v-5.057Zm0,5.4v5.057H247v-5.057Zm0,5.4v5.057H247v-5.057Zm0,5.4v5.057H247v-5.057Zm0,5.4v5.057H247v-5.057Zm0,5.4v5.158H247v-5.158Zm0,5.5v5.057H247v-5.057Zm0,5.4v5.057H247v-5.057Zm.345,0h5.057v5.057H252.4Zm5.4,0h5.057v5.057h-5.057Zm5.4,0h5.057v5.057h-5.057Zm5.4,0h5.057v5.057h-5.057Zm5.4,0h5.057v5.057H274.01Zm5.4,0h5.057v5.057h-5.057Zm5.4,0h5.057v5.057h-5.057Zm5.4,0h5.057v5.057h-5.057Zm5.4,0h5.057v5.057h-5.057Zm5.4,0h5.057v5.057h-5.057Zm5.4,0h5.057v5.057h-5.057Zm5.4,0h5.057v5.057H311.82Zm5.4,0h5.057v5.057h-5.057Zm5.4,0h5.057v5.057h-5.057Zm0-.345v-5.057h5.057v5.057Zm0-5.4v-5.158h5.057v5.158Zm0-5.5v-5.057h5.057v5.057Zm0-5.4v-5.057h5.057v5.057Zm0-5.4v-5.057h5.057v5.057Zm0-5.4v-5.057h5.057v5.057Zm0-5.4v-5.057h5.057v5.057Zm0-5.4v-5.057h5.057v5.057Zm0-5.4v-5.057h5.057v5.057Zm0-5.4v-5.057h5.057V115.6Zm0-5.4v-5.057h5.057V110.2Zm0-5.4V99.745h5.057V104.8Zm0-5.4V94.343h5.057V99.4Zm0-5.4V88.942h5.057V94Zm0-5.4V83.54h5.057V88.6Zm0-5.4V78.139h5.057V83.2Zm0-5.4V72.737h5.057v5.057Zm-.345,0h-5.057V72.737h5.057Zm-5.4,0H311.82V72.737h5.057Zm-5.4,0h-5.057V72.737h5.057Zm-5.4,0h-5.057V72.737h5.057Zm-5.4,0h-5.057V72.737h5.057Zm-5.4,0h-5.057V72.737h5.057Zm-5.4,0h-5.057V72.737h5.057Zm-5.4,0h-5.057V72.737h5.057Zm-5.4,0H274.01V72.737h5.057Zm-5.4,0h-5.057V72.737h5.057Zm-5.4,0h-5.057V72.737h5.057Zm-5.4,0h-5.057V72.737h5.057Zm-5.4,0H252.4V72.737h5.057Zm-5.4,0H247V72.737h5.057Zm-5.4,0H241.6V72.737h5.057Zm0,.345V83.2H241.6V78.139Zm0,5.4V88.6H241.6V83.54Zm0,5.4V94H241.6V88.942Zm0,5.4V99.4H241.6V94.343Zm0,5.4V104.8H241.6V99.745Zm0,5.4V110.2H241.6v-5.057Zm0,5.4V115.6H241.6v-5.057Zm0,5.4v5.057H241.6v-5.057Zm0,5.4v5.057H241.6v-5.057Zm0,5.4v5.057H241.6v-5.057Zm0,5.4v5.057H241.6v-5.057Zm0,5.4v5.057H241.6v-5.057Zm0,5.4v5.057H241.6v-5.057Zm0,5.4v5.057H241.6v-5.057Zm0,5.4v5.158H241.6v-5.158Zm0,5.5v5.057H241.6v-5.057Zm0,5.4v5.057H241.6v-5.057Zm0,5.4v5.057H241.6v-5.057Zm.345,0h5.057v5.057H247Zm5.4,0h5.057v5.057H252.4Zm5.4,0h5.057v5.057h-5.057Zm5.4,0h5.057v5.057h-5.057Zm5.4,0h5.057v5.057h-5.057Zm5.4,0h5.057v5.057H274.01Zm5.4,0h5.057v5.057h-5.057Zm5.4,0h5.057v5.057h-5.057Zm5.4,0h5.057v5.057h-5.057Zm5.4,0h5.057v5.057h-5.057Zm5.4,0h5.057v5.057h-5.057Zm5.4,0h5.057v5.057h-5.057Zm5.4,0h5.057v5.057H311.82Zm5.4,0h5.057v5.057h-5.057Zm5.4,0h5.057v5.057h-5.057Zm5.4,0h5.057v5.057h-5.057Zm0-.345v-5.057h5.057v5.057Zm0-5.4v-5.057h5.057v5.057Zm0-5.4v-5.158h5.057v5.158Zm0-5.5v-5.057h5.057v5.057Zm0-5.4v-5.057h5.057v5.057Zm0-5.4v-5.057h5.057v5.057Zm0-5.4v-5.057h5.057v5.057Zm0-5.4v-5.057h5.057v5.057Zm0-5.4v-5.057h5.057v5.057Zm0-5.4v-5.057h5.057v5.057Zm0-5.4v-5.057h5.057V115.6Zm0-5.4v-5.057h5.057V110.2Zm0-5.4V99.745h5.057V104.8Zm0-5.4V94.343h5.057V99.4Zm0-5.4V88.942h5.057V94Zm0-5.4V83.54h5.057V88.6Zm0-5.4V78.139h5.057V83.2Zm0-5.4V72.737h5.057v5.057Zm0-5.4V67.336h5.057v5.057Zm-.345,0h-5.057V67.336h5.057Zm-5.4,0h-5.057V67.336h5.057Zm-5.4,0H311.82V67.336h5.057Zm-5.4,0h-5.057V67.336h5.057Zm-5.4,0h-5.057V67.336h5.057Zm-5.4,0h-5.057V67.336h5.057Zm-5.4,0h-5.057V67.336h5.057Zm-5.4,0h-5.057V67.336h5.057Zm-5.4,0h-5.057V67.336h5.057Zm-5.4,0H274.01V67.336h5.057Zm-5.4,0h-5.057V67.336h5.057Zm-5.4,0h-5.057V67.336h5.057Zm-5.4,0h-5.057V67.336h5.057Zm-5.4,0H252.4V67.336h5.057Zm-5.4,0H247V67.336h5.057Zm-5.4,0H241.6V67.336h5.057ZM241.6,175.467h5.057v5.057H241.6Zm5.4,0h5.057v5.057H247Zm5.4,0h5.057v5.057H252.4Zm5.4,0h5.057v5.057h-5.057Zm5.4,0h5.057v5.057h-5.057Zm5.4,0h5.057v5.057h-5.057Zm5.4,0h5.057v5.057H274.01Zm5.4,0h5.057v5.057h-5.057Zm5.4,0h5.057v5.057h-5.057Zm5.4,0h5.057v5.057h-5.057Zm5.4,0h5.057v5.057h-5.057Zm5.4,0h5.057v5.057h-5.057Zm5.4,0h5.057v5.057h-5.057Zm5.4,0h5.057v5.057H311.82Zm5.4,0h5.057v5.057h-5.057Zm5.4,0h5.057v5.057h-5.057Zm5.4,0h5.057v5.057h-5.057Zm5.057-113.532v5.057h-5.057V61.934Zm-5.4,0v5.057h-5.057V61.934Zm-5.4,0v5.057h-5.057V61.934Zm-5.4,0v5.057H311.82V61.934Zm-5.4,0v5.057h-5.057V61.934Zm-5.4,0v5.057h-5.057V61.934Zm-5.4,0v5.057h-5.057V61.934Zm-5.4,0v5.057h-5.057V61.934Zm-5.4,0v5.057h-5.057V61.934Zm-5.4,0v5.057h-5.057V61.934Zm-5.4,0v5.057H274.01V61.934Zm-5.4,0v5.057h-5.057V61.934Zm-5.4,0v5.057h-5.057V61.934Zm-5.4,0v5.057h-5.057V61.934Zm-5.4,0v5.057H252.4V61.934Zm-5.4,0v5.057H247V61.934Zm-5.4,0v5.057H241.6V61.934ZM241.6,185.283v-4.415h5.057v4.415Zm5.4,0v-4.415h5.057v4.415Zm5.4,0v-4.415h5.057v4.415Zm5.4,0v-4.415h5.057v4.415Zm5.4,0v-4.415h5.057v4.415Zm5.4,0v-4.415h5.057v4.415Zm5.4,0v-4.415h5.057v4.415Zm5.4,0v-4.415h5.057v4.415Zm5.4,0v-4.415h5.057v4.415Zm5.4,0v-4.415h5.057v4.415Zm5.4,0v-4.415h5.057v4.415Zm5.4,0v-4.415h5.057v4.415Zm5.4,0v-4.415h5.057v4.415Zm5.4,0v-4.415h5.057v4.415Zm5.4,0v-4.415h5.057v4.415Zm5.4,0v-4.415h5.057v4.415Zm5.4,0v-4.415h5.057v4.415Z" transform="translate(-127.019 -21.179)" fill="#fff" opacity="0.4"/><g transform="translate(188.119 40.271)"><g transform="translate(32.46 7.53)"><rect width="7.088" height="96.789" transform="matrix(0.995, 0.102, -0.102, 0.995, 9.912, 11.894)" fill="#eba25d"/><rect width="3.674" height="96.789" transform="translate(11.611 12.068) rotate(5.878)" fill="#f0bf6c"/><g transform="translate(9.912)"><path d="M589.523,92.718l-1.582,3.931,2.331.24Z" transform="translate(-584.735 -92.718)" fill="#eba25d"/><path d="M581.844,104.127l-3.205,7.962,7.051.726-1.516-8.448Z" transform="translate(-578.639 -100.195)" fill="#f1c59a"/></g></g><g transform="translate(26.642 7.858)"><rect width="7.088" height="96.789" transform="matrix(0.999, -0.044, 0.044, 0.999, 0, 12.466)" fill="#7161c4"/><rect width="3.674" height="96.789" transform="translate(1.706 12.39) rotate(-2.531)" fill="#9684f5"/><path d="M539.8,93.668l-.991,4.12,2.341-.1Z" transform="translate(-536.803 -93.668)" fill="#7161c4"/><path d="M534.993,105.429l-2.006,8.345,7.082-.313-2.735-8.136Z" transform="translate(-532.987 -101.309)" fill="#f1c59a"/></g><g transform="translate(19.516 13.876)"><rect width="7.089" height="96.789" transform="matrix(0.894, 0.449, -0.449, 0.894, 43.428, 9.421)" fill="#52969e"/><rect width="3.674" height="96.789" transform="matrix(0.894, 0.449, -0.449, 0.894, 44.954, 10.187)" fill="#62b29a"/><g transform="translate(43.428)"><path d="M658.107,111.135l-2.874,3.114,2.094,1.051Z" transform="translate(-649.411 -111.135)" fill="#52969e"/><path d="M644.16,120.172l-5.822,6.307,6.335,3.18,1.581-8.436Z" transform="translate(-638.338 -117.058)" fill="#f1c59a"/></g></g><g transform="translate(37.027 0)"><rect width="7.088" height="96.789" transform="translate(16.45 11.54) rotate(9.785)" fill="#e68799"/><rect width="3.674" height="96.789" transform="translate(18.132 11.83) rotate(9.785)" fill="#eba7ac"/><g transform="translate(16.45)"><path d="M623.563,70.864l-1.847,3.814,2.309.4Z" transform="translate(-617.977 -70.864)" fill="#e68799"/><path d="M614.6,81.934l-3.74,7.725,6.985,1.2-.936-8.532Z" transform="translate(-610.862 -78.119)" fill="#f1c59a"/></g></g><g transform="translate(0 49.864)"><path d="M514.774,305.786H473.349l-8.416-82.824H523.19Z" transform="translate(-461.741 -220.417)" fill="#797c99"/><path d="M578.271,222.962l-3.538,82.824h6.289l6.093-82.824Z" transform="translate(-533.706 -220.417)" fill="#99a3b0"/><path d="M519.28,215.576H456.941a1.273,1.273,0,0,0-1.273,1.273h0a1.273,1.273,0,0,0,1.273,1.273H519.28a1.272,1.272,0,0,0,1.273-1.273h0A1.273,1.273,0,0,0,519.28,215.576Z" transform="translate(-455.668 -215.576)" fill="#495375"/><path d="M527.311,463.326H482.775A1.273,1.273,0,0,0,481.5,464.6h0a1.272,1.272,0,0,0,1.272,1.273h44.536a1.273,1.273,0,0,0,1.273-1.273h0A1.273,1.273,0,0,0,527.311,463.326Z" transform="translate(-472.601 -377.957)" fill="#495375"/></g></g><g transform="translate(75.574 90.34)"><rect width="43.341" height="59.079" rx="15" transform="translate(1.206 14.315)" fill="#6c6fc3"/><g transform="translate(0.676)"><path d="M131.013,227.17h0a4.731,4.731,0,0,0,2.018,3.875l9.5,6.649h21.364l9.5-6.649a4.731,4.731,0,0,0,2.018-3.875h-44.4Z" transform="translate(-131.013 -223.38)" fill="#a64f5a"/><path d="M3,0H41.4a3,3,0,0,1,3,3v.79a0,0,0,0,1,0,0H0a0,0,0,0,1,0,0V3A3,3,0,0,1,3,0Z" fill="#bd6c67"/><path d="M157.688,252.988h21.364l3.55-2.485H154.137Z" transform="translate(-146.169 -238.672)" fill="#8c404c"/></g><g transform="translate(0.676 73.394)"><path d="M175.413,439.693h0a4.731,4.731,0,0,0-2.018-3.875l-9.5-6.649H142.531l-9.5,6.649a4.731,4.731,0,0,0-2.018,3.875h44.4Z" transform="translate(-131.013 -429.168)" fill="#a64f5a"/><path d="M3,0H41.4a3,3,0,0,1,3,3v.79a0,0,0,0,1,0,0H0a0,0,0,0,1,0,0V3A3,3,0,0,1,3,0Z" transform="translate(44.401 14.315) rotate(180)" fill="#bd6c67"/><path d="M179.051,429.168H157.688l-3.55,2.485H182.6Z" transform="translate(-146.169 -429.168)" fill="#8c404c"/></g><g transform="translate(0 26.297)"><path d="M130.255,302.918a1.206,1.206,0,0,1-.218-2.392l43.34-8.019a1.206,1.206,0,1,1,.439,2.371l-43.34,8.02A1.208,1.208,0,0,1,130.255,302.918Z" transform="translate(-129.05 -292.487)" fill="#878dd8"/></g><g transform="translate(0 42.335)"><path d="M130.255,349.464a1.206,1.206,0,0,1-.218-2.392l43.34-8.02a1.206,1.206,0,1,1,.439,2.372l-43.34,8.02A1.21,1.21,0,0,1,130.255,349.464Z" transform="translate(-129.05 -339.032)" fill="#878dd8"/></g><g transform="translate(0 58.375)"><path d="M130.255,396.012a1.206,1.206,0,0,1-.218-2.392l43.34-8.02a1.206,1.206,0,0,1,.439,2.372l-43.34,8.02A1.21,1.21,0,0,1,130.255,396.012Z" transform="translate(-129.05 -385.579)" fill="#878dd8"/></g><g transform="translate(0 18.278)"><path d="M173.6,279.645a1.208,1.208,0,0,1-.221-.021l-43.34-8.019a1.206,1.206,0,1,1,.439-2.371l43.34,8.019a1.206,1.206,0,0,1-.218,2.392Z" transform="translate(-129.05 -269.214)" fill="#878dd8"/></g><g transform="translate(0 34.316)"><path d="M173.6,326.191a1.205,1.205,0,0,1-.221-.021l-43.34-8.019a1.206,1.206,0,1,1,.439-2.372l43.34,8.019a1.206,1.206,0,0,1-.218,2.392Z" transform="translate(-129.05 -315.759)" fill="#878dd8"/></g><g transform="translate(0 50.355)"><path d="M173.6,372.738a1.205,1.205,0,0,1-.221-.021l-43.34-8.019a1.206,1.206,0,1,1,.439-2.372l43.34,8.019a1.206,1.206,0,0,1-.218,2.392Z" transform="translate(-129.05 -362.306)" fill="#878dd8"/></g></g><g transform="translate(155.384 41.572)"><path d="M373.079,235.474c1.219-8.778,2.479-17.855-.668-26.189-.265-.7-.565-1.409-.854-2.093-.992-2.343-1.93-4.556-1.745-6.892a14.85,14.85,0,0,1,1.313-4.407,28.017,28.017,0,0,0,1.008-2.716c1.331-4.517.3-9.361-.765-13.547a173.608,173.608,0,0,0-8.68-25.5h-1.5a172.238,172.238,0,0,1,8.847,25.842c1.023,4.008,2.011,8.635.778,12.817a27.1,27.1,0,0,1-.961,2.582,16.117,16.117,0,0,0-1.413,4.823c-.211,2.672.837,5.145,1.851,7.538.284.671.578,1.365.833,2.041,3.023,8.006,1.787,16.906.592,25.513-1.177,8.481-2.4,17.252.338,25.395l1.307-.439C370.729,252.405,371.924,243.8,373.079,235.474Z" transform="translate(-361.007 -126.74)" fill="#f3cb4e"/><g transform="translate(16.224 64.144)"><g transform="translate(0 49.274)"><g transform="translate(0 0)"><path d="M437.948,403.8h-8.959v16.08l-2.13,2.018a4.741,4.741,0,0,1-.373.315,7.09,7.09,0,0,1,1.4,2.176h8.241a12.683,12.683,0,0,0-1.625-3.819Z" transform="translate(-420.03 -403.796)" fill="#f0bf9c"/><path d="M414.206,457.231a4.724,4.724,0,0,1-2.335.949h0a4.726,4.726,0,0,0-3.906,3.1l-.215.6h16.5l-.15-1.136a12.608,12.608,0,0,0-.25-1.334h-8.241A7.09,7.09,0,0,0,414.206,457.231Z" transform="translate(-407.75 -438.819)" fill="#984058"/></g><path d="M433.75,403.8h8.959l-.43,2.091H433.75Z" transform="translate(-424.791 -403.796)" fill="#422c4f"/></g><g transform="translate(40.172 42.009)"><path d="M539.036,408.006c1.365-1.405,2.412-6.312,2.861-8.744a10.4,10.4,0,0,0-2.517-1.044l-6.461-15.506-8.586,4.968,11.142,14.7-.5,2.659a7.2,7.2,0,0,1-1.134,2.726A10.7,10.7,0,0,1,539.036,408.006Z" transform="translate(-524.333 -382.712)" fill="#f0bf9c"/><path d="M554.3,430.743c-.449,2.432-1.5,7.338-2.861,8.744a10.7,10.7,0,0,0-5.2-.239,7.177,7.177,0,0,1-.9,1.081,7.208,7.208,0,0,0-2.086,4.144l-.006.043h4.167a7.45,7.45,0,0,0,7.2-5.544l1.725-6.516A7.208,7.208,0,0,0,554.3,430.743Z" transform="translate(-536.732 -414.193)" fill="#984058"/><path d="M534.023,385.36a11.365,11.365,0,0,1-7.283,5.5l-2.407-3.177,8.586-4.968Z" transform="translate(-524.333 -382.712)" fill="#422c4f"/></g><g transform="translate(7.208)"><path d="M434.065,260.8l-4.149,26.863a27.054,27.054,0,0,0-.284,2.8l-.964,19.612H441.3c1.953-5.743,0-17.918,0-17.918l5.054-18.607,3.175,16.305A27.04,27.04,0,0,0,453.789,300l6.923,10.07c6.2-.919,9.533-5.628,11.141-7.351-2.182-4.824-10.452-10.337-10.452-10.337-.115-12.06,2.7-21.794.2-29.978Z" transform="translate(-428.667 -260.796)" fill="#984058"/><path d="M471.465,264.787a21.358,21.358,0,0,0-.576-2.383L443.352,260.8l-.516,3.34C450.749,269.36,466.143,268.742,471.465,264.787Z" transform="translate(-437.954 -260.796)" fill="#422c4f"/><path d="M464.925,290.7s-5.255-1.063-7.925-3.733c.948,4.049,6.333,4.91,6.333,4.91l-.269.625a31.045,31.045,0,0,0-2.516,13.273l.03.931Z" transform="translate(-447.237 -277.946)" fill="#422c4f"/><path d="M480,292.661l9.217-2.7C484.566,294.442,481.9,294.154,480,292.661Z" transform="translate(-462.312 -279.912)" fill="#422c4f"/></g></g><path d="M480.239,104.991c-2.621-6.029-5.3-12.362-4.8-18.917a14.642,14.642,0,0,1,2.424-7.336,9.427,9.427,0,0,1,6.421-4.049,6.994,6.994,0,0,1,6.726,3.085,6.725,6.725,0,0,1,6.057,4.232,13.347,13.347,0,0,1,.421,7.984c-.562,2.649-1.575,5.178-2.336,7.777a17.672,17.672,0,0,0-.794,8.011c.764,4.265,4,8.16,3.264,12.43a7.159,7.159,0,0,1-5.8,5.7,8.51,8.51,0,0,1-7.264-2.758,14.032,14.032,0,0,1-3.357-7.226C480.724,111.274,481.313,107.461,480.239,104.991Z" transform="translate(-435.852 -74.642)" fill="#422c4f"/><g transform="translate(0 23.312)"><path d="M392.952,145.163l-9.946,6.322-9.9-7.73a6.893,6.893,0,0,0-4.24-1.459h-4.383a1.724,1.724,0,0,0-1.4.717l-2.413,3.36h0a2.006,2.006,0,0,0,2.486-.508l1.075-1.316,2.093.21a1.022,1.022,0,0,1,.921,1.018h0a1.023,1.023,0,0,1-.612.937l-2.464,1.08a.866.866,0,0,0-.461,1.1h0a.866.866,0,0,0,.991.538l3.5-.749,2.627-2.326,9.319,9.7a3.986,3.986,0,0,0,4.712.775l10.391-5.4-.431-1.838Z" transform="translate(-360.667 -142.296)" fill="#f0bf9c"/><path d="M448.053,150.616l1.856,4.426.431,1.838-5.6,2.913.759-2.777a4.93,4.93,0,0,1,2.07-2.834l.665-.432Z" transform="translate(-415.768 -147.749)" fill="#422c4f"/></g><g transform="translate(27.336 24.015)"><path d="M456.023,145.039a23.633,23.633,0,0,0-5.886-.689,17.577,17.577,0,0,0-5.571,1.235l2.24,5.341-3.7,6.265a6.344,6.344,0,0,0-.014,6.431h0a6.346,6.346,0,0,1,.861,2.9l.3,6.442a12.981,12.981,0,0,1-1,5.654l-3.25,7.71c13.525,7.15,27.48,2.5,29.806.6-1.551-6.461-4.91-8.27-4.91-14.3s1.981-9.878,2.958-12.749l.919.46.836-1.9a7,7,0,0,0-1.587-7.889l-2.752-2.614Z" transform="translate(-440 -144.335)" fill="#fff"/><path d="M460.564,192.523,474.4,177.869l-7.552-5.657L452.92,186.134l-1.773.294.227,4.811a12.979,12.979,0,0,1-.511,4.267l3.2-.08A9.264,9.264,0,0,0,460.564,192.523Z" transform="translate(-447.12 -162.606)" fill="#e4e4e0"/><path d="M458.385,156.5l2.164-3.663-2.882,1.952Z" transform="translate(-451.58 -149.905)" fill="#e4e4e0"/></g><g transform="translate(43.359 17.799)"><path d="M490.861,128.593l-1.089,4.968-3.272-.345.287,6.92c3.389-3.158,8.959-4.02,8.959-4.02l-1.608-1.752,2.125-8.069Z" transform="translate(-486.5 -126.296)" fill="#f0bf9c"/><path d="M497.205,131.875c2.916-.309,5.3-3.6,5.807-5.249l-5.135,2.183Z" transform="translate(-493.516 -126.512)" fill="#e78882"/></g><g transform="translate(41.515 7.577)"><path d="M482.153,98.767a18.561,18.561,0,0,0-.975,6.278,6.293,6.293,0,0,0,3.116,5.249,6,6,0,0,0,5.177-.2,13.243,13.243,0,0,0,4.088-3.414c-.5-.14-.511-.854-.564-1.367a6.75,6.75,0,0,1,.372-3,6.122,6.122,0,0,1-3.065-5.677A10.165,10.165,0,0,1,482.153,98.767Z" transform="translate(-481.15 -96.632)" fill="#f0bf9c"/><g transform="translate(11.339 7.388)"><path d="M517.034,118.158a2.06,2.06,0,0,1,1.54.133,1.694,1.694,0,0,1,.726,1.583,3.076,3.076,0,0,1-.743,1.647,3.713,3.713,0,0,1-1.686,1.233,2.339,2.339,0,0,1-2.031-.236C512.7,121.037,515.448,118.542,517.034,118.158Z" transform="translate(-514.057 -118.072)" fill="#f0bf9c"/><path d="M520.518,122.946a2.037,2.037,0,0,0,.33-.812.791.791,0,0,0-.328-.769.991.991,0,0,0-.9.052,2.759,2.759,0,0,0-1.345,1.381,1.2,1.2,0,0,0-.122.583.572.572,0,0,0,.316.479.705.705,0,0,0,.72-.211,1.571,1.571,0,0,0,.367-1.7c.059-.157.288-.24.454-.267a.49.49,0,0,1,.45.172.649.649,0,0,1,.122.455A3.357,3.357,0,0,1,520.518,122.946Z" transform="translate(-516.737 -120.172)" fill="#e78882"/></g><path d="M503.128,111.6l-3.433-1.836a2.167,2.167,0,0,1,2.074.116A3.561,3.561,0,0,1,503.128,111.6Z" transform="translate(-493.305 -105.099)" fill="#422c4f"/><path d="M501.436,116.948a.568.568,0,1,1-.156-.847A.612.612,0,0,1,501.436,116.948Z" transform="translate(-493.743 -109.349)" fill="#422c4f"/><path d="M483.43,105.01l2.869.506a1.545,1.545,0,0,0-1.256-1.11A2.339,2.339,0,0,0,483.43,105.01Z" transform="translate(-482.644 -101.725)" fill="#422c4f"/><path d="M485.452,111.207c-.045.358.105.671.336.7s.453-.237.5-.6-.106-.671-.336-.7S485.5,110.849,485.452,111.207Z" transform="translate(-483.964 -105.793)" fill="#422c4f"/><path d="M490.15,121.452l-2.211-.722a1.467,1.467,0,0,0,.843.95A1.734,1.734,0,0,0,490.15,121.452Z" transform="translate(-485.6 -112.426)" fill="#e78882"/><path d="M492.867,127.587a23.942,23.942,0,0,1-4.815-.285,2.061,2.061,0,0,0,1.25,1.383,2.886,2.886,0,0,0,1.859-.016A6.337,6.337,0,0,0,492.867,127.587Z" transform="translate(-485.674 -116.734)" fill="#fff"/></g><g transform="translate(30.06 64.743)"><path d="M461.376,265.413a36.239,36.239,0,0,1-13.362-2.547.172.172,0,1,1,.127-.32,35.951,35.951,0,0,0,23.924.895.172.172,0,1,1,.1.329A36.171,36.171,0,0,1,461.376,265.413Z" transform="translate(-447.905 -262.534)" fill="#e4e4e0"/></g><g transform="translate(41.004 64.162)"><path d="M483.117,262.524a27.1,27.1,0,0,1-3.3-.2.172.172,0,0,1-.15-.192.173.173,0,0,1,.192-.15,27.21,27.21,0,0,0,11.647-1.126.172.172,0,0,1,.106.328A27.557,27.557,0,0,1,483.117,262.524Z" transform="translate(-479.666 -260.848)" fill="#e4e4e0"/></g><g transform="translate(34.702 51.812)"><path d="M463.727,232.085a4.75,4.75,0,0,1-2.261-.533.172.172,0,1,1,.163-.3,4.936,4.936,0,0,0,3.431.337,12.228,12.228,0,0,0,3.293-1.416,47.634,47.634,0,0,0,7.334-5.122.172.172,0,0,1,.223.263,47.956,47.956,0,0,1-7.388,5.159,12.819,12.819,0,0,1-3.385,1.452A6.364,6.364,0,0,1,463.727,232.085Z" transform="translate(-461.375 -225.007)" fill="#e4e4e0"/></g><g transform="translate(48.068 32.802)"><line x2="7.222" y2="5.32" transform="translate(0.172 0.172)" fill="#5fa5cc"/><path d="M507.561,175.5a.172.172,0,0,1-.1-.034l-7.222-5.32a.172.172,0,0,1,.2-.277l7.222,5.32a.172.172,0,0,1-.1.311Z" transform="translate(-500.167 -169.838)" fill="#e4e4e0"/></g><g transform="translate(31.366 43.705)"><path d="M460.646,203.916h-.016a10.962,10.962,0,0,1-4.214-1.283l-.239-.133a4.7,4.7,0,0,0-1.043-.481,4.771,4.771,0,0,0-1.532-.072,4.569,4.569,0,0,1-1.793-.133.172.172,0,0,1,.114-.325,4.242,4.242,0,0,0,1.659.114,5.075,5.075,0,0,1,1.642.083,5.021,5.021,0,0,1,1.121.513l.236.131a10.612,10.612,0,0,0,4.08,1.242.172.172,0,0,1-.016.344Z" transform="translate(-451.694 -201.479)" fill="#e4e4e0"/></g><g transform="translate(41.406 26.98)"><path d="M481.662,159.447a.172.172,0,0,1-.171-.154l-.659-6.163a.172.172,0,0,1,.153-.19.176.176,0,0,1,.19.153l.659,6.162a.172.172,0,0,1-.153.19Z" transform="translate(-480.831 -152.94)" fill="#e4e4e0"/></g><g transform="translate(44.343 30.1)"><path d="M489.529,164.515a.172.172,0,0,1-.094-.316,15.978,15.978,0,0,1,5.1-2.2.172.172,0,0,1,.079.335,15.64,15.64,0,0,0-4.994,2.152A.171.171,0,0,1,489.529,164.515Z" transform="translate(-489.357 -161.995)" fill="#e4e4e0"/></g><g transform="translate(6.575 33.62)"><path d="M420.236,172.212l-13.7,15.248-18.349,4.307-4.212-2.642a.866.866,0,0,0-1.261.4h0a.866.866,0,0,0,.168.921l2.075,2.221-1.938,1.077-1.809-1.551.234-.7a1.715,1.715,0,0,0-.526-1.858h0l-1.063,2.127a1.034,1.034,0,0,0,.088,1.069l.881,1.215h0a1.453,1.453,0,0,0,.192,1.9l2.753,2.58a1.724,1.724,0,0,0,2.272.074l3.182-2.615,18.248-2.57a6.9,6.9,0,0,0,3.444-1.525l16.872-14.025Z" transform="translate(-379.748 -172.212)" fill="#f0bf9c"/><path d="M496.428,172.212l7.552,5.657-1.945,1.617L496,172.693Z" transform="translate(-455.939 -172.212)" fill="#422c4f"/></g><g transform="translate(24.865 110.548)"><path d="M433,396.151a.172.172,0,0,1-.006-.345l9.993-.341h.006a.172.172,0,0,1,.006.345l-9.993.341Z" transform="translate(-432.827 -395.465)" fill="#422c4f"/></g><g transform="translate(55.426 105.363)"><path d="M521.691,386.418a.172.172,0,0,1-.028-.342,14.014,14.014,0,0,0,9.025-5.586.172.172,0,1,1,.279.2,14.361,14.361,0,0,1-9.248,5.724Z" transform="translate(-521.519 -380.418)" fill="#422c4f"/></g></g><g transform="translate(107.812 52.259)"><path d="M281.509,106.813a1.378,1.378,0,0,0-1.36-1.156h-6.917a1.378,1.378,0,0,0-1.344,1.073l-.213.937h9.974Z" transform="translate(-254.767 -105.657)" fill="#422c4f"/><path d="M264.24,185.367a41.7,41.7,0,0,0-.535-24.232l-2.246-6.847a14.127,14.127,0,0,1-.636-5.786l.14-1.428a10.891,10.891,0,0,1,1.128-3.865,10.891,10.891,0,0,0,.24-9.357l-.765-1.719,2.745-3.349a2.412,2.412,0,0,0,.237-2.711l-1.7-3.028a12.06,12.06,0,0,0-7.19-5.682l-5.46-1.564-.705-4.307h-9.974l-1.2,5.285-5.149,1.461a12.059,12.059,0,0,0-7.023,5.352l-3.184,5.254a2.412,2.412,0,0,0,.809,3.311l6.442,3.917,2.364,9.11a14.125,14.125,0,0,1-1.348,10.451l-.844,1.506a41.7,41.7,0,0,0-4.25,29.739l2.658,11.531h31.8Z" transform="translate(-222.608 -109.48)" fill="#454f6b"/><path d="M240.546,363.737a3.446,3.446,0,0,0,3.358,2.672h25.082a3.446,3.446,0,0,0,3.318-2.517l.043-.154Z" transform="translate(-234.365 -274.809)" fill="#422c4f"/><path d="M265.015,283.862a10.767,10.767,0,0,0,8.389,6.487c2.97.393,5.939-.484,8.9-.906s6.3-.273,8.509,1.755c6.008-18.661,3.855-30.556.682-35.635C280.286,267.253,265.015,283.862,265.015,283.862Z" transform="translate(-250.403 -203.909)" fill="#eba7ac"/><path d="M291.284,260.046a9,9,0,0,0,2.173.174,18.032,18.032,0,0,0-1.958-4.657c-11.214,11.69-26.484,28.3-26.484,28.3a10.518,10.518,0,0,0,2.964,4.037C278.162,282.813,289.835,271.935,291.284,260.046Z" transform="translate(-250.403 -203.909)" fill="#e36b85"/><g transform="translate(6.33 91.6)"><rect width="4.135" height="27.853" transform="translate(13.685)" fill="#c7d2d7"/><rect width="4.135" height="5.8" transform="translate(13.685)" fill="#99a3b0"/><path d="M271.446,458.66H242.012a1.034,1.034,0,0,1-.327-2.014l12.976-4.322H258.8l12.976,4.322A1.034,1.034,0,0,1,271.446,458.66Z" transform="translate(-240.977 -424.471)" fill="#99a3b0"/></g><path d="M261.99,141.182c-15.018-2.3-25.556-9.329-25.485-14.724l1.15-.326-.282-.19a3.788,3.788,0,0,0-3.462-.4h0a21.983,21.983,0,0,0-9.663,7.219h0a4.824,4.824,0,0,0-.589,4.856,24.1,24.1,0,0,0,6.142,8.116l1.678,5.578A19.38,19.38,0,0,1,229.5,167c-2.19,3.584-4.47,7.926-5.294,12.319-1.551,8.27.431,23.345.431,23.345,31.959-3.676,39.914-28.894,39.5-32.48-2.542-11.109-3.346-13.808-1.106-17.771S264.058,143.045,261.99,141.182Z" transform="translate(-223.033 -118.53)" fill="#eba7ac"/><path d="M295.809,166.294c-.35,2.781-7.453,26.206-8.809,28.755,1.327-.279,2.7.919,3.6,1.794a6.546,6.546,0,0,0,3.122,2.16c1.69.33,3.29-.7,4.976-1.049,2.182-.448,3.691,2.249,6.784,2.033C300.864,186.548,295.809,166.294,295.809,166.294Z" transform="translate(-264.812 -145.4)" fill="#e36b85"/><g transform="translate(2.489 11.497)"><g transform="translate(7.85)"><path d="M273.892,151.846h-.014a28.759,28.759,0,0,1-21.237-12.556.172.172,0,0,1,.288-.19,28.406,28.406,0,0,0,20.977,12.4.172.172,0,0,1-.014.344Z" transform="translate(-252.613 -139.022)" fill="#e36b85"/></g><g transform="translate(11.026 8.49)"><path d="M272.237,170.635a.175.175,0,0,1-.06-.011,28.522,28.522,0,0,1-10.3-6.67.172.172,0,1,1,.245-.242A28.172,28.172,0,0,0,272.3,170.3a.172.172,0,0,1-.06.334Z" transform="translate(-261.829 -163.661)" fill="#e36b85"/></g><g transform="translate(6.076 9.762)"><path d="M261.414,179.76a8.728,8.728,0,0,1-5.763-2.124,18.059,18.059,0,0,1-3.353-4.574c-1.3-2.231-2.533-4.339-4.736-5.383a.172.172,0,1,1,.147-.311c2.3,1.089,3.614,3.342,4.886,5.52a17.809,17.809,0,0,0,3.283,4.49,8.585,8.585,0,0,0,9.784.882.172.172,0,1,1,.178.295A8.555,8.555,0,0,1,261.414,179.76Z" transform="translate(-247.464 -167.351)" fill="#e36b85"/></g><g transform="translate(9.052 20.386)"><path d="M267.45,210.269a.172.172,0,0,1-.083-.021,27.132,27.132,0,0,1-11.249-11.815.172.172,0,1,1,.31-.151,26.783,26.783,0,0,0,11.106,11.663.173.173,0,0,1-.083.324Z" transform="translate(-256.1 -198.185)" fill="#e36b85"/></g><g transform="translate(11.236 30.454)"><path d="M271.482,230.955h-.009a16.448,16.448,0,0,1-8.965-3.241.172.172,0,0,1,.207-.276,16.093,16.093,0,0,0,8.775,3.172.172.172,0,0,1-.009.344Z" transform="translate(-262.439 -227.404)" fill="#e36b85"/></g><g transform="translate(1.818 60.355)"><path d="M235.278,322.962a.172.172,0,0,1-.032-.341,47.268,47.268,0,0,0,19.085-8.408.172.172,0,0,1,.2.277,47.61,47.61,0,0,1-19.226,8.47A.174.174,0,0,1,235.278,322.962Z" transform="translate(-235.106 -314.178)" fill="#e36b85"/></g><g transform="translate(23.74 44.919)"><path d="M298.9,282.964a.172.172,0,0,1-.112-.3A46.463,46.463,0,0,0,309.5,269.474a.172.172,0,0,1,.3.164,46.8,46.8,0,0,1-10.8,13.285A.171.171,0,0,1,298.9,282.964Z" transform="translate(-298.727 -269.383)" fill="#e36b85"/></g><g transform="translate(1.732 60.355)"><path d="M235.031,315.368a.172.172,0,0,1-.014-.344,43.358,43.358,0,0,0,5.611-.841.172.172,0,1,1,.073.336,43.622,43.622,0,0,1-5.656.848Z" transform="translate(-234.858 -314.179)" fill="#e36b85"/></g><g transform="translate(11.952 46.656)"><path d="M264.688,287.209a.172.172,0,0,1-.054-.336,44.565,44.565,0,0,0,19.051-12.392.172.172,0,0,1,.256.231,44.913,44.913,0,0,1-19.2,12.488A.167.167,0,0,1,264.688,287.209Z" transform="translate(-264.516 -274.423)" fill="#e36b85"/></g><g transform="translate(0 51.113)"><path d="M233.2,287.792c-1.073,0-2.146-.03-3.207-.089a.172.172,0,0,1-.162-.182.168.168,0,0,1,.182-.162c1.667.093,3.363.114,5.042.058a.178.178,0,0,1,.178.167.172.172,0,0,1-.167.178Q234.136,287.792,233.2,287.792Z" transform="translate(-229.831 -287.358)" fill="#e36b85"/></g><g transform="translate(9.052 45.71)"><path d="M256.273,277.217a.172.172,0,0,1-.018-.344A57.734,57.734,0,0,0,275,271.695a.172.172,0,1,1,.146.311,58.064,58.064,0,0,1-18.858,5.21Z" transform="translate(-256.101 -271.678)" fill="#e36b85"/></g><g transform="translate(8.416 41.489)"><path d="M263.586,261.454a25.77,25.77,0,0,1-9.22-1.694.172.172,0,0,1,.124-.322,25.488,25.488,0,0,0,14.48,1.092.172.172,0,0,1,.074.337A25.422,25.422,0,0,1,263.586,261.454Z" transform="translate(-254.255 -259.427)" fill="#e36b85"/></g></g><path d="M299.712,125.321c1.767,1.171,2.137,4.094,1.967,6.207a137.855,137.855,0,0,1-7.008,33.627c.7-.482,2.249.024,2.874.6a9.024,9.024,0,0,1,1.425,2.1,3.313,3.313,0,0,0,1.856,1.652c1.356.343,2.653-.8,4.05-.857a4.527,4.527,0,0,1,3.306,1.8,12.294,12.294,0,0,0,2.765,2.7c1.127.64,2.786.611,3.494-.475A29.757,29.757,0,0,1,311,156.495c.155-2.931.747-5.84.675-8.774-.168-6.79-3.875-12.455-4.762-19.015a3.569,3.569,0,0,0-2.594-2.953l-2.167-.6a3.7,3.7,0,0,0-2.44.166Z" transform="translate(-269.84 -118.349)" fill="#eba7ac"/><g transform="translate(28.901 9.509)"><g transform="translate(0 7.203)"><path d="M306.655,183.043a.163.163,0,0,1-.052-.008.172.172,0,0,1-.112-.216,92.732,92.732,0,0,0,4.391-28.489.172.172,0,0,1,.172-.173h0a.172.172,0,0,1,.172.172,93.075,93.075,0,0,1-4.407,28.595A.172.172,0,0,1,306.655,183.043Z" transform="translate(-306.483 -154.157)" fill="#e36b85"/></g><g transform="translate(4.1)"><path d="M318.806,138.116a.172.172,0,0,1-.172-.167c-.048-1.5-.133-3.018-.254-4.51a.172.172,0,0,1,.344-.028c.121,1.5.207,3.02.254,4.527a.172.172,0,0,1-.167.177Z" transform="translate(-318.38 -133.253)" fill="#e36b85"/></g><g transform="translate(6.316 13.692)"><path d="M324.986,197.787l-.03,0a.172.172,0,0,1-.14-.2,76.925,76.925,0,0,0,.346-24.4.172.172,0,0,1,.341-.05,77.264,77.264,0,0,1-.347,24.507A.172.172,0,0,1,324.986,197.787Z" transform="translate(-324.813 -172.99)" fill="#e36b85"/></g><g transform="translate(11.018 37.528)"><path d="M339.779,246.152a.172.172,0,0,1-.158-.1,19.684,19.684,0,0,1-1.158-3.674.172.172,0,1,1,.337-.072,19.343,19.343,0,0,0,1.137,3.61.172.172,0,0,1-.158.241Z" transform="translate(-338.459 -242.165)" fill="#e36b85"/></g><g transform="translate(10.415 15.211)"><path d="M337.036,197.076a.172.172,0,0,1-.171-.156,63.771,63.771,0,0,1,.079-9.592l.034-.592a51.122,51.122,0,0,0-.079-9.145.172.172,0,0,1,.342-.041,51.421,51.421,0,0,1,.08,9.206l-.034.593a63.586,63.586,0,0,0-.08,9.54.172.172,0,0,1-.155.188Z" transform="translate(-336.71 -177.397)" fill="#e36b85"/></g><g transform="translate(9.911 11.664)"><path d="M335.836,169.227a.172.172,0,0,1-.169-.14c-.116-.607-.255-1.2-.414-1.766a.172.172,0,1,1,.332-.093c.161.574.3,1.178.421,1.794a.172.172,0,0,1-.137.2A.179.179,0,0,1,335.836,169.227Z" transform="translate(-335.246 -167.103)" fill="#e36b85"/></g></g><g transform="translate(31.531 64.977)"><g transform="translate(5.888)"><path d="M331.374,309.6a.176.176,0,0,1-.076-.018.172.172,0,0,1-.079-.231,47.667,47.667,0,0,0,4.472-14.975.172.172,0,0,1,.342.043,48.02,48.02,0,0,1-4.505,15.084A.173.173,0,0,1,331.374,309.6Z" transform="translate(-331.202 -294.228)" fill="#e36b85"/></g><g transform="translate(0 5.928)"><path d="M314.286,324.281a.172.172,0,0,1-.132-.283,34.575,34.575,0,0,0,6.635-12.443.172.172,0,1,1,.331.1,34.924,34.924,0,0,1-6.7,12.568A.172.172,0,0,1,314.286,324.281Z" transform="translate(-314.114 -311.43)" fill="#e36b85"/></g></g></g><path d="M283.422,472.24H83.615a.764.764,0,0,1-.764-.764h0a.764.764,0,0,1,.764-.764H283.422a.764.764,0,0,1,.764.764h0A.764.764,0,0,1,283.422,472.24Z" transform="translate(-23.196 -292.663)" fill="#422c4f"/></g></svg>