<svg xmlns="http://www.w3.org/2000/svg" width="100" height="100" viewBox="0 0 100 100"><g transform="translate(-218.145 -519.239)"><path d="M315.249,593.443c-4.1-4.095-6.568,1.873-12.359,1.873s-5.791-2.2-11.583-2.2-5.791,2.2-11.582,2.2-5.791-2.2-11.583-2.2-5.791,2.2-11.582,2.2-5.791-2.2-11.58-2.2-5.792,2.2-11.583,2.2-8.263-5.968-12.358-1.873,1.874,6.568,1.874,12.359-2.195,5.791-2.195,11.584h0a.38.38,0,0,0,.38.379h94.089a.38.38,0,0,0,.38-.379v-.008c0-5.791-2.195-5.791-2.195-11.582S319.346,597.531,315.249,593.443Z" fill="#95d6a4"/><path d="M315.249,593.443c-2.457-2.456-4.329-1.293-6.683.033,4.029,4.074-1.906,6.549-1.906,12.324s2.2,5.791,2.2,11.582v.387h6.337a.38.38,0,0,0,.38-.38v-.007c0-5.791-2.195-5.791-2.195-11.582S319.344,597.531,315.249,593.443Z" fill="#78c2a4"/><path d="M286.449,555.642a21.507,21.507,0,0,1-2.867,3.314,1.279,1.279,0,0,1-2.131-.909c-.268-7.787-3.895-22.1-11.86-25.429h0a23.484,23.484,0,0,1-10.018,15.329c-3.787,2.532-4.734,5.681-4.508,9.737a1.237,1.237,0,0,1-1.929,1.085,12.938,12.938,0,0,1-3.481-3.7c-.1,2.186-.184,4.43-.126,6.664a17.18,17.18,0,0,0,17.183,16.74h2.882A17.18,17.18,0,0,0,286.779,561.3q0-.613-.043-1.226C286.631,558.624,286.522,557.152,286.449,555.642Z" fill="#ffe07d"/><path d="M286.449,555.642a21.507,21.507,0,0,1-2.867,3.314,1.279,1.279,0,0,1-2.131-.909c-.268-7.787-3.895-22.1-11.86-25.429h0a23.484,23.484,0,0,1-10.018,15.329c-3.787,2.532-4.734,5.681-4.508,9.737a1.237,1.237,0,0,1-1.929,1.085,12.938,12.938,0,0,1-3.481-3.7c-.1,2.186-.184,4.43-.126,6.664a17.18,17.18,0,0,0,17.183,16.74h2.882A17.18,17.18,0,0,0,286.779,561.3q0-.613-.043-1.226C286.631,558.624,286.522,557.152,286.449,555.642Z" fill="#ffe07d"/><path d="M276.6,558.046a1.279,1.279,0,0,0,2.131.909,19.164,19.164,0,0,0,2.583-2.948c-.759-8.023-4.414-20.334-11.725-23.39h0a23.809,23.809,0,0,1-.749,2.99C273.972,541.184,276.392,551.751,276.6,558.046Z" fill="#ffd064"/><path d="M286.736,560.067c-.1-1.443-.217-2.911-.287-4.422a21.553,21.553,0,0,1-2.867,3.314,1.277,1.277,0,0,1-1.779-.069q.043.592.085,1.179a17.183,17.183,0,0,1-15.906,18.37c-.08.006-.161.011-.242.015.322.018.643.03.968.03h2.881a17.184,17.184,0,0,0,17.191-17.176Q286.78,560.687,286.736,560.067Z" fill="#ffd064"/><path d="M276.37,570.346a8.135,8.135,0,1,1-16.27,0c0-4.494,3.643-14.794,8.135-14.794S276.37,565.853,276.37,570.346Z" fill="#e7a561"/><path d="M268.235,555.548a4.005,4.005,0,0,0-2.586,1.121c3.225,2.784,5.55,10.084,5.55,13.67a8.136,8.136,0,0,1-5.55,7.714,8.135,8.135,0,0,0,10.721-7.714C276.37,565.853,272.727,555.548,268.235,555.548Z" fill="#e49542"/><path d="M236.973,582.4a1.465,1.465,0,0,0,2.821-.79l0-.01-.568-1.994a64.571,64.571,0,0,0,57.906-.219L296.5,581.6a1.465,1.465,0,1,0,2.817.8l1.5-5.264a1.463,1.463,0,0,0-.8-1.735l-4.753-2.165a1.465,1.465,0,0,0-1.214,2.667l1.828.833a61.678,61.678,0,0,1-55.666.093l2.025-.926a1.465,1.465,0,1,0-1.215-2.667h0l-4.746,2.157a1.467,1.467,0,0,0-.8,1.736Z"/><path d="M314.842,605.8a10.25,10.25,0,0,1,1.759-5.147c1.275-2.26,2.861-5.071-.315-8.247s-5.987-1.59-8.247-.315a10.253,10.253,0,0,1-5.148,1.759,16.289,16.289,0,0,1-1.711-.081,1.465,1.465,0,0,0-.42,2.9c.041.006.082.01.123.013a19.806,19.806,0,0,0,2.008.1,12.964,12.964,0,0,0,6.583-2.138c2.381-1.343,3.206-1.7,4.736-.165s1.177,2.355-.166,4.735a12.958,12.958,0,0,0-2.138,6.582,15.571,15.571,0,0,0,1.193,6.31,12.323,12.323,0,0,1,.973,4.193h-21a16.912,16.912,0,0,1,.633-1.933,15.669,15.669,0,0,0,1.188-6.321,1.465,1.465,0,0,0-2.93,0,12.68,12.68,0,0,1-1,5.289,17.248,17.248,0,0,0-.9,2.967H268.879a16.986,16.986,0,0,1,.633-1.933,15.678,15.678,0,0,0,1.189-6.322,1.465,1.465,0,0,0-2.931,0,12.681,12.681,0,0,1-1,5.289,17.343,17.343,0,0,0-.9,2.967H244.682a16.85,16.85,0,0,1,.633-1.933,15.691,15.691,0,0,0,1.189-6.321,1.465,1.465,0,1,0-2.931,0,12.676,12.676,0,0,1-1,5.288,17.254,17.254,0,0,0-.9,2.967h-8.5a1.466,1.466,0,0,0,0,2.931h82.016a1.851,1.851,0,0,0,1.848-1.852,15.548,15.548,0,0,0-1.192-6.31,12.586,12.586,0,0,1-1-5.272Z"/><path d="M227.314,616.3h-5.1a12.342,12.342,0,0,1,.973-4.192,15.573,15.573,0,0,0,1.193-6.311,12.964,12.964,0,0,0-2.138-6.582c-1.343-2.381-1.695-3.206-.165-4.737s2.354-1.177,4.735.166a12.964,12.964,0,0,0,6.583,2.138,15.587,15.587,0,0,0,6.31-1.192,14.354,14.354,0,0,1,10.543,0,17.3,17.3,0,0,0,12.62,0,14.354,14.354,0,0,1,10.543,0,17.3,17.3,0,0,0,12.62,0,12.594,12.594,0,0,1,5.27-1,13.324,13.324,0,0,1,3.49.4,1.466,1.466,0,1,0,.76-2.831,16.143,16.143,0,0,0-4.243-.5,15.581,15.581,0,0,0-6.31,1.192,14.357,14.357,0,0,1-10.544,0,17.3,17.3,0,0,0-12.621,0,14.352,14.352,0,0,1-10.542,0,17.3,17.3,0,0,0-12.62,0,12.575,12.575,0,0,1-5.273,1,10.26,10.26,0,0,1-5.146-1.76c-2.26-1.274-5.071-2.86-8.247.315s-1.59,5.988-.315,8.247a10.253,10.253,0,0,1,1.759,5.148,12.586,12.586,0,0,1-1,5.272,15.6,15.6,0,0,0-1.193,6.315,1.851,1.851,0,0,0,1.848,1.845h6.213a1.465,1.465,0,0,0,0-2.929Z"/><path d="M253.688,574.655a18.57,18.57,0,0,0,13.022,5.292h2.882A18.724,18.724,0,0,0,283.263,574a18.44,18.44,0,0,0,4.936-14.033c-.107-1.477-.216-2.937-.285-4.386a1.465,1.465,0,0,0-2.622-.828,23.491,23.491,0,0,1-2.388,2.843,48.937,48.937,0,0,0-3.038-14.229,1.465,1.465,0,1,0-2.736,1.047,45.492,45.492,0,0,1,2.863,13.688,2.743,2.743,0,0,0,4.572,1.948c.242-.217.457-.42.66-.625.013.19.021.294.054.751A15.536,15.536,0,0,1,281.116,572a15.744,15.744,0,0,1-4.794,3.518,9.54,9.54,0,0,0,1.519-5.171,25.824,25.824,0,0,0-2.521-9.705c-2.543-5.418-5.253-6.555-7.079-6.555s-4.536,1.14-7.078,6.555a25.826,25.826,0,0,0-2.522,9.705,9.545,9.545,0,0,0,1.584,5.273A15.728,15.728,0,0,1,251,561.705c-.023-.912-.021-1.833,0-2.748a10.933,10.933,0,0,0,1.336,1.032,2.7,2.7,0,0,0,4.208-2.384c-.227-4.059.855-6.425,3.86-8.436a25.09,25.09,0,0,0,10.207-14.337,14.8,14.8,0,0,1,4.062,4.5,1.465,1.465,0,0,0,2.489-1.547,15.64,15.64,0,0,0-6.989-6.517,1.466,1.466,0,0,0-2.006,1.089,22.15,22.15,0,0,1-9.392,14.374A11.139,11.139,0,0,0,253.6,557.3a9.677,9.677,0,0,1-2.2-2.361c-.176-.231-.368-.482-.583-.76a1.465,1.465,0,0,0-2.622.828c-.1,2.16-.187,4.475-.126,6.77a18.516,18.516,0,0,0,5.626,12.877Zm10.127-12.769c1.41-3,3.106-4.869,4.43-4.869s3.016,1.866,4.43,4.869a23.211,23.211,0,0,1,2.245,8.46,6.671,6.671,0,0,1-13.342,0,23.2,23.2,0,0,1,2.23-8.46Z"/><rect width="100" height="100" transform="translate(218.145 519.239)" fill="none"/></g></svg>