<svg xmlns="http://www.w3.org/2000/svg" width="100" height="100" viewBox="0 0 100 100"><g transform="translate(-407.948 -488.526)"><path d="M481.756,581.46h-1.269V578.9a5.336,5.336,0,0,0-5.336-5.336H442.215a5.332,5.332,0,0,0-5.331,5.332v2.292h-2.623a2.934,2.934,0,1,0,0,5.869h47.5a2.8,2.8,0,0,0,.01-5.6Z" fill="#ffd597"/><path d="M484.55,584.453a2.851,2.851,0,0,1-2.869,2.608h-5.643a2.8,2.8,0,1,0,0-5.6,1.27,1.27,0,0,1-1.269-1.27v-1.285a5.336,5.336,0,0,0-5.336-5.336h5.719a5.336,5.336,0,0,1,5.336,5.336h0v2.555h1.269a2.8,2.8,0,0,1,2.8,2.8q0,.1-.006.192Z" fill="#fcc16d"/><path d="M473.321,518.378v63.707H444.562v-49.9a4.833,4.833,0,0,1,1.816-3.777l12.531-10.023Z" fill="#fcb44d"/><path d="M473.32,529.956h0V518.378h-4.986v11.578h-11.32v5.119a2.976,2.976,0,0,0,2.781,3,2.922,2.922,0,0,0,3.059-2.778c0-.047,0-.093,0-.14v12.656a2.976,2.976,0,0,0,2.78,3h.034a2.722,2.722,0,0,1,2.666,2.7v28.569h4.986V543.4h0Z" fill="#fb9927"/><path d="M460.669,510.3a1.952,1.952,0,0,1-2.557,1.045,2,2,0,0,1-.352-.192,8.6,8.6,0,0,1-3.93-7.2c0-5.721,5.137-8.017,6.186-13.167a.98.98,0,0,1,1.673-.485c1.678,1.764,4.178,5.062,4.178,9.056C465.865,504.3,462.026,507.1,460.669,510.3Z" fill="#fcb44d"/><path d="M465.866,499.354c0,4.949-3.841,7.744-5.2,10.951a1.955,1.955,0,0,1-2.91.854,8.6,8.6,0,0,1-3.928-7.2,8.974,8.974,0,0,1,.106-1.389,9.746,9.746,0,0,0,3.873,3.653c1.781.922,6.472-6.689,7-11.408a10.85,10.85,0,0,1,1.054,4.548Z" fill="#fc7d4b"/><path d="M472.573,515.333h-1.9a1.968,1.968,0,0,0-1.859,1.324h-9.837a1.959,1.959,0,0,0-1.959,1.96h0v11.146a2.976,2.976,0,0,0,2.78,3,2.921,2.921,0,0,0,3.059-2.777c0-.047,0-.094,0-.141V542.5a2.976,2.976,0,0,0,2.78,3,2.922,2.922,0,0,0,3.059-2.777c0-.047,0-.094,0-.141v-6.852a2.92,2.92,0,0,0,2.921,2.921q.07,0,.141,0a2.977,2.977,0,0,0,2.781-3V517.3a1.97,1.97,0,0,0-1.969-1.97Z" fill="#ffd597"/><path d="M474.542,517.3v18.346a2.975,2.975,0,0,1-2.779,3,2.915,2.915,0,0,1-2.275-.924,3.054,3.054,0,0,0,.814-2.076V517.3a1.968,1.968,0,0,0-.8-1.585,1.958,1.958,0,0,1,1.168-.385h1.9a1.97,1.97,0,0,1,1.971,1.969Z" fill="#fcc16d"/><path d="M442.016,578.151h7.841a1.956,1.956,0,0,1,1.33.519l3.177,2.933a1.954,1.954,0,0,0,1.329.519h2.264a1.958,1.958,0,0,0,1.678-.949l2.882-4.795a1.959,1.959,0,0,1,1.679-.95h4.7a1.961,1.961,0,0,1,1.385.576l2.252,2.252h2.471v7.055H442.016Z" fill="#ffd597"/><path d="M481.951,580v-1.095a6.807,6.807,0,0,0-6.8-6.8h-.366V556.775a1.465,1.465,0,1,0-2.929-.005V575.5l-.533-.533a3.4,3.4,0,0,0-2.422-1h-4.7a3.441,3.441,0,0,0-2.934,1.657l-2.882,4.8a.5.5,0,0,1-.424.24H455.7a.494.494,0,0,1-.336-.132l-3.177-2.933a3.419,3.419,0,0,0-2.323-.908h-3.83V532.178a3.356,3.356,0,0,1,1.266-2.633l8.256-6.6v6.823a4.393,4.393,0,0,0,5.844,4.224V542.5a4.422,4.422,0,0,0,4.178,4.467c.072,0,.144.005.216.005a4.347,4.347,0,0,0,3.026-1.213,4.4,4.4,0,0,0,1.359-3.174v-2.713a4.413,4.413,0,0,0,1.667.24h.024v10.979a1.465,1.465,0,0,0,2.929.005V538.749a4.5,4.5,0,0,0,1.225-3.1V517.3a3.438,3.438,0,0,0-3.435-3.434h-1.9a3.438,3.438,0,0,0-2.708,1.324h-1.369a1.465,1.465,0,0,0,0,2.93h.755v3.2a1.465,1.465,0,1,0,2.929,0V517a.5.5,0,0,1,.4-.2h1.9a.5.5,0,0,1,.5.505v18.343a1.513,1.513,0,0,1-1.385,1.538,1.457,1.457,0,0,1-1.527-1.382c0-.024,0-.049,0-.073a1.6,1.6,0,0,0-.015-.2,1.427,1.427,0,0,0,.015-.2v-2.47a1.465,1.465,0,0,0-2.93-.005v2.477a1.276,1.276,0,0,1,0,.39v6.852a1.455,1.455,0,0,1-1.457,1.456h-.071a1.513,1.513,0,0,1-1.385-1.538V529.846a1.6,1.6,0,0,0-.015-.2,1.4,1.4,0,0,0,.015-.2v-3.824a1.465,1.465,0,0,0-2.93,0v3.823a1.6,1.6,0,0,0,.015.2,1.579,1.579,0,0,0-.015.195,1.455,1.455,0,0,1-1.456,1.457c-.024,0-.049,0-.073,0a1.513,1.513,0,0,1-1.384-1.537V518.617a.494.494,0,0,1,.494-.495h1.937a1.465,1.465,0,0,0,0-2.93h-.508v-2.6a3.415,3.415,0,0,0,1.613-1.721,16.565,16.565,0,0,1,1.838-2.944c1.547-2.155,3.474-4.838,3.474-8.574,0-4.567-2.87-8.267-4.58-10.065a2.446,2.446,0,0,0-4.17,1.2,13.25,13.25,0,0,1-2.773,5.175c-1.613,2.173-3.442,4.636-3.442,8.285a10.015,10.015,0,0,0,4.557,8.407,3.438,3.438,0,0,0,.555.312v2.876a3.425,3.425,0,0,0-1.928,3.075v.577l-10.086,8.069a6.269,6.269,0,0,0-2.365,4.921V572.1h-.883a6.8,6.8,0,0,0-6.8,6.8v.827h-1.158a4.4,4.4,0,1,0,0,8.8h7.48a1.464,1.464,0,1,0,.005-2.929h-7.492a1.47,1.47,0,0,1-.065-2.939h2.689a1.464,1.464,0,0,0,1.464-1.465h0V578.9a3.872,3.872,0,0,1,3.867-3.867h.88v1.651h-1.081a1.465,1.465,0,1,0,0,2.93h7.841a.49.49,0,0,1,.336.131l3.177,2.933a3.412,3.412,0,0,0,2.323.908h2.263a3.444,3.444,0,0,0,2.935-1.657l2.882-4.795a.5.5,0,0,1,.423-.24h4.7a.486.486,0,0,1,.35.144l2.252,2.251a1.466,1.466,0,0,0,1.036.433h2.478a1.465,1.465,0,1,0,0-2.93h-.224v-1.755h.366a3.874,3.874,0,0,1,3.87,3.871v2.555a1.465,1.465,0,0,0,1.465,1.465h1.269a1.336,1.336,0,0,1,.062,2.671h-34.4a1.465,1.465,0,1,0-.005,2.929h34.342a4.265,4.265,0,0,0,.2-8.526Zm-26.657-76.05c0-2.679,1.328-4.467,2.864-6.539a17.271,17.271,0,0,0,3.069-5.439c1.392,1.623,3.17,4.3,3.17,7.382,0,2.795-1.486,4.864-2.924,6.866a18.567,18.567,0,0,0-2.157,3.511h0a.489.489,0,0,1-.323.288.457.457,0,0,1-.4-.064,7.053,7.053,0,0,1-3.3-6Z"/><path d="M468.811,530.184a1.465,1.465,0,0,0,1.464-1.465v-.953a1.464,1.464,0,1,0-2.929,0v.953a1.465,1.465,0,0,0,1.464,1.465Z"/><path d="M461.879,549.032a1.465,1.465,0,0,0-1.465,1.465v15.34a4.107,4.107,0,1,0,8.214.008v-.008a1.465,1.465,0,0,0-2.93,0,1.178,1.178,0,1,1-2.355,0h0V550.5A1.465,1.465,0,0,0,461.879,549.032Z"/><path d="M452.366,539.088v9.569a1.465,1.465,0,0,0,2.929,0v-9.569a1.465,1.465,0,0,0-2.929,0Z"/><rect width="100" height="100" transform="translate(407.948 488.526)" fill="none"/></g></svg>