<svg xmlns="http://www.w3.org/2000/svg" width="250" height="200" viewBox="0 0 250 200"><g transform="translate(-2271.885 -74.37)"><rect width="250" height="200" transform="translate(2271.884 74.37)" fill="none"/><path d="M2493.549,221.037a6.62,6.62,0,0,1-6.573,6.667h-.094a6.771,6.771,0,0,1-5-2.238c-.4-.463-23.065-24.43-85-24.43-62.2,0-84.8,24.2-85.034,24.434a6.667,6.667,0,0,1-11.633-4.433V221a6.693,6.693,0,0,1,1.667-4.37c1-1.165,26.1-28.931,95-28.931s94,27.766,95,28.933a6.721,6.721,0,0,1,1.667,4.4Z" fill="#ffdc00"/><path d="M2491.882,216.636c-.994-1.167-26.1-28.933-95-28.933-1.705,0-3.354.03-5,.063,65.1,1.3,89.023,27.733,90,28.87a6.608,6.608,0,0,1-.027,8.8l.027.03a6.767,6.767,0,0,0,5,2.238,6.666,6.666,0,0,0,5-11.066Z" fill="#fec108"/><path d="M2493.549,127.7v.033a6.693,6.693,0,0,1-1.667,4.37c-1,1.167-26.1,28.933-95,28.933s-94-27.77-95-28.935a6.667,6.667,0,1,1,9.594-9.261c.142.148.278.3.405.461.2.2,22.8,24.405,85,24.405s84.8-24.2,85.034-24.434a6.667,6.667,0,0,1,11.633,4.434Z" fill="#ffdc00"/><path d="M2491.282,122.737a6.666,6.666,0,0,0-9.366.533l-.077.077a6.553,6.553,0,0,1,1.7,4.356v.033a6.693,6.693,0,0,1-1.667,4.37c-.976,1.137-24.9,27.567-90,28.87,1.647.033,3.3.063,5,.063,68.9,0,94-27.766,95-28.933a6.7,6.7,0,0,0,1.667-4.37V127.7a6.608,6.608,0,0,0-2.267-4.966Z" fill="#fec108"/><path d="M2493.549,127.736v93.3a6.721,6.721,0,0,0-1.667-4.4c-1-1.167-26.1-28.933-95-28.933s-94,27.766-95,28.933a6.693,6.693,0,0,0-1.667,4.368V127.7a6.718,6.718,0,0,0,1.667,4.4c1,1.165,26.1,28.933,95,28.933s94-27.767,95-28.933a6.693,6.693,0,0,0,1.667-4.37Z" fill="#ff9801"/><path d="M2491.882,132.1a48.455,48.455,0,0,1-8.333,7.036V209.6a48.524,48.524,0,0,1,8.333,7.034,6.72,6.72,0,0,1,1.667,4.4v-93.3A6.7,6.7,0,0,1,2491.882,132.1Z" fill="#f57c00"/><path d="M2395.63,133.8l-19.667-23.333a1.667,1.667,0,0,1,1.253-2.763h8a1.666,1.666,0,0,0,1.666-1.667v-25a3.334,3.334,0,0,1,3.333-3.334h13.333a3.334,3.334,0,0,1,3.334,3.334v25a1.666,1.666,0,0,0,1.666,1.667h8a1.666,1.666,0,0,1,1.253,2.763L2398.136,133.8a1.668,1.668,0,0,1-2.352.155A1.63,1.63,0,0,1,2395.63,133.8Z" fill="#9d27b0"/><path d="M2416.55,107.7h-8a1.666,1.666,0,0,1-1.666-1.667v-25a3.334,3.334,0,0,0-3.334-3.334h-10a3.333,3.333,0,0,1,3.334,3.334v25a1.666,1.666,0,0,0,1.667,1.667h8a1.666,1.666,0,0,1,1.253,2.763l-15.92,18.9,3.747,4.443a1.667,1.667,0,0,0,2.352.154,1.59,1.59,0,0,0,.154-.154L2417.8,110.48a1.667,1.667,0,0,0-1.253-2.776Z" fill="#6a1b9a"/><path d="M2395.63,214.941l-19.667,23.333a1.667,1.667,0,0,0,1.253,2.763h8a1.666,1.666,0,0,1,1.666,1.667h0v25a3.334,3.334,0,0,0,3.334,3.334h13.332a3.334,3.334,0,0,0,3.334-3.334v-25a1.666,1.666,0,0,1,1.666-1.667h8a1.667,1.667,0,0,0,1.253-2.764l-19.667-23.332a1.667,1.667,0,0,0-2.352-.155A1.63,1.63,0,0,0,2395.63,214.941Z" fill="#9d27b0"/><path d="M2417.8,238.274l-19.667-23.333a1.667,1.667,0,0,0-2.352-.155,1.585,1.585,0,0,0-.155.155l-3.739,4.429,15.913,18.891a1.667,1.667,0,0,1-1.247,2.776h-8a1.666,1.666,0,0,0-1.667,1.667h0v25a3.334,3.334,0,0,1-3.334,3.334h10a3.334,3.334,0,0,0,3.334-3.334v-25a1.666,1.666,0,0,1,1.666-1.667h8a1.668,1.668,0,0,0,1.247-2.764Z" fill="#6a1b9a"/><path d="M2493.507,120.254a10.016,10.016,0,0,0-14.056.76c-.22.233-22.528,23.356-82.57,23.356-59.98,0-82.333-23.09-82.473-23.253a9.957,9.957,0,0,0-17.479,6.589h-.046V221.04h.062a9.957,9.957,0,0,0,17.372,6.689c.236-.233,22.527-23.356,82.569-23.356s82.333,23.126,82.523,23.306a9.957,9.957,0,0,0,17.43-6.64h.047V127.706h-.063A9.93,9.93,0,0,0,2493.507,120.254Zm-189.957,71.16,9.2,12.6a77.741,77.741,0,0,0-9.206,6.513Zm15.056,9.294-15.056-20.594V164.037l23.79,32.57C2324.125,197.967,2321.216,199.344,2318.606,200.708Zm15.171-6.577-30.227-41.38v-14.53c.759.63,1.629,1.333,2.61,2.057l37.137,50.813C2339.886,192.037,2336.744,193.071,2333.777,194.131Zm16.486-4.806-29.307-40.1a126.2,126.2,0,0,0,16.625,6.683l22.934,31.362c-3.6.61-7.01,1.3-10.253,2.054Zm17.7-3.171-19.947-27.267c4.28,1.057,8.87,2,13.806,2.81l17.052,23.333q-5.689.444-10.911,1.127Zm18.85-1.564-15.823-21.647c4,.453,8.146.813,12.52,1.053l14.89,20.391c-.511,0-1-.021-1.52-.021-3.473,0-6.81.094-10.07.227Zm20,0L2392,164.311c1.614.033,3.227.062,4.89.062q3.475,0,6.8-.1l15.467,21.144q-5.911-.567-12.35-.833Zm21.386,1.9-16.518-22.58q5.754-.35,11.066-.959l18.963,25.952c-4.21-.927-8.731-1.737-13.523-2.417Zm23.667,5.02-21.611-29.56q5.443-.829,10.371-1.889l27.13,37.137a134.829,134.829,0,0,0-15.88-5.69ZM2480.993,204l-33.334-45.612q5.141-1.334,9.667-2.858l32.894,45.02v9.964A78.414,78.414,0,0,0,2481,204Zm-8.253-54.747,17.477,23.933v16.068l-26.369-36.094c3.248-1.275,6.207-2.59,8.887-3.906Zm5.953-3.153a80.914,80.914,0,0,0,11.527-7.887v23.671Zm-174-20.91a3.3,3.3,0,0,1,2.193-.823h.231a3.36,3.36,0,0,1,2.333,1.183c.227.263,23.964,25.483,87.44,25.483,63.61,0,87.26-25.27,87.5-25.53a3.333,3.333,0,0,1,5,4.393c-.98,1.137-25.044,27.8-92.494,27.8s-91.519-26.665-92.516-27.8a3.334,3.334,0,0,1,.314-4.7Zm184.392,98.35a3.4,3.4,0,0,1-4.732-.333c-.96-1.047-24.171-25.507-87.467-25.507-63.609,0-87.26,25.27-87.5,25.53a3.334,3.334,0,0,1-5-4.393c.981-1.137,25.045-27.8,92.494-27.8s91.513,26.666,92.509,27.806a3.333,3.333,0,0,1-.31,4.7Z"/><path d="M2390.216,74.37a6.667,6.667,0,0,0-6.667,6.668h0V104.37h-6.334a5,5,0,0,0-3.8,8.247l19.666,23.334.041.043a5,5,0,0,0,7.056.474,5.205,5.205,0,0,0,.511-.517l19.616-23.287a5,5,0,0,0-3.753-8.294h-6.334V81.038a6.667,6.667,0,0,0-6.667-6.668h-13.332Zm18.33,36.667h4.407l-16.073,19.077L2380.8,111.037h4.413a5,5,0,0,0,5-5h0v-25h13.33v25a5,5,0,0,0,5,5h0Z"/><path d="M2390.216,274.37h13.333a6.667,6.667,0,0,0,6.667-6.667V244.37h6.334a5,5,0,0,0,3.8-8.246l-19.7-23.378a5.16,5.16,0,0,0-7.293-.233c-.081.075-.158.153-.234.233l-.04.044-19.616,23.287a5,5,0,0,0,3.747,8.293h6.334V267.7A6.666,6.666,0,0,0,2390.216,274.37ZM2380.81,237.7l16.073-19.076,16.076,19.076h-4.41a5,5,0,0,0-5,5h0v25h-13.333v-25a5,5,0,0,0-5-5h-4.406Z"/></g></svg>