<svg xmlns="http://www.w3.org/2000/svg" width="187.909" height="192.957" viewBox="0 0 187.909 192.957"><g transform="translate(-466 -1266)"><g transform="translate(466 1266)"><g transform="translate(0 0)"><path d="M33.428,211.862c-15.493-20.881-19.469-51-10.11-75.462,2.246-5.872,5.224-11.563,6.044-17.819,2.052-15.67-9.779-30.4-8.636-46.167C21.682,59.21,33,47.652,45.8,46.814c6.485-.424,13.241,1.554,19.367-.684,6.106-2.23,10.113-8.087,14.631-12.879,6.478-6.872,14.9-12.058,24.1-13.363,14.48-2.055,28.819,5.678,39.42,16.07s18.419,23.379,27.607,35.119c3.878,4.955,8.123,9.793,13.534,12.852,10.611,6,19.42,16.652,21.3,28.993s-2.017,25.235-9.363,35.16c-3.106,4.2-6.855,8.009-8.866,12.864-3.451,8.33-1.138,17.828.234,26.776s1.2,18.259-5.473,24.139Z" transform="translate(-18.31 -19.556)" fill="#e5c3d1" opacity="0.2"/></g><g transform="translate(8.801 9.782)"><g transform="translate(0 85.326)"><path d="M83.007,379.645a22.543,22.543,0,0,0-7.363-4.284c-7.124-2.859-14.8-4.733-21-9.253a29.93,29.93,0,0,1-11.882-25.3c-.108-.436-.2-.876-.28-1.322-2.107,6.83-3.006,14.21-1.241,21.136s6.494,13.321,13.159,15.9c5.428,2.1,11.554,1.566,17.1,3.327a21.484,21.484,0,0,1,7.3,4.014,35.492,35.492,0,0,0,4.172,3.441,14.4,14.4,0,0,0,5.974,1.788c-.61-1.277-1.247-2.54-1.924-3.783A22.573,22.573,0,0,0,83.007,379.645Z" transform="translate(-40.299 -306.533)" fill="#7665a1"/><path d="M88.956,313.809c-4.523-8.988-14.8-13.282-21.984-20.324a37.316,37.316,0,0,1-10.181-33.061c-4,7.814-7.813,16.348-6,24.865a27,27,0,0,0,3.721,8.663,41.117,41.117,0,0,0,13.132,13.026c4.858,3,10.367,5.005,14.721,8.7,6.691,5.676,9.786,14.8,9.679,23.57-1.167-7.5-6.782-13.6-13.04-17.894s-13.341-7.277-19.625-11.537c-5.909-4.006-11.284-9.558-12.989-16.425a29.93,29.93,0,0,0,11.882,25.3c6.2,4.52,13.879,6.395,21,9.253a22.544,22.544,0,0,1,7.363,4.284,22.574,22.574,0,0,1,4.009,5.661c.677,1.242,1.314,2.506,1.924,3.783.534.058,1.069.1,1.6.136.735.046,1.482.072,2.226.059a114.207,114.207,0,0,1-3.924-14.918C91.618,322.481,91,317.875,88.956,313.809Z" transform="translate(-43.93 -259.119)" fill="#7678b8"/><path d="M194.482,305.981c1.042,7.058-.626,14.379-3.2,21.09-2.871,7.491-6.838,14.529-9.61,22.056-2.314,6.284-3.759,13.123-2.9,19.7a8.731,8.731,0,0,0,2.322-.917,14.259,14.259,0,0,0,3.744-3.576c7.081-8.8,12.721-19.036,14.573-30.178C201.013,324.549,199.535,314.222,194.482,305.981Z" transform="translate(-123.198 -286.442)" fill="#7678b8"/><path d="M117.1,319.851c2.772-7.527,6.739-14.566,9.61-22.056,2.573-6.711,4.241-14.033,3.2-21.09a32.829,32.829,0,0,0-2.7-3.785L130,277.406c-8.111,6.7-13.256,16.451-16.06,26.588s-3.444,20.734-3.856,31.244a105.771,105.771,0,0,0-1.327-20.026,52.348,52.348,0,0,0-5.68-17.143c-4.269-7.518-10.953-13.3-17.075-19.4s-11.986-13.06-13.842-21.5q-.336.648-.672,1.3A37.316,37.316,0,0,0,81.671,291.53c7.187,7.043,17.46,11.336,21.984,20.324,2.046,4.066,2.662,8.672,3.518,13.142a114.2,114.2,0,0,0,3.924,14.918,14.087,14.087,0,0,0,3.111-.366C113.345,332.974,114.79,326.135,117.1,319.851Z" transform="translate(-58.628 -257.165)" fill="#7665a1"/><path d="M136.391,461.867h-36.15l-8.005-25.451h44.155Z" transform="translate(-71.447 -364.668)" fill="#ef798a"/></g><g transform="translate(17.477 2.902)"><rect width="4.619" height="70.782" transform="translate(26.663 108.84)" fill="#604075"/><path d="M104.354,108.307a20.338,20.338,0,0,0-2.184-13.22c-1.106-2.091-2.453-4.143-4.81-4.347-3.007,2.737-5.124,6.554-5.124,14.309,0,6.783,2.507,10.9,5.087,14.412A19.333,19.333,0,0,0,104.354,108.307Z" transform="translate(-88.924 -74.931)" fill="#cfa8b4"/><path d="M142.229,131.892c-2.371-11.421-8.921-16.156-9.768-23.391s3.821-43.083,3.821-43.083-6.882-2.884-9.576-5.706-3.6-8.469-3.6-8.469H107.468s-.434,4.995-6.949,9.989c-2.862,2.194-5.765,3.676-8.122,5.821,2.357.2,3.7,2.256,4.81,4.347a20.338,20.338,0,0,1,2.184,13.22A19.333,19.333,0,0,1,92.36,95.774c2.681,3.652,5.442,6.659,5.553,11.339.217,9.183-5.863,8.84-11.292,23.168s-.869,31.69-.869,31.69S96.828,167,114.163,167s25.2-5.033,25.2-5.033S144.6,143.313,142.229,131.892Z" transform="translate(-83.961 -51.243)" fill="#e5c3d1"/><path d="M118.572,195.252a51.584,51.584,0,0,0,19.753,3.51c11.134-.247,14.894-4.469,14.894-4.469" transform="translate(-104.718 -137.035)" fill="none" stroke="#613f75" stroke-miterlimit="10" stroke-width="1" stroke-dasharray="2.983"/><path d="M158.324,51.243H142.689a9.467,9.467,0,0,0,15.635,0Z" transform="translate(-119.182 -51.243)" fill="#cfa8b4"/></g><g transform="translate(125.56 119.284)"><path d="M406.884,342l-8.073,9.142H353.989V342Z" transform="translate(-353.989 -342.004)" fill="#613f75"/><path d="M353.989,343.193h51.844l1.051-1.19H353.989Z" transform="translate(-353.989 -342.004)" fill="#7d82b8" opacity="0.26" style="mix-blend-mode:multiply;isolation:isolate"/><g transform="translate(0 9.142)"><path d="M353.989,392.044a351.506,351.506,0,0,0,44.822-13.027v15.374q-22.2,4.572-44.822,7.186Z" transform="translate(-353.989 -373.344)" fill="#7d96c6"/><path d="M353.989,364.843h44.822v5.673a351.5,351.5,0,0,1-44.822,13.028Z" transform="translate(-353.989 -364.843)" fill="#7d82b8"/><path d="M398.811,417.426v25.855c-4.678-.936-9.316-2.068-13.941-3.2l-30.881-7.555v-7.914Q376.576,422,398.811,417.426Z" transform="translate(-353.989 -396.379)" fill="#7d82b8"/><path d="M398.811,465.906v7.2H353.989V455.152l30.881,7.555C389.494,463.839,394.133,464.97,398.811,465.906Z" transform="translate(-353.989 -419.004)" fill="#7d96c6"/></g><path d="M398.81,371.11l-44.822,12.907,44.822-3.928L353.989,390.47l44.822,10.568L353.989,415.5" transform="translate(-353.989 -359.46)" fill="none" stroke="#613f75" stroke-linecap="round" stroke-linejoin="round" stroke-width="0.837"/><path d="M353.989,379.017l44.822,19.032-44.822,15.395,44.822,11.523" transform="translate(-353.989 -364.202)" fill="none" stroke="#613f75" stroke-linecap="round" stroke-linejoin="round" stroke-width="0.837"/></g><g transform="translate(74.531)"><rect width="71.463" height="93.581" transform="matrix(0.989, -0.146, 0.146, 0.989, 7.36, 17.916)" fill="#e5c3d1"/><g transform="translate(0)"><rect width="74.401" height="97.429" transform="translate(26.487 0) rotate(15.775)" fill="#f5e7ed"/><path d="M320.757,168.2l-9.783-2.763-9.783-2.763s-20.31,29.748-20.648,29.993,21.058,5.949,21.058,5.949,21.218,6.333,21.058,5.949S320.757,168.2,320.757,168.2Z" transform="translate(-258.91 -115.17)" fill="#ef798a"/><path d="M363.537,90.4l-5.472-1.546-10.933,15.25L345.8,85.392l-5.472-1.546-6.113,28.61,9.783,2.764,9.783,2.764Z" transform="translate(-291.098 -67.895)" fill="#ef798a"/><rect width="63.743" height="1.559" transform="translate(9.812 80.63) rotate(15.775)" fill="#e5c3d1"/><rect width="63.743" height="1.559" transform="translate(8.961 83.644) rotate(15.775)" fill="#e5c3d1"/><rect width="63.743" height="1.559" transform="translate(8.11 86.657) rotate(15.775)" fill="#e5c3d1"/><path d="M359.43,86.657l1.37,23.034,13.828-18.74-1.438-.406-10.933,15.25L360.92,87.078Z" transform="translate(-306.223 -69.58)" fill="#eb3059"/><path d="M349.794,168.2l-19.566-5.527-1.272,1.863,20.948,5.918Z" transform="translate(-287.947 -115.17)" fill="#eb3059"/><path d="M311.146,184.021l-15.074,23.354,1.856.516Z" transform="translate(-268.225 -127.972)" fill="#ef798a" style="mix-blend-mode:multiply;isolation:isolate"/><path d="M329.662,188.2,317.08,212.255l1.267.35Z" transform="translate(-280.824 -130.477)" fill="#ef798a" style="mix-blend-mode:multiply;isolation:isolate"/><path d="M353.126,190.824l-1.866,27.086L350,217.544Z" transform="translate(-300.565 -132.052)" fill="#ef798a" style="mix-blend-mode:multiply;isolation:isolate"/><path d="M368.26,194.293l.626,27.79-1.852-.531Z" transform="translate(-310.784 -134.133)" fill="#ef798a" style="mix-blend-mode:multiply;isolation:isolate"/><path d="M312.508,81.909l-4.269,18.658-17.123,22.246a27.535,27.535,0,0,1-.958-4.289C290.3,118.078,312.508,81.909,312.508,81.909Z" transform="translate(-264.671 -66.733)" fill="#ef798a"/><path d="M401.65,100.669l-6.077,18.151,3.024,27.909a27.545,27.545,0,0,0,3.053-3.161C401.764,143.114,401.65,100.669,401.65,100.669Z" transform="translate(-327.899 -77.984)" fill="#ef798a"/></g></g><g transform="translate(85.408 102.899)"><path d="M320.276,301.069l-10.165,11.51H253.677v-11.51Z" transform="translate(-253.677 -301.069)" fill="#7d82b8"/><path d="M253.677,302.567h65.276l1.323-1.5h-66.6Z" transform="translate(-253.677 -301.069)" fill="#7d82b8" opacity="0.26" style="mix-blend-mode:multiply;isolation:isolate"/><g transform="translate(0 11.51)"><path d="M310.111,364.075a442.559,442.559,0,0,1-56.434-16.4v19.357q27.951,5.757,56.434,9.048Z" transform="translate(-253.677 -340.529)" fill="#ef6381"/><path d="M310.111,329.826H253.677v7.143a442.559,442.559,0,0,0,56.434,16.4Z" transform="translate(-253.677 -329.826)" fill="#ef798a"/><path d="M253.677,396.033v32.553c5.89-1.178,11.729-2.6,17.553-4.028l38.882-9.512v-9.965Q281.672,401.795,253.677,396.033Z" transform="translate(-253.677 -369.533)" fill="#ef798a"/><path d="M253.677,457.073v9.062h56.434v-22.6l-38.882,9.512C265.406,454.47,259.567,455.895,253.677,457.073Z" transform="translate(-253.677 -398.02)" fill="#ef6381"/></g><path d="M253.677,337.717l56.434,16.25-56.434-4.946,56.434,13.071L253.677,375.4l56.434,18.213" transform="translate(-253.677 -323.048)" fill="none" stroke="#613f75" stroke-linecap="round" stroke-linejoin="round" stroke-width="1.053"/><path d="M310.111,347.672l-56.434,23.963,56.434,19.383-56.434,14.509" transform="translate(-253.677 -329.018)" fill="none" stroke="#613f75" stroke-linecap="round" stroke-linejoin="round" stroke-width="1.053"/></g><g transform="translate(47.499 5.565)"><g transform="translate(9.44)"><g transform="translate(4.784 40.692)"><path d="M204.18,166.414a1.389,1.389,0,0,1,.4.265c.011.013.019.028.029.042a3.664,3.664,0,1,1-3.724-5.625,13.4,13.4,0,0,0,2.2,4.288A3.705,3.705,0,0,0,204.18,166.414Z" transform="translate(-196.535 -160.48)" fill="none"/><path d="M198.683,159.558q.078.31.171.615a3.664,3.664,0,1,0,3.724,5.625,1.256,1.256,0,0,1,.12.214l.313.677a4.629,4.629,0,1,1-4.329-7.131Z" transform="translate(-194.503 -159.558)" fill="#7d82b8"/></g><g transform="translate(21.63 48.233)"><path d="M249.962,200.48a15.889,15.889,0,0,1-4,3.87,10.7,10.7,0,0,1-5.055,1.912,7.084,7.084,0,0,1-3.157-.474,4.793,4.793,0,0,1-1.162,1.965s2.768,5.4,7.481,5.813,9.4-3.6,7.466-6.366C250.755,206.087,250.268,203.352,249.962,200.48Z" transform="translate(-236.588 -191.642)" fill="#f7a9a8"/><path d="M242.648,193.019a10.7,10.7,0,0,0,5.055-1.912,15.89,15.89,0,0,0,4-3.87c-.453-4.268-.5-8.838-.5-8.838l-11.358,5.179a64.973,64.973,0,0,1,0,7.335,7.37,7.37,0,0,1-.351,1.633A7.084,7.084,0,0,0,242.648,193.019Z" transform="translate(-238.329 -178.399)" fill="#f78783"/></g><path d="M217.513,92.693c9.544.1,20.48,6.592,18.989,18.439s-8.152,25.89-17.994,26.081-20.58-17.674-18.392-32S217.513,92.693,217.513,92.693Z" transform="translate(-192.912 -78.72)" fill="#f7a9a8"/><g transform="translate(40.382 30.9)"><path d="M285.2,136.552a7.545,7.545,0,0,0-1.32,2.721,8.124,8.124,0,0,0-.234,4.382,4.2,4.2,0,0,0,2.922,3.06,4.277,4.277,0,0,0,3.845-1.318,9.207,9.207,0,0,0,2.03-3.683,6.982,6.982,0,0,0,.446-2.511C292.693,135.394,287.606,133.631,285.2,136.552Z" transform="translate(-283.437 -135.093)" fill="#f7a9a8"/><path d="M288.613,146.521a1.884,1.884,0,0,0,2.033-1.023,1.243,1.243,0,0,0,.195-.722,1.038,1.038,0,0,0-.9-.837,2.3,2.3,0,0,0-1.276.248,10.214,10.214,0,0,1,.491-2.346,3.428,3.428,0,0,1,1.475-1.832,2.088,2.088,0,0,1,2.262.113,2.877,2.877,0,0,1,.862,2,3.846,3.846,0,0,1-.369,2.4c-.636,1.612-1.49,3.323-2.9,3.281A2.107,2.107,0,0,1,288.613,146.521Z" transform="translate(-286.541 -137.875)" fill="#f7a9a8" opacity="0.5" style="mix-blend-mode:multiply;isolation:isolate"/><path d="M293.758,142.125a2.877,2.877,0,0,0-.862-2,2.088,2.088,0,0,0-2.262-.113,3.428,3.428,0,0,0-1.475,1.832,10.214,10.214,0,0,0-.491,2.346,2.3,2.3,0,0,1,1.276-.248,1.038,1.038,0,0,1,.9.837,1.243,1.243,0,0,1-.195.722,1.884,1.884,0,0,1-2.033,1.023" transform="translate(-286.541 -137.875)" fill="none" stroke="#613f75" stroke-miterlimit="10" stroke-width="1.127"/></g><path d="M235.249,142.893a26.48,26.48,0,0,1-2.8,9.553.492.492,0,0,0-.08.356.486.486,0,0,0,.272.25q1.146.595,2.338,1.1" transform="translate(-212.421 -108.871)" fill="none" stroke="#613f75" stroke-miterlimit="10" stroke-width="1"/><g transform="translate(17.886 46.742)"><path d="M232.492,175.791c-.178.015-.354.028-.528.036a9.038,9.038,0,0,1-4.728-1.154,8.3,8.3,0,0,0,3.743,2.827,6.171,6.171,0,0,1,1.168-1.436C232.257,175.967,232.373,175.877,232.492,175.791Z" transform="translate(-227.236 -174.673)" fill="#613f75"/><path d="M243.521,174.673a29.86,29.86,0,0,1-5.42,1.118c-.118.086-.235.176-.344.273a6.171,6.171,0,0,0-1.168,1.436,3.76,3.76,0,0,0,1.2.153C240.494,177.529,243.521,174.673,243.521,174.673Z" transform="translate(-232.845 -174.673)" fill="#ef555e"/></g><g transform="translate(3.283 29.539)"><path d="M199.819,131.694c-5.28,0-9.013,2.293-9.066,3.626a4.313,4.313,0,0,0,.027.564,11.276,11.276,0,0,1,5-2.214,13.787,13.787,0,0,1,8.553.528,13.947,13.947,0,0,1,3.847,2.763c.06-.39.1-.763.121-1.107C208.363,134.8,205.1,131.694,199.819,131.694Z" transform="translate(-190.751 -131.694)" fill="#613f75"/><path d="M195.82,135.991a11.275,11.275,0,0,0-5,2.214c.229,2.293,1.935,9.116,8.372,9.116,6.377,0,8.505-4.689,9.024-8.039a13.947,13.947,0,0,0-3.847-2.763A13.787,13.787,0,0,0,195.82,135.991Z" transform="translate(-190.794 -134.015)" fill="#fff" opacity="0.3" style="mix-blend-mode:overlay;isolation:isolate"/></g><g transform="translate(24.433 29.539)"><path d="M252.072,131.694c5.28,0,9.013,2.293,9.066,3.626a4.319,4.319,0,0,1-.027.564,11.275,11.275,0,0,0-5-2.214,13.787,13.787,0,0,0-8.553.528,13.948,13.948,0,0,0-3.847,2.763c-.06-.39-.1-.763-.121-1.107C243.528,134.8,246.792,131.694,252.072,131.694Z" transform="translate(-243.592 -131.694)" fill="#613f75"/><path d="M256.3,135.991a11.275,11.275,0,0,1,5,2.214c-.229,2.293-1.935,9.116-8.372,9.116-6.377,0-8.505-4.689-9.024-8.039a13.948,13.948,0,0,1,3.847-2.763A13.787,13.787,0,0,1,256.3,135.991Z" transform="translate(-243.775 -134.015)" fill="#fff" opacity="0.3" style="mix-blend-mode:overlay;isolation:isolate"/></g><path d="M233.644,147.1a6.378,6.378,0,0,1,4.412.233" transform="translate(-213.193 -111.22)" fill="none" stroke="#5c3a75" stroke-miterlimit="10" stroke-width="1"/><path d="M256.63,168.922c0,.771-1.05,1.4-2.346,1.4s-2.346-.625-2.346-1.4,1.05-1.4,2.346-1.4S256.63,168.15,256.63,168.922Z" transform="translate(-224.164 -123.644)" fill="#f38d8b"/><path d="M222.5,168.922c0,.771-1.05,1.4-2.346,1.4s-2.346-.625-2.346-1.4,1.05-1.4,2.346-1.4S222.5,168.15,222.5,168.922Z" transform="translate(-203.698 -123.644)" fill="#f38d8b"/><path d="M255.324,134.849a7.913,7.913,0,0,0-3.334-3.229,4.957,4.957,0,0,0-4.529.065" transform="translate(-221.479 -101.802)" fill="none" stroke="#604075" stroke-miterlimit="10" stroke-width="3"/><path d="M211.711,134.849a7.913,7.913,0,0,1,3.334-3.229,4.957,4.957,0,0,1,4.529.065" transform="translate(-200.039 -101.802)" fill="none" stroke="#604075" stroke-miterlimit="10" stroke-width="3"/><g transform="translate(38.613 40.692)"><path d="M279.018,164.6a3.645,3.645,0,0,0,.611,2.024c.01-.014.017-.029.028-.042a1.391,1.391,0,0,1,.4-.265,3.709,3.709,0,0,0,1.09-1.03,13.388,13.388,0,0,0,2.2-4.288,3.654,3.654,0,0,0-4.335,3.6Z" transform="translate(-279.018 -160.384)" fill="none"/><path d="M280.975,166.414a1.391,1.391,0,0,0-.4.265c-.011.013-.018.028-.028.042a3.664,3.664,0,1,0,3.724-5.625,13.389,13.389,0,0,1-2.2,4.288A3.71,3.71,0,0,1,280.975,166.414Z" transform="translate(-279.934 -160.48)" fill="none"/><path d="M283.79,159.558q-.078.31-.171.615A3.663,3.663,0,1,1,279.9,165.8a1.23,1.23,0,0,0-.12.214l-.313.677a4.628,4.628,0,1,0,4.329-7.131Z" transform="translate(-279.284 -159.558)" fill="#7d82b8"/></g><path d="M253.541,74.359a2.194,2.194,0,0,0,.322.2A3.717,3.717,0,0,0,253.541,74.359Z" transform="translate(-225.126 -67.769)" fill="#613f75"/><path d="M232.387,80.753c-.23-4.638-3.542-5.549-3.542-5.549s2.65-5.466-.828-8.2-11.346-1.16-14.907-3.561-3.561-5.549-3.561-5.549a5.626,5.626,0,0,0-.331,4.224,5.438,5.438,0,0,0,1.749,2.366,3.721,3.721,0,0,1,.322.2,2.194,2.194,0,0,1-.322-.2c-.857-.489-3.464-1.671-8.043-1.206-5.715.58-8.033,3.4-8.033,3.4s-6.542.911-9.027,4.389a22.163,22.163,0,0,0-3.313,7.122l2.981-2.567s-1.875,3.68-.409,6.463a4.642,4.642,0,0,1,1.481-1.27c1.4-.751,3.093-.748,4.57-1.343,2.5-1.005,4.039-3.549,6.372-4.888,3.078-1.768,6.913-1.16,10.4-.5A16.681,16.681,0,0,1,212.5,75.4a11.173,11.173,0,0,0-3.655-4.033,22.438,22.438,0,0,1,7.832,2.933,3.8,3.8,0,0,1,1.824,1.9,20.286,20.286,0,0,0-.729-4.541,6.806,6.806,0,0,0-2.607-3.693c2.44.751,4.939,1.9,6.3,4.058a11.854,11.854,0,0,1,1.174,2.791A75.035,75.035,0,0,1,225,84.523a9.358,9.358,0,0,0-.476-7.939c2.412,1.429,3.707,4.27,3.974,7.062a34.964,34.964,0,0,1-.643,8.38l2.114.112S232.616,85.391,232.387,80.753Z" transform="translate(-182.55 -57.896)" fill="#593270"/><path d="M232.356,98.727c-.267-2.791-1.561-5.633-3.974-7.062a9.358,9.358,0,0,1,.476,7.939,75.032,75.032,0,0,0-2.369-9.713,11.855,11.855,0,0,0-1.174-2.791c-1.362-2.159-3.861-3.307-6.3-4.058a6.807,6.807,0,0,1,2.607,3.693,20.285,20.285,0,0,1,.729,4.541,3.8,3.8,0,0,0-1.824-1.9,22.438,22.438,0,0,0-7.832-2.933,11.172,11.172,0,0,1,3.655,4.033,16.681,16.681,0,0,0-4.551-1.319c-3.487-.66-7.322-1.268-10.4.5-2.333,1.34-3.877,3.883-6.372,4.888-1.477.6-3.166.592-4.57,1.343a4.642,4.642,0,0,0-1.481,1.27,4.306,4.306,0,0,0,.243.411c1.9,2.816,4.189,8.042,4.172,7.794s.215-5.9.215-5.9a24.063,24.063,0,0,0,10.023-.235A38.4,38.4,0,0,0,213.9,94.262l-3.561,4.555a56.013,56.013,0,0,0,8.862-1.491,29.687,29.687,0,0,0,7.122-3.23,20.082,20.082,0,0,0-.082,7.04,42.465,42.465,0,0,0,1.4,5.756l4.077.216A34.963,34.963,0,0,0,232.356,98.727Z" transform="translate(-186.404 -72.978)" fill="#613f75"/></g><path d="M191.153,362.086c.71.606,1.65,1.21,2.513.855a2.347,2.347,0,0,0,1.038-1.061c1.952-3.335,1.518-7.527.626-11.288-1.128-4.757-4.7-12.17-10.894-9.621-5.216,2.145-1.544,9.772.272,13.12A28.2,28.2,0,0,0,191.153,362.086Z" transform="translate(-172.631 -227.354)" fill="#f7a9a8"/><path d="M211.56,217.268a97.961,97.961,0,0,0,12.277,8.369c6.617,3.733,9.67,9.67,7.635,20.868s-5.6,30.877-5.6,30.877l15.238,53.055-71.177.651,12.724-51.119s-11.087-32.032-3.495-44.339c5.7-9.239,17.45-17.808,17.45-17.808Z" transform="translate(-165.544 -153.477)" fill="#613f75"/><path d="M200.795,370.038a109.438,109.438,0,0,0,20.036,1.473,85.338,85.338,0,0,0,23.179-4.059l1.625,3.708s-12.4,3.312-24.24,3.171a145.188,145.188,0,0,1-21.219-1.8Z" transform="translate(-183.68 -243.547)" fill="#7d82b8"/><g transform="translate(28.874 56.226)"><path d="M247.494,211.932a12.989,12.989,0,0,1-6,1.219,54.367,54.367,0,0,1-6.952-.495l-3.3,3.775a9.81,9.81,0,0,0,9.41,3.555c6.2-1,8.365-5.372,8.365-5.372l-.686-.547Z" transform="translate(-231.182 -206.502)" fill="#7d82b8"/><path d="M280.784,199.459c.588-.387,1.244-.668,1.806-1.092a3.613,3.613,0,0,1-.277,3.686,4.528,4.528,0,0,1-1.744,1.389c-.434.207-1.581.765-2.069.556-.59-.252-.231-.9-.05-1.447A5.934,5.934,0,0,1,280.784,199.459Z" transform="translate(-259.333 -198.367)" fill="#7d82b8"/><path d="M283.13,214.133c.686.156,1.343.435,2.038.547a3.613,3.613,0,0,1-2.852,2.352,4.529,4.529,0,0,1-2.21-.3c-.45-.17-1.646-.612-1.833-1.108-.227-.6.489-.789,1.009-1.038A5.933,5.933,0,0,1,283.13,214.133Z" transform="translate(-259.366 -207.739)" fill="#7d82b8"/><path d="M273.838,212.764a1.251,1.251,0,1,1-1.543-.866A1.251,1.251,0,0,1,273.838,212.764Z" transform="translate(-255.26 -206.454)" fill="#613f75"/><path d="M274.378,212.764a1.251,1.251,0,1,1-1.543-.866A1.251,1.251,0,0,1,274.378,212.764Z" transform="translate(-255.584 -206.454)" fill="#7d82b8"/><path d="M250.377,214.927a4.585,4.585,0,0,1-1.349.7,24.435,24.435,0,0,1-5.955,1.335,17.152,17.152,0,0,1-3.8.037,6.783,6.783,0,0,1-3.137-.91" transform="translate(-234.123 -208.299)" fill="none" stroke="#613f75" stroke-miterlimit="10" stroke-width="1"/><path d="M247.641,216.475a12.6,12.6,0,0,1-1.571,1.737,15.227,15.227,0,0,1-7.595,3.25,12.606,12.606,0,0,1-7.373-2.212" transform="translate(-231.102 -209.227)" fill="none" stroke="#613f75" stroke-miterlimit="10" stroke-width="1"/></g><g transform="translate(40.862 75.563)"><path d="M314.984,277.292c1.031-3.712,1.871-7.069,2.31-9.518,1.894-10.576-4.1-17.653-8.155-21.1l-4.31,25.363A18.145,18.145,0,0,1,314.984,277.292Z" transform="translate(-287.306 -246.678)" fill="#604075"/><path d="M278.575,310.042l-2.667,15.694s-11.645-14.368-11.92-14.552-2.936,6.7-2.936,6.7a62.862,62.862,0,0,0,7.146,13.432c6.061,8.969,11.58,12.524,11.58,12.524s5.531-16.232,8.952-28.549A18.145,18.145,0,0,0,278.575,310.042Z" transform="translate(-261.052 -284.679)" fill="#f7a9a8"/><path d="M298.047,349.033a26.513,26.513,0,0,1,5.117,6.42" transform="translate(-283.239 -308.064)" fill="none" stroke="#604075" stroke-miterlimit="10" stroke-width="1"/></g><g transform="translate(0.18 74.764)"><path d="M170.2,295.121h32.333l-8.088-42.389H162.113Z" transform="translate(-161.033 -249.509)" fill="#e5c3d1"/><path d="M167.5,295.121h32.333l-8.088-42.389H159.416Z" transform="translate(-159.416 -249.509)" fill="#7d82b8"/><path d="M195.195,247.9H178.869l-.338-1.772a1.227,1.227,0,0,1,1.322-1.451h13.128a1.935,1.935,0,0,1,1.876,1.451Z" transform="translate(-170.865 -244.68)" fill="#ef798a"/></g><path d="M234.078,305.926a1.841,1.841,0,0,0-1.324-.911,5.892,5.892,0,0,0-1.659,0,18.877,18.877,0,0,1-8.836-.931,1.274,1.274,0,0,1-.558-.364.472.472,0,0,1,.008-.614.7.7,0,0,1,.407-.131l7.693-.78c-3.76-.044-7.634-.486-10.92-2.313-.324-.18-.685-.565-.458-.857a.607.607,0,0,1,.423-.182,7.463,7.463,0,0,1,2.174.193,29.3,29.3,0,0,0,8.623.223c-1.509-.123-3.02-.246-4.524-.42A19.455,19.455,0,0,1,220.96,298a22.762,22.762,0,0,1-4.248-2.183c-.287-.174-.608-.544-.374-.785a.556.556,0,0,1,.44-.105,19.1,19.1,0,0,1,2.525.373l8.264,1.6a2.975,2.975,0,0,0,1.68,0,24.135,24.135,0,0,1-11.06-3.728c-.61-.392-1.272-.945-1.223-1.669a19.651,19.651,0,0,1,5.176,1.123,22.8,22.8,0,0,0,8.346,1.143l-.722-3.784s4.491-.213,5.729,2.657a26.429,26.429,0,0,1,1.631,6.514Z" transform="translate(-193.325 -197.081)" fill="#f7a9a8"/><path d="M162.818,305.338a11.379,11.379,0,0,0,6.825-.931,1.006,1.006,0,0,0,.431-.364.581.581,0,0,0-.006-.614.461.461,0,0,0-.315-.131l-5.942-.78a14.367,14.367,0,0,0,8.434-2.313c.25-.18.529-.565.353-.857a.427.427,0,0,0-.327-.182,4.5,4.5,0,0,0-1.679.193,17.552,17.552,0,0,1-6.66.223c1.166-.123,2.332-.246,3.494-.42a12.092,12.092,0,0,0,3.219-.841,16.562,16.562,0,0,0,3.281-2.183c.222-.174.47-.544.289-.785a.358.358,0,0,0-.339-.105,11.655,11.655,0,0,0-1.951.373l-6.382,1.6a1.8,1.8,0,0,1-1.3,0,16.012,16.012,0,0,0,8.541-3.728,2.134,2.134,0,0,0,.945-1.669,12.286,12.286,0,0,0-4,1.123,16.4,16.4,0,0,1-7,1.259l-.7-3.659s-1.658-.453-2.615,2.417S158.756,304.859,162.818,305.338Z" transform="translate(-158.966 -197.408)" fill="#f7a9a8"/><line x1="2.84" y2="16.714" transform="translate(58.384 84.212)" fill="none" stroke="#7d82b8" stroke-miterlimit="10" stroke-width="1"/><ellipse cx="1.388" cy="1.958" rx="1.388" ry="1.958" transform="translate(24.366 34.242)" fill="#613f75"/><ellipse cx="1.388" cy="1.958" rx="1.388" ry="1.958" transform="translate(38.935 34.242)" fill="#613f75"/></g></g></g></g></svg>