<svg xmlns="http://www.w3.org/2000/svg" xmlns:xlink="http://www.w3.org/1999/xlink" width="543.416" height="372.288" viewBox="0 0 543.416 372.288"><defs><clipPath id="a"><path d="M152.415,176.057s-22.606,2.31-24.029,21.029,7.984,96.356,7.984,96.356l61.623-3.934-5.809-88a27.26,27.26,0,0,0-4.26-13.391c-2.363-3.691-5.131-7.875-6.7-8.071l-25.349-6.517Z" transform="translate(-128.239 -173.533)" fill="none"/></clipPath><clipPath id="b"><path d="M151.46,192.226s-5.693-15.987-16.673-9.256-1.065,56.07,5.035,62.8l30.812-22.945Z" transform="translate(-129.854 -181.316)" fill="none"/></clipPath></defs><g transform="translate(-70.961 -40.157)"><g transform="translate(153.706 122.432)"><path d="M168.806,185.815s-.573-4.645,3.721-5.321,17.045-4.589,48.184-1.638c0,0,5.117-26.226,5.167-28.531.13-6,2.031-13.788,6.674-17.9.381-.337.657,14.878.824,23,0,0,3.918,40.879-.861,44.988S164.054,199.821,168.806,185.815Z" transform="translate(-164.269 -132.419)" fill="#d1744f"/><path d="M203.817,183.328c-19.1-.447-27.875,2.134-31.289,2.671-4.295.676-3.721,5.321-3.721,5.321-3.186,9.388,24.383,14.595,44.344,15.769A232.533,232.533,0,0,1,203.817,183.328Z" transform="translate(-164.269 -137.924)" fill="#944438"/><path d="M179.887,177.975s-16.611-2.756-16.128,10.2,32.851,21.744,41.647,19.64l.035-27.986Z" transform="translate(-163.749 -137.323)" fill="#ffe18f"/><g transform="translate(15.245 40.561)"><path d="M187.461,177.94c-2.313.788-5.4,1.681-6.3,4.253a5.2,5.2,0,0,0,3.227,6.711c3.515,1.331,7.2-.447,10.731-.751a22.085,22.085,0,0,1,11.322,2.039c.713.336,1.339-.726.622-1.064a23.58,23.58,0,0,0-8.665-2.249,22.723,22.723,0,0,0-4.592.194c-1.656.238-3.266.718-4.92.958-2.829.409-6.857-.371-6.8-3.994.05-3.144,3.216-4.061,5.7-4.907.746-.255.425-1.446-.328-1.189Z" transform="translate(-180.845 -177.904)" fill="#fbf3e8"/></g><path d="M206.592,208.286c-2.583,3.1-27.857-3.4-30.628-7.625,0,0-.432-14.147.645-14.438C187.582,183.248,206.592,208.286,206.592,208.286Z" transform="translate(-165.062 -138.216)" fill="#ffc557"/></g><g transform="translate(465.628 250.282)"><g transform="translate(52.966 53.528)"><path d="M578.842,385.525a126.788,126.788,0,0,1-3.724-49.1c.1-.818-1.186-.811-1.283,0a127.741,127.741,0,0,0,3.77,49.443.642.642,0,0,0,1.237-.341Z" transform="translate(-572.927 -335.812)" fill="#34755a"/></g><path d="M552.656,377.888a19.262,19.262,0,0,1-21.278-10.759,28.135,28.135,0,0,0,12.02,1.085c-12.36-3.663-20-16.062-24.191-28.255a105.008,105.008,0,0,1-5.665-35.486l10.029,9.2c-3.212-3.332-6.487-6.752-8.384-10.972s-2.181-9.47.474-13.26a171.226,171.226,0,0,1,28.414,21.017,6.522,6.522,0,0,1,2.039,2.665,6.667,6.667,0,0,1-.306,3.771q-2.012,7.159-4.025,14.317a64.293,64.293,0,0,1,7.661-11.9,87.331,87.331,0,0,1,13.945,60.616" transform="translate(-513.532 -277.265)" fill="#34755a"/><path d="M579.546,383.118a55.783,55.783,0,0,1,5.1-24.811c2.747-5.944,7.944-12.081,14.443-11.287,3.771.46,6.827,3.184,9.505,5.879a147.6,147.6,0,0,1,22.165,28.593c2.928,4.924,5.625,10.216,5.978,15.933-9.8-8.19-11.734-23.871-22.789-30.259-1.049-.606-2.486-1.069-3.374-.245-2.43,2.257,4.76,6.129,2.462,8.52l-8.682-9a5.115,5.115,0,0,0-2.276-1.616c-1.538-.383-3.025.7-4.207,1.759a71.648,71.648,0,0,0-14.736,18.349" transform="translate(-520.675 -283.49)" fill="#34755a"/><path d="M573.2,340.285a77.613,77.613,0,0,1,9.363-35.179,42.131,42.131,0,0,0,1.24,18.952c-.256-8.158-.308-17.009,4.552-23.567a33.707,33.707,0,0,1,7.662-6.933,206.606,206.606,0,0,1,29.6-17.77q-3.2,12.2-6.4,24.4a2.339,2.339,0,0,1-2.908,2.15l-10.6-.085a20.689,20.689,0,0,0,8.13,4.144c.816.207,1.777.474,2.055,1.269a2.4,2.4,0,0,1-.319,1.763,60.512,60.512,0,0,1-41.291,32.73" transform="translate(-519.99 -275.787)" fill="#34755a"/><g transform="translate(13.266 19.658)" opacity="0.3"><g transform="translate(6.031 8.295)"><path d="M535.175,307.6a73.974,73.974,0,0,1,.552,15.844c-.034.475.705.473.739,0a74.809,74.809,0,0,0-.579-16.04c-.067-.469-.779-.27-.712.2Z" transform="translate(-535.171 -307.134)" fill="#fbf3e8"/></g><g transform="translate(9.727 12.139)"><path d="M540.951,311.8q-.817,7.2-1.634,14.4c-.053.472.687.468.739,0q.817-7.2,1.634-14.4c.054-.473-.687-.468-.739,0Z" transform="translate(-539.315 -311.443)" fill="#fbf3e8"/></g><g transform="translate(0 18.03)"><path d="M561.569,375.347a227.119,227.119,0,0,0-24.017-45.5q-4.081-5.967-8.537-11.665c-.293-.375-.812.152-.523.523a226.39,226.39,0,0,1,26.591,43.362q3.106,6.644,5.772,13.481c.171.438.886.247.713-.2Z" transform="translate(-528.408 -318.05)" fill="#fbf3e8"/></g><g transform="translate(57.55 3.784)"><path d="M593.684,318.356l1.52-15.927c.045-.474-.695-.471-.739,0l-1.52,15.927c-.046.474.694.471.739,0Z" transform="translate(-592.943 -302.075)" fill="#fbf3e8"/></g><g transform="translate(60.418)"><path d="M600.07,298.08a62.557,62.557,0,0,0-3.909,16.008c-.052.473.688.469.739,0a61.878,61.878,0,0,1,3.882-15.812c.173-.443-.541-.636-.713-.2Z" transform="translate(-596.159 -297.831)" fill="#fbf3e8"/></g><g transform="translate(42.537 12.835)"><path d="M576.784,341.733a62.971,62.971,0,0,1,26.929-28.823c.417-.227.045-.866-.374-.638a63.632,63.632,0,0,0-27.194,29.087c-.2.429.44.805.638.374Z" transform="translate(-576.108 -312.224)" fill="#fbf3e8"/></g><g transform="translate(63.534 51.543)"><path d="M599.762,356.262,608.1,364.6a.37.37,0,0,0,.523-.523l-8.343-8.343a.37.37,0,0,0-.523.523Z" transform="translate(-599.653 -355.63)" fill="#fbf3e8"/></g><g transform="translate(67.98 50.953)"><path d="M604.808,355.67a104.435,104.435,0,0,1,19.884,17.1c.319.354.841-.17.523-.523a105.163,105.163,0,0,0-20.034-17.214c-.4-.263-.769.376-.373.638Z" transform="translate(-604.639 -354.969)" fill="#fbf3e8"/></g><g transform="translate(49.91 51.282)"><path d="M604.594,356.4a7.5,7.5,0,0,0-7.373-.179c-2.715,1.31-4.534,3.909-5.9,6.506a78.436,78.436,0,0,0-6.938,19.71c-.1.464.611.663.712.2a83.379,83.379,0,0,1,6.054-17.9,18.539,18.539,0,0,1,4.785-6.835c2.316-1.846,5.7-2.546,8.283-.86.4.261.77-.379.374-.638Z" transform="translate(-584.376 -355.338)" fill="#fbf3e8"/></g></g><path d="M0,0H66.143a0,0,0,0,1,0,0V44.3A19.391,19.391,0,0,1,46.753,63.694H19.391A19.391,19.391,0,0,1,0,44.3V0A0,0,0,0,1,0,0Z" transform="translate(21.673 93.965)" fill="#944438"/><path d="M586.687,444.85H555.127a17.292,17.292,0,0,1-17.292-17.291v-46.4" transform="translate(-516.162 -287.192)" fill="#d1744f"/></g><g transform="translate(188.358 40.157)"><g transform="translate(0 23.207)"><path d="M482.3,90.823A24.643,24.643,0,0,0,457.66,66.181l-223.6.145A31.477,31.477,0,0,0,202.607,97.8V377.955a34.5,34.5,0,0,0,34.5,34.5h187.04l59.17-.823Z" transform="translate(-202.607 -66.181)" fill="#fbf3e8"/></g><path d="M236.231,452c9.232,0,22.617-12.4,22.617-21.634H513.537S512.554,452,487.97,452H236.231" transform="translate(-206.246 -82.394)" fill="#361274"/><g transform="translate(59.111)"><g transform="translate(1.49 31.008)" style="mix-blend-mode:multiply;isolation:isolate"><circle cx="6.556" cy="6.556" r="6.556" transform="translate(0 3.022) rotate(-13.325)" fill="#f7ead7"/><circle cx="6.556" cy="6.556" r="6.556" transform="translate(64.574 3.022) rotate(-13.325)" fill="#f7ead7"/><circle cx="6.556" cy="6.556" r="6.556" transform="translate(127.727 3.022) rotate(-13.325)" fill="#f7ead7"/></g><path d="M291.59,85.551a22.685,22.685,0,0,1-18.82-10.006l3.267-2.206a18.757,18.757,0,1,0-3.2-10.484h-3.942a22.7,22.7,0,1,1,22.7,22.7Z" transform="translate(-268.893 -40.157)" fill="#361274"/><g transform="translate(63.919)"><path d="M363.267,85.551a22.684,22.684,0,0,1-18.82-10.006l3.267-2.206a18.757,18.757,0,1,0-3.2-10.484H340.57a22.7,22.7,0,1,1,22.7,22.7Z" transform="translate(-340.57 -40.157)" fill="#361274"/></g><g transform="translate(127.836)"><path d="M434.943,85.551a22.683,22.683,0,0,1-18.82-10.006l3.267-2.206a18.758,18.758,0,1,0-3.2-10.484h-3.943a22.7,22.7,0,1,1,22.7,22.7Z" transform="translate(-412.246 -40.157)" fill="#361274"/></g></g><g transform="translate(29.842 66.463)"><g transform="translate(166.639 184.76)"><rect width="47.255" height="17.656" transform="translate(0 23.368)" fill="#d2bef6"/><path d="M0,0H47.255V17.656H0Z" transform="translate(0.273)" fill="#7b1fa2"/></g><g transform="translate(0.326 0)"><g transform="translate(27.046 41.684)"><g transform="translate(0 5.628)"><path d="M306.549,219.85H266.765V167.742h52.108v39.784Z" transform="translate(-266.765 -167.742)" fill="#ba68c8"/><path d="M311.082,224.387c3.22-4.684.586-12,.586-12l12-.029S315.042,226.2,311.082,224.387Z" transform="translate(-271.562 -172.571)" fill="#673ab7"/></g><rect width="24.59" height="9.646" transform="translate(12.525)" fill="#ffe18f"/></g><g transform="translate(0 5.628)"><path d="M276.22,173.107H236.436V121h52.108v39.783Z" transform="translate(-236.436 -120.999)" fill="#7986cb"/><path d="M280.753,177.643c3.22-4.684.586-12,.586-12l12-.029S284.713,179.451,280.753,177.643Z" transform="translate(-241.233 -125.828)" fill="#7986cb"/></g><rect width="24.59" height="9.646" transform="translate(12.525)" fill="#ffe18f"/></g><g transform="translate(15.412 7.515)"><g transform="translate(77.867)"><path d="M389.717,241.588H340.672V192.25l.29.052a7.744,7.744,0,0,0,7.375-2.193c11.233-11.709.1-62.939-.01-63.455l-.048-.222,10.783-3.316.038.289c.039.3,4.231,29.855,29.825,29.855v.493c-24.654,0-29.765-26.9-30.27-30l-9.8,3.014c.906,4.178,10.986,52.056-.165,63.68a8.15,8.15,0,0,1-7.527,2.385v48.261h48.552Z" transform="translate(-340.672 -123.115)" fill="#064260"/><g transform="translate(48.676 8.656)" opacity="0.49"><path d="M395.625,136.517a.369.369,0,0,1-.369-.369v-2.957a.369.369,0,1,1,.738,0v2.957A.369.369,0,0,1,395.625,136.517Z" transform="translate(-395.256 -132.822)" fill="#064260"/><g transform="translate(0 9.143)"><path d="M395.625,248.973a.37.37,0,0,1-.369-.37v-6.186a.369.369,0,1,1,.738,0V248.6A.37.37,0,0,1,395.625,248.973Zm0-12.373a.369.369,0,0,1-.369-.369v-6.185a.369.369,0,1,1,.738,0v6.185A.369.369,0,0,1,395.625,236.6Zm0-12.371a.369.369,0,0,1-.369-.369v-6.185a.369.369,0,1,1,.738,0v6.185A.369.369,0,0,1,395.625,224.229Zm0-12.371a.369.369,0,0,1-.369-.369V205.3a.369.369,0,1,1,.738,0v6.186A.369.369,0,0,1,395.625,211.857Zm0-12.372a.369.369,0,0,1-.369-.369v-6.185a.369.369,0,1,1,.738,0v6.185A.369.369,0,0,1,395.625,199.485Zm0-12.371a.369.369,0,0,1-.369-.369v-6.185a.369.369,0,0,1,.738,0v6.185A.369.369,0,0,1,395.625,187.114Zm0-12.371a.369.369,0,0,1-.369-.369v-6.185a.369.369,0,1,1,.738,0v6.185A.369.369,0,0,1,395.625,174.742Zm0-12.372a.369.369,0,0,1-.369-.369v-6.185a.369.369,0,1,1,.738,0V162A.369.369,0,0,1,395.625,162.37Zm0-12.371a.369.369,0,0,1-.369-.369v-6.185a.369.369,0,1,1,.738,0v6.185A.369.369,0,0,1,395.625,150Z" transform="translate(-395.256 -143.075)" fill="#064260"/></g><g transform="translate(0 120.488)"><path d="M395.625,271.63a.369.369,0,0,1-.369-.369V268.3a.369.369,0,1,1,.738,0v2.956A.369.369,0,0,1,395.625,271.63Z" transform="translate(-395.256 -267.935)" fill="#064260"/></g></g><g transform="translate(25.618 87.074)"><rect width="1.19" height="30.813" fill="#064260"/></g></g><g transform="translate(0 165.776)"><g transform="translate(10.744)"><path d="M281,376.623l.033-.378c0-.053.4-5.355-5.308-12.484-1.034-1.293-2.008-2.4-2.951-3.475-3.546-4.034-6.275-7.141-7.107-14.782H265.4c0-.948.02-1.841.059-2.686-.039-.845-.059-1.739-.059-2.686h.263c.832-7.641,3.562-10.747,7.107-14.783.943-1.073,1.917-2.182,2.951-3.474,5.719-7.149,5.313-12.432,5.308-12.484l-.034-.379,86.1,12.792v42.027l-.256.038Zm-14.941-33.8c.425,9.4,3.173,12.532,7.164,17.074.947,1.077,1.926,2.192,2.969,3.495,5.06,6.325,5.451,11.177,5.45,12.536l84.855-12.607v-41L281.64,309.712c0,1.36-.39,6.211-5.45,12.537-1.042,1.3-2.022,2.418-2.969,3.495C269.23,330.286,266.483,333.412,266.057,342.818Z" transform="translate(-265.402 -309.012)" fill="#064260"/></g><g transform="translate(0 31.308)" opacity="0.49"><path d="M380.142,344.719h-2.037a.3.3,0,1,1,0-.6h2.037a.3.3,0,1,1,0,.6Zm-6.824,0h-4.787a.3.3,0,0,1,0-.6h4.787a.3.3,0,0,1,0,.6Zm-9.574,0h-4.786a.3.3,0,0,1,0-.6h4.786a.3.3,0,1,1,0,.6Zm-9.573,0h-4.786a.3.3,0,1,1,0-.6h4.786a.3.3,0,1,1,0,.6Zm-9.573,0h-4.786a.3.3,0,0,1,0-.6H344.6a.3.3,0,0,1,0,.6Zm-9.573,0h-4.787a.3.3,0,0,1,0-.6h4.787a.3.3,0,1,1,0,.6Zm-9.573,0h-4.787a.3.3,0,0,1,0-.6h4.787a.3.3,0,0,1,0,.6Zm-9.574,0h-4.786a.3.3,0,0,1,0-.6h4.786a.3.3,0,1,1,0,.6Zm-9.572,0h-4.787a.3.3,0,0,1,0-.6h4.787a.3.3,0,0,1,0,.6Zm-9.574,0h-4.786a.3.3,0,0,1,0-.6h4.786a.3.3,0,0,1,0,.6Zm-9.573,0h-4.786a.3.3,0,1,1,0-.6h4.786a.3.3,0,0,1,0,.6Zm-9.573,0H272.8a.3.3,0,0,1,0-.6h4.787a.3.3,0,0,1,0,.6Zm-9.573,0h-4.787a.3.3,0,0,1,0-.6h4.787a.3.3,0,0,1,0,.6Zm-9.573,0h-4.787a.3.3,0,0,1,0-.6h4.787a.3.3,0,0,1,0,.6Z" transform="translate(-253.354 -344.12)" fill="#064260"/></g></g><g transform="translate(48.913 121.47)"><path d="M308.518,260.462A24.314,24.314,0,0,1,319.8,293.135c-.345.71.717,1.336,1.064.622A25.55,25.55,0,0,0,309.139,259.4c-.709-.349-1.334.714-.622,1.064Z" transform="translate(-308.203 -259.329)" fill="#064260"/><g transform="translate(7.148 23.758)"><path d="M316.276,286.915a32.6,32.6,0,0,1,2.625,11.521.625.625,0,0,0,1.052.435l11.555-9.42c.614-.5-.261-1.369-.871-.871L319.082,298l1.051.436a34.251,34.251,0,0,0-2.794-12.142c-.314-.727-1.375-.1-1.064.622Z" transform="translate(-316.22 -285.971)" fill="#064260"/></g></g><g transform="translate(70.487 44.284)"><path d="M332.992,174.006h29.5a.616.616,0,0,0,0-1.232h-29.5a.616.616,0,0,0,0,1.232Z" transform="translate(-332.397 -172.774)" fill="#064260"/></g><g transform="translate(96.061 36.393)"><path d="M361.151,164.869a20.753,20.753,0,0,0,6.4,8.073l-.125-.968a37.5,37.5,0,0,1-6.092,5.805c-.625.473-.012,1.543.622,1.064a38.835,38.835,0,0,0,6.341-6,.63.63,0,0,0-.125-.968,19.556,19.556,0,0,1-5.96-7.631c-.32-.724-1.382-.1-1.064.622Z" transform="translate(-361.075 -163.925)" fill="#064260"/></g></g><g transform="translate(0 4.3)"><circle cx="7.368" cy="7.368" r="7.368" transform="translate(131.144 10.419) rotate(-45)" fill="#673ab7"/><circle cx="7.368" cy="7.368" r="7.368" transform="translate(0 194.356) rotate(-13.331)" fill="#b492f1"/></g></g></g><g transform="translate(407.032 118.812)"><g transform="translate(61.306)"><g transform="translate(0 19.134)"><path d="M517.9,164.871a.494.494,0,0,1-.455-.3,12.361,12.361,0,0,1-.464-7.783,16.329,16.329,0,0,1,3.765-6.806.493.493,0,1,1,.732.661,15.363,15.363,0,0,0-3.543,6.389,11.376,11.376,0,0,0,.419,7.159.493.493,0,0,1-.455.683Z" transform="translate(-516.57 -149.816)" fill="#0d294d"/></g><path d="M562.018,162.8c-.288-3.434-7.669-6.759-5.584-11s2.607-5.3-2.556-8.094-2.986-2.582-3.475-8.8-8.713-6.464-8.713-6.464c-5.758-.424-11.836.793-16.428,4.294-1.677,1.278-4.766,6.724-4.235,8.759,0,0,4.273-.136-.958,7.829s-1.522,12.269.275,13.354l33.478-.615.156-3.823,1.327,3.793Z" transform="translate(-516.658 -128.359)" fill="#0d294d"/><g transform="translate(1.443 20.88)"><g transform="translate(0 0.62)"><path d="M523.922,163.9a5.738,5.738,0,0,1-.746-11.427l.128.977a4.75,4.75,0,1,0,2.3.265l.348-.922a5.738,5.738,0,0,1-1.276,11.057A5.854,5.854,0,0,1,523.922,163.9Z" transform="translate(-518.188 -152.468)" fill="#34755a"/></g><g transform="translate(3.7)"><path d="M523.377,153.852a1.039,1.039,0,1,1,1.03-1.175h0a1.039,1.039,0,0,1-.9,1.166A.993.993,0,0,1,523.377,153.852Zm0-1.092h-.008l.015.106.534-.124-.489.064A.054.054,0,0,0,523.377,152.759Z" transform="translate(-522.337 -151.773)" fill="#34755a"/></g></g><path d="M542.16,146.222a.489.489,0,0,0,.552.438c1.151-.157,3.778-.754,4.551,2.211.782,3-1.895,5.094-3.629,5.42-.5.094-1.651.35-1.943.767-.9,1.281-1.064,3.844-1.462,7.064a8.918,8.918,0,0,0,4.937,9.538s-16.841,11.23-17.844,2.332c0,0-.731-16.515-.826-16.588-1.592-1.22-7.131-1.1-5.234-13.2,1.757-11.2,9.768-11.478,11.826-11.387C534.824,132.9,540.763,132.491,542.16,146.222Z" transform="translate(-517.036 -128.841)" fill="#f79354"/><g transform="translate(3.796 11.193)"><path d="M548.649,151.852s-2.314-3.58-3.937,1.841" transform="translate(-523.413 -141.969)" fill="#d96c21"/><path d="M533.224,149.344a2.729,2.729,0,1,0,3.01,2.418A2.729,2.729,0,0,0,533.224,149.344Z" transform="translate(-521.906 -141.822)" fill="#f78737"/><path d="M521.005,151.527a2.731,2.731,0,0,0,.247-5.1A13.307,13.307,0,0,0,521.005,151.527Z" transform="translate(-520.827 -141.507)" fill="#f78737"/><path d="M523.373,150.246l4.4,1.511s-1.825,1.734-3.02,1.075S523.373,150.246,523.373,150.246Z" transform="translate(-521.103 -141.921)" fill="#fff"/><path d="M526.724,146.478l-.264,3.03-1.517-.444a.384.384,0,0,1-.164-.64Z" transform="translate(-521.243 -141.513)" fill="#f67216"/><path d="M531.962,144.187c.424.453-.014-1.265-.656-1.588a1.221,1.221,0,0,0-1.667.416A3.82,3.82,0,0,1,531.962,144.187Z" transform="translate(-521.781 -141.076)"/><path d="M523.066,142.1c-.571.244.521-1.153,1.238-1.191a1.221,1.221,0,0,1,1.359,1.051A3.814,3.814,0,0,0,523.066,142.1Z" transform="translate(-521.052 -140.91)"/><path d="M529.779,147.051c-.135.519-.447.887-.7.822s-.347-.539-.213-1.058.447-.888.7-.823S529.913,146.531,529.779,147.051Z" transform="translate(-521.691 -141.46)"/><path d="M525.23,145.582c-.128.5-.426.847-.667.786s-.332-.515-.2-1.01.427-.848.667-.786S525.358,145.086,525.23,145.582Z" transform="translate(-521.203 -141.306)"/><path d="M527.178,160.361a43.657,43.657,0,0,0,7.844-.206C537.6,159.645,528.7,168.789,527.178,160.361Z" transform="translate(-521.515 -142.991)" fill="#d96c21"/></g><g transform="translate(30.142 1.767)"><path d="M568.439,161.97a.5.5,0,0,1-.373-.17l-4.508-5.213a5.8,5.8,0,0,1-1.849-3.749,5.693,5.693,0,0,1,.6-2.133,8.938,8.938,0,0,0,.412-1.074c.783-2.744-1.588-5.593-4.294-6.532-.343-.12-.694-.218-1.043-.318a11.624,11.624,0,0,1-1.9-.662,3.632,3.632,0,0,1-2.165-2.608,4.668,4.668,0,0,1,.251-1.937,7.155,7.155,0,0,0,.222-.966c.283-2.153-1.588-4.014-3.249-5.4a.493.493,0,0,1,.63-.758c1.71,1.423,3.944,3.623,3.595,6.282a7.837,7.837,0,0,1-.25,1.1,3.911,3.911,0,0,0-.224,1.536,2.671,2.671,0,0,0,1.618,1.858,10.7,10.7,0,0,0,1.74.6c.368.1.737.209,1.1.334,3.131,1.088,5.854,4.454,4.918,7.734a9.727,9.727,0,0,1-.456,1.195,4.9,4.9,0,0,0-.523,1.765,4.965,4.965,0,0,0,1.609,3.081l4.508,5.213a.493.493,0,0,1-.373.815Z" transform="translate(-550.371 -130.341)" fill="#0d294d"/></g><path d="M527.478,132.29s-1.568,5.662,2.55,4.292,4.964-2.474,7.134,2.7.867,7.821,7.6,6.27C544.767,145.547,548.486,118.606,527.478,132.29Z" transform="translate(-517.719 -128.365)" fill="#0d294d"/><g transform="translate(2.118 10.299)"><g transform="translate(0.245 3.006)"><path d="M.646,0H1.18a0,0,0,0,1,0,0V1.293a0,0,0,0,1,0,0H.646A.646.646,0,0,1,0,.646v0A.646.646,0,0,1,.646,0Z" transform="translate(1.326 1.672) rotate(-168.46)"/><path d="M520.091,144.99a.676.676,0,0,1-.145-.015l-.725-.148.317-1.548.724.147a.726.726,0,0,1,.568.86l-.024.12A.73.73,0,0,1,520.091,144.99Zm-.531-.388.442.091a.443.443,0,0,0,.52-.344l.025-.121a.443.443,0,0,0-.343-.52l-.442-.089Z" transform="translate(-519.221 -143.279)"/></g><path d="M527.478,145.863c-.528,2.585.729,5.024,2.809,5.449s4.191-1.327,4.719-3.912-.73-5.024-2.809-5.448S528.005,143.278,527.478,145.863Z" transform="translate(-519.856 -140.122)" fill="#fff" opacity="0.27"/><g transform="translate(7.339 1.603)"><path d="M530.89,151.518a3.284,3.284,0,0,1-.656-.066c-2.163-.442-3.481-2.973-2.936-5.642s2.742-4.478,4.913-4.039,3.48,2.972,2.937,5.642C534.658,149.811,532.827,151.518,530.89,151.518Zm.663-9.487c-1.784,0-3.476,1.6-3.934,3.844-.508,2.492.695,4.85,2.682,5.256s4.018-1.293,4.527-3.785-.7-4.851-2.682-5.256A2.97,2.97,0,0,0,531.553,142.031Z" transform="translate(-527.175 -141.705)" fill="#34755a"/></g><path d="M521.718,149.406a2.193,2.193,0,0,1-.444-.045c-1.733-.353-2.714-2.752-2.184-5.345h0c.53-2.594,2.37-4.42,4.1-4.063a2.794,2.794,0,0,1,1.956,1.858,6.632,6.632,0,0,1-1.349,6.609A2.984,2.984,0,0,1,521.718,149.406Zm-2.346-5.334c-.5,2.438.383,4.684,1.96,5.006a2.509,2.509,0,0,0,2.266-.864,6.349,6.349,0,0,0,1.285-6.3,2.521,2.521,0,0,0-1.746-1.682c-1.58-.325-3.266,1.4-3.765,3.837Z" transform="translate(-518.946 -139.908)"/><path d="M521.718,149.406a2.193,2.193,0,0,1-.444-.045c-1.733-.353-2.714-2.752-2.184-5.345h0c.53-2.594,2.37-4.42,4.1-4.063a2.794,2.794,0,0,1,1.956,1.858,6.632,6.632,0,0,1-1.349,6.609A2.984,2.984,0,0,1,521.718,149.406Zm-2.346-5.334c-.5,2.438.383,4.684,1.96,5.006a2.509,2.509,0,0,0,2.266-.864,6.349,6.349,0,0,0,1.285-6.3,2.521,2.521,0,0,0-1.746-1.682c-1.58-.325-3.266,1.4-3.765,3.837Z" transform="translate(-518.946 -139.908)"/><path d="M519.248,144.062c-.514,2.52.414,4.837,2.072,5.176s3.42-1.43,3.934-3.95-.414-4.837-2.072-5.176S519.762,141.541,519.248,144.062Z" transform="translate(-518.963 -139.925)" fill="#fff" opacity="0.27"/><path d="M532.245,141.893a3.061,3.061,0,0,1,.482.059,3.9,3.9,0,0,1,2.867,3.448C534.431,144.276,533.325,143.1,532.245,141.893Z" transform="translate(-520.385 -140.123)" fill="#fff" opacity="0.27"/><path d="M529.442,142.885a4.223,4.223,0,0,1,.518-.384,66.109,66.109,0,0,0,5.177,5.356,5.857,5.857,0,0,1-.241.686Q532.137,145.744,529.442,142.885Z" transform="translate(-520.082 -140.189)" fill="#fff" opacity="0.27"/><path d="M532.775,151.217a3.375,3.375,0,0,1-2.488.5c-2.08-.424-3.337-2.863-2.809-5.449a5.852,5.852,0,0,1,.169-.637C529.314,147.532,531.015,149.4,532.775,151.217Z" transform="translate(-519.856 -140.527)" fill="#fff" opacity="0.27"/><path d="M522.752,149.239c-1.171-1.187-2.4-2.317-3.642-3.423a6.875,6.875,0,0,1,.138-1.55,6.531,6.531,0,0,1,.939-2.3,34.362,34.362,0,0,0,4.568,5.05A4.537,4.537,0,0,1,522.752,149.239Z" transform="translate(-518.963 -140.13)" fill="#fff" opacity="0.27"/><path d="M522.8,140.1a2.1,2.1,0,0,1,.779.01c1.278.26,2.121,1.7,2.206,3.493Q524.308,141.843,522.8,140.1Z" transform="translate(-519.363 -139.925)" fill="#fff" opacity="0.27"/><path d="M521.718,149.406a2.193,2.193,0,0,1-.444-.045c-1.733-.353-2.714-2.752-2.184-5.345h0c.53-2.594,2.37-4.42,4.1-4.063a2.794,2.794,0,0,1,1.956,1.858,6.632,6.632,0,0,1-1.349,6.609A2.984,2.984,0,0,1,521.718,149.406Zm-2.346-5.334c-.5,2.438.383,4.684,1.96,5.006a2.509,2.509,0,0,0,2.266-.864,6.349,6.349,0,0,0,1.285-6.3,2.521,2.521,0,0,0-1.746-1.682c-1.58-.325-3.266,1.4-3.765,3.837Z" transform="translate(-518.946 -139.908)" fill="#34755a"/><g transform="translate(6.042 5.022)"><path d="M527.078,146.785c-.048-.348-.212-.877-.414-.916-.056-.01-.271.007-.659.692l-.284-.161c.359-.635.688-.912,1.005-.853.5.1.651,1.01.676,1.192Z" transform="translate(-525.721 -145.539)" fill="#34755a"/></g><g transform="translate(15.001 6.018)"><path d="M.646,0H1.18a0,0,0,0,1,0,0V1.293a0,0,0,0,1,0,0H.646A.646.646,0,0,1,0,.646v0A.646.646,0,0,1,.646,0Z" transform="matrix(-0.98, -0.2, 0.2, -0.98, 1.326, 1.672)" fill="#34755a"/><path d="M536.641,148.367a.682.682,0,0,1-.147-.015l-.726-.148.317-1.548.725.148a.725.725,0,0,1,.568.859l-.025.122a.728.728,0,0,1-.712.582Zm-.533-.388.443.091a.439.439,0,0,0,.331-.065.433.433,0,0,0,.188-.278l.025-.123a.44.44,0,0,0-.342-.518l-.443-.091Z" transform="translate(-535.768 -146.656)" fill="#34755a"/></g><g transform="translate(15.305 6.679)"><rect width="0.288" height="8.162" transform="translate(0 0.287) rotate(-85.882)" fill="#34755a"/></g></g><g transform="translate(22.459 21.469)"><g transform="translate(0 0.619)"><path d="M547.482,164.555a5.738,5.738,0,0,1-.738-11.427l.129.977a4.747,4.747,0,1,0,2.3.264l.349-.921a5.741,5.741,0,0,1-2.039,11.107Z" transform="translate(-541.756 -153.128)" fill="#34755a"/></g><g transform="translate(3.701)"><path d="M546.942,154.512a1.04,1.04,0,1,1,1.033-1.174h0a1.036,1.036,0,0,1-.9,1.165A1.017,1.017,0,0,1,546.942,154.512Zm.036-1.082-.574.114.595-.079A.053.053,0,0,0,546.978,153.43Z" transform="translate(-545.906 -152.434)" fill="#34755a"/></g></g></g><path d="M618.723,451.477c0-1.72-24.243-3.116-54.148-3.116s-54.147,1.4-54.147,3.116,24.243,3.115,54.147,3.115S618.723,453.2,618.723,451.477Z" transform="translate(-454.6 -162.996)" fill="#064260"/><g transform="translate(49.604 257.326)"><path d="M530.779,417.356l-3.2,24.038a27.924,27.924,0,0,1,1.476,6.884c-3.178,2.183-14.068,1.738-15.488,0a23.7,23.7,0,0,0,4.916-7.54l-3.441-23.819Z" transform="translate(-504.544 -416.919)" fill="#d96c21"/><path d="M524.23,421.729l4.18,28.518s.921.722,1.8-1.148c.529-1.122-.164-1.966-1.394-6.473l2.541-21.143Z" transform="translate(-505.698 -417.413)" fill="#f78737"/><path d="M579.427,416.919l7.32,21.962s-.983,7.976-1.2,8.523c-.776,1.938,7.976-8.851,7.976-8.851l.765-21.2Z" transform="translate(-511.673 -416.919)" fill="#d96c21"/><path d="M587.759,416.919l4.232,25.953s7.526,5.182,8.114,3.548c.244-.68-4.472-6.173-5.442-7.921l.526-21.144Z" transform="translate(-512.575 -416.919)" fill="#f78737"/><path d="M503.717,452.254c-.574.426-.164,1.144.656,1.151l16.561.134c.4,0,7.942-.415,8.238-.612.03-.021-.82-3.155-.82-3.155l-7.518,1.884s-2.926-6.838-3.442-7.293C517.043,444.056,503.717,452.254,503.717,452.254Z" transform="translate(-503.449 -419.889)" fill="#ffe18f"/><path d="M600.96,449.611a2.078,2.078,0,0,1-.927,3.007c-1.992,1.186-5.25,2.968-5.25,2.968s-5.409-1.7-7.461-2.6c-1.377-.6-2.455-1.48-2.285-2.632l.239-1.545c.021-.132,3.606-6.118,3.606-6.118l5.244-.655Z" transform="translate(-512.278 -419.638)" fill="#ffe18f"/></g><g transform="translate(48.865 87.096)"><path d="M551.883,229.166c5.143,9.092,7.862,15.752,10.817,27.313,3.428,13.407,35.948,116.381,42.941,141.73-4.225,1.018-37.723-.243-40.392-.391-8.493-24.338-25.339-92.8-28.981-108.136-.559-2.357-3.023-1.83-2.74.575,2.067,17.509,11.8,84.788,11.8,110.573-2.216,1.128-37.213,1.195-39.772.875-2.783-30.031-8.946-136.428,13.351-173.279C529.1,227.02,541.544,228.857,551.883,229.166Z" transform="translate(-502.62 -226.23)" fill="#064260"/><g transform="translate(5.36 6.097)"><path d="M511.254,402.248c-.026-.828-2.623-83.153-2.623-114.512,0-31.405,11.961-54.641,12.082-54.872l.352.185c-.12.229-12.036,23.384-12.036,54.687,0,31.352,2.6,113.672,2.622,114.5Z" transform="translate(-508.631 -232.864)" fill="#fff"/></g><g transform="translate(43.937 3.332)"><rect width="0.397" height="174.982" transform="matrix(0.961, -0.277, 0.277, 0.961, 0, 0.11)" fill="#fff"/></g><g transform="translate(37.156 2.945)"><path d="M557.057,259.5a6.957,6.957,0,0,1-4.5-1.668c-7.615-6.226-8.252-27.588-8.276-28.5l.4-.011c.006.221.656,22.087,8.13,28.2a6.571,6.571,0,0,0,5.507,1.463l.068.392A7.783,7.783,0,0,1,557.057,259.5Z" transform="translate(-544.286 -229.329)" fill="#fff"/></g><path d="M519.335,229.092l44.628,29.713s-2.622-17.481-11.8-32.778Z" transform="translate(-504.429 -226.027)" opacity="0.21" style="mix-blend-mode:multiply;isolation:isolate"/><g transform="translate(7.71 7.513)"><path d="M512.725,261.574a8.415,8.415,0,0,1-1.459-.131l.068-.391a7.089,7.089,0,0,0,5.919-1.532c7.136-5.79,7.857-24.876,7.864-25.067l.4.013c-.026.792-.733,19.457-8.011,25.363A7.419,7.419,0,0,1,512.725,261.574Z" transform="translate(-511.266 -234.452)" fill="#fff"/></g></g><g transform="translate(0 42.423)"><path d="M448.433,219.953c9.39-.29,15.662-.278,16.539-.21l30.274-.662-.091-.078s1.528-.008,2.6-.09a1.191,1.191,0,0,0,1.075-.912c2.9-12.254,8.781-44.551,19.316-41.917.152.038,3.705.558,3.327,1.035-3.45,4.346-9.741,25.7-9.741,25.7-.073.324-.062,1.755-.056,3.819,3.71,21.258-.727,22.9-.727,22.9a10.156,10.156,0,0,1-2.234.984c-.017.021-.032.045-.049.067l-.043-.037c-13.519,4.2-52.633-4.931-52.633-4.931C452.81,224.769,445.71,220.037,448.433,219.953Z" transform="translate(-447.823 -175.931)" fill="#f79354"/></g><g transform="translate(56.868 42.423)"><path d="M525.176,176.084c-5.23-1.307-9.31,5.991-12.45,15.171,2.091,3.971,4.151,7.954,5.994,12.038a3.211,3.211,0,0,1,.042-.473s6.29-21.354,9.741-25.7C528.881,176.642,525.328,176.122,525.176,176.084Z" transform="translate(-511.716 -175.932)" fill="#d96c21"/><path d="M511.69,233.657a17.417,17.417,0,0,0-.06,3,22.46,22.46,0,0,0,3.9-.787l.043.037c.017-.021.032-.045.049-.067a10.115,10.115,0,0,0,2.234-.984s2.389-.9,2.191-9.79C515.811,225.443,512.154,229.692,511.69,233.657Z" transform="translate(-511.594 -181.25)" fill="#d96c21"/></g><path d="M521.1,189.756l-11.145-5.244s5.573-9.833,16.061-8.85" transform="translate(-454.549 -133.472)" fill="#34755a"/><path d="M462.763,224.563s-7.1-4.5-7.4-3.407c-.584,2.142,5.318,4.4,4.576,5.063C459.94,226.218,461.651,225.156,462.763,224.563Z" transform="translate(-448.635 -138.385)" fill="#fcb6a3"/><g transform="translate(59.701 38.693)"><path d="M525.228,174.917c.3.72-10.8,22.313-10.449,29.372.357,7.112,2.632,10.532,2.254,11.6,0,0,4.959,4.793,35.4,0,.438-7.43,9.834-23.6-2.185-36.493-1.32-2.058-7.26-6.439-10.27-7.649C539.978,171.749,537.234,178.482,525.228,174.917Z" transform="translate(-514.771 -171.749)" fill="#34755a"/></g><path d="M553.181,227.919l2.3-9.164s.219.437-4.371,1.53-5.9-4.371-9.615-2.4,0,5.026-5.244,4.589-6.993-7.867-10.489-5.681-11.145,1.311-11.145,1.311l5.593,9.08Z" transform="translate(-455.053 -137.887)" fill="#064260"/><g transform="translate(65.148 89.094)"><rect width="0.397" height="32.983" transform="translate(0 0.397) rotate(-88.716)" fill="#fff"/></g><g transform="translate(27.638 33.505)"><g transform="translate(0 3.143)"><path d="M494.253,218.739c-3.917,0-9.428-1.824-15.437-9.385l4.63-3.681c3.95,4.97,8.053,7.506,11.518,7.114,2.615-.287,4.966-2.2,6.453-5.256.714-1.47,1.459-3.031,2.231-4.648,5.779-12.113,9.6-34.276,18.777-33.4l.219,5.136c-6.883,2.4-8.489,19.979-13.658,30.812-.778,1.632-1.529,3.207-2.252,4.69-2.393,4.918-6.447,8.034-11.124,8.548A12.559,12.559,0,0,1,494.253,218.739Z" transform="translate(-478.816 -169.456)" fill="#ffe18f"/></g><g transform="translate(35.53)"><path d="M540.395,165.931c-1.329,3.329-.718,5.511-1.61,9.006a4.8,4.8,0,0,1-1.163,2.17,46.113,46.113,0,0,1-5.081,8.943c-.344.516-.687,1.031-1.026,1.545-7.907,12.007-12.083,23-12.765,33.6-.877,13.626,4.575,26.388,14.228,33.3l3.444-4.808c-8.007-5.736-12.517-16.509-11.769-28.115.614-9.553,4.475-19.6,11.8-30.728q.5-.756,1.006-1.514c2.949-4.418,6-8.985,6.891-14.551C544.982,170.852,542.448,168.7,540.395,165.931Z" transform="translate(-518.659 -165.931)" fill="#ffe18f"/></g></g><path d="M496.013,201.269s26.865,34.64,33.182,30.183c0,0,32.778-40.209,18.356-50.916-8.566-6.36-14.642,19.011-23.163,33.434-.261.441-22.185-19.065-22.185-19.065s-10.349-13.683-11.071-12.9c-1.046,1.133,2.964,7.235,2.964,7.235a2.055,2.055,0,0,1-1.046,1.046,2.477,2.477,0,0,0-1.482,1.918c-.261,1.046-1.307,1.656-1.482,2.267S493.8,199.671,496.013,201.269Z" transform="translate(-452.397 -133.898)" fill="#f79354"/><path d="M554.081,200.63c3.413-8.366,4.43-16.191-.828-20.094-3.853-2.861-7.2.707-10.5,6.8Q548.574,193.853,554.081,200.63Z" transform="translate(-458.099 -133.898)" fill="#d96c21"/><path d="M528.288,233.363a15.562,15.562,0,0,0-1.248,2.047c2.653,1.779,4.846,2.539,6.156,1.615,0,0,1.283-1.576,3.227-4.181C533.6,230.727,530.815,229.941,528.288,233.363Z" transform="translate(-456.398 -139.472)" fill="#d96c21"/><path d="M540.587,190.175l22.945,6.775s-4.228-13.981-10.707-18.138c-5.791-3.715-6.337-1.967-6.337-1.967Z" transform="translate(-457.864 -133.563)" fill="#34755a"/></g><g transform="translate(355.979 149.857)"><g transform="translate(22.219 114.069)"><g transform="translate(15.297)"><rect width="7.351" height="144.226" transform="translate(0 0)" fill="#165c80"/><g transform="translate(0)"><path d="M439.995,296.27v-5.183h-7.351v24.2Q436.2,305.732,439.995,296.27Z" transform="translate(-432.644 -291.087)" fill="#064260" style="mix-blend-mode:multiply;isolation:isolate"/><path d="M432.644,437.857V451.2h7.351V440.206Q436.332,438.993,432.644,437.857Z" transform="translate(-432.644 -306.973)" fill="#064260" style="mix-blend-mode:multiply;isolation:isolate"/></g></g><path d="M453.077,453.262H415.49a9.756,9.756,0,0,1,9.755-9.755h18.077a9.756,9.756,0,0,1,9.755,9.755Z" transform="translate(-415.49 -307.585)" fill="#f67d68"/></g><path d="M456.89,233.758a16.362,16.362,0,0,1-1.6-11.544c2.413-10.707,8.539-26.127,8.539-26.127a13.559,13.559,0,0,0-8.144-16.371l-7.641-2.958c-1.822-.705-5.529-2.458-5.529-4.411v-9.176H421.1v9.176c0,1.953-3.786,3.705-5.606,4.411l-7.641,2.958a13.559,13.559,0,0,0-8.144,16.371s6.126,15.422,8.54,26.129a16.71,16.71,0,0,1-1.647,11.641c-12.253,22.612-16.024,47.755-16.024,47.755h82.383S471.99,260.967,456.89,233.758Z" transform="translate(-390.574 -163.172)" fill="#064260"/><g transform="translate(0 15.844)" opacity="0.45"><path d="M404.623,208.514a39.8,39.8,0,0,1-.481-7.839c.256-6.453,2.568-12.315,5.585-17.945q.483-.9.977-1.791l-1.811.7a13.559,13.559,0,0,0-8.144,16.371S402.574,202.6,404.623,208.514Z" transform="translate(-391.619 -180.939)" fill="#064260" style="mix-blend-mode:multiply;isolation:isolate"/><path d="M463.216,223.6c-6.7,3.925-14.976,10.057-10.336,16.49,2.538,3.519,8.005,4.629,13.215,5.112q-1.229-2.412-2.608-4.9a16.362,16.362,0,0,1-1.6-11.544C462.253,227.122,462.71,225.379,463.216,223.6Z" transform="translate(-397.172 -185.557)" fill="#064260" style="mix-blend-mode:multiply;isolation:isolate"/><path d="M413.13,278.564a30.558,30.558,0,0,1-6.022-21.689c.748-7.7,4.1-13.544,8.325-19.314a49.423,49.423,0,0,1-8.047-12.054c.318,1.188.61,2.349.86,3.457a16.71,16.71,0,0,1-1.647,11.641c-12.253,22.612-16.024,47.755-16.024,47.755h33.659A40.684,40.684,0,0,1,413.13,278.564Z" transform="translate(-390.574 -185.763)" fill="#064260" style="mix-blend-mode:multiply;isolation:isolate"/></g><g transform="translate(42.01 1.148)"><g transform="translate(0 9.124)"><path d="M450.89,174.69s-2.222,5.5-7.008,7.42l-6.2,9.28.532,39.023,23.6.218L465.094,209s-11.8-3.06-7.212-30.812Z" transform="translate(-437.683 -174.69)" fill="#d2bef6"/><path d="M445.645,192.2l-1.763-9.187-6.2,9.28Z" transform="translate(-437.683 -175.591)" fill="#d2bef6"/></g><g transform="translate(13.6)"><g transform="translate(0 1.064)"><path d="M453.181,175.517a.279.279,0,0,1-.07-.01.247.247,0,0,1-.167-.306l2.747-9.371a.247.247,0,1,1,.474.139l-2.747,9.372A.247.247,0,0,1,453.181,175.517Z" transform="translate(-452.934 -165.653)" fill="#064260"/></g><circle cx="1.311" cy="1.311" r="1.311" transform="translate(1.682)" fill="#f67d68"/><g transform="translate(11.522 45.234)"><g transform="translate(0 0.448)"><path d="M475.845,216.8h-.015l-9.745-.617a.246.246,0,0,1-.23-.261.249.249,0,0,1,.261-.23l9.745.617a.246.246,0,0,1-.016.492Z" transform="translate(-465.854 -215.686)" fill="#064260"/></g><path d="M477.188,217.774a1.311,1.311,0,1,0-1.568-.99A1.31,1.31,0,0,0,477.188,217.774Z" transform="translate(-466.908 -215.184)" fill="#f67d68"/></g><g transform="translate(4.94 3.606)"><g transform="translate(0 1.066)"><path d="M458.721,178.662a.246.246,0,0,1-.215-.369l4.855-8.473a.247.247,0,1,1,.428.246l-4.854,8.473A.248.248,0,0,1,458.721,178.662Z" transform="translate(-458.474 -169.697)" fill="#064260"/></g><path d="M465.31,170.119a1.311,1.311,0,1,0-1.581.969A1.311,1.311,0,0,0,465.31,170.119Z" transform="translate(-458.934 -168.502)" fill="#ffe18f"/></g></g></g></g><g transform="translate(94.818 44.329)"><g transform="translate(440.586 190.948)"><path d="M596.825,269.058a5.049,5.049,0,1,1,5.049-5.049A5.055,5.055,0,0,1,596.825,269.058Zm0-9.112a4.063,4.063,0,1,0,4.064,4.063A4.068,4.068,0,0,0,596.825,259.946Z" transform="translate(-591.777 -258.96)" fill="#34755a"/></g><g transform="translate(22.579 271.859)"><path d="M128.082,359.789a5.048,5.048,0,1,1,5.048-5.048A5.055,5.055,0,0,1,128.082,359.789Zm0-9.111a4.063,4.063,0,1,0,4.063,4.063A4.068,4.068,0,0,0,128.082,350.677Z" transform="translate(-123.033 -349.692)" fill="#34755a"/></g><circle cx="6.883" cy="6.883" r="6.883" transform="translate(454.485 169.447)" fill="#fbf3e8"/><path d="M246.481,49.752a4.917,4.917,0,1,0-4.916,4.916A4.916,4.916,0,0,0,246.481,49.752Z" transform="translate(-112.752 -44.835)" fill="#fbf3e8"/><circle cx="7.867" cy="7.867" r="7.867" transform="translate(501.513 322.241) rotate(-9.192)" fill="#fbf3e8"/><circle cx="8.85" cy="8.85" r="8.85" transform="translate(0 259.207) rotate(-45)" fill="#fbf3e8"/></g><g transform="translate(70.961 111.573)"><ellipse cx="61.965" cy="3.565" rx="61.965" ry="3.565" transform="translate(0 293.742)" fill="#064260"/><g transform="translate(100.544 275.164)"><path d="M197.7,440.6l-.218-11.8-11.363.874.286,11.34,5.313,9.218,9.564-7.374Z" transform="translate(-183.969 -428.804)" fill="#d1744f"/><path d="M196.609,429.049l-8.74,18.574s1.686-2.912-1.747-5.989l0-12.585Z" transform="translate(-183.969 -428.831)" fill="#944438"/><g transform="translate(0 10.597)"><path d="M199.24,441.081a53.535,53.535,0,0,1-6.857,6.309c-2.3,1.746-5.725-5.694-6.791-6.624-.217-.19-.511-.02-.548.317l-1.337,12.173h33.651a.777.777,0,0,0,.708-.921C216.284,443.294,199.24,441.081,199.24,441.081Z" transform="translate(-183.708 -440.687)" fill="#ffc557"/></g><g transform="translate(0.372 13.364)"><g transform="translate(0 0.074)"><path d="M218.057,451.916H184.125v-.493h19.023c.118-.538,1.5-6.389,5.909-7.531l.07-.019.069.023c.29.1,7.1,2.394,8.762,7.7Zm-14.4-.493h13.724c-1.663-4.572-7.568-6.786-8.27-7.034C205.286,445.436,203.874,450.532,203.655,451.423Z" transform="translate(-184.125 -443.873)" fill="#fff"/></g><g transform="translate(0.555)"><rect width="0.493" height="10.325" transform="translate(0 0.333) rotate(-42.424)" fill="#fff"/></g></g></g><g transform="translate(46.381 276.694)"><path d="M137.2,442.32l3.5-11.363-12.237-.437-2.622,12.019,4.528,7.884,9.564-7.374Z" transform="translate(-123.281 -430.52)" fill="#d1744f"/><path d="M137.943,430.957l-10.052,13.985s.156.455-3.278-2.623l3.934-11.8Z" transform="translate(-123.149 -430.52)" fill="#944438"/><g transform="translate(0 10.56)"><path d="M138.5,442.754a53.456,53.456,0,0,1-6.856,6.31c-2.3,1.746-5.726-5.694-6.791-6.624-.217-.19-.511-.02-.548.317l-1.337,12.173h33.651a.778.778,0,0,0,.709-.921C155.548,444.968,138.5,442.754,138.5,442.754Z" transform="translate(-122.971 -442.361)" fill="#ffc557"/></g><g transform="translate(0.372 13.327)"><g transform="translate(0 0.074)"><path d="M157.321,453.59H123.388V453.1h19.023c.118-.538,1.5-6.39,5.909-7.531l.07-.019.07.023c.289.1,7.1,2.394,8.762,7.7Zm-14.4-.493h13.725c-1.663-4.572-7.568-6.786-8.271-7.035C144.549,447.11,143.137,452.206,142.918,453.1Z" transform="translate(-123.388 -445.547)" fill="#fff"/></g><g transform="translate(0.555)"><rect width="0.493" height="10.325" transform="translate(0 0.333) rotate(-42.424)" fill="#fff"/></g></g></g><g transform="translate(68.545 140.03)"><path d="M193.62,277.268s4.328,51.768,4.734,66.071-3.268,70.156-3.268,70.156l-14.462-.045s-15.314-98.7-32.8-133.193Z" transform="translate(-147.825 -277.268)" fill="#053142"/><g transform="translate(27.184 23.417)"><path d="M190.758,407.494l-2.294-65.557-10.155-38.307.384-.1,10.162,38.351,2.3,65.6Z" transform="translate(-178.308 -303.528)" fill="#fff"/></g><path d="M182.368,429.2l16.717-.328.983-9.506H180.729Z" transform="translate(-151.387 -292.649)" fill="#2a7396"/></g><g transform="translate(48.064 140.03)"><path d="M191.368,277.268S181.362,320.42,171.2,350.951c-8.213,24.671-29.971,63.637-29.971,63.637l-14.546-.638,15.458-62.266A61.51,61.51,0,0,0,143.9,340.44c.9-14.337-2.046-43.3-3.278-61.868Z" transform="translate(-125.055 -277.268)" fill="#064260"/><g transform="translate(9.309 26.743)"><path d="M135.305,408.281c-.121-.366,1.174-4.436,5.213-16.935,5.882-18.2,14.772-45.706,14.772-50.652,0-7.452-.325-33.173-.328-33.432l.4-.005c0,.259.327,25.983.327,33.437,0,5.008-8.9,32.549-14.791,50.774-2.805,8.68-5.227,16.176-5.208,16.717Z" transform="translate(-135.297 -307.257)" fill="#fff"/></g><path d="M124.858,429.283l16.171.765,5.463-8.959-20.323-.983Z" transform="translate(-124.858 -292.729)" fill="#2a7396"/></g><g transform="translate(51.078 47.524)"><path d="M152.415,176.057s-22.606,2.31-24.029,21.029,7.984,96.356,7.984,96.356l61.623-3.934-5.809-88a27.26,27.26,0,0,0-4.26-13.391c-2.363-3.691-5.131-7.875-6.7-8.071l-25.349-6.517Z" transform="translate(-128.239 -173.533)" fill="#ffe18f"/><path d="M147.185,178.61c-15.078,2.295-18.088,9.666-18.8,19.026-1.423,18.721,7.984,95.7,7.984,95.7l60.968-3.278" transform="translate(-128.239 -174.083)" fill="#ffc557"/><g clip-path="url(#a)"><g transform="translate(0.814 5.513)"><g transform="translate(28.597)"><path d="M161.25,180.473c2.113,6.83,4.872,13.812,8.927,19.744a26,26,0,0,0,6.193,6.571c2.849,2.04,6.03,2.82,9.446,3.346,3.672.565,8.4,1.39,9.981,5.3.293.726,1.487.408,1.188-.327-2.789-6.89-11.562-5.214-17.137-7.726-6.025-2.714-9.661-8.83-12.426-14.537a90.515,90.515,0,0,1-4.984-12.7c-.234-.755-1.423-.433-1.188.328Z" transform="translate(-161.22 -179.715)" fill="#fbf3e8"/></g><g transform="translate(0 39.678)"><g transform="translate(0 36.808)"><path d="M129.739,267.129c4.382-.531,9.715-1.042,13.582,1.558,4.6,3.091,3.583,9.1,5.305,13.689,1.65,4.4,5.686,6.677,9.761,8.49a68.5,68.5,0,0,1,6.495,3.056,24.684,24.684,0,0,1,5.819,4.7,25.554,25.554,0,0,1,6.678,15.483c.052.787,1.284.793,1.232,0a26.678,26.678,0,0,0-5.241-14.176,28.72,28.72,0,0,0-11.868-9.029c-4.374-1.93-9.643-3.8-11.59-8.6-1.9-4.694-.845-10.519-5.158-14.066-4.087-3.361-10.106-2.923-15.015-2.329-.778.095-.787,1.328,0,1.232Z" transform="translate(-129.152 -265.485)" fill="#fbf3e8"/></g><g transform="translate(41.493 35.73)"><path d="M199.516,297.379c-7.432-2.837-14.966-7.048-19.574-13.74a22.048,22.048,0,0,1-2.779-5.384,1.979,1.979,0,0,1,.1-2.045,4.927,4.927,0,0,1,1.19-.9,20.182,20.182,0,0,1,3.223-1.545,33.861,33.861,0,0,0,5.518-2.441c1.89-1.17,3.24-3,5.107-4.183a11.065,11.065,0,0,1,12.609.72c.61.495,1.487-.372.871-.871a12.357,12.357,0,0,0-11.678-2.064,16.1,16.1,0,0,0-5.608,3.844,20.066,20.066,0,0,1-6.647,3.611c-1.874.727-4.489,1.542-5.7,3.259s.241,4.2,1.062,5.819a29.52,29.52,0,0,0,8.506,9.858,52.98,52.98,0,0,0,13.475,7.251c.741.283,1.062-.908.327-1.189Z" transform="translate(-175.682 -264.276)" fill="#fbf3e8"/></g><g transform="translate(1.874)"><path d="M194.576,224.215a16.452,16.452,0,0,0-13.495,10.978c-2.214,6.558-.578,13.738-2.772,20.29a13.407,13.407,0,0,1-13.259,8.981,12.68,12.68,0,0,1-7.582-2.572c-2.525-1.986-4.079-4.941-6.654-6.88-2.644-1.991-5.957-2.231-9.149-2.36-3.267-.132-6.952-.095-9.367-2.65-.546-.578-1.416.294-.871.871,4.283,4.533,11.239,1.956,16.521,3.943,3.256,1.226,5.035,4.384,7.354,6.763a13.386,13.386,0,0,0,6.881,3.791,15.488,15.488,0,0,0,14.436-4.449c4.527-5.042,3.991-12.33,4.446-18.622.292-4.036,1.082-8.119,3.7-11.34a15.265,15.265,0,0,1,9.816-5.514c.776-.1.786-1.332,0-1.232Z" transform="translate(-131.253 -224.209)" fill="#fbf3e8"/></g></g></g></g></g><g transform="translate(75.762 31.012)"><path d="M162.527,157.121l-6.609,17.625,4.917,2.459c7.539,2.786,14.354,1.026,15.417-2.1h0l-1.017-10.517-10.574-9.57a10.347,10.347,0,0,0-1.83,1.578A2.36,2.36,0,0,1,162.527,157.121Z" transform="translate(-155.918 -155.017)" fill="#d1744f"/><path d="M165.577,155.017l10.574,9.57.35,3.766s-8.85,2.131-12.128-11.964" transform="translate(-156.833 -155.017)" fill="#944438"/></g><g transform="translate(52.519 54.464)"><g transform="translate(58.872 4.584)"><path d="M195.922,242.074l12.6-39.542a7.855,7.855,0,0,1,4.341-4.851l25.8-11.144a.976.976,0,0,1,1.281,1.238l-12.733,38.74a7.869,7.869,0,0,1-4.115,4.69L197.23,243.292A.974.974,0,0,1,195.922,242.074Z" transform="translate(-195.871 -186.457)" fill="#f67d68"/><path d="M198.351,244.671l11.484-38.845c.7-2.192,3.4-4.659,5.458-5.549l25.8-11.145a.976.976,0,0,1,1.281,1.238l-12.733,38.74a7.859,7.859,0,0,1-4.115,4.69L199.66,245.888A.975.975,0,0,1,198.351,244.671Z" transform="translate(-196.134 -186.738)" fill="#34755a"/><g transform="translate(6.171 30.357)"><path d="M204.786,220.5l10.006,1.446-12,4.862Z" transform="translate(-202.792 -220.499)" fill="#020f2b" stroke="#1d254a" stroke-miterlimit="10" stroke-width="0"/></g><path d="M206.661,239.543l22.618-10.911-1.556,5L204.661,245Z" transform="translate(-196.823 -191.022)" fill="#fbf3e8"/></g><path d="M200.154,233.925c-1.395,1.252-16.557,20.551-29.828,30.648-3.66,2.783-9.856-.825-12.128-4.753L137.6,226.675l19.983-15.505c.142.22,8.386,21.749,13.064,28.819,1.674,2.53.9,2.274,3.278.82l18.028-14.1a15.312,15.312,0,0,0,1.767-3.053c.77-2.293,4.427-5.368,4.427-5.368l-1.584,4.862c-.285.82.252.883,1.618-.045l9.124-6.119s2.147-.919,1.147.219-4.462,4.377-4.589,4.479c-2.262,1.841,5.952-4.192,6.091-3.34s-4.508,4.839-4.4,4.924,5.186-3.582,5.353-2.787-4.316,4.207-4.479,4.262c-.315.1,3.549-2.995,3.66-2.568S200.951,233.209,200.154,233.925Z" transform="translate(-130.693 -184.548)" fill="#d1744f"/><path d="M163.661,225.906c-3.225-7.425-5.991-14.61-6.073-14.736L137.6,226.675l13.073,21.043C154.861,240.359,159.122,233.048,163.661,225.906Z" transform="translate(-130.693 -184.548)" fill="#944438"/><path d="M170.144,265.117c-2.275-.924-7.51-1.559-8.819,1.306,2.6,3.57,8.175,6.487,11.568,3.9.513-.391,1.03-.8,1.548-1.216A7.949,7.949,0,0,0,170.144,265.117Z" transform="translate(-133.26 -190.302)" fill="#944438"/><path d="M151.46,192.226s-5.693-15.987-16.673-9.256-1.065,56.07,5.035,62.8l30.812-22.945Z" transform="translate(-129.854 -181.316)" fill="#ffe18f"/><g clip-path="url(#b)"><g transform="translate(-5.593 -0.648)"><path d="M144.164,181.346c2.36,7.6,3.336,15.846,1.411,23.658a27.957,27.957,0,0,1-11.105,16.467,21.77,21.77,0,0,1-10.3,3.8c-.783.07-.791,1.3,0,1.232a24.915,24.915,0,0,0,17.17-9.866c4.753-6.109,6.669-13.836,6.468-21.495a52.4,52.4,0,0,0-2.459-14.119c-.235-.754-1.424-.433-1.188.327Z" transform="translate(-123.582 -180.589)" fill="#fbf3e8"/><g transform="translate(24.878 21.493)"><path d="M158.342,204.836a21.264,21.264,0,0,0-3.514,3.531,9.868,9.868,0,0,0-2.257,4.09c-.42,2.5,1.85,4.022,3.315,5.635,2.862,3.151-.091,6.345-2.109,8.973a10.246,10.246,0,0,0,2.125,14.876c.656.448,1.273-.619.622-1.064a9.147,9.147,0,0,1-3.766-8.519c.457-3.985,4.231-6.076,5.344-9.751a5.106,5.106,0,0,0-.565-4.413,33.045,33.045,0,0,0-2.813-3.038,3.456,3.456,0,0,1-.968-1.909,4.962,4.962,0,0,1,1.2-2.97,20.373,20.373,0,0,1,4.256-4.568c.62-.495-.257-1.362-.871-.871Z" transform="translate(-151.479 -204.691)" fill="#fbf3e8"/></g><g transform="translate(9.929 51.656)"><path d="M135.754,241a3.923,3.923,0,0,1,3.349-1.262,4.187,4.187,0,0,1,2.756,1.691c1.446,1.857,1.97,4.267,3.2,6.257.416.673,1.482.055,1.064-.622-1.386-2.245-1.921-5.048-3.8-6.976a5.129,5.129,0,0,0-7.436.041c-.532.586.337,1.46.871.872Z" transform="translate(-134.716 -238.515)" fill="#fbf3e8"/></g></g></g></g><g transform="translate(76.084)"><path d="M184.639,134.269c2.672-3.763-.117-4.509.548-6.148a7.652,7.652,0,0,0,.69-3.349,3.614,3.614,0,0,0-1.613-2.9,3.682,3.682,0,0,0-3.546.11,8.608,8.608,0,0,0-2.666,2.536c-.5-1.748-.625-3.581-3.076-4.152-4.543-.85-4.857,2.787-5.744,3.958-.656-3.168-3.388-3.5-5.366-2.94a5.145,5.145,0,0,0-3.61,3.1c-.556,1.589-3.316-1.525-3.972,4.7-.162,1.537,3.277,5.244,3.277,5.244s.656,7.7.82,14.258c.021.859,3.442,1.475,3.442,1.475a176.308,176.308,0,0,1,16.717-12.947S183.908,135.3,184.639,134.269Z" transform="translate(-156.28 -120.241)" fill="#0d294d"/><path d="M164.076,149.34a.485.485,0,0,1-.8.185c-.861-.844-2.575-2-3.189,1.362-.835,4.569,3.934,3.784,4.313,4.4.77,1.248,3.242,5.439,6.927,7.065a7.285,7.285,0,0,0,8.023-1.206c2.452-2.355,3.805.422,2.776-24.753a2.4,2.4,0,0,1-2.994,1.562c-1.676-.337-2.992-1.745-4.832-2.259-1.495-.416-5.6-1.449-7.373,3.749C166.119,141.833,164.825,147.359,164.076,149.34Z" transform="translate(-156.682 -121.874)" fill="#d1744f"/><g transform="translate(4.125 19.746)"><path d="M183.821,155.53s-1.479.736-5.094.4c0,0,1.944,2.635,3.368,2.125S183.821,155.53,183.821,155.53Z" transform="translate(-162.834 -143.807)" fill="#fff"/><path d="M160.9,152.291l2.518,1.9S162.484,149.6,160.9,152.291Z" transform="translate(-160.905 -143.365)" fill="#944438"/><path d="M181.009,149.423c0,.549-.218,1-.486,1s-.486-.446-.486-1,.218-1,.486-1S181.009,148.873,181.009,149.423Z" transform="translate(-162.976 -143.038)" fill="#020f2b"/><ellipse cx="0.486" cy="0.996" rx="0.486" ry="0.996" transform="translate(20.227 4.902)" fill="#020f2b"/><path d="M176.512,144.477c-.721.5.407-1.773,1.387-2.027a1.712,1.712,0,0,1,2.162,1.109A5.274,5.274,0,0,0,176.512,144.477Z" transform="translate(-162.57 -142.384)" fill="#020f2b"/><path d="M184.63,144.294a5.275,5.275,0,0,0-1.775.049,1.789,1.789,0,0,1,1.793-1.417" transform="translate(-163.281 -142.443)" fill="#020f2b"/><path d="M182.951,148.956l1.483,4.218a.109.109,0,0,1-.087.148l-1.751.133a.105.105,0,0,1-.107-.117l.268-4.35A.1.1,0,0,1,182.951,148.956Z" transform="translate(-163.241 -143.088)" fill="#944438"/></g></g></g></g></svg>