<svg xmlns="http://www.w3.org/2000/svg" width="160" height="160" viewBox="0 0 160 160"><g transform="translate(-505.408 -1162.635)"><circle cx="80" cy="80" r="80" transform="translate(505.408 1162.635)" fill="#fff"/><circle cx="72.5" cy="72.5" r="72.5" transform="translate(513.408 1170.635)" fill="#9fa8da"/><g style="isolation:isolate"><g style="isolation:isolate"><path d="M539.58,1251.8a8.974,8.974,0,0,1-2.676-.384,5.887,5.887,0,0,1-2.136-1.164,5.385,5.385,0,0,1-1.416-1.981,7.129,7.129,0,0,1-.516-2.832V1234.5h3.48v10.487a3.666,3.666,0,0,0,.933,2.82,3.338,3.338,0,0,0,2.343.853,3.3,3.3,0,0,0,2.332-.853,3.7,3.7,0,0,0,.921-2.82V1234.5h3.48v10.943a7.128,7.128,0,0,1-.517,2.832,5.322,5.322,0,0,1-1.428,1.981,6.017,6.017,0,0,1-2.135,1.164A8.863,8.863,0,0,1,539.58,1251.8Z" fill="#361274"/><path d="M552.54,1241.1a3.962,3.962,0,0,1,1.608-1.427,5.4,5.4,0,0,1,2.5-.54v3.095a4.909,4.909,0,0,0-3.12.805,3.569,3.569,0,0,0-.984,2.892v5.544H549.2v-12.1h3.336Z" fill="#361274"/><path d="M567.445,1233.467h3.312v18h-3.312V1250a3.425,3.425,0,0,1-1.56,1.271,5.676,5.676,0,0,1-2.256.433,6.226,6.226,0,0,1-2.292-.42,5.229,5.229,0,0,1-1.86-1.236,6.044,6.044,0,0,1-1.26-1.981,6.987,6.987,0,0,1-.468-2.628,7.062,7.062,0,0,1,.468-2.651,6.032,6.032,0,0,1,1.26-1.981,5.365,5.365,0,0,1,1.86-1.248,6.054,6.054,0,0,1,2.292-.431,5.544,5.544,0,0,1,2.256.444,3.5,3.5,0,0,1,1.56,1.283Zm-3.1,15.48a3.142,3.142,0,0,0,2.316-.925,3.484,3.484,0,0,0,.924-2.58,3.613,3.613,0,0,0-.924-2.615,3.3,3.3,0,0,0-4.656,0,3.609,3.609,0,0,0-.924,2.615,3.481,3.481,0,0,0,.924,2.58A3.171,3.171,0,0,0,564.349,1248.947Z" fill="#361274"/><path d="M575.389,1237.5a1.9,1.9,0,0,1-1.38-.552,1.834,1.834,0,0,1-.564-1.368,1.81,1.81,0,0,1,.564-1.345,1.9,1.9,0,0,1,1.38-.552,1.847,1.847,0,0,1,1.332.552,1.817,1.817,0,0,1,.564,1.345,1.905,1.905,0,0,1-1.9,1.92Zm-1.7,13.968v-12.1h3.336v12.1Z" fill="#361274"/><path d="M594.564,1239.131a4.568,4.568,0,0,1,3.072.948,3.279,3.279,0,0,1,1.1,2.628v8.76h-3.312v-7.632a1.946,1.946,0,0,0-.588-1.561,2.153,2.153,0,0,0-1.451-.5,2.67,2.67,0,0,0-.913.157,1.914,1.914,0,0,0-.756.5,2.49,2.49,0,0,0-.516.937,4.729,4.729,0,0,0-.192,1.451v6.649h-3.336v-7.632a1.951,1.951,0,0,0-.588-1.548,2.124,2.124,0,0,0-1.452-.517,2.665,2.665,0,0,0-.912.157,1.862,1.862,0,0,0-.756.515,2.6,2.6,0,0,0-.515.937,4.577,4.577,0,0,0-.193,1.439v6.649h-3.336v-12.1h3.336v1.416a4.3,4.3,0,0,1,1.512-1.225,4.608,4.608,0,0,1,2.04-.431,5.249,5.249,0,0,1,2.484.528,3.062,3.062,0,0,1,1.428,1.535,4.075,4.075,0,0,1,1.572-1.535A4.67,4.67,0,0,1,594.564,1239.131Z" fill="#361274"/><path d="M608.724,1239.131a6.054,6.054,0,0,1,2.292.431,5.355,5.355,0,0,1,1.86,1.248,6.032,6.032,0,0,1,1.26,1.981,7.061,7.061,0,0,1,.468,2.651,6.985,6.985,0,0,1-.468,2.628,6.044,6.044,0,0,1-1.26,1.981,5.219,5.219,0,0,1-1.86,1.236,6.226,6.226,0,0,1-2.292.42,5.766,5.766,0,0,1-2.232-.42,3.409,3.409,0,0,1-1.56-1.236v1.416H601.6v-18h3.336v7.368a3.428,3.428,0,0,1,1.56-1.273A5.609,5.609,0,0,1,608.724,1239.131Zm-.7,9.816a3.142,3.142,0,0,0,2.316-.925,3.484,3.484,0,0,0,.924-2.58,3.613,3.613,0,0,0-.924-2.615,3.288,3.288,0,0,0-4.644,0,3.642,3.642,0,0,0-.912,2.615,3.511,3.511,0,0,0,.912,2.58A3.132,3.132,0,0,0,608.028,1248.947Z" fill="#361274"/><path d="M620.316,1241.1a3.962,3.962,0,0,1,1.608-1.427,5.4,5.4,0,0,1,2.5-.54v3.095a4.909,4.909,0,0,0-3.12.805,3.569,3.569,0,0,0-.984,2.892v5.544H616.98v-12.1h3.336Z" fill="#361274"/><path d="M637.956,1246.091h-9.192a3.154,3.154,0,0,0,1.008,2.232,3.222,3.222,0,0,0,2.184.768,3.274,3.274,0,0,0,1.668-.409,2.414,2.414,0,0,0,1.044-1.248l3.072.409a5.177,5.177,0,0,1-2.136,2.868,6.513,6.513,0,0,1-3.624,1,7.9,7.9,0,0,1-2.688-.433,5.715,5.715,0,0,1-2.052-1.248,5.443,5.443,0,0,1-1.308-1.979,7.164,7.164,0,0,1-.456-2.628,6.994,6.994,0,0,1,.468-2.628,5.582,5.582,0,0,1,1.32-1.981,5.766,5.766,0,0,1,2.028-1.248,7.467,7.467,0,0,1,2.592-.431,7.581,7.581,0,0,1,2.412.372,5.17,5.17,0,0,1,1.932,1.139,5.359,5.359,0,0,1,1.284,1.933,7.339,7.339,0,0,1,.468,2.748Zm-6.072-4.512a3.147,3.147,0,0,0-2.028.624,3,3,0,0,0-1.02,1.848h5.856a2.628,2.628,0,0,0-.888-1.825A2.88,2.88,0,0,0,631.884,1241.579Z" fill="#361274"/></g></g></g></svg>