<svg xmlns="http://www.w3.org/2000/svg" width="250" height="200" viewBox="0 0 250 200"><g transform="translate(-1718.721 -74.37)"><rect width="250" height="200" transform="translate(1718.721 74.37)" fill="none"/><path d="M1747.619,78.276h96.093V223.588h-96.093Z" fill="#ffa2c3"/><path d="M1796.837,106.4v35.157h96.094V106.4Z" fill="#eefaff"/><path d="M1846.057,129.839h93.749V270.468h-93.749Z" fill="#ffa2c3"/><path d="M1939.806,223.588v46.875h-93.749V223.588c9.152,0,14.285,23.438,23.437,23.438s14.285-23.438,23.438-23.438,14.285,23.438,23.437,23.438S1930.654,223.588,1939.806,223.588Z" fill="#ffda8f"/><path d="M1939.806,153.276v35.157c-9.152,0-14.285,23.437-23.438,23.437s-14.285-23.437-23.437-23.437-14.286,23.437-23.438,23.437-14.284-23.437-23.436-23.437V153.276c9.152,0,14.285,23.438,23.437,23.438s14.285-23.438,23.438-23.438,14.285,23.438,23.437,23.438S1930.654,153.276,1939.806,153.276Z" fill="#ffda8f"/><path d="M1846.056,247.026h-49.219V211.869h49.219Z" fill="#91def5"/><path d="M1846.056,211.87h-49.219V176.714h49.219Z" fill="#eefaff"/><path d="M1846.056,176.714h-49.219V141.558h49.219Z" fill="#91def5"/><circle cx="3.936" cy="3.936" r="3.936" transform="translate(1888.705 266.272)"/><path d="M1939.806,125.933h-42.965V106.4a3.907,3.907,0,0,0-3.906-3.906h-45.316V78.276a3.907,3.907,0,0,0-3.907-3.906h-96.093a3.906,3.906,0,0,0-3.906,3.906V223.589a3.906,3.906,0,0,0,3.9,3.909h45.315V247.03a3.906,3.906,0,0,0,3.906,3.906h45.313v19.531a3.906,3.906,0,0,0,3.91,3.9h29.3a3.906,3.906,0,1,0,0-7.812h-25.39V230.565a73.79,73.79,0,0,1,4.477,6.776c4.073,6.683,8.284,13.593,15.057,13.593s10.982-6.91,15.057-13.593c2.532-4.155,6-9.841,8.384-9.841s5.85,5.69,8.383,9.841c4.073,6.683,8.284,13.593,15.057,13.593s10.982-6.91,15.057-13.593a73.816,73.816,0,0,1,4.477-6.776v35.993h-25.39a3.906,3.906,0,1,0,0,7.812h29.3a3.907,3.907,0,0,0,3.906-3.906V129.839a3.907,3.907,0,0,0-3.908-3.906Zm-97.656,46.875h-41.406V145.464h41.407Zm-41.407,7.813h41.407v27.343h-41.406Zm49.218-20.371a73.79,73.79,0,0,1,4.477,6.776c4.073,6.684,8.284,13.593,15.057,13.593s10.982-6.909,15.057-13.593c2.532-4.154,6-9.841,8.384-9.841s5.85,5.691,8.383,9.841c4.074,6.684,8.285,13.593,15.057,13.593s10.982-6.909,15.057-13.593a74.018,74.018,0,0,1,4.477-6.776v25.108c-4.6,2.029-7.921,7.463-11.148,12.759-2.532,4.155-6,9.841-8.384,9.841s-5.85-5.69-8.383-9.841c-4.074-6.684-8.285-13.593-15.057-13.593s-10.982,6.909-15.057,13.593c-2.532,4.154-6,9.841-8.384,9.841s-5.85-5.69-8.384-9.841c-3.226-5.295-6.543-10.727-11.148-12.759ZM1935.9,150.2c-4.6,2.029-7.921,7.464-11.148,12.759-2.532,4.156-6,9.841-8.384,9.841s-5.85-5.69-8.383-9.841c-4.074-6.683-8.285-13.592-15.057-13.592s-10.982,6.909-15.057,13.592c-2.532,4.155-6,9.841-8.384,9.841s-5.85-5.69-8.383-9.841c-3.227-5.294-6.544-10.727-11.148-12.759V133.745H1935.9Zm-46.875-24.27H1846.06a3.906,3.906,0,0,0-3.905,3.906v7.81h-41.411V110.308h88.281Zm-137.5,93.749V82.183h88.28V102.5h-42.968a3.906,3.906,0,0,0-3.906,3.906h0V219.682Zm49.218,23.438V215.776h41.407V243.12Zm124.008-9.841c-2.532,4.155-6,9.841-8.384,9.841s-5.85-5.69-8.383-9.841c-4.074-6.683-8.285-13.593-15.057-13.593s-10.982,6.91-15.057,13.593c-2.532,4.155-6,9.841-8.384,9.841s-5.85-5.69-8.383-9.841c-3.227-5.3-6.544-10.727-11.148-12.759V195.408a74.02,74.02,0,0,1,4.476,6.777c4.074,6.682,8.285,13.591,15.057,13.591s10.982-6.909,15.057-13.592c2.532-4.155,6-9.841,8.384-9.841s5.85,5.69,8.383,9.841c4.074,6.683,8.285,13.592,15.057,13.592s10.982-6.909,15.057-13.592a73.983,73.983,0,0,1,4.477-6.777v25.1c-4.61,2.035-7.925,7.468-11.152,12.764Z"/></g></svg>