<svg xmlns="http://www.w3.org/2000/svg" width="249.999" height="201" viewBox="0 0 249.999 201"><g transform="translate(-1983.876 -73.87)"><rect width="250" height="200" transform="translate(1983.876 74.37)" fill="none"/><path d="M2190.493,167.118H2048.326l10.589-43.623H2179.5a18.2,18.2,0,0,1,18.2,18.2v18.22a7.2,7.2,0,0,1-7.2,7.2Z" fill="#918291"/><path d="M2179.5,123.5h-8.914a18.2,18.2,0,0,1,18.2,18.2v18.22a7.2,7.2,0,0,1-7.2,7.2h8.914a7.2,7.2,0,0,0,7.2-7.2V141.693a18.2,18.2,0,0,0-18.2-18.2Z" fill="#7a6d79"/><path d="M2175.322,255.658h-149.37V147.116a23.62,23.62,0,0,1,23.619-23.621h125.751Z" fill="#c3aff0"/><path d="M2166.408,123.5h8.914V255.658h-8.914Z" fill="#aa96e6"/><path d="M2025.952,216.312h149.37V255.66h-149.37Z" fill="#aa96e6"/><path d="M2166.408,216.312h8.914V255.66h-8.914Z" fill="#6e61b6"/><path d="M2048.335,170.1l17.58,17.58-17.58,17.58-17.58-17.58Z" fill="#f4dbb3"/><path d="M2083.493,170.1l17.58,17.58-17.58,17.581-17.581-17.581Z" fill="#f4dbb3"/><path d="M2118.649,170.091l17.58,17.58-17.58,17.581-17.58-17.581Z" fill="#f4dbb3"/><path d="M2153.806,170.087l17.58,17.581-17.58,17.58-17.581-17.58Z" fill="#f4dbb3"/><path d="M2048.326,170.111l-5.061,5.062,12.519,12.514-12.519,12.523,5.061,5.062,17.581-17.585Z" fill="#eac89f"/><path d="M2083.488,170.111l-5.062,5.062,12.519,12.514-12.519,12.519,5.062,5.061,17.58-17.58Z" fill="#eac89f"/><path d="M2118.647,170.111l-5.061,5.062,12.519,12.514-12.519,12.519,5.061,5.061,17.58-17.58Z" fill="#eac89f"/><path d="M2153.809,170.111l-5.062,5.062,12.519,12.514-12.519,12.519,5.062,5.061,17.58-17.58Z" fill="#eac89f"/><path d="M2025.952,201.808h149.37v14.5h-149.37Z" fill="#eac89f"/><path d="M2166.408,201.808h8.914v14.5h-8.914Z" fill="#d2af8c"/><path d="M2025.952,187.692h149.37v14.116h-149.37Z" fill="#edf4ff"/><path d="M2166.408,187.692h8.914v14.116h-8.914Z" fill="#dbeaff"/><path d="M2025.952,149.075h149.37v13.9h-149.37Z" fill="#e5646e"/><path d="M2190.164,85.1V99.787l-18.367-.146-124.744-.986a6.212,6.212,0,0,1,0-12.424l123.762-.982Z" fill="#edf4ff"/><path d="M2190.164,85.1V99.787l-18.372-.146a14.747,14.747,0,0,1-.982-14.391Z" fill="#dbeaff"/><path d="M2166.408,149.075h8.914v13.9h-8.914Z" fill="#db4655"/><circle cx="14.744" cy="14.744" r="14.744" transform="translate(2178.306 76.827)" fill="#edf4ff"/><path d="M2193.05,76.827a14.749,14.749,0,0,0-4.457.687,14.748,14.748,0,0,1,0,28.114,14.748,14.748,0,1,0,4.457-28.8Z" fill="#dbeaff"/><circle cx="2.961" cy="2.961" r="2.961" transform="translate(2150.827 135.611)"/><circle cx="2.961" cy="2.961" r="2.961" transform="translate(2115.669 135.606)"/><circle cx="2.961" cy="2.961" r="2.961" transform="translate(2045.374 135.579)"/><path d="M2097.371,96.1a2.956,2.956,0,0,0-.024,5.912h0l81.917.647a17.7,17.7,0,1,0-1.244-20.419l-130.988,1.038a9.168,9.168,0,0,0,0,18.336l16.635.131v18.8h-14.092A26.6,26.6,0,0,0,2023,147.116v124.8a2.956,2.956,0,0,0,5.912,0v-13.3h9.028v13.3a2.956,2.956,0,0,0,5.912,0v-13.3h9.028v13.3a2.956,2.956,0,0,0,5.912,0v-13.3h9.025v13.3a2.957,2.957,0,0,0,5.913,0v-13.3h9.024v13.3a2.957,2.957,0,0,0,5.913,0v-13.3h9.025v13.3a2.956,2.956,0,0,0,5.912,0v-13.3h9.025v13.3a2.956,2.956,0,0,0,5.912,0v-13.3h9.025v13.3a2.957,2.957,0,0,0,5.913,0v-13.3h9.024v13.3a2.957,2.957,0,0,0,5.913,0v-13.3h9.024v13.3a2.956,2.956,0,1,0,5.912,0v-13.3h9.025v13.3a2.956,2.956,0,1,0,5.912,0V126.451h1.22a15.26,15.26,0,0,1,15.241,15.242v18.218a4.254,4.254,0,0,1-4.246,4.246h-1.429a2.956,2.956,0,1,0,0,5.912h1.429a10.17,10.17,0,0,0,10.158-10.158V141.693a21.178,21.178,0,0,0-21.153-21.154h-93.061V88.876l89.238-.708a17.757,17.757,0,0,0,.434,8.551L2097.4,96.1Zm-50.3-.4c-4.2.027-4.179-6.548,0-6.512l16.589-.132V95.83Zm125.29,157h-4.843l4.843-4.843Zm-34.717,0,33.433-33.433h1.285V239.5l-13.2,13.205Zm-29.873,0,33.433-33.433h21.513L2129.288,252.7Zm-29.874,0,33.433-33.433h21.513L2099.414,252.7Zm-48.991-39.345v-8.59h143.455v8.591Zm51.621-47.423v2.957l-14.626,14.622-14.623-14.623v-2.956Zm35.161,0v2.956l-14.623,14.623-14.627-14.625v-2.954Zm35.16,0v2.955l-14.626,14.624L2121.6,168.889v-2.956ZM2028.91,190.648h143.456v8.2H2028.91Zm19.415-16.354,10.442,10.441h-20.883Zm35.164,0,10.441,10.441h-20.886Zm35.159,0,10.442,10.441H2108.2Zm24.718,10.441,10.442-10.441,10.443,10.441Zm-98-15.847-15.847,15.847h-.613v-18.8h16.46Zm-16.46,50.38h14.7l-14.7,14.7Zm143.456-34.779-15.6-15.6v-2.957h15.6Zm0-24.468H2028.91v-7.986h143.456v7.986ZM2028.91,242.336l23.063-23.063H2073.1l-14.624,14.619a2.956,2.956,0,0,0,4.18,4.181l18.806-18.806h21.512L2069.539,252.7h-21.511l4.762-4.762a2.956,2.956,0,0,0-4.18-4.18l-8.939,8.942H2028.91Zm143.456-115.884v19.67H2028.935a20.689,20.689,0,0,1,20.64-19.67h30.957v12.113a2.961,2.961,0,0,0,5.922.005V126.452Zm-102.789-5.912V101.79l10.955.086v18.663h-10.955Zm10.955-24.579-10.955-.087V89.01l10.955-.087ZM2193.05,79.783a11.789,11.789,0,1,1-11.785,11.791v0a11.8,11.8,0,0,1,11.788-11.789Z"/></g></svg>