<svg xmlns="http://www.w3.org/2000/svg" width="250" height="100" viewBox="0 0 250 100"><g transform="translate(-403.974 -675.884)"><path d="M504.076,755.611v-.235c-7.088,2.005-11.5,4.825-11.5,7.951,0,6.089,16.746,11.025,37.4,11.025s37.4-4.935,37.4-11.025c0-3.126-4.414-5.946-11.5-7.951v.235Z" fill="#f3eae6" fill-rule="evenodd"/><path d="M555.876,696.386h-51.8v59.226c0,5.164,11.6,9.352,25.9,9.352,9.112,0,17.125-1.7,21.74-4.263,2.633-1.465,4.154-3.212,4.154-5.085v-.235Q555.876,725.879,555.876,696.386Z" fill="#7bacdf" fill-rule="evenodd"/><path d="M504.094,696.392a110.7,110.7,0,0,0,51.783-.007c7.094-2.005,11.5-4.825,11.5-7.951,0-6.083-16.745-11.018-37.4-11.018s-37.4,4.935-37.4,11.019c0,3.126,4.409,5.946,11.5,7.951A.02.02,0,0,0,504.094,696.392Z" fill="#f3eae6" fill-rule="evenodd"/><path d="M504.076,721.1V730.9l15.682-4.9Z" fill="#7bacdf" fill-rule="evenodd"/><path d="M504.076,730.9V743.25l51.8-16.179V714.717l-16.332,5.1L519.757,726Z" fill="#c5e3ff" fill-rule="evenodd"/><path d="M555.876,727.076l-51.8,16.179v12.354l15.682-4.9,19.787-6.175,16.332-5.1V727.076Z" fill="#c5e3ff" fill-rule="evenodd"/><path d="M529.98,683.684c-9.948,0-18.016,1.689-18.016,3.769s8.065,3.768,18.016,3.768S548,689.532,548,687.453,539.931,683.684,529.98,683.684Z" fill="#acacac" fill-rule="evenodd"/><path d="M537.773,687.4c0,1.741-5.645,3.206-13.313,3.643,1.742.115,3.592.178,5.519.178,9.948,0,18.016-1.689,18.016-3.768s-8.066-3.768-18.016-3.768c-1.627,0-3.2.045-4.7.132C532.526,684.3,537.773,685.723,537.773,687.4Z" fill="#838383" fill-rule="evenodd"/><path d="M524.411,677.536c18.016.793,31.835,5.372,31.835,10.9,0,3.126-4.409,5.946-11.5,7.951a91.676,91.676,0,0,1-20.334,2.952q2.726.12,5.565.12a115.867,115.867,0,0,0,16.636-1.149,72.509,72.509,0,0,0,9.261-1.924c7.094-2,11.5-4.825,11.5-7.951,0-6.083-16.745-11.018-37.4-11.018q-2.836,0-5.565.12Z" fill="#cdbeb9" fill-rule="evenodd"/><path d="M552.668,760.127c-.868,5.859-17.263,10.531-37.366,10.531a117.343,117.343,0,0,1-16.112-1.068c6.748,2.873,18.021,4.763,30.789,4.763,20.654,0,37.4-4.935,37.4-11.025,0-3.126-4.414-5.946-11.5-7.951v.235C555.876,757.248,554.715,758.789,552.668,760.127Z" fill="#cdbeb9" fill-rule="evenodd"/><path d="M549.455,710.56l6.422,2.005v-16.18c-1.949.558-4.1,1.045-6.422,1.465Z" fill="#3987d0" fill-rule="evenodd"/><path d="M549.455,716.729l6.422-2.011v-2.154l-6.422-2.005Z" fill="#3987d0" fill-rule="evenodd"/><path d="M555.877,727.076V714.723l-6.422,2.01v12.353Z" fill="#8ac9fe" fill-rule="evenodd"/><path d="M555.877,739.434V727.08l-6.422,2.005v12.354Z" fill="#8ac9fe" fill-rule="evenodd"/><path d="M549.455,747.634l6.422,2.005v-10.2l-6.422,2.005Z" fill="#3987d0" fill-rule="evenodd"/><path d="M552.668,760.127c2.047-1.338,3.208-2.879,3.208-4.516v-5.975l-6.422-2v12.353l2.265.713Q552.22,760.412,552.668,760.127Z" fill="#3987d0" fill-rule="evenodd"/><path d="M594.756,732.485a1.531,1.531,0,0,0-2.034-.741l-.007,0c-4.565,2.142-12.88,2.142-17.444,0-4.758-2.232-12.391-2.514-17.864-.832V697.53c7.528-2.31,11.5-5.45,11.5-9.1,0-3.735-4.168-6.937-12.054-9.262-7.2-2.116-16.745-3.284-26.877-3.284s-19.678,1.169-26.879,3.291c-7.885,2.322-12.054,5.525-12.054,9.261,0,3.648,3.973,6.787,11.5,9.094v56.7c-7.527,2.307-11.5,5.44-11.5,9.1,0,3.737,4.169,6.942,12.054,9.266,7.2,2.122,16.746,3.291,26.879,3.291s19.677-1.168,26.878-3.291c7.887-2.324,12.054-5.529,12.054-9.266,0-3.655-3.973-6.788-11.5-9.1V734.152c4.69-1.763,12.278-1.639,16.562.37a27.234,27.234,0,0,0,20.049,0,1.532,1.532,0,0,0,.739-2.035l0,0Zm-43.213,26.55L524.9,750.712l14.639-4.572,14.8,4.624v4.847c0,1.144-1,2.331-2.8,3.423Zm-31.789-34.641-14.145-4.419v-9.146l10.019,3.13L534.4,719.82ZM514.616,726l-9,2.812v-5.626Zm-9,6.024,14.581-4.554.074-.023,19.741-6.166.026-.008,14.309-4.47v9.15l-23.466,7.325-5.782,1.809-19.486,6.083Zm48.731-21.544-30.905-9.653c2.141.109,4.327.165,6.541.165a104.665,104.665,0,0,0,24.364-2.613Zm-.16,3.162-14.64,4.571-23-7.181-10.932-3.415v-9.146Zm-48.574,30.739,20.4-6.369,5.782-1.809,22.551-7.042v9.145L519.36,749.231c-.04.011-.079.023-.119.037l-13.636,4.264Zm48.734-2.863v6.034l-9.659-3.014Zm-60.236-53.082c0-3.961,13.646-9.486,35.867-9.486s35.867,5.525,35.867,9.486-13.645,9.491-35.867,9.491S494.107,692.4,494.107,688.436Zm71.739,74.891c0,3.963-13.646,9.492-35.867,9.492s-35.872-5.528-35.872-9.492c0-1.582,2.34-3.922,8.746-5.979,1.24,3.487,6.248,6.324,14.167,7.93a1.533,1.533,0,0,0,.609-3.005h0c-6.938-1.407-10.7-3.717-11.725-5.626l13.862-4.329,27.561,8.61a55.5,55.5,0,0,1-17.345,2.5c-1.792,0-3.6-.07-5.371-.208a1.535,1.535,0,1,0-.238,3.061c1.851.144,3.737.219,5.609.219,12.163,0,25.022-3.193,27.128-9.148,6.4,2.056,8.739,4.4,8.739,5.977Z"/><path d="M543.032,691.618c4.431-.927,6.495-2.251,6.495-4.164s-2.064-3.237-6.495-4.164a66.848,66.848,0,0,0-13.053-1.137c-1.448,0-2.936.037-4.422.109a1.532,1.532,0,1,0,.152,3.061h0c1.436-.071,2.873-.109,4.27-.109,8.993,0,14.509,1.328,16.133,2.235-1.624.908-7.14,2.236-16.133,2.236-8.965,0-14.471-1.319-16.116-2.227a17.052,17.052,0,0,1,4.905-1.406,1.533,1.533,0,0,0-.526-3.02h0c-5.329.927-7.812,2.33-7.812,4.416,0,1.915,2.064,3.237,6.495,4.164a75.694,75.694,0,0,0,26.107.006Z"/><rect width="250" height="100" transform="translate(403.974 675.884)" fill="none"/><rect width="248.879" height="98.077" transform="translate(404.535 676.846)" fill="none"/></g></svg>