<svg xmlns="http://www.w3.org/2000/svg" width="100.001" height="101.591" viewBox="0 0 100.001 101.591"><g transform="translate(-717.701 -60.942)"><circle cx="50" cy="50" r="50" transform="translate(717.702 62.533)" fill="#fff"/><circle cx="48.162" cy="48.162" r="48.162" transform="translate(719.54 64.371)" fill="none" stroke="#361274" stroke-width="3.676"/><path d="M737.494,70.65h66.624A2.352,2.352,0,0,1,806.471,73h0v64.414a2.353,2.353,0,0,1-2.353,2.353H737.494Z" fill="#f87b67"/><path d="M737.494,70.65v69.12h66.625a2.352,2.352,0,0,0,2.351-2.353h0v-3.08H755.245a2.73,2.73,0,0,1-2.729-2.729V70.65Z" fill="#f76c57"/><path d="M728.931,70.7v60.487H746.1V70.7a8.584,8.584,0,1,0-17.169,0Z" fill="#f87b67"/><circle cx="8.584" cy="8.584" r="8.584" transform="translate(728.931 122.602)" fill="#e5554e"/><path d="M737.516,135.158a3.973,3.973,0,1,0-3.973-3.972h0A3.977,3.977,0,0,0,737.516,135.158Z" fill="#f87b67"/><path d="M737.516,126.043a5.144,5.144,0,1,0,5.143,5.144A5.144,5.144,0,0,0,737.516,126.043Zm0,7.944a2.8,2.8,0,1,1,2.8-2.8h0A2.8,2.8,0,0,1,737.516,133.987Z"/><path d="M804.119,69.479H747.193A9.755,9.755,0,0,0,727.76,70.7V131.19a9.767,9.767,0,0,0,9.77,9.752h66.588a3.532,3.532,0,0,0,3.525-3.525V73a3.532,3.532,0,0,0-3.525-3.525ZM730.1,70.7a7.412,7.412,0,0,1,14.825,0v54.151a9.736,9.736,0,0,0-14.825,0Zm7.423,67.9a7.412,7.412,0,1,1,7.4-7.422v.007a7.417,7.417,0,0,1-7.4,7.412Zm67.77-1.181a1.182,1.182,0,0,1-1.182,1.181H743.848a9.811,9.811,0,0,0,2.162-2.62c.328.137-2.991.091,59.291.091Zm0-9.16H794.9a1.172,1.172,0,0,0,0,2.343h10.4v3.125H746.934a10.823,10.823,0,0,0,.338-3.125H790.21a1.172,1.172,0,1,0,0-2.343h-42.94v-3.128H805.3Zm0-5.469H747.272v-4.064l.945.945a.567.567,0,0,0,.8,0h0l1.951-1.952a.557.557,0,0,0,.163-.37.567.567,0,0,0,.163.37l1.952,1.952a.567.567,0,0,0,.8,0h0L756,117.72a.567.567,0,0,0,.163-.37.557.557,0,0,0,.163.37l1.951,1.952a.567.567,0,0,0,.8,0h0l1.951-1.952a.557.557,0,0,0,.163-.37.567.567,0,0,0,.163.37l1.952,1.952a.567.567,0,0,0,.8,0h0l1.952-1.952a.567.567,0,0,0,.163-.37.561.561,0,0,0,.162.37l1.952,1.952a.567.567,0,0,0,.8,0h0l1.952-1.952a.557.557,0,0,0,.163-.37.567.567,0,0,0,.163.37l1.952,1.952a.567.567,0,0,0,.8,0h0l1.952-1.952a.561.561,0,0,0,.162-.37.567.567,0,0,0,.163.37l1.952,1.952a.567.567,0,0,0,.8,0h0l1.952-1.952a.567.567,0,0,0,.163-.37.557.557,0,0,0,.163.37l1.951,1.952a.568.568,0,0,0,.8,0h0l1.951-1.952a.557.557,0,0,0,.163-.37.567.567,0,0,0,.163.37l1.952,1.952a.567.567,0,0,0,.8,0h0l1.952-1.952a.567.567,0,0,0,.163-.37.557.557,0,0,0,.163.37l1.951,1.952a.567.567,0,0,0,.8,0h0l1.951-1.952a.557.557,0,0,0,.163-.37.567.567,0,0,0,.163.37l1.952,1.952a.567.567,0,0,0,.8,0h0l1.952-1.952a.567.567,0,0,0,.163-.37.557.557,0,0,0,.163.37l1.951,1.952a.567.567,0,0,0,.8,0h0l.947-.947v4.063Zm0-6.874-.947-.947a.566.566,0,0,0-.8,0h0l-1.951,1.952a.557.557,0,0,0-.163.37.567.567,0,0,0-.163-.37l-1.952-1.952a.566.566,0,0,0-.8,0h0l-1.952,1.952a.567.567,0,0,0-.163.37.557.557,0,0,0-.163-.37l-1.951-1.952a.566.566,0,0,0-.8,0h0l-1.951,1.952a.557.557,0,0,0-.163.37.567.567,0,0,0-.163-.37l-1.949-1.955a.567.567,0,0,0-.8,0h0l-1.952,1.952a.567.567,0,0,0-.163.37.557.557,0,0,0-.163-.37l-1.951-1.952a.567.567,0,0,0-.8,0h0l-1.951,1.952a.557.557,0,0,0-.163.37.567.567,0,0,0-.163-.37l-1.952-1.952a.567.567,0,0,0-.8,0h0l-1.952,1.952a.567.567,0,0,0-.163.37.557.557,0,0,0-.163-.37l-1.951-1.952a.567.567,0,0,0-.8,0h0l-1.951,1.952a.557.557,0,0,0-.163.37.567.567,0,0,0-.163-.37l-1.952-1.952a.567.567,0,0,0-.8,0h0l-1.952,1.952a.567.567,0,0,0-.163.37.561.561,0,0,0-.162-.37l-1.952-1.952a.567.567,0,0,0-.8,0h0l-1.951,1.952a.557.557,0,0,0-.163.37.567.567,0,0,0-.163-.37l-1.952-1.952a.567.567,0,0,0-.8,0h0l-1.952,1.952a.567.567,0,0,0-.163.37.561.561,0,0,0-.162-.37l-1.952-1.952a.567.567,0,0,0-.8,0h0l-1.952,1.952a.221.221,0,1,1-.326,0l-1.952-1.952a.567.567,0,0,0-.8,0h0l-.944.945v-4.061H805.3v4.063Zm0-11.876H768.648a1.172,1.172,0,0,0,0,2.344H805.3v3.125H747.272v-3.128h16.692a1.172,1.172,0,1,0,0-2.344H747.272v-3.125H805.3Zm0-5.468H747.272V94.509l.945.944a.566.566,0,0,0,.8,0h0L750.97,93.5a.558.558,0,0,0,.163-.371.567.567,0,0,0,.163.371l1.952,1.951a.566.566,0,0,0,.8,0h0L756,93.5a.567.567,0,0,0,.163-.371.558.558,0,0,0,.163.371l1.951,1.951a.566.566,0,0,0,.8,0h0l1.951-1.951a.557.557,0,0,0,.163-.371.567.567,0,0,0,.163.371l1.952,1.951a.566.566,0,0,0,.8,0h0l1.952-1.951a.567.567,0,0,0,.163-.371.561.561,0,0,0,.162.371l1.952,1.951a.566.566,0,0,0,.8,0h0l1.952-1.951a.221.221,0,1,1,.326,0l1.952,1.951a.566.566,0,0,0,.8,0h0l1.952-1.951a.561.561,0,0,0,.162-.371.567.567,0,0,0,.163.371l1.952,1.951a.566.566,0,0,0,.8,0h0l1.952-1.951a.567.567,0,0,0,.163-.371.558.558,0,0,0,.163.371l1.951,1.951a.567.567,0,0,0,.8,0h0l1.951-1.951a.558.558,0,0,0,.163-.371.567.567,0,0,0,.163.371l1.952,1.951a.566.566,0,0,0,.8,0h0l1.952-1.951a.567.567,0,0,0,.163-.371.557.557,0,0,0,.163.371l1.951,1.951a.566.566,0,0,0,.8,0h0l1.951-1.951a.557.557,0,0,0,.163-.371.567.567,0,0,0,.163.371l1.952,1.951a.566.566,0,0,0,.8,0h0l1.952-1.951a.567.567,0,0,0,.163-.371.558.558,0,0,0,.163.371l1.951,1.951a.566.566,0,0,0,.8,0h0l.947-.947V98.57Zm0-6.874-.947-.947a.566.566,0,0,0-.8,0h0L801.6,92.7a.558.558,0,0,0-.163.371.567.567,0,0,0-.163-.371l-1.952-1.951a.566.566,0,0,0-.8,0h0L796.565,92.7a.567.567,0,0,0-.163.371.557.557,0,0,0-.163-.371l-1.951-1.951a.566.566,0,0,0-.8,0h0L791.535,92.7a.557.557,0,0,0-.163.371.567.567,0,0,0-.163-.371l-1.949-1.954a.566.566,0,0,0-.8,0h0L786.507,92.7a.567.567,0,0,0-.163.371.558.558,0,0,0-.163-.371l-1.951-1.951a.566.566,0,0,0-.8,0h0L781.477,92.7a.558.558,0,0,0-.163.371.567.567,0,0,0-.163-.371L779.2,90.749a.566.566,0,0,0-.8,0h0L776.446,92.7a.567.567,0,0,0-.163.371.558.558,0,0,0-.163-.371l-1.951-1.951a.566.566,0,0,0-.8,0h0L771.416,92.7a.558.558,0,0,0-.163.371.567.567,0,0,0-.163-.371l-1.952-1.951a.566.566,0,0,0-.8,0h0L766.385,92.7a.567.567,0,0,0-.163.371.561.561,0,0,0-.162-.371l-1.952-1.951a.566.566,0,0,0-.8,0h0L761.355,92.7a.558.558,0,0,0-.163.371.567.567,0,0,0-.163-.371l-1.952-1.951a.566.566,0,0,0-.8,0h0L756.324,92.7a.567.567,0,0,0-.163.371A.561.561,0,0,0,756,92.7l-1.952-1.951a.566.566,0,0,0-.8,0h0L751.294,92.7a.221.221,0,1,1-.326,0l-1.952-1.951a.566.566,0,0,0-.8,0h0l-.945.945V87.632H805.3V91.7Zm0-6.407H747.272V82.164H805.3Zm0-10.938H782.4a1.172,1.172,0,0,0,0,2.344h22.9v3.125H747.272V76.695H777.71a1.172,1.172,0,0,0,0-2.344H747.272V71.822h56.847A1.183,1.183,0,0,1,805.3,73Z"/></g></svg>