<svg xmlns="http://www.w3.org/2000/svg" width="76.25" height="59.538" viewBox="0 0 76.25 59.538"><g transform="translate(0 -56)"><g transform="translate(1.119 57.119)"><path d="M81.512,82.6,7.5,120.8V101.7L81.512,63.5Z" transform="translate(-7.5 -63.5)" fill="#ff9c62"/><path d="M7.5,63.5H81.512V82.6H7.5Z" transform="translate(-7.5 -63.5)" fill="#ffed77"/><path d="M7.5,159.5H81.512v4.775H7.5Z" transform="translate(-7.5 -145.175)" fill="#ffe11c"/><path d="M13.469,73.05a4.775,4.775,0,0,1,4.775-4.775V63.5H7.5V82.6H18.244V77.825A4.775,4.775,0,0,1,13.469,73.05Z" transform="translate(-7.5 -63.5)" fill="#bfabb8"/><g transform="translate(0 14.325)"><path d="M7.5,159.5H18.244v4.775H7.5Z" transform="translate(-7.5 -159.5)" fill="#9f8194"/></g><g transform="translate(0 38.2)"><path d="M7.5,319.5H81.512v19.1H7.5Z" transform="translate(-7.5 -319.5)" fill="#ffed77"/><path d="M7.5,415.5H81.512v4.775H7.5Z" transform="translate(-7.5 -401.175)" fill="#ffe11c"/></g></g><path d="M76.25,57.119A1.119,1.119,0,0,0,75.131,56H1.119A1.119,1.119,0,0,0,0,57.119v19.1a1.119,1.119,0,0,0,1.119,1.119h32.4L.606,94.324A1.13,1.13,0,0,0,0,95.319v19.1a1.119,1.119,0,0,0,1.119,1.119H56.7a1.119,1.119,0,1,0,0-2.238H2.238V96.438H8.356v3.656a1.119,1.119,0,0,0,2.238,0V96.438H22.681v8.431a1.119,1.119,0,1,0,2.238,0V96.438H37.006v3.656a1.119,1.119,0,0,0,2.238,0V96.438H51.331v8.431a1.119,1.119,0,1,0,2.238,0V96.438H65.656v3.656a1.119,1.119,0,0,0,2.238,0V96.438h6.118V113.3H62.149a1.119,1.119,0,0,0,0,2.238H75.131a1.119,1.119,0,0,0,1.119-1.119v-19.1A1.119,1.119,0,0,0,75.131,94.2h-32.4L75.644,77.213a1.131,1.131,0,0,0,.606-.995ZM74.012,75.1H12.982V71.444a1.119,1.119,0,0,0-1.119-1.119,3.656,3.656,0,0,1,0-7.312,1.119,1.119,0,0,0,1.119-1.119V58.238h9.7v3.656a1.119,1.119,0,0,0,2.238,0V58.238H37.006v8.431a1.119,1.119,0,1,0,2.238,0V58.238H51.331v3.656a1.119,1.119,0,0,0,2.238,0V58.238H65.656v8.431a1.119,1.119,0,1,0,2.238,0V58.238h6.118Zm-71.773,0V58.238h8.505v2.643a5.895,5.895,0,0,0,0,11.575V75.1Zm68.284,2.238S38.13,94.091,38.038,94.2H5.728L38.4,77.338Z"/></g></svg>