<?xml version="1.0" encoding="utf-8"?>
<!-- Generator: Adobe Illustrator 25.2.0, SVG Export Plug-In . SVG Version: 6.00 Build 0)  -->
<svg version="1.1" id="Layer_1" xmlns="http://www.w3.org/2000/svg" xmlns:xlink="http://www.w3.org/1999/xlink" x="0px" y="0px"
	 viewBox="0 0 100 100" style="enable-background:new 0 0 100 100;" xml:space="preserve">
<style type="text/css">
	.st0{fill:#54768A;}
	.st1{fill:#FFFFFF;}
	.st2{fill:#395A6E;}
	.st3{fill:#E0EFFF;}
	.st4{fill:#BFDEFF;}
	.st5{fill:#FF5492;}
</style>
<g transform="translate(-51.848)">
	<g transform="translate(53.469 1.621)">
		<g transform="translate(0 7.643)">
			<path class="st0" d="M10,83.2V13.6C10,6,16.3-1,24.5-0.9h47.8c8,0,14.5,6.5,14.5,14.5v68.9c0,0-11.2,6.8-12.2,6.8H22.1L10,83.2z"
				/>
			<path class="st1" d="M34.3-0.9h28.2L48.4,65.7L34.3-0.9z"/>
			<g transform="translate(13.595 0.001)">
				<path class="st2" d="M20.7-0.9h-5.9L8.7,16l9,10.9l-1.9,17.7l18.9,21.1L20.7-0.9z"/>
				<path class="st2" d="M48.9-0.9h5.9L60.9,16l-9,10.9l1.9,17.7L34.8,65.7L48.9-0.9z"/>
			</g>
			<g transform="translate(0.002 92.287)">
				<path class="st3" d="M22.1-3H11.9c-1.1,0-2-0.9-2-2c0,0,0,0,0,0v-4.8h12.1V-3z"/>
				<path class="st3" d="M84.8-3H74.7v-6.8h12.1V-5C86.8-3.9,85.9-3,84.8-3C84.8-3,84.8-3,84.8-3z"/>
			</g>
		</g>
		<g transform="translate(26.911)">
			<path class="st3" d="M16.9,13.3L7.4,6.8l4-6.9l10.2,6.9L16.9,13.3z"/>
		</g>
		<g transform="translate(42.374)">
			<path class="st3" d="M10.5,13.3l9.6-6.6l-4-6.9L5.9,6.8L10.5,13.3z"/>
		</g>
		<path class="st4" d="M38.3-0.2h20.2l-10,6.9L38.3-0.2z"/>
		<g transform="translate(35.672 7.672)">
			<path class="st5" d="M8.2,5.7l3,7h3l3-7l-4.4-6.6L8.2,5.7z"/>
			<path class="st5" d="M11.2,12.6h3l4.7,23.6l-6.2,29.5L6.5,36.2L11.2,12.6z"/>
		</g>
	</g>
	<g transform="translate(51.848 0)">
		<path d="M73.9,6.9H65l-3.6-6.2C61.1,0.3,60.6,0,60.1,0H39.9c-0.5,0-1,0.3-1.3,0.7l-3.6,6.2h-9C22,7,18,8.6,15.1,11.5
			c-3.1,2.9-4.9,7.1-4.9,11.4v73.7c0,1.9,1.5,3.4,3.4,3.4c0,0,0,0,0,0h72.9c1.9,0,3.4-1.5,3.4-3.4V22.8C89.8,14,82.7,6.9,73.9,6.9z
			 M86.9,22.8v67.5h-9.1c0-2.4,0-4.8,0-7.2c0-0.8-0.7-1.5-1.5-1.5s-1.5,0.7-1.5,1.5l0,0c0,2.8,0,14,0,14H51.5V75.5L70,54.9
			c0.3-0.3,0.4-0.7,0.4-1.1l-1.8-17.1l8.7-10.4c0.3-0.4,0.4-0.9,0.3-1.4l-5.4-15h1.8C81.1,9.8,86.9,15.7,86.9,22.8L86.9,22.8z
			 M34.1,35.3L25.5,25L31,9.8h3.7l2,9.4c0.2,0.8,1,1.3,1.8,1.1c0.8-0.2,1.2-0.9,1.1-1.7l-1.5-7l6.2,4.3l2.7,6.2l-3.2,16.3l-2.3-11.1
			c-0.4-1.8-3.3-1.3-2.9,0.6l8.9,42L32.6,53.4l1.8-17C34.4,36,34.3,35.6,34.1,35.3L34.1,35.3z M69,9.8L74.5,25l-8.5,10.3
			c-0.3,0.3-0.4,0.7-0.3,1.1l1.8,17L52.6,69.9c3.7-17.5,7.4-35.1,11.1-52.2l1.7-7.9L69,9.8z M52.9,15.1l-2.3,5.3h-1.1l-2.3-5.3
			l2.9-4L52.9,15.1z M49.7,23.4h0.6l4.4,22.2C53.1,53,51.6,60.5,50,67.9l-4.7-22.2L49.7,23.4z M56.3,38.3L53,22.1l2.7-6.2l6.2-4.3
			C61.9,11.7,57.8,31.2,56.3,38.3L56.3,38.3z M54.9,12.9l-2.8-4.1l7.5-5.2l2.5,4.4L54.9,12.9z M55.3,2.9L50,6.5l-5.3-3.6H55.3z
			 M40.4,3.6l7.7,5.2l-0.8,1.2l-2.1,3l-7.3-5L40.4,3.6z M17.1,13.6c2.4-2.4,5.6-3.7,9-3.8h1.8l-5.4,15c-0.2,0.5-0.1,1,0.3,1.4
			l8.7,10.4l-1.8,17.1c0,0.4,0.1,0.8,0.4,1.1l18.6,20.7v21.5H25.1V38.6c0-1.8-2.9-1.9-2.9,0v51.7h-9.2V22.8
			C13.1,19.3,14.5,16,17.1,13.6L17.1,13.6z M13.4,97c-0.2-0.1-0.3-0.3-0.3-0.5v-3.3h9.2v3.8h-8.7C13.5,97.1,13.4,97.1,13.4,97
			L13.4,97z M86.9,96.6c0,0.3-0.2,0.5-0.5,0.5h-8.7c0-1.3,0-2.6,0-3.8h9.1L86.9,96.6z"/>
		<path d="M76.3,37.2c-0.8,0-1.5,0.7-1.5,1.5c0,11.9,0,23.9,0,35.7c0,0.8,0.7,1.4,1.5,1.4c0.8,0,1.4-0.6,1.4-1.4
			c0-11.8,0-23.8,0-35.7C77.8,37.8,77.1,37.2,76.3,37.2z"/>
		<path d="M43.5,82.7c0.8,0,1.4-0.7,1.4-1.5c0-0.8-0.6-1.4-1.4-1.4c-0.8,0-1.4,0.7-1.4,1.5C42.1,82.1,42.7,82.7,43.5,82.7z"/>
		<path d="M56.5,79.8c-0.8,0-1.4,0.7-1.4,1.5c0,0.8,0.6,1.4,1.4,1.4c0.8,0,1.4-0.7,1.4-1.5C57.9,80.4,57.3,79.8,56.5,79.8z"/>
		<path d="M43.5,91c0.8,0,1.4-0.7,1.4-1.5c0-0.8-0.6-1.4-1.4-1.4c-0.8,0-1.4,0.7-1.4,1.5C42.1,90.3,42.7,91,43.5,91z"/>
		<path d="M56.5,88c-0.8,0-1.4,0.7-1.4,1.5c0,0.8,0.6,1.4,1.4,1.4c0.8,0,1.4-0.7,1.4-1.5C57.9,88.7,57.3,88.1,56.5,88z"/>
	</g>
</g>
</svg>
