<?xml version="1.0" encoding="utf-8"?>
<!-- Generator: Adobe Illustrator 25.2.0, SVG Export Plug-In . SVG Version: 6.00 Build 0)  -->
<svg version="1.1" id="Layer_1" xmlns="http://www.w3.org/2000/svg" xmlns:xlink="http://www.w3.org/1999/xlink" x="0px" y="0px"
	 viewBox="0 0 100 100" style="enable-background:new 0 0 100 100;" xml:space="preserve">
<style type="text/css">
	.st0{fill:#00838F;}
	.st1{fill:#00BCD4;}
	.st2{fill:#0377BC;}
	.st3{fill:#9FC9D3;}
	.st4{fill:#283593;}
	.st5{fill:#F5F5F5;}
	.st6{fill:#02A9F4;}
</style>
<g transform="translate(0 0)">
	<g transform="translate(1.914 1.914)">
		<path class="st0" d="M93.1,53.8v22.7H79.9V61c0-3.3-0.8-6.6-2.3-9.5L71,40.1l0.4,9.1l1.7,42.4c-5.8,3.1-12.2,4.7-23.3,4.8h-4.2
			c-10.6-0.2-16.8-1.8-22.5-4.8l2.2-51.5l-5.4,9.1l-1.3,2.3c-1.5,3-2.2,6.2-2.3,9.5v15.5H3.1V53.8c0-2.7,0.5-5.3,1.5-7.8l11-26.6
			c1.4-3.5,4.1-6.2,7.5-7.7c2.8-1.2,5.6-2.2,8.5-3h33c2.9,0.8,5.7,1.8,8.5,3c3.4,1.4,6.1,4.2,7.5,7.7l11,26.7
			C92.6,48.5,93.1,51.1,93.1,53.8L93.1,53.8z"/>
		<path class="st1" d="M88.1,53.8v22.7h-8.2V61c0-3.3-0.8-6.6-2.2-9.5L71,40.1l0.4,9.1l-0.8-1.3c-0.7-1.1-2.1-1.4-3.1-0.8
			c-0.7,0.4-1.1,1.2-1.1,2l1.7,42.4c-5.7,3-11.9,4.6-22.5,4.8c-10.6-0.2-16.8-1.8-22.5-4.8l2.2-51.5l-5.4,9.1
			c0.1-1.3-0.9-2.3-2.2-2.4c-0.8,0-1.6,0.4-2.1,1.1l-2.1,3.5c-1.5,3-2.2,6.2-2.2,9.5v15.5H3.1V53.8c0-2.7,0.5-5.3,1.5-7.8l11-26.6
			c1.4-3.5,4.1-6.2,7.5-7.7c2.8-1.2,5.6-2.2,8.5-3h28c2.9,0.8,5.7,1.8,8.5,3c3.4,1.4,6.1,4.2,7.5,7.7l11,26.7
			C87.6,48.5,88.1,51.1,88.1,53.8L88.1,53.8z"/>
		<path class="st2" d="M0.7,74.7h16.5c0.5,0,0.9,0.4,0.9,0.9v8.7c0,0.5-0.4,0.9-0.9,0.9H0.7c-0.5,0-0.9-0.4-0.9-0.9v-8.7
			C-0.2,75.1,0.2,74.7,0.7,74.7z"/>
		<path class="st3" d="M60.4,0.9c-0.5-0.7-1.3-1.2-2.1-1.2H37.9c-0.9,0-1.7,0.5-2.1,1.2l-4.4,6.8c0,0,1,9.3,10,12
			c1.4-2.9,3.8-5.3,6.7-6.7c2.9,1.4,5.3,3.8,6.7,6.7c9-2.7,10-12,10-12L60.4,0.9z"/>
		<path class="st4" d="M56.2,7.2c-1.7,4.7-8.1,5.9-8.1,5.9s-6.4-1.2-8.1-5.9C45.3,6.2,50.8,6.2,56.2,7.2L56.2,7.2z"/>
		<path class="st5" d="M64.8,7.8c0,0-1,9.3-10,12c-1.4-2.9-3.8-5.3-6.7-6.7c0,0,6.4-1.2,8.1-5.9c-5.3-1-10.8-1-16.2,0
			c1.7,4.7,8.1,5.9,8.1,5.9c-2.9,1.4-5.3,3.8-6.7,6.7c-9-2.7-10-12-10-12l4.4-6.8c0.5-0.7,1.3-1.2,2.1-1.2h20.3
			c0.9,0,1.7,0.5,2.1,1.2L64.8,7.8z"/>
		<path class="st2" d="M79.1,74.7h16.5c0.5,0,0.9,0.4,0.9,0.9v8.7c0,0.5-0.4,0.9-0.9,0.9H79.1c-0.5,0-0.9-0.4-0.9-0.9v-8.7
			C78.2,75.1,78.6,74.7,79.1,74.7z"/>
		<g transform="translate(0 86.124)">
			<path class="st6" d="M0.7-11.4H12c0.5,0,0.9,0.4,0.9,0.9v8.7C12.9-1.3,12.5-1,12-1H0.7C0.2-1-0.2-1.3-0.2-1.8v-8.7
				C-0.2-11,0.2-11.4,0.7-11.4z"/>
			<path class="st6" d="M79.1-11.4h11.3c0.5,0,0.9,0.4,0.9,0.9v8.7c0,0.5-0.4,0.9-0.9,0.9H79.1c-0.5,0-0.9-0.4-0.9-0.9v-8.7
				C78.2-11,78.6-11.4,79.1-11.4z"/>
		</g>
	</g>
	<g transform="translate(0 0)">
		<path d="M96.7,75V55.7c0-2.9-0.6-5.7-1.7-8.3L84.1,20.7c-1.5-3.9-4.5-7-8.3-8.6c-2.8-1.1-5.2-2-7.4-2.6c0-0.6,0.2,0-4.6-7.5
			C63,0.7,61.6,0,60.2,0H39.8c-1.4,0-2.8,0.7-3.5,1.9c-4.8,7.4-4.5,6.9-4.6,7.5c-2.5,0.8-4.9,1.6-7.4,2.6c-3.8,1.6-6.8,4.7-8.3,8.5
			L5,47.3c-1.1,2.6-1.6,5.5-1.7,8.3V75C1.5,75,0,76.5,0,78.3V85c0,1.8,1.5,3.3,3.3,3.3c0,0,0,0,0,0h15c1.8,0,3.3-1.5,3.3-3.3
			c0,0,0,0,0,0v-6.7c0-1.2-0.7-2.4-1.8-3V62.9c0-3,0.7-6,2-8.7l3.3-5.6l-1.9,44.9c0,0.6,0.3,1.2,0.9,1.5c6.9,3.6,14.1,5,25.8,5
			s18.9-1.4,25.8-5c0.6-0.3,0.9-0.9,0.9-1.5l-1.9-44.9l3.3,5.5c1.4,2.7,2.1,5.7,2.1,8.8v12.5c-1.1,0.5-1.9,1.7-1.9,3V85
			c0,1.8,1.5,3.3,3.3,3.3l0,0h15c1.8,0,3.3-1.5,3.3-3.3v0v-6.7C100,76.5,98.5,75,96.7,75z M39.1,3.7c0.2-0.3,0.4-0.4,0.7-0.4h20.3
			c0.3,0,0.6,0.2,0.7,0.4c4.5,7,4.1,6.2,4,6.5c-0.8,4.1-3.6,7.6-7.4,9.4c-1-1.6-2.2-3-3.7-4.1c3-1.2,5.3-3.7,6.2-6.7
			c0.2-0.9-0.4-1.8-1.3-2c-0.6-0.1-1.1,0.1-1.5,0.5c-4.7-0.8-9.5-0.8-14.2,0c-0.5-0.8-1.6-0.9-2.3-0.4C40,7.3,39.8,8,40,8.7
			c0.9,3.1,3.2,5.6,6.2,6.8c-1.5,1.2-2.7,2.6-3.7,4.1c-3.9-1.7-6.6-5.2-7.4-9.4C35,10,34.6,10.7,39.1,3.7L39.1,3.7z M50,13.3
			c-2-0.5-3.9-1.5-5.4-2.9c3.6-0.5,7.1-0.5,10.7,0C53.9,11.9,52,12.9,50,13.3L50,13.3z M18.3,85h-15v-6.7h14.9
			C18.3,78.3,18.3,77.6,18.3,85L18.3,85z M25.7,41.1l-6.8,11.5c-1.6,3.2-2.4,6.7-2.4,10.3V75H6.7c0-20.4-0.4-21.9,1.3-26.5
			l11.1-26.7c1.2-3,3.6-5.4,6.6-6.7c2.5-1,4.7-1.8,6.7-2.4c1.5,5.1,5.5,9.1,10.6,10.6c0.8,0.2,1.7-0.2,2-1c0.8-1.7,2-3.1,3.5-4.2
			v78.6c-11-0.1-16.8-1.8-21.7-4.2l2.1-50.4c0-0.9-0.7-1.7-1.7-1.7C26.5,40.4,26,40.7,25.7,41.1L25.7,41.1z M74.3,41.1
			c-0.5-0.8-1.5-1.1-2.3-0.6c-0.5,0.3-0.8,0.9-0.8,1.5l2.2,50.4c-4.8,2.4-10.7,4-21.7,4.2V18.1c1.5,1.1,2.6,2.6,3.5,4.2
			c0.3,0.8,1.2,1.2,2,1c5.1-1.5,9-5.5,10.5-10.5c2.3,0.7,4.5,1.5,6.7,2.4c3,1.2,5.4,3.6,6.6,6.7l11,26.6c0.9,2.3,1.4,4.8,1.4,7.2V75
			h-9.9V62.9c0-3.6-0.9-7.2-2.5-10.4L74.3,41.1z M81.7,85c0-7.4,0-6.7,0.1-6.7h14.8V85H81.7z"/>
		<ellipse cx="45.3" cy="30" rx="1.7" ry="1.3"/>
		<circle cx="45.3" cy="43.5" r="1.7"/>
		<circle cx="45.3" cy="56.6" r="1.7"/>
		<circle cx="45.3" cy="69.7" r="1.7"/>
		<circle cx="45.3" cy="83.6" r="1.7"/>
		<path d="M66.7,35h-10c-0.9,0-1.7,0.7-1.7,1.7s0.7,1.7,1.7,1.7c0,0,0,0,0,0h10c0.9,0,1.7-0.7,1.7-1.7C68.3,35.7,67.6,35,66.7,35
			C66.7,35,66.7,35,66.7,35z"/>
	</g>
</g>
</svg>
