<svg xmlns="http://www.w3.org/2000/svg" width="128.004" height="219.5" viewBox="0 0 128.004 219.5"><g transform="translate(-120.054 -22.883)"><path d="M235.506,345.458,217.841,344H162.149l-17.861,1.5A20.085,20.085,0,0,0,131,364.222v43.372H248.99V364.222a20.041,20.041,0,0,0-13.483-18.764Z" transform="translate(-5.938 -168.009)" fill="#a5e2fb"/><path d="M313.621,345.728l-.059.156c-8.025,19.243-8.816,42.1-2.654,62.039H280.89a89.189,89.189,0,0,0,15.473-63.05V344.5H306.7a19.941,19.941,0,0,1,6.922,1.231Z" transform="translate(-83.64 -168.279)" fill="#798795"/><path d="M278.205,328.849a21.356,21.356,0,0,1-.7,8.135,21.673,21.673,0,0,1-1.674,4.173,21.913,21.913,0,0,1-2.512,3.729l-3.413,4.072a2.917,2.917,0,0,1-4.69-.288l-9.091-14.032,7.2-4a17.138,17.138,0,0,0,8.816-14.984l2.059,2.827a21.385,21.385,0,0,1,4,10.372Z" transform="translate(-71.619 -154.187)" fill="#bbf4fc"/><path d="M207.475,328.849a21.385,21.385,0,0,1,4-10.372l2.059-2.827a17.138,17.138,0,0,0,8.818,14.985l7.2,4-9.091,14.031a2.917,2.917,0,0,1-4.69.288l-3.413-4.072a21.911,21.911,0,0,1-2.512-3.729,21.67,21.67,0,0,1-1.675-4.173,21.356,21.356,0,0,1-.7-8.133Z" transform="translate(-45.947 -154.187)" fill="#bbf4fc"/><path d="M161.647,191.422a5.7,5.7,0,0,1,7.233.732h.142v10.6h-.142a6.725,6.725,0,0,1-8.5-10.2v0a6.849,6.849,0,0,1,1.263-1.125Z" transform="translate(-20.989 -88.533)" fill="#daaa79"/><path d="M330.859,192.154a5.7,5.7,0,0,1,7.233-.732,6.941,6.941,0,0,1,.782.631,6.725,6.725,0,0,1-8.016,10.7h-.069v-10.6Z" transform="translate(-110.71 -88.533)" fill="#daaa79"/><path d="M139.137,149.966a35.387,35.387,0,0,1,7.3-5.669l.782.567v22.647a6.715,6.715,0,0,0-1.569,3.459l-1.45-.938a34.541,34.541,0,0,1-9.727-8.345v0a16.9,16.9,0,0,1,4.667-11.717Z" transform="translate(-7.82 -64.022)" fill="#7f3d32"/><path d="M349.224,143.557a37.044,37.044,0,0,1,7.064,5.207,20.107,20.107,0,0,1,5.948,11.868,33.636,33.636,0,0,1-10.2,9l-1.523.938a6.7,6.7,0,0,0-2.05-3.958l.645-.2V143.763Z" transform="translate(-120.296 -63.629)" fill="#7f3d32"/><path d="M187.315,94.487a111.919,111.919,0,0,1,33.946,4.969c16.466,5.316,27.309,14.389,27.309,24.688a16.636,16.636,0,0,1-3.474,9.869,19.9,19.9,0,0,0-6.128-11.868,38.126,38.126,0,0,0-7.279-5.207,60.555,60.555,0,0,0-8.674-3.976c-9.834-3.656-22.232-5.833-35.7-5.833s-25.866,2.178-35.7,5.833a59.943,59.943,0,0,0-9.263,4.314,36.341,36.341,0,0,0-7.519,5.669,16.633,16.633,0,0,0-4.808,11.717,16.969,16.969,0,0,1-3.965-10.518c0-10.454,11.168-19.641,28.044-24.921a112.555,112.555,0,0,1,33.211-4.735Z" transform="translate(-3.258 -37.672)" fill="#daaa79"/><path d="M339.638,138.843l-.119.206V161.7l-.645.2a6.941,6.941,0,0,0-.782-.631,5.7,5.7,0,0,0-7.233.732h-.069V136l.43-1.13A57.956,57.956,0,0,1,339.638,138.843Z" transform="translate(-111.308 -59.046)" fill="#4a5160"/><path d="M254.17,89.383a124.285,124.285,0,0,0-68.77-.233l-.14-.4V86.983c0-.869.039-1.739.111-2.6,6.768-5.056,19.473-8.464,34.037-8.464,15.211,0,28.4,3.72,34.906,9.155q.072,1.064.072,2.141v1.537Z" transform="translate(-35.373 -28.772)" fill="#7f3d32"/><path d="M238.883,34.388A32.32,32.32,0,0,1,254.443,59.56c-6.5-5.435-19.7-9.155-34.911-9.155-14.566,0-27.273,3.408-34.042,8.464a32.625,32.625,0,0,1,19.1-26.635,36.02,36.02,0,0,1,33.92,1.925Z" transform="translate(-35.498 -3.259)" fill="#daaa79"/><path d="M252.941,291.437l-31.98.014-.1.192v10.866a17.138,17.138,0,0,0,8.818,14.984l7.2,4H237l7.2-4a17.138,17.138,0,0,0,8.816-14.984V291.574Z" transform="translate(-52.88 -141.535)" fill="#efc597"/><path d="M161.4,139.749l-.782-.567a57.4,57.4,0,0,1,8.99-4.314l.43,1.13v26H169.9a5.7,5.7,0,0,0-7.233-.732,6.848,6.848,0,0,0-1.263,1.126Z" transform="translate(-22.006 -59.042)" fill="#4a5160"/><path d="M216.723,122.117c-13.752,0-26.412,2.178-36.453,5.833l.452,1.13v40.252c0,18.9,16.118,34.218,36,34.218s36-15.32,36-34.218V129.08l.452-1.13c-10.041-3.656-22.7-5.833-36.453-5.833Z" transform="translate(-32.666 -51.701)" fill="#ffd8b7"/><path d="M143.882,345.5A20.058,20.058,0,0,0,131,364.222v43.372h13.725V364.222A20.058,20.058,0,0,1,157.607,345.5L161.2,344Z" transform="translate(-5.938 -168.009)" fill="#86c0d1"/><path d="M212.667,201.831a34.2,34.2,0,0,1-18.241-30.265V126.234a83.713,83.713,0,0,0-14.156,3.95l.43,1.13v40.252a34.234,34.234,0,0,0,41.08,33.528,33.911,33.911,0,0,1-9.114-3.263Z" transform="translate(-31.466 -53.877)" fill="#dbb79c"/><path d="M191.833,407.922h-29.78a93.179,93.179,0,0,0-2.891-62.039l-.032-.078a19.912,19.912,0,0,1,7.124-1.308H176.36v.375a89.166,89.166,0,0,0,15.473,63.05Z" transform="translate(-21.198 -168.279)" fill="#798795"/><g transform="translate(120.054 22.883)"><path d="M252.051,394.1a3.33,3.33,0,1,0,3.33,3.33A3.33,3.33,0,0,0,252.051,394.1Z" transform="translate(-188.048 -219.173)" fill="#20344c"/><circle cx="3.33" cy="3.33" r="3.33" transform="translate(60.673 202.483)" fill="#20344c"/><path d="M228.576,63A72.507,72.507,0,0,0,221,59.772v-.3c0-.555-.017-1.106-.042-1.657a2.825,2.825,0,0,0-.082-1.306A36.2,36.2,0,0,0,204.467,29l-.37-.241a36.348,36.348,0,0,0-56.028,27.3,2.874,2.874,0,0,0-.047.593c-.06.855-.094,1.716-.094,2.581v.252A73.487,73.487,0,0,0,139.536,63c-12.563,6.267-19.482,14.83-19.482,24.107,0,8.1,5.445,15.853,15.333,21.83.027.016.055.029.083.044a9.739,9.739,0,0,0,9.737,9.223c.272,0,.542-.016.812-.038v.018A38.049,38.049,0,0,0,164.687,150.9v8.884l-1.577,2.166a24.866,24.866,0,0,0-4.251,9.513H145.781a23.427,23.427,0,0,0-23.4,23.4v44.693a2.825,2.825,0,0,0,2.825,2.825h117.7a2.825,2.825,0,0,0,2.825-2.825V194.865a23.427,23.427,0,0,0-23.4-23.4H209.254A24.872,24.872,0,0,0,205,161.953l-1.578-2.166V150.9a38.049,38.049,0,0,0,18.668-32.718v-.011c.246.019.492.031.738.031a9.739,9.739,0,0,0,9.735-9.186c.053-.027.107-.05.159-.081,9.887-5.977,15.333-13.729,15.333-21.83,0-9.278-6.919-17.84-19.482-24.106Zm-61.32-29.32a30.674,30.674,0,0,1,33.761-.188l.37.241A30.587,30.587,0,0,1,214.252,51.32c-7.607-3.963-18.5-6.3-30.2-6.3-11.316,0-21.763,2.126-29.319,5.838a30.632,30.632,0,0,1,12.518-17.177Zm16.8,16.988c11.82,0,22.921,2.6,29.552,6.776a120.458,120.458,0,0,0-59.111,0C161.171,53.233,172.2,50.671,184.057,50.671ZM137.135,102.99c-.059.087-.123.169-.179.258a30.378,30.378,0,0,1-8.224-7.547,2.8,2.8,0,0,0,.807-1.25c1.058-3.413,3.676-6.7,7.6-9.657Zm8.886,9.476a4.14,4.14,0,0,1-2.38-.218,4.1,4.1,0,0,1-.775-7.156,3,3,0,0,1,3.154-.075Zm0-13.391a8.621,8.621,0,0,0-3.236.041V81.239q1.542-.818,3.236-1.581Zm20.005,68.9a20.473,20.473,0,0,0,9.191,10.622l4.769,2.65-7.713,11.9a.182.182,0,0,1-.291.018l-3.511-4.19a19.256,19.256,0,0,1-2.445-21Zm4.314-7.267v-7.057a37.9,37.9,0,0,0,27.438,0v7.057a14.823,14.823,0,0,1-7.62,12.95l-6.1,3.388-6.1-3.39a14.823,14.823,0,0,1-7.62-12.948Zm-31.413,76.025H128.032V194.865a17.757,17.757,0,0,1,8.906-15.381,89.1,89.1,0,0,1,1.988,57.249Zm5.887,0a94.775,94.775,0,0,0-2.6-59.26,17.751,17.751,0,0,1,3.564-.36h7.272a94.265,94.265,0,0,0,13.8,59.62Zm95.268-41.868v41.868H228.951a89.111,89.111,0,0,1,2.031-57.361,17.762,17.762,0,0,1,9.1,15.493Zm-17.749-17.749a17.781,17.781,0,0,1,3.343.32,94.774,94.774,0,0,0-2.611,59.3h-22.04a94.265,94.265,0,0,0,13.8-59.62Zm-13.5,6.317a25.442,25.442,0,0,0,.621-2.765,88.639,88.639,0,0,1-15.172,56.067H173.592A88.641,88.641,0,0,1,158.5,179.55a25.3,25.3,0,0,0,.776,3.882,24.749,24.749,0,0,0,4.86,9.174l3.511,4.19a5.771,5.771,0,0,0,4.457,2.087q.184,0,.37-.012a5.775,5.775,0,0,0,4.537-2.65l7.045-10.873,7.044,10.873a5.776,5.776,0,0,0,4.538,2.652q.185.012.37.012a5.772,5.772,0,0,0,4.458-2.087l3.511-4.19a24.75,24.75,0,0,0,4.86-9.176Zm-5.434-1.546a19.12,19.12,0,0,1-3.757,7.092l-3.511,4.19a.181.181,0,0,1-.292-.018l-7.712-11.9,4.769-2.65a20.473,20.473,0,0,0,9.189-10.623,19.11,19.11,0,0,1,1.314,13.911Zm13.041-63.7a32.387,32.387,0,0,1-64.774,0V77.429a107.318,107.318,0,0,1,64.774,0Zm7.956-5.938a4.151,4.151,0,0,1-2.307.235v-7.514a2.994,2.994,0,0,1,3.083.119,4.1,4.1,0,0,1-.776,7.156Zm-2.307-13.182V79.659q1.746.785,3.332,1.631V99.151a8.611,8.611,0,0,0-3.331-.086Zm9.013,4.216c-.01-.016-.022-.031-.033-.047V84.866c3.869,2.94,6.45,6.2,7.5,9.584a2.806,2.806,0,0,0,.8,1.255,30.349,30.349,0,0,1-8.271,7.576ZM242.267,88.9c-7.448-13.027-30.809-22.12-58.21-22.12S133.3,75.869,125.847,88.9a12.467,12.467,0,0,1-.141-1.789c0-15.011,26.721-27.694,58.352-27.694S242.409,72.1,242.409,87.108a12.481,12.481,0,0,1-.142,1.789Z" transform="translate(-120.054 -22.883)" fill="#20344c"/><path d="M274.245,186.264a2.745,2.745,0,0,0,2.745-2.745,3.158,3.158,0,1,1,6.316,0,2.745,2.745,0,1,0,5.49,0,8.648,8.648,0,1,0-17.3,0A2.745,2.745,0,0,0,274.245,186.264Z" transform="translate(-199.875 -103.201)" fill="#20344c"/><path d="M217.246,186.264a2.745,2.745,0,0,0,2.745-2.745,8.648,8.648,0,1,0-17.3,0,2.745,2.745,0,1,0,5.49,0,3.158,3.158,0,0,1,6.316,0,2.745,2.745,0,0,0,2.745,2.745Z" transform="translate(-163.611 -103.201)" fill="#20344c"/><path d="M248.977,236.912a11.187,11.187,0,0,1-15.8,0,2.745,2.745,0,1,0-3.882,3.882,16.681,16.681,0,0,0,23.562,0,2.745,2.745,0,1,0-3.882-3.882Z" transform="translate(-177.073 -135.589)" fill="#20344c"/></g></g></svg>