<svg xmlns="http://www.w3.org/2000/svg" width="222.666" height="200.734" viewBox="0 0 222.666 200.734"><g transform="translate(-48.033 -46.396)"><g transform="translate(48.033 46.396)"><path d="M54.683,136.28a31.9,31.9,0,0,1-5.963-25.988c1.636-7.625,5.968-14.238,16.752-10.194,25.81,9.678,37.222,1.143,40.986-12.369s8.824-45.254,32.066-40.931S163.175,94.42,184.3,89.388s41.535-8.269,55.162,6.344,23.177,45.522,10.344,61.859-40.647,2.236-51.527,23.228-56.519,21.964-59.754-.414-27.23-38.175-48.188-27.115C76.517,160.585,62.575,146.631,54.683,136.28Z" transform="translate(-48.033 -46.396)" fill="#ededed"/><path d="M102.426,136.214a8.906,8.906,0,0,0-7-1.339c-2.444.572-4.97,2.235-5.3,6.6-.661,8.734,16.6,9.077,19.417,4.716C111.589,143.031,105.778,138.48,102.426,136.214Z" transform="translate(-38.155 -25.677)" fill="#ededed"/><path d="M167.243,76.859a8.906,8.906,0,0,0,6.77-2.214c1.862-1.683,3.268-4.361,1.445-8.343-3.649-7.962-18.915.089-19.273,5.271C155.924,75.329,163.211,76.5,167.243,76.859Z" transform="translate(-22.644 -42.51)" fill="#ededed"/></g><ellipse cx="104.036" cy="12.269" rx="104.036" ry="12.269" transform="translate(62.627 222.593)" fill="#ededed"/><g transform="translate(120.376 65.689)"><g transform="translate(42.974 48.977)"><path d="M163.674,101.686s-13.158,5.653-19.685,8.579,1.151,13.966,3.746,28.959c3.8,21.943-4.73,42.706-4.506,47.883s38.06,16.252,55.139.337c.483-4.959-3.136-21.06-5.076-34.078-1.8-12.05,4.8-28.831,5.026-37.834s-15.962-10.3-22.82-13.845Z" transform="translate(-141.424 -101.686)" fill="#5480fb"/><g transform="translate(18.473 4.263)"><path d="M173.845,115.352c-10.96,0-17.089-8.848-17.351-9.235a.627.627,0,1,1,1.037-.7c.062.091,6.337,9.111,17.113,8.668a.627.627,0,0,1,.052,1.253Q174.266,115.351,173.845,115.352Z" transform="translate(-156.385 -105.139)" fill="#2e60e0"/></g><g transform="translate(25.577 15.214)"><path d="M170.078,117.246a15.318,15.318,0,0,1-7.649-2.083.627.627,0,0,1,.674-1.057,14.074,14.074,0,0,0,10.063,1.5.627.627,0,0,1,.307,1.215A13.8,13.8,0,0,1,170.078,117.246Z" transform="translate(-162.138 -114.007)" fill="#2e60e0"/></g><g transform="translate(22.587 76.8)"><path d="M172,167.173a33.455,33.455,0,0,1-11.9-2.084.627.627,0,1,1,.483-1.157,33.8,33.8,0,0,0,15.912,1.682.627.627,0,1,1,.17,1.242A34.167,34.167,0,0,1,172,167.173Z" transform="translate(-159.717 -163.884)" fill="#2e60e0"/></g><g transform="translate(14.049 30.195)"><path d="M177.973,142.738c-6.4,0-12.6-2.508-18.046-7.326a36.642,36.642,0,0,1-7.042-8.335.627.627,0,0,1,1.089-.622c.094.164,9.577,16.356,26,14.942a.627.627,0,0,1,.107,1.25Q179.027,142.737,177.973,142.738Z" transform="translate(-152.802 -126.14)" fill="#2e60e0"/></g></g><g transform="translate(53.083)"><path d="M151.989,83.429c0,8.987,5.533,15.179,14.518,15.179s15.249-6.658,15.249-15.643-5.322-15.8-14.307-15.8C156.672,67.17,151.989,74.444,151.989,83.429Z" transform="translate(-149.053 -60.812)" fill="#133248"/><g transform="translate(0 22.288)"><path d="M154.566,81.738s-2.5-3.329-4.353-.577.768,10.883,5.313,8.9Z" transform="translate(-149.611 -80.071)" fill="#ff7f4d"/><g transform="translate(0.975 2.914)"><path d="M154.349,86.993a.385.385,0,0,1-.369-.28,5.937,5.937,0,0,0-3.331-3.538.384.384,0,0,1,.273-.719,6.616,6.616,0,0,1,3.8,4.049.384.384,0,0,1-.267.473A.375.375,0,0,1,154.349,86.993Z" transform="translate(-150.401 -82.432)" fill="#f45339"/></g><g transform="translate(1.914 4.423)"><path d="M151.546,85.442a.384.384,0,0,1-.324-.591,3.509,3.509,0,0,1,1.442-1.163.384.384,0,1,1,.314.7,2.791,2.791,0,0,0-1.11.877A.38.38,0,0,1,151.546,85.442Z" transform="translate(-151.161 -83.654)" fill="#f45339"/></g></g><g transform="translate(29.724 22.408)"><path d="M174.645,81.835s2.5-3.329,4.353-.577-.768,10.883-5.313,8.9Z" transform="translate(-173.684 -80.168)" fill="#ff7f4d"/><g transform="translate(0.608 2.915)"><path d="M174.561,87.09a.384.384,0,0,0,.369-.28,5.94,5.94,0,0,1,3.331-3.538.384.384,0,0,0-.272-.719,6.613,6.613,0,0,0-3.8,4.049.385.385,0,0,0,.267.474A.427.427,0,0,0,174.561,87.09Z" transform="translate(-174.176 -82.529)" fill="#f45339"/></g><g transform="translate(1.958 4.424)"><path d="M176.93,85.539a.383.383,0,0,0,.322-.591,3.492,3.492,0,0,0-1.441-1.162.384.384,0,1,0-.315.7,2.776,2.776,0,0,1,1.11.878A.384.384,0,0,0,176.93,85.539Z" transform="translate(-175.269 -83.751)" fill="#f45339"/></g></g><path d="M171.268,95.8v8.085s-2.41,4.117-5.671,4.4-6.153-3.545-6.153-3.545V96.365Z" transform="translate(-147.303 -54.092)" fill="#ffae77"/><path d="M171.268,95.8v3.587c-2.188,2.428-6.074,3.034-11.824,2.186v-5.2Z" transform="translate(-147.303 -54.092)" fill="#ff7f4d"/><path d="M152.572,86.2a48.891,48.891,0,0,0,.656,5.323c1.084,5.96,3.526,11.82,8.788,13.7,11.912,4.254,16.171-5.964,17.872-11.92.188-.661.356-1.4.5-2.183.272-1.419.482-3,.646-4.6.194-1.935.324-3.892.4-5.613a8.412,8.412,0,0,0-5.387-8.257c-4.885-1.877-12.306-3.362-19.338.626a8.433,8.433,0,0,0-4.286,7.18C152.4,82.084,152.423,84.063,152.572,86.2Z" transform="translate(-148.952 -59.97)" fill="#ffae77"/><path d="M169.969,92.98c-.307,1.609-1.348,4.574-4.925,4.6s-4.609-2.668-4.967-4.528Z" transform="translate(-147.155 -54.753)" fill="#fff"/><path d="M160.454,87.015c0,.863-.446,1.562-.994,1.562s-.994-.7-.994-1.562.445-1.563.994-1.563S160.454,86.152,160.454,87.015Z" transform="translate(-147.533 -56.52)" fill="#133248"/><path d="M170.2,87.015c0,.863-.445,1.562-.994,1.562s-.993-.7-.993-1.562.445-1.563.993-1.563S170.2,86.152,170.2,87.015Z" transform="translate(-145.244 -56.52)" fill="#133248"/><path d="M181.036,86.525h0a1.6,1.6,0,0,1-1.6-1.677c.073-1.576-.07-3.271-1.108-3.589-4.537-1.393.1-3.6-1.945-5.2s-2.74,4.285-9.611,4.285c-6.811,0-8.009-4.872-9.4-4.549s-1.753,1.126-1.243,2.919-1.709,3.773-2.082,5.628a4.639,4.639,0,0,0-.072.833,1.371,1.371,0,0,1-1.378,1.347h0c-.173-2.257-.2-4.36-.167-6.064a8.439,8.439,0,0,1,4.282-7.183c7.033-3.987,14.454-2.5,19.34-.622a8.416,8.416,0,0,1,5.389,8.254C181.359,82.632,181.232,84.59,181.036,86.525Z" transform="translate(-148.952 -59.97)" fill="#133248"/><path d="M154.414,76.074s-3.7-7.125-2.36-11.166c0,0,2.009,3.544,5.473,2.388a24.152,24.152,0,0,1-1-5.275,23.24,23.24,0,0,0,7.052,2.268c5.312.675,16.2,2.947,15.244,9.793C178.822,74.082,163.94,79.331,154.414,76.074Z" transform="translate(-149.106 -62.021)" fill="#133248"/><path d="M156.624,82.722a10.176,10.176,0,0,1,6.741-.138l-.317,1.626a40.7,40.7,0,0,0-6.476.417A2.825,2.825,0,0,1,156.624,82.722Z" transform="translate(-148.01 -57.305)" fill="#133248"/><path d="M172.952,82.716a10.932,10.932,0,0,0-6.739-.138l.317,1.626a40.7,40.7,0,0,1,6.476.417A2.825,2.825,0,0,0,172.952,82.716Z" transform="translate(-145.714 -57.298)" fill="#133248"/><g transform="translate(15.293 33.972)"><path d="M164.564,91.839h-.014a3,3,0,0,1-2.505-1.626.47.47,0,0,1,.842-.42,2.041,2.041,0,0,0,1.668,1.105h.007a1.887,1.887,0,0,0,1.589-1.089.471.471,0,0,1,.858.386A2.834,2.834,0,0,1,164.564,91.839Z" transform="translate(-161.997 -89.534)" fill="#ff7f4d"/></g></g><g transform="translate(0 115.452)"><path d="M115.648,155.552a103.68,103.68,0,0,1,25.394,7.743c8.682,4.045,34.909,14.191,34.909,14.191s4.3,17.94.651,19.644c-12.853,6.007-36.518-8.548-36.518-8.548S111.692,173.723,115.648,155.552Z" transform="translate(-104.591 -155.515)" fill="#051630"/><g transform="translate(0 0)"><path d="M119.353,155.878a8.116,8.116,0,0,0-7.984,1.846c-3.685,3.549-7.633,8.367-1.725,17.282,8.914,13.452,55.562,31.294,55.562,31.294l4.487-8.3s-10.944-9.523-21.717-20.125C135.564,165.657,131.9,159.572,119.353,155.878Z" transform="translate(-106.621 -155.522)" fill="#133248"/><g transform="translate(22.931 14.562)"><path d="M130.53,174.115a15.339,15.339,0,0,0-4.311-6.655.627.627,0,0,0-.8.964,14.075,14.075,0,0,1,4.492,9.13.627.627,0,1,0,1.251-.077A13.8,13.8,0,0,0,130.53,174.115Z" transform="translate(-125.192 -167.315)" fill="#335464"/><g transform="translate(6.596 5.414)"><path d="M132.752,179.988a15.326,15.326,0,0,0-.685-7.9.627.627,0,0,0-1.159.475,14.067,14.067,0,0,1-.316,10.17.627.627,0,0,0,1.141.519A13.824,13.824,0,0,0,132.752,179.988Z" transform="translate(-130.534 -171.7)" fill="#335464"/></g></g></g><g transform="translate(54.184 33.102)"><g transform="translate(2.721 7.361)"><path d="M152.707,197.677l18.562,3.872c2.828-2.253.491-8.721-3.969-10.225l-11.466-3.033Z" transform="translate(-152.707 -188.292)" fill="#ffae77"/></g><g transform="translate(0 4.387)"><path d="M156.781,185.883A12.939,12.939,0,0,1,163,189.674a111.1,111.1,0,0,1-6.852,13.093L150.5,199.89S152.766,194.07,156.781,185.883Z" transform="translate(-150.503 -185.883)" fill="#335464"/></g><g transform="translate(12.497)"><path d="M194.97,210.9c.122-.164.257-.343.389-.532.085-.123.172-.246.253-.369a3.408,3.408,0,0,0,.632-1.292c.02-.687-7.514-8.8-7.514-8.8l-8.231-9.073c-1.162-1.347-5.445-5.943-7.388-8.023a1.508,1.508,0,0,0-2.068-.131c-.135.11-.277.23-.43.356-1.552,1.287-3.825,3.193-4.532,3.86-1.1,1.051-2.712,2.8-2.712,2.8s-3.155-.178-2.7,1.621l1.563,1.516s4.066,3.105,5.216,4.734.988,4.471.3,5.974,1.865,2.676,3.034,1.871a1.814,1.814,0,0,1,1.493-.237c.6.109,1.331.358,2.367.533.165.027.341.053.522.078.254.031.525.058.817.077a11.3,11.3,0,0,1,1.613.236c.115.022.235.049.352.079.6.141,1.224.317,1.847.517,2.169.7,4.349,1.634,5.76,2.1,1.8.6,6.328,1.974,8.141,2.525A1.172,1.172,0,0,0,194.97,210.9Z" transform="translate(-160.624 -182.33)" fill="#fc535a"/><path d="M193.713,210a3.407,3.407,0,0,0,.632-1.292c.02-.687-7.514-8.8-7.514-8.8l-8.231-9.073c-1.162-1.347-5.445-5.943-7.388-8.023a1.508,1.508,0,0,0-2.068-.131c-.135.11-.277.23-.43.356C177.01,191.14,185.358,200.28,193.713,210Z" transform="translate(-158.725 -182.33)" fill="#e22250"/><g transform="translate(10.951 16.37)"><g transform="translate(2.622 0.213)"><path d="M173.342,196.128a.641.641,0,0,0-1.188.072,9.866,9.866,0,0,0-.353,4.812A4.424,4.424,0,0,0,175,204.244a.642.642,0,0,0,.253-1.258,3.154,3.154,0,0,1-2.21-2.313,8.749,8.749,0,0,1,.333-4.07A.637.637,0,0,0,173.342,196.128Z" transform="translate(-171.617 -195.761)" fill="#fff"/></g><path d="M171.219,195.955a.642.642,0,0,0-1.189.073,9.882,9.882,0,0,0-.353,4.812,4.418,4.418,0,0,0,3.194,3.231.641.641,0,1,0,.253-1.257,3.152,3.152,0,0,1-2.209-2.311,8.692,8.692,0,0,1,.332-4.071A.64.64,0,0,0,171.219,195.955Z" transform="translate(-169.493 -195.588)" fill="#fff"/><g transform="translate(5.446 1.158)"><path d="M175.629,196.894a.641.641,0,0,0-1.189.072,9.9,9.9,0,0,0-.353,4.812,4.42,4.42,0,0,0,3.2,3.233.642.642,0,0,0,.253-1.258,3.154,3.154,0,0,1-2.21-2.311,8.689,8.689,0,0,1,.333-4.071A.643.643,0,0,0,175.629,196.894Z" transform="translate(-173.903 -196.526)" fill="#fff"/></g></g></g></g></g><g transform="translate(40.557 115.452)"><path d="M224.949,155.552a103.7,103.7,0,0,0-25.394,7.743c-8.682,4.045-34.909,14.191-34.909,14.191s-4.3,17.94-.651,19.644c12.853,6.007,36.519-8.548,36.519-8.548S228.905,173.723,224.949,155.552Z" transform="translate(-134.053 -155.515)" fill="#051630"/><g transform="translate(38.882 0)"><path d="M221.3,155.878a8.116,8.116,0,0,1,7.984,1.846c3.685,3.549,7.635,8.367,1.726,17.282-8.915,13.452-55.563,31.294-55.563,31.294l-4.487-8.3s10.944-9.523,21.718-20.125C205.086,165.657,208.75,159.572,221.3,155.878Z" transform="translate(-170.956 -155.522)" fill="#133248"/><g transform="translate(17.595 23.755)"><g transform="translate(3.302)"><path d="M188.978,180.858a15.345,15.345,0,0,1,5.179-6,.628.628,0,0,1,.663,1.066,14.062,14.062,0,0,0-5.7,8.43.627.627,0,0,1-1.229-.247A13.8,13.8,0,0,1,188.978,180.858Z" transform="translate(-187.88 -174.76)" fill="#335464"/></g><g transform="translate(0 4.417)"><path d="M185.218,186.381a15.333,15.333,0,0,1,1.758-7.732.627.627,0,0,1,1.084.63,14.07,14.07,0,0,0-1.077,10.118.627.627,0,1,1-1.2.358A13.831,13.831,0,0,1,185.218,186.381Z" transform="translate(-185.206 -178.338)" fill="#335464"/></g></g></g><g transform="translate(0 33.102)"><g transform="translate(25.603 7.361)"><path d="M180,197.677l-18.562,3.872c-2.828-2.253-.491-8.721,3.969-10.225l11.465-3.033Z" transform="translate(-160.202 -188.292)" fill="#ffae77"/></g><g transform="translate(35.621 4.387)"><path d="M174.536,185.883a12.94,12.94,0,0,0-6.221,3.791,111.106,111.106,0,0,0,6.852,13.093l5.645-2.877S178.55,194.07,174.536,185.883Z" transform="translate(-168.315 -185.883)" fill="#335464"/></g><path d="M140.743,210.9c-.122-.164-.257-.343-.389-.532-.085-.123-.172-.246-.253-.369a3.434,3.434,0,0,1-.633-1.292c-.019-.687,7.515-8.8,7.515-8.8l8.231-9.073c1.162-1.347,5.445-5.943,7.388-8.023a1.508,1.508,0,0,1,2.068-.131c.135.11.277.23.43.356,1.552,1.287,3.825,3.193,4.532,3.86,1.1,1.051,2.712,2.8,2.712,2.8s3.154-.178,2.7,1.621l-1.563,1.516s-4.066,3.105-5.216,4.734-.988,4.471-.3,5.974-1.866,2.676-3.034,1.871a1.814,1.814,0,0,0-1.493-.237c-.6.109-1.331.358-2.367.533-.165.027-.341.053-.522.078-.254.031-.525.058-.817.077a11.3,11.3,0,0,0-1.613.236c-.116.022-.235.049-.352.079-.6.141-1.224.317-1.847.517-2.169.7-4.349,1.634-5.76,2.1-1.8.6-6.328,1.974-8.141,2.525A1.172,1.172,0,0,1,140.743,210.9Z" transform="translate(-139.467 -182.33)" fill="#fc535a"/><path d="M140.1,210a3.434,3.434,0,0,1-.633-1.292c-.019-.687,7.515-8.8,7.515-8.8l8.231-9.073c1.162-1.347,5.445-5.943,7.388-8.023a1.508,1.508,0,0,1,2.068-.131c.135.11.277.23.43.356C156.8,191.14,148.455,200.28,140.1,210Z" transform="translate(-139.467 -182.33)" fill="#e22250"/><g transform="translate(15.078 16.37)"><g transform="translate(2.823 0.213)"><path d="M156.386,196.128a.641.641,0,0,1,1.188.072,9.866,9.866,0,0,1,.353,4.812,4.424,4.424,0,0,1-3.194,3.233.642.642,0,0,1-.253-1.258,3.154,3.154,0,0,0,2.21-2.313,8.748,8.748,0,0,0-.333-4.07A.637.637,0,0,1,156.386,196.128Z" transform="translate(-153.965 -195.761)" fill="#fff"/></g><g transform="translate(5.445)"><path d="M158.509,195.955a.642.642,0,0,1,1.189.073,9.881,9.881,0,0,1,.353,4.812,4.418,4.418,0,0,1-3.194,3.231.641.641,0,1,1-.253-1.257,3.152,3.152,0,0,0,2.209-2.311,8.692,8.692,0,0,0-.332-4.071A.64.64,0,0,1,158.509,195.955Z" transform="translate(-156.089 -195.588)" fill="#fff"/></g><g transform="translate(0 1.158)"><path d="M154.1,196.894a.641.641,0,0,1,1.189.072,9.887,9.887,0,0,1,.352,4.812,4.417,4.417,0,0,1-3.194,3.233.642.642,0,0,1-.253-1.258,3.154,3.154,0,0,0,2.21-2.311,8.689,8.689,0,0,0-.333-4.071A.642.642,0,0,1,154.1,196.894Z" transform="translate(-151.679 -196.526)" fill="#fff"/></g></g></g></g><g transform="translate(18.554 58.346)"><path d="M121.868,161.737c-1.34,5.342,3.4,10.657,14.68,9.873,5.319-.369,26.978-6.583,26.978-6.583l-2.065-8.62a81.313,81.313,0,0,1-12.845,1.724,33.056,33.056,0,0,1-12.549-2.055s7.3-14.831,15.181-23.889c0,0,1.443-15.277-3.848-22.914C147.4,109.274,129.391,131.748,121.868,161.737Z" transform="translate(-121.647 -109.274)" fill="#2e60e0"/><g transform="translate(35.631 36.798)"><path d="M187.3,139.076l-6.131,21.188h-24.53L150.5,139.076Z" transform="translate(-150.503 -139.076)" fill="#fff"/><g transform="translate(0 1.236)"><path d="M187.3,140.076l-6.131,21.188h-24.53L150.5,140.076Z" transform="translate(-150.503 -140.076)" fill="#ffc149"/><path d="M183.8,140.076l-6.131,21.188H165.4V140.076Z" transform="translate(-147.006 -140.076)" fill="#fd9b1f"/></g></g><path d="M154.04,150.854c.625.01,4.2-1.193,3.444-2.176-.612-.8-4.03-.72-4.03-.72a8.334,8.334,0,0,1-.29-.957l-.094-.265-.725-2.709a5.85,5.85,0,0,0-1.5.556c-1.358.757-.457,4.039-.457,4.039s-1.694,1.042-1.343,2.37a1.8,1.8,0,0,0,1.869,1.217s-1.424,1.036-.711,2.076,2.278.366,2.278.366-1.413,1.869-.638,2.547a2.425,2.425,0,0,0,1.873.467s-1.048,1.342.365,1.974,3.267-.337,4.341-.985.528-1.5-2.716-1.24c0,0,3.252-1.241,3.433-1.825.431-1.4-2.573-1.881-4.45-1.735,1.455-.207,5.069-.764,4.672-2.174C159.027,150.492,154.665,150.864,154.04,150.854Z" transform="translate(-115.226 -101.115)" fill="#ffae77"/><path d="M216.765,159.543c1.62,5.263-3.413,11.441-14.7,10.657-5.318-.369-26.8-5.172-26.8-5.172l2.065-8.62a81.283,81.283,0,0,0,12.844,1.724,28.257,28.257,0,0,0,11.309-1.615s-6.492-15.952-14.373-25.01c0,0-1.127-12.717,1.687-22.232C188.795,109.274,208.945,134.151,216.765,159.543Z" transform="translate(-109.06 -109.274)" fill="#2e60e0"/><path d="M178.764,150.854c-.625.01-4.2-1.193-3.444-2.176.612-.8,4.029-.72,4.029-.72a8.317,8.317,0,0,0,.291-.957l.093-.265.726-2.709a5.85,5.85,0,0,1,1.5.556c1.358.757.456,4.039.456,4.039s1.7,1.042,1.343,2.37a1.8,1.8,0,0,1-1.869,1.217s1.425,1.036.712,2.076-2.278.366-2.278.366,1.413,1.869.638,2.547a2.427,2.427,0,0,1-1.874.467s1.05,1.342-.365,1.974-3.266-.337-4.34-.985-.528-1.5,2.715-1.24c0,0-3.251-1.241-3.431-1.825-.431-1.4,2.573-1.881,4.45-1.735-1.455-.207-5.069-.764-4.672-2.174C173.775,150.492,178.139,150.864,178.764,150.854Z" transform="translate(-109.494 -101.115)" fill="#ffae77"/></g></g><g transform="translate(65.302 103.287)"><path d="M96.863,206.41H76.686a6.333,6.333,0,0,1-6.023-4.376l-8.557-26.339a1.75,1.75,0,0,1,1.531-2.284,296.361,296.361,0,0,1,46.28,0,1.751,1.751,0,0,1,1.527,2.286l-8.557,26.341A6.335,6.335,0,0,1,96.863,206.41Z" transform="translate(-62.019 -73.681)" fill="#fc535a"/><path d="M109.243,175.028c0,.7-10.182,1.268-22.741,1.268s-22.741-.568-22.741-1.268,10.182-1.269,22.741-1.269S109.243,174.327,109.243,175.028Z" transform="translate(-61.609 -73.386)" fill="#133248"/><path d="M108.406,158.516C101.518,156.7,90.994,171,87.8,184.937V164.629a41.893,41.893,0,0,1,10.231-11.665c8.648-7.044,16.61-16.084,9.71-17.9-6.466-1.7-16.137,10.793-19.941,23.863V132.846a27.623,27.623,0,0,1,5.858-6.376c5.451-4.439,10.468-10.136,6.12-11.281-3.773-1-9.279,5.686-11.977,13.221v-8.453A40.169,40.169,0,0,1,90.6,109.789c4.009-8.846,6.175-17.961.889-17.283s-8.721,16.435-5.828,28.529v4.35c-1.955-8.852-8.659-18.019-13.035-16.866-4.349,1.145.669,6.842,6.119,11.281a25.116,25.116,0,0,1,6.916,8.243v20.545c-3.134-14.008-13.733-28.468-20.658-26.644-6.9,1.818,1.062,10.857,9.71,17.9,6.536,5.322,9.621,10.31,10.947,13.023v24.636c-3.35-13.752-13.678-27.63-20.47-25.841-6.9,1.818-.983,8.424,8.737,16.414a45.874,45.874,0,0,1,11.733,14.275v11.606a3.611,3.611,0,0,0,2.132,0v-4.618c1.352-2.735,4.441-7.665,10.9-12.923C107.344,169.374,115.306,160.334,108.406,158.516Z" transform="translate(-61.976 -92.47)" fill="#06c282"/></g></g></svg>