<svg xmlns="http://www.w3.org/2000/svg" width="240" height="100" viewBox="0 0 240 100"><g transform="translate(-588 -2522)"><rect width="240" height="100" transform="translate(588 2522)" fill="#fff"/><g transform="translate(629 2506)"><path d="M252.333,189.786V203l-5,10v21.667H225.667V213L224,211v-40.15a2.85,2.85,0,0,1,5.59-.783l2.744,9.6,5,1.667,3.333,1.11L244,183.555l3.333,1.11,1.723.575A4.79,4.79,0,0,1,252.333,189.786Z" transform="translate(-152 -120.332)" fill="#ffceb6"/><path d="M198.667,256,192,262.667v10l6.667,8Z" transform="translate(-126.666 -190)" fill="#ffbfa1"/><g transform="translate(33.667 17.667)"><path d="M40,264H53.333v13.333H40Z" transform="translate(-40 -214)" fill="#548aff"/><path d="M72,152h8.333v8.333H72Z" transform="translate(-65.333 -125.333)" fill="#548aff"/><path d="M80,24H93.333V37.333H80Z" transform="translate(-71.667 -24)" fill="#548aff"/><path d="M232,24h8.333v8.333H232Z" transform="translate(-192 -24)" fill="#548aff"/><path d="M384,48h18.333V66.333H384Z" transform="translate(-312.333 -43)" fill="#548aff"/><path d="M392,192h10v10H392Z" transform="translate(-318.667 -157)" fill="#548aff"/></g><path d="M222.547,31.33l.6,3.278a16.828,16.828,0,0,1,3.032-.275,16.486,16.486,0,0,1,7.575,1.816l1.517-2.968a19.746,19.746,0,0,0-5.759-1.906V27.667h3.333A1.667,1.667,0,0,0,234.515,26V17.667A1.667,1.667,0,0,0,232.848,16h-8.333a1.667,1.667,0,0,0-1.667,1.667V26a1.667,1.667,0,0,0,1.667,1.667h1.667V31a20.173,20.173,0,0,0-3.637.33Zm3.634-12h5v5h-5Z" transform="translate(-150.848 0)"/><path d="M74,42.667H65.667A1.667,1.667,0,0,0,64,44.333v8.333a1.667,1.667,0,0,0,1.667,1.667H74a1.667,1.667,0,0,0,1.667-1.667V49.333h5.071c-.045.551-.071,1.107-.071,1.667,0,.606.027,1.217.081,1.817l3.32-.3C84.023,52.017,84,51.506,84,51a16.611,16.611,0,0,1,9.092-14.85l-1.517-2.968a20.2,20.2,0,0,0-3.826,2.543L82.333,30.31V17.667A1.667,1.667,0,0,0,80.667,16H67.333a1.667,1.667,0,0,0-1.667,1.667V31a1.667,1.667,0,0,0,1.667,1.667H79.976l5.412,5.412A19.865,19.865,0,0,0,81.3,46h-5.63V44.333A1.667,1.667,0,0,0,74,42.667ZM72.333,51h-5V46h5ZM79,29.333H69v-10H79Z" transform="translate(-25.333 0)"/><path d="M105.334,61.667h18.333A1.667,1.667,0,0,0,125.334,60V41.667A1.667,1.667,0,0,0,123.667,40H105.334a1.667,1.667,0,0,0-1.667,1.667V52.41L92.35,59.483a20.061,20.061,0,0,0-4.288-4.911l-2.123,2.57a16.665,16.665,0,0,1,3.1,22.337l-3.332-1.111A13.332,13.332,0,1,0,62,70a13.485,13.485,0,0,0,.135,1.9l3.3-.472a10.142,10.142,0,0,1-.1-1.431,10,10,0,1,1,16.92,7.216l-.559-.186-2.5-8.754a4.517,4.517,0,0,0-8.86,1.241v9.148a10.015,10.015,0,0,1-3.572-3.512l-2.855,1.72a13.321,13.321,0,0,0,6.428,5.491V84.31l-1.175,1.175A16.616,16.616,0,0,1,59.8,76.06L56.7,77.273q.214.549.459,1.08L46.522,85H33.667A1.667,1.667,0,0,0,32,86.667V100a1.667,1.667,0,0,0,1.667,1.667H47A1.667,1.667,0,0,0,48.667,100V87.59L58.8,81.26a19.9,19.9,0,0,0,7.835,6.753l-2.475,2.475a1.666,1.666,0,0,0-.488,1.178v10a1.667,1.667,0,0,0,.386,1.067L72,112.27v21.063A1.667,1.667,0,0,0,73.667,135H95.334A1.667,1.667,0,0,0,97,133.333V112.06l4.824-9.648a1.666,1.666,0,0,0,.176-.745V88.454a6.45,6.45,0,0,0-4.416-6.127L92.31,80.569a20.094,20.094,0,0,0,2.67-6.856L105.334,76.3v5.365A1.667,1.667,0,0,0,107,83.333h10a1.667,1.667,0,0,0,1.667-1.667v-10A1.667,1.667,0,0,0,117,70H107a1.667,1.667,0,0,0-1.667,1.667v1.2l-10.008-2.5c0-.121.008-.242.008-.363a20,20,0,0,0-1.467-7.534l9.8-6.125V60a1.667,1.667,0,0,0,1.667,1.667Zm-60,36.667h-10v-10h10Zm53.333-9.88v12.82l-4.824,9.648a1.666,1.666,0,0,0-.176.745v20H75.334v-20a1.667,1.667,0,0,0-.386-1.067L67,101.063V92.357l3.333-3.333v9.31h3.333V69.517a1.183,1.183,0,0,1,2.321-.325l2.679,9.375V90H82V80.646l3.333,1.111V90h3.333V82.868L92,83.979V90h3.333V85.09l1.2.4a3.121,3.121,0,0,1,2.137,2.965Zm10-15.12h6.667V80h-6.667Zm-1.667-30h15v15H107Z" transform="translate(0 -19)"/></g></g></svg>