<svg xmlns="http://www.w3.org/2000/svg" width="131.039" height="219.5" viewBox="0 0 131.039 219.5"><g transform="translate(-116.578 -22.441)"><path d="M205.7,316.79a10.017,10.017,0,0,1-5.914,8.622v0a9.67,9.67,0,0,1-7.821-9.522v-.246a11.078,11.078,0,0,1,1.307-5.229,24.76,24.76,0,0,0,12.427,6.37Z" transform="translate(-39.757 -152.161)" fill="#527b89"/><path d="M303.836,258.9a33.629,33.629,0,0,1-14.066,14.6l.25.363v3.68L301.9,282A39.565,39.565,0,0,0,303.836,258.9Z" transform="translate(-91.284 -124.693)" fill="#4a5160"/><path d="M247.578,321.545l-5.893-7.636-5.82-8.094V290.33l-30.442.3v15.261a8.66,8.66,0,0,1-5.82,8.174v-.157l-5.9,7.682-1.714,9.835a58.072,58.072,0,0,0,57.236-.208Z" transform="translate(-38.554 -140.206)" fill="#efc597"/><path d="M249.165,455.49a95.2,95.2,0,0,1-2.538,11.939v.627H192.9v-.627a95.3,95.3,0,0,1-2.5-11.666,58.028,58.028,0,0,0,58.766-.273Z" transform="translate(-37.672 -228.799)" fill="#eb885c"/><path d="M191.1,310.513c.04-.045.076-.094.116-.143.076.076.152.148.228.219a9.368,9.368,0,0,0-1.307,4.781v.246a9.67,9.67,0,0,0,7.821,9.522,9.476,9.476,0,0,0,1.831.175h12.642a6.252,6.252,0,1,1,0,12.5h-9.67a14.031,14.031,0,0,1-6.8-1.741,14.132,14.132,0,0,1-7.311-12.365v-6.017a11.729,11.729,0,0,1,2.444-7.181Z" transform="translate(-37.702 -151.662)" fill="#7cadc2"/><path d="M179.163,154.376l-.134-.34.891-.192a12.452,12.452,0,0,0,4.262,2.2l1.943.564c-7.1-13.153-5.6-25.012,2.167-32.094l3.183-2.865,0,0q1.081-.255,2.212-.492v0s4.933,25.244,39.628,22.54a12.25,12.25,0,0,1,12.812,10.167v14.12a33.5,33.5,0,0,1-48.022,30.169q-.416-.2-.833-.416a33.623,33.623,0,0,1-12.647-11.411,75.457,75.457,0,0,1-5.189-21.981c-.184-2.194-.278-4.4-.278-6.608Z" transform="translate(-31.491 -50.957)" fill="#ffd8b7"/><path d="M148.722,154.457l-.891.192a5.569,5.569,0,0,0-7.078-.716,6.581,6.581,0,0,0,7.078,11.084l.412-.063a75.457,75.457,0,0,0,5.189,21.981c.739,1.822,1.549,3.622,2.44,5.386a63.431,63.431,0,0,0,6.1,9.88,47.468,47.468,0,0,0,4.105,4.759c.273.278.551.551.833.824v5.278a23.356,23.356,0,0,1-11.98-6.37c-.076-.072-.152-.143-.228-.219a46.356,46.356,0,0,1-9.979-15.167,15.713,15.713,0,0,0-1.562,10.722l1.262,6-2.914-2.234a25.035,25.035,0,0,1-9.746-17.938l-.479-6.187c-6.4,1.536-4.942,11.648-4.942,11.648l-1-2.077a28.053,28.053,0,0,1,3.743-30.209,46.774,46.774,0,0,0,7.879-13.457c.4-1.057.761-2.122,1.083-3.205a46.742,46.742,0,0,0,1.947-12.087c.018-.685.036-1.043.036-1.043l-.86-.631a78.452,78.452,0,0,1,21.108-8.345l-3.183,2.865c-7.767,7.082-9.262,18.941-2.167,32.094l-1.943-.564a12.452,12.452,0,0,1-4.262-2.2Z" transform="translate(-3.295 -51.21)" fill="#6d7486"/><path d="M167.225,202.862l-.412.063a6.581,6.581,0,0,1-7.078-11.084,5.569,5.569,0,0,1,7.078.716l.134.34v3.358C166.947,198.462,167.041,200.669,167.225,202.862Z" transform="translate(-22.277 -89.049)" fill="#efc597"/><path d="M157.586,394.692a95.3,95.3,0,0,0,2.5,11.666v.627H130.99v-42.5a19.567,19.567,0,0,1,19.564-19.568h6.414a14,14,0,0,0,3.08,6.867l-1.732,9.813-.345,1.961a96.233,96.233,0,0,0-.385,31.131Z" transform="translate(-7.96 -167.729)" fill="#4b4d62"/><path d="M338.835,196.331a6.584,6.584,0,0,1-9.853,6.594h-.063V192.557h.063a5.574,5.574,0,0,1,7.082-.716,6.577,6.577,0,0,1,2.771,4.49Z" transform="translate(-112.151 -89.048)" fill="#efc597"/><path d="M303.616,309.947v.246a9.67,9.67,0,0,1-7.821,9.522v0a8.948,8.948,0,0,1-5.466-8.251V300.55h3.89a11.669,11.669,0,0,1,6.182,2.323s0,0,.009.009a9.457,9.457,0,0,1,1.688,1.943,35.993,35.993,0,0,1-4.087,7.185l5.506-3.429A9.856,9.856,0,0,1,303.616,309.947Z" transform="translate(-91.644 -146.8)" fill="#527b89"/><path d="M248.872,397.8l-.752.022a58.035,58.035,0,0,1-59.344.228l-.716-.022a96.071,96.071,0,0,1,1.433-14.16l.345-1.961a58.054,58.054,0,0,0,57.226-.219l.385,2.18A96.054,96.054,0,0,1,248.872,397.8Z" transform="translate(-36.383 -188.038)" fill="#eb885c"/><path d="M318.538,394.381a96.41,96.41,0,0,0-.425-30.858l-.385-2.18-1.692-9.594a14.012,14.012,0,0,0,3.084-6.9l.21.031h6.2a19.566,19.566,0,0,1,19.563,19.564v42.5H316v-.627a95.206,95.206,0,0,0,2.538-11.939Z" transform="translate(-103.946 -167.69)" fill="#4b4d62"/><path d="M290.747,336.565a14.234,14.234,0,0,1-4.069,3.371,14.031,14.031,0,0,1-6.8,1.741h-3.416a6.252,6.252,0,1,1,0-12.5h6.388a9.476,9.476,0,0,0,1.831-.175,9.67,9.67,0,0,0,7.821-9.522v-.246a9.856,9.856,0,0,0-.1-1.365l.81-.506a11.785,11.785,0,0,1,.77,4.195v6.017a14.1,14.1,0,0,1-3.24,8.993Z" transform="translate(-80.638 -155.472)" fill="#7cadc2"/><path d="M148.245,97.089l.911.631s-.019.358-.038,1.043a44.345,44.345,0,0,1-2.063,12.087l-1.077-.3c-5.108-4.884-8.049-10.623-8.049-16.761,0-9.862,7.6-18.69,19.565-24.6,9.614-4.75,22.041-7.615,35.626-7.615,14.666,0,27.989,3.34,37.874,8.783,10.663,5.873,17.317,14.2,17.317,23.427a20.328,20.328,0,0,1-2.666,9.925l-5.934-5.023c-26.894-13.314-49.855-13.779-66.755-10.444q-1.2.235-2.343.492l0,0a86.086,86.086,0,0,0-22.364,8.345Z" transform="translate(-11.793 -21.618)" fill="#4ca987"/><path d="M264.22,151.718a12.25,12.25,0,0,0-12.812-10.167c-34.695,2.7-39.628-22.54-39.628-22.54v0c15.951-3.335,37.622-2.87,63.006,10.444l5.6,5.023.134.121c13.108,15.969,13.65,37.685,4.992,55.959a62.564,62.564,0,0,1-11.944,16.927l-4.325,4.41V201.678l-8.3,5.166-.81.506-5.506,3.429a35.99,35.99,0,0,0,4.087-7.185c.04-.09.076-.179.112-.269a38.009,38.009,0,0,0,1.934-22.652,33.319,33.319,0,0,0,3.461-14.836V162.26h.063a6.581,6.581,0,0,0,7.082-11.084,5.574,5.574,0,0,0-7.082.716h-.063Z" transform="translate(-46.382 -48.525)" fill="#6d7486"/><path d="M236.384,30.624c10.782,2.392,18.374,11.253,18.366,21.435-10.163-5.444-23.862-8.783-38.941-8.783-13.967,0-26.744,2.865-36.63,7.615v0c-.032-9.945,7.5-18.562,18.083-20.687a96.831,96.831,0,0,1,18.547-1.759,95.678,95.678,0,0,1,20.575,2.185Z" transform="translate(-34.576 -3.313)" fill="#5fcda4"/><path d="M248.829,417.68a96.022,96.022,0,0,1-1,16.927,58.028,58.028,0,0,1-58.766.273,96.136,96.136,0,0,1-1.048-16.971l.716.022a58.035,58.035,0,0,0,59.344-.228Z" transform="translate(-36.34 -207.916)" fill="#eeba56"/><path d="M211.539,198.472q-.416-.2-.833-.416t-.848-.454a30.352,30.352,0,0,1-14.316-18.282,76.443,76.443,0,0,1-2.671-14.655c-.184-2.194-.278-4.4-.278-6.608V154.7l-.107-32.965c-.339.076-.676.153-1.008.231l0,0-3.183,2.865c-7.768,7.082-9.263,18.941-2.167,32.094l-1.943-.564a12.45,12.45,0,0,1-4.261-2.2l-.891.192.134.34v3.358c0,2.207.094,4.414.278,6.608a75.457,75.457,0,0,0,5.189,21.981,33.623,33.623,0,0,0,12.647,11.411q.416.215.833.416a33.573,33.573,0,0,0,21.245,2.637,33.255,33.255,0,0,1-7.815-2.637Z" transform="translate(-32.442 -51.265)" fill="#dbbaa1"/><path d="M157.211,346.126c-.1-.4-.181-.8-.242-1.206h-6.415a19.566,19.566,0,0,0-19.563,19.564v42.5h13.43v-42.5a19.576,19.576,0,0,1,12.79-18.362Z" transform="translate(-7.96 -167.729)" fill="#393c4c"/><g transform="translate(116.578 22.441)"><circle cx="2.91" cy="2.91" r="2.91" transform="translate(55.815 154.836)" fill="#20344c"/><path d="M334.215,420.343h9.918a2.686,2.686,0,0,0,0-5.372h-9.918a2.686,2.686,0,0,0,0,5.372Z" transform="translate(-229.101 -228.861)" fill="#20344c"/><path d="M238.794,74.643c0-10-6.112-19.306-17.212-26.216a25.857,25.857,0,0,0-19.8-23.617,89.968,89.968,0,0,0-38.947-.46A25.071,25.071,0,0,0,143.246,47.1q-1.07.6-2.1,1.234c-11.189,6.918-17.352,16.259-17.352,26.3,0,6.841,2.926,13.475,8.454,19.219a46.424,46.424,0,0,1-8.159,14.37,32.321,32.321,0,0,0-4.306,34.746l1.053,2.178a2.819,2.819,0,0,0,5.33-1.622,18.8,18.8,0,0,1,.1-4.927,29.128,29.128,0,0,0,11.309,20.659l3.062,2.343a2.819,2.819,0,0,0,4.473-2.819l-1.326-6.3a13.718,13.718,0,0,1-.292-2.66,50.849,50.849,0,0,0,4.494,6.47c.508.619,1.027,1.2,1.551,1.773a15,15,0,0,0-1.906,7.351v5.73H143.89a23.383,23.383,0,0,0-23.354,23.354v44.609a2.819,2.819,0,0,0,2.819,2.819H240.831a2.819,2.819,0,0,0,2.819-2.819V194.514A23.383,23.383,0,0,0,220.3,171.16h-3.745v-5.732a15.163,15.163,0,0,0-.329-3.133l2.594-1.615v5.644a2.819,2.819,0,0,0,4.833,1.974l4.538-4.63a68.347,68.347,0,0,0,13.071-18.535c9.921-20.937,8.119-43.947-4.616-60.477a24.751,24.751,0,0,0,2.151-10.011ZM164.012,29.865a82.84,82.84,0,0,1,17.283-1.786,82.014,82.014,0,0,1,19.166,2.213,20.224,20.224,0,0,1,14.928,14.792c-9.807-4.585-21.656-7.07-34.094-7.07a82.566,82.566,0,0,0-31.887,6.09,19.36,19.36,0,0,1,14.6-14.239ZM129.433,74.643c0-8.018,5.213-15.656,14.679-21.509,9.888-6.114,23.093-9.481,37.182-9.481s27.294,3.367,37.182,9.481c9.465,5.853,14.678,13.491,14.678,21.509a18.617,18.617,0,0,1-.611,4.707c-31.4-17.715-57.761-16.706-74.4-12.7a80.553,80.553,0,0,0-28.136,12.523,18.51,18.51,0,0,1-.575-4.529Zm61.887,31.337a2.819,2.819,0,0,0,2.819-2.819,3.242,3.242,0,0,1,6.485,0,2.819,2.819,0,1,0,5.639,0,8.887,8.887,0,0,0-4.581-7.766c.49-.028.976-.059,1.451-.1a10.07,10.07,0,0,1,10.406,8.168V117.98a32.327,32.327,0,0,1-59.208,17.956,77.659,77.659,0,0,1-5.44-28.374,15.555,15.555,0,0,0,1.655.594l2.043.593a2.819,2.819,0,0,0,3.268-4.046c-6.506-12.055-5.874-23.369,1.676-30.253l2.008-1.8a33.68,33.68,0,0,0,6.853,11c7.535,8.08,17.612,11.013,26.775,11.7a8.889,8.889,0,0,0-4.671,7.818,2.819,2.819,0,0,0,2.824,2.819Zm-29.181,70.265h13.27a3.743,3.743,0,0,1,0,7.486h-10.15a11.978,11.978,0,0,1-11.945-10.979,12.875,12.875,0,0,0,8.828,3.494Zm-7.31-13v-.255c0-.058,0-.115.006-.172a26.5,26.5,0,0,0,7.923,3.964,6.571,6.571,0,0,1-2.861,3.465,7.365,7.365,0,0,1-5.066-7Zm8.309-11.54c-.149-.195-.3-.38-.449-.578.149.083.3.161.449.242Zm11.484,10.535a36.82,36.82,0,0,1-5.841-4.36v-4.026a37.948,37.948,0,0,0,26.63-.667v11.393A12.206,12.206,0,0,0,197,170.607H195.34a9.382,9.382,0,0,0,0,18.763h3.587a17.651,17.651,0,0,0,8.494-2.181q.513-.282,1-.6l.558,3.16a58.25,58.25,0,0,1-53.807.207l.594-3.366c.325.208.658.408,1,.6a17.651,17.651,0,0,0,8.5,2.179h10.15a9.382,9.382,0,1,0,0-18.763h-8.219a12.191,12.191,0,0,0,1.17-2.86c.394.019.788.037,1.184.037a25.188,25.188,0,0,0,4.086-.338,2.819,2.819,0,0,0,.987-5.2Zm27.536-6.3a9.452,9.452,0,0,1,4.907,1.843c.079.072.148.156.224.233a34.548,34.548,0,0,1-3.268,5.47,2.819,2.819,0,0,0,3.766,4.058l.32-.2a7.347,7.347,0,0,1-3.816,2.9,6.567,6.567,0,0,1-3.242-5.668v-8.634Zm-1.066-5.639a38.294,38.294,0,0,0,9.739-8.608,38.2,38.2,0,0,1-1.441,10.78,12.622,12.622,0,0,0-7.076-2.171h-1.222Zm.956,25.939a12.875,12.875,0,0,0,8.824-3.494,11.98,11.98,0,0,1-11.945,10.979H195.34a3.743,3.743,0,0,1,0-7.486Zm-47.875,19.518a63.868,63.868,0,0,0,55.808-.2,97.848,97.848,0,0,1,1.1,10.6,58.057,58.057,0,0,1-58,.251,97.778,97.778,0,0,1,1.085-10.655Zm-6.465-95.656a10.286,10.286,0,0,1-2.839-5.5,2.819,2.819,0,1,0-5.559.943,15.694,15.694,0,0,0,.965,3.349,8.425,8.425,0,0,0-3.381,1.376,9.751,9.751,0,0,0-2.168,2.048,52.229,52.229,0,0,0,5.792-22.378c.008-.275.015-.5.02-.665a78.546,78.546,0,0,1,9.091-4.113,24.873,24.873,0,0,0-3.776,11.41,33.717,33.717,0,0,0,1.854,13.533ZM143.4,112.234a4.084,4.084,0,0,1-3.3-7.325,2.994,2.994,0,0,1,3.148-.076v2.392Q143.252,109.736,143.4,112.234ZM132.217,84.577c.055-.039.111-.078.164-.123.028-.023.817-.668,2.3-1.675-.144,1.522-.356,3.034-.648,4.53a25.817,25.817,0,0,1-1.819-2.732Zm13.088,56.252a2.819,2.819,0,0,0-5.119-.353A19.335,19.335,0,0,0,138,152.042a23.483,23.483,0,0,1-6.125-14.065l-.5-6.49a2.819,2.819,0,0,0-3.468-2.524,8.672,8.672,0,0,0-5.4,3.891,26.672,26.672,0,0,1,5.913-21,51.61,51.61,0,0,0,4.873-6.912,10,10,0,0,0-.49,1.962,9.732,9.732,0,0,0,9.643,11.1,9.627,9.627,0,0,0,1.489-.12,82.3,82.3,0,0,0,5.2,20.22,2.723,2.723,0,0,0,.179.435q1.167,2.866,2.544,5.621A62.886,62.886,0,0,0,163.139,160.3v.634c-11.781-4.469-17.76-19.916-17.832-20.107Zm5.1,95.474H126.174v-41.79A17.737,17.737,0,0,1,143.89,176.8h4.493a17.66,17.66,0,0,0,2.483,5.106L148.9,193.054a104.749,104.749,0,0,0,1.512,43.25Zm5.83,0q-.647-2.447-1.166-4.928a63.637,63.637,0,0,0,15.674,4.928Zm51.707,0H193a63.683,63.683,0,0,0,16.165-5.163q-.536,2.6-1.213,5.163Zm2.4-12.124a58.062,58.062,0,0,1-56.474.273,99.517,99.517,0,0,1-.886-11.681,63.646,63.646,0,0,0,58.209-.235,99.618,99.618,0,0,1-.848,11.642ZM220.3,176.8a17.737,17.737,0,0,1,17.715,17.715V236.3H213.776a104.75,104.75,0,0,0,1.511-43.252L213.32,181.9a17.659,17.659,0,0,0,2.483-5.106Zm15.867-34.079a62.572,62.572,0,0,1-11.708,16.7V155.6a2.819,2.819,0,0,0-4.309-2.393l-6.329,3.94a42.967,42.967,0,0,0,1.876-23.3,37.718,37.718,0,0,0,3.487-15.865v-.011c.245.019.491.031.736.031a9.729,9.729,0,0,0,5.547-17.73,8.538,8.538,0,0,0-7.378-1.113A15.46,15.46,0,0,0,202.7,89.678C175.858,91.77,167.338,77.26,164.931,71.01a85.669,85.669,0,0,1,25.563-.437,106.69,106.69,0,0,1,35.352,11.556l5.244,4.7a2.8,2.8,0,0,0,.476.479c11.986,14.888,13.759,36.071,4.6,55.406ZM219.181,112.29v-7.5a2.987,2.987,0,0,1,3.076.118,4.088,4.088,0,0,1-.774,7.143,4.143,4.143,0,0,1-2.3.237Z" transform="translate(-116.578 -22.441)" fill="#20344c"/><path d="M215.063,186.464a2.686,2.686,0,0,0,2.686-2.686,8.462,8.462,0,1,0-16.924,0,2.686,2.686,0,0,0,5.372,0,3.09,3.09,0,1,1,6.18,0A2.686,2.686,0,0,0,215.063,186.464Z" transform="translate(-160.943 -103.287)" fill="#20344c"/><path d="M231.209,237.338a2.686,2.686,0,1,0-3.8,3.8,16.3,16.3,0,0,0,23.055,0,2.686,2.686,0,0,0-3.8-3.8,10.932,10.932,0,0,1-15.46,0Z" transform="translate(-174.312 -135.716)" fill="#20344c"/></g></g></svg>