<svg xmlns="http://www.w3.org/2000/svg" width="68.294" height="97.565" viewBox="0 0 68.294 97.565"><g transform="translate(-88 -15.988)"><path d="M104,384h61.79v22.765H104Z" transform="translate(-12.748 -293.212)" fill="#34507b"/><path d="M161.042,91.294v7.5l-1.266,1.126a47.046,47.046,0,0,1-62.509,0L96,98.8v-7.5a12.938,12.938,0,0,1,5.564-10.629c.314-.216.636-.42.969-.609a12.854,12.854,0,0,1,1.6-.77V48.391a24.391,24.391,0,0,1,48.781,0V79.286a12.636,12.636,0,0,1,1.514.724,12.932,12.932,0,0,1,6.616,11.285Z" transform="translate(-6.374 -6.384)" fill="#dfdfdd"/><rect width="32.521" height="45.529" rx="16.26" transform="translate(105.887 25.746)" fill="#fdc8a2"/><path d="M208.521,81.887l-.41-.512a20.3,20.3,0,0,0-31.7,0l-.41.512V80.26a16.26,16.26,0,0,1,32.521,0Z" transform="translate(-70.113 -38.254)" fill="#34507b"/><path d="M177.251,19.242a22.79,22.79,0,0,1,22.765,22.765V72.225a29,29,0,0,1-7.233,5.728l1.461,2.905a30.983,30.983,0,0,0,7.748-6.012,11.321,11.321,0,0,1,4.868,4.826l2.882-1.506a14.576,14.576,0,0,0-6.474-6.319V42.007a26.017,26.017,0,0,0-46.106-16.532l2.51,2.068a22.7,22.7,0,0,1,17.579-8.3Z" transform="translate(-55.104)"/><path d="M156.031,130.311l-3.193.615a11.354,11.354,0,0,1,.2,2.142v6.773s-13.11,12.113-30.895,12.113c-18.6,0-30.895-12.113-30.895-12.113v-6.774a11.292,11.292,0,0,1,6.154-10.061,30.969,30.969,0,0,0,7.748,6.013l1.461-2.907a28.974,28.974,0,0,1-7.233-5.728V90.165a22.706,22.706,0,0,1,3.425-12.015l-2.761-1.719A25.954,25.954,0,0,0,96.13,90.165V120A14.563,14.563,0,0,0,88,133.068v7.5a1.626,1.626,0,0,0,.546,1.215l1.08.96v18.964h3.252V145.42a48.607,48.607,0,0,0,27.643,9.757v6.534h3.252v-6.534a48.608,48.608,0,0,0,27.643-9.757v16.291h3.252V142.747l1.08-.96a1.626,1.626,0,0,0,.546-1.214v-7.5a14.609,14.609,0,0,0-.263-2.757Z" transform="translate(0 -48.158)"/><path d="M216,480h3.252v3.252H216Z" transform="translate(-101.983 -369.699)"/><path d="M144,464h3.252v6.5H144Z" transform="translate(-44.618 -356.951)"/><path d="M352,464h3.252v6.5H352Z" transform="translate(-210.34 -356.951)"/><path d="M189.712,114.752l1.613,2.824c12.063-6.893,12.2-29.713,12.2-30.681V73.886a17.887,17.887,0,0,0-35.773,0V85.215a56.749,56.749,0,0,0,.839,12.743c1.68,9.239,5.59,16.011,11.307,19.584l1.724-2.758c-5.659-3.537-8.346-10.213-9.605-16.312a17.86,17.86,0,0,0,26.823.477,42.209,42.209,0,0,1-1.829,6.136l-.017-.025a17.691,17.691,0,0,1-16.327,2.228l-.653,1.489-.658,1.487a19.263,19.263,0,0,0,7.269,1.332,20.994,20.994,0,0,0,7.849-1.522,14.422,14.422,0,0,1-4.764,4.677Zm-4.071-55.5a14.657,14.657,0,0,1,14.368,11.864,21.937,21.937,0,0,0-28.736,0A14.657,14.657,0,0,1,185.641,59.252Zm0,42.277a14.651,14.651,0,0,1-14.634-14.634V76.083l.053-.067a18.673,18.673,0,0,1,29.162,0l.053.066V86.895A14.651,14.651,0,0,1,185.641,101.529Z" transform="translate(-63.494 -31.88)"/><path d="M202.846,160a2.846,2.846,0,1,0,2.846,2.846A2.846,2.846,0,0,0,202.846,160Z" transform="translate(-89.235 -114.741)"/><path d="M286.846,160a2.846,2.846,0,1,0,2.846,2.846A2.846,2.846,0,0,0,286.846,160Z" transform="translate(-156.162 -114.741)"/><path d="M126.506,373.258a39.79,39.79,0,0,0,30.556,0A46.071,46.071,0,0,0,170.7,364.5l-2.2-2.4c-7.819,7.167-17.058,10.956-26.72,10.956s-18.9-3.788-26.72-10.956l-2.2,2.4a46.069,46.069,0,0,0,13.639,8.759Z" transform="translate(-19.813 -275.763)"/><path d="M124.552,323.936l-2.362,2.236c8.01,8.462,17.355,12.935,27.022,12.935,9.824,0,19.293-4.606,27.384-13.321l-2.383-2.213c-7.459,8.034-16.105,12.282-25,12.282-8.752,0-17.279-4.121-24.66-11.919Z" transform="translate(-27.241 -245.067)"/><path d="M236.878,220.878A4.884,4.884,0,0,1,232,216h3.252a1.626,1.626,0,1,0,3.252,0h3.252A4.884,4.884,0,0,1,236.878,220.878Z" transform="translate(-114.731 -159.359)"/></g></svg>