<svg xmlns="http://www.w3.org/2000/svg" width="128.167" height="209.609" viewBox="0 0 128.167 209.609"><g transform="translate(-125 -41.754)"><path d="M231.919,326H152.377A21.217,21.217,0,0,0,131,347.189v46.319H253.3V347.189A21.217,21.217,0,0,0,231.919,326Z" transform="translate(-3.065 -145.196)" fill="#e9fbff"/><path d="M297.233,291.725a19.072,19.072,0,0,1,.117,2.1,18.7,18.7,0,0,1-4.082,11.659l-.066-.051a9.752,9.752,0,0,1-2.862-6.922v-6.79Z" transform="translate(-84.458 -127.688)" fill="#7cbcc1"/><path d="M211.42,305.491a18.677,18.677,0,0,1-4.09-11.662,19.083,19.083,0,0,1,.117-2.1h6.893v6.79a9.745,9.745,0,0,1-2.92,6.976Z" transform="translate(-42.055 -127.688)" fill="#7cbcc1"/><path d="M330.943,176.41a6.1,6.1,0,0,1,7.734-.783c.059.039.117.083.171.127a7.188,7.188,0,0,1-7.905,11.985h-.073V176.41Z" transform="translate(-105.161 -67.857)" fill="#ffc397"/><path d="M287.792,303.681a18.687,18.687,0,0,1-8.1,19.3L267,331.29l-9.661-13.8,13.34-7.206a18.7,18.7,0,0,0,9.813-16.451,19.08,19.08,0,0,0-.117-2.1Z" transform="translate(-67.601 -127.688)" fill="#88ced8"/><path d="M255.07,297.356a9.752,9.752,0,0,1-2.862-6.922V275.959l-.01-.02L218.64,275.9l-.029.054v14.475a9.745,9.745,0,0,1-2.92,6.976,18.651,18.651,0,0,0,5.723,4.789l13.34,7.206h1.311L249.4,302.2a18.728,18.728,0,0,0,5.728-4.789Z" transform="translate(-46.326 -119.607)" fill="#ffc397"/><path d="M169.69,187.739a7.191,7.191,0,0,1-7.856-12.024c.039-.029.078-.059.122-.088a6.1,6.1,0,0,1,7.734.783h.152v11.33Z" transform="translate(-17.305 -67.857)" fill="#ffc397"/><path d="M246.034,111.618V102.9a36.445,36.445,0,0,0-6.056-20.169,16.25,16.25,0,0,0-22.018-4.789l0,0a16.29,16.29,0,0,1-17.014,0,16.251,16.251,0,0,0-22.023,4.784,36.458,36.458,0,0,0-6.056,20.174v8.722h-.152a6.1,6.1,0,0,0-7.734-.783c-.044.029-.083.059-.122.088l-.064-.088V78.27A30.516,30.516,0,0,1,195.3,47.755h28.281a30.518,30.518,0,0,1,30.52,30.518v32.562l-.093.127c-.054-.044-.113-.088-.171-.127a6.1,6.1,0,0,0-7.734.783Z" transform="translate(-20.325 -3.065)" fill="#4a5160"/><path d="M248.406,111.72a16.25,16.25,0,0,0-22.018-4.789l0,0a16.29,16.29,0,0,1-17.014,0,16.251,16.251,0,0,0-22.023,4.784,36.458,36.458,0,0,0-6.056,20.174v23.96a36.586,36.586,0,0,0,73.173,0v-23.96a36.444,36.444,0,0,0-6.056-20.169Z" transform="translate(-28.754 -32.058)" fill="#ffd8b7"/><path d="M167.053,326H152.377A21.217,21.217,0,0,0,131,347.189v46.319h14.676V347.189A21.217,21.217,0,0,1,167.053,326Z" transform="translate(-3.065 -145.196)" fill="#bcd0d3"/><path d="M195.966,155.851v-23.96a36.458,36.458,0,0,1,6.056-20.174,15.951,15.951,0,0,1,6.143-5.45,16.238,16.238,0,0,0-20.818,5.45,36.458,36.458,0,0,0-6.056,20.174v23.96A36.6,36.6,0,0,0,225.213,191.7a36.2,36.2,0,0,1-9.47-3.348,36.579,36.579,0,0,1-19.778-32.5Z" transform="translate(-28.754 -32.06)" fill="#d3b39b"/><path d="M256.08,222.627a9.915,9.915,0,0,1,13.991.054l7.03,7.025a9.938,9.938,0,0,1-14.054,0l-6.966-6.966.059-.059A.583.583,0,0,0,256.08,222.627Z" transform="translate(-66.957 -90.93)" fill="#4a5160"/><path d="M234.072,222.681l.059.059-6.971,6.966a9.931,9.931,0,0,1-14.049,0l7.025-7.025a9.921,9.921,0,0,1,14-.054A.582.582,0,0,0,234.072,222.681Z" transform="translate(-45.008 -90.93)" fill="#4a5160"/><path d="M203.419,305.491a18.651,18.651,0,0,0,5.723,4.789l13.34,7.206-9.661,13.8-12.69-8.306a18.687,18.687,0,0,1-8.1-19.3l7.416-11.956a19.087,19.087,0,0,0-.117,2.1,18.676,18.676,0,0,0,4.089,11.661Z" transform="translate(-34.055 -127.688)" fill="#88ced8"/><g transform="translate(125 41.754)"><path d="M228.854,177.678H223.4a22.087,22.087,0,0,0-.326-2.259l-7.8-12.931a2.935,2.935,0,0,0-2.495-1.386h-3.962v-3.063A39.537,39.537,0,0,0,228.641,123.8v-.011c.255.02.511.032.768.032a10.128,10.128,0,0,0,7.3-17.157V75.208a33.492,33.492,0,0,0-33.454-33.454H174.982a33.492,33.492,0,0,0-33.454,33.454v31.376a10.126,10.126,0,0,0,7.227,17.229c.282,0,.564-.016.844-.04v.02a39.536,39.536,0,0,0,19.752,34.2V161.1h-3.962a2.935,2.935,0,0,0-2.495,1.387l-7.8,12.931a22.1,22.1,0,0,0-.326,2.259h-5.455A24.342,24.342,0,0,0,125,201.988v46.44a2.935,2.935,0,0,0,2.935,2.935h122.3a2.935,2.935,0,0,0,2.935-2.935V201.992a24.342,24.342,0,0,0-24.313-24.315Zm-14.072-4.84,2.623,4.229a15.7,15.7,0,0,1-6.922,15.773l-10.308,6.751-6.142-8.773,10.444-5.644a21.561,21.561,0,0,0,10.3-12.336Zm-4.848-5.867a15.7,15.7,0,0,1-1.037,4.86,6.87,6.87,0,0,1-.081-1v-3.858ZM233.641,113.1a4.256,4.256,0,0,1-2.6,4.522,4.315,4.315,0,0,1-2.4.245v-7.8a3.111,3.111,0,0,1,3.2.124A4.238,4.238,0,0,1,233.641,113.1ZM149.6,117.849a4.305,4.305,0,0,1-2.473-.227,4.256,4.256,0,0,1-.806-7.436,3.114,3.114,0,0,1,3.278-.079Zm0-13.914a9.017,9.017,0,0,0-2.2-.12V75.207a27.615,27.615,0,0,1,27.583-27.584H203.26a27.615,27.615,0,0,1,27.584,27.584V103.82a8.993,8.993,0,0,0-2.2.1V99.833A39.35,39.35,0,0,0,222.1,78.042a19.089,19.089,0,0,0-25.969-5.688l-.032.02a13.3,13.3,0,0,1-13.95,0,19.089,19.089,0,0,0-26,5.667A39.351,39.351,0,0,0,149.6,99.836Zm5.87,19.858V99.833a33.5,33.5,0,0,1,5.573-18.554,13.135,13.135,0,0,1,10.995-5.9,13.46,13.46,0,0,1,7.044,2,19.143,19.143,0,0,0,20.053.02l.031-.019A13.24,13.24,0,0,1,217.2,81.284a33.494,33.494,0,0,1,5.57,18.55v23.96a33.652,33.652,0,0,1-67.3,0Zm13.882,43.177v3.858a6.937,6.937,0,0,1-.08,1,15.683,15.683,0,0,1-1.038-4.86Zm-8.589,10.1,2.623-4.229a21.562,21.562,0,0,0,10.306,12.334l10.444,5.644-6.142,8.774-10.308-6.751a15.7,15.7,0,0,1-6.922-15.77ZM185.494,245.5H155.33V219.079a2.935,2.935,0,1,0-5.87,0V245.5H130.87v-43.5a18.464,18.464,0,0,1,18.442-18.442h5.708a21.549,21.549,0,0,0,9.448,14.2l12.689,8.306a2.935,2.935,0,0,0,4.011-.772l4.324-6.176Zm-9.011-65.487a15.872,15.872,0,0,1-3.254-2.341,12.621,12.621,0,0,0,1.993-6.838V160.785a39.452,39.452,0,0,0,27.723.03v10.014a12.632,12.632,0,0,0,1.993,6.837,15.9,15.9,0,0,1-3.254,2.341l-12.6,6.809ZM247.3,245.5H228.708V219.08a2.935,2.935,0,0,0-5.87,0V245.5H191.365V197.24L197,205.285a2.935,2.935,0,0,0,4.011.772L213.7,197.75a21.549,21.549,0,0,0,9.448-14.2h5.71A18.464,18.464,0,0,1,247.3,201.989Z" transform="translate(-125 -41.754)" fill="#20344c"/><path d="M273.094,384.235a3.561,3.561,0,1,0,3.56,3.561,3.561,3.561,0,0,0-3.56-3.561Z" transform="translate(-198.829 -216.698)" fill="#20344c"/><path d="M273.1,412.144a3.561,3.561,0,1,0,3.56,3.561,3.561,3.561,0,0,0-3.56-3.561Z" transform="translate(-198.83 -230.954)" fill="#20344c"/><path d="M273.1,440.052a3.561,3.561,0,1,0,3.56,3.561,3.561,3.561,0,0,0-3.56-3.561Z" transform="translate(-198.83 -245.21)" fill="#20344c"/><path d="M227.908,387.8a3.561,3.561,0,1,0,3.561-3.561,3.561,3.561,0,0,0-3.561,3.561Z" transform="translate(-177.567 -216.698)" fill="#20344c"/><path d="M231.468,412.144a3.561,3.561,0,1,0,3.561,3.561A3.561,3.561,0,0,0,231.468,412.144Z" transform="translate(-177.567 -230.954)" fill="#20344c"/><path d="M231.468,440.052a3.561,3.561,0,1,0,3.561,3.561A3.561,3.561,0,0,0,231.468,440.052Z" transform="translate(-177.567 -245.21)" fill="#20344c"/><path d="M274.517,178.2a2.935,2.935,0,0,0,2.935-2.935,3.377,3.377,0,1,1,6.753,0,2.935,2.935,0,1,0,5.87,0,9.247,9.247,0,0,0-18.494,0A2.935,2.935,0,0,0,274.517,178.2Z" transform="translate(-199.876 -105.23)" fill="#20344c"/><path d="M208.64,175.267a3.375,3.375,0,0,1,6.751,0,2.935,2.935,0,1,0,5.87,0,9.246,9.246,0,1,0-18.491,0,2.935,2.935,0,1,0,5.87,0Z" transform="translate(-164.726 -105.231)" fill="#20344c"/><path d="M235.957,228.725a12.887,12.887,0,0,0,18.2,0,2.935,2.935,0,0,0,0-4.151l-7.026-7.026a12.89,12.89,0,0,0-16.069-1.719,12.892,12.892,0,0,0-16.07,1.719l-7.026,7.026a2.935,2.935,0,0,0,0,4.15,12.884,12.884,0,0,0,18.2,0l4.892-4.892Zm7.026-7.026,4.494,4.494a7.008,7.008,0,0,1-7.369-1.619l-4.494-4.494a7.014,7.014,0,0,1,7.369,1.619Zm-20.962,2.875a7.012,7.012,0,0,1-7.369,1.619l4.494-4.494a7.012,7.012,0,0,1,7.369-1.619Z" transform="translate(-166.942 -129.629)" fill="#20344c"/></g></g></svg>