<svg xmlns="http://www.w3.org/2000/svg" width="127.93" height="146.286" viewBox="0 0 127.93 146.286"><g transform="translate(-48.004 -10.375)"><path d="M240,296h9.774v9.774H240Z" transform="translate(-133.351 -198.382)" fill="#fa9f0c"/><path d="M113.979,369.774a16.269,16.269,0,0,0,3.259,9.774H51.262a16.291,16.291,0,0,1,0-19.549h65.977a16.3,16.3,0,0,0-3.259,9.774Z" transform="translate(0 -242.833)" fill="#92563a"/><path d="M315.315,360H267.258a16.291,16.291,0,0,0,0,19.549h48.057A16.291,16.291,0,0,1,315.315,360Z" transform="translate(-150.02 -242.833)" fill="#ead7bc"/><rect width="48.872" height="4.887" rx="2.444" transform="translate(113.979 124.498)" fill="#d4c2aa"/><path d="M205.908,359.257a2.444,2.444,0,0,0-3.62.794,18.889,18.889,0,0,0,0,17.731,2.444,2.444,0,1,0,4.3-2.327,13.96,13.96,0,0,1,0-13.079A2.451,2.451,0,0,0,205.908,359.257Z" transform="translate(-105.624 -241.976)" fill="#ed8c0c"/><path d="M90.288,360.051a18.89,18.89,0,0,0,0,17.731,2.444,2.444,0,1,0,4.3-2.327,13.96,13.96,0,0,1,0-13.079,2.443,2.443,0,1,0-4.3-2.325Z" transform="translate(-27.834 -241.975)" fill="#ed8c0c"/><path d="M185.774,328H215.1a9.774,9.774,0,0,1,9.774,9.774H176A9.774,9.774,0,0,1,185.774,328Z" transform="translate(-88.9 -220.607)" fill="#ffb531"/><path d="M276.218,328H264a9.774,9.774,0,0,1,9.774,9.774h12.218A9.774,9.774,0,0,0,276.218,328Z" transform="translate(-150.021 -220.607)" fill="#ffa912"/><path d="M0,0H4.887V110.584H0Z" transform="translate(68.26 13.83) rotate(-45)" fill="#fa9f0c"/><path d="M136.924,102.222a48.849,48.849,0,0,1-34.558-83.406,49.388,49.388,0,0,1,6.262-5.3l2.834,3.982a43.988,43.988,0,1,0,56.564,66.976,44.474,44.474,0,0,0,4.772-5.639l3.982,2.834a49.364,49.364,0,0,1-5.3,6.262A48.721,48.721,0,0,1,136.924,102.222Z" transform="translate(-27.832 -2.183)" fill="#ffb531"/><path d="M201.308,60.637a36.926,36.926,0,0,1-.733,7.331,36.522,36.522,0,0,1-8.333,16.8,36.666,36.666,0,0,1-63.509-31.461,36.657,36.657,0,0,1,72.575,7.331Z" transform="translate(-55.562 -9.446)" fill="#348fd9"/><path d="M204.2,72.913a36.928,36.928,0,0,1-.733,7.331,36.522,36.522,0,0,1-8.333,16.8A36.658,36.658,0,0,1,132.16,82.507a36.574,36.574,0,0,0,18.981,5.275q1.723,0,3.4-.159A36.748,36.748,0,0,0,186.689,41.65,36.632,36.632,0,0,1,204.2,72.913Z" transform="translate(-58.451 -21.722)" fill="#3086cd"/><g transform="translate(73.171 16.623)"><path d="M224.436,164.218l-9.774,12.218h-9.774v-7.331l-3.226-4.838L200,161.774V152h17.105v12.218Z" transform="translate(-178.741 -114.989)" fill="#7eb457"/><path d="M166.321,55.374h-9.774l-4.887,7.331v7.331h-9.774l-2.444-9.774H130.4A36.735,36.735,0,0,1,151.659,33.99V45.6h9.774Z" transform="translate(-130.4 -33.025)" fill="#7eb457"/><path d="M312.436,65.4a36.927,36.927,0,0,1-.733,7.331h-9.041l-7.331-4.887V58.067l-1.323-2.205L288,45.849V30.83A36.679,36.679,0,0,1,312.436,65.4Z" transform="translate(-239.861 -30.83)" fill="#7eb457"/></g><path d="M220.883,180.665h7.331l-9.774,12.218h-9.774v-7.331l-3.226-4.838a36.452,36.452,0,0,0,15.443-5.034Z" transform="translate(-109.348 -114.813)" fill="#79ad54"/><path d="M326.1,72.913a36.925,36.925,0,0,1-.733,7.331h-9.041l-7.331-4.887V65.582l-1.323-2.205a36.912,36.912,0,0,0,.919-21.727A36.632,36.632,0,0,1,326.1,72.913Z" transform="translate(-180.352 -21.722)" fill="#79ad54"/><path d="M148.81,433.839a16.269,16.269,0,0,0,3.259,9.774H86.092a16.291,16.291,0,0,1,0-19.549h65.977a16.3,16.3,0,0,0-3.259,9.774Z" transform="translate(-24.191 -287.329)" fill="#92563a"/><path d="M153.775,424.065a16.21,16.21,0,0,0-2.508,4.887H85.29a16.21,16.21,0,0,1,2.508-4.887Z" transform="translate(-25.897 -287.329)" fill="#875036"/><path d="M350.149,424.065H302.092a16.291,16.291,0,0,0,0,19.549h48.057a16.291,16.291,0,0,1,0-19.549Z" transform="translate(-174.214 -287.329)" fill="#dfcdb3"/><rect width="48.872" height="4.887" rx="2.444" transform="translate(124.619 144.066)" fill="#cebda5"/><path d="M240.745,423.322a2.444,2.444,0,0,0-3.62.794,18.89,18.89,0,0,0,0,17.731,2.444,2.444,0,1,0,4.3-2.327,13.961,13.961,0,0,1,0-13.079A2.451,2.451,0,0,0,240.745,423.322Z" transform="translate(-129.82 -286.473)" fill="#ed8c0c"/><path d="M125.121,424.116a18.89,18.89,0,0,0,0,17.731,2.444,2.444,0,1,0,4.3-2.327,13.961,13.961,0,0,1,0-13.079,2.443,2.443,0,1,0-4.3-2.325Z" transform="translate(-52.027 -286.472)" fill="#ed8c0c"/></g></svg>