<svg xmlns="http://www.w3.org/2000/svg" width="240" height="146" viewBox="0 0 240 146"><g transform="translate(-579 -3467)"><g transform="translate(-1 -3)"><g transform="translate(632 3480)" fill="#fff" stroke="#361274" stroke-width="5"><circle cx="68" cy="68" r="68" stroke="none"/><circle cx="68" cy="68" r="65.5" fill="none"/></g><g transform="translate(601.778 3470)"><path d="M107.767,75.439V20.509a1.144,1.144,0,0,1,1.144-1.144H124.72a1.144,1.144,0,0,1,1.144,1.144v9.566a1.144,1.144,0,0,0,1.144,1.144h9.7a1.144,1.144,0,0,0,1.144-1.144V8.655a1.144,1.144,0,0,0-1.144-1.144H59.877a1.144,1.144,0,0,0-1.144,1.144V30.076a1.144,1.144,0,0,0,1.144,1.144h9.7a1.144,1.144,0,0,0,1.144-1.144V20.509a1.144,1.144,0,0,1,1.144-1.144H87.676a1.144,1.144,0,0,1,1.144,1.144v82.8a1.145,1.145,0,0,1-.442.9l-5.247,4.081a1.144,1.144,0,0,1-.7.241H75.3a1.144,1.144,0,0,0-1.144,1.144v9.836a1.144,1.144,0,0,0,1.144,1.144h45.984a1.144,1.144,0,0,0,1.144-1.144v-9.836a1.144,1.144,0,0,0-1.144-1.144h-7.128a1.143,1.143,0,0,1-.7-.241l-5.247-4.081a1.144,1.144,0,0,1-.442-.9V75.439" transform="translate(-5.801 -5.801)" fill="#63cff1"/><g transform="translate(96.447 1.71)"><path d="M255.83,144.424l5.555,4.322H257.91a5.957,5.957,0,0,1-3.657-1.255l-2-1.554a6.18,6.18,0,0,1-2.386-4.882l.043-80.332a1.144,1.144,0,0,1,1.144-1.143h3.233a1.144,1.144,0,0,1,1.144,1.145l-.045,82.8A1.145,1.145,0,0,0,255.83,144.424Z" transform="translate(-249.869 -47.726)" fill="#33bddd"/><path d="M314.264,451.233h4.377a1.144,1.144,0,0,1,1.144,1.144v9.836a1.144,1.144,0,0,1-1.144,1.144h-3.233a1.144,1.144,0,0,1-1.144-1.144v-10.98Z" transform="translate(-299.603 -350.213)" fill="#33bddd"/><path d="M387.542,8.655V30.076A1.144,1.144,0,0,1,386.4,31.22h-4.377V7.511H386.4A1.144,1.144,0,0,1,387.542,8.655Z" transform="translate(-351.935 -7.511)" fill="#33bddd"/></g><path d="M363.67,382.058,353.478,392.25a1.138,1.138,0,0,1-1.61,0l-2.985-2.985a1.138,1.138,0,0,1,0-1.61l10.192-10.193a1.138,1.138,0,0,1,1.61,0l2.985,2.985A1.138,1.138,0,0,1,363.67,382.058Z" transform="translate(-229.636 -291.27)" fill="#e6eaee"/><path d="M385.05,376.833l3.408,3.408a.839.839,0,0,1,0,1.186l-3.493,3.493a.839.839,0,0,0,0-1.186l-3.408-3.408a.839.839,0,0,0-1.186,0l3.493-3.493A.839.839,0,0,1,385.05,376.833Z" transform="translate(-254.213 -290.851)" fill="#cdd3d9"/><path d="M274.079,303.684l4.668,17.8a6.989,6.989,0,0,0,6.205,5.194l1.917.153a7.5,7.5,0,0,1,4.705,2.172l.441.441,8.851-8.851-.441-.441a7.5,7.5,0,0,1-2.172-4.705l-.153-1.917a6.989,6.989,0,0,0-5.194-6.205l-17.8-4.668A.839.839,0,0,0,274.079,303.684Z" transform="translate(-172.098 -233.732)" fill="#ffd071"/><path d="M298.1,313.533l.154,1.917a7.5,7.5,0,0,0,2.171,4.7l.441.441-2.215,2.215-.441-.441a7.5,7.5,0,0,1-2.171-4.7l-.153-1.918a6.987,6.987,0,0,0-5.194-6.2L274.5,305.3l-.423-1.612a.84.84,0,0,1,1.025-1.025l17.8,4.668A6.99,6.99,0,0,1,298.1,313.533Z" transform="translate(-172.097 -233.732)" fill="#f7b657"/><path d="M391.408,412.506l-7.507,7.507a.839.839,0,0,1-1.187,0l-9.225-9.248,8.693-8.693,9.226,9.249A.839.839,0,0,1,391.408,412.506Z" transform="translate(-248.899 -310.533)" fill="#ff6e5e"/><path d="M413.551,412.5l-1.575,1.575-9.827-9.833,2.169-2.169,9.234,9.24A.839.839,0,0,1,413.551,412.5Z" transform="translate(-271.033 -310.533)" fill="#f4584d"/><circle cx="3.907" cy="3.907" r="3.907" transform="translate(111.835 78.782)" fill="#e6eaee"/><path d="M325.7,347.188a3.908,3.908,0,0,1-.916,6.2A3.907,3.907,0,0,0,319.5,348.1a3.908,3.908,0,0,1,6.2-.916Z" transform="translate(-207.198 -267.262)" fill="#cdd3d9"/><path d="M242.936,496.978H216.471a1.71,1.71,0,0,0,0,3.42h26.465a1.71,1.71,0,1,0,0-3.42Z" transform="translate(-126.307 -383.833)"/><path d="M135.346,158.038a1.71,1.71,0,0,0-1.71,1.71v59.539l-4.875,3.792h-6.933a2.857,2.857,0,0,0-2.854,2.854v9.836a2.857,2.857,0,0,0,2.854,2.854h8.537a1.71,1.71,0,1,0,0-3.42h-7.971v-8.7h6.562a2.867,2.867,0,0,0,1.752-.6l5.247-4.081a2.836,2.836,0,0,0,1.1-2.253V159.748A1.71,1.71,0,0,0,135.346,158.038Z" transform="translate(-52.326 -122.058)"/><path d="M143.721,99.579l-8.075-8.095a2.853,2.853,0,0,0-.4-3.517l-2.983-2.983a2.852,2.852,0,0,0-3.343-.507,5.79,5.79,0,0,1-1.057-2.9l-.153-1.917a8.708,8.708,0,0,0-6.465-7.724l-17.565-4.606V15.274h14.677v9a2.857,2.857,0,0,0,2.854,2.854h9.7a2.857,2.857,0,0,0,2.854-2.854V2.854A2.857,2.857,0,0,0,130.91,0H54.076a2.857,2.857,0,0,0-2.854,2.854V24.275a2.857,2.857,0,0,0,2.854,2.854h9.7a2.857,2.857,0,0,0,2.854-2.854v-9H81.309V25.419a1.71,1.71,0,0,0,3.42,0V14.708a2.857,2.857,0,0,0-2.854-2.854H66.067a2.857,2.857,0,0,0-2.854,2.854v9h-8.57V3.42h75.7V23.709h-8.57v-9a2.857,2.857,0,0,0-2.854-2.854H103.11a2.857,2.857,0,0,0-2.854,2.854V68.06a24.333,24.333,0,0,0,1.12,6.328L103.3,81.72l1.7,6.468a8.708,8.708,0,0,0,7.724,6.465l1.917.153a5.791,5.791,0,0,1,2.9,1.057,2.852,2.852,0,0,0,.508,3.343l2.983,2.983a2.848,2.848,0,0,0,3.513.407l8.071,8.091a2.548,2.548,0,0,0,3.607,0l7.507-7.507A2.552,2.552,0,0,0,143.721,99.579ZM114.907,91.4l-1.917-.153a5.284,5.284,0,0,1-4.687-3.923l-3.43-13.084,5.879,5.879A5.616,5.616,0,1,0,113.17,77.7l-5.879-5.879,13.084,3.431a5.284,5.284,0,0,1,3.923,4.687l.153,1.917a9.217,9.217,0,0,0,1.945,4.965l-6.523,6.523A9.214,9.214,0,0,0,114.907,91.4Zm-.718-10.261a2.2,2.2,0,1,1,0,3.105A2.189,2.189,0,0,1,114.189,81.136Zm8.848,18.232-2.176-2.176,9.384-9.384,2.177,2.176-.344.344h0l-4.613,4.613Zm11.374,8.286-7.4-7.421,4.337-4.337,1.938-1.938,7.4,7.421Z"/></g></g><rect width="240" height="146" transform="translate(579 3467)" fill="none"/></g></svg>