<svg xmlns="http://www.w3.org/2000/svg" width="79" height="79" viewBox="0 0 79 79"><g transform="translate(0 0.488)"><g transform="translate(0 -0.488)" fill="#fff" stroke="#7986cb" stroke-width="5"><circle cx="39.5" cy="39.5" r="39.5" stroke="none"/><circle cx="39.5" cy="39.5" r="37" fill="none"/></g><g transform="translate(15.577 19.544)"><path d="M43.577,8.289H43.17A4.4,4.4,0,0,0,39.23,4.426,4.4,4.4,0,0,0,34.86.5H6.808A6.816,6.816,0,0,0,0,7.308V26.977a4.4,4.4,0,0,0,3.97,4.376,4.4,4.4,0,0,0,4.3,3.924,3.94,3.94,0,0,0,3.944,3.886H43.577a3.95,3.95,0,0,0,3.946-3.946V12.235a3.95,3.95,0,0,0-3.946-3.946Zm2.09,3.946v15.2l-4.038-3.05a3.1,3.1,0,0,0-3.713-.032l-5.108,3.721L23.068,18.03a3.111,3.111,0,0,0-4.3-.167l-8.647,7.629V12.235a2.092,2.092,0,0,1,2.089-2.09H43.577a2.092,2.092,0,0,1,2.09,2.09Zm0,22.982a2.092,2.092,0,0,1-2.089,2.09H12.212a2.089,2.089,0,0,1-2.089-2.089v-7.25L20,19.255a1.257,1.257,0,0,1,1.737.067l4.4,4.532h0l8.749,9.021a.928.928,0,1,0,1.332-1.292l-2.1-2.165,4.9-3.567a1.252,1.252,0,0,1,1.5.013l5.157,3.9ZM5.8,30.882V8.966a2.674,2.674,0,0,1,.014-.276A2.708,2.708,0,0,1,8.506,6.261H19.859a.928.928,0,1,0,0-1.856H8.506A4.566,4.566,0,0,0,3.944,8.966V29.477a2.544,2.544,0,0,1-2.088-2.5V7.308A4.958,4.958,0,0,1,6.808,2.357H34.86a2.544,2.544,0,0,1,2.492,2.049H27.285a.928.928,0,0,0,0,1.856H38.8a2.544,2.544,0,0,1,2.488,2.028H12.213a3.95,3.95,0,0,0-3.946,3.946V27.548h0V33.42A2.542,2.542,0,0,1,5.8,30.882Zm0,0" transform="translate(0.001 -0.5)" fill="#7986cb"/><path d="M349.691,145.117a3.972,3.972,0,1,0,3.972,3.972A3.977,3.977,0,0,0,349.691,145.117Zm0,6.088a2.116,2.116,0,1,1,2.116-2.116A2.118,2.118,0,0,1,349.691,151.205Zm0,0" transform="translate(-313.63 -131.694)" fill="#7986cb"/><path d="M244.032,43.856a.949.949,0,0,0,.085.16.917.917,0,0,0,.115.141.971.971,0,0,0,.141.116.944.944,0,0,0,.161.085.93.93,0,0,0,.537.053.94.94,0,0,0,.333-.138.991.991,0,0,0,.141-.116.924.924,0,0,0,.116-.141.949.949,0,0,0,.085-.16.971.971,0,0,0,.053-.173.941.941,0,0,0,.018-.182.938.938,0,0,0-.156-.515.906.906,0,0,0-.116-.141.918.918,0,0,0-.141-.115.94.94,0,0,0-.333-.138.913.913,0,0,0-.363,0,.925.925,0,0,0-.174.053.944.944,0,0,0-.161.085.912.912,0,0,0-.256.256.942.942,0,0,0-.157.515.942.942,0,0,0,.018.182A.971.971,0,0,0,244.032,43.856Zm0,0" transform="translate(-221.316 -38.668)" fill="#7986cb"/></g></g></svg>