<svg xmlns="http://www.w3.org/2000/svg" width="168" height="193.5" viewBox="0 0 168 193.5">
  <g id="Group_32933" data-name="Group 32933" transform="translate(1459 -2232)">
    <g id="Group_31770" data-name="Group 31770" transform="translate(-1291.18 2232.181) rotate(90)">
      <g id="Ellipse_543" data-name="Ellipse 543" transform="translate(-0.181 -0.18)" fill="#fff" stroke="#7986cb" stroke-width="5">
        <circle cx="84" cy="84" r="84" stroke="none"/>
        <circle cx="84" cy="84" r="81.5" fill="none"/>
      </g>
    </g>
    <g id="Group_31790" data-name="Group 31790" transform="translate(-1770.438 2095.356)">
      <g id="Group_31789" data-name="Group 31789" transform="translate(355.438 153.977)">
        <g id="Group_31783" data-name="Group 31783" transform="translate(1.443)">
          <g id="Group_31781" data-name="Group 31781" transform="translate(0 3.398)">
            <g id="Group_31777" data-name="Group 31777" transform="translate(51.178 44.905)">
              <path id="Path_59893" data-name="Path 59893" d="M394.8,194.979a.747.747,0,0,1-.423-.131,29.457,29.457,0,0,1-3.252-2.552.755.755,0,0,1,1.01-1.123,28.48,28.48,0,0,0,3.088,2.423.757.757,0,0,1-.423,1.383Zm-6-5.36a.752.752,0,0,1-.569-.258,40.206,40.206,0,0,1-2.546-3.227.757.757,0,0,1,1.234-.877,37.993,37.993,0,0,0,2.449,3.106.758.758,0,0,1-.568,1.256Zm-4.675-6.566a.756.756,0,0,1-.655-.377,33.757,33.757,0,0,1-1.875-3.7.756.756,0,1,1,1.4-.57,32.331,32.331,0,0,0,1.784,3.51.756.756,0,0,1-.655,1.133Z" transform="translate(-381.541 -177.939)" fill="#7986cb"/>
            </g>
            <g id="Group_31778" data-name="Group 31778" transform="translate(34.042 99.822)">
              <path id="Path_59894" data-name="Path 59894" d="M408.045,206.693h-1.992a.756.756,0,0,1,0-1.512h1.992a.756.756,0,0,1,0,1.512Zm-6.023,0h-4.032a.756.756,0,1,1,0-1.512h4.032a.756.756,0,0,1,0,1.512Zm-8.065,0h-4.03a.756.756,0,1,1,0-1.512h4.03a.756.756,0,0,1,0,1.512Zm-8.061,0h-4.032a.756.756,0,1,1,0-1.512h4.032a.756.756,0,0,1,0,1.512Zm-8.066,0H373.8a.756.756,0,0,1,0-1.512h4.032a.756.756,0,1,1,0,1.512Z" transform="translate(-373.041 -205.181)" fill="#7986cb"/>
            </g>
            <g id="Group_31779" data-name="Group 31779">
              <path id="Path_59895" data-name="Path 59895" d="M385.533,257H381.5a.756.756,0,1,1,0-1.512h4.032a.756.756,0,1,1,0,1.512Zm-8.063,0h-4.032a.756.756,0,0,1,0-1.512h4.032a.756.756,0,0,1,0,1.512Zm-8.064,0h-4.032a.756.756,0,1,1,0-1.512h4.032a.756.756,0,1,1,0,1.512Zm-8.063,0h-4.032a.756.756,0,0,1,0-1.512h4.032a.756.756,0,0,1,0,1.512Zm-4.433-3.631a.756.756,0,0,1-.756-.756v-4.032a.756.756,0,1,1,1.512,0v4.032A.756.756,0,0,1,356.91,253.366Zm0-8.063a.756.756,0,0,1-.756-.756v-4.032a.756.756,0,1,1,1.512,0v4.032A.756.756,0,0,1,356.91,245.3Zm0-8.063a.756.756,0,0,1-.756-.756v-4.032a.756.756,0,1,1,1.512,0v4.032A.756.756,0,0,1,356.91,237.239Zm0-8.063a.756.756,0,0,1-.756-.756v-4.032a.756.756,0,1,1,1.512,0v4.032A.756.756,0,0,1,356.91,229.176Zm0-8.063a.756.756,0,0,1-.756-.756v-4.032a.756.756,0,0,1,1.512,0v4.032A.756.756,0,0,1,356.91,221.112Zm0-8.063a.756.756,0,0,1-.756-.756v-4.032a.756.756,0,1,1,1.512,0v4.032A.756.756,0,0,1,356.91,213.049Zm3.469-5.344c-.4,0-.778-.012-1.123-.028a.758.758,0,0,1-.716-.794.733.733,0,0,1,.794-.716,22.507,22.507,0,0,0,3.883-.165.756.756,0,0,1,.2,1.5A22.7,22.7,0,0,1,360.379,207.7Zm6.864-1.1a.756.756,0,0,1-.234-1.476,21.229,21.229,0,0,0,3.564-1.544.756.756,0,1,1,.728,1.326,22.918,22.918,0,0,1-3.822,1.655A.731.731,0,0,1,367.243,206.608Zm7.042-3.838a.757.757,0,0,1-.474-1.347,24.765,24.765,0,0,0,2.836-2.683.756.756,0,0,1,1.121,1.014,26.113,26.113,0,0,1-3.012,2.848A.746.746,0,0,1,374.285,202.77Zm5.34-5.987a.753.753,0,0,1-.645-1.147,30.152,30.152,0,0,0,1.8-3.5.756.756,0,1,1,1.383.611,31.051,31.051,0,0,1-1.893,3.671A.753.753,0,0,1,379.625,196.783Zm3.3-7.348a.746.746,0,0,1-.244-.04.755.755,0,0,1-.472-.96c.421-1.234.806-2.512,1.161-3.816a.756.756,0,0,1,1.46.4c-.375,1.375-.774,2.687-1.189,3.907A.756.756,0,0,1,382.925,189.435Zm2.141-7.781a.785.785,0,0,1-.165-.018.756.756,0,0,1-.572-.9c.29-1.306.554-2.623.794-3.929a.755.755,0,1,1,1.486.274c-.242,1.322-.51,2.657-.8,3.985A.757.757,0,0,1,385.066,181.654Zm1.464-7.941a.73.73,0,0,1-.113-.008.756.756,0,0,1-.635-.861c.208-1.367.389-2.7.546-3.981a.756.756,0,1,1,1.5.185c-.159,1.294-.343,2.641-.552,4.022A.754.754,0,0,1,386.529,173.713Zm.994-8.015c-.024,0-.05,0-.075,0a.756.756,0,0,1-.679-.827c.147-1.488.26-2.842.347-4.008a.766.766,0,0,1,.81-.7.758.758,0,0,1,.7.81c-.089,1.177-.2,2.542-.349,4.046A.759.759,0,0,1,387.523,165.7Zm.593-8.068-.034,0a.752.752,0,0,1-.722-.786l.016-.448a.778.778,0,0,1,.78-.732.757.757,0,0,1,.732.78l-.018.464A.753.753,0,0,1,388.116,157.631Z" transform="translate(-356.154 -155.663)" fill="#7986cb"/>
            </g>
            <g id="Group_31780" data-name="Group 31780" transform="translate(42.434 4.749)">
              <path id="Path_59896" data-name="Path 59896" d="M383.889,191.378a.754.754,0,0,1-.577-.27c-.175-.206-.343-.417-.506-.633a.756.756,0,1,1,1.205-.911c.147.194.3.385.454.57a.756.756,0,0,1-.577,1.244Zm-2.53-4.064a.756.756,0,0,1-.685-.437A29,29,0,0,1,379.22,183a.755.755,0,1,1,1.447-.433,27.286,27.286,0,0,0,1.377,3.669.76.76,0,0,1-.685,1.076Zm-2.365-7.691a.755.755,0,0,1-.742-.613c-.246-1.276-.452-2.639-.611-4.046a.757.757,0,0,1,.667-.837.747.747,0,0,1,.837.667c.153,1.369.353,2.691.593,3.929a.756.756,0,0,1-.6.885A.723.723,0,0,1,378.994,179.623Zm-.929-8.009a.754.754,0,0,1-.754-.714c-.077-1.427-.1-2.8-.107-4.074a.754.754,0,0,1,.754-.756h0a.755.755,0,0,1,.756.756c0,1.248.03,2.592.1,3.991a.756.756,0,0,1-.716.8Zm-.012-8.063h-.036a.758.758,0,0,1-.72-.792c.113-2.463.29-4.008.3-4.074a.755.755,0,0,1,1.5.173c0,.016-.177,1.564-.286,3.973A.759.759,0,0,1,378.053,163.551Z" transform="translate(-377.204 -158.019)" fill="#7986cb"/>
            </g>
          </g>
          <g id="Group_31782" data-name="Group 31782" transform="translate(3.647)">
            <path id="Path_59897" data-name="Path 59897" d="M357.963,181.856v98.951a.511.511,0,0,0,.5.5h22.767a.519.519,0,0,0,.5-.5l2.631-24.418,1.863-17.3c.258-2.379,1.556-6.59.968-8.975-.347-1.4-.821,1.818-.824,1.891a34.458,34.458,0,0,0,.447,5.209l1.484,17.2,2.274,26.4a.516.516,0,0,0,.5.5h29.992a.519.519,0,0,0,.5-.5l6.634-55.386a.506.506,0,0,0-.25-.435c-8.654-6.084-15.252-14.869-14.593-26a.508.508,0,0,0-.758-.435c-8.567,4.423-17.9,11.507-22.884,19.846-.514.861-3.31,6.767-1.562,3.9,1.062-1.74,1.468-4.391,2.215-6.306,3.209-8.221,7.491-16.949,15.022-21.993a.527.527,0,0,0,.232-.57,36.338,36.338,0,0,1,3.889-25.716.51.51,0,0,0-.3-.74L377.537,154a.509.509,0,0,0-.639.486c.157,5.447.214,12.1-2.153,17.03-3,6.237-9.924,8.68-16.413,9.85-.637.115-.367,1.087.268.972,12.978-2.336,18.375-8.644,19.2-21.632.421-6.656-1.326-6.06,5.126-3.417l19.631,8.033c.853.351,5.437,1.518,5.87,2.4a85.865,85.865,0,0,0-3.677,9c-1.139,5.108,1.03,13.238-.835,17.127-.812,1.689-4.155,3.544-5.471,5.171a53.892,53.892,0,0,0-6.505,10.823,86.188,86.188,0,0,0-5.167,13.627.506.506,0,0,0,.921.387,55.557,55.557,0,0,1,12.835-15.778c2.465-2.121,7.676-7.261,11.236-7.92,2.141-.4-.155-.976.574-.177.284.31.208,3.159.294,3.814a26.517,26.517,0,0,0,5.132,13.1c2.2,2.881,6.088,4.858,8.035,7.731,1.465,2.161.857.542,1.095,3.411.524,6.328-1.659,13.859-2.413,20.157l-2.869,23.947c-.212,1.776.036,5.63-.869,7.255-1.046,1.881,1.129.413-2.07.907-7.146,1.1-15.3,0-22.527,0-5.8,0-4.546.619-5.056-5.3l-3.876-44.984a.5.5,0,0,0-1.008,0l-2.842,26.372-1.814,16.833c-.218,2.018-.754,7.015-.863,7.082-2.826,1.754-12.379,0-15.712,0-.947,0-5.471.609-6.279,0-1.161-.877.278-16.921.278-19.286V181.856A.5.5,0,0,0,357.963,181.856Z" transform="translate(-357.963 -153.977)" fill="#7986cb"/>
          </g>
        </g>
        <g id="Group_31788" data-name="Group 31788" transform="translate(0 14.304)">
          <g id="Group_31784" data-name="Group 31784" transform="translate(0 3.721)">
            <path id="Path_59898" data-name="Path 59898" d="M357.053,167.58l-.708,2.139h-.907l2.312-6.8h1.058l2.32,6.8h-.937l-.728-2.139Zm2.229-.685-.667-1.957c-.149-.444-.252-.847-.353-1.24h-.018c-.1.4-.214.816-.343,1.23l-.667,1.968Z" transform="translate(-355.438 -162.919)" fill="#7986cb"/>
          </g>
          <g id="Group_31785" data-name="Group 31785" transform="translate(59.295)">
            <path id="Path_59899" data-name="Path 59899" d="M384.852,161.214a8.5,8.5,0,0,1,1.6-.141,2.81,2.81,0,0,1,1.867.494,1.421,1.421,0,0,1,.566,1.2,1.616,1.616,0,0,1-1.151,1.494v.02a1.755,1.755,0,0,1,1.4,1.705,1.836,1.836,0,0,1-.575,1.363,3.421,3.421,0,0,1-2.353.635,10.254,10.254,0,0,1-1.361-.081Zm.877,2.784h.8c.929,0,1.474-.484,1.474-1.139,0-.8-.6-1.111-1.494-1.111a3.762,3.762,0,0,0-.776.06Zm0,3.258a4.434,4.434,0,0,0,.738.042c.907,0,1.744-.335,1.744-1.322,0-.927-.8-1.312-1.756-1.312h-.726Z" transform="translate(-384.852 -161.073)" fill="#7986cb"/>
          </g>
          <g id="Group_31786" data-name="Group 31786" transform="translate(62.252 23.09)">
            <path id="Path_59900" data-name="Path 59900" d="M391.476,179.216a4.372,4.372,0,0,1-1.8.323,3.178,3.178,0,0,1-3.36-3.441,3.384,3.384,0,0,1,3.552-3.57,3.627,3.627,0,0,1,1.613.3l-.21.716a3.2,3.2,0,0,0-1.373-.282,2.528,2.528,0,0,0-2.653,2.806,2.471,2.471,0,0,0,2.613,2.732,3.519,3.519,0,0,0,1.433-.282Z" transform="translate(-386.319 -172.527)" fill="#7986cb"/>
          </g>
          <g id="Group_31787" data-name="Group 31787" transform="translate(74.17 105.674)">
            <path id="Path_59901" data-name="Path 59901" d="M392.231,213.637a12.548,12.548,0,0,1,1.867-.143,3.891,3.891,0,0,1,2.754.849,3.135,3.135,0,0,1,.959,2.441,3.588,3.588,0,0,1-.982,2.643,4.175,4.175,0,0,1-3.006.98,14.168,14.168,0,0,1-1.593-.081Zm.877,6.013a5.546,5.546,0,0,0,.887.05,2.615,2.615,0,0,0,2.9-2.887,2.428,2.428,0,0,0-2.756-2.623,5,5,0,0,0-1.028.091Z" transform="translate(-392.231 -213.494)" fill="#7986cb"/>
          </g>
        </g>
      </g>
    </g>
    <line id="Line_20" data-name="Line 20" y2="26" transform="translate(-1375.5 2397)" fill="none" stroke="#7986cb" stroke-linecap="round" stroke-width="5"/>
  </g>
</svg>
