<svg xmlns="http://www.w3.org/2000/svg" width="122" height="121.238" viewBox="0 0 122 121.238"><path d="M106.75,121.238,71.343,99.125H7.625A7.625,7.625,0,0,1,0,91.5V7.625A7.625,7.625,0,0,1,7.625,0h106.75A7.625,7.625,0,0,1,122,7.625V91.5a7.625,7.625,0,0,1-7.625,7.625H106.75Zm0,0" fill="#ffd54f"/><g transform="translate(57.188 22.875)"><path d="M247.625,134.125H240V99.813a3.813,3.813,0,0,1,7.625,0Zm0,0" transform="translate(-240 -96)" fill="#361274"/><path d="M240,288h7.625v7.625H240Zm0,0" transform="translate(-240 -242.25)" fill="#361274"/></g></svg>