<svg xmlns="http://www.w3.org/2000/svg" width="168" height="193.5" viewBox="0 0 168 193.5">
  <g id="Group_32931" data-name="Group 32931" transform="translate(883 -2232)">
    <g id="Group_31768" data-name="Group 31768" transform="translate(-715 2232.181) rotate(90)">
      <g id="Ellipse_541" data-name="Ellipse 541" transform="translate(-0.181 0)" fill="#fff" stroke="#7986cb" stroke-width="5">
        <circle cx="84" cy="84" r="84" stroke="none"/>
        <circle cx="84" cy="84" r="81.5" fill="none"/>
      </g>
    </g>
    <g id="Group_31821" data-name="Group 31821" transform="translate(-1093.624 2066.723)">
      <g id="Group_31812" data-name="Group 31812" transform="translate(266.786 193.943)">
        <g id="Group_31809" data-name="Group 31809" transform="translate(0 26.418)">
          <path id="Path_59917" data-name="Path 59917" d="M315.6,203.949H245.276a.991.991,0,0,0,0,1.98H315.6a.991.991,0,0,0,0-1.98Z" transform="translate(-244.32 -203.949)" fill="#7986cb"/>
        </g>
        <g id="Group_31810" data-name="Group 31810" transform="translate(66.845 1.721)">
          <path id="Path_59918" data-name="Path 59918" d="M269.637,195.551v26.667a.991.991,0,0,0,1.98,0V195.551a.991.991,0,0,0-1.98,0Z" transform="translate(-269.637 -194.595)" fill="#7986cb"/>
        </g>
        <g id="Group_31811" data-name="Group 31811" transform="translate(2.975)">
          <path id="Path_59919" data-name="Path 59919" d="M245.447,194.9v30.322a.991.991,0,0,0,1.98,0V194.9a.991.991,0,0,0-1.98,0Z" transform="translate(-245.447 -193.943)" fill="#7986cb"/>
        </g>
      </g>
      <g id="Group_31820" data-name="Group 31820" transform="translate(230.624 221.445)">
        <g id="Group_31813" data-name="Group 31813" transform="translate(20.035 12.594)">
          <path id="Path_59920" data-name="Path 59920" d="M274.369,270.737l-2.794-56.721h-2.15l-8.625,55.9" transform="translate(-201.159 -201.113)" fill="#ebe1ff"/>
          <path id="Path_59921" data-name="Path 59921" d="M263.873,269.155l8.87-55.189-2.384-.4-17.667,53" transform="translate(-214.459 -201.848)" fill="#ebe1ff"/>
          <path id="Path_59922" data-name="Path 59922" d="M255.776,266.492l17.735-53.231-2.75-1.526L245.04,261.9" transform="translate(-227.011 -204.854)" fill="#ebe1ff"/>
          <path id="Path_59923" data-name="Path 59923" d="M250.569,263.282l20.1-52.128-3.362-2.025-29.1,46.5" transform="translate(-238.212 -209.129)" fill="#ebe1ff"/>
        </g>
        <g id="Group_31814" data-name="Group 31814">
          <path id="Path_59924" data-name="Path 59924" d="M336.214,224.481v61.5l.99-.99c-14.028,1.843-29.038.28-42.716-2.912-20.051-4.681-39.761-14.488-54.695-28.825a52.585,52.585,0,0,1-7.324-8.2l-.156,1.2,42.161-35.219,5.98-5h-1.4c7.359,7.953,16.819,15.916,27.679,18.073,9.9,1.964,20.42,1.9,30.472,1.357,1.267-.069,1.275-2.052,0-1.98-9.632.523-19.686.594-29.194-1.146-10.9-1.991-20.2-9.751-27.555-17.7a1.014,1.014,0,0,0-1.4,0l-42.161,35.219-5.978,4.993a.994.994,0,0,0-.156,1.2c5.946,8.8,15.33,15.826,24.149,21.442a130.573,130.573,0,0,0,65.275,19.979,101.836,101.836,0,0,0,17.022-.5,1.019,1.019,0,0,0,.99-.99v-61.5A.991.991,0,0,0,336.214,224.481Z" transform="translate(-230.624 -204.359)" fill="#7986cb"/>
        </g>
        <g id="Group_31819" data-name="Group 31819" transform="translate(21.032 12.484)">
          <g id="Group_31815" data-name="Group 31815" transform="translate(58.356 12.023)">
            <path id="Path_59925" data-name="Path 59925" d="M274.547,272.341a.985.985,0,0,1-.987-.94l-.261-5.275a.99.99,0,0,1,1.978-.1l.261,5.275a.991.991,0,0,1-.94,1.038Zm-12.864-5.373a1.032,1.032,0,0,1-.153-.013.988.988,0,0,1-.826-1.127l.805-5.22a.99.99,0,0,1,1.956.3l-.805,5.22A.992.992,0,0,1,261.683,266.968Zm12.344-5.175a.989.989,0,0,1-.988-.94l-.259-5.275a.99.99,0,0,1,1.978-.1l.259,5.275a.991.991,0,0,1-.94,1.038Zm-10.733-5.262a1.033,1.033,0,0,1-.153-.013.991.991,0,0,1-.826-1.13l.805-5.217a.99.99,0,1,1,1.956.3l-.805,5.22A.992.992,0,0,1,263.294,256.531Zm10.213-5.286a.989.989,0,0,1-.988-.94l-.259-5.275a.99.99,0,1,1,1.978-.1l.259,5.275a.991.991,0,0,1-.94,1.038Zm-8.6-5.154a.964.964,0,0,1-.15-.011.99.99,0,0,1-.829-1.13l.805-5.217a1,1,0,0,1,1.13-.829.99.99,0,0,1,.826,1.13l-.805,5.22A.987.987,0,0,1,264.9,246.091Zm8.085-5.394a.991.991,0,0,1-.987-.94l-.261-5.275a.989.989,0,0,1,.94-1.038.969.969,0,0,1,1.038.94l.261,5.273a.993.993,0,0,1-.94,1.04Zm-6.474-5.043a1.02,1.02,0,0,1-.153-.011.99.99,0,0,1-.826-1.13l.805-5.217a.99.99,0,1,1,1.956.3l-.805,5.217A.987.987,0,0,1,266.515,235.653Zm5.954-5.505a.991.991,0,0,1-.987-.943l-.261-5.273a.99.99,0,0,1,.94-1.038.976.976,0,0,1,1.038.94l.261,5.273a.99.99,0,0,1-.94,1.038Zm-4.343-4.932a1.014,1.014,0,0,1-.153-.011.991.991,0,0,1-.826-1.13l.805-5.217a.99.99,0,1,1,1.956.3l-.805,5.217A.987.987,0,0,1,268.125,225.216Zm3.823-5.616a.991.991,0,0,1-.987-.943l-.148-3.036h-.356a.99.99,0,1,1,0-1.98H272.7l.243,4.919A.99.99,0,0,1,272,219.6Z" transform="translate(-260.691 -213.641)" fill="#7986cb"/>
          </g>
          <g id="Group_31816" data-name="Group 31816" transform="translate(37.009 10.714)">
            <path id="Path_59926" data-name="Path 59926" d="M264.154,269.981a.806.806,0,0,1-.158-.013.987.987,0,0,1-.821-1.133l.837-5.215a.991.991,0,0,1,1.956.314l-.84,5.215A.988.988,0,0,1,264.154,269.981ZM253.6,265.96a1.082,1.082,0,0,1-.314-.05.992.992,0,0,1-.626-1.254l1.669-5.009a.991.991,0,1,1,1.88.626l-1.669,5.009A.991.991,0,0,1,253.6,265.96Zm12.23-6.405a.8.8,0,0,1-.158-.013.989.989,0,0,1-.819-1.135l.837-5.212a.989.989,0,1,1,1.954.314l-.837,5.215A.989.989,0,0,1,265.828,259.554Zm-8.89-3.615a1.015,1.015,0,0,1-.314-.05.992.992,0,0,1-.626-1.254l1.669-5.009a.991.991,0,1,1,1.88.626l-1.669,5.011A.992.992,0,0,1,256.938,255.94Zm10.567-6.812a1.071,1.071,0,0,1-.158-.013.988.988,0,0,1-.819-1.135l.837-5.215a.989.989,0,0,1,1.954.314l-.837,5.215A.993.993,0,0,1,267.5,249.128Zm-7.229-3.208a.99.99,0,0,1-.94-1.3l1.671-5.011a.991.991,0,1,1,1.88.628l-1.671,5.009A.987.987,0,0,1,260.275,245.92Zm8.906-7.221a.8.8,0,0,1-.158-.013.989.989,0,0,1-.821-1.135l.84-5.212a.989.989,0,1,1,1.954.314l-.837,5.215A.991.991,0,0,1,269.181,238.7Zm-5.563-2.8a.988.988,0,0,1-.94-1.3l1.669-5.011a.991.991,0,0,1,1.88.628l-1.671,5.009A.987.987,0,0,1,263.618,235.9Zm7.24-7.628a1.069,1.069,0,0,1-.158-.013.989.989,0,0,1-.821-1.135l.837-5.212a.991.991,0,0,1,1.956.314l-.84,5.212A.988.988,0,0,1,270.858,228.271Zm-3.9-2.389a1.013,1.013,0,0,1-.314-.05.991.991,0,0,1-.626-1.254l1.669-5.009a.991.991,0,0,1,1.88.626l-1.669,5.011A.992.992,0,0,1,266.958,225.882Zm5.574-8.037a1.094,1.094,0,0,1-.159-.013.989.989,0,0,1-.818-1.135l.2-1.22-.6-.1a1,1,0,0,1-1.167.436.99.99,0,0,1-.626-1.254l.47-1.413,4.188.7-.507,3.166A.991.991,0,0,1,272.532,217.845Z" transform="translate(-252.606 -213.145)" fill="#7986cb"/>
          </g>
          <g id="Group_31817" data-name="Group 31817" transform="translate(17.722 6.056)">
            <path id="Path_59927" data-name="Path 59927" d="M255.679,267.069a1,1,0,0,1-.314-.05.988.988,0,0,1-.626-1.252l1.669-5.011a.991.991,0,0,1,1.88.628l-1.669,5.009A.992.992,0,0,1,255.679,267.069Zm-9.389-6.875a.993.993,0,0,1-.879-1.442l2.411-4.7a.99.99,0,1,1,1.761.9l-2.411,4.7A.987.987,0,0,1,246.29,260.193Zm12.726-3.142a1.067,1.067,0,0,1-.312-.05.993.993,0,0,1-.628-1.254l1.669-5.011a.991.991,0,1,1,1.88.628l-1.669,5.009A1,1,0,0,1,259.016,257.051Zm-7.905-6.258a.959.959,0,0,1-.452-.111.987.987,0,0,1-.428-1.331l2.408-4.7a.99.99,0,0,1,1.761.9l-2.408,4.7A.99.99,0,0,1,251.111,250.793Zm11.243-3.762a1.067,1.067,0,0,1-.312-.05.993.993,0,0,1-.628-1.254l1.671-5.009a.991.991,0,1,1,1.88.626l-1.671,5.009A.986.986,0,0,1,262.354,247.031Zm-6.424-5.637a.988.988,0,0,1-.879-1.442l2.408-4.7a.99.99,0,0,1,1.761.9l-2.408,4.7A.99.99,0,0,1,255.93,241.394Zm9.764-4.383a1.1,1.1,0,0,1-.314-.05.994.994,0,0,1-.626-1.254l1.669-5.009a.991.991,0,1,1,1.88.626l-1.669,5.009A.991.991,0,0,1,265.694,237.011ZM260.748,232a.99.99,0,0,1-.882-1.442l2.411-4.7a.989.989,0,0,1,1.761.9l-2.411,4.7A.983.983,0,0,1,260.748,232Zm8.283-5.006a1.069,1.069,0,0,1-.312-.05.993.993,0,0,1-.628-1.254l1.671-5.009a.989.989,0,1,1,1.877.626l-1.669,5.009A.991.991,0,0,1,269.031,226.991Zm-3.464-4.391a.959.959,0,0,1-.452-.111.986.986,0,0,1-.428-1.331l2.408-4.7a.99.99,0,1,1,1.761.9l-2.408,4.7A1,1,0,0,1,265.567,222.6Zm6.8-5.629a1.015,1.015,0,0,1-.314-.05.992.992,0,0,1-.626-1.254l.451-1.357-1.927-1.072a.989.989,0,1,1,.961-1.729l3.364,1.869-.969,2.918A.99.99,0,0,1,272.371,216.971Z" transform="translate(-245.302 -211.381)" fill="#7986cb"/>
          </g>
          <g id="Group_31818" data-name="Group 31818">
            <path id="Path_59928" data-name="Path 59928" d="M249.949,264.341a.99.99,0,0,1-.924-1.347l1.9-4.927a.991.991,0,0,1,1.848.713l-1.9,4.927A.987.987,0,0,1,249.949,264.341Zm3.8-9.854a.99.99,0,0,1-.924-1.347l1.9-4.927a.99.99,0,1,1,1.848.713l-1.9,4.927A.988.988,0,0,1,253.749,254.487Zm-14.171-.982a.989.989,0,0,1-.837-1.513l2.8-4.478a.99.99,0,1,1,1.679,1.051l-2.8,4.475A.99.99,0,0,1,239.578,253.505Zm17.973-8.872a.99.99,0,0,1-.924-1.347l1.9-4.927a.99.99,0,1,1,1.848.71l-1.9,4.927A1,1,0,0,1,257.551,244.633Zm-12.367-.079a1.006,1.006,0,0,1-.525-.151.992.992,0,0,1-.314-1.365l2.8-4.475a.99.99,0,0,1,1.679,1.048l-2.8,4.478A.992.992,0,0,1,245.183,244.554Zm5.6-8.953a.99.99,0,0,1-.837-1.516l2.8-4.475a.99.99,0,0,1,1.679,1.048l-2.8,4.475A1,1,0,0,1,250.784,235.6Zm10.567-.821a.99.99,0,0,1-.924-1.347l1.9-4.927a.99.99,0,1,1,1.848.71l-1.9,4.927A1,1,0,0,1,261.35,234.78Zm-4.964-8.132a.968.968,0,0,1-.523-.151.989.989,0,0,1-.314-1.365l2.8-4.475a.99.99,0,0,1,1.679,1.051l-2.8,4.475A.993.993,0,0,1,256.386,226.648Zm8.763-1.724a.991.991,0,0,1-.927-1.344l1.9-4.927a.99.99,0,1,1,1.848.71l-1.9,4.927A.993.993,0,0,1,265.15,224.923Zm-3.161-7.229a.967.967,0,0,1-.523-.151.99.99,0,0,1-.317-1.362l2.8-4.478a.99.99,0,0,1,1.679,1.048l-2.8,4.478A.986.986,0,0,1,261.989,217.694Zm6.96-2.624a.946.946,0,0,1-.356-.066.989.989,0,0,1-.568-1.278l.8-2.083-1.188-.716a.991.991,0,1,1,1.022-1.7l2.611,1.576-1.4,3.63A.99.99,0,0,1,268.949,215.07Z" transform="translate(-238.59 -209.087)" fill="#7986cb"/>
          </g>
        </g>
      </g>
    </g>
    <line id="Line_22" data-name="Line 22" y2="26" transform="translate(-799.5 2397)" fill="none" stroke="#7986cb" stroke-linecap="round" stroke-width="5"/>
  </g>
</svg>
