<svg xmlns="http://www.w3.org/2000/svg" width="146.286" height="146.286" viewBox="0 0 146.286 146.286"><g transform="translate(-3 -3)"><g transform="translate(3 3)"><g transform="translate(20.094 35.366)"><circle cx="50.5" cy="50.5" r="50.5" transform="translate(-0.095 -0.08)" fill="#57b7eb"/><path d="M81.608,90.847a50.39,50.39,0,0,1-46.037-71,50.413,50.413,0,1,0,71.9,63.811,50.138,50.138,0,0,1-25.86,7.186Z" transform="translate(-10.904 -12.716)" fill="#4891d3"/><path d="M60.458,22.265,34,61.951l25.222,7.567L49.133,77.084V89.7L39.044,99.784l1.248,8.114A50.35,50.35,0,0,0,60.47,22.265Z" transform="translate(24.093 -9.041)" fill="#c4f236"/><path d="M11,65.262A50.443,50.443,0,0,0,50.7,114.53l-4.386-19L66.488,82.917,48.833,70.306,58.921,57.7,46.31,45.085,42.779,18.433A50.426,50.426,0,0,0,11,65.262Z" transform="translate(-10.917 -14.874)" fill="#c4f236"/><g transform="translate(0.081 7.133)"><path d="M69.444,45.16a50.554,50.554,0,0,1-32.208,27.9L36,64.934,46.089,54.845v-2.6A49.6,49.6,0,0,0,69.444,45.16Z" transform="translate(27.056 18.676)" fill="#a1d51c"/><path d="M46.312,93.371,50.7,112.363A50.39,50.39,0,0,1,35.567,19.85,50.413,50.413,0,0,0,58.973,85.477Z" transform="translate(-10.999 -19.85)" fill="#a1d51c"/></g></g><g transform="translate(60.432)"><path d="M66.222,3l5.735,8.865,9.852-3.8-.567,10.543,10.2,2.716-6.659,8.2,6.659,8.195-10.2,2.716.567,10.543-9.852-3.8-5.735,8.863-5.735-8.863-9.852,3.8L51.2,40.431,41,37.715l6.659-8.195L41,21.324l10.2-2.716L50.635,8.065l9.852,3.8Z" transform="translate(-5.59 -3)" fill="#f9e109"/><path d="M57.162,35.391l-6.4,2.469.373-6.853L44.5,29.242l4.328-5.324L44.5,18.591l6.633-1.766-.373-6.853,6.4,2.469,3.73-5.761,3.73,5.761,6.4-2.469-.373,6.853,6.633,1.766-4.328,5.327,4.328,5.324-6.633,1.766.373,6.853-6.4-2.469-3.73,5.761Z" transform="translate(-0.261 2.603)" fill="#fcbc04"/><circle cx="10" cy="10" r="10" transform="translate(50.568 17.286)" fill="#f8664f"/><path d="M42.147,21.088a15.237,15.237,0,0,1,2.578.235,20.165,20.165,0,0,1,35.2,0A15,15,0,0,1,95.64,28.728c.252-.015.482-.073.734-.073a11.35,11.35,0,1,1-6.4,20.717A15.067,15.067,0,0,1,73.21,48.149a20.087,20.087,0,0,1-21.771,0,15.133,15.133,0,1,1-9.292-27.06Z" transform="translate(-26.914 9.178)" fill="#d0d8da"/><path d="M103.986,34.068a11.309,11.309,0,0,1-6.4-1.982,15.067,15.067,0,0,1-16.762-1.223,20.087,20.087,0,0,1-21.771,0A15.115,15.115,0,0,1,34.977,15.729,15.133,15.133,0,1,0,51.485,40.951a20.087,20.087,0,0,0,21.771,0,15.067,15.067,0,0,0,16.762,1.223,11.309,11.309,0,0,0,17.693-8.782,11.274,11.274,0,0,1-3.725.676Z" transform="translate(-26.96 16.376)" fill="#93999a"/><path d="M52.655,42.177,57.7,22,35,49.744l12.611,2.522L42.567,72.443,65.266,44.7Z" transform="translate(-14.723 25.921)" fill="#f9e109"/><path d="M55.177,47.222H45.089L57.7,22,35,49.744l12.611,2.522L42.567,72.443Z" transform="translate(-14.723 25.921)" fill="#fcbc04"/></g><g transform="translate(0 95.648)"><g transform="translate(0 0)"><rect width="40" height="9" rx="2" transform="translate(5 10.637)" fill="#d0d8da"/><rect width="51" height="11" rx="2" transform="translate(0 -0.363)" fill="#d0d8da"/><rect width="30" height="11" rx="2" transform="translate(10 19.637)" fill="#d0d8da"/><rect width="20" height="10" rx="2" transform="translate(13 30.637)" fill="#d0d8da"/><rect width="15" height="10" rx="2" transform="translate(10 40.637)" fill="#d0d8da"/></g><g transform="translate(0 0.194)"><path d="M10.044,45a5.044,5.044,0,0,0,0,10.089H40.31a5.044,5.044,0,0,0,5.044-5.044H15.089A5.044,5.044,0,0,1,10.044,45Z" transform="translate(0.044 -34.911)" fill="#93999a"/><path d="M8.044,41a5.044,5.044,0,1,0,0,10.089H48.4a5.044,5.044,0,0,0,5.044-5.044H13.089A5.044,5.044,0,0,1,8.044,41Z" transform="translate(-3 -41)" fill="#93999a"/><path d="M12.044,49a5.044,5.044,0,1,0,0,10.089H32.222a5.044,5.044,0,0,0,5.044-5.044H17.089A5.044,5.044,0,0,1,12.044,49Z" transform="translate(3.089 -28.823)" fill="#93999a"/><path d="M13.044,53a5.044,5.044,0,0,0,0,10.089H23.133a5.044,5.044,0,0,0,5.044-5.044H18.089A5.044,5.044,0,0,1,13.044,53Z" transform="translate(4.611 -22.734)" fill="#93999a"/><path d="M12.044,57a5.044,5.044,0,1,0,0,10.089h5.044a5.044,5.044,0,0,0,5.044-5.044H17.089A5.044,5.044,0,0,1,12.044,57Z" transform="translate(3.089 -16.645)" fill="#93999a"/></g></g><g transform="translate(0.001 17.657)"><path d="M45.876,20.088a7.655,7.655,0,0,0-1.327.134,9.877,9.877,0,0,0-11.1-4.88,12.588,12.588,0,0,0-22.634,4.772c-.086,0-.166-.025-.252-.025a7.567,7.567,0,1,0,5.405,12.863,12.46,12.46,0,0,0,13.892.325,9.963,9.963,0,0,0,11.383.333,7.476,7.476,0,0,0,4.631,1.612,7.567,7.567,0,1,0,0-15.133Z" transform="translate(-3 -10.001)" fill="#d0d8da"/><path d="M50.906,21.3a7.476,7.476,0,0,1-4.631-1.624,9.963,9.963,0,0,1-11.383-.333A12.46,12.46,0,0,1,21,19.013,7.536,7.536,0,0,1,8.074,14.178a7.551,7.551,0,1,0,7.882,12.414,12.46,12.46,0,0,0,13.892.325,9.963,9.963,0,0,0,11.383.333,7.476,7.476,0,0,0,4.631,1.612A7.566,7.566,0,0,0,53.428,21.3c0-.154-.035-.3-.045-.449a7.471,7.471,0,0,1-2.477.449Z" transform="translate(-2.986 -3.642)" fill="#93999a"/><g transform="translate(7.551 30.263)"><g transform="translate(58.024 52.967)"><path d="M81.355,63.177H43.522a2.522,2.522,0,0,1,0-5.044H81.355a5.044,5.044,0,0,0,0-10.089,2.522,2.522,0,1,1,0-5.044,10.089,10.089,0,1,1,0,20.177Z" transform="translate(-10.734 -43)" fill="#84d2f4"/><path d="M58.177,62.044H40.522a2.522,2.522,0,1,1,0-5.044H58.177a2.522,2.522,0,0,1,0,5.044Z" transform="translate(-15.3 -21.69)" fill="#84d2f4"/><path d="M62.177,50.044H44.522a2.522,2.522,0,0,1,0-5.044H62.177a2.522,2.522,0,0,1,0,5.044Z" transform="translate(-9.212 -39.956)" fill="#84d2f4"/><path d="M62.655,73.177a2.522,2.522,0,1,1,0-5.044,5.044,5.044,0,0,0,0-10.089H47.522a2.522,2.522,0,1,1,0-5.044H62.655a10.089,10.089,0,0,1,0,20.177Z" transform="translate(-4.645 -27.778)" fill="#84d2f4"/><path d="M36.567,54.044H31.522a2.522,2.522,0,1,1,0-5.044h5.044a2.522,2.522,0,1,1,0,5.044Z" transform="translate(-29 -33.867)" fill="#84d2f4"/><path d="M40.567,50.044H35.522a2.522,2.522,0,1,1,0-5.044h5.044a2.522,2.522,0,1,1,0,5.044Z" transform="translate(-22.911 -39.956)" fill="#84d2f4"/></g><path d="M11.053,32.09a2.522,2.522,0,0,1-2.27-1.395L6.261,25.651A2.523,2.523,0,1,1,10.775,23.4L13.3,28.44a2.522,2.522,0,0,1-2.245,3.65Z" transform="translate(-5.994 -21.999)" fill="#84d2f4"/><path d="M15.053,32.09a2.522,2.522,0,0,1-2.27-1.395l-2.522-5.044A2.523,2.523,0,1,1,14.775,23.4L17.3,28.44a2.522,2.522,0,0,1-2.245,3.65Z" transform="translate(0.094 -21.999)" fill="#84d2f4"/><path d="M19.053,32.09a2.522,2.522,0,0,1-2.27-1.395l-2.522-5.044A2.523,2.523,0,1,1,18.775,23.4L21.3,28.44a2.522,2.522,0,0,1-2.245,3.65Z" transform="translate(6.183 -21.999)" fill="#84d2f4"/><path d="M23.053,32.09a2.522,2.522,0,0,1-2.27-1.395l-2.522-5.044A2.523,2.523,0,0,1,22.775,23.4L25.3,28.44a2.522,2.522,0,0,1-2.245,3.65Z" transform="translate(12.272 -21.999)" fill="#84d2f4"/><path d="M13.053,37.09a2.522,2.522,0,0,1-2.27-1.395L8.261,30.651A2.523,2.523,0,0,1,12.775,28.4L15.3,33.44a2.522,2.522,0,0,1-2.245,3.65Z" transform="translate(-2.95 -14.389)" fill="#84d2f4"/><path d="M17.053,37.09a2.522,2.522,0,0,1-2.27-1.395l-2.522-5.044A2.523,2.523,0,1,1,16.775,28.4L19.3,33.44a2.522,2.522,0,0,1-2.245,3.65Z" transform="translate(3.139 -14.389)" fill="#84d2f4"/><path d="M21.053,37.09a2.522,2.522,0,0,1-2.27-1.395l-2.522-5.044A2.523,2.523,0,0,1,20.775,28.4L23.3,33.44a2.522,2.522,0,0,1-2.245,3.65Z" transform="translate(9.227 -14.389)" fill="#84d2f4"/><path d="M25.053,37.09a2.522,2.522,0,0,1-2.27-1.395l-2.522-5.044A2.523,2.523,0,1,1,24.775,28.4L27.3,33.44a2.522,2.522,0,0,1-2.245,3.65Z" transform="translate(15.316 -14.389)" fill="#84d2f4"/><path d="M15.053,43.09a2.522,2.522,0,0,1-2.27-1.395l-2.522-5.044A2.523,2.523,0,0,1,14.775,34.4L17.3,39.44a2.522,2.522,0,0,1-2.245,3.65Z" transform="translate(0.094 -5.256)" fill="#84d2f4"/><path d="M19.053,43.09a2.522,2.522,0,0,1-2.27-1.395l-2.522-5.044A2.523,2.523,0,0,1,18.775,34.4L21.3,39.44a2.522,2.522,0,0,1-2.245,3.65Z" transform="translate(6.183 -5.256)" fill="#84d2f4"/><path d="M23.053,43.09a2.522,2.522,0,0,1-2.27-1.395l-2.522-5.044A2.523,2.523,0,1,1,22.775,34.4L25.3,39.44a2.522,2.522,0,0,1-2.245,3.65Z" transform="translate(12.272 -5.256)" fill="#84d2f4"/><path d="M26.053,42.09a2.522,2.522,0,0,1-2.27-1.395l-2.522-5.044A2.523,2.523,0,0,1,25.775,33.4L28.3,38.44a2.522,2.522,0,0,1-2.245,3.65Z" transform="translate(16.838 -6.778)" fill="#84d2f4"/></g></g></g></g></svg>