<svg xmlns="http://www.w3.org/2000/svg" width="110" height="73.244" viewBox="0 0 110 73.244"><g transform="translate(-587.042 -642.757)"><rect width="110" height="73" transform="translate(587.042 643)" fill="none"/><path d="M629.151,654.251A31.045,31.045,0,0,0,627.7,660.4a10.329,10.329,0,0,0-.1,3.07,2.385,2.385,0,0,0,2.134,1.647,13.417,13.417,0,0,0,11.405-3.714l-.1.269c-.154-1.9-2.752-2.624-4.43-1.921-1.76.723-2.65,2.792-2.977,4.716a48.871,48.871,0,0,0,.081,12.264,12.1,12.1,0,0,0,1.874,5.6,5.213,5.213,0,0,0,4.98,2.1,9.611,9.611,0,0,0,5.171-2.608,12.662,12.662,0,0,0,3.226-4.943,18.428,18.428,0,0,0-6.745-21.264,11.441,11.441,0,0,0-5.429-2,4.5,4.5,0,0,0-4.536,2.307,36.177,36.177,0,0,0-2.037,5.679,58.742,58.742,0,0,0-1.472,5.951,26.613,26.613,0,0,0,.13,11.947,16.408,16.408,0,0,0,6.753,9.377,17.06,17.06,0,0,0,11.151,2.978,16.4,16.4,0,0,0,10.207-5.208,16.108,16.108,0,0,0,4.469-10.505,19.18,19.18,0,0,0-3.338-11.077c-4.422-6.7-11.393-11.386-18.716-14.89a68.515,68.515,0,0,0-11.383-4.288,14.713,14.713,0,0,0-5.659-.481,10.31,10.31,0,0,0-4.954,2.255c-2.9,2.428-4.855,6.042-6.215,9.774a41.572,41.572,0,0,0-2.5,11.72,24.476,24.476,0,0,0,1.856,11.491,18.6,18.6,0,0,0,7.583,8.459c6.739,4.02,15.2,4.717,23.15,4.018a30.639,30.639,0,0,0,11.329-3.068,16.856,16.856,0,0,0,7.674-8.1,27.9,27.9,0,0,0-7.7-31.823c-1.491-1.257-3.11-2.414-4.394-2.483-1.28-.137-2.771.718-4.123,1.993a51.98,51.98,0,0,0-12.267,20.286,52.863,52.863,0,0,0-2.218,23.649,29.1,29.1,0,0,0,3.431,11.015,12.453,12.453,0,0,0,8.335,6.231,56.764,56.764,0,0,0,11.827.8,29.8,29.8,0,0,0,11.276-2.2,16.24,16.24,0,0,0,7.956-7.126c1.612-3.056,1.542-6.814.728-10.639a36.585,36.585,0,0,0-11.515-19.875,33.446,33.446,0,0,0-4.657-3.5,8.568,8.568,0,0,0-2.179-1.126c-.638-.149-.738-.114-1.065.074a7.226,7.226,0,0,0-1.508,1.721c-.6.8-1.154,1.619-1.711,2.443a57.192,57.192,0,0,0-3.013,5.154,56.582,56.582,0,0,0-4.356,11.1,54.927,54.927,0,0,0-1.286,5.826,11.872,11.872,0,0,0-.04,5.114,4.244,4.244,0,0,0,2.85,2.79,28.751,28.751,0,0,0,5.507,1.345,26.762,26.762,0,0,0,11.3-.367,11.874,11.874,0,0,0,7.815-6.483,16.455,16.455,0,0,0,.62-10.732,22.875,22.875,0,0,0-15.238-15.619c-3.617-1.119-7.535-1.244-10.466.609-2.987,1.817-5.01,5.271-6.332,8.947-1.273,3.707-2.385,7.751-2.146,11.392a8.794,8.794,0,0,0,1.722,4.856,10.4,10.4,0,0,0,4.327,3.1,38.63,38.63,0,0,0,11.652,2.208,47.033,47.033,0,0,0,11.977-.79c3.786-.8,7.29-3.017,7.92-6.673A4.841,4.841,0,0,0,672,688.551a10.466,10.466,0,0,0-5.142-2.069,32.143,32.143,0,0,0-28.018,8.276c-1.407,1.435-2.994,2.887-3.6,4.71a3.359,3.359,0,0,0,.214,2.69,4.15,4.15,0,0,0,2.185,1.751,13.625,13.625,0,0,0,5.992.614.232.232,0,0,1,.256.206h0a.239.239,0,0,1-.2.256,14.154,14.154,0,0,1-6.283-.456,4.871,4.871,0,0,1-2.613-1.991,4.171,4.171,0,0,1-.376-3.318c.676-2.194,2.279-3.678,3.676-5.221a33.375,33.375,0,0,1,4.85-4.051,33.874,33.874,0,0,1,24.281-5.5,12.061,12.061,0,0,1,6.264,2.439,7.16,7.16,0,0,1,2.154,6.717,9.685,9.685,0,0,1-3.549,5.958,15.705,15.705,0,0,1-6.074,2.854,49.531,49.531,0,0,1-12.733,1.133,41.393,41.393,0,0,1-12.715-2.17,13.63,13.63,0,0,1-5.72-3.981,12.184,12.184,0,0,1-2.562-6.614,23.08,23.08,0,0,1,.448-6.678,46.649,46.649,0,0,1,1.7-6.241c1.424-4.037,3.632-8.313,7.768-10.949a13.851,13.851,0,0,1,6.808-2.057,20.654,20.654,0,0,1,6.764.89A26.936,26.936,0,0,1,674,684.055a20.715,20.715,0,0,1-.7,13.623,16.4,16.4,0,0,1-10.536,9.063,29.834,29.834,0,0,1-13.334.581,32.439,32.439,0,0,1-6.537-1.633,10.553,10.553,0,0,1-3.363-2.113,8.368,8.368,0,0,1-2.178-3.642,16.069,16.069,0,0,1-.091-7.2,59.323,59.323,0,0,1,1.394-6.3,62.032,62.032,0,0,1,7.973-17.56c.6-.894,1.207-1.781,1.854-2.646a10.857,10.857,0,0,1,2.675-2.832,5.53,5.53,0,0,1,2.479-.9,6.311,6.311,0,0,1,2.413.242,12.69,12.69,0,0,1,3.354,1.654,37.978,37.978,0,0,1,5.27,3.958,41.152,41.152,0,0,1,12.961,22.416,26.987,26.987,0,0,1,.633,6.729,16.3,16.3,0,0,1-1.8,6.91,20.711,20.711,0,0,1-10.225,9.128,34.2,34.2,0,0,1-12.979,2.464c-2.155.04-4.281-.044-6.382-.169a37.1,37.1,0,0,1-6.529-.852,16.57,16.57,0,0,1-6.387-2.978,18.156,18.156,0,0,1-4.538-5.3,33.034,33.034,0,0,1-3.856-12.577,56.741,56.741,0,0,1,2.589-25.4,55.8,55.8,0,0,1,13.433-21.745,12.848,12.848,0,0,1,2.939-2.09,7.388,7.388,0,0,1,3.965-.809,8.486,8.486,0,0,1,3.667,1.321,24.313,24.313,0,0,1,2.7,2.023,30.915,30.915,0,0,1,7.9,10.42,30.494,30.494,0,0,1,.493,25.514,20.172,20.172,0,0,1-9.168,9.549,33.743,33.743,0,0,1-12.529,3.338,53.623,53.623,0,0,1-12.772-.349,32.934,32.934,0,0,1-12.215-4.259,21.542,21.542,0,0,1-8.666-9.82A27.271,27.271,0,0,1,605.9,669a44.318,44.318,0,0,1,2.744-12.492c1.5-3.981,3.591-7.957,7.1-10.874a12.957,12.957,0,0,1,6.246-2.773,17.239,17.239,0,0,1,6.648.578,70.785,70.785,0,0,1,11.819,4.538c7.493,3.661,14.842,8.573,19.562,15.869a21.371,21.371,0,0,1,3.582,12.387,18.3,18.3,0,0,1-29.013,14.153,18.2,18.2,0,0,1-7.372-10.429,28.234,28.234,0,0,1-.046-12.7,59.237,59.237,0,0,1,1.566-6.1,36.345,36.345,0,0,1,2.224-5.974,5.771,5.771,0,0,1,2.523-2.41,6.673,6.673,0,0,1,3.386-.579,12.807,12.807,0,0,1,6.095,2.274,19.671,19.671,0,0,1,7.059,22.825c-1.483,3.965-4.9,7.54-9.345,8.162a6.237,6.237,0,0,1-5.885-2.546,12.948,12.948,0,0,1-2-6.069,49.726,49.726,0,0,1,.037-12.526c.385-2.03,1.295-4.355,3.5-5.271a4.752,4.752,0,0,1,3.3,0,3.059,3.059,0,0,1,2.09,2.576.358.358,0,0,1-.1.272,14.03,14.03,0,0,1-12.008,3.79,2.948,2.948,0,0,1-2.555-2.085,10.646,10.646,0,0,1,.122-3.27,31.5,31.5,0,0,1,1.532-6.231.233.233,0,0,1,.44.153Z" fill="#7986cb"/></g></svg>