<svg xmlns="http://www.w3.org/2000/svg" width="110" height="63.084" viewBox="0 0 110 63.084"><g transform="translate(-586.854 -250.565)"><path d="M661.581,255.2c-4.565-5.025-12.953-5.035-18.094-.981-5.328,4.04-7.9,10.888-7.871,17.471a39.927,39.927,0,0,0,1.266,9.893c.776,3.247,1.985,6.416,2.782,9.8.8,3.335,1.12,7.115-.31,10.561a17.308,17.308,0,0,1-7.175,7.837,36.7,36.7,0,0,1-4.648,2.426,12.334,12.334,0,0,1-5.39,1.436,6.391,6.391,0,0,1-4.949-3.358,16,16,0,0,1-1.845-5.171,25.56,25.56,0,0,1,4.775-20.316,19.016,19.016,0,0,1,8.673-6.594c3.8-1.253,7.647-.267,10.876.625l19.61,5.469c6.513,1.821,13,3.723,19.316,3.12,6.09-.517,12.35-4.208,13.808-9.807,1.546-5.536-1.958-11.93-6.969-15.011-5.171-3.226-11.837-3.712-18.2-2.906-12.972,1.678-25.219,7.836-38.725,11.308a59.254,59.254,0,0,1-21.127,1.646c-7.106-.772-14.4-3.5-19.742-8.766l-.06-.058a2.435,2.435,0,0,1,2.965-3.82c13.723,8.258,25.342,18.861,38.257,27.313a84.7,84.7,0,0,0,20.735,9.978,48.767,48.767,0,0,0,22.86,1.888.259.259,0,0,1,.108.506c-7.647,2.039-15.844,1.577-23.549-.294a83.486,83.486,0,0,1-21.909-9.223c-13.747-7.945-25.546-18.5-38.945-25.945l2.9-3.88c4.542,4.2,10.659,6.39,16.973,7.084a55.062,55.062,0,0,0,19.224-1.65c12.8-3.094,25.329-9.266,39.486-10.848,6.975-.732,14.689-.192,21.125,3.951a20.718,20.718,0,0,1,7.372,8.471,15.407,15.407,0,0,1-5.811,20.331,22.661,22.661,0,0,1-10.45,3.463c-7.33.556-14.147-1.663-20.6-3.542l-19.52-5.752c-3.2-.951-6.329-1.692-9.114-.79a16.21,16.21,0,0,0-7.338,5.491,22.987,22.987,0,0,0-4.534,18.086,13.627,13.627,0,0,0,1.453,4.407,4.025,4.025,0,0,0,3.028,2.269,10.592,10.592,0,0,0,4.352-1.162,34.564,34.564,0,0,0,4.413-2.19,15.282,15.282,0,0,0,6.51-6.77c1.271-2.876,1.1-6.223.4-9.442-.69-3.242-1.843-6.458-2.581-9.829a41.4,41.4,0,0,1-1.106-10.267c.109-6.868,2.936-14.032,8.645-18.183,5.569-4.187,14.336-3.985,19.031,1.383a.255.255,0,0,1-.021.36l0,0A.266.266,0,0,1,661.581,255.2Z" fill="#7986cb"/></g></svg>