<svg xmlns="http://www.w3.org/2000/svg" width="50" height="40" viewBox="0 0 50 40"><g transform="translate(-498.157 -483)"><rect width="50" height="40" transform="translate(498.157 483)" fill="none"/><path d="M525.853,509.247h-5.388a16.905,16.905,0,0,1-5.058,12.544h15.5A16.906,16.906,0,0,1,525.853,509.247Z" fill="#426175"/><path d="M531.968,522.4h-17.62a.768.768,0,0,1-.768-.768,2.448,2.448,0,0,1,2.448-2.447H530.29a2.448,2.448,0,0,1,2.448,2.447.768.768,0,0,1-.768.768Z" fill="#cdd6df"/><path d="M541.582,514.007H504.733a1.552,1.552,0,0,1-1.553-1.551h0v-27.3a1.553,1.553,0,0,1,1.553-1.553h36.849a1.553,1.553,0,0,1,1.553,1.553h0v27.3a1.552,1.552,0,0,1-1.552,1.552Z" fill="#426175"/><path d="M541.582,483.6h-4.318a1.554,1.554,0,0,1,1.552,1.553v27.3a1.552,1.552,0,0,1-1.552,1.552h4.318a1.552,1.552,0,0,0,1.553-1.551h0v-27.3a1.553,1.553,0,0,0-1.553-1.553Z" fill="#2c4456"/><path d="M505.431,485.934h35.453v21.182H505.431Z" fill="#f2f2f2"/><path d="M503.18,509.528v2.927A1.552,1.552,0,0,0,504.733,514h36.848a1.551,1.551,0,0,0,1.553-1.551h0v-2.927Z" fill="#cdd6df"/><path d="M541.582,514.007a1.552,1.552,0,0,0,1.553-1.551h0v-2.927h-4.318v2.927a1.552,1.552,0,0,1-1.552,1.552h4.317Z" fill="#abb2ba"/><path d="M527.758,491.156c-1.435,1.317-4.3,1.646-5.807,1.727a1.284,1.284,0,0,0-1.19,1.017l-2.014,9.564,9.565-2.013a1.284,1.284,0,0,0,1.016-1.19c.081-1.508.412-4.372,1.728-5.807Zm-2.107,7.538a1.508,1.508,0,1,1,0-2.133,1.508,1.508,0,0,1,0,2.133l0,0Z" fill="#46d1c0"/><path d="M530.078,488.82l-2.32,2.336,3.3,3.3,2.336-2.319Z" fill="#426175"/><path d="M511.19,491.872h-2.352a.472.472,0,0,1-.472-.472v-2.351a.472.472,0,0,1,.472-.472h2.352a.472.472,0,0,1,.472.472V491.4A.472.472,0,0,1,511.19,491.872Z" fill="#fd715c"/><path d="M511.19,497.827h-2.352a.472.472,0,0,1-.472-.472V495a.472.472,0,0,1,.472-.472h2.352a.472.472,0,0,1,.472.472v2.353A.472.472,0,0,1,511.19,497.827Z" fill="#fed066"/><path d="M511.19,503.707h-2.352a.472.472,0,0,1-.472-.472v-2.352a.472.472,0,0,1,.472-.472h2.352a.472.472,0,0,1,.472.472v2.352A.472.472,0,0,1,511.19,503.707Z" fill="#88dbfd"/><path d="M541.582,483H504.733a2.158,2.158,0,0,0-2.156,2.156v27.3a2.157,2.157,0,0,0,2.156,2.155h14.339a16.686,16.686,0,0,1-1.813,3.967h-1.232a3.054,3.054,0,0,0-3.051,3.05A1.372,1.372,0,0,0,514.347,523h17.621a1.372,1.372,0,0,0,1.371-1.371,3.054,3.054,0,0,0-3.051-3.05h-1.23a16.686,16.686,0,0,1-1.813-3.967h14.337a2.157,2.157,0,0,0,2.155-2.155v-27.3A2.158,2.158,0,0,0,541.582,483Zm-36.849,1.206h36.849a.951.951,0,0,1,.949.95v23.769H503.783V485.156A.952.952,0,0,1,504.733,484.206Zm27.4,37.424a.166.166,0,0,1-.166.166h-17.62a.166.166,0,0,1-.166-.166,1.846,1.846,0,0,1,1.845-1.844h14.262A1.846,1.846,0,0,1,532.133,521.63Zm-4.482-3.051h-8.987a17.943,17.943,0,0,0,1.665-3.967h5.654a17.962,17.962,0,0,0,1.668,3.968Zm13.931-5.176H504.733a.951.951,0,0,1-.95-.949v-2.323h38.749v2.326a.95.95,0,0,1-.949.949Z"/><path d="M505.431,507.722h35.453a.6.6,0,0,0,.6-.6h0v-9.79a.6.6,0,1,0-1.206,0v9.187H506.034v-9.183a.6.6,0,1,0-1.206,0h0v9.786a.6.6,0,0,0,.6.6Z"/><path d="M505.431,495.519a.6.6,0,0,0,.6-.6h0v-8.378h34.247v8.378a.6.6,0,0,0,1.206,0v-8.981a.6.6,0,0,0-.6-.6H505.431a.6.6,0,0,0-.6.6v8.981A.6.6,0,0,0,505.431,495.519Z"/><path d="M512.265,489.049a1.076,1.076,0,0,0-1.075-1.074h-2.352a1.076,1.076,0,0,0-1.075,1.074V491.4a1.076,1.076,0,0,0,1.075,1.074h2.352a1.076,1.076,0,0,0,1.075-1.074Zm-1.206,2.22h-2.09v-2.088h2.09Z"/><path d="M512.265,495.007a1.076,1.076,0,0,0-1.075-1.075h-2.352a1.076,1.076,0,0,0-1.075,1.075v2.352a1.077,1.077,0,0,0,1.075,1.075h2.352a1.077,1.077,0,0,0,1.075-1.075Zm-1.206,2.217h-2.09v-2.083h2.09Z"/><path d="M511.19,499.808h-2.352a1.077,1.077,0,0,0-1.075,1.075v2.352a1.076,1.076,0,0,0,1.075,1.075h2.352a1.076,1.076,0,0,0,1.075-1.075v-2.352A1.077,1.077,0,0,0,511.19,499.808Zm-.131,3.3h-2.09v-2.088h2.09Z"/><path d="M518.146,503.475v.034h0v.017h0v.016h0a.6.6,0,0,0,.133.3h0l.011.013h0l.01.011h0l.013.013.011.011.008.007h0a.592.592,0,0,0,.372.154h.112l.054-.01,9.556-2.011a1.89,1.89,0,0,0,1.494-1.746c.192-3.54,1.148-4.966,1.561-5.421l2.326-2.31a.6.6,0,0,0,0-.853h0l-3.315-3.315a.607.607,0,0,0-.427-.177h0a.6.6,0,0,0-.426.178l-2.309,2.324c-.455.413-1.88,1.371-5.423,1.563a1.889,1.889,0,0,0-1.737,1.508l-2.012,9.557c0,.021-.008.042-.011.063h0v.032h0v.046Zm11.934-13.8,2.46,2.46-1.48,1.47-2.451-2.451Zm-8.728,4.35a.681.681,0,0,1,.631-.539,12.071,12.071,0,0,0,5.727-1.525l2.542,2.541a12.051,12.051,0,0,0-1.525,5.728.682.682,0,0,1-.538.631l-7.58,1.6,2.976-2.975a2.1,2.1,0,1,0-.853-.852l-2.976,2.976Zm2.328,3.6a.9.9,0,1,1,.265.64A.889.889,0,0,1,523.68,497.628Z"/></g></svg>