<svg xmlns="http://www.w3.org/2000/svg" width="50" height="40" viewBox="0 0 50 40"><g transform="translate(-581.828 -472.161)"><rect width="50" height="40" transform="translate(581.828 472.161)" fill="none"/><path d="M589.238,511.518a3.691,3.691,0,0,1-3.691-3.686V473.888a1.085,1.085,0,0,1,1.085-1.085h2.52a1.085,1.085,0,0,1,1.085,1.085h0v32.17a.77.77,0,0,0,.77.77h32.182a1.085,1.085,0,0,1,1.085,1.085v2.519a1.084,1.084,0,0,1-1.085,1.085H589.238Z" fill="#daeaef"/><path d="M627.559,480.574l-6.9-4.5a2.3,2.3,0,0,0-.8-.348L614.6,474.54h-8l-5.259,1.185a2.321,2.321,0,0,0-.8.349l-6.933,4.529a1.205,1.205,0,0,0-.422,1.543l2.155,4.372a1.206,1.206,0,0,0,1.615.549,1.088,1.088,0,0,0,.133-.077s1.538-1,2.545-1.62a.557.557,0,0,1,.851.473v16.519a1.423,1.423,0,0,0,1.424,1.424h17.364a1.424,1.424,0,0,0,1.424-1.424V485.837a.557.557,0,0,1,.845-.475c1.01.623,2.558,1.622,2.558,1.622a1.207,1.207,0,0,0,1.752-.479l2.133-4.392A1.208,1.208,0,0,0,627.559,480.574Z" fill="#97e4f9"/><path d="M615.127,485.4v14.1a2.419,2.419,0,0,1-2.42,2.42H600.482v.439a1.424,1.424,0,0,0,1.424,1.424H619.27a1.425,1.425,0,0,0,1.424-1.424h0V485.836a.557.557,0,0,1,.845-.475l-2.9-1.876a2.279,2.279,0,0,0-3.515,1.912Z" fill="#62d8f9"/><path d="M605.017,474.994l-.282,1.565a1.773,1.773,0,0,0,.9,1.873l4.094,2.212-3.021-7.243-1.154.772A1.261,1.261,0,0,0,605.017,474.994Z" fill="#f1faff"/><path d="M616.559,475.43l.047,1.289a1.771,1.771,0,0,1-.927,1.624l-4.251,2.3,3.037-7.243L616,474.435A1.255,1.255,0,0,1,616.559,475.43Z" fill="#f1faff"/><path d="M606.709,473.4l3.021,7.243a1.1,1.1,0,0,0,1.7,0l3.037-7.243Z" fill="#dcf5ff"/><path d="M623.189,506.186H591.006a.128.128,0,0,1-.128-.127V473.888a1.728,1.728,0,0,0-1.726-1.727h-2.52a1.729,1.729,0,0,0-1.727,1.727v33.936a4.338,4.338,0,0,0,4.332,4.331h26.094a.642.642,0,1,0,0-1.284H589.237a3.03,3.03,0,0,1-1.705-.522l2.977-2.976a1.42,1.42,0,0,0,.5.092H596.5v.5a.642.642,0,0,0,1.284,0v-.5h3.635v.828a.642.642,0,1,0,1.284,0v-.828h3.639v.5a.642.642,0,0,0,1.284,0v-.5h3.639v.827a.643.643,0,0,0,1.285,0v-.827h3.638v.5a.642.642,0,0,0,1.285,0v-.5h5.718a.442.442,0,0,1,.443.442v2.526a.444.444,0,0,1-.443.443h-4.859a.643.643,0,1,0,0,1.285h4.86a1.73,1.73,0,0,0,1.728-1.728v-2.519a1.73,1.73,0,0,0-1.728-1.728Zm-37-32.3a.444.444,0,0,1,.442-.443h2.52a.445.445,0,0,1,.443.443v2.8h-.951a.642.642,0,0,0,0,1.285h.951v3.3h-.6a.642.642,0,1,0,0,1.285h.6v3.3h-.951a.643.643,0,0,0,0,1.285h.951v3.3h-.6a.643.643,0,1,0,0,1.285h.6v3.3h-.951a.643.643,0,0,0,0,1.285h.951v3.3h-.6a.643.643,0,1,0,0,1.285h.6v5.176a1.393,1.393,0,0,0,.05.369l-3,3a3.024,3.024,0,0,1-.454-1.6Z"/><path d="M627.911,480.037l-6.9-4.5A2.944,2.944,0,0,0,620,475.1l-3.14-.708a1.876,1.876,0,0,0-.494-.487l-1.54-1.037a.655.655,0,0,0-.36-.105h-7.756a.658.658,0,0,0-.355.105l-1.154.773a1.9,1.9,0,0,0-.627.7l-3.38.761a2.932,2.932,0,0,0-1.016.44l-6.927,4.525a1.85,1.85,0,0,0-.648,2.365l2.156,4.372a1.848,1.848,0,0,0,2.674.728c.014-.009,1.415-.917,2.4-1.533v2.8a.642.642,0,0,0,1.285,0V485.84a1.2,1.2,0,0,0-1.832-1.02c-1,.621-2.536,1.618-2.561,1.632a.564.564,0,0,1-.781-.157.593.593,0,0,1-.037-.064l-2.155-4.372a.564.564,0,0,1,.2-.721l6.932-4.53.012-.008a1.657,1.657,0,0,1,.578-.251l2.757-.624-.129.712a2.41,2.41,0,0,0,1.228,2.553l3.944,2.131a1.6,1.6,0,0,0,1.3.556h0a1.6,1.6,0,0,0,1.3-.556l4.1-2.219a2.4,2.4,0,0,0,1.268-2.212l-.034-.909,2.5.563a1.681,1.681,0,0,1,.577.252l.011.008,6.9,4.5a.565.565,0,0,1,.2.719l-2.133,4.393a.562.562,0,0,1-.752.262.526.526,0,0,1-.073-.042c-.016-.01-1.566-1.011-2.571-1.629a1.2,1.2,0,0,0-1.827,1.02v16.531a.784.784,0,0,1-.782.782H601.908a.783.783,0,0,1-.782-.782V491.8a.642.642,0,1,0-1.285,0v10.558a2.069,2.069,0,0,0,2.067,2.067h17.364a2.067,2.067,0,0,0,2.066-2.066V485.987c.991.614,2.4,1.524,2.41,1.529a1.849,1.849,0,0,0,2.563-.519,1.873,1.873,0,0,0,.122-.214l2.133-4.392a1.853,1.853,0,0,0-.653-2.356Zm-22.544-3.367c.15-.821.269-1.516.3-1.626a.61.61,0,0,1,.248-.339l.505-.338,2.022,4.847-2.5-1.349A1.128,1.128,0,0,1,605.367,476.67Zm4.937,3.678-2.631-6.308H613.5l-2.641,6.307a.777.777,0,0,1-.554,0Zm5.071-2.57-2.65,1.434,2.031-4.843.891.6a.623.623,0,0,1,.271.487l.047,1.289a1.121,1.121,0,0,1-.591,1.032Z"/></g></svg>