<svg xmlns="http://www.w3.org/2000/svg" width="100" height="100" viewBox="0 0 100 100"><g transform="translate(-217.817 -398.221)"><path d="M272.991,419.047a22.37,22.37,0,0,1,4.167,13v4.5a6.4,6.4,0,0,0,6.209-4.851l.454-1.816,1.232,1.478a13.123,13.123,0,0,1-.117,16.945,4.614,4.614,0,0,0,6.992,6.022c.039-.045.077-.09.114-.137l3.45-4.308,3.333,8.334a29.132,29.132,0,0,1-7.3,28.976l-.414.414a30.532,30.532,0,0,1-21.589,8.943h-3.4a30.533,30.533,0,0,1-23.54-49.977l13.488-16.334a11.227,11.227,0,0,0,1.605-11.709,11.226,11.226,0,0,1,4.03-13.9l7.124-4.747v6.165A22.368,22.368,0,0,0,272.991,419.047Z" fill="#e82f3e"/><path d="M281.132,485.177l.015-.015a20.715,20.715,0,0,0,5.215-20.283l-4.849,4.849a4.929,4.929,0,0,1-7.272-6.64,13.021,13.021,0,0,0,1.644-14.161l-7.858-15.712-1.209,13.292a11.89,11.89,0,0,1-4.415,8.2l-6.871,5.5a15.573,15.573,0,0,0-5.843,12.159v1.891a15.57,15.57,0,0,0,15.569,15.571h.161l4.817-.048A15.567,15.567,0,0,0,281.132,485.177Z" fill="#ea9d2d"/><path d="M240.491,434.882a1.667,1.667,0,0,1-1.667-1.667h0v-3.334a1.667,1.667,0,0,1,3.334,0v3.334a1.667,1.667,0,0,1-1.667,1.667Z" fill="#ff6268"/><path d="M245.492,426.548a1.667,1.667,0,0,1-1.667-1.667v-3.334a1.667,1.667,0,0,1,3.333,0v3.334a1.666,1.666,0,0,1-1.666,1.667Z" fill="#e82f3e"/><path d="M238.824,419.881a1.667,1.667,0,0,1-1.666-1.667h0V414.88a1.666,1.666,0,1,1,3.333,0v3.334a1.667,1.667,0,0,1-1.667,1.667Z" fill="#961b20"/><path d="M297.158,439.882a1.666,1.666,0,0,1-1.666-1.666h0v-3.333a1.667,1.667,0,1,1,3.333-.012v3.345A1.667,1.667,0,0,1,297.158,439.882Z" fill="#e82f3e"/><path d="M292.159,428.215a1.667,1.667,0,0,1-1.666-1.667h0v-3.334a1.666,1.666,0,1,1,3.333-.011v3.345A1.667,1.667,0,0,1,292.159,428.215Z" fill="#ff6268"/><path d="M298.825,423.214a1.667,1.667,0,0,1-1.667-1.667h0v-5a1.667,1.667,0,0,1,3.334-.012v5.012A1.667,1.667,0,0,1,298.825,423.214Z" fill="#e82f3e"/><path d="M300.423,457.736q-.021-.07-.048-.138l-3.334-8.332a1.667,1.667,0,0,0-2.849-.422l-3.45,4.308a2.947,2.947,0,1,1-4.553-3.743l.014-.017a14.754,14.754,0,0,0,.138-19.1l-1.232-1.479a1.667,1.667,0,0,0-2.9.663l-.454,1.815a4.73,4.73,0,0,1-2.929,3.288v-2.533a23.91,23.91,0,0,0-4.479-13.966,20.6,20.6,0,0,1-3.857-12.034V399.88A1.666,1.666,0,0,0,267.9,398.5l-7.125,4.75a12.863,12.863,0,0,0-4.63,15.963,9.5,9.5,0,0,1-1.366,9.971l-13.493,16.327a32.2,32.2,0,0,0,24.824,52.709h3.4a31.984,31.984,0,0,0,22.766-9.431l.414-.414a30.76,30.76,0,0,0,7.727-30.632ZM290.35,486.008l-.413.414a28.677,28.677,0,0,1-20.411,8.455h-3.415a28.866,28.866,0,0,1-22.253-47.243L257.351,431.3a12.819,12.819,0,0,0,1.842-13.448,9.538,9.538,0,0,1,3.433-11.836l4.534-3.021v3.05a23.9,23.9,0,0,0,4.476,13.969,20.6,20.6,0,0,1,3.857,12.034v4.5a1.667,1.667,0,0,0,1.667,1.667h0a8.058,8.058,0,0,0,7.37-4.78,11.421,11.421,0,0,1-.854,13.784,6.281,6.281,0,0,0,9.552,8.159c.042-.049.082-.1.122-.147l1.656-2.07,2.244,5.607a27.435,27.435,0,0,1-6.906,27.242Z"/><path d="M286.78,463.269a1.666,1.666,0,0,0-1.6.434l-4.849,4.849a3.262,3.262,0,0,1-4.812-4.395,14.691,14.691,0,0,0,1.854-15.974l-7.858-15.716a1.667,1.667,0,0,0-3.15.6l-1.209,13.292a10.268,10.268,0,0,1-3.791,7.053l-6.87,5.5a17.154,17.154,0,0,0-6.47,13.46v1.892a17.238,17.238,0,0,0,17.238,17.238h.169l4.817-.047a17.134,17.134,0,0,0,12.062-5.093l.017-.017a22.4,22.4,0,0,0,5.634-21.914A1.666,1.666,0,0,0,286.78,463.269Zm-6.811,20.713-.015.015h0a13.824,13.824,0,0,1-9.732,4.11l-4.817.046a13.9,13.9,0,0,1-14.04-13.767c0-.044,0-.089,0-.134V472.36a13.832,13.832,0,0,1,5.219-10.856l6.87-5.5a13.616,13.616,0,0,0,5.03-9.351l.678-7.451,5.243,10.476a11.355,11.355,0,0,1-1.434,12.348,6.594,6.594,0,0,0,9.729,8.884l2.659-2.657A19.064,19.064,0,0,1,279.969,483.982Z"/><path d="M238.824,429.881v3.334a1.667,1.667,0,0,0,3.334,0h0v-3.334a1.667,1.667,0,0,0-3.334,0Z"/><path d="M245.492,426.548a1.666,1.666,0,0,0,1.666-1.667v-3.334a1.667,1.667,0,0,0-3.333,0v3.334a1.667,1.667,0,0,0,1.667,1.667Z"/><path d="M238.824,419.881a1.667,1.667,0,0,0,1.667-1.667h0V414.88a1.666,1.666,0,1,0-3.333,0v3.334a1.667,1.667,0,0,0,1.666,1.667Z"/><path d="M297.158,439.882a1.666,1.666,0,0,0,1.667-1.666h0v-3.334a1.667,1.667,0,1,0-3.333-.012v3.346A1.666,1.666,0,0,0,297.158,439.882Z"/><path d="M292.159,428.215a1.667,1.667,0,0,0,1.667-1.667h0v-3.334a1.666,1.666,0,1,0-3.333-.011v3.345A1.667,1.667,0,0,0,292.159,428.215Z"/><path d="M298.825,423.214a1.667,1.667,0,0,0,1.667-1.667h0v-5a1.667,1.667,0,1,0-3.333-.012v5.012A1.666,1.666,0,0,0,298.825,423.214Z"/><rect width="100" height="100" transform="translate(217.817 398.221)" fill="none"/></g></svg>