<svg xmlns="http://www.w3.org/2000/svg" width="138.566" height="138.567" viewBox="0 0 138.566 138.567"><path d="M335.06,32.747a4.057,4.057,0,0,1-4.06-4.06V4.06a4.06,4.06,0,1,1,8.119,0V28.688A4.057,4.057,0,0,1,335.06,32.747Z" transform="translate(-241.419)" fill="#cf4529"/><g transform="translate(40.866)"><path d="M155.06,32.747a4.057,4.057,0,0,1-4.06-4.06V4.06a4.06,4.06,0,1,1,8.119,0V28.688A4.057,4.057,0,0,1,155.06,32.747Z" transform="translate(-151)" fill="#e55639"/><path d="M231.3,189.119H215.06a4.06,4.06,0,1,1,0-8.119H231.3a4.06,4.06,0,1,1,0,8.119Z" transform="translate(-194.762 -132.015)" fill="#e55639"/></g><path d="M264.119,181H256v8.119h8.119a4.06,4.06,0,1,0,0-8.119Z" transform="translate(-186.717 -132.015)" fill="#cf4529"/><g transform="translate(0 40.286)"><path d="M12.749,174.373A12.755,12.755,0,1,1,19.818,151l10.851,7.235a4.059,4.059,0,0,1,0,6.755l-10.851,7.235A12.741,12.741,0,0,1,12.749,174.373Zm0-17.4a4.641,4.641,0,0,0-2.188.559,4.633,4.633,0,1,0,4.749,7.945h0l5.784-3.857-5.784-3.857A4.6,4.6,0,0,0,12.754,156.969Z" transform="translate(0 -148.857)" fill="#e55639"/><path d="M34.06,213.477a4.06,4.06,0,0,1,0-8.119,12.192,12.192,0,0,0,12.179-12.179V185.06a4.06,4.06,0,1,1,8.119,0v8.119A20.322,20.322,0,0,1,34.06,213.477Z" transform="translate(-21.881 -172.301)" fill="#e55639"/></g><g transform="translate(106.09 40.282)"><path d="M411.727,174.362a12.741,12.741,0,0,1-7.069-2.145l-10.851-7.235a4.059,4.059,0,0,1,0-6.755l10.851-7.235a12.752,12.752,0,1,1,7.069,23.37ZM403.378,161.6l5.784,3.857h0a4.629,4.629,0,0,0,7.2-3.853,4.629,4.629,0,0,0-7.2-3.861Z" transform="translate(-392 -148.842)" fill="#cf4529"/><path d="M412.3,213.477a20.322,20.322,0,0,1-20.3-20.3V185.06a4.06,4.06,0,0,1,8.119,0v8.119A12.192,12.192,0,0,0,412.3,205.357a4.06,4.06,0,0,1,0,8.119Z" transform="translate(-392 -172.297)" fill="#cf4529"/></g><path d="M299.688,131.6H283.179A12.192,12.192,0,0,1,271,119.417,28.684,28.684,0,0,1,299.688,91a12.192,12.192,0,0,1,12.179,12.179v16.238A12.192,12.192,0,0,1,299.688,131.6Z" transform="translate(-197.657 -66.372)" fill="#db5c6b"/><path d="M118.688,131.6H102.179A12.192,12.192,0,0,1,90,119.417V103.179A12.192,12.192,0,0,1,102.179,91a28.684,28.684,0,0,1,28.688,28.417A12.192,12.192,0,0,1,118.688,131.6Z" transform="translate(-65.643 -66.372)" fill="#f26b7d"/><path d="M404.179,339.119H396.06a4.06,4.06,0,1,1,0-8.119h8.119a4.06,4.06,0,1,1,0,8.119Z" transform="translate(-285.91 -241.419)" fill="#cf4529"/><path d="M72.179,339.119H64.06a4.06,4.06,0,1,1,0-8.119h8.119a4.06,4.06,0,1,1,0,8.119Z" transform="translate(-43.762 -241.419)" fill="#e55639"/><path d="M167.673,301H102.179A12.192,12.192,0,0,0,90,313.179V321.3a4.057,4.057,0,0,0,4.06,4.06,29.062,29.062,0,0,1,24.305,13.691l11.5,7.928h10.116l11.5-7.928a29.062,29.062,0,0,1,24.306-13.691,4.057,4.057,0,0,0,4.06-4.06v-8.119A12.192,12.192,0,0,0,167.673,301Z" transform="translate(-65.643 -219.538)" fill="#f26b7d"/><path d="M288.747,301H256v45.976h5.058l11.5-7.928a29.062,29.062,0,0,1,24.305-13.691,4.057,4.057,0,0,0,4.06-4.06v-8.119A12.192,12.192,0,0,0,288.747,301Z" transform="translate(-186.717 -219.538)" fill="#db5c6b"/><path d="M194.808,427.037a29.778,29.778,0,0,1,4.382,15,4.057,4.057,0,0,0,4.06,4.06h16.238a4.057,4.057,0,0,0,4.06-4.06,29.778,29.778,0,0,1,4.382-15A28.1,28.1,0,0,0,194.808,427.037Z" transform="translate(-142.086 -307.527)" fill="#ff80c0"/><path d="M256,421.637v24.456h8.119a4.057,4.057,0,0,0,4.06-4.06,29.774,29.774,0,0,1,4.382-15A28.311,28.311,0,0,0,256,421.637Z" transform="translate(-186.717 -307.526)" fill="#e673ad"/></svg>