<svg xmlns="http://www.w3.org/2000/svg" width="100.001" height="101.591" viewBox="0 0 100.001 101.591"><g transform="translate(-110.051 -60.942)"><circle cx="50" cy="50" r="50" transform="translate(110.051 62.533)" fill="#fff"/><circle cx="48.162" cy="48.162" r="48.162" transform="translate(111.889 64.371)" fill="none" stroke="#361274" stroke-width="3.676"/><path d="M132.742,113.884h6.726v-9.253Z" fill="#ffa9db"/><path d="M189.827,62.114H131.51v9.3h7.959v63.488a4.866,4.866,0,0,0,4.867,4.864h47.348a4.866,4.866,0,0,0,4.867-4.864V68.831A6.724,6.724,0,0,0,189.827,62.114Z" fill="#ffb9e5"/><path d="M189.824,62.114H178.907a6.724,6.724,0,0,1,6.726,6.717v66.075a4.866,4.866,0,0,1-4.867,4.864h10.918a4.865,4.865,0,0,0,4.867-4.863h0V68.831a6.723,6.723,0,0,0-6.726-6.717Z" fill="#ffa9db"/><path d="M132.965,113.887h-2.911a6.5,6.5,0,0,1-6.5-6.5V68.616a6.5,6.5,0,0,1,6.5-6.5h2.911a6.5,6.5,0,0,1,6.5,6.5h0v38.766a6.5,6.5,0,0,1-6.5,6.5Z" fill="#ff87ba"/><path d="M131.6,108.96h-.189a2.757,2.757,0,0,1-2.757-2.757V69.794a2.757,2.757,0,0,1,2.757-2.757h.189a2.757,2.757,0,0,1,2.757,2.757V106.2A2.757,2.757,0,0,1,131.6,108.96Z" fill="#9d4388"/><path d="M189.825,60.942h-59.77a7.682,7.682,0,0,0-7.675,7.674v38.766a7.682,7.682,0,0,0,7.675,7.673h2.911a7.646,7.646,0,0,0,5.331-2.162V134.9a6.044,6.044,0,0,0,6.038,6.038h31.743a1.172,1.172,0,0,0,0-2.344h-2.439a1.173,1.173,0,0,0-1.954-.5l-.11.11a1.171,1.171,0,0,0-.256.388h-9.5l.034-.033a1.174,1.174,0,0,0-1.661-1.66l-.11.11a1.172,1.172,0,0,0-.07,1.58H147.492l-.011-.011a1.172,1.172,0,0,0-1.657,0l0,0-.013.013h-1.472a3.7,3.7,0,0,1-3.692-3.693v-.611a1.176,1.176,0,0,0,0-.988V121.616a1.179,1.179,0,0,0,0-.989V108.52a1.183,1.183,0,0,0,0-.923v-5.132a1.172,1.172,0,0,0-2.343,0v4.919a5.337,5.337,0,0,1-5.335,5.331h-2.911a5.336,5.336,0,0,1-5.331-5.33V68.616a5.336,5.336,0,0,1,5.331-5.33h2.911a5.337,5.337,0,0,1,5.331,5.33V97.8a1.172,1.172,0,0,0,2.344,0V94.873a1.17,1.17,0,0,0,1.32-.233l.11-.11a1.172,1.172,0,0,0-1.434-1.834V83.262a1.086,1.086,0,0,0,.126-.108l.11-.11a1.167,1.167,0,0,0,.007-1.651,1.151,1.151,0,0,0-.244-.188V68.613a1.284,1.284,0,0,0,.148.181,1.172,1.172,0,0,0,1.658,0h0l.11-.111A1.172,1.172,0,0,0,140.926,67l-.026.026-.11.11a1.147,1.147,0,0,0-.235.338,7.669,7.669,0,0,0-2.076-4.189h8.394a1.162,1.162,0,0,0,.985,0h11.705a1.162,1.162,0,0,0,.985,0h11.7a1.16,1.16,0,0,0,.984,0h11.7a1.161,1.161,0,0,0,.981,0h3.9a5.549,5.549,0,0,1,4.35,2.1,1.17,1.17,0,0,0-.823.343l-.11.11a1.174,1.174,0,1,0,1.66,1.66h0l.111-.11a1.266,1.266,0,0,0,.132-.159,5.546,5.546,0,0,1,.237,1.6v20.6a1.157,1.157,0,0,0-.7.336l-.111.11a1.172,1.172,0,0,0,.813,2v10.235a1.165,1.165,0,0,0-.7.336l-.111.11a1.172,1.172,0,0,0,.813,2v10.232a1.17,1.17,0,0,0-.7.336l-.111.11a1.171,1.171,0,0,0,.813,2v10.235a1.165,1.165,0,0,0-.7.336l-.111.11a1.171,1.171,0,0,0,.813,2V134.9a3.7,3.7,0,0,1-3.7,3.691H180.766a1.172,1.172,0,0,0-.059,2.344h10.978a6.044,6.044,0,0,0,6.037-6.038V68.834A7.9,7.9,0,0,0,189.825,60.942Z"/><path d="M128.658,75.314a1.172,1.172,0,0,0-1.172,1.172h0V106.2a3.934,3.934,0,0,0,3.929,3.929h.19a3.934,3.934,0,0,0,3.929-3.929V69.795a3.933,3.933,0,0,0-3.929-3.929h-.19a3.934,3.934,0,0,0-3.929,3.929v1.769a1.172,1.172,0,0,0,2.344.06V69.795a1.585,1.585,0,0,1,1.585-1.585h.189a1.585,1.585,0,0,1,1.585,1.585V106.2a1.585,1.585,0,0,1-1.585,1.585h-.189a1.585,1.585,0,0,1-1.585-1.585V76.486A1.172,1.172,0,0,0,128.658,75.314Z"/><path d="M158.867,100.191l-.111.111a1.174,1.174,0,0,0,1.661,1.66l.11-.11a1.174,1.174,0,1,0-1.66-1.661Z"/><path d="M161.741,97.32l-.111.11a1.174,1.174,0,0,0,1.661,1.66l.11-.11a1.174,1.174,0,1,0-1.66-1.66Z"/><path d="M188.322,73.587a1.17,1.17,0,0,0,.831-.343l.11-.11a1.174,1.174,0,0,0-1.661-1.66l-.11.11a1.171,1.171,0,0,0,.83,2Z"/><path d="M164.615,94.447l-.111.11a1.173,1.173,0,0,0,1.657,1.661l.11-.11a1.173,1.173,0,0,0-1.656-1.661Z"/><path d="M173.235,85.834l-.11.11a1.174,1.174,0,1,0,1.66,1.66l.11-.11a1.174,1.174,0,0,0-1.66-1.66Z"/><path d="M176.109,82.963l-.11.11a1.174,1.174,0,0,0,1.66,1.66l.11-.11a1.174,1.174,0,1,0-1.66-1.66Z"/><path d="M156.71,105.175a1.17,1.17,0,0,0,.831-.343l.11-.11a1.172,1.172,0,0,0-1.655-1.66l-.111.11a1.173,1.173,0,0,0,.831,2Z"/><path d="M192.024,70.373l.11-.111a1.172,1.172,0,0,0-1.656-1.66h0l-.11.11a1.173,1.173,0,0,0,1.656,1.661Z"/><path d="M147.371,111.677l-.11.111a1.174,1.174,0,1,0,1.66,1.66l.11-.11a1.174,1.174,0,1,0-1.66-1.661Z"/><path d="M185.448,76.459a1.175,1.175,0,0,0,.831-.343l.11-.11a1.175,1.175,0,0,0-1.661-1.661h0l-.11.111a1.172,1.172,0,0,0,.83,2Z"/><path d="M153.837,108.045a1.164,1.164,0,0,0,.83-.343l.111-.11a1.172,1.172,0,1,0-1.656-1.66l-.11.11a1.172,1.172,0,0,0,.83,2Z"/><path d="M150.963,110.917a1.167,1.167,0,0,0,.83-.342l.111-.11a1.175,1.175,0,0,0-1.661-1.661h0l-.11.11a1.172,1.172,0,0,0,.83,2Z"/><path d="M178.983,80.09l-.11.11a1.173,1.173,0,0,0,1.656,1.661l.11-.11a1.173,1.173,0,0,0-1.656-1.661Z"/><path d="M181.858,77.219l-.111.11a1.172,1.172,0,1,0,1.656,1.66l.11-.11a1.172,1.172,0,1,0-1.655-1.66Z"/><path d="M146.156,114.55a1.172,1.172,0,0,0-1.657,0l0,0-.11.11a1.172,1.172,0,0,0,1.654,1.66l.111-.11a1.172,1.172,0,0,0,.009-1.657Z"/><path d="M143.282,117.421a1.171,1.171,0,0,0-1.657,0l0,0-.111.11a1.173,1.173,0,1,0,1.657,1.66l.11-.11a1.171,1.171,0,0,0,.006-1.658Z"/><path d="M167.489,91.576l-.111.11a1.173,1.173,0,0,0,1.656,1.661h0l.11-.11a1.172,1.172,0,1,0-1.655-1.661Z"/><path d="M170.362,88.705l-.11.11a1.172,1.172,0,1,0,1.656,1.66h0l.11-.11a1.172,1.172,0,1,0-1.656-1.66Z"/><path d="M177.656,97.41l.11-.111a1.174,1.174,0,0,0-1.66-1.66h0l-.11.11a1.174,1.174,0,0,0,1.66,1.661Z"/><path d="M151.792,123.254l.11-.11a1.174,1.174,0,1,0-1.66-1.661l-.11.111a1.174,1.174,0,1,0,1.66,1.66Z"/><path d="M157.538,117.511l.111-.11a1.172,1.172,0,1,0-1.656-1.66l-.11.11a1.172,1.172,0,0,0,1.655,1.66Z"/><path d="M174.782,100.281l.11-.11a1.174,1.174,0,0,0-1.66-1.66l-.11.11a1.174,1.174,0,1,0,1.66,1.66Z"/><path d="M166.16,108.9l.11-.11a1.172,1.172,0,1,0-1.655-1.66h0l-.111.11a1.172,1.172,0,1,0,1.656,1.66Z"/><path d="M154.665,120.383l.111-.11a1.173,1.173,0,1,0-1.657-1.66h0l-.11.11a1.172,1.172,0,0,0,1.656,1.66Z"/><path d="M160.413,114.639l.11-.11a1.174,1.174,0,0,0-1.66-1.661l-.11.111a1.174,1.174,0,0,0,1.66,1.66Z"/><path d="M163.287,111.768l.11-.11a1.174,1.174,0,0,0-1.66-1.661l-.11.111a1.174,1.174,0,1,0,1.66,1.66Z"/><path d="M169.033,106.025l.111-.11a1.172,1.172,0,0,0-1.656-1.66l-.11.11a1.172,1.172,0,1,0,1.655,1.66Z"/><path d="M194.9,80.18l.11-.11a1.174,1.174,0,0,0-1.66-1.66l-.11.11a1.174,1.174,0,0,0,1.66,1.66Z"/><path d="M171.908,103.154l.11-.111a1.172,1.172,0,1,0-1.656-1.66l-.11.11a1.173,1.173,0,0,0,1.656,1.661Z"/><path d="M141.624,130.1l-.111.11a1.173,1.173,0,0,0,1.657,1.661h0l.11-.111a1.172,1.172,0,1,0-1.656-1.66Z"/><path d="M180.639,94.428a1.172,1.172,0,1,0-1.655-1.66h0l-.111.11a1.173,1.173,0,0,0,1.656,1.661h0Z"/><path d="M184.62,88.795a1.171,1.171,0,0,0,1.656,0l0,0,.11-.11a1.174,1.174,0,0,0-1.66-1.66h0l-.11.11a1.171,1.171,0,0,0,0,1.656Z"/><path d="M187.493,85.923a1.172,1.172,0,0,0,1.659,0v0l.111-.11a1.174,1.174,0,0,0-1.661-1.66h0l-.11.11a1.175,1.175,0,0,0,0,1.66Z"/><path d="M181.857,89.9l-.11.111a1.174,1.174,0,1,0,1.66,1.66l.11-.11a1.174,1.174,0,0,0-1.66-1.661Z"/><path d="M190.367,83.052a1.173,1.173,0,0,0,1.658,0l0,0,.111-.11a1.173,1.173,0,0,0-1.656-1.661h0l-.11.11a1.172,1.172,0,0,0-.009,1.657Z"/><path d="M144.5,127.23l-.11.11a1.172,1.172,0,0,0,1.654,1.66l.11-.11a1.172,1.172,0,0,0-1.654-1.66Z"/><path d="M148.089,126.468a1.162,1.162,0,0,0,.83-.343l.111-.11a1.175,1.175,0,0,0-1.661-1.661l-.11.111a1.171,1.171,0,0,0,.83,2Z"/><path d="M170.47,115.613a1.173,1.173,0,0,0-1.657,0l0,0-.11.11a1.173,1.173,0,0,0,1.656,1.661l.11-.11a1.172,1.172,0,0,0,.007-1.658Z"/><path d="M149.415,137.825a1.174,1.174,0,0,0,.83-.343l.11-.11a1.174,1.174,0,1,0-1.66-1.661h0l-.111.111a1.172,1.172,0,0,0,.831,2Z"/><path d="M164.722,121.357a1.17,1.17,0,0,0-1.656,0l0,0-.11.11a1.173,1.173,0,1,0,1.657,1.66l.11-.11a1.171,1.171,0,0,0,.007-1.656Z"/><path d="M160.909,126.339a1.174,1.174,0,0,0,.83-.343l.11-.11a1.173,1.173,0,1,0-1.656-1.661h0l-.11.111a1.172,1.172,0,0,0,.83,2Z"/><path d="M167.6,118.485a1.172,1.172,0,0,0-1.658,0l0,0-.11.11a1.173,1.173,0,0,0,1.656,1.661l.11-.111a1.171,1.171,0,0,0,.007-1.657Z"/><path d="M173.344,112.742a1.172,1.172,0,0,0-1.658,0l0,0-.11.11a1.173,1.173,0,1,0,1.657,1.66l.11-.11a1.173,1.173,0,0,0,.005-1.659Z"/><path d="M180.307,104.126l-.11.111a1.174,1.174,0,0,0,1.661,1.66l.11-.11a1.175,1.175,0,1,0-1.661-1.661Z"/><path d="M188.929,95.511l-.111.111a1.174,1.174,0,0,0,1.661,1.66h0l.11-.11a1.174,1.174,0,0,0-1.66-1.661Z"/><path d="M158.036,129.21a1.174,1.174,0,0,0,.83-.343l.11-.11a1.174,1.174,0,0,0-1.66-1.661h0l-.111.11a1.171,1.171,0,0,0,.831,2Z"/><path d="M177.434,107l-.11.111a1.173,1.173,0,1,0,1.657,1.66l.11-.11A1.173,1.173,0,0,0,177.434,107Z"/><path d="M191.8,92.64l-.11.111a1.174,1.174,0,0,0,1.66,1.66h0l.11-.11a1.174,1.174,0,0,0-1.66-1.661Z"/><path d="M152.289,134.954a1.174,1.174,0,0,0,.83-.343l.11-.11a1.174,1.174,0,1,0-1.66-1.661h0l-.111.111a1.172,1.172,0,0,0,.831,2Z"/><path d="M186.055,98.383l-.111.11a1.175,1.175,0,0,0,1.661,1.661l.11-.111a1.174,1.174,0,0,0-1.66-1.66Z"/><path d="M176.219,109.872a1.171,1.171,0,0,0-1.656,0l0,0-.11.11a1.172,1.172,0,1,0,1.655,1.661h0l.11-.11a1.173,1.173,0,0,0,.008-1.658Z"/><path d="M183.181,101.255l-.11.11a1.174,1.174,0,0,0,1.661,1.66l.11-.11a1.174,1.174,0,0,0-1.661-1.66Z"/><path d="M155.162,132.081a1.169,1.169,0,0,0,.831-.342l.11-.111a1.174,1.174,0,0,0-1.661-1.66h0l-.11.11a1.171,1.171,0,0,0,.83,2Z"/><path d="M165.939,131.164l-.111.11a1.173,1.173,0,0,0,1.657,1.661l.11-.11a1.173,1.173,0,0,0-1.656-1.661Z"/><path d="M163.064,134.035l-.11.11a1.175,1.175,0,0,0,1.661,1.661l.11-.11a1.175,1.175,0,1,0-1.661-1.661Z"/><path d="M177.435,119.677l-.11.11a1.172,1.172,0,0,0,1.654,1.66l.111-.11a1.172,1.172,0,1,0-1.655-1.66Z"/><path d="M193.46,105.321a1.173,1.173,0,0,0-1.657,0l0,0-.11.11a1.173,1.173,0,0,0,1.656,1.661l.111-.11a1.172,1.172,0,0,0,.008-1.657Z"/><path d="M187.712,111.063a1.175,1.175,0,0,0-1.66,0h0l-.111.11a1.175,1.175,0,1,0,1.661,1.661l.11-.111a1.173,1.173,0,0,0,0-1.659Z"/><path d="M181.966,116.807a1.173,1.173,0,0,0-1.659,0h0l-.11.11a1.173,1.173,0,1,0,1.657,1.661l.11-.11a1.173,1.173,0,0,0,0-1.658l0,0Z"/><path d="M184.838,113.935a1.172,1.172,0,0,0-1.659,0v0l-.111.11a1.174,1.174,0,0,0,1.661,1.66l.11-.11a1.172,1.172,0,0,0,0-1.657Z"/><path d="M168.813,128.288l-.11.11a1.173,1.173,0,0,0,1.656,1.661l.111-.111a1.173,1.173,0,1,0-1.657-1.66Z"/><path d="M190.584,108.193a1.171,1.171,0,0,0-1.656,0l0,0-.111.11a1.172,1.172,0,1,0,1.655,1.66h0l.11-.11a1.171,1.171,0,0,0,.01-1.656Z"/><path d="M171.686,125.421l-.111.11a1.174,1.174,0,0,0,1.661,1.66l.11-.11a1.174,1.174,0,0,0-1.66-1.66Z"/><path d="M176.217,122.55a1.172,1.172,0,0,0-1.657,0l0,0-.107.112a1.175,1.175,0,1,0,1.661,1.661l.11-.11a1.172,1.172,0,0,0,0-1.657Z"/><path d="M180.307,129.485l-.11.11a1.173,1.173,0,0,0,1.657,1.661l.11-.111a1.173,1.173,0,1,0-1.657-1.66Z"/><path d="M187.712,123.743a1.173,1.173,0,0,0-1.658,0l0,0-.111.11a1.175,1.175,0,1,0,1.661,1.661l.11-.111a1.173,1.173,0,0,0,0-1.658Z"/><path d="M190.584,120.871a1.171,1.171,0,0,0-1.656,0l0,0-.111.111a1.172,1.172,0,1,0,1.655,1.66h0l.116-.115A1.171,1.171,0,0,0,190.584,120.871Z"/><path d="M193.46,118a1.172,1.172,0,0,0-1.658,0l0,0-.11.11a1.172,1.172,0,1,0,1.656,1.66l.111-.11a1.171,1.171,0,0,0,.008-1.656Z"/><path d="M183.181,126.613l-.11.11a1.175,1.175,0,0,0,1.661,1.661l.11-.11a1.175,1.175,0,0,0-1.661-1.661Z"/><path d="M177.435,132.356l-.11.11a1.172,1.172,0,0,0,1.654,1.66l.111-.11a1.172,1.172,0,1,0-1.655-1.66Z"/><path d="M174.559,135.228l-.11.111A1.174,1.174,0,0,0,176.11,137l.11-.11a1.175,1.175,0,1,0-1.661-1.661Z"/><path d="M188.93,133.55l-.111.11a1.172,1.172,0,1,0,1.655,1.66h0l.11-.11a1.172,1.172,0,1,0-1.628-1.686Z"/><path d="M186.055,136.422l-.111.111a1.174,1.174,0,0,0,1.661,1.66l.11-.11a1.174,1.174,0,0,0-1.66-1.661Z"/><path d="M191.8,130.679l-.11.11a1.172,1.172,0,1,0,1.655,1.661l.111-.111a1.172,1.172,0,0,0-1.656-1.66Z"/><path d="M143.774,64.155l-.111.11a1.173,1.173,0,0,0,1.656,1.661l.111-.11a1.173,1.173,0,1,0-1.656-1.661Z"/><path d="M142.1,78.513l-.111.11a1.173,1.173,0,1,0,1.657,1.66l.11-.11a1.172,1.172,0,1,0-1.656-1.66Z"/><path d="M147.842,72.77l-.11.11a1.174,1.174,0,1,0,1.66,1.661l.11-.11a1.174,1.174,0,0,0-1.66-1.661Z"/><path d="M144.858,75.751a1.173,1.173,0,0,0,1.656,1.661l.11-.11a1.172,1.172,0,1,0-1.655-1.661Z"/><path d="M150.716,69.9l-.111.11a1.174,1.174,0,0,0,1.661,1.66h0l.11-.11a1.174,1.174,0,0,0-1.66-1.66Z"/><path d="M153.591,67.023l-.11.11a1.172,1.172,0,0,0,1.654,1.661l.11-.111A1.172,1.172,0,1,0,153.617,67Z"/><path d="M156.464,64.155l-.111.11a1.173,1.173,0,0,0,1.656,1.661h0l.111-.11a1.173,1.173,0,0,0-1.656-1.661Z"/><path d="M169.152,64.155l-.11.11a1.173,1.173,0,1,0,1.656,1.661h0l.111-.11a1.173,1.173,0,0,0-1.657-1.661Z"/><path d="M166.279,67.023l-.108.113a1.172,1.172,0,0,0,1.654,1.661l.11-.111A1.172,1.172,0,1,0,166.307,67l-.026.026Z"/><path d="M144.834,91.768l.11-.11A1.172,1.172,0,1,0,143.289,90h0l-.111.111a1.172,1.172,0,1,0,1.656,1.66Z"/><path d="M163.4,69.9l-.11.11a1.174,1.174,0,0,0,1.66,1.66l.11-.11a1.174,1.174,0,1,0-1.66-1.66Z"/><path d="M147.707,88.9l.111-.11a1.172,1.172,0,1,0-1.656-1.66h0l-.11.11a1.172,1.172,0,1,0,1.655,1.66Z"/><path d="M154.784,78.512l-.111.11a1.173,1.173,0,0,0,1.656,1.661l.11-.11a1.172,1.172,0,0,0-1.655-1.661Z"/><path d="M151.909,81.388l-.11.11a1.174,1.174,0,1,0,1.66,1.66l.11-.11a1.174,1.174,0,0,0-1.66-1.66Z"/><path d="M160.53,72.77l-.11.11a1.174,1.174,0,0,0,1.66,1.661l.11-.11a1.174,1.174,0,1,0-1.66-1.661Z"/><path d="M157.657,75.641l-.111.11a1.173,1.173,0,0,0,1.656,1.661l.111-.11a1.173,1.173,0,0,0-1.656-1.661Z"/><path d="M149.035,84.256l-.11.111a1.174,1.174,0,0,0,1.66,1.66l.11-.11a1.174,1.174,0,1,0-1.66-1.661Z"/><path d="M181.84,64.156l-.11.11a1.174,1.174,0,1,0,1.66,1.66h0l.111-.11a1.174,1.174,0,0,0-1.661-1.66Z"/><path d="M145.2,103.6a1.169,1.169,0,0,0,.83-.342l.11-.11a1.173,1.173,0,0,0-1.656-1.661l-.11.11a1.172,1.172,0,0,0,.83,2Z"/><path d="M178.966,67.028l-.11.11a1.174,1.174,0,1,0,1.66,1.66l.111-.11a1.174,1.174,0,0,0-1.661-1.66Z"/><path d="M141.5,104.468a1.175,1.175,0,1,0,1.661,1.661l.11-.11a1.174,1.174,0,1,0-1.66-1.661Z"/><path d="M154.649,94.64l.11-.11a1.172,1.172,0,1,0-1.656-1.66h0l-.11.11a1.172,1.172,0,1,0,1.656,1.66Z"/><path d="M157.524,91.768l.11-.11A1.174,1.174,0,0,0,155.974,90l-.11.111a1.174,1.174,0,0,0,1.66,1.66Z"/><path d="M148.073,100.726a1.17,1.17,0,0,0,.831-.343l.11-.11a1.172,1.172,0,1,0-1.656-1.66h0l-.11.11a1.171,1.171,0,0,0,.83,2Z"/><path d="M170.346,75.642l-.11.11a1.173,1.173,0,0,0,1.656,1.661h0L172,77.3a1.172,1.172,0,1,0-1.656-1.66Z"/><path d="M173.22,72.77l-.11.11a1.172,1.172,0,1,0,1.655,1.66l.11-.11a1.172,1.172,0,1,0-1.655-1.66Z"/><path d="M176.092,69.9l-.11.111a1.174,1.174,0,1,0,1.66,1.66l.111-.11a1.175,1.175,0,0,0-1.661-1.661Z"/><path d="M151.775,97.512l.111-.11a1.172,1.172,0,1,0-1.656-1.66h0l-.111.11a1.172,1.172,0,0,0,1.656,1.66Z"/><path d="M167.472,78.514l-.111.11a1.173,1.173,0,1,0,1.657,1.66l.11-.11a1.172,1.172,0,0,0-1.656-1.66Z"/><path d="M164.6,81.385l-.11.111a1.174,1.174,0,1,0,1.66,1.66l.11-.11a1.174,1.174,0,0,0-1.66-1.661Z"/><path d="M158.851,87.129l-.11.11a1.174,1.174,0,0,0,1.66,1.66l.11-.11a1.174,1.174,0,0,0-1.66-1.66Z"/><path d="M161.725,84.257l-.11.11a1.175,1.175,0,1,0,1.661,1.661l.11-.111a1.174,1.174,0,0,0-1.661-1.66Z"/></g></svg>