<svg xmlns="http://www.w3.org/2000/svg" width="220.999" height="192.957" viewBox="0 0 220.999 192.957"><g transform="translate(-49.5 -20.373)"><g transform="translate(57.827 20.373)"><path d="M98.286,99.062c10.511-.363,20.674,3.32,30.729,6.405s20.816,5.621,30.993,2.968c13.683-3.568,23.229-15.563,31.8-26.809s18.269-23.173,32.017-26.483c12.837-3.091,26.688,2.45,36.031,11.78s14.736,21.942,18.1,34.71c8.335,31.627,4.312,68.089-17.344,92.6-17.326,19.61-43.48,29.242-69.315,33.4-18.636,3-38.011,3.5-56.132-1.779a91.708,91.708,0,0,1-52.982-41.424C68.65,161.189,56.1,100.52,98.286,99.062Z" transform="translate(-69.318 -40.035)" fill="#d1f4f5"/><path d="M180.478,80.073c12.653.234,26.278-4.423,35.743-11.029,5.247-3.662,9.937-8.328,12.737-14.081s3.541-12.681,1.1-18.6C226.536,27.833,217.27,23,208.2,21.28a53.7,53.7,0,0,0-40.256,8.6c-8.127,5.667-16.648,13.734-18.757,23.827C146.914,64.581,156.278,72.924,165.5,77A38.8,38.8,0,0,0,180.478,80.073Z" transform="translate(-115.43 -20.373)" fill="#d1f4f5"/></g><g transform="translate(49.5 27.11)"><g transform="translate(0 0)"><g transform="translate(92.814)"><rect width="104.3" height="35.413" transform="translate(35.079 0) rotate(82.126)" fill="#fff"/><g transform="translate(2.521 2.521)"><rect width="30.942" height="16.638" transform="translate(4.559 37.201) rotate(-7.874)" fill="#9ee6e0"/><rect width="30.942" height="16.638" transform="translate(2.279 20.72) rotate(-7.874)" fill="#d1f4f5"/><rect width="30.942" height="16.638" transform="translate(0 4.239) rotate(-7.874)" fill="#e7faf9"/><rect width="30.942" height="16.638" transform="translate(11.396 86.645) rotate(-7.874)" fill="#5195a8"/><rect width="30.942" height="16.638" transform="translate(6.838 53.683) rotate(-7.874)" fill="#94cbca"/><rect width="30.942" height="16.638" transform="translate(9.117 70.164) rotate(-7.874)" fill="#6ca8bc"/></g></g><g transform="translate(57.099 5.9)"><rect width="104.3" height="35.413" transform="translate(33.845 0) rotate(72.888)" fill="#fff"/><g transform="translate(2.794 2.794)"><rect width="30.942" height="16.638" transform="translate(9.791 40.908) rotate(-17.112)" fill="#f0bf6c"/><rect width="30.942" height="16.638" transform="translate(4.896 25.006) rotate(-17.112)" fill="#f7dd8c"/><rect width="30.942" height="16.638" transform="matrix(0.956, -0.294, 0.294, 0.956, 0, 9.105)" fill="#fbeed1"/><rect width="30.942" height="16.638" transform="translate(24.479 88.613) rotate(-17.112)" fill="#e8916a"/><rect width="30.942" height="16.638" transform="translate(14.687 56.809) rotate(-17.112)" fill="#efb96d"/><rect width="30.942" height="16.638" transform="translate(19.583 72.711) rotate(-17.112)" fill="#eba25d"/></g></g><g transform="translate(0 23.754)"><rect width="76.876" height="114.901" transform="translate(0 30.777) rotate(-23.6)" fill="#fff"/><rect width="107.188" height="69.163" transform="matrix(0.4, 0.916, -0.916, 0.4, 68.456, 5.078)" fill="#fbeed1"/><path d="M165.57,194.293l-.614-.578a30.339,30.339,0,0,1-9.191-17.5l-2.013-13.16a13.242,13.242,0,0,1-8-7.277l-3.407-7.8-3.268,1.428,2.843,6.506a9.031,9.031,0,0,1-4.659,11.89l-1.547.676-1.547.676a9.03,9.03,0,0,1-11.89-4.659l-2.843-6.507-3.268,1.428,3.407,7.8a13.241,13.241,0,0,1-.094,10.812l8.288,10.418a30.339,30.339,0,0,1,6.6,18.634l.007.843a30.338,30.338,0,0,0,4.641,15.874l13.114,20.9,14.178-6.194,14.179-6.195-6.422-23.82A30.338,30.338,0,0,0,165.57,194.293Z" transform="translate(-88.158 -124.856)" fill="#f7dd8c"/><g transform="translate(8.251 8.21)"><g transform="translate(0 25.431)"><path d="M110.483,266.989a.509.509,0,0,1-.671-.263l-40.631-93a.509.509,0,1,1,.934-.408l40.631,93A.509.509,0,0,1,110.483,266.989Z" transform="translate(-69.138 -173.012)" fill="#efb96d"/><g transform="translate(3.57 0.957)"><path d="M80.371,176.267l-2.023.884a.509.509,0,1,1-.408-.934l2.023-.884a.509.509,0,0,1,.408.934Z" transform="translate(-77.634 -175.29)" fill="#efb96d"/><g transform="translate(3.467 7.935)"><path d="M88.622,195.154l-2.023.884a.509.509,0,0,1-.408-.934l2.022-.884a.509.509,0,1,1,.408.934Z" transform="translate(-85.886 -194.177)" fill="#efb96d"/></g><g transform="translate(6.934 15.871)"><path d="M96.874,214.041l-2.023.884a.509.509,0,1,1-.408-.933l2.023-.884a.509.509,0,0,1,.408.934Z" transform="translate(-94.137 -213.064)" fill="#efb96d"/></g><g transform="translate(10.401 23.806)"><path d="M105.125,232.928l-2.023.884a.509.509,0,1,1-.408-.934l2.023-.884a.509.509,0,0,1,.408.934Z" transform="translate(-102.389 -231.951)" fill="#efb96d"/></g><g transform="translate(13.868 31.742)"><path d="M113.377,251.815l-2.023.884a.509.509,0,0,1-.408-.934l2.023-.884a.509.509,0,1,1,.408.934Z" transform="translate(-110.641 -250.838)" fill="#efb96d"/></g><g transform="translate(17.335 39.677)"><path d="M121.628,270.7l-2.022.884a.509.509,0,1,1-.408-.934l2.023-.884a.509.509,0,0,1,.408.934Z" transform="translate(-118.892 -269.725)" fill="#efb96d"/></g><g transform="translate(20.802 47.612)"><path d="M129.88,289.589l-2.023.884a.509.509,0,0,1-.408-.934l2.023-.884a.509.509,0,1,1,.408.934Z" transform="translate(-127.144 -288.612)" fill="#efb96d"/></g><g transform="translate(24.268 55.548)"><path d="M138.132,308.476l-2.023.884a.509.509,0,1,1-.408-.934l2.023-.884a.509.509,0,0,1,.408.934Z" transform="translate(-135.395 -307.499)" fill="#efb96d"/></g><g transform="translate(27.735 63.483)"><path d="M146.383,327.363l-2.022.884a.509.509,0,1,1-.408-.934l2.023-.884a.509.509,0,0,1,.408.934Z" transform="translate(-143.647 -326.386)" fill="#efb96d"/></g><g transform="translate(31.202 71.419)"><path d="M154.635,346.25l-2.023.884a.509.509,0,0,1-.408-.934l2.023-.884a.509.509,0,1,1,.408.934Z" transform="translate(-151.899 -345.273)" fill="#efb96d"/></g><g transform="translate(34.669 79.354)"><path d="M162.887,365.137l-2.023.884a.509.509,0,1,1-.408-.934l2.023-.884a.509.509,0,0,1,.408.934Z" transform="translate(-160.15 -364.16)" fill="#efb96d"/></g><g transform="translate(38.136 87.289)"><path d="M171.138,384.024l-2.023.884a.509.509,0,0,1-.408-.934l2.023-.884a.509.509,0,1,1,.408.934Z" transform="translate(-168.402 -383.047)" fill="#efb96d"/></g></g></g><g transform="translate(55.111)"><g transform="translate(3.098)"><path d="M249.024,206.461a.509.509,0,0,1-.671-.263l-40.631-93a.509.509,0,0,1,.934-.408l40.631,93A.509.509,0,0,1,249.024,206.461Z" transform="translate(-207.679 -112.485)" fill="#efb96d"/></g><g transform="translate(0 3.87)"><path d="M203.043,122.673l-2.023.884a.509.509,0,1,1-.408-.934l2.023-.884a.509.509,0,0,1,.408.934Z" transform="translate(-200.306 -121.696)" fill="#efb96d"/><g transform="translate(3.467 7.935)"><path d="M211.294,141.559l-2.023.884a.509.509,0,0,1-.408-.934l2.022-.884a.509.509,0,1,1,.408.934Z" transform="translate(-208.558 -140.583)" fill="#efb96d"/></g><g transform="translate(6.934 15.871)"><path d="M219.546,160.446l-2.023.884a.509.509,0,1,1-.408-.934l2.023-.884a.509.509,0,0,1,.408.934Z" transform="translate(-216.809 -159.47)" fill="#efb96d"/></g><g transform="translate(10.401 23.806)"><path d="M227.8,179.333l-2.022.884a.509.509,0,1,1-.408-.934l2.023-.884a.51.51,0,0,1,.408.934Z" transform="translate(-225.061 -178.356)" fill="#efb96d"/></g><g transform="translate(13.868 31.741)"><path d="M236.049,198.22l-2.023.884a.509.509,0,0,1-.408-.934l2.023-.884a.509.509,0,1,1,.408.934Z" transform="translate(-233.313 -197.243)" fill="#efb96d"/></g><g transform="translate(17.335 39.677)"><path d="M244.3,217.107l-2.023.884a.509.509,0,1,1-.408-.933l2.023-.884a.509.509,0,0,1,.408.934Z" transform="translate(-241.564 -216.13)" fill="#efb96d"/></g><g transform="translate(20.802 47.612)"><path d="M252.552,235.994l-2.023.884a.509.509,0,0,1-.408-.934l2.023-.884a.509.509,0,1,1,.408.934Z" transform="translate(-249.816 -235.017)" fill="#efb96d"/></g><g transform="translate(24.268 55.547)"><path d="M260.8,254.881l-2.023.884a.509.509,0,1,1-.408-.934l2.023-.884a.509.509,0,0,1,.408.934Z" transform="translate(-258.067 -253.904)" fill="#efb96d"/></g><g transform="translate(27.736 63.483)"><path d="M269.055,273.768l-2.022.884a.509.509,0,1,1-.408-.934l2.023-.884a.509.509,0,1,1,.408.934Z" transform="translate(-266.319 -272.792)" fill="#efb96d"/></g><g transform="translate(31.202 71.418)"><path d="M277.307,292.655l-2.023.884a.509.509,0,0,1-.408-.934l2.023-.884a.509.509,0,1,1,.408.934Z" transform="translate(-274.571 -291.678)" fill="#efb96d"/></g><g transform="translate(34.669 79.354)"><path d="M285.559,311.542l-2.023.884a.509.509,0,1,1-.408-.933l2.023-.884a.509.509,0,0,1,.408.934Z" transform="translate(-282.822 -310.565)" fill="#efb96d"/></g><g transform="translate(38.136 87.289)"><path d="M293.81,330.429l-2.023.884a.509.509,0,0,1-.408-.934l2.023-.884a.509.509,0,1,1,.408.934Z" transform="translate(-291.074 -329.452)" fill="#efb96d"/></g></g></g></g><path d="M162.111,192.741l-2.315-.26.364.834-11.922,5.209-11.923,5.209-.364-.834-1.382,1.875,2.315.26-.364-.834,11.923-5.209,11.922-5.209.364.834Z" transform="translate(-98.827 -150.66)" fill="#efb96d"/><path d="M198.649,276.633l-2.315-.26.364.834-11.922,5.209-17.831,7.79-.364-.834-1.382,1.875,2.315.26-.364-.834,17.831-7.79,11.922-5.209.364.834Z" transform="translate(-116.587 -199.305)" fill="#efb96d"/><path d="M184.526,244.4l-2.315-.26.364.834-7.74,3.382-11.923,5.209-.364-.834-1.382,1.875,2.315.26-.364-.834,11.923-5.209,7.74-3.382.364.834Z" transform="translate(-114.249 -180.615)" fill="#efb96d"/><path d="M227.7,343.216l-2.315-.26.364.834-7.74,3.382-11.923,5.209-.364-.834-1.382,1.875,2.315.26-.364-.834,11.923-5.209,7.74-3.382.364.834Z" transform="translate(-139.283 -237.913)" fill="#efb96d"/></g><g transform="translate(122.305 29.48)"><g transform="translate(85.249)"><g transform="translate(3.949 1.555)"><path d="M555.5,110.275h-1.613v.257a3.338,3.338,0,0,0,0,4.751v.257H555.5c.96,0,1.737-1.179,1.737-2.632S556.461,110.275,555.5,110.275Z" transform="translate(-552.896 -110.275)" fill="#495375"/></g><path d="M549.081,106.573H547.9v.408a5.311,5.311,0,0,0,0,7.558v.408h1.185c1.526,0,2.764-1.875,2.764-4.188S550.608,106.573,549.081,106.573Z" transform="translate(-545.132 -106.573)" fill="#797c99"/><ellipse cx="2.764" cy="4.187" rx="2.764" ry="4.187" fill="#495375"/></g><path d="M433.306,112.9H349.442v3.057h83.864c.557,0,1.009-.684,1.009-1.529S433.863,112.9,433.306,112.9Z" transform="translate(-345.726 -110.242)" fill="#c7d2d7"/><path d="M349.442,117.74v1.024h83.864c.44,0,.81-.429.948-1.024Z" transform="translate(-345.726 -113.048)" fill="#99a3b0"/><g transform="translate(1.607)"><path d="M350.006,106.573h-1.184v.408a5.31,5.31,0,0,0,0,7.558v.408h1.184c1.526,0,2.764-1.875,2.764-4.188S351.533,106.573,350.006,106.573Z" transform="translate(-346.057 -106.573)" fill="#797c99"/><ellipse cx="2.764" cy="4.187" rx="2.764" ry="4.187" fill="#495375"/></g><g transform="translate(0 1.478)"><path d="M345.6,110.09h-2.153v.264a3.436,3.436,0,0,0,0,4.891v.264H345.6c.988,0,1.789-1.213,1.789-2.71S346.585,110.09,345.6,110.09Z" transform="translate(-341.656 -110.09)" fill="#797c99"/><path d="M344.175,112.8c0,1.5-.8,2.71-1.789,2.71S340.6,114.3,340.6,112.8s.8-2.71,1.789-2.71S344.175,111.3,344.175,112.8Z" transform="translate(-340.598 -110.09)" fill="#495375"/></g></g><g transform="translate(174.472 31.392)"><path d="M489.71,145.989c7.34,2.7,17.353,2.151,22.6,0v7.04h-22.6Z" transform="translate(-479.226 -131.34)" fill="#e8916a"/><path d="M508.37,144.628l-19.432-10.61-19.368,10.727a.876.876,0,0,0,.427,1.643l37.956-.114a.877.877,0,0,0,.417-1.646Z" transform="translate(-467.285 -124.399)" fill="none"/><path d="M507.7,130.7,488.28,120.1l-.006-1.935a.8.8,0,0,1,.8-.8,3.117,3.117,0,1,0-.019-6.234l-.808,0a2.806,2.806,0,0,0-1.892.742h2.7a2.373,2.373,0,0,1,.014,4.746,1.546,1.546,0,0,0-1.542,1.551l.005,1.934-19.354,10.72a1.621,1.621,0,0,0,.521,3.018,1.664,1.664,0,0,0,.268.021l37.956-.115a1.621,1.621,0,0,0,.772-3.043Zm.073,1.638a.846.846,0,0,1-.847.661l-37.956.114a.876.876,0,0,1-.427-1.643l19.368-10.727,19.432,10.61A.846.846,0,0,1,507.772,132.337Z" transform="translate(-466.257 -111.124)" fill="#fff"/><g transform="translate(0 17.292)"><path d="M470.4,152.281l-3.37,1.842a4.375,4.375,0,0,0-2.276,3.839v43.93h6.73l2.02-40.244Z" transform="translate(-464.758 -152.281)" fill="#fbeed1"/><path d="M482.3,166.137l-2.026-6.114-.224,1.878a18.413,18.413,0,0,0,.9,8.263l1,2.857Z" transform="translate(-473.551 -156.77)" fill="#efb96d"/></g><g transform="translate(34.813 17.292)"><path d="M550.719,152.281l3.37,1.842a4.375,4.375,0,0,1,2.277,3.839v43.93h-6.73l-2.02-40.244Z" transform="translate(-547.615 -152.281)" fill="#fbeed1"/><path d="M547.615,166.137l2.026-6.114.224,1.878a18.414,18.414,0,0,1-.9,8.263l-1,2.857Z" transform="translate(-547.615 -156.77)" fill="#efb96d"/></g><path d="M503.255,167.934V164.8a5,5,0,0,1,.479-2.135l6.341-13.421-5.871-3.252-2.66,3.044a8.655,8.655,0,0,1-6.519,2.961h-4.239a8.657,8.657,0,0,1-6.519-2.961l-2.66-3.044-5.871,3.252,6.341,13.421a5,5,0,0,1,.479,2.135v3.138a5,5,0,0,1-.8,2.709,5,5,0,0,0-.433,4.584l.9,2.224h21.36l.9-2.224a5,5,0,0,0-.433-4.584A5,5,0,0,1,503.255,167.934Z" transform="translate(-471.124 -131.34)" fill="#fbeed1"/><rect width="0.872" height="15.868" transform="translate(21.346 20.665)" fill="#efb96d"/><path d="M482.226,220.872h0a31.165,31.165,0,0,0-2.931,10.225L475.737,264a10.133,10.133,0,0,0,10.181,1.036c1.87-.943,3.647-2.552,5.724-2.286,2.047.261,3.481,2.282,5.495,2.732,3.306.738,6.267-2.98,9.631-2.58a14.575,14.575,0,0,1,3.376,1.223,3.634,3.634,0,0,0,3.446-.115l-6.157-32.926a31.164,31.164,0,0,0-3.549-9.687l-.3-.524Z" transform="translate(-471.124 -174.761)" fill="#fbeed1"/><path d="M489.66,220.872l-.873,7.158a31.1,31.1,0,0,0-.229,3.772v14.528l1.431-11.926a31.15,31.15,0,0,0,.222-3.713v-6.567a.716.716,0,0,1,.716-.716h0a.716.716,0,0,1,.716.716V245.27a40.577,40.577,0,0,0,.883,8.418l.66,3.111.5-6.857a40.533,40.533,0,0,0,.084-4.364L493,223.4a1.083,1.083,0,0,1,1.082-1.121h0a1.083,1.083,0,0,1,1.083,1.083v8.16a15.2,15.2,0,0,0,.528,3.972l.9,3.339.706-2.882a15.192,15.192,0,0,0,.363-5.1l-.584-5.954a2.422,2.422,0,0,1,2.446-2.658h0a2.422,2.422,0,0,1,2.38,2.595L500.675,242.1a29.049,29.049,0,0,0,.814,9.206l.609,2.405,1.039-7.19a29.032,29.032,0,0,0,.3-4.156V225.335a.937.937,0,0,1,.937-.937h0a.937.937,0,0,1,.937.937v24.293a31.243,31.243,0,0,0,.565,5.912l1.2,6.217.763-7.964a31.25,31.25,0,0,0,.089-4.8l-1.444-24.732a1.124,1.124,0,0,1,1.122-1.189h0a1.124,1.124,0,0,1,1.123,1.123v8.325a17.622,17.622,0,0,0,.631,4.674l1.132,4.116.482-5.046a17.6,17.6,0,0,0-.043-3.753l-1.121-9.436a.4.4,0,0,1,.4-.445h0a.4.4,0,0,1,.4.358l.232,2.292a14.2,14.2,0,0,0,1.95,5.872l.132.221-.266-3.557a14.176,14.176,0,0,0-.463-2.686l-1.165-4.263Z" transform="translate(-478.558 -174.761)" fill="#efb96d"/></g><g transform="translate(152.399 31.392)"><path d="M457.8,143.839c-6.422,12.758-13.549,8.529-18.153,0V156.7H457.8Z" transform="translate(-428.127 -130.094)" fill="#4987e5"/><path d="M452.578,130.7l-19.419-10.6-.006-1.935a.8.8,0,0,1,.8-.8,3.117,3.117,0,1,0-.019-6.234l-.808,0a2.806,2.806,0,0,0-1.891.742h2.7a2.373,2.373,0,0,1,.014,4.746,1.547,1.547,0,0,0-1.542,1.551l.006,1.934-19.355,10.72a1.621,1.621,0,0,0,.522,3.018,1.661,1.661,0,0,0,.268.021l37.956-.115a1.621,1.621,0,0,0,.772-3.043Zm.073,1.638a.846.846,0,0,1-.847.661l-37.956.114a.876.876,0,0,1-.427-1.643l19.368-10.727,19.433,10.61A.846.846,0,0,1,452.651,132.337Z" transform="translate(-412.222 -111.124)" fill="#fff"/><path d="M454.144,195.285c-1.536-5.827-5.267-7.912-5.267-15.813s4.17-18.764,4.17-18.764c-8.084-5.45-3.493-15-3.493-15l-3.423-1.869c-2.411,9.956-6.671,11.566-9.076,11.566s-6.665-1.61-9.077-11.566l-3.423,1.869s4.591,9.55-3.493,15c0,0,4.17,10.863,4.17,18.764s-3.731,9.985-5.267,15.813,1.426,11.619.988,29.615c0,0,8.12,3.4,16.1,3.4s16.1-3.4,16.1-3.4C452.717,206.9,455.68,201.112,454.144,195.285Z" transform="translate(-416.453 -130.094)" fill="#65b2ff"/><path d="M453.249,144.628l-19.433-10.61-19.368,10.727a.876.876,0,0,0,.427,1.643l37.956-.114a.877.877,0,0,0,.418-1.646Z" transform="translate(-413.249 -124.399)" fill="none"/></g><g transform="translate(113.395 31.392)"><path d="M359.207,146.9c10.894,4.115,17.752,3.292,26.146,0v6.956H359.207Z" transform="translate(-342.478 -131.87)" fill="#cc6164"/><path d="M381.645,130.7l-19.419-10.6-.006-1.935a.8.8,0,0,1,.8-.8,3.117,3.117,0,1,0-.019-6.234l-.808,0a2.8,2.8,0,0,0-1.892.743H363a2.373,2.373,0,0,1,.014,4.746,1.546,1.546,0,0,0-1.542,1.551l.005,1.934-19.354,10.72a1.621,1.621,0,0,0,.521,3.018,1.664,1.664,0,0,0,.268.021l37.956-.115a1.621,1.621,0,0,0,.772-3.043Zm.073,1.638a.846.846,0,0,1-.847.661l-37.956.114a.876.876,0,0,1-.427-1.643l19.368-10.727,19.432,10.61A.846.846,0,0,1,381.718,132.337Z" transform="translate(-332.088 -111.124)" fill="#fff"/><g transform="translate(0 15.033)"><g transform="translate(47.117 0.583)"><path d="M433.545,163.838v7.635a16.39,16.39,0,0,1-.19,2.492l-.216,1.4a16.387,16.387,0,0,0,.209,6.089h0a16.393,16.393,0,0,1,.142,6.488l-1.847,10.306a7.123,7.123,0,0,0,1.123,5.262h0a2.617,2.617,0,0,0,2.164,1.145h3.97a4.679,4.679,0,0,0,3.833-2h0a7.119,7.119,0,0,0,1.187-5.273l-2.214-13.056a16.13,16.13,0,0,1,.045-5.647l.39-2.094a16.13,16.13,0,0,0-.829-8.808h0a16.112,16.112,0,0,1-1.047-4.528l-1-12.06a3.163,3.163,0,0,0-1.38-2.359h0a3.163,3.163,0,0,0-4.288.7l-.822,1.079Z" transform="translate(-431.532 -148.291)" fill="#e8916a"/><path d="M435.631,198.544c.292-2.334-.263-4.679-.579-7.011a15.778,15.778,0,0,1,.082-5.094,38.591,38.591,0,0,0,.69-8.676l-.078-3.312a11.113,11.113,0,0,0-1.787-5.783l.406,6.985v7.635a16.393,16.393,0,0,1-.19,2.492l-.216,1.4a16.4,16.4,0,0,0,.209,6.089,16.386,16.386,0,0,1,.143,6.488l-1.364,7.611q.592-2.052,1.306-4.065A22.817,22.817,0,0,0,435.631,198.544Z" transform="translate(-432.352 -160.107)" fill="#cc6164"/></g><path d="M378.9,179.516a7.024,7.024,0,0,1,.168-3.3l3.907-13.185-.768-13.223-5.486-2.908-1.532,1.765a11.756,11.756,0,0,1-8.879,4.05h-5.324a11.756,11.756,0,0,1-8.879-4.05l-1.532-1.765-5.486,2.908-.768,13.223,3.907,13.185a7.025,7.025,0,0,1,.168,3.3l-.408,2.165a7.027,7.027,0,0,0,2.039,6.37H377.27a7.027,7.027,0,0,0,2.039-6.37Z" transform="translate(-333.846 -146.903)" fill="#e8916a"/><g transform="translate(0 0.583)"><path d="M329.864,163.838v7.635a16.393,16.393,0,0,0,.19,2.492l.216,1.4a16.387,16.387,0,0,1-.209,6.089h0a16.393,16.393,0,0,0-.142,6.488l1.847,10.306a7.12,7.12,0,0,1-1.122,5.262h0a2.617,2.617,0,0,1-2.164,1.145h-3.97a4.68,4.68,0,0,1-3.834-2h0a7.12,7.12,0,0,1-1.187-5.273l2.214-13.056a16.138,16.138,0,0,0-.045-5.647l-.39-2.094a16.13,16.13,0,0,1,.829-8.808h0a16.125,16.125,0,0,0,1.047-4.528l1-12.06a3.162,3.162,0,0,1,1.38-2.359h0a3.163,3.163,0,0,1,4.288.7l.822,1.079Z" transform="translate(-319.389 -148.291)" fill="#e8916a"/><path d="M341.022,198.544c-.292-2.334.263-4.679.579-7.011a15.777,15.777,0,0,0-.082-5.094,38.591,38.591,0,0,1-.69-8.676l.078-3.312a11.116,11.116,0,0,1,1.787-5.783l-.405,6.985v7.635a16.39,16.39,0,0,0,.19,2.492l.216,1.4a16.388,16.388,0,0,1-.209,6.089,16.394,16.394,0,0,0-.142,6.488l1.364,7.611q-.592-2.052-1.306-4.065A22.814,22.814,0,0,1,341.022,198.544Z" transform="translate(-331.813 -160.107)" fill="#cc6164"/></g><path d="M345.775,244.84h0a46.233,46.233,0,0,0-6.4,20.855L337.028,304.9c-.413,1.874,2.572,4.341,4.473,4.6s3.773-.509,5.556-1.218,3.72-1.383,5.584-.925c2.237.549,3.751,2.551,5.292,4.264s3.678,3.365,5.926,2.864c3.606-.8,4.663-6.443,8.337-6.83,1.794-.189,3.4,1.026,5.143,1.5a6.708,6.708,0,0,0,8.068-5.34L380.5,264.844a46.225,46.225,0,0,0-6.93-19.144l-.55-.86Z" transform="translate(-329.594 -203.692)" fill="#e8916a"/><path d="M380.187,248.861l-.74,13.2a44.765,44.765,0,0,0,0,4.929l1.329,24.567,1.721-13.341a44.765,44.765,0,0,0,.338-7.373l-.818-22.311a1.864,1.864,0,0,1,1.863-1.933h0a1.864,1.864,0,0,1,1.864,1.9l-.655,34.621a56.877,56.877,0,0,0,.351,7.479l1.48,13.06.952-12.135q.219-2.787.163-5.585l-.822-41.1h-6.73Z" transform="translate(-354.173 -203.692)" fill="#cc6164"/><path d="M404.287,249.019l.581,19.995a49.8,49.8,0,0,0,1.36,10.2l1.57,6.53-.491-13.262a49.8,49.8,0,0,0-.446-5.055Z" transform="translate(-368.617 -206.115)" fill="#cc6164"/><path d="M412.2,350.7l-.113.922a27.841,27.841,0,0,0,2.015,14.294h0v-4.909a27.834,27.834,0,0,0-1.3-8.414Z" transform="translate(-373.02 -265.074)" fill="#cc6164"/><path d="M408.466,244.84l1.987,5.752a21.086,21.086,0,0,1,1.043,4.71l.784,7.552a26.2,26.2,0,0,0,3.354,10.369h0v-4.3a26.18,26.18,0,0,0-.684-5.946l-2.765-11.867a.927.927,0,0,1,.032-.528l.105-.289a.926.926,0,0,1,1.521-.341h0a.923.923,0,0,1,.245.426l1.552,6a11.339,11.339,0,0,0,2.515,4.706h0l-.768-4.79a11.324,11.324,0,0,0-.589-2.212l-3.489-9.238Z" transform="translate(-371.04 -203.692)" fill="#cc6164"/></g><path d="M382.316,144.628l-19.432-10.61-19.368,10.727a.876.876,0,0,0,.427,1.643l37.956-.114a.877.877,0,0,0,.417-1.646Z" transform="translate(-333.115 -124.399)" fill="none"/></g><g transform="translate(24.565 47.279)"><g transform="translate(67.733 106.241)"><path d="M274.555,408.645c-2.524,9.217-5.377,26.006-5.377,26.006H317.02c1.755-23.921-3.292-32.59-3.292-32.59Z" transform="translate(-269.178 -401.951)" fill="#e47790"/><g transform="translate(40.779)"><g transform="translate(0.394)"><path d="M370.977,433.012l-.438-.028c.742-11.721-.213-19.517-1.145-23.993a26.079,26.079,0,0,0-2.22-6.972l.379-.221a25.818,25.818,0,0,1,2.263,7.067C370.757,413.371,371.723,421.217,370.977,433.012Z" transform="translate(-367.174 -401.798)" fill="#ffaec7"/></g><g transform="translate(0 1.226)"><path d="M369.3,434.7l-.219-.013q.042-.665.076-1.314l.219.012Q369.347,434.031,369.3,434.7Zm.142-2.632-.219-.009q.03-.667.052-1.315l.22.008Q369.477,431.4,369.447,432.065Zm.091-2.634-.22-.005q.016-.667.025-1.316l.22,0Q369.554,428.762,369.538,429.431Zm.035-2.636h-.219v-.253q0-.538-.005-1.062l.219,0q.005.526.005,1.065Zm-.245-2.63q-.015-.67-.037-1.314l.219-.008q.023.647.037,1.317Zm-.092-2.628q-.033-.67-.073-1.313l.219-.014q.04.644.073,1.316Zm-.165-2.624q-.053-.672-.113-1.309l.219-.021q.061.639.113,1.313Zm-.249-2.617q-.076-.672-.159-1.305l.218-.029q.083.635.159,1.309Zm-.342-2.607q-.1-.673-.211-1.3l.216-.037q.11.626.212,1.3Zm-.452-2.588q-.135-.676-.273-1.285l.214-.049q.138.613.274,1.29Zm-.583-2.561c-.113-.436-.231-.862-.35-1.265l.21-.063c.121.406.24.834.353,1.273Zm-.75-2.514c-.151-.44-.306-.852-.46-1.227l.2-.083c.156.379.311.795.464,1.239Z" transform="translate(-366.236 -404.716)" fill="#ffaec7"/></g></g><path d="M313.476,441.112l-30.505.553c3.879.771,7.629,1.755,11.584,1.7l-7.941,2.794,6.751.423c.313.019.711.111.758.422s-.3.513-.595.616a38.321,38.321,0,0,1-6.2,1.267,13.31,13.31,0,0,0-5.879,2.2c.048.024.3-.068.353-.043h33.584a42.617,42.617,0,0,0-12.435-2.554,2.785,2.785,0,0,1-1.409-.3.921.921,0,0,1-.354-1.248,1.341,1.341,0,0,1,.968-.385l11.4-1.252A65.341,65.341,0,0,1,300,443.087,51.411,51.411,0,0,0,313.476,441.112Z" transform="translate(-276.292 -424.594)" fill="#d65b70"/><path d="M294.774,416.743c3.418-2.124,5.989-5.507,9.619-7.246a23.679,23.679,0,0,1,7.08-1.769,29.232,29.232,0,0,0,7.14-1.561,11.924,11.924,0,0,0,1.3-.624,18.179,18.179,0,0,0-1.35-3.483l-39.173,6.584c-.621,2.269-1.263,5-1.876,7.82A16.515,16.515,0,0,0,294.774,416.743Z" transform="translate(-274.009 -401.951)" fill="#422c4f" opacity="0.3"/></g><g transform="translate(93.12)"><path d="M334.5,157.795a19.376,19.376,0,0,1,5.429-6.6,10.8,10.8,0,0,1,8.114-2.118c4.409.8,7.614,5.013,8.412,9.422s-.38,8.943-2.013,13.116-3.735,8.179-4.909,12.5a13.581,13.581,0,0,0-.547,5.389,6.482,6.482,0,0,0,2.659,4.572,4.308,4.308,0,0,0,5.073-.173,15.205,15.205,0,0,1-9.66,7.193,14.606,14.606,0,0,1-11.591-2.183,13.229,13.229,0,0,1-2.984-2.836c-2.586-3.4-3.207-7.964-2.735-12.212s1.927-8.314,3.134-12.415S335.024,162.037,334.5,157.795Z" transform="translate(-329.601 -148.936)" fill="#454f6b"/><path d="M341.331,201.559c-1.044-3.329-.236-6.945.874-10.253,1.177-3.507,2.691-6.909,3.58-10.5s1.115-7.482-.268-10.914-4.646-6.267-8.345-6.332a7.887,7.887,0,0,0-1.034.056,25.943,25.943,0,0,0-1.64,2.658c.525,4.242-.411,9.558-1.618,13.658s-2.661,8.167-3.134,12.415.149,8.808,2.735,12.211a13.221,13.221,0,0,0,2.984,2.837,14.606,14.606,0,0,0,11.591,2.183,15.441,15.441,0,0,0,3.291-1.214,9.367,9.367,0,0,1-2.066-.266A9.928,9.928,0,0,1,341.331,201.559Z" transform="translate(-329.601 -157.415)" fill="#422c4f"/></g><g transform="translate(72.452 33.491)"><g transform="translate(13.636)"><path d="M312.906,245.039c.187,2.054,1.142,4.141,2.771,4.917,1.493.711,3.2.2,4.678-.564a18.785,18.785,0,0,0,8.124-8.819l-3.99-.513V228.648l-8.693,6v5.194l-2.359-.134A17.844,17.844,0,0,0,312.906,245.039Z" transform="translate(-312.862 -228.648)" fill="#bd6c67"/><path d="M319.844,239.707c3.84,1.134,8.693-3.255,8.3-10.406l-8.3,5.724Z" transform="translate(-316.911 -229.027)" fill="#422c4f"/></g><path d="M314.021,299.652c0-7.9,4.287-17,4.287-36l-5.823-7.668-2.826-.363a18.784,18.784,0,0,1-8.124,8.819c-1.474.764-3.185,1.275-4.678.564-1.629-.776-2.584-2.864-2.771-4.917a17.846,17.846,0,0,1,.531-5.333l-2.777-.158-9.5,20.485a7.966,7.966,0,0,0,.706,7.927l1.97,2.807v22.846l-4.609,19.173c14.3,8.253,21.47-5.5,28.493-6.817s10.1-1.463,12.582-3.511C318.7,307.992,314.021,307.553,314.021,299.652Z" transform="translate(-280.408 -243.69)" fill="#6c6fc3"/><path d="M319.911,270.428l-9.042-3.266-2.429-.877-5.4,5.82-8.849,9.531v2.048l-6.4,6.76,1.508,2.148v18.492l16.12-17.561h2.863l12.552-18.6Z" transform="translate(-284.688 -250.471)" fill="#422c4f" opacity="0.3"/></g><g transform="translate(16.441 7.142)"><path d="M161.34,169.986,148.84,166a1.336,1.336,0,0,0-1.7.955h0a1.335,1.335,0,0,0,.669,1.495l.731.39.057,2.5a3.386,3.386,0,0,0,2.2,3.095l4.176,1.558a12.008,12.008,0,0,0,5.726.658h0Z" transform="translate(-147.098 -165.934)" fill="#a64f5a"/><g transform="translate(13.6 7.825)"><path d="M214.113,211.06l-9.243-2.411-20.637-24.091-4.765,2.888,16.159,24.933a11.51,11.51,0,0,0,6.556,4.824l9.205,2.577a11.275,11.275,0,0,1,2.349-8.244Z" transform="translate(-179.468 -184.558)" fill="#bd6c67"/><path d="M255.075,247.289l-.961-.251a10.517,10.517,0,0,0-4,8.344l2.239.627a11.275,11.275,0,0,1,2.349-8.244Z" transform="translate(-220.43 -220.787)" fill="#422c4f"/></g></g><g transform="translate(67.733 45.584)"><path d="M306.785,276.391l2.181,3.776a11.449,11.449,0,0,0,6.415,5.177l2.707.87,13.759-16.425a7.525,7.525,0,0,0-1.4-10.96h0a7.526,7.526,0,0,0-10.156,1.316Z" transform="translate(-290.984 -257.43)" fill="#6c6fc3"/><path d="M285.863,306.2l1.3,2.244a11.449,11.449,0,0,0,6.415,5.177h0l-9.2,9.576a12.811,12.811,0,0,1-9.237,3.934h-5.955v-9.844l6.913-.621Z" transform="translate(-269.178 -285.712)" fill="#bd6c67"/><path d="M308.153,306.2l1.3,2.244a11.449,11.449,0,0,0,6.415,5.177h0l-2.325,2.419h0a7.276,7.276,0,0,1-4.295-4.465l-1.625-4.8Z" transform="translate(-291.468 -285.712)" fill="#422c4f"/></g><path d="M154.722,184.482l-24.567-8.79-.362-2.252a.947.947,0,0,1,.784-1.084,3.676,3.676,0,0,0-1.165-7.259l-.941.151a3.331,3.331,0,0,0-2.757,3.812l.082.507a.439.439,0,0,0,.867-.139l-.082-.507a2.452,2.452,0,0,1,2.03-2.806l.941-.151a2.8,2.8,0,0,1,.887,5.525,1.824,1.824,0,0,0-1.512,2.09l.362,2.252L108.708,191.87a1.912,1.912,0,0,0,1.161,3.42,1.98,1.98,0,0,0,.316-.026l44.2-7.1a1.911,1.911,0,0,0,.341-3.687Zm.385,1.894a1,1,0,0,1-.866.926l-44.2,7.1a1.034,1.034,0,0,1-.8-1.836l20.6-16.049,24.584,8.8A1,1,0,0,1,155.108,186.377Z" transform="translate(-107.966 -158.279)" fill="#fff"/><g transform="translate(4.529 22.006)"><path d="M120.137,208.043l2.487,9.583-3.877,10.461,10.4,10.544a13.921,13.921,0,0,1,3.586,6.37l.17.675a13.924,13.924,0,0,1-.11,7.222l-6.336,22.228a11.661,11.661,0,0,0,1.807,10.087l3.055,4.171a2.194,2.194,0,0,0,2.9.585l15.109-9.065-6.288,21.045a3.072,3.072,0,0,0,2.07,3.825l8.841,2.623a3.072,3.072,0,0,0,2.77-.529l10.309-8.091,10.214,3.052a4.828,4.828,0,0,0,4.512-.95l12.108-10.31a2.2,2.2,0,0,1,1.549-.52l5.346.308a2.194,2.194,0,0,0,2.05-1.135l2.827-5.149a2.195,2.195,0,0,0-.036-2.175l-11.107-18.735a3.511,3.511,0,0,1-.474-1.447l-.56-5.7A4.389,4.389,0,0,0,191,253.5l-5.254-2.545a4.389,4.389,0,0,0-3.8-.014l-9.894,4.7-8.079-8.18a13.924,13.924,0,0,1-3.757-7.1l-.087-.447a13.911,13.911,0,0,1,.088-5.773l3.513-15.411-9.144-7.672-1.317-9.373-1.683-.366.878,9.876-3.148,2.465a31.681,31.681,0,0,0-5.238,5.192l-2,2.51h0a31.677,31.677,0,0,0-14.386-4.386l-2.659-.15-3.657-10.168Z" transform="translate(-118.747 -201.313)" fill="#7dd3e9"/><path d="M191.642,327.9l-6.73,3.2-8.54,1.363-23.848,26.408,3.63-9.95a3.511,3.511,0,0,1,2.334-2.173l4.936-1.41,10.972-14.43a3.511,3.511,0,0,1,2.912-1.384l6.965.232,5.43-3.82Z" transform="translate(-138.333 -273.576)" fill="#5fa5cc"/><path d="M172.41,370.611l4.359-14.589-6.323,12.857a1.142,1.142,0,0,1-1.96.152h0a1.142,1.142,0,0,0-1.821-.066l-8.106,9.956Z" transform="translate(-141.832 -291.021)" fill="#5fa5cc"/><path d="M205.644,431.746l-8.886-2.656a4.388,4.388,0,0,0-3.565.472l-7.848,4.854,6.941.731a4.388,4.388,0,0,0,2.621-.545l5.854-3.312,1.918.462a4.39,4.39,0,0,0,1.339.111Z" transform="translate(-157.363 -333.282)" fill="#454f6b"/><path d="M222.469,348.958v24.125a20,20,0,0,0,1.14,6.658c.328.93.607,1.729.635,1.843.045.18.784-3.776,1.345-6.841a20.009,20.009,0,0,0,.05-6.922Z" transform="translate(-178.89 -286.925)" fill="#5fa5cc"/><path d="M235.226,343.387l6.92,26.592a24.34,24.34,0,0,0,3.086,7.039l1.479,2.3-.218-5.76a24.352,24.352,0,0,0-.463-3.889l-2.245-11.139,4.316,6.657-4.023-21.214-.658,12.655Z" transform="translate(-186.287 -283.694)" fill="#5fa5cc"/><path d="M267.35,360.014l11.082,14.375,3.182,6.364-.49-3.824a13.141,13.141,0,0,0-4.111-7.976Z" transform="translate(-204.914 -293.335)" fill="#5fa5cc"/><path d="M183.779,302.862a55.485,55.485,0,0,0-22.616,6.087,43.657,43.657,0,0,1,8.716-5.986,15.059,15.059,0,0,1,5.564-1.811A19.674,19.674,0,0,1,183.779,302.862Z" transform="translate(-143.342 -259.187)" fill="#5fa5cc"/><path d="M182.9,311.121a57.084,57.084,0,0,0-13.515,4.938A25.949,25.949,0,0,0,182.9,311.121Z" transform="translate(-148.109 -264.985)" fill="#5fa5cc"/><path d="M164.357,333.652a50.423,50.423,0,0,0-12.182,6.138,8.853,8.853,0,0,0,5.016-.869C159.662,337.617,161.827,334.837,164.357,333.652Z" transform="translate(-138.13 -278.05)" fill="#5fa5cc"/><path d="M151.068,268.39c-1.833,1.906-3.756,3.873-6.24,4.778a8.815,8.815,0,0,1-6.655-.285c1.863,1.037,3.745,2.211,5.867,2a7.2,7.2,0,0,0,4.266-2.237A23.019,23.019,0,0,0,151.068,268.39Z" transform="translate(-130.011 -240.207)" fill="#5fa5cc"/><path d="M195.557,262.145a11.27,11.27,0,0,1-14.318,1.111c1.6,1.5,3.3,3.266,5.474,3.588a7.326,7.326,0,0,0,4.781-1.158A25.276,25.276,0,0,0,195.557,262.145Z" transform="translate(-154.983 -236.586)" fill="#5fa5cc"/></g><g transform="translate(61.891 40.294)"><path d="M277.266,248.936l-18.272-4.1-1.3,1.65a11.275,11.275,0,0,0-2.349,8.244l.138,1.225,16.017,5.412Z" transform="translate(-255.272 -244.84)" fill="#6c6fc3"/><path d="M289.695,272.779l3.833-8.266s-6.319,1.453-6.876,7.238Z" transform="translate(-273.468 -256.247)" fill="#56438c"/></g><g transform="translate(73.605 3.398)"><path d="M289.369,183.1a10.878,10.878,0,0,1-6.163-8.9,14.248,14.248,0,0,1,3.582-10.45,20.839,20.839,0,0,1,9.479-5.983,11.841,11.841,0,0,1,5.292-.667,5.632,5.632,0,0,1,4.3,2.872,8.663,8.663,0,0,1,6.991,1.956,12.313,12.313,0,0,1,3.936,6.216,15.677,15.677,0,0,1-13.962,19.99C298.179,188.466,293.639,184.958,289.369,183.1Z" transform="translate(-283.152 -157.022)" fill="#454f6b"/><g transform="translate(4.078 13.854)"><path d="M292.857,197.9l2.209,10.471a9.122,9.122,0,0,0,8.456,7.227h0a9.122,9.122,0,0,0,7.239-2.994l.225-.249a9.123,9.123,0,0,0,2.354-6.116v-.074h0a3.411,3.411,0,0,1-1.317-2.692v-1.624h0a13.484,13.484,0,0,1-5.463-10.591L306.536,190A19.094,19.094,0,0,1,292.857,197.9Z" transform="translate(-292.857 -189.996)" fill="#bd6c67"/><path d="M340.535,220.376a6.265,6.265,0,0,1,3.239-5.538,3.113,3.113,0,0,1,2.325-.357,2.641,2.641,0,0,1,1.675,2.162,5.193,5.193,0,0,1-.5,2.8,6.509,6.509,0,0,1-1.836,2.547,3.767,3.767,0,0,1-2.961.835A2.69,2.69,0,0,1,340.535,220.376Z" transform="translate(-320.502 -204.136)" fill="#bd6c67"/><path d="M348.757,219.164a2.024,2.024,0,0,0-1.986-.579,2.776,2.776,0,0,0-1.671,1.3,4.484,4.484,0,0,0-.569,2.078,1.669,1.669,0,0,0,.633,1.619,1.232,1.232,0,0,0,1.439-.371,2.818,2.818,0,0,0,.56-1.48,2.364,2.364,0,0,0-.084-1.258.989.989,0,0,0-1-.638,1.764,1.764,0,0,1,1.165-.921A1.868,1.868,0,0,1,348.757,219.164Z" transform="translate(-322.818 -206.538)" fill="#a64f5a"/><path d="M322.247,209.742l-5.564-.823a3.8,3.8,0,0,1,2.807-.821A4.555,4.555,0,0,1,322.247,209.742Z" transform="translate(-306.672 -200.477)" fill="#454f6b"/><path d="M321.536,217.452h0a.713.713,0,0,1-.713-.713v-.763a.713.713,0,0,1,.713-.713h0a.713.713,0,0,1,.713.713v.763A.713.713,0,0,1,321.536,217.452Z" transform="translate(-309.073 -204.647)" fill="#422c4f"/><path d="M296.138,209.742l4.107-.823a2.331,2.331,0,0,0-2.071-.821A3.356,3.356,0,0,0,296.138,209.742Z" transform="translate(-294.759 -200.477)" fill="#454f6b"/><path d="M300.877,217.452h0a.526.526,0,0,0,.526-.526v-1.137a.526.526,0,0,0-.526-.526h0a.526.526,0,0,0-.526.526v1.137A.526.526,0,0,0,300.877,217.452Z" transform="translate(-297.202 -204.647)" fill="#422c4f"/><path d="M309.995,229.3h-3.21a1.632,1.632,0,0,0,1.569.947A3.744,3.744,0,0,0,309.995,229.3Z" transform="translate(-300.933 -212.787)" fill="#a64f5a"/><path d="M315.052,232.849l-8.833,1.209a3.946,3.946,0,0,0,2.74,2.253,4.971,4.971,0,0,0,3.485-.625A8.322,8.322,0,0,0,315.052,232.849Z" transform="translate(-300.605 -214.844)" fill="#fff"/></g></g><path d="M169.775,178.2l-2.337-2.357a5.575,5.575,0,0,0-3.957-1.649h-8.432a2.884,2.884,0,0,0,2.563,2.866l2.814.316c.768,3.237,4.883,4.06,4.883,4.06l4.765-2.888Z" transform="translate(-135.267 -163.582)" fill="#bd6c67"/></g></g></g></g></svg>