<svg xmlns="http://www.w3.org/2000/svg" width="35" height="40" viewBox="0 0 35 40"><g transform="translate(0 0)"><path d="M816.6,2604.383a2.507,2.507,0,0,0-2.5,2.5v35a2.508,2.508,0,0,0,2.5,2.5h25a2.507,2.507,0,0,0,2.5-2.5v-27.5l-10-10Z" transform="translate(-809.101 -2604.383)" fill="#f2f2f2"/><path d="M835.938,2648.746a1.25,1.25,0,0,1-1.25,1.25h-27.5a1.25,1.25,0,0,1-1.25-1.25v-12.5a1.25,1.25,0,0,1,1.25-1.249h27.5a1.25,1.25,0,0,1,1.25,1.249Z" transform="translate(-805.938 -2616.246)" fill="#db311c"/><g transform="translate(5.449 22.993)"><path d="M814.834,2642.614a.688.688,0,0,1,.679-.69h2.309a2.5,2.5,0,0,1,0,5h-1.668v1.32a.624.624,0,0,1-.557.685.552.552,0,0,1-.083,0,.673.673,0,0,1-.679-.668v-5.65Zm1.319.568v2.49h1.669a1.25,1.25,0,0,0,0-2.49Z" transform="translate(-814.834 -2641.924)" fill="#fff"/><path d="M826.5,2648.98a.625.625,0,0,1-.687-.556c0-.023,0-.046,0-.069v-5.678a.679.679,0,0,1,.69-.625h2.289c4.568,0,4.468,6.916.09,6.916Zm.625-5.7v4.478h1.659c2.7,0,2.819-4.478,0-4.478Z" transform="translate(-819.089 -2641.974)" fill="#fff"/><path d="M839.789,2643.371v1.588h2.548a.773.773,0,0,1,.72.709.7.7,0,0,1-.72.6h-2.548v2.1a.592.592,0,0,1-.565.618h-.033a.635.635,0,0,1-.705-.557c0-.02,0-.041,0-.062v-5.677a.632.632,0,0,1,.633-.63.734.734,0,0,1,.077,0H842.7a.626.626,0,0,1,.7.546.669.669,0,0,1,0,.08.69.69,0,0,1-.7.68h-2.911Z" transform="translate(-823.997 -2641.976)" fill="#fff"/></g><path d="M837.851,2658.7H814.1v1.25h23.75a1.25,1.25,0,0,0,1.25-1.25v-1.25A1.25,1.25,0,0,1,837.851,2658.7Z" transform="translate(-809.101 -2624.945)" fill="#e6e6e6"/><path d="M849.255,2614.383h7.5l-10-10v7.5A2.508,2.508,0,0,0,849.255,2614.383Z" transform="translate(-821.755 -2604.383)" fill="#b3b3b3"/></g></svg>