<svg xmlns="http://www.w3.org/2000/svg" width="250" height="100" viewBox="0 0 250 100"><g transform="translate(-1027.44 -675.884)"><path d="M1149.669,713.174a31.271,31.271,0,1,0,7.778,56.192l12.822-35.92a31.236,31.236,0,0,0-20.6-20.272Z" fill="#7fb3fa"/><path d="M1144.873,767.991a31.272,31.272,0,0,1-8.132-55.963,31.274,31.274,0,1,0,20.706,57.338l.071-.2A31.142,31.142,0,0,1,1144.873,767.991Z" fill="#64a6f4"/><circle cx="20.46" cy="20.46" r="20.46" transform="translate(1150.367 733.437)" fill="#ff94d5"/><path d="M1178.257,769.58a20.455,20.455,0,0,1-14.512-34.879,20.462,20.462,0,1,0,21.609,33.617A20.412,20.412,0,0,1,1178.257,769.58Z" fill="#ff72c7"/><circle cx="4.338" cy="4.338" r="4.338" transform="translate(1172.616 677.301)" fill="#ff94d5"/><circle cx="4.338" cy="4.338" r="4.338" transform="translate(1186.894 685.893)" fill="#ff94d5"/><path d="M1176.958,681.639a4.336,4.336,0,0,1,2.169-3.756,4.338,4.338,0,1,0,0,7.513A4.333,4.333,0,0,1,1176.958,681.639Z" fill="#ff72c7"/><path d="M1191.233,690.232a4.336,4.336,0,0,1,2.169-3.756,4.338,4.338,0,1,0,0,7.513A4.333,4.333,0,0,1,1191.233,690.232Z" fill="#ff72c7"/><path d="M1191.269,696.1a5.811,5.811,0,1,0-4.783-2.518l-22.639,26.121,12.482-32.235a5.81,5.81,0,1,0-2.727-1.06l-12.2,31.5a32.739,32.739,0,1,0-4.029,53.312,21.923,21.923,0,0,0,30.115-31.567,1.469,1.469,0,1,0-2.361,1.747,1.323,1.323,0,0,0,.143.165,18.906,18.906,0,0,1,1.541,2.058,29.06,29.06,0,0,1-14.916,4.87,25.22,25.22,0,0,1,6.385-12.028,18.963,18.963,0,0,1,2.021,1,1.469,1.469,0,0,0,1.456-2.542,21.971,21.971,0,0,0-10.406-2.878,32.765,32.765,0,0,0-5.718-9.93L1188.7,695.5a5.762,5.762,0,0,0,2.568.6Zm-14.278-17.269a2.874,2.874,0,1,1-2.874,2.874h0A2.878,2.878,0,0,1,1176.991,678.833Zm-16.712,41.975-2.111,5.454-9.535,11.005a46.006,46.006,0,0,1-5.293-1.154,39.3,39.3,0,0,1,15.935-16.154q.51.414,1,.848Zm-10.734,28.063a45.8,45.8,0,0,1-10.1-1.766,40.286,40.286,0,0,1,2.607-8.325,48.576,48.576,0,0,0,11.372,1.908A21.718,21.718,0,0,0,1149.545,748.871Zm.276,11.213q-.915.02-1.827,0l1.154-3.2q.1.724.239,1.434c.007.039.015.076.023.114q.174.84.413,1.655Zm-1.922-8.4-2.959,8.241a45.669,45.669,0,0,1-6.021-.934,39.046,39.046,0,0,1-.194-5.822l2.271-2.623a48.529,48.529,0,0,0,6.9,1.138Zm4,1.45a32.27,32.27,0,0,0,3.19,2,28.252,28.252,0,0,0,.566,4.572,29.457,29.457,0,0,1-3.486-2.418,18.825,18.825,0,0,1-.272-4.153Zm3.251-1.356a29.529,29.529,0,0,1-2.812-1.975,18.874,18.874,0,0,1,1.062-3.287q1.14.719,2.339,1.34a28.209,28.209,0,0,0-.588,3.922Zm-.387-7.867a19.131,19.131,0,0,1,4.72-5.14,28.64,28.64,0,0,0-2.945,6.2q-.9-.5-1.775-1.053Zm-1.054-6.14q-.781-.033-1.561-.094l2.887-3.332Zm-19.377-23.79a42.418,42.418,0,0,0-10.606,10.78,45.826,45.826,0,0,1-3.3-3.61A30.123,30.123,0,0,1,1134.333,713.98Zm-15.985,9.259a48.861,48.861,0,0,0,3.776,4.051,42.308,42.308,0,0,0-3.291,7.085,45.845,45.845,0,0,1-4.414-5.575A29.481,29.481,0,0,1,1118.348,723.239Zm-5.379,8.609a48.7,48.7,0,0,0,4.859,5.71,42.452,42.452,0,0,0-1.453,8.956,45.646,45.646,0,0,1-5.444-6.69A29.882,29.882,0,0,1,1112.969,731.848Zm-2.188,12.753a48.471,48.471,0,0,0,5.569,5.944,42.467,42.467,0,0,0,2.706,13.238A29.974,29.974,0,0,1,1110.781,744.6Zm24,27.787a39.355,39.355,0,0,1-4.832-29.37,1.468,1.468,0,1,0-2.807-.863,1.423,1.423,0,0,0-.049.216,42.21,42.21,0,0,0,3.722,28.941,29.678,29.678,0,0,1-6.5-3.172,39.649,39.649,0,0,1,15.21-53.971q.777-.437,1.573-.836a29.887,29.887,0,0,1,7.157,1.016,42.313,42.313,0,0,0-18.9,20.948,1.468,1.468,0,1,0,2.647,1.272,1.367,1.367,0,0,0,.06-.142,39.434,39.434,0,0,1,20.079-20.743,29.68,29.68,0,0,1,4.528,2.387,42.512,42.512,0,0,0-20.811,33.939l-4.432,5.113a1.468,1.468,0,0,0,2.071,2.082,1.383,1.383,0,0,0,.142-.163l2.164-2.5a42.271,42.271,0,0,0,4.083,16.4,29.691,29.691,0,0,1-5.1-.557Zm8.313.457a39.712,39.712,0,0,1-3.717-10.768q2.258.453,4.54.687l-1.429,3.978a1.469,1.469,0,1,0,2.684,1.194,1.438,1.438,0,0,0,.073-.2l1.707-4.753c1.211.049,2.346.067,3.935,0a21.949,21.949,0,0,0,4.19,6.189,29.8,29.8,0,0,1-11.983,3.672Zm10.518-10.954a32.46,32.46,0,0,0,3.155,1.714,28.569,28.569,0,0,0,2.727,5.559,19.116,19.116,0,0,1-5.874-7.269Zm24.663,9.565a25.533,25.533,0,0,1-3.707-5,32.411,32.411,0,0,0,13.806-5.111,19.111,19.111,0,0,1-10.1,10.113Zm11.591-17.492a19.056,19.056,0,0,1-.2,2.742,29.431,29.431,0,0,1-16.46,6.947,25.115,25.115,0,0,1-1.4-4.6,32.234,32.234,0,0,0,18.008-6.345c.028.419.047.836.047,1.257Zm-1.657-7.75a19,19,0,0,1,1.094,3.177,29.3,29.3,0,0,1-17.905,6.746,25.888,25.888,0,0,1,.03-4.693,31.977,31.977,0,0,0,16.783-5.231Zm-15.184-11.119a19.115,19.115,0,0,1,2.2.381,28.352,28.352,0,0,0,0,36.978,18.841,18.841,0,0,1-2.2.381,25.453,25.453,0,0,1,0-37.741Zm-4.1,37.762a18.809,18.809,0,0,1-3.173-.6,25.407,25.407,0,0,1-.664-35.925q.327-.339.664-.664a18.767,18.767,0,0,1,3.178-.6,28.369,28.369,0,0,0,0,37.792Zm-.658-40.667a21.828,21.828,0,0,0-11.05,4.615l3.491-9.013,2.978-3.427a29.849,29.849,0,0,1,4.586,7.831Zm23-44.765a2.874,2.874,0,1,1-2.875,2.874h0A2.878,2.878,0,0,1,1191.269,687.425Z"/><rect width="250" height="100" transform="translate(1027.44 675.884)" fill="none"/><rect width="248.879" height="98.077" transform="translate(1028.001 676.846)" fill="none"/></g></svg>