<svg xmlns="http://www.w3.org/2000/svg" width="119.73" height="119.731" viewBox="0 0 119.73 119.731"><g transform="translate(-980.033 -227.455)"><g style="isolation:isolate"><g style="isolation:isolate"><path d="M1042.4,324.07q-12.8,0-19.5-6.5t-6.7-19h14.2a16.25,16.25,0,0,0,2.75,9.4q2.649,3.7,8.95,3.7,5.4,0,8.25-3a10.722,10.722,0,0,0,2.85-7.7,10.288,10.288,0,0,0-1.2-5.25,9.277,9.277,0,0,0-3-3.2,11.055,11.055,0,0,0-3.8-1.55,18.611,18.611,0,0,0-3.6-.4h-2.3v-10.6h2.1a9.578,9.578,0,0,0,6.85-2.5,8.648,8.648,0,0,0,2.65-6.6,7.473,7.473,0,0,0-2.5-5.9,10.46,10.46,0,0,0-13.8.85q-2.7,3.053-2.7,8.45v.6l-14-1.4a26.188,26.188,0,0,1,1.7-9.7,19.508,19.508,0,0,1,4.8-7.2,21.143,21.143,0,0,1,7.45-4.45,28.915,28.915,0,0,1,9.75-1.55,25.6,25.6,0,0,1,8.95,1.5,22.572,22.572,0,0,1,7,4.05,18.153,18.153,0,0,1,4.6,6.05,17.144,17.144,0,0,1,1.65,7.4,16.561,16.561,0,0,1-.85,5.45,16.309,16.309,0,0,1-2.2,4.3,14.727,14.727,0,0,1-3,3.1,12.994,12.994,0,0,1-3.25,1.85,17.8,17.8,0,0,1,4.7,1.95,16.159,16.159,0,0,1,4.1,3.45,16.459,16.459,0,0,1,2.9,5.1,20.318,20.318,0,0,1,1.1,7,22.492,22.492,0,0,1-1.8,9.05,19.964,19.964,0,0,1-5.05,7.05,23.59,23.59,0,0,1-7.85,4.55A30.038,30.038,0,0,1,1042.4,324.07Z" fill="none" stroke="#b492f1" stroke-linecap="round" stroke-linejoin="round" stroke-width="2.835"/></g></g><circle cx="58.448" cy="58.448" r="58.448" transform="translate(981.451 228.872)" fill="none" stroke="#b492f1" stroke-width="2.835"/></g></svg>