<svg xmlns="http://www.w3.org/2000/svg" width="76.25" height="78.345" viewBox="0 0 76.25 78.345"><g transform="translate(-6.845)"><g transform="translate(8.067 1.224)"><g transform="translate(0 4.833)"><path d="M65.349,52.55A12.173,12.173,0,0,0,53.176,64.723v6.785a12.173,12.173,0,1,0,24.347,0V64.723A12.173,12.173,0,0,0,65.349,52.55Z" transform="translate(-47.308 -50.566)" fill="#fdd4bb"/><path d="M65.349,170.618a12.173,12.173,0,0,1-12.173-12.173V161.2a12.173,12.173,0,0,0,24.347,0v-2.754a12.174,12.174,0,0,1-12.173,12.173Z" transform="translate(-47.308 -140.257)" fill="#f7c4a8"/><path d="M20.7,126.805c0-.179.006-.357.013-.535a4.074,4.074,0,1,0-.014,7.309v-6.775Z" transform="translate(-14.829 -112.648)" fill="#ebbaa1"/><path d="M212.211,126.805c0-.179-.006-.357-.013-.535a4.074,4.074,0,1,1,.013,7.309Z" transform="translate(-181.997 -112.648)" fill="#ebbaa1"/><g transform="translate(0 15.897)"><path d="M15.069,143.471a4.075,4.075,0,0,0,5.628,5.035v-2.754a4.075,4.075,0,0,1-5.628-2.281Z" transform="translate(-14.83 -143.471)" fill="#e8a990"/></g><g transform="translate(30.214 15.897)"><path d="M214.08,146.168a4.058,4.058,0,0,1-1.794-.416v2.754a4.075,4.075,0,0,0,5.628-5.035A4.075,4.075,0,0,1,214.08,146.168Z" transform="translate(-212.286 -143.471)" fill="#e8a990"/></g><g transform="translate(8.112)"><path d="M115.843,52.447h5.168v5.168h-5.168Z" transform="translate(-108.498 -50.478)" fill="#f68acc"/><path d="M75.186,46.719s-7.345,5.834-7.345-2.584,7.345-2.584,7.345-2.584Z" transform="translate(-67.841 -39.582)" fill="#ffa6d4"/><path d="M149.661,46.719s7.345,5.834,7.345-2.584-7.345-2.584-7.345-2.584Z" transform="translate(-137.141 -39.582)" fill="#ffa6d4"/></g><path d="M115.843,68.223h5.168v2.754h-5.168Z" transform="translate(-100.386 -63.84)" fill="#dd7fbb"/><g transform="translate(8.112 3.176)"><path d="M67.919,60.335a11.256,11.256,0,0,0-.078,1.377c0,8.418,7.345,2.584,7.345,2.584V61.542S68.7,66.689,67.919,60.335Z" transform="translate(-67.841 -60.335)" fill="#f690d2"/><path d="M149.661,61.542V64.3s7.345,5.834,7.345-2.584a11.256,11.256,0,0,0-.078-1.377C156.142,66.689,149.661,61.542,149.661,61.542Z" transform="translate(-137.141 -60.335)" fill="#f690d2"/></g></g><g transform="translate(35.075)"><path d="M295.021,26.644S296.928,8,278.881,8s-16.14,18.644-16.14,18.644Z" transform="translate(-259.832 -8)" fill="#af665a"/><path d="M250.922,176.219v-.01s-7.977,3.32-6.74,12.186c0,0,6.871.619,9.487-4.472h0A12.125,12.125,0,0,1,250.922,176.219Z" transform="translate(-244.052 -150.47)" fill="#af665a"/><path d="M432.88,176.219v-.01s7.977,3.32,6.74,12.186c0,0-6.871.619-9.487-4.472h0A12.124,12.124,0,0,0,432.88,176.219Z" transform="translate(-401.659 -150.47)" fill="#af665a"/><path d="M244.09,220.926a12.7,12.7,0,0,0,.094,2.754s6.871.619,9.487-4.472h0a12.206,12.206,0,0,1-.95-1.338C249.7,221.392,244.18,220.934,244.09,220.926Z" transform="translate(-244.054 -185.755)" fill="#a05c53"/><path d="M431.083,217.87a12.244,12.244,0,0,1-.95,1.338h0c2.616,5.091,9.487,4.472,9.487,4.472a12.714,12.714,0,0,0,.094-2.754C439.625,220.934,434.1,221.393,431.083,217.87Z" transform="translate(-401.659 -185.756)" fill="#a05c53"/><path d="M313.3,84.885v7.328a12.175,12.175,0,0,1-24.351,0V84.885c7.376-.86,16.142-7.859,16.142-7.859S309.373,83.118,313.3,84.885Z" transform="translate(-282.08 -66.464)" fill="#fdd4bb"/><path d="M301.125,170.451a12.175,12.175,0,0,1-12.175-12.175v2.754a12.175,12.175,0,0,0,24.351,0v-2.754A12.175,12.175,0,0,1,301.125,170.451Z" transform="translate(-282.08 -135.281)" fill="#f7c4a8"/><path d="M448.088,126.085a4.075,4.075,0,1,1,0,7.318Z" transform="translate(-416.867 -107.664)" fill="#ebbaa1"/><path d="M256.467,126.085a4.075,4.075,0,1,0,0,7.318Z" transform="translate(-249.596 -107.664)" fill="#ebbaa1"/><path d="M449.882,146a4.058,4.058,0,0,1-1.794-.416v2.754a4.076,4.076,0,0,0,5.629-5.036A4.076,4.076,0,0,1,449.882,146Z" transform="translate(-416.867 -122.595)" fill="#e8a990"/><path d="M250.836,143.3a4.075,4.075,0,0,0,5.629,5.036V145.58a4.076,4.076,0,0,1-5.629-2.282Z" transform="translate(-249.596 -122.595)" fill="#e8a990"/></g><g transform="translate(0 37.948)"><path d="M191.832,423.137a4.076,4.076,0,0,1-3.889.164v.01a12.15,12.15,0,0,1-4.4,9.372,6.53,6.53,0,1,0,8.294-9.547Z" transform="translate(-157.723 -397.562)" fill="#e5907b"/><path d="M188.916,457.469a6.5,6.5,0,0,1-4.022-1.388,12.26,12.26,0,0,1-1.356,1.315,6.531,6.531,0,0,0,11.762-5.082A6.532,6.532,0,0,1,188.916,457.469Z" transform="translate(-157.723 -422.275)" fill="#d68474"/><path d="M59.254,274.644S61.161,256,43.114,256s-16.14,18.644-16.14,18.644Z" transform="translate(-25.066 -256)" fill="#e5907b"/><path d="M77.534,316.519v7.328a12.175,12.175,0,1,1-24.351,0v-7.328C61.417,312.8,69.325,305.7,69.325,305.7S72.472,312.637,77.534,316.519Z" transform="translate(-47.314 -298.098)" fill="#fdd4bb"/><path d="M65.358,418.451a12.175,12.175,0,0,1-12.175-12.175v2.754a12.175,12.175,0,0,0,24.351,0v-2.754A12.175,12.175,0,0,1,65.358,418.451Z" transform="translate(-47.314 -383.281)" fill="#f7c4a8"/><path d="M212.321,374.085a4.075,4.075,0,1,1,0,7.318Z" transform="translate(-182.101 -355.664)" fill="#ebbaa1"/><path d="M20.7,374.085a4.075,4.075,0,1,0,0,7.318Z" transform="translate(-14.831 -355.664)" fill="#ebbaa1"/><g transform="translate(0 20.703)"><path d="M214.115,394a4.058,4.058,0,0,1-1.794-.416v2.754a4.076,4.076,0,0,0,5.629-5.036A4.076,4.076,0,0,1,214.115,394Z" transform="translate(-182.101 -391.298)" fill="#e8a990"/><path d="M15.069,391.3a4.075,4.075,0,0,0,5.629,5.036V393.58a4.076,4.076,0,0,1-5.629-2.282Z" transform="translate(-14.83 -391.298)" fill="#e8a990"/></g></g><g transform="translate(36.083 37.948)"><path d="M427.642,423.137a4.076,4.076,0,0,1-3.889.164v.01a12.15,12.15,0,0,1-4.4,9.372,6.53,6.53,0,1,0,8.294-9.547Z" transform="translate(-393.533 -397.562)" fill="#c1a19d"/><path d="M424.726,457.469a6.5,6.5,0,0,1-4.022-1.388,12.26,12.26,0,0,1-1.356,1.315,6.531,6.531,0,0,0,11.762-5.082A6.532,6.532,0,0,1,424.726,457.469Z" transform="translate(-393.533 -422.275)" fill="#af9290"/><path d="M295.063,274.644S296.97,256,278.923,256s-16.14,18.644-16.14,18.644Z" transform="translate(-260.875 -256)" fill="#c1a19d"/><path d="M313.344,316.519v7.328a12.175,12.175,0,1,1-24.351,0v-7.328c8.234-3.719,16.142-10.816,16.142-10.816S308.282,312.637,313.344,316.519Z" transform="translate(-283.124 -298.098)" fill="#fdd4bb"/><path d="M301.167,418.451a12.175,12.175,0,0,1-12.175-12.175v2.754a12.175,12.175,0,0,0,24.351,0v-2.754A12.175,12.175,0,0,1,301.167,418.451Z" transform="translate(-283.123 -383.281)" fill="#f7c4a8"/><path d="M448.13,374.085a4.075,4.075,0,1,1,0,7.318Z" transform="translate(-417.91 -355.664)" fill="#ebbaa1"/><circle cx="5.065" cy="5.065" r="5.065" transform="translate(5.862 16.943)" fill="#eef2f5"/><circle cx="5.065" cy="5.065" r="5.065" transform="translate(20.097 16.943)" fill="#eef2f5"/><path d="M256.509,374.085a4.075,4.075,0,1,0,0,7.318Z" transform="translate(-250.64 -355.664)" fill="#ebbaa1"/><g transform="translate(0 20.703)"><path d="M449.925,394a4.058,4.058,0,0,1-1.794-.416v2.754a4.076,4.076,0,0,0,5.63-5.036A4.076,4.076,0,0,1,449.925,394Z" transform="translate(-417.911 -391.298)" fill="#e8a990"/><path d="M250.878,391.3a4.075,4.075,0,0,0,5.629,5.036V393.58a4.076,4.076,0,0,1-5.629-2.282Z" transform="translate(-250.639 -391.298)" fill="#e8a990"/></g></g></g><g transform="translate(6.845 0)"><path d="M161.436,144.3a1.15,1.15,0,0,0,1.15-1.15v-1.975a1.15,1.15,0,0,0-2.3,0v1.975A1.15,1.15,0,0,0,161.436,144.3Z" transform="translate(-136.807 -118.601)"/><path d="M91.963,141.178a1.15,1.15,0,0,0-2.3,0v1.975a1.15,1.15,0,1,0,2.3,0Z" transform="translate(-76.99 -118.601)"/><path d="M112.867,193.52a1.15,1.15,0,1,0-2.127-.876c0,.01-.444.965-2.094.965s-2.09-.956-2.094-.965a1.15,1.15,0,0,0-2.127.876,4.923,4.923,0,0,0,8.442,0Z" transform="translate(-89.42 -162.563)"/><path d="M397.692,144.1a1.15,1.15,0,0,0,1.15-1.15v-1.976a1.15,1.15,0,0,0-2.3,0v1.976A1.15,1.15,0,0,0,397.692,144.1Z" transform="translate(-336.912 -118.43)"/><path d="M327.057,144.1a1.15,1.15,0,0,0,1.15-1.15v-1.976a1.15,1.15,0,0,0-2.3,0v1.976A1.15,1.15,0,0,0,327.057,144.1Z" transform="translate(-277.085 -118.43)"/><path d="M340.674,193.321a4.923,4.923,0,0,0,8.442,0,1.15,1.15,0,1,0-2.127-.876c0,.01-.444.965-2.094.965s-2.09-.956-2.094-.965a1.15,1.15,0,1,0-2.127.876Z" transform="translate(-289.519 -162.394)"/><path d="M161.463,388.312a1.15,1.15,0,0,0-1.15,1.15v1.976a1.15,1.15,0,0,0,2.3,0v-1.976A1.15,1.15,0,0,0,161.463,388.312Z" transform="translate(-136.83 -328.894)"/><path d="M91.978,389.462a1.15,1.15,0,1,0-2.3,0v1.976a1.15,1.15,0,0,0,2.3,0Z" transform="translate(-77.003 -328.893)"/><path d="M111.764,440.019a1.15,1.15,0,0,0-1.065.717h0a2.733,2.733,0,0,1-4.211,0,1.149,1.149,0,1,0-2.114.9,4.923,4.923,0,0,0,8.441,0,1.149,1.149,0,0,0-1.049-1.619Z" transform="translate(-89.364 -372.688)"/><path d="M407.415,388.312a1.15,1.15,0,0,0-1.15,1.15v1.976a1.15,1.15,0,1,0,2.3,0v-1.976A1.15,1.15,0,0,0,407.415,388.312Z" transform="translate(-345.147 -328.894)"/><path d="M316.269,389.462v1.976a1.15,1.15,0,0,0,2.3,0v-1.976a1.15,1.15,0,1,0-2.3,0Z" transform="translate(-268.922 -328.893)"/><path d="M348.534,440.3a1.15,1.15,0,0,0-1.5.626c0,.01-.444.965-2.094.965s-2.09-.956-2.094-.965a1.15,1.15,0,0,0-2.127.876,4.922,4.922,0,0,0,8.441,0A1.15,1.15,0,0,0,348.534,440.3Z" transform="translate(-289.557 -372.856)"/><path d="M80.229,64.659a5.221,5.221,0,0,0-.636-7.364c.1-2.207.037-9.275-4.461-14.257A14.521,14.521,0,0,0,68.3,38.83a13.418,13.418,0,0,0,3.2-2.3A9.787,9.787,0,0,0,77.14,39.94a14.8,14.8,0,0,0,3.329.382c.481,0,.777-.025.808-.028a1.15,1.15,0,0,0,1.036-.986A12.124,12.124,0,0,0,79.1,28.921c-.284-.3-.57-.572-.854-.824a5.229,5.229,0,0,0,1.343-8.825c.1-2.207.037-9.275-4.461-14.257C72.12,1.688,67.779,0,62.224,0c-5.175,0-9.307,1.47-12.279,4.37a1.15,1.15,0,0,0,1.606,1.646C54.079,3.55,57.67,2.3,62.224,2.3c4.871,0,8.634,1.429,11.184,4.247,3.364,3.716,3.866,9.009,3.891,11.607a5.242,5.242,0,0,0-2.84.19c-3.488-1.86-7.284-7.216-7.324-7.272a1.15,1.15,0,0,0-1.658-.238c-.084.067-8.372,6.624-15.286,7.592a5.181,5.181,0,0,0-1.968-.385,5.237,5.237,0,0,0-1.076.112,20.38,20.38,0,0,1,1.928-8.715A1.15,1.15,0,0,0,47.023,8.4a23.018,23.018,0,0,0-2.16,10.866,5.279,5.279,0,0,0-.73.751,5.221,5.221,0,0,0-4.068-1.95,5.287,5.287,0,0,0-.8.063,13.189,13.189,0,0,0-2.246-5.59,11.366,11.366,0,0,0,.16-1.988c0-2.811-.784-4.615-2.331-5.361-2.38-1.149-5.506.856-6.563,1.622h-.915a6.2,6.2,0,0,1,3.556-4.579A1.15,1.15,0,0,0,30.007.126a8.344,8.344,0,0,0-4.819,5.9,6.174,6.174,0,0,1-1.8-4.316,1.15,1.15,0,0,0-2.3-.067,8.955,8.955,0,0,0,1.018,4.1c-1.4-.711-3.263-1.294-4.808-.548s-2.331,2.55-2.331,5.361a11.388,11.388,0,0,0,.159,1.981,13.188,13.188,0,0,0-2.251,5.6,5.232,5.232,0,1,0-.071,10.348,13.376,13.376,0,0,0,7.154,10.36,14.4,14.4,0,0,0-7.422,4.955,1.15,1.15,0,0,0,1.808,1.421c2.552-3.246,6.5-4.893,11.728-4.893,4.871,0,8.634,1.429,11.184,4.247,3.364,3.716,3.866,9.009,3.891,11.607a5.22,5.22,0,0,0-2.683.139c-4.488-3.727-7.345-9.933-7.375-10a1.15,1.15,0,0,0-1.815-.381c-.077.069-7.592,6.773-15.427,10.437a5.237,5.237,0,0,0-2.853-.2,21.411,21.411,0,0,1,1.284-7.252,1.15,1.15,0,1,0-2.149-.82,23.918,23.918,0,0,0-1.42,9.187,5.23,5.23,0,0,0,3.361,9.239,5.291,5.291,0,0,0,.733-.053,13.341,13.341,0,0,0,20.86,9.467,7.691,7.691,0,1,0,10.4-11.284c.026-.031.05-.063.075-.095a5.223,5.223,0,0,0,4.081,1.964,5.291,5.291,0,0,0,.733-.053,13.339,13.339,0,0,0,20.859,9.466,7.686,7.686,0,0,0,11.363-.217,1.15,1.15,0,1,0-1.728-1.517,5.391,5.391,0,0,1-7.861.263,13.321,13.321,0,0,0,3.9-8,5.289,5.289,0,0,0,.733.053,5.2,5.2,0,0,0,2.067-.427,5.36,5.36,0,0,1,2.5,4.55,1.15,1.15,0,0,0,2.3,0,7.645,7.645,0,0,0-2.866-5.993ZM12.724,26.16a2.932,2.932,0,1,1,0-5.72Zm0,38a2.933,2.933,0,1,1,0-5.722ZM75.57,20.412a2.933,2.933,0,1,1,0,5.722Zm-.131,8.405a10.054,10.054,0,0,1,4.693,9.2c-1.692-.052-5.245-.506-7.085-3.265A13.279,13.279,0,0,0,75.439,28.817ZM51.172,20.6a31.937,31.937,0,0,0,10.3-4.263c1.958-1.168,3.549-2.286,4.5-2.983,1.324,1.723,4.3,5.3,7.306,6.964V26.95a11.049,11.049,0,1,1-22.1,0V20.6Zm.223,14.152c-1.841,2.76-5.394,3.213-7.085,3.265A10.053,10.053,0,0,1,49,28.818,13.275,13.275,0,0,0,51.395,34.75ZM48.224,20.34a2.933,2.933,0,0,1,.648.072v5.722a2.933,2.933,0,1,1-.648-5.794Zm-8.807.1a2.932,2.932,0,1,1,0,5.72Zm-9.6-11.894c1.115-.768,3.035-1.764,4.03-1.282.664.322,1.03,1.49,1.03,3.289s-.366,2.968-1.03,3.289c-1,.483-2.915-.514-4.03-1.282Zm-5.185.568H27.51v2.879H24.631ZM18.3,7.264a1.429,1.429,0,0,1,.626-.127,7.294,7.294,0,0,1,3.4,1.408v4.015c-1.115.768-3.035,1.764-4.03,1.282-.664-.322-1.029-1.49-1.029-3.289s.366-2.968,1.029-3.289ZM15.024,26.975v-6.8a10.946,10.946,0,0,1,1.227-5.063,3.331,3.331,0,0,0,1.052.8,3.649,3.649,0,0,0,1.6.347,9.551,9.551,0,0,0,4.96-1.969h4.416a9.55,9.55,0,0,0,4.96,1.969,3.65,3.65,0,0,0,1.6-.347,3.332,3.332,0,0,0,1.048-.8,10.947,10.947,0,0,1,1.225,5.058v6.8a11.047,11.047,0,0,1-22.094,0Zm24.4,31.459a2.933,2.933,0,1,1,0,5.722ZM26.074,76.021A11.062,11.062,0,0,1,15.025,64.972V58.365a74.19,74.19,0,0,0,14.657-9.736,32.647,32.647,0,0,0,7.442,9.558v6.786A11.062,11.062,0,0,1,26.074,76.021Zm18.568-5.37a5.392,5.392,0,0,1-9.2,3.82,13.319,13.319,0,0,0,3.9-8,5.29,5.29,0,0,0,.733.053,5.2,5.2,0,0,0,2.067-.427A5.36,5.36,0,0,1,44.642,70.652ZM44.15,58.025a5.277,5.277,0,0,0-.712-.73c.1-2.207.037-9.275-4.461-14.257a14.515,14.515,0,0,0-6.8-4.2,13.376,13.376,0,0,0,7.153-10.359,5.287,5.287,0,0,0,.733.053,5.222,5.222,0,0,0,4.088-1.975A5.263,5.263,0,0,0,46.2,28.1c-.283.251-.57.525-.853.824A12.124,12.124,0,0,0,42.13,39.308a1.15,1.15,0,0,0,1.036.986c.03,0,.327.028.808.028A14.807,14.807,0,0,0,47.3,39.94a9.787,9.787,0,0,0,5.637-3.406,13.419,13.419,0,0,0,3.207,2.3,14.518,14.518,0,0,0-6.816,4.206c-4.494,4.978-4.563,12.038-4.461,14.251a5.3,5.3,0,0,0-.719.735Zm4.728,6.131a2.933,2.933,0,1,1,0-5.72Zm10.143-2.933a3.925,3.925,0,0,1-7.843.221V61a3.925,3.925,0,0,1,7.843.221ZM56.81,55.24a84.187,84.187,0,0,0,9.024-6.612,37.511,37.511,0,0,0,4.3,6.42,6.209,6.209,0,0,0-6.888,5.025H61.213A6.244,6.244,0,0,0,56.81,55.24Zm5.417,20.781A11.065,11.065,0,0,1,51.235,66.1a6.217,6.217,0,0,0,9.977-3.726h2.029A6.217,6.217,0,0,0,73.22,66.1a11.065,11.065,0,0,1-10.992,9.922ZM73.277,61.442a3.925,3.925,0,1,1,0-.438Zm1.347-5.127c-4.488-3.727-7.345-9.933-7.374-10a1.15,1.15,0,0,0-1.815-.381c-.076.069-7.591,6.773-15.427,10.437a5.238,5.238,0,0,0-2.852-.2c.025-2.6.528-7.889,3.891-11.605,2.551-2.818,6.313-4.247,11.184-4.247s8.634,1.429,11.184,4.247c3.364,3.716,3.866,9.009,3.891,11.607a5.22,5.22,0,0,0-2.682.139Zm1.6,7.914a2.922,2.922,0,0,1-.648-.072v-5.72a2.932,2.932,0,1,1,.648,5.792Z" transform="translate(-6.845 0)"/></g></g></svg>