<svg xmlns="http://www.w3.org/2000/svg" width="68.294" height="64.524" viewBox="0 0 68.294 64.524">
  <g id="dress" transform="translate(0.003 -14.133)">
    <g id="Group_13105" data-name="Group 13105" transform="translate(0.995 15.14)">
      <path id="Path_30193" data-name="Path 30193" d="M214.053,45.457a39.883,39.883,0,0,1,9.836,25.778s-8.561,3.125-21.595,3.125a79.05,79.05,0,0,1-13.05-1.07,52.954,52.954,0,0,1-8.545-2.056,39.883,39.883,0,0,1,9.836-25.778V39.094l-5.3-4.355L180.7,31.017l8.656-7.759a6.154,6.154,0,0,1,8.254.031l.923.84a5.587,5.587,0,0,0,7.525,0l.923-.84a6.152,6.152,0,0,1,8.253-.031l8.656,7.759-9.836,8.077Z" transform="translate(-157.594 -21.685)" fill="#80b4fb"/>
      <g id="Group_13103" data-name="Group 13103" transform="translate(23.106 0.014)">
        <path id="Path_30194" data-name="Path 30194" d="M193.571,107.238v11.609s-4.015,12.2-4.015,18.163c0,2.374-.141,5.8-.311,9.053a52.952,52.952,0,0,1-8.545-2.056,39.883,39.883,0,0,1,9.836-25.778V105.659h1.455A1.579,1.579,0,0,1,193.571,107.238Z" transform="translate(-180.7 -94.471)" fill="#61a2f9"/>
        <path id="Path_30195" data-name="Path 30195" d="M193.056,21.788c-3.015,2.808-6.509,8.716-7.822,13.04L180.7,31.107l8.656-7.759a6.144,6.144,0,0,1,3.7-1.559Z" transform="translate(-180.701 -21.788)" fill="#61a2f9"/>
        <path id="Path_30196" data-name="Path 30196" d="M301.971,22.958c-.319,1.5-2.819,12.533-7.391,14.135-4.573-1.6-7.071-12.635-7.39-14.135a6.139,6.139,0,0,1,2.705,1.434l.923.84a5.587,5.587,0,0,0,7.525,0l.923-.84a6.138,6.138,0,0,1,2.705-1.434Z" transform="translate(-272.985 -22.802)" fill="#61a2f9"/>
      </g>
      <g id="Group_13104" data-name="Group 13104" transform="translate(0 38.432)">
        <path id="Path_30197" data-name="Path 30197" d="M44.108,310.214a305.823,305.823,0,0,0-31.921,0,4.479,4.479,0,0,0-4.212,3.9,60.718,60.718,0,0,0,0,15.451,4.478,4.478,0,0,0,4.212,3.9,305.806,305.806,0,0,0,31.921,0,4.479,4.479,0,0,0,4.212-3.9,60.717,60.717,0,0,0,0-15.451A4.479,4.479,0,0,0,44.108,310.214Z" transform="translate(-7.48 -309.798)" fill="#db5b6f"/>
        <path id="Path_30198" data-name="Path 30198" d="M14.129,335.656q-.97-.044-1.941-.095a4.479,4.479,0,0,1-4.212-3.9,60.749,60.749,0,0,1,0-15.451,4.478,4.478,0,0,1,4.212-3.9q.97-.05,1.941-.095a4.688,4.688,0,0,0-2.574,3.61,63.731,63.731,0,0,0,0,16.222A4.692,4.692,0,0,0,14.129,335.656Z" transform="translate(-7.482 -311.892)" fill="#d54653"/>
        <path id="Path_30199" data-name="Path 30199" d="M48.33,371.257a4.477,4.477,0,0,1-4.212,3.9,305.156,305.156,0,0,1-31.921,0,4.477,4.477,0,0,1-4.212-3.9q-.216-1.7-.339-3.392a60.545,60.545,0,0,0-.012,8.413,4.726,4.726,0,0,0,3.7,2.117,321.712,321.712,0,0,0,33.647,0,4.725,4.725,0,0,0,3.7-2.119,60.548,60.548,0,0,0-.013-8.418q-.122,1.7-.339,3.4Z" transform="translate(-7.491 -360.114)" fill="#d54653"/>
        <path id="Path_30200" data-name="Path 30200" d="M122.2,376.663a88.218,88.218,0,0,1-9.647,0,2.814,2.814,0,0,1-2.643-2.6,35.949,35.949,0,0,1,0-5.785,2.814,2.814,0,0,1,2.642-2.6,88.233,88.233,0,0,1,9.647,0,2.814,2.814,0,0,1,2.642,2.6,35.951,35.951,0,0,1,0,5.785,2.814,2.814,0,0,1-2.642,2.6Z" transform="translate(-96.145 -358.117)" fill="#ffd064"/>
        <path id="Path_30201" data-name="Path 30201" d="M140.471,396.333c-1.316,0-2.648-.031-3.968-.093a32.5,32.5,0,0,1,0-3.945c1.32-.062,2.652-.093,3.968-.093s2.647.031,3.968.093a32.492,32.492,0,0,1,0,3.945C143.118,396.3,141.786,396.333,140.471,396.333Z" transform="translate(-119.24 -381.21)" fill="#db5b6f"/>
      </g>
    </g>
    <g id="Group_13106" data-name="Group 13106" transform="translate(-0.003 14.133)">
      <path id="Path_30202" data-name="Path 30202" d="M63.25,45.471a38.155,38.155,0,0,0-4.8-6.949v-5.5l9.471-7.777a1,1,0,0,0,.033-1.518L60.793,17.3a1,1,0,1,0-1.336,1.49l6.3,5.645-7.3,5.994V26.342a1,1,0,1,0-2,0V38.066a67.168,67.168,0,0,1-21.516,0V26.342a1,1,0,1,0-2,0v4.092l-7.3-5.994,7.788-6.981a5.141,5.141,0,0,1,4.049-1.285,49.391,49.391,0,0,0,2,6.533c1.7,4.325,3.681,6.91,5.891,7.684a1,1,0,0,0,.661,0c2.209-.774,4.192-3.359,5.891-7.684a49.4,49.4,0,0,0,2-6.524,5.144,5.144,0,0,1,2.638.375,1,1,0,0,0,.788-1.839A7.173,7.173,0,0,0,49.708,16l-.923.84a4.567,4.567,0,0,1-6.178,0L41.684,16a7.136,7.136,0,0,0-9.6-.036l-8.656,7.759a1,1,0,0,0,.033,1.518l9.471,7.777v5.5A36.673,36.673,0,0,0,28.8,44.3c-1.521-.811-3.131-1.611-4.76-2.422-1.424-.708-2.859-1.422-4.236-2.146a13.64,13.64,0,0,0,2.839-5.83,8.111,8.111,0,0,0-2.79-8.376,7.806,7.806,0,0,0-8.019-1c-1.317.647-3.526,2.326-3.526,6.3,0,2.517,1.6,4.9,4.886,7.273a38.185,38.185,0,0,0,3.415,2.167,51.555,51.555,0,0,1-4.931,4.1c-3.561,2.716-6.94,5.3-7.028,8.771A5.473,5.473,0,0,0,.5,57.763a62.028,62.028,0,0,0,0,15.7,5.478,5.478,0,0,0,5.153,4.774c5.313.277,10.663.416,16.013.416s10.7-.139,16.013-.416a5.475,5.475,0,0,0,5.151-4.774q.3-2.337.418-4.689c.814.024,1.635.037,2.452.037,13.06,0,21.581-3.056,21.938-3.186a1,1,0,0,0,.657-.94,40.393,40.393,0,0,0-5.041-19.22ZM41.26,18.324a6.559,6.559,0,0,0,8.872,0l.923-.84a5.128,5.128,0,0,1,.593-.465,45.273,45.273,0,0,1-1.593,4.955c-1.668,4.244-3.242,5.834-4.36,6.387-1.117-.554-2.692-2.144-4.359-6.387a45.3,45.3,0,0,1-1.593-4.957,5.241,5.241,0,0,1,.594.466Zm-30.953,12.5c0-2.174.832-3.732,2.407-4.506A4.961,4.961,0,0,1,14.9,25.84a6.191,6.191,0,0,1,3.728,1.271c1.082.835,2.788,2.777,2.052,6.394A11.941,11.941,0,0,1,18,38.758c-4.324-2.423-7.7-5-7.7-7.932ZM5.753,54.988c1.783-.093,3.567-.17,5.3-.23a1,1,0,0,0-.069-2c-1.415.049-2.862.11-4.315.181.258-2.435,3.044-4.562,6.219-6.984a49.6,49.6,0,0,0,5.547-4.682c1.533.817,3.134,1.613,4.71,2.4s3.169,1.576,4.678,2.381a42.241,42.241,0,0,0-2.773,6.543c-3.365-.037-6.725-.023-10.06.05a1,1,0,1,0,.044,2c7.458-.164,15.04-.048,22.535.343a3.473,3.473,0,0,1,3.271,3.028q.211,1.647.328,3.3c-.081,1.107-.191,2.206-.328,3.27a3.473,3.473,0,0,1-3.272,3.026c-2.265.118-4.541.21-6.784.278a37.107,37.107,0,0,0-.1-4.236A3.83,3.83,0,0,0,27.1,60.143a89.591,89.591,0,0,0-9.757,0,3.83,3.83,0,0,0-3.585,3.514,37.125,37.125,0,0,0-.1,4.269c-2.635-.07-5.291-.173-7.914-.31a3.472,3.472,0,0,1-3.272-3.027c-.134-1.051-.244-2.146-.328-3.257q.119-1.661.328-3.315a3.475,3.475,0,0,1,3.272-3.028Zm23.833-7.966c3.241,1.855,5.86,3.795,6.74,5.9q-4.575-.219-9.172-.3A40.146,40.146,0,0,1,29.586,47.022Zm-.891,22.42a1.822,1.822,0,0,1-1.7,1.677h0a87.638,87.638,0,0,1-9.538,0,1.822,1.822,0,0,1-1.7-1.677,35.123,35.123,0,0,1,0-5.624,1.822,1.822,0,0,1,1.7-1.677c1.582-.087,3.176-.13,4.769-.13s3.187.043,4.769.13a1.822,1.822,0,0,1,1.7,1.677,35.123,35.123,0,0,1,0,5.624Zm8.877,6.8a306.77,306.77,0,0,1-31.817,0,3.478,3.478,0,0,1-3.272-3.029q-.331-2.592-.433-5.2a5.475,5.475,0,0,0,3.6,1.6c2.7.142,5.441.247,8.154.317a3.829,3.829,0,0,0,3.544,3.186c1.619.089,3.248.133,4.878.133s3.26-.044,4.878-.133A3.829,3.829,0,0,0,30.652,69.9c2.32-.068,4.677-.163,7.021-.285a5.477,5.477,0,0,0,3.6-1.6q-.1,2.609-.434,5.2a3.475,3.475,0,0,1-3.271,3.029ZM63.007,64.865a77,77,0,0,0-1.134-8.925,1,1,0,0,0-1.966.369A75.059,75.059,0,0,1,61.029,65.3c-.77.158-1.644.322-2.61.481a77.473,77.473,0,0,0-1.281-11.925,1,1,0,1,0-1.966.369,75.516,75.516,0,0,1,1.255,11.857,79.218,79.218,0,0,1-10.73.729c-.794,0-1.591-.013-2.382-.036a61.908,61.908,0,0,0-.488-9.015,5.469,5.469,0,0,0-4.345-4.67c-.734-3.057-3.873-5.513-7.919-7.822a36.345,36.345,0,0,1,3.748-5.281,69.315,69.315,0,0,0,11.385.944,69.309,69.309,0,0,0,11.384-.944,37.12,37.12,0,0,1,4.447,6.5,38.507,38.507,0,0,1,4.755,17.48C65.632,64.176,64.516,64.5,63.007,64.865Z" transform="translate(0.003 -14.133)"/>
      <path id="Path_30203" data-name="Path 30203" d="M137.987,384.8c-1.336-.063-2.687-.094-4.015-.094s-2.678.032-4.015.094a1,1,0,0,0-.952.939,33.632,33.632,0,0,0,0,4.067,1,1,0,0,0,.952.939c1.335.062,2.686.094,4.015.094s2.679-.032,4.015-.094a1,1,0,0,0,.952-.939,33.632,33.632,0,0,0,0-4.067A1,1,0,0,0,137.987,384.8Zm-1,3.983c-2.011.072-4.011.072-6.022,0-.021-.673-.021-1.349,0-2.022,2.012-.072,4.01-.072,6.022,0C137,387.43,137,388.106,136.983,388.779Z" transform="translate(-111.743 -335.271)"/>
    </g>
  </g>
</svg>
