<svg xmlns="http://www.w3.org/2000/svg" width="68.294" height="101.18" viewBox="0 0 68.294 101.18"><g transform="translate(-83.206)"><path d="M155.006,161.029a55.1,55.1,0,0,1-5.721-23.525h-40.8a55.1,55.1,0,0,1-5.721,23.525,5.2,5.2,0,0,0,4.654,7.515h42.93a5.2,5.2,0,0,0,4.654-7.515Z" transform="translate(-15.254 -110.331)" fill="#365e7d"/><path d="M148.6,322.363a1.45,1.45,0,0,1-1.45,1.45H92.155a1.45,1.45,0,0,1-1.45-1.45V298.528a19.216,19.216,0,0,1,19.216-19.216H129.38A19.216,19.216,0,0,1,148.6,298.528Z" transform="translate(-6.017 -224.115)" fill="#eaaadd"/><path d="M264.327,279.312h-5.44A19.216,19.216,0,0,1,278.1,298.528v25.285h3.989a1.45,1.45,0,0,0,1.45-1.45V298.528A19.216,19.216,0,0,0,264.327,279.312Z" transform="translate(-140.963 -224.115)" fill="#e490d0"/><path d="M349.754,481.608H336.595a1.986,1.986,0,0,1-1.986-1.986v-1.666a1.986,1.986,0,0,1,1.986-1.986h13.159a1.986,1.986,0,0,1,1.986,1.986v1.666A1.986,1.986,0,0,1,349.754,481.608Z" transform="translate(-201.722 -381.91)" fill="#eab14d"/><path d="M395.794,475.97H392.15a2,2,0,0,1,2.115,1.864v1.91a2,2,0,0,1-2.115,1.864h3.644a2,2,0,0,0,2.115-1.864v-1.91A2,2,0,0,0,395.794,475.97Z" transform="translate(-247.891 -381.91)" fill="#e49542"/><path d="M349.754,453.078H336.595a1.986,1.986,0,0,1-1.986-1.986v-1.666a1.986,1.986,0,0,1,1.986-1.986h13.159a1.986,1.986,0,0,1,1.986,1.986v1.666A1.986,1.986,0,0,1,349.754,453.078Z" transform="translate(-201.722 -359.018)" fill="#f6e266"/><path d="M395.794,447.44H392.15a2,2,0,0,1,2.115,1.864v1.91a2,2,0,0,1-2.115,1.864h3.644a2,2,0,0,0,2.115-1.864V449.3A2,2,0,0,0,395.794,447.44Z" transform="translate(-247.891 -359.018)" fill="#ecbe6b"/><path d="M349.754,424.548H336.595a1.986,1.986,0,0,1-1.986-1.986V420.9a1.986,1.986,0,0,1,1.986-1.986h13.159a1.986,1.986,0,0,1,1.986,1.986v1.666A1.986,1.986,0,0,1,349.754,424.548Z" transform="translate(-201.722 -336.126)" fill="#eab14d"/><path d="M395.794,418.911H392.15a2,2,0,0,1,2.115,1.864v1.91a2,2,0,0,1-2.115,1.864h3.644a2,2,0,0,0,2.115-1.864v-1.91A2,2,0,0,0,395.794,418.911Z" transform="translate(-247.891 -336.127)" fill="#e49542"/><path d="M329.754,396.018H316.595a1.986,1.986,0,0,1-1.986-1.986v-1.666a1.986,1.986,0,0,1,1.986-1.986h13.159a1.986,1.986,0,0,1,1.986,1.986v1.666A1.986,1.986,0,0,1,329.754,396.018Z" transform="translate(-185.674 -313.234)" fill="#f6e266"/><path d="M375.794,390.381H372.15a2,2,0,0,1,2.115,1.864v1.91a2,2,0,0,1-2.115,1.864h3.644a2,2,0,0,0,2.115-1.864v-1.91A2,2,0,0,0,375.794,390.381Z" transform="translate(-231.844 -313.235)" fill="#ecbe6b"/><circle cx="7.884" cy="7.884" r="7.884" transform="translate(124.252 83.93)" fill="#f6e266"/><path d="M323.214,424.713a7.894,7.894,0,0,0-1.869.225,7.883,7.883,0,0,1,0,15.317,7.884,7.884,0,1,0,1.869-15.542Z" transform="translate(-191.079 -340.783)" fill="#ecbe6b"/><path d="M208.66,299.783a7.024,7.024,0,0,1-7.024-7.024v-7.024h14.048v7.024A7.024,7.024,0,0,1,208.66,299.783Z" transform="translate(-95.026 -229.269)" fill="#e2a770"/><path d="M142.505,129.48v15.966a18.709,18.709,0,0,0,37.418,0V129.48l-4.218-1.976H146.046Z" transform="translate(-47.58 -102.307)" fill="#f1d0a5"/><path d="M175.518,137.5H142.505v3.929H171.2a4.319,4.319,0,0,1,4.319,4.319v7.717a18.711,18.711,0,0,1-16.507,18.58,18.713,18.713,0,0,0,20.912-18.58V137.5Z" transform="translate(-47.58 -110.331)" fill="#f1b986"/><path d="M115.025,178.86h-3a3.768,3.768,0,1,1,0-7.536h3Z" transform="translate(-20.1 -137.468)" fill="#e2a770"/><path d="M331.853,178.86h3a3.768,3.768,0,0,0,0-7.536h-3Z" transform="translate(-199.51 -137.468)" fill="#e2a770"/><path d="M148.6,117.816H90.705v-.5a4.4,4.4,0,0,1,4.4-4.4h49.088a4.4,4.4,0,0,1,4.4,4.4Z" transform="translate(-6.017 -90.597)" fill="#eaaadd"/><path d="M344.65,112.911h-4.12a4.4,4.4,0,0,1,4.4,4.4v.5h4.12v-.5A4.4,4.4,0,0,0,344.65,112.911Z" transform="translate(-206.472 -90.598)" fill="#e490d0"/><path d="M173.021,7.5H149.406a6.9,6.9,0,0,0-6.9,6.9v13.93h37.419V14.4a6.9,6.9,0,0,0-6.9-6.9Z" transform="translate(-47.58 -6.018)" fill="#eaaadd"/><path d="M173.022,7.5h-4.495a6.9,6.9,0,0,1,6.9,6.9v5.524a5.343,5.343,0,0,1-5.344,5.344h-27.58v3.062h37.419V14.4a6.9,6.9,0,0,0-6.9-6.9Z" transform="translate(-47.58 -6.018)" fill="#e490d0"/><circle cx="3.267" cy="3.267" r="3.267" transform="translate(110.367 75.566)" fill="#e4f6ff"/><g transform="translate(83.206 0)"><path d="M151.5,84.77a3.472,3.472,0,0,0-3.468-3.468h-.525a3.469,3.469,0,0,0,.041-.5V79.131a3.472,3.472,0,0,0-3.468-3.468h-.018V74.413a20.59,20.59,0,0,0-6.6-15.147,6.681,6.681,0,0,0,3.619-9.229,52.61,52.61,0,0,1-3.15-7.846A5.249,5.249,0,0,0,135.9,32.4c-.152-1.26-.259-2.475-.323-3.7h7.006a1.482,1.482,0,0,0,1.482-1.482v-.5a5.89,5.89,0,0,0-5.884-5.884h-4.353V8.383A8.393,8.393,0,0,0,125.441,0H113.331a1.482,1.482,0,0,0,0,2.964h12.111a5.425,5.425,0,0,1,5.419,5.419v3.373a6.448,6.448,0,0,0-2.533,1.322,3.234,3.234,0,0,1-4.442,0,6.162,6.162,0,0,0-8.031,0,3.233,3.233,0,0,1-4.442,0,6.161,6.161,0,0,0-8.031,0,3.233,3.233,0,0,1-4.441,0,6.45,6.45,0,0,0-2.533-1.322V8.383a5.426,5.426,0,0,1,5.419-5.419h5.579a1.482,1.482,0,0,0,0-2.964h-5.579a8.393,8.393,0,0,0-8.384,8.383V20.831H89.09a5.89,5.89,0,0,0-5.884,5.884v.5A1.482,1.482,0,0,0,84.688,28.7H91.7c-.061,1.283-.161,2.485-.3,3.7a5.249,5.249,0,0,0-2.051,9.792,50.352,50.352,0,0,1-3.154,7.844,6.68,6.68,0,0,0,3.619,9.229,20.59,20.59,0,0,0-6.6,15.147V98.247a2.936,2.936,0,0,0,2.932,2.932H91.61a1.482,1.482,0,1,0,0-2.964H86.17v-23.8A17.738,17.738,0,0,1,99.254,57.3l.048.049v7.788a11.932,11.932,0,0,0,10,11.758,4.749,4.749,0,1,0,8.665,0,11.932,11.932,0,0,0,10-11.758V57.347l.048-.049A17.738,17.738,0,0,1,141.1,74.413v1.251H138.53a1.482,1.482,0,1,0,0,2.964h5.551a.5.5,0,0,1,.5.5V80.8a.5.5,0,0,1-.5.5H130.921a.5.5,0,0,1-.5-.5V79.132a.5.5,0,0,1,.5-.5H132.6a1.482,1.482,0,1,0,0-2.964h-1.683a3.472,3.472,0,0,0-3.468,3.468V80.8a3.455,3.455,0,0,0,.983,2.414,9.355,9.355,0,0,0-3.128,15H97.535a1.482,1.482,0,1,0,0,2.964h50.5a3.472,3.472,0,0,0,3.468-3.468V96.046a3.445,3.445,0,0,0-.629-1.986,3.445,3.445,0,0,0,.629-1.986V90.408a3.445,3.445,0,0,0-.629-1.986,3.445,3.445,0,0,0,.629-1.986ZM137.629,37.625a2.289,2.289,0,0,1-2.286,2.286h-1.518V35.338h1.518A2.289,2.289,0,0,1,137.629,37.625Zm-24,22.741A17.247,17.247,0,0,1,96.406,43.139V28.7h34.454V43.139a17.247,17.247,0,0,1-17.227,17.227Zm-5.542,2.191a20.244,20.244,0,0,0,11.083,0v.933a5.542,5.542,0,0,1-11.083,0ZM96.406,14.92a7.3,7.3,0,0,1,.739.518,6.161,6.161,0,0,0,8.03,0,3.234,3.234,0,0,1,4.442,0,6.161,6.161,0,0,0,8.03,0,3.234,3.234,0,0,1,4.442,0,6.162,6.162,0,0,0,8.031,0,7.291,7.291,0,0,1,.739-.518v5.911H96.406ZM89.09,23.8h49.088a2.925,2.925,0,0,1,2.751,1.941H86.339A2.925,2.925,0,0,1,89.09,23.8Zm2.835,11.543h1.518v4.572H91.925a2.286,2.286,0,0,1,0-4.572Zm1.23,21.393h-.987a3.716,3.716,0,0,1-3.327-5.372,53.193,53.193,0,0,0,3.39-8.484h1.211v.264a20.08,20.08,0,0,0,3.743,11.7A20.748,20.748,0,0,0,93.155,56.731Zm20.479,23.887a1.785,1.785,0,1,1,1.784-1.785A1.787,1.787,0,0,1,113.634,80.618Zm2.418-6.533h-4.836a8.96,8.96,0,0,1-8.95-8.95V59.817a20.2,20.2,0,0,0,2.861,1.631V63.49a8.506,8.506,0,0,0,17.012,0V61.448A20.194,20.194,0,0,0,125,59.817v5.317A8.96,8.96,0,0,1,116.051,74.084Zm17.773-30.946v-.264h1.214a55.588,55.588,0,0,0,3.387,8.484,3.716,3.716,0,0,1-3.327,5.372h-.987a20.714,20.714,0,0,0-4.03-1.894A20.081,20.081,0,0,0,133.825,43.139Zm14.207,41.127a.5.5,0,0,1,.5.5v1.666a.5.5,0,0,1-.5.5h-7.9a9.433,9.433,0,0,0-2.458-2.674Zm.5,6.142v1.666a.5.5,0,0,1-.5.5h-6.565c.021-.252.034-.506.034-.763a9.362,9.362,0,0,0-.2-1.91h6.728A.5.5,0,0,1,148.536,90.407Zm-22.8,1.406a6.4,6.4,0,1,1,6.4,6.4A6.409,6.409,0,0,1,125.734,91.814Zm22.8,5.9a.5.5,0,0,1-.5.5h-9.07a9.393,9.393,0,0,0,1.763-2.674h7.307a.5.5,0,0,1,.5.5Z" transform="translate(-83.206 0)"/><path d="M187.738,192.723a1.482,1.482,0,0,0-1.482,1.482v1.189a1.482,1.482,0,1,0,2.964,0v-1.189A1.482,1.482,0,0,0,187.738,192.723Z" transform="translate(-165.892 -154.638)"/><path d="M274.584,192.723a1.482,1.482,0,0,0-1.482,1.482v1.189a1.482,1.482,0,1,0,2.964,0v-1.189A1.482,1.482,0,0,0,274.584,192.723Z" transform="translate(-235.575 -154.638)"/><path d="M220.386,249.007a4.318,4.318,0,0,1-4.971,0,1.482,1.482,0,0,0-1.56,2.52,7.275,7.275,0,0,0,8.092,0,1.482,1.482,0,1,0-1.56-2.52Z" transform="translate(-187.473 -199.621)"/></g></g></svg>