<svg xmlns="http://www.w3.org/2000/svg" width="68.294" height="75.84" viewBox="0 0 68.294 75.84"><g transform="translate(-0.5 -0.001)"><path d="M34.056,86.093c0,7.723-5.833,40.494-13.028,40.494S8,93.816,8,86.093,13.832,72.11,21.028,72.11,34.056,78.37,34.056,86.093Zm0,0" transform="translate(-6.389 -61.428)" fill="#ff7956"/><path d="M58.182,112.065a64.564,64.564,0,0,1-.195,17.583c1.629,3.513,3.436,5.8,5.339,5.8,7.2,0,13.028-32.772,13.028-40.494a14.13,14.13,0,0,0-7.075-12.442l-5.953.187s-7.73,7.327-5.144,29.362Zm0,0" transform="translate(-48.687 -70.292)" fill="#ef674d"/><path d="M125.2,391.247H84.148a4.382,4.382,0,0,1-4.382-4.382v-2.108a13.2,13.2,0,0,1,13.2-13.2h23.414a13.2,13.2,0,0,1,13.2,13.2v2.108a4.382,4.382,0,0,1-4.381,4.382Zm0,0" transform="translate(-67.525 -316.517)" fill="#ff97bd"/><path d="M110.753,371.555H92.968a13.2,13.2,0,0,0-13.2,13.2v2.108a4.382,4.382,0,0,0,4.382,4.382H99.292c8.1-4.654,10.653-14.092,11.461-19.693Zm0,0" transform="translate(-67.525 -316.518)" fill="#ff85ab"/><path d="M191.613,303.307a11.853,11.853,0,1,1-11.853-11.854A11.853,11.853,0,0,1,191.613,303.307Zm0,0" transform="translate(-142.609 -248.281)" fill="#ffcfc2"/><path d="M186.211,301.313l-9.621-6.965a11.855,11.855,0,0,0,3.17,23.278,11.981,11.981,0,0,0,2.353-.234A36.688,36.688,0,0,0,186.211,301.313Zm0,0" transform="translate(-142.61 -250.747)" fill="#ffaea1"/><path d="M54.467,239.892a6.334,6.334,0,1,0-6.334,6.332A6.333,6.333,0,0,0,54.467,239.892Zm0,0" transform="translate(-35.183 -198.963)" fill="#ffaea1"/><path d="M381.206,239.892a6.334,6.334,0,1,0-6.334,6.332A6.333,6.333,0,0,0,381.206,239.892Zm0,0" transform="translate(-313.523 -198.963)" fill="#ffcfc2"/><path d="M111.058,88.1h-4.6a21.963,21.963,0,0,1-21.9-21.9V56.143a24.269,24.269,0,0,1,24.2-24.2h0a24.269,24.269,0,0,1,24.2,24.2V66.2a21.963,21.963,0,0,1-21.9,21.9Zm0,0" transform="translate(-71.607 -27.213)" fill="#ffe2d9"/><path d="M96.145,71.565A19.61,19.61,0,0,1,100.9,54.929c6.009-6.759,7.855-22.984,7.855-22.984a24.268,24.268,0,0,0-24.2,24.2V66.2a21.967,21.967,0,0,0,21.658,21.9A27.862,27.862,0,0,1,96.145,71.565Zm0,0" transform="translate(-71.607 -27.213)" fill="#ffcfc2"/><path d="M223.991,289.054a4.162,4.162,0,0,1-4.163-4.161v-3.026a1.136,1.136,0,0,1,1.136-1.136h6.052a1.136,1.136,0,0,1,1.136,1.136v3.026A4.162,4.162,0,0,1,223.991,289.054Zm0,0" transform="translate(-186.84 -239.147)" fill="#57565c"/><path d="M132.84,288.5c0-1.952-1.988-3.535-4.44-3.535s-4.44,1.583-4.44,3.535,1.988,3.535,4.44,3.535S132.84,290.448,132.84,288.5Zm0,0" transform="translate(-105.173 -242.75)" fill="#ffa6bb"/><path d="M320.829,288.5c0-1.952-1.988-3.535-4.44-3.535s-4.44,1.583-4.44,3.535,1.988,3.535,4.44,3.535S320.829,290.448,320.829,288.5Zm0,0" transform="translate(-265.315 -242.75)" fill="#ffa6bb"/><path d="M97.12,185.331s-4.95,8.364-13.363,6.178a8.591,8.591,0,0,1,2.166-7.309c.133-.067,11.2,1.131,11.2,1.131Zm0,0" transform="translate(-70.806 -156.912)" fill="#ff7956"/><path d="M321.086,185.331s4.949,8.364,13.363,6.178a8.592,8.592,0,0,0-2.166-7.309c-.133-.067-11.2,1.131-11.2,1.131Zm0,0" transform="translate(-273.099 -156.912)" fill="#ff9478"/><path d="M122.3,8.269c-5.144-1.535-23.542-2.987-29.032,19.206l23.023,1.743,22.784-1.743s1.942-14.668-13.963-18.443c-.945-.224-1.882-.485-2.813-.763Zm0,0" transform="translate(-79.025 -6.39)" fill="#ff9478"/><path d="M93.265,36.189l19.761,1.5A61.392,61.392,0,0,1,107.8,17.731c-5.891,2.243-11.8,7.432-14.533,18.458Zm0,0" transform="translate(-79.024 -15.104)" fill="#ff7956"/><path d="M129.3,128.535a115.225,115.225,0,0,0-22.9-2.48,115.42,115.42,0,0,0-22.91,2.48s-2.705,3.832-1.29,10.64A140.55,140.55,0,0,1,106.4,136.7a140.552,140.552,0,0,1,24.194,2.475c1.416-6.809-1.29-10.64-1.29-10.64Zm0,0" transform="translate(-69.251 -107.382)" fill="#b2e59c"/><path d="M83.492,129.283s-2.705,3.832-1.29,10.64c0,0,5.363-1.084,12.455-1.817.371-2.034,1.044-4.124,2.261-5.31a25.714,25.714,0,0,0,4.537-5.863,116.247,116.247,0,0,0-17.963,2.35Zm0,0" transform="translate(-69.251 -108.131)" fill="#9ad880"/><path d="M56.529,40.979c4.237-7.339-9.415-7.339-5.178,0-4.237-7.339-11.063,4.485-2.589,4.485-8.474,0-1.648,11.823,2.589,4.484-4.237,7.339,9.415,7.339,5.178,0,4.237,7.339,11.063-4.484,2.589-4.484,8.474,0,1.648-11.823-2.589-4.485Zm0,0" transform="translate(-37.67 -30.22)" fill="#ffb0d0"/><path d="M90.476,82.948a3.471,3.471,0,1,1-3.471-3.471A3.471,3.471,0,0,1,90.476,82.948Zm0,0" transform="translate(-70.735 -67.703)" fill="#ffeb99"/><path d="M141.157,250.391a5.5,5.5,0,1,1-5.5-5.5A5.5,5.5,0,0,1,141.157,250.391Zm0,0" transform="translate(-110.458 -208.619)" fill="#7ac1dd"/><path d="M302.469,250.391a5.5,5.5,0,1,1-5.5-5.5A5.5,5.5,0,0,1,302.469,250.391Zm0,0" transform="translate(-247.875 -208.619)" fill="#7ac1dd"/><path d="M60.479,48.322a7.253,7.253,0,0,0,8.315-7.393,7.455,7.455,0,0,0-6.2-7.338,9.166,9.166,0,0,0-.115-1.845c1.153-5.917-.628-9.713-1.293-10.867a19.647,19.647,0,0,0-1.11-7.979C58.611,8.867,55.04,3.626,46.342,1.562c-.826-.2-1.725-.44-2.751-.746A25.1,25.1,0,0,0,32.657.408a22.462,22.462,0,0,0-12.13,6.3,3.7,3.7,0,0,0-1.075-1.485,5.208,5.208,0,0,0-6.365,0A3.677,3.677,0,0,0,11.8,7.494a3.673,3.673,0,0,0-2.612-.016,5.228,5.228,0,0,0-3.217,5.265A15.506,15.506,0,0,0,.5,24.665a1.111,1.111,0,0,0,2.222,0,13.332,13.332,0,0,1,4.2-9.8,3.891,3.891,0,0,0,.4.383A3.675,3.675,0,0,0,6,17.5,5.206,5.206,0,0,0,9.184,23.01a3.676,3.676,0,0,0,2.612-.016,3.79,3.79,0,0,0,.182.7,17.786,17.786,0,0,0-.16,8.088,9.183,9.183,0,0,0-.109,1.813,7.455,7.455,0,0,0-6.2,7.338,7.6,7.6,0,0,0,8.315,7.393,23.452,23.452,0,0,0,5.062,7.195,14.382,14.382,0,0,0-6.517,6.922c-4.186-5.353-8.019-22.107-9.3-33.14a1.111,1.111,0,0,0-2.207.256A147.44,147.44,0,0,0,4.7,49.411c2.147,7.952,4.448,13.136,6.844,15.429a14.219,14.219,0,0,0-.414,3.4v2.108a5.5,5.5,0,0,0,5.493,5.492H57.678a5.5,5.5,0,0,0,5.493-5.492V68.239a14.351,14.351,0,0,0-.36-3.2,1.111,1.111,0,0,0-2.166.5,12.159,12.159,0,0,1,.3,2.709v2.108a3.275,3.275,0,0,1-3.271,3.271H16.623a3.275,3.275,0,0,1-3.271-3.271V68.239A12.137,12.137,0,0,1,20.71,57.112a22.913,22.913,0,0,0,4.395,2.714,12.966,12.966,0,0,0,24.088,0,22.94,22.94,0,0,0,4.4-2.715,12.2,12.2,0,0,1,5.429,4.573,1.129,1.129,0,0,0,1.536.33,1.089,1.089,0,0,0,.33-1.536,14.453,14.453,0,0,0-5.469-4.961,23.624,23.624,0,0,0,5.062-7.194Zm6.093-7.393c0,5.2-5.243,5.221-5.253,5.221a22.906,22.906,0,0,0,1.142-7.164V35.828a5.23,5.23,0,0,1,4.112,5.1Zm-6.213-8.193a6.725,6.725,0,0,1,0,.943,9.914,9.914,0,0,1-8.122-2.2c3.817.485,6.792,1.006,8.12,1.253ZM33.05,2.6a23.1,23.1,0,0,1,9.905.349c1.066.318,2.007.573,2.873.779C52,5.188,56.084,8.5,57.957,13.577a17.727,17.727,0,0,1,1.051,6.22c-1.137-.229-2.976-.573-5.325-.926a1.111,1.111,0,0,0-.33,2.2c2.939.442,5.1.878,5.992,1.068a13.415,13.415,0,0,1,1.1,8.358,141.6,141.6,0,0,0-23.3-2.287,141.554,141.554,0,0,0-23.3,2.287,16.023,16.023,0,0,1-.032-4.74c.738.4,4.011.867,5.638-.49a3.663,3.663,0,0,0,1.292-2.269c2.611.939,4.786-1.409,5.348-2.588a104.47,104.47,0,0,1,11.058-.624,87.465,87.465,0,0,1,11.729.7,1.028,1.028,0,0,0,1.228-.979,1.111,1.111,0,0,0-.98-1.228,107.456,107.456,0,0,0-11.978-.71c-3.341,0-6.884.189-10.55.558a3.5,3.5,0,0,0-1.381-2.876,3.679,3.679,0,0,0,1.319-2.254,5.6,5.6,0,0,0-3.5-5.613A20.065,20.065,0,0,1,33.05,2.6ZM22.6,9.566A3.04,3.04,0,0,1,24.351,12.6c-.223,1.263-3.4,1.617-3.583,1.764a4.581,4.581,0,0,0-1.493-2.579C19.5,11.7,21.39,9.127,22.6,9.566Zm-1.83,6.554c.188.146,3.361.5,3.583,1.764A3.039,3.039,0,0,1,22.6,20.922c-1.206.439-3.1-2.133-3.322-2.223a4.582,4.582,0,0,0,1.493-2.579Zm-2.137-.876a2.36,2.36,0,1,1-2.36-2.36A2.362,2.362,0,0,1,18.63,15.244Zm-2.36,4.581a4.55,4.55,0,0,0,1.489-.25c-.007.051,1.247,3.161.265,3.986a3.039,3.039,0,0,1-3.508,0c-.983-.825.271-3.935.264-3.986a4.553,4.553,0,0,0,1.489.25ZM13.938,33.678a6.564,6.564,0,0,1,0-.943c1.34-.248,4.329-.772,8.159-1.257a9.909,9.909,0,0,1-8.162,2.2Zm.579-26.751a3.039,3.039,0,0,1,3.508,0c.983.825-.272,3.935-.264,3.986a4.562,4.562,0,0,0-2.979,0c.007-.051-1.248-3.161-.265-3.986ZM9.944,9.566c1.206-.439,3.1,2.133,3.322,2.223a4.58,4.58,0,0,0-1.492,2.579c-.189-.147-3.361-.5-3.584-1.764A3.041,3.041,0,0,1,9.944,9.566Zm0,11.356A3.041,3.041,0,0,1,8.19,17.884c.223-1.264,3.4-1.617,3.584-1.764A4.584,4.584,0,0,0,13.266,18.7c-.222.09-2.116,2.662-3.322,2.223ZM7.729,40.929a5.231,5.231,0,0,1,4.112-5.1v3.159a22.892,22.892,0,0,0,1.142,7.164c-.01,0-5.254-.4-5.254-5.221Zm6.334-1.943V35.951a13.823,13.823,0,0,0,11.645-4.887,114.154,114.154,0,0,1,11.437-.636,114.191,114.191,0,0,1,11.449.637,13.694,13.694,0,0,0,11.645,4.886v3.035A20.852,20.852,0,0,1,39.451,59.774h-4.6a21.811,21.811,0,0,1-14.68-6.107,20.639,20.639,0,0,1-6.108-14.681ZM37.151,65.768a10.77,10.77,0,0,1-8.908-4.738A22.94,22.94,0,0,0,34.851,62h4.6a22.941,22.941,0,0,0,6.605-.966,10.816,10.816,0,0,1-8.905,4.738Zm0,0" transform="translate(0 0)"/><path d="M220.627,273.23h-6.052a2.25,2.25,0,0,0-2.247,2.247V278.5a5.273,5.273,0,0,0,10.546,0v-3.026A2.25,2.25,0,0,0,220.627,273.23Zm.025,5.273a3.051,3.051,0,0,1-6.1,0v-3.026c0-.014,6.1-.014,6.1,0Zm0,0" transform="translate(-180.451 -232.757)"/><path d="M129.275,245.308a6.6,6.6,0,0,0,5.579-10.141,12.317,12.317,0,0,1,12.736,0,6.625,6.625,0,1,0,1.518-1.672,14.543,14.543,0,0,0-15.772,0,6.605,6.605,0,1,0-4.061,11.813Zm23.895-10.993a4.385,4.385,0,1,1-4.385,4.385A4.39,4.39,0,0,1,153.169,234.316Zm-23.895,0a4.385,4.385,0,1,1-4.385,4.385A4.39,4.39,0,0,1,129.275,234.316Zm0,0" transform="translate(-104.071 -196.929)"/></g></svg>