<svg xmlns="http://www.w3.org/2000/svg" width="68.294" height="94.174" viewBox="0 0 68.294 94.174">
  <g id="woman" transform="translate(-70.352)">
    <path id="Path_30173" data-name="Path 30173" d="M128.623,74.583c8.154,0,14.765-6.917,14.765-15.451a15.881,15.881,0,0,0-2.578-8.725,20.135,20.135,0,0,1-2.949-14.523,28.568,28.568,0,0,0,.421-4.908c0-12.966-8.617-23.476-19.246-23.476a16.054,16.054,0,0,0-5.541.988,8.367,8.367,0,0,1-5.75,0A16.056,16.056,0,0,0,102.2,7.5c-10.629,0-19.246,10.511-19.246,23.476a28.567,28.567,0,0,0,.421,4.908,20.137,20.137,0,0,1-2.949,14.523,15.879,15.879,0,0,0-2.578,8.725c0,8.533,6.61,15.451,14.765,15.451h36.006Z" transform="translate(-6.121 -6.12)" fill="#ea806f"/>
    <path id="Path_30174" data-name="Path 30174" d="M307.379,59.132c0,8.533-6.609,15.451-14.763,15.451H284.17c8.154,0,14.765-6.918,14.765-15.451a15.873,15.873,0,0,0-2.578-8.724,20.138,20.138,0,0,1-2.949-14.524,28.593,28.593,0,0,0,.42-4.907c0-11.2-6.425-20.563-15.022-22.91a16.008,16.008,0,0,1,4.221-.567c10.629,0,19.246,10.511,19.246,23.477a28.408,28.408,0,0,1-.422,4.907A20.138,20.138,0,0,0,304.8,50.408,15.873,15.873,0,0,1,307.379,59.132Z" transform="translate(-170.113 -6.12)" fill="#c4715c"/>
    <path id="Path_30175" data-name="Path 30175" d="M152.415,336.377v16.585H92.133V336.377a17.569,17.569,0,0,1,17.568-17.57h25.144a17.569,17.569,0,0,1,17.569,17.57Z" transform="translate(-17.775 -260.167)" fill="#fc5a95"/>
    <path id="Path_30176" data-name="Path 30176" d="M211.107,412.379a6.206,6.206,0,0,0-4.827,2.358,6.2,6.2,0,0,0-4.826-2.358,6.605,6.605,0,0,0-6.381,6.81c0,2.661,1.971,6.829,6.254,10.134h9.907c4.281-3.3,6.252-7.473,6.252-10.134A6.605,6.605,0,0,0,211.107,412.379Z" transform="translate(-101.78 -336.528)" fill="#eaf6ff"/>
    <path id="Path_30177" data-name="Path 30177" d="M265.357,419.189c0,2.661-1.971,6.829-6.252,10.134h-5.371c4.281-3.3,6.252-7.473,6.252-10.134a6.847,6.847,0,0,0-3.7-6.179,6.028,6.028,0,0,1,2.687-.631A6.605,6.605,0,0,1,265.357,419.189Z" transform="translate(-149.651 -336.528)" fill="#d9ecfd"/>
    <path id="Path_30178" data-name="Path 30178" d="M313.021,336.377v16.585h-6.514V336.377a17.569,17.569,0,0,0-17.569-17.57h6.514A17.569,17.569,0,0,1,313.021,336.377Z" transform="translate(-178.381 -260.167)" fill="#fb3a82"/>
    <path id="Path_30179" data-name="Path 30179" d="M213.938,318.807a12.239,12.239,0,1,1-24.478,0Z" transform="translate(-97.2 -260.167)" fill="#ffbfb0"/>
    <path id="Path_30180" data-name="Path 30180" d="M217.126,276h14.3v10.957h-14.3Z" transform="translate(-119.777 -225.233)" fill="#ffbfb0"/>
    <path id="Path_30181" data-name="Path 30181" d="M231.427,276v6.393a19.382,19.382,0,0,1-14.3,0V276Z" transform="translate(-119.777 -225.233)" fill="#ffa792"/>
    <circle id="Ellipse_34" data-name="Ellipse 34" cx="5.265" cy="5.265" r="5.265" transform="translate(115.812 28.665)" fill="#ffa792"/>
    <path id="Path_30182" data-name="Path 30182" d="M190.3,107.808a8.392,8.392,0,0,1,8.386,8.718l-.44,11.29a15.812,15.812,0,0,1-31.6,0l-.3-7.593-.484-12.416H190.3Z" transform="translate(-77.944 -87.978)" fill="#ffcec0"/>
    <ellipse id="Ellipse_35" data-name="Ellipse 35" cx="2.413" cy="1.75" rx="2.413" ry="1.75" transform="translate(93.883 40.006)" fill="#fc95bb"/>
    <ellipse id="Ellipse_36" data-name="Ellipse 36" cx="2.413" cy="1.75" rx="2.413" ry="1.75" transform="translate(110.289 40.006)" fill="#fc95bb"/>
    <path id="Path_30183" data-name="Path 30183" d="M153.1,103.923h3.387a23.6,23.6,0,0,0,17.939-8.266l5.238-6.129H151.379V102.2A1.724,1.724,0,0,0,153.1,103.923Z" transform="translate(-66.123 -73.061)" fill="#ea806f"/>
    <g id="Group_13102" data-name="Group 13102" transform="translate(70.352)">
      <path id="Path_30184" data-name="Path 30184" d="M138.646,53.012a17.241,17.241,0,0,0-2.8-9.481A18.717,18.717,0,0,1,133.1,30a30.034,30.034,0,0,0,.442-5.145,28.185,28.185,0,0,0-4.04-14.788,1.379,1.379,0,0,0-2.351,1.444,25.43,25.43,0,0,1,3.632,13.344,27.249,27.249,0,0,1-.4,4.671,21.466,21.466,0,0,0,3.154,15.516,14.492,14.492,0,0,1,2.353,7.969,14.273,14.273,0,0,1-4.633,10.646,18.906,18.906,0,0,0-14.183-6.4h-4.043v-3.1a17.2,17.2,0,0,0,8.608-13.606,6.644,6.644,0,0,0,.448-13.187,9.767,9.767,0,0,0-8.491-8.833l1-1.166a1.379,1.379,0,0,0-2.1-1.793L107.256,21.7a22.141,22.141,0,0,1-6.151,5.013,1.379,1.379,0,1,0,1.334,2.415,24.891,24.891,0,0,0,6.915-5.636l1.952-2.284h1.048a7.013,7.013,0,0,1,7.008,7.285l-.438,11.292a14.434,14.434,0,0,1-28.845,0l-.293-7.544h.583a25,25,0,0,0,6.11-.76,1.379,1.379,0,0,0-.675-2.675,22.236,22.236,0,0,1-5.435.676H86.979a.344.344,0,0,1-.344-.344V20.691a1.38,1.38,0,0,0-2.759,0v8.447a3.107,3.107,0,0,0,3.1,3.1h.043l.3,7.651a17.213,17.213,0,0,0,8.65,14.263v3.1H91.927a18.905,18.905,0,0,0-14.182,6.4,14.247,14.247,0,0,1-4.633-10.646,14.491,14.491,0,0,1,2.353-7.969,21.466,21.466,0,0,0,3.154-15.516,27.267,27.267,0,0,1-.4-4.671c0-12.184,8.015-22.1,17.866-22.1a14.689,14.689,0,0,1,5.067.9,9.749,9.749,0,0,0,6.7,0,14.689,14.689,0,0,1,5.067-.9,15.6,15.6,0,0,1,10.66,4.373,1.38,1.38,0,0,0,1.87-2.028A18.313,18.313,0,0,0,112.915,0,17.439,17.439,0,0,0,106.9,1.073a6.987,6.987,0,0,1-4.8,0A17.439,17.439,0,0,0,96.083,0C84.71,0,75.458,11.15,75.458,24.856A30.018,30.018,0,0,0,75.9,30a18.717,18.717,0,0,1-2.744,13.529,17.243,17.243,0,0,0-2.8,9.481,16.978,16.978,0,0,0,5.712,12.846A18.839,18.839,0,0,0,72.979,76.21v4.624a1.38,1.38,0,1,0,2.759,0V76.21A16.21,16.21,0,0,1,90.955,60.049a13.617,13.617,0,0,0,27.088,0A16.21,16.21,0,0,1,133.26,76.21V92.794a1.38,1.38,0,1,0,2.759,0V76.21a18.839,18.839,0,0,0-3.086-10.353,17.006,17.006,0,0,0,5.713-12.844ZM124.963,33.93a3.889,3.889,0,0,1-3.2,3.821l.294-7.577A3.889,3.889,0,0,1,124.963,33.93ZM104.5,69.5a10.831,10.831,0,0,1-10.77-9.48H95.97v1.7a1.38,1.38,0,1,0,2.759,0v-6.3a17.258,17.258,0,0,0,11.542,0v6.3a1.38,1.38,0,0,0,2.759,0v-1.7h2.241A10.824,10.824,0,0,1,104.5,69.5Z" transform="translate(-70.352 0)"/>
      <path id="Path_30185" data-name="Path 30185" d="M86.013,464.962a1.38,1.38,0,0,0-1.38,1.38v5.892a1.38,1.38,0,1,0,2.759,0v-5.892A1.38,1.38,0,0,0,86.013,464.962Z" transform="translate(-82.006 -379.439)"/>
      <path id="Path_30186" data-name="Path 30186" d="M249.88,186.135a1.38,1.38,0,0,0,1.38-1.38V178.35a1.38,1.38,0,0,0-2.759,0v6.406A1.38,1.38,0,0,0,249.88,186.135Z" transform="translate(-215.732 -144.419)"/>
      <path id="Path_30187" data-name="Path 30187" d="M195.4,182.356a6.215,6.215,0,0,0-2.487.513,1.38,1.38,0,0,0,1.112,2.525,3.586,3.586,0,0,1,2.75,0,1.379,1.379,0,1,0,1.112-2.525A6.212,6.212,0,0,0,195.4,182.356Z" transform="translate(-169.699 -148.814)"/>
      <path id="Path_30188" data-name="Path 30188" d="M285.845,185.394a3.586,3.586,0,0,1,2.75,0,1.379,1.379,0,1,0,1.112-2.525,6.279,6.279,0,0,0-4.973,0,1.379,1.379,0,1,0,1.112,2.525Z" transform="translate(-244.629 -148.814)"/>
      <path id="Path_30189" data-name="Path 30189" d="M233.671,240.533a1.38,1.38,0,0,0-1.222,1.521,4.351,4.351,0,0,0,8.65,0,1.38,1.38,0,0,0-2.743-.3,1.592,1.592,0,0,1-3.164,0A1.379,1.379,0,0,0,233.671,240.533Z" transform="translate(-202.627 -196.284)"/>
      <path id="Path_30190" data-name="Path 30190" d="M359.864,418.3a1.38,1.38,0,0,0-1.38,1.379v14.475a1.38,1.38,0,0,0,2.759,0V419.681A1.38,1.38,0,0,0,359.864,418.3Z" transform="translate(-305.487 -341.361)"/>
      <path id="Path_30191" data-name="Path 30191" d="M139.9,418.3a1.38,1.38,0,0,0-1.38,1.379v14.475a1.38,1.38,0,1,0,2.759,0V419.681A1.38,1.38,0,0,0,139.9,418.3Z" transform="translate(-125.978 -341.361)"/>
      <path id="Path_30192" data-name="Path 30192" d="M204.987,404.878a7.5,7.5,0,0,0-4.827,1.777,7.5,7.5,0,0,0-4.826-1.777,7.993,7.993,0,0,0-7.761,8.19c0,2.98,2.1,7.607,6.79,11.226a1.38,1.38,0,1,0,1.686-2.184c-3.928-3.031-5.717-6.812-5.717-9.042a5.235,5.235,0,0,1,5-5.431,4.843,4.843,0,0,1,3.754,1.847,1.38,1.38,0,0,0,2.144,0,4.845,4.845,0,0,1,3.755-1.847,5.235,5.235,0,0,1,5,5.431c0,2.23-1.789,6.011-5.715,9.042a1.38,1.38,0,0,0,1.686,2.184c4.69-3.62,6.789-8.247,6.789-11.226A7.993,7.993,0,0,0,204.987,404.878Z" transform="translate(-166.013 -330.407)"/>
    </g>
  </g>
</svg>
