<svg xmlns="http://www.w3.org/2000/svg" width="68.294" height="80.043" viewBox="0 0 68.294 80.043">
  <g id="nerd" transform="translate(-37.578)">
    <g id="Group_13079" data-name="Group 13079" transform="translate(38.75 58.745)">
      <path id="Path_30147" data-name="Path 30147" d="M46.8,395.89h11.04v-8.541c0-2.278-.182-3.523-1.7-5.2l-5.784-6.387A11.986,11.986,0,0,0,45.978,384l-.878,10.03C44.972,395.464,45.357,395.868,46.8,395.89Z" transform="translate(-45.077 -375.764)" fill="#f9f7f8" fill-rule="evenodd"/>
    </g>
    <g id="Group_13080" data-name="Group 13080" transform="translate(63.122 40.632)">
      <path id="Path_30148" data-name="Path 30148" d="M200.974,262.608v7.783l8.682,11.5,8.642-11.47-.12-.027v-7.672C212.231,258.7,206.82,259.275,200.974,262.608Z" transform="translate(-200.974 -259.906)" fill="#fed1a3" fill-rule="evenodd"/>
    </g>
    <g id="Group_13081" data-name="Group 13081" transform="translate(40.497 6.113)">
      <path id="Path_30149" data-name="Path 30149" d="M58.492,67.082c1.392,3.732,1.582,8.04-.022,15.428-.448,2.07-.585,1.848,1.706,1.263C66.935,82.04,70.4,78.1,73.006,70.4c4.866-12.875,8.221-15.783.319-30.3-5.917-2.961-11.43,1.1-14.355,6.085C54.694,53.484,56.188,60.917,58.492,67.082Z" transform="translate(-56.249 -39.101)" fill="#be694f" fill-rule="evenodd"/>
    </g>
    <g id="Group_13082" data-name="Group 13082" transform="translate(81.726 6.112)">
      <path id="Path_30150" data-name="Path 30150" d="M324.612,70.4c2.606,7.7,6.067,11.639,12.826,13.371,2.291.585,2.154.807,1.706-1.263-1.6-7.388-1.414-11.7-.022-15.428,2.3-6.165,3.8-13.6-.479-20.893-2.925-4.986-8.438-9.046-14.355-6.085C319.533,53.491,317.494,60.636,324.612,70.4Z" transform="translate(-319.975 -39.099)" fill="#be694f" fill-rule="evenodd"/>
    </g>
    <g id="Group_13083" data-name="Group 13083" transform="translate(48.785 23.151)">
      <path id="Path_30151" data-name="Path 30151" d="M109.265,152.5c0,2.894,2.885,4.463,5.846,4.49,1.959-3.324,1.591-6.426-.541-8.886l-2.38-.013h-.222a2.714,2.714,0,0,0-2.7,2.7Z" transform="translate(-109.265 -148.087)" fill="#ffbc85" fill-rule="evenodd"/>
    </g>
    <g id="Group_13084" data-name="Group 13084" transform="translate(54.09 13.055)">
      <path id="Path_30152" data-name="Path 30152" d="M156.476,116.033a11.5,11.5,0,0,0,8.877,0,19.077,19.077,0,0,0,4.082-2.132,23.4,23.4,0,0,0,6.036-6.036,19.337,19.337,0,0,0,2.619-5.358,12.471,12.471,0,0,0,.541-3.519V93.616c-11.031.04-14.173-10.109-17.714-10.109-3.39,0-7.171,10.149-17.719,10.109v5.372a12.63,12.63,0,0,0,.541,3.519,19.352,19.352,0,0,0,2.624,5.358,23.348,23.348,0,0,0,5.868,5.921,19.43,19.43,0,0,0,4.246,2.247Z" transform="translate(-143.198 -83.506)" fill="#ffe5c1" fill-rule="evenodd"/>
    </g>
    <g id="Group_13085" data-name="Group 13085" transform="translate(88.982 23.151)">
      <path id="Path_30153" data-name="Path 30153" d="M366.931,153.472a12.471,12.471,0,0,1-.541,3.519c2.961-.031,5.846-1.6,5.846-4.494V150.79a2.714,2.714,0,0,0-2.7-2.7h-.222l-2.38.013Z" transform="translate(-366.39 -148.087)" fill="#ffbc85" fill-rule="evenodd"/>
    </g>
    <g id="Group_13086" data-name="Group 13086" transform="translate(51.71 1.172)">
      <path id="Path_30154" data-name="Path 30154" d="M142.317,27.639a11.773,11.773,0,0,0,3.949-2.664c1.068-1.13,1.436-1.693,1.808-1.693s.736.563,1.8,1.693a11.77,11.77,0,0,0,3.949,2.664c2.145.851,3.116.851,6.4,1.591a46.1,46.1,0,0,0,5.513.262l2.424-.013c0-7.034-2.327-12.379-5.863-16.035a20.014,20.014,0,0,0-28.466,0c-3.537,3.656-5.863,9-5.863,16.035l2.38.013h.044a46.1,46.1,0,0,0,5.513-.262A26.817,26.817,0,0,0,142.317,27.639Z" transform="translate(-127.975 -7.5)" fill="#d09080" fill-rule="evenodd"/>
    </g>
    <g id="Group_13087" data-name="Group 13087" transform="translate(59.648 21.312)">
      <path id="Path_30155" data-name="Path 30155" d="M179.528,145.739h7.853a.785.785,0,0,0,.785-.78l0-3.927,0-3.927a.789.789,0,0,0-.785-.784h-7.853a.785.785,0,0,0-.78.784v7.854A.781.781,0,0,0,179.528,145.739Z" transform="translate(-178.748 -136.321)" fill="#a1d4ff" fill-rule="evenodd"/>
    </g>
    <g id="Group_13088" data-name="Group 13088" transform="translate(74.552 21.312)">
      <path id="Path_30156" data-name="Path 30156" d="M274.866,145.739h7.853a.781.781,0,0,0,.78-.78v-7.854a.785.785,0,0,0-.78-.785h-7.853a.785.785,0,0,0-.78.785v7.854A.781.781,0,0,0,274.866,145.739Z" transform="translate(-274.086 -136.321)" fill="#a1d4ff" fill-rule="evenodd"/>
    </g>
    <g id="Group_13089" data-name="Group 13089" transform="translate(91.934 58.745)">
      <path id="Path_30157" data-name="Path 30157" d="M385.271,395.889h11.04c1.445-.022,1.83-.426,1.7-1.861L397.135,384a12,12,0,0,0-4.383-8.235l-5.784,6.387c-1.516,1.675-1.7,2.921-1.7,5.2Z" transform="translate(-385.271 -375.763)" fill="#f9f7f8" fill-rule="evenodd"/>
    </g>
    <g id="Group_13090" data-name="Group 13090" transform="translate(44.034 52.478)">
      <path id="Path_30158" data-name="Path 30158" d="M86.356,362.071h40.419V353.53c0-2.278.182-3.523,1.7-5.2l5.784-6.387c-3.577-3.089-8.788-4.9-13.624-6.227l-13.987,5.407-14-5.447c-4.875,1.33-10.162,3.142-13.774,6.267l5.784,6.387c1.516,1.675,1.7,2.921,1.7,5.2Z" transform="translate(-78.875 -335.678)" fill="#eb5468" fill-rule="evenodd"/>
    </g>
    <g id="Group_13091" data-name="Group 13091" transform="translate(71.804 51.148)">
      <path id="Path_30159" data-name="Path 30159" d="M256.51,333.949l7.8,4.1a2.4,2.4,0,0,0,3.621-1.073l2.562-8.439c-1.879-.514-3.7-.953-5.345-1.37Z" transform="translate(-256.51 -327.172)" fill="#f9f7f8" fill-rule="evenodd"/>
    </g>
    <g id="Group_13092" data-name="Group 13092" transform="translate(57.808 51.117)">
      <path id="Path_30160" data-name="Path 30160" d="M169.558,336.813a2.4,2.4,0,0,0,3.621,1.073l7.8-4.1-8.682-6.808v0c-1.631.408-3.444.847-5.314,1.356Z" transform="translate(-166.983 -326.974)" fill="#f9f7f8" fill-rule="evenodd"/>
    </g>
    <g id="Group_13093" data-name="Group 13093" transform="translate(62.218 1.172)">
      <path id="Path_30161" data-name="Path 30161" d="M224.876,29.479c0-7.034-2.327-12.379-5.863-16.035A19.879,19.879,0,0,0,204.782,7.5a20.388,20.388,0,0,0-9.591,2.424,20.731,20.731,0,0,1,3.98-.408A19.9,19.9,0,0,1,213.4,15.46a19.416,19.416,0,0,1,3.337,4.68,23.621,23.621,0,0,1,2.442,9.033c0,.08.013.164.018.248,1.241.066,2.358.075,3.253.071h.044Z" transform="translate(-195.191 -7.5)" fill="#ce775f" fill-rule="evenodd"/>
    </g>
    <g id="Group_13094" data-name="Group 13094" transform="translate(69.939 23.093)">
      <path id="Path_30162" data-name="Path 30162" d="M264.161,147.788h0Zm-.541,8.891a12.471,12.471,0,0,0,.541-3.519v-5.372h-.044c-.9,0-2.012,0-3.253-.071v5.372a12.456,12.456,0,0,1-.545,3.519,17.646,17.646,0,0,1-1.081,2.748,21.615,21.615,0,0,1-1.538,2.61A23.4,23.4,0,0,1,251.664,168q-.645.439-1.316.824a18.213,18.213,0,0,1-2.761,1.307,14.4,14.4,0,0,1-3.009.793,10.783,10.783,0,0,0,1.87.168,12.6,12.6,0,0,0,4.436-.891,19.147,19.147,0,0,0,4.068-2.123s.009,0,.013-.009A23.4,23.4,0,0,0,261,162.037,19.334,19.334,0,0,0,263.621,156.679Z" transform="translate(-244.577 -147.717)" fill="#fed1a3" fill-rule="evenodd"/>
    </g>
    <g id="Group_13095" data-name="Group 13095" transform="translate(63.122 43.335)">
      <path id="Path_30163" data-name="Path 30163" d="M218.18,277.307l-.013.009S218.175,277.312,218.18,277.307Zm-10.388,2.854a15.323,15.323,0,0,1-2.57-.722,19.426,19.426,0,0,1-4.246-2.247v3.891a14.213,14.213,0,0,0,13.819,1.879v4.8l3.506-2.752-.12-.027v-7.672s-.009,0-.013.009a19.147,19.147,0,0,1-4.068,2.123,12.6,12.6,0,0,1-4.436.891,10.8,10.8,0,0,1-1.871-.169Z" transform="translate(-200.975 -277.192)" fill="#ffbc85" fill-rule="evenodd"/>
    </g>
    <g id="Group_13096" data-name="Group 13096" transform="translate(64.168 21.312)">
      <path id="Path_30164" data-name="Path 30164" d="M212.56,144.959l0-3.927,0-3.927a.789.789,0,0,0-.784-.784h-2.925l.106.226a9.078,9.078,0,0,1,.217,6.067,10.043,10.043,0,0,1-1.511,3.125h4.113A.785.785,0,0,0,212.56,144.959Z" transform="translate(-207.663 -136.321)" fill="#a1d4ff" fill-rule="evenodd"/>
    </g>
    <g id="Group_13097" data-name="Group 13097" transform="translate(79.073 21.312)">
      <path id="Path_30165" data-name="Path 30165" d="M307.895,144.959v-7.854a.785.785,0,0,0-.78-.784H304.19l.106.226a9.078,9.078,0,0,1,.217,6.067A10.043,10.043,0,0,1,303,145.739h4.113A.781.781,0,0,0,307.895,144.959Z" transform="translate(-303.002 -136.321)" fill="#a1d4ff" fill-rule="evenodd"/>
    </g>
    <g id="Group_13098" data-name="Group 13098" transform="translate(76.409 51.148)">
      <path id="Path_30166" data-name="Path 30166" d="M295.346,328.542c-1.879-.514-3.7-.953-5.345-1.37l-3.506,2.752-.532.417c.452.115.917.23,1.387.35s.971.244,1.467.377c.412.106.829.217,1.245.332,1.334.363,2.695.767,4.042,1.223Z" transform="translate(-285.964 -327.172)" fill="#dddaec" fill-rule="evenodd"/>
    </g>
    <g id="Group_13099" data-name="Group 13099" transform="translate(84.55 52.518)">
      <path id="Path_30167" data-name="Path 30167" d="M352.906,342.16c-3.577-3.089-8.788-4.9-13.624-6.227l-1.241,4.082a28.663,28.663,0,0,1,9.582,5,14.657,14.657,0,0,1,1.423,1.4Z" transform="translate(-338.041 -335.933)" fill="#e5384f" fill-rule="evenodd"/>
    </g>
    <g id="Group_13100" data-name="Group 13100" transform="translate(95.555 58.745)">
      <path id="Path_30168" data-name="Path 30168" d="M416.675,384a12,12,0,0,0-4.383-8.235l-3.86,4.259a11.6,11.6,0,0,1,2.956,6.834l.8,9.033h3.665c1.445-.022,1.83-.426,1.7-1.861Z" transform="translate(-408.432 -375.764)" fill="#dddaec" fill-rule="evenodd"/>
    </g>
    <g id="Group_13101" data-name="Group 13101" transform="translate(37.578 0)">
      <path id="Path_30169" data-name="Path 30169" d="M233.108,233.238a5.608,5.608,0,0,0,4-1.661,1.172,1.172,0,0,0-1.66-1.656,3.295,3.295,0,0,1-4.673,0,1.172,1.172,0,0,0-1.66,1.656,5.608,5.608,0,0,0,4,1.661Z" transform="translate(-198.88 -193.686)"/>
      <path id="Path_30170" data-name="Path 30170" d="M202.5,161.318a1.168,1.168,0,0,0,.829-.343l.009-.009a1.172,1.172,0,1,0-.838.352Z" transform="translate(-175.728 -134.118)"/>
      <path id="Path_30171" data-name="Path 30171" d="M297.881,161.294a1.173,1.173,0,0,0,.829-2l-.009-.009a1.173,1.173,0,1,0-.82,2.01Z" transform="translate(-256.196 -134.094)"/>
      <path id="Path_30172" data-name="Path 30172" d="M105.844,76.907l-.878-10.03c-.974-11.07-14.3-14.388-23.122-16.584l-.345-.086V44.052A24.645,24.645,0,0,0,86,39.834a22.414,22.414,0,0,0,4.364,7.307,16.915,16.915,0,0,0,8.534,4.78c.263.067.492.129.693.183a5.477,5.477,0,0,0,1.338.257,1.326,1.326,0,0,0,.973-.384c.611-.585.445-1.324.236-2.259-.03-.134-.063-.282-.1-.445-1.458-6.713-1.478-10.992-.07-14.769.481-1.287.867-2.461,1.18-3.587a1.2,1.2,0,0,0-.773-1.48,1.173,1.173,0,0,0-1.474.809c-.3,1.074-.666,2.2-1.13,3.439-1.575,4.224-1.586,8.872-.037,16.032l-.257-.067c-6.029-1.546-9.273-4.84-11.819-12.07a20.526,20.526,0,0,0,2.191-4.4C93.032,32.856,96,30.931,96,27.561V25.854a3.882,3.882,0,0,0-2.944-3.762,23.753,23.753,0,0,0-5.032-14.5c4.832-1.4,9.067,2.3,11.358,6.206a18.615,18.615,0,0,1,2.463,11.532,1.173,1.173,0,0,0,1.165,1.32,1.173,1.173,0,0,0,1.166-1.062,20.891,20.891,0,0,0-2.771-12.977c-3.14-5.352-8.961-9.421-15.115-6.892a21.208,21.208,0,0,0-28.967,0c-6.155-2.529-11.976,1.54-15.116,6.892a20.866,20.866,0,0,0-2.771,12.963A1.173,1.173,0,0,0,40.6,26.633c.037,0,.075,0,.112-.005a1.172,1.172,0,0,0,1.056-1.278A18.6,18.6,0,0,1,44.23,13.794c2.292-3.906,6.526-7.61,11.358-6.206a23.752,23.752,0,0,0-5.031,14.5,3.882,3.882,0,0,0-2.944,3.762v1.706c0,3.37,2.969,5.3,6.149,5.618a20.522,20.522,0,0,0,2.191,4.407C53.4,44.811,50.159,48.1,44.134,49.649l-.259.067c1.89-8.719,1.3-10.789-.447-16.911-.205-.719-.437-1.532-.68-2.409a1.206,1.206,0,0,0-1.421-.876,1.173,1.173,0,0,0-.852,1.451c.25.905.488,1.74.7,2.477,1.717,6.018,2.178,7.635.4,15.826-.035.162-.068.309-.1.444-.21.936-.375,1.675.236,2.259a1.326,1.326,0,0,0,.973.384,5.476,5.476,0,0,0,1.338-.257c.2-.054.431-.116.694-.184a16.917,16.917,0,0,0,8.533-4.779,22.437,22.437,0,0,0,4.366-7.3,24.693,24.693,0,0,0,4.335,4.1v6.272l-.345.086c-8.82,2.2-22.148,5.515-23.122,16.585L37.606,76.9a2.98,2.98,0,0,0,.561,2.354,3.149,3.149,0,0,0,2.437.785h62.242a3.149,3.149,0,0,0,2.437-.785A2.979,2.979,0,0,0,105.844,76.907ZM84.317,53.338l-2.181,7.187a1.3,1.3,0,0,1-.7.7,1.764,1.764,0,0,1-1.281-.234l-6.2-3.261,6.765-5.3c.185.046,2.558.637,3.6.91ZM71.8,56.435l-7.51-5.888v-5.1a19.331,19.331,0,0,0,2.666,1.236,12.663,12.663,0,0,0,9.692,0,19.244,19.244,0,0,0,2.5-1.146v5.14Zm20.32-32.111a1.531,1.531,0,0,1,1.531,1.531v1.706c0,1.671-1.425,2.736-3.154,3.139a12.679,12.679,0,0,0,.194-2.164V24.33l1.214-.007ZM49.957,27.561V25.854a1.533,1.533,0,0,1,1.531-1.531l1.429.007v4.206a12.682,12.682,0,0,0,.194,2.165C51.383,30.3,49.957,29.231,49.957,27.561ZM52.9,21.985C53.426,8.566,62.949,2.392,71.8,2.345c8.864.047,18.385,6.221,18.906,19.64l-1.233.007c-1.272,0-2.754-.015-4.356-.153a1.956,1.956,0,0,0-1.934-1.7h-5.37a10.487,10.487,0,0,1-3.351-2.3c-.282-.3-.511-.553-.713-.778-.694-.772-1.153-1.282-1.943-1.282s-1.254.512-1.952,1.287c-.2.224-.429.477-.708.772a10.483,10.483,0,0,1-3.351,2.3h-5.37a1.956,1.956,0,0,0-1.934,1.7c-1.6.137-3.084.156-4.353.153Zm29.888.5v7.073H75.725V22.484ZM69.559,20.617a11.352,11.352,0,0,0,1.294-1.164c.367-.388.658-.716.875-.957h.157l.123.137c.2.223.451.5.753.821a11.326,11.326,0,0,0,1.295,1.165A1.953,1.953,0,0,0,73.38,22.1v1.959a4.667,4.667,0,0,0-3.142,0V22.1A1.952,1.952,0,0,0,69.559,20.617Zm-1.666,1.867v7.073H60.82V22.484Zm-12.63,6.052v-4.2c.986-.011,2.065-.046,3.213-.138V29.95A1.952,1.952,0,0,0,60.428,31.9h7.853a1.957,1.957,0,0,0,1.957-1.952V26.639a2.664,2.664,0,0,1,3.142,0v3.31A1.952,1.952,0,0,0,75.332,31.9h7.853a1.952,1.952,0,0,0,1.952-1.952V24.194c1.147.092,2.225.126,3.213.138v4.2c0,6.019-5.848,13.471-12.513,15.946a10.345,10.345,0,0,1-8.062,0c-6.666-2.476-12.513-9.927-12.513-15.947Zm6.909,24.032.683-.17,6.8,5.333-6.2,3.26a1.765,1.765,0,0,1-1.282.234,1.3,1.3,0,0,1-.7-.7L59.283,53.3c.988-.257,1.957-.5,2.888-.731ZM50.343,77.7H40.459a.531.531,0,0,1-.518-.577v-.008l.878-10.029a10.639,10.639,0,0,1,3.14-6.674l4.989,5.51c1.211,1.339,1.394,2.188,1.394,4.412V77.7ZM90.762,70.33V77.7H52.688V70.33c0-2.28-.139-3.928-2-5.986L45.729,58.87c3.09-2.307,7.238-3.807,11.289-4.958L59.262,61.3a1.123,1.123,0,0,0,.058.152,3.641,3.641,0,0,0,2.116,2,3.328,3.328,0,0,0,1.058.169,4.444,4.444,0,0,0,2.057-.552L71.8,59.249l7.26,3.818a4.438,4.438,0,0,0,2.056.551,3.324,3.324,0,0,0,1.058-.169,3.641,3.641,0,0,0,2.116-2,1.1,1.1,0,0,0,.058-.152l2.229-7.341c4,1.145,8.087,2.636,11.14,4.914l-4.958,5.475c-1.861,2.058-2,3.706-2,5.986ZM102.993,77.7H93.107V70.33c0-2.224.183-3.073,1.394-4.412l4.99-5.51a10.639,10.639,0,0,1,3.14,6.674l.878,10.032v.008A.529.529,0,0,1,102.993,77.7Z" transform="translate(-37.578 0)"/>
    </g>
  </g>
</svg>
