<svg xmlns="http://www.w3.org/2000/svg" width="68.294" height="71.501" viewBox="0 0 68.294 71.501">
  <g id="smiley" transform="translate(31.223)">
    <g id="Group_13077" data-name="Group 13077" transform="translate(-31.223 0)">
      <circle id="Ellipse_33" data-name="Ellipse 33" cx="24.149" cy="24.149" r="24.149" transform="translate(0 37.354) rotate(-45)" fill="#f6e06e"/>
      <path id="Path_30079" data-name="Path 30079" d="M74.165,113.766c-.534,0-1.062.019-1.587.053a21.1,21.1,0,1,1-22.536,22.536c-.034.525-.053,1.054-.053,1.587a24.176,24.176,0,1,0,24.176-24.176Z" transform="translate(-40.038 -99.826)" fill="#dda86a"/>
      <path id="Path_30080" data-name="Path 30080" d="M146.476,308.591a16.4,16.4,0,0,1-32.8,0Z" transform="translate(-95.923 -270.779)" fill="#d789b9"/>
      <path id="Path_30081" data-name="Path 30081" d="M113.018,311.593c4.052-1.8,25.685-.449,25.685-.449,0,.9.331-1,.331-3.36h-33c-.059,4.351,4.137,11.585,10.07,14.985a19.294,19.294,0,0,0,6.945,1.519C116.618,323.849,108.966,313.394,113.018,311.593Z" transform="translate(-89.219 -270.07)" fill="#c668b9"/>
      <path id="Path_30082" data-name="Path 30082" d="M180.232,365.5c-1.566-3.489-5.863-5.994-10.92-5.994s-9.355,2.506-10.92,5.994c0,0,5.509,4.166,10.92,4.166S180.232,365.5,180.232,365.5Z" transform="translate(-135.158 -315.455)" fill="#e8c2d8"/>
      <path id="Path_30083" data-name="Path 30083" d="M419.423,66.743l1.023,2.876a.462.462,0,0,0,.24.27l2.555,1.151a.51.51,0,0,1,0,.9l-2.555,1.151a.462.462,0,0,0-.24.27l-1.023,2.876a.415.415,0,0,1-.8,0L417.6,73.362a.462.462,0,0,0-.24-.27l-2.555-1.151a.51.51,0,0,1,0-.9l2.555-1.151a.462.462,0,0,0,.24-.27l1.023-2.876A.415.415,0,0,1,419.423,66.743Z" transform="translate(-359.915 -58.297)" fill="#fbf2aa"/>
      <path id="Path_30084" data-name="Path 30084" d="M116.445.226,117.2,2.36a.343.343,0,0,0,.178.2l1.9.854a.378.378,0,0,1,0,.668l-1.9.854a.342.342,0,0,0-.178.2l-.759,2.134a.308.308,0,0,1-.594,0l-.759-2.134a.343.343,0,0,0-.178-.2l-1.9-.854a.378.378,0,0,1,0-.668l1.9-.854a.342.342,0,0,0,.178-.2l.759-2.134a.308.308,0,0,1,.594,0Z" transform="translate(-95.169 0)" fill="#fbf2aa"/>
      <g id="Group_13076" data-name="Group 13076" transform="translate(6.791 3.178)">
        <path id="Path_30085" data-name="Path 30085" d="M373.735,27.439a1.5,1.5,0,1,1-1.5-1.5A1.5,1.5,0,0,1,373.735,27.439Z" transform="translate(-328.268 -25.936)" fill="#f7e16e"/>
        <path id="Path_30086" data-name="Path 30086" d="M28.637,90.627a2.22,2.22,0,1,1-2.22-2.22A2.22,2.22,0,0,1,28.637,90.627Z" transform="translate(-24.197 -80.752)" fill="#f7e16e"/>
      </g>
    </g>
    <g id="Group_13078" data-name="Group 13078" transform="translate(-22.45 11.974)">
      <path id="Path_30087" data-name="Path 30087" d="M65.754,148.483A25.381,25.381,0,1,1,91.136,123.1,25.41,25.41,0,0,1,65.754,148.483Zm0-48.3A22.917,22.917,0,1,0,88.671,123.1a22.943,22.943,0,0,0-22.917-22.917Z" transform="translate(-40.373 -97.72)" fill="#3c122c"/>
      <path id="Path_30088" data-name="Path 30088" d="M125.332,207.457a1.232,1.232,0,0,1-1.232-1.232,3.43,3.43,0,1,0-6.859,0,1.232,1.232,0,0,1-2.464,0,5.894,5.894,0,0,1,11.788,0A1.233,1.233,0,0,1,125.332,207.457Z" transform="translate(-105.659 -187.758)" fill="#3c122c"/>
      <path id="Path_30089" data-name="Path 30089" d="M294.6,207.457a1.232,1.232,0,0,1-1.232-1.232,3.43,3.43,0,1,0-6.859,0,1.232,1.232,0,0,1-2.464,0,5.894,5.894,0,0,1,11.788,0,1.233,1.233,0,0,1-1.232,1.232Z" transform="translate(-254.19 -187.758)" fill="#3c122c"/>
      <path id="Path_30090" data-name="Path 30090" d="M137.653,298.535h-32.8a1.232,1.232,0,0,0-1.232,1.232,17.631,17.631,0,0,0,35.262,0A1.232,1.232,0,0,0,137.653,298.535Zm-25.76,13.157c1.682-2.7,5.309-4.453,9.361-4.453s7.679,1.758,9.361,4.453a15.133,15.133,0,0,1-18.721,0Zm20.548-1.7c-2.221-3.177-6.492-5.222-11.188-5.222s-8.968,2.044-11.188,5.221a15.113,15.113,0,0,1-3.929-9h30.235A15.111,15.111,0,0,1,132.442,310Z" transform="translate(-95.873 -273.929)" fill="#3c122c"/>
    </g>
  </g>
</svg>
