<svg xmlns="http://www.w3.org/2000/svg" width="79" height="76.4" viewBox="0 0 79 76.4"><path d="M291.332,390.034a5.389,5.389,0,0,0,.219-1.448,6,6,0,0,0-6.189-5.793,6.485,6.485,0,0,0-1.959.325,9.446,9.446,0,0,0-17.886.6,6.449,6.449,0,0,0-3.328-.93A6,6,0,0,0,256,388.585a5.392,5.392,0,0,0,.219,1.448Zm0,0" transform="translate(-213.867 -314.95)" fill="#32b1cc"/><path d="M31.558,17.311a4.075,4.075,0,0,0-5.281-4.906,6.189,6.189,0,0,0-11.925.429,4.1,4.1,0,0,0-2.307-.658A3.718,3.718,0,0,0,9.6,13.251c-1.725,1.656-1.745,2.919-1.447,4.061Zm0,0" transform="translate(-6.688 -6.744)" fill="#32b1cc"/><path d="M64.269,125.425a8.849,8.849,0,0,0,.348-2.337,9.612,9.612,0,0,0-9.846-9.348,10.241,10.241,0,0,0-3.121.527,14.7,14.7,0,0,0-14.11-9.875,14.614,14.614,0,0,0-14.375,10.845,10.156,10.156,0,0,0-5.318-1.5A9.612,9.612,0,0,0,8,123.088a8.85,8.85,0,0,0,.348,2.337Zm0,0" transform="translate(-6.684 -87.208)" fill="#7fcac9"/><path d="M260.286,44.112c0,2.131-1.879,3.938-2.5,5.862-.647,1.992-.212,4.554-1.42,6.212s-3.8,2.048-5.474,3.267-2.8,3.555-4.795,4.2c-1.923.624-4.214-.579-6.349-.579s-4.426,1.2-6.349.579c-1.992-.646-3.138-2.991-4.8-4.2s-4.262-1.592-5.475-3.267-.773-4.22-1.42-6.213c-.624-1.923-2.5-3.73-2.5-5.861s1.879-3.938,2.5-5.862c.647-1.992.212-4.554,1.42-6.212s3.8-2.048,5.474-3.267,2.8-3.555,4.8-4.2c1.922-.624,4.213.579,6.349.579s4.426-1.2,6.349-.579c1.992.646,3.138,2.991,4.8,4.2s4.261,1.592,5.474,3.267.773,4.22,1.42,6.213C258.407,40.173,260.286,41.981,260.286,44.112Zm0,0" transform="translate(-183.13 -20.378)" fill="#e97424"/><g transform="translate(0 41.799)"><path d="M113.317,277.689a1.317,1.317,0,0,1-.931-2.248l16.759-16.759a1.317,1.317,0,1,1,1.862,1.862L114.248,277.3A1.317,1.317,0,0,1,113.317,277.689Zm0,0" transform="translate(-93.567 -257.572)" fill="#aabece"/><path d="M99.493,355.677a1.317,1.317,0,0,1-.931-2.248l16.759-16.759a1.317,1.317,0,0,1,1.862,1.862l-16.759,16.759a1.317,1.317,0,0,1-.931.386Zm0,0" transform="translate(-82.019 -322.751)" fill="#aabece"/><path d="M59.493,274.36a1.317,1.317,0,0,1-.931-2.248L74,256.671a1.317,1.317,0,0,1,1.862,1.862L60.424,273.974a1.317,1.317,0,0,1-.931.386Zm0,0" transform="translate(-48.602 -255.917)" fill="#aabece"/><path d="M1.317,285.452A1.317,1.317,0,0,1,.386,283.2L10.92,272.671a1.317,1.317,0,0,1,1.862,1.862L2.248,285.066a1.317,1.317,0,0,1-.931.386Zm0,0" transform="translate(-0.001 -269.284)" fill="#aabece"/><path d="M89.45,386.969a1.3,1.3,0,1,1,.935-.382A1.386,1.386,0,0,1,89.45,386.969Zm0,0" transform="translate(-73.65 -362.902)" fill="#aabece"/><path d="M225.45,314.969a1.3,1.3,0,1,1,.935-.382A1.385,1.385,0,0,1,225.45,314.969Zm0,0" transform="translate(-187.267 -302.752)" fill="#aabece"/><path d="M33.317,378.87a1.311,1.311,0,0,1-.5-.105,1.518,1.518,0,0,1-.435-.276,1.335,1.335,0,0,1,0-1.87,1.518,1.518,0,0,1,.435-.276,1.315,1.315,0,0,1,1,0,1.518,1.518,0,0,1,.435.276,1.386,1.386,0,0,1,.382.935,1.736,1.736,0,0,1-.026.264.834.834,0,0,1-.079.237.733.733,0,0,1-.118.224c-.053.079-.105.145-.158.211a1.518,1.518,0,0,1-.435.276A1.311,1.311,0,0,1,33.317,378.87Zm0,0" transform="translate(-26.733 -356.119)" fill="#aabece"/><path d="M83.43,256.623a1.317,1.317,0,0,1-.931-2.248,1.361,1.361,0,0,1,1.9-.038,1.274,1.274,0,0,1,.035,1.826l-.072.073A1.317,1.317,0,0,1,83.43,256.623Zm0,0" transform="translate(-68.599 -253.97)" fill="#aabece"/></g><path d="M290.333,77.37A13.167,13.167,0,1,1,277.167,64.2,13.167,13.167,0,0,1,290.333,77.37Zm0,0" transform="translate(-220.55 -53.636)" fill="#ffd782"/><path d="M360.2,218.536a8.138,8.138,0,0,1-7.278-11.776L360.2,192.2l7.278,14.557a8.137,8.137,0,0,1-7.278,11.776Zm0,0" transform="translate(-294.121 -160.57)" fill="#7fcac9"/><path d="M409.309,274.736a1.317,1.317,0,0,1-.732-2.412A2.367,2.367,0,0,0,409.7,270.7a7,7,0,0,0-1.449-4.392,1.317,1.317,0,1,1,2.106-1.58c.253.337,2.458,3.387,1.941,6.411a5.03,5.03,0,0,1-2.263,3.375A1.32,1.32,0,0,1,409.309,274.736Zm0,0" transform="translate(-340.842 -220.719)" fill="#fff"/><path d="M393.362,322.836h-.013a1.317,1.317,0,1,1,.013,0Zm0,0" transform="translate(-327.516 -267.503)" fill="#fff"/><path d="M278.678,374.8a7.027,7.027,0,0,0-1.161.1,10.845,10.845,0,0,0-19.46.338,7.752,7.752,0,0,0-2.552-.435,7.321,7.321,0,0,0-7.505,7.11,6.606,6.606,0,0,0,.264,1.8,1.317,1.317,0,0,0,1.269.966h35.115a1.317,1.317,0,0,0,1.269-.966,6.606,6.606,0,0,0,.266-1.8,7.321,7.321,0,0,0-7.505-7.11Zm4.872,7.242H250.633v-.132a4.689,4.689,0,0,1,4.872-4.477,5.138,5.138,0,0,1,2.656.74,1.317,1.317,0,0,0,1.96-.811,8.133,8.133,0,0,1,15.359-.507,1.317,1.317,0,0,0,1.646.843,5.165,5.165,0,0,1,1.563-.264,4.688,4.688,0,0,1,4.861,4.475Zm0,0" transform="translate(-207.183 -308.273)"/><path d="M1.542,11.883H24.951a1.317,1.317,0,0,0,1.274-.985,5.36,5.36,0,0,0,.188-1.359,5.416,5.416,0,0,0-5.941-5.4,7.5,7.5,0,0,0-13.5.174,5.413,5.413,0,0,0-1.559-.2,4.989,4.989,0,0,0-3.33,1.44A5.084,5.084,0,0,0,.268,10.9a1.317,1.317,0,0,0,1.274.985ZM3.9,7.458a2.412,2.412,0,0,1,1.564-.71A2.676,2.676,0,0,1,7.033,7.2a1.317,1.317,0,0,0,2-.808,4.872,4.872,0,0,1,9.384-.338,1.318,1.318,0,0,0,.658.782,1.341,1.341,0,0,0,1.02.077,2.754,2.754,0,0,1,3.67,2.34H2.737A3.455,3.455,0,0,1,3.9,7.458Zm0,0" transform="translate(-0.08)"/><path d="M130.924,258.767a1.317,1.317,0,0,0-1.862,0L112.3,275.526a1.317,1.317,0,1,0,1.862,1.862l16.759-16.759A1.317,1.317,0,0,0,130.924,258.767Zm0,0" transform="translate(-93.485 -215.857)"/><path d="M99.493,355.677a1.317,1.317,0,0,0,.931-.386l16.759-16.759a1.317,1.317,0,0,0-1.862-1.862L98.562,353.429a1.317,1.317,0,0,0,.931,2.248Zm0,0" transform="translate(-82.019 -280.952)"/><path d="M58.564,273.975a1.317,1.317,0,0,0,1.862,0l15.442-15.442a1.317,1.317,0,0,0-1.862-1.862L58.564,272.113a1.317,1.317,0,0,0,0,1.862Zm0,0" transform="translate(-48.604 -214.119)"/><path d="M1.317,285.452a1.317,1.317,0,0,0,.931-.386l10.533-10.533a1.317,1.317,0,0,0-1.862-1.862L.386,283.2a1.317,1.317,0,0,0,.931,2.248Zm0,0" transform="translate(-0.001 -227.485)"/><path d="M89.317,386.969a1.3,1.3,0,1,0-.935-.382A1.385,1.385,0,0,0,89.317,386.969Zm0,0" transform="translate(-73.517 -321.102)"/><path d="M225.317,314.969a1.3,1.3,0,1,0-.935-.382A1.385,1.385,0,0,0,225.317,314.969Zm0,0" transform="translate(-187.134 -260.952)"/><path d="M32.816,376.342a1.518,1.518,0,0,0-.435.276,1.335,1.335,0,0,0,0,1.87,1.519,1.519,0,0,0,.435.276,1.243,1.243,0,0,0,1,0,1.52,1.52,0,0,0,.435-.276c.053-.066.105-.132.158-.211a.734.734,0,0,0,.118-.224.834.834,0,0,0,.079-.237,1.736,1.736,0,0,0,.026-.264,1.385,1.385,0,0,0-.382-.935,1.518,1.518,0,0,0-.435-.276A1.315,1.315,0,0,0,32.816,376.342Zm0,0" transform="translate(-26.733 -314.32)"/><path d="M84.284,256.237l.072-.072a1.275,1.275,0,0,0-.034-1.828,1.361,1.361,0,0,0-1.9.037,1.317,1.317,0,1,0,1.862,1.862Zm0,0" transform="translate(-68.522 -212.17)"/><path d="M409.7,270.7a2.367,2.367,0,0,1-1.128,1.622,1.317,1.317,0,1,0,1.462,2.191,5.03,5.03,0,0,0,2.263-3.375c.518-3.029-1.688-6.074-1.941-6.411a1.317,1.317,0,1,0-2.106,1.58A6.992,6.992,0,0,1,409.7,270.7Zm0,0" transform="translate(-340.834 -220.719)"/><path d="M393.317,320.2a1.317,1.317,0,1,0,0,2.633h.013a1.317,1.317,0,1,0-.013-2.633Zm0,0" transform="translate(-327.483 -267.503)"/><path d="M1.666,53.314H43.633a6.833,6.833,0,0,1,1.063.6,10.8,10.8,0,0,1,1.58,1.58,8.528,8.528,0,0,0,3.577,2.8,5.277,5.277,0,0,0,1.637.245,13.116,13.116,0,0,0,2.8-.407,11.375,11.375,0,0,1,2.331-.35,8.678,8.678,0,0,1,1.692.225l-.683,1.366a9.454,9.454,0,1,0,16.912,0l-3.384-6.768a7.477,7.477,0,0,0,3.146-2.25,8.492,8.492,0,0,0,1.235-4.312,11.221,11.221,0,0,1,.371-2.27,10.607,10.607,0,0,1,1-1.958,8.556,8.556,0,0,0,1.571-4.309A8.562,8.562,0,0,0,76.9,33.205a10.592,10.592,0,0,1-1-1.958,11.22,11.22,0,0,1-.371-2.271A8.491,8.491,0,0,0,74.3,24.665a8.519,8.519,0,0,0-3.741-2.516,11,11,0,0,1-2.022-1.039,10.8,10.8,0,0,1-1.58-1.58,8.528,8.528,0,0,0-3.577-2.8,8.311,8.311,0,0,0-4.432.162,11.418,11.418,0,0,1-2.331.35,11.407,11.407,0,0,1-2.324-.354,8.3,8.3,0,0,0-4.43-.162,8.51,8.51,0,0,0-3.579,2.8,10.8,10.8,0,0,1-1.58,1.58,11,11,0,0,1-2.024,1.04,8.524,8.524,0,0,0-3.739,2.516,8.482,8.482,0,0,0-1.235,4.313,12.984,12.984,0,0,1-.316,2.018,16.782,16.782,0,0,0-6.527-1.343A15.962,15.962,0,0,0,15.687,39.92,11.487,11.487,0,0,0,11.169,39,10.928,10.928,0,0,0,0,49.662a10,10,0,0,0,.395,2.683,1.318,1.318,0,0,0,1.271.969ZM71.89,67.2a6.82,6.82,0,0,1-11.9-6.636L66,48.531c.041-.036.078-.073.118-.108l6.062,12.133a6.775,6.775,0,0,1-.292,6.64Zm-5.487-23a1.338,1.338,0,0,0-1.493.632L63.9,46.847a11.8,11.8,0,1,1,2.5-2.653ZM39.832,32.059a13.247,13.247,0,0,0,.487-2.826,6.425,6.425,0,0,1,.745-3.019,6.463,6.463,0,0,1,2.66-1.651,13.026,13.026,0,0,0,2.523-1.326,12.854,12.854,0,0,0,2.013-1.975,6.44,6.44,0,0,1,2.415-2.039,6.414,6.414,0,0,1,3.054.228,13.447,13.447,0,0,0,2.889.42,13.567,13.567,0,0,0,2.889-.415,6.4,6.4,0,0,1,3.054-.23,6.442,6.442,0,0,1,2.415,2.04,13.025,13.025,0,0,0,2.013,1.975,13.037,13.037,0,0,0,2.523,1.324,6.471,6.471,0,0,1,2.661,1.651,6.443,6.443,0,0,1,.744,3.018,13.259,13.259,0,0,0,.487,2.827,12.6,12.6,0,0,0,1.236,2.489,6.457,6.457,0,0,1,1.2,2.964,6.47,6.47,0,0,1-1.2,2.966A12.665,12.665,0,0,0,73.4,42.969a13.248,13.248,0,0,0-.487,2.826,6.427,6.427,0,0,1-.745,3.019,5.373,5.373,0,0,1-2.194,1.448L68.04,46.392a14.543,14.543,0,1,0-6.233,4.633l-2.279,4.559h-.02a13.471,13.471,0,0,0-2.891-.426,13.567,13.567,0,0,0-2.889.415,6.4,6.4,0,0,1-3.054.23,6.442,6.442,0,0,1-2.415-2.04,13,13,0,0,0-2.013-1.975,10.129,10.129,0,0,0-1.751-.973c-.03-.015-.059-.029-.089-.041-.228-.1-.456-.212-.682-.311a6.471,6.471,0,0,1-2.661-1.651,6.445,6.445,0,0,1-.744-3.018,13.259,13.259,0,0,0-.487-2.827A12.576,12.576,0,0,0,38.6,40.478a6.457,6.457,0,0,1-1.2-2.964,6.47,6.47,0,0,1,1.2-2.966,12.665,12.665,0,0,0,1.236-2.489ZM11.163,41.632A8.87,8.87,0,0,1,15.8,42.938a1.318,1.318,0,0,0,1.966-.811,13.238,13.238,0,0,1,13.1-9.841,14.143,14.143,0,0,1,5.381,1.078,8.224,8.224,0,0,0-1.483,4.151,8.562,8.562,0,0,0,1.571,4.309,10.607,10.607,0,0,1,1,1.958,11.233,11.233,0,0,1,.371,2.271,8.487,8.487,0,0,0,1.235,4.311c.087.12.2.208.3.318H2.72a6.154,6.154,0,0,1-.087-1.019,8.3,8.3,0,0,1,8.529-8.031Zm0,0" transform="translate(0 -13.781)"/></svg>