<svg xmlns="http://www.w3.org/2000/svg" width="68.294" height="120.519" viewBox="0 0 68.294 120.519">
  <g id="Filled_outline" data-name="Filled outline" transform="translate(-120 -15.997)">
    <path id="Path_30137" data-name="Path 30137" d="M192.173,106.354H164.052A12.052,12.052,0,0,1,152,94.3V50.112A26.112,26.112,0,0,1,178.112,24h0a26.112,26.112,0,0,1,26.112,26.112V94.3A12.052,12.052,0,0,1,192.173,106.354Z" transform="translate(-23.965 -5.993)" fill="#f99e0c"/>
    <path id="Path_30138" data-name="Path 30138" d="M180.225,260.086h-9.039a3.013,3.013,0,0,1-3.013-3.013V240H152.1v17.073a3.013,3.013,0,0,1-3.013,3.013h-9.039A12.052,12.052,0,0,0,128,272.138v32.138h64.277V272.138A12.052,12.052,0,0,0,180.225,260.086Z" transform="translate(-5.991 -167.76)" fill="#fdc8a2"/>
    <path id="Path_30139" data-name="Path 30139" d="M240.069,248v10.377a20.112,20.112,0,0,1-16.069,0V248Z" transform="translate(-77.888 -173.751)" fill="#fdbf92"/>
    <path id="Path_30140" data-name="Path 30140" d="M208.207,352.274v.208a13.719,13.719,0,0,1-4.017,9.7v2.009H164.017v-2.009a13.718,13.718,0,0,1-4.017-9.7v-.208a13.719,13.719,0,0,1,2.3-7.608l1.715-2.571V320h6.026L184.1,352.138,198.164,320h6.026v22.1l1.715,2.571A13.719,13.719,0,0,1,208.207,352.274Z" transform="translate(-29.957 -227.674)" fill="#2f486e"/>
    <path id="Path_30141" data-name="Path 30141" d="M216.173,84.086V96.138a20.086,20.086,0,0,1-40.173,0V84.086a20.086,20.086,0,0,1,40.173,0Z" transform="translate(-41.939 -35.95)" fill="#fdc8a2"/>
    <path id="Path_30142" data-name="Path 30142" d="M216.173,84.086V96.138a20.026,20.026,0,0,1-6.026,14.344V88.666a19.383,19.383,0,0,0-12.054-17.946,19.138,19.138,0,0,0-2.007-.695,19.136,19.136,0,0,0-2.009.7,19.386,19.386,0,0,0-12.052,17.945v21.816A20.026,20.026,0,0,1,176,96.138V84.086a20.086,20.086,0,1,1,40.173,0Z" transform="translate(-41.939 -35.95)" fill="#fdbf92"/>
    <path id="Path_30143" data-name="Path 30143" d="M204.225,50.112V94.3a12.052,12.052,0,0,1-12.052,12.052V54.692a19.383,19.383,0,0,0-12.054-17.946,19.139,19.139,0,0,0-2.007-.695,19.136,19.136,0,0,0-2.009.7,19.386,19.386,0,0,0-12.052,17.945v51.662A12.052,12.052,0,0,1,152,94.3V50.112a26.115,26.115,0,0,1,24.1-26.037q1-.075,2.009-.075t2.009.075a26.115,26.115,0,0,1,24.1,26.037Z" transform="translate(-23.965 -5.993)" fill="#ffb431"/>
    <path id="Path_30144" data-name="Path 30144" d="M368.81,330.665l-2.994,2.679a10.026,10.026,0,0,1,2.557,6.7v32.138h4.017V340.039a14.035,14.035,0,0,0-3.581-9.374Z" transform="translate(-184.096 -235.661)"/>
    <path id="Path_30145" data-name="Path 30145" d="M176.242,113.813V99.838a14.052,14.052,0,0,0,6.026-11.529V44.119a28.121,28.121,0,0,0-47.59-20.292l2.782,2.9A23.968,23.968,0,0,1,152.138,20.1v8.5A21.5,21.5,0,0,0,138.078,48.7V98.152a10.061,10.061,0,0,1-8.035-9.842V44.119a23.862,23.862,0,0,1,5.1-14.832l-3.164-2.474a27.843,27.843,0,0,0-5.956,17.306v44.19a14.013,14.013,0,0,0,.618,4.124A14.082,14.082,0,0,0,120,104.378v32.138h4.017V104.378a10.056,10.056,0,0,1,4.369-8.281,14.172,14.172,0,0,0,3.666,3.741v13.975l-1.377,2.065a15.672,15.672,0,0,0-2.64,8.722v.208a15.73,15.73,0,0,0,4.017,10.5v1.21h4.017v-2.009a2.009,2.009,0,0,0-.588-1.42,11.711,11.711,0,0,1-3.429-8.279V124.6a11.669,11.669,0,0,1,1.965-6.493l1.715-2.571a2.009,2.009,0,0,0,.338-1.115v-9.716l4.12,12.359,3.811-1.27-4.48-13.44c.188.008.377.014.566.014a2.007,2.007,0,0,0,1.752-1.028l10.468,23.928a2.009,2.009,0,0,0,3.68,0l10.468-23.928a2.007,2.007,0,0,0,1.752,1.028c.383,0,.762-.02,1.138-.05l-5.027,13.405,3.762,1.411,4.145-11.054v8.34a2.009,2.009,0,0,0,.338,1.114l1.715,2.571a11.669,11.669,0,0,1,1.965,6.493v.208a11.789,11.789,0,0,1-3.429,8.279,2.009,2.009,0,0,0-.588,1.42v2.009h4.017v-1.21a15.846,15.846,0,0,0,4.017-10.5V124.6a15.674,15.674,0,0,0-2.64-8.723Zm2.009-69.694v44.19a10.061,10.061,0,0,1-8.035,9.842V48.7A21.5,21.5,0,0,0,156.156,28.6V20.1a24.136,24.136,0,0,1,22.1,24.019ZM164.19,79.866A21.909,21.909,0,0,0,166.2,78.7V90.318h-1a1,1,0,0,1-1-1ZM154.147,32.157A17.455,17.455,0,0,1,166.2,48.7v1.79a3.515,3.515,0,1,0,0,6.342V73.662a18.069,18.069,0,0,1-24.1,0V56.831a3.515,3.515,0,1,0,0-6.342V48.7a17.455,17.455,0,0,1,12.052-16.541ZM142.1,90.318V78.7a21.856,21.856,0,0,0,2.009,1.162v9.447a1,1,0,0,1-1,1Zm12.052,29.136-7.474-17.084h3.457V98.352h-5.214l-1.758-4.02a5.026,5.026,0,0,0,4.963-5.019V81.45a22.2,22.2,0,0,0,12.052,0v7.864a5.026,5.026,0,0,0,4.965,5.019l-1.759,4.02h-5.214v4.017h3.457Z" transform="translate(0 0)"/>
    <path id="Path_30146" data-name="Path 30146" d="M238.026,214.026A6.033,6.033,0,0,0,244.052,208h-4.017a2.009,2.009,0,1,1-4.017,0H232A6.033,6.033,0,0,0,238.026,214.026Z" transform="translate(-83.879 -143.795)"/>
  </g>
</svg>
