<svg xmlns="http://www.w3.org/2000/svg" width="228.06" height="134.11" viewBox="0 0 228.06 134.11"><g transform="translate(-1681.054 -1081.764)"><path d="M1710.841,1213.439s-53.621-33.682-16.976-69.788,85.686-73.021,118.559-58.741,29.917,32.334,66.023,58.471,27.753,46.885,21.287,57.393-7.545,13.2-7.545,13.2Z" fill="#e7f3fe"/><path d="M2006.453,1259.167c7.94-7.072,13.771-2.853,18.114,1.861a71.238,71.238,0,0,1,6.8,8.484,3.417,3.417,0,0,1,.764,1.937c.08,4.3,2.282,22.5-.166,28.783-2.854,7.32-38.047,10.669-38.047,10.669Z" transform="translate(-254.656 -141.333)" fill="#303c60"/><g transform="translate(1773.973 1129.01)"><path d="M2180.818,1369.751a.363.363,0,0,1-.018-.725,3.373,3.373,0,0,0,2.6-1.435c3.946-5.112,1.728-22.181-.206-31.461a.363.363,0,1,1,.71-.148,124.4,124.4,0,0,1,2.275,16.714c.453,7.7-.289,12.857-2.2,15.338a4.111,4.111,0,0,1-3.136,1.717Z" transform="translate(-2180.456 -1335.693)" fill="#303c60"/></g><path d="M1902.543,1264.295c-15.26,8.437-5.955,36.972-25.309,47.145-5.362,2.818-21.835,17.121-11.042,35.979,7.06,12.336,28.163,9.677,35.11-1.241S1902.543,1264.295,1902.543,1264.295Z" transform="translate(-147.768 -148.569)" fill="#303c60"/><g transform="translate(1713.802 1126.405)"><path d="M1857.42,1375.888a.363.363,0,0,1-.36-.411,20.885,20.885,0,0,1,1.867-5.686,24.943,24.943,0,0,1,9.132-10.287c8.955-5.7,14.9-11.069,21.928-37.544a.363.363,0,0,1,.7.186c-3.4,12.793-6.764,21.442-10.6,27.217-3.56,5.363-7.223,7.941-11.642,10.753a23.844,23.844,0,0,0-10.67,15.457A.363.363,0,0,1,1857.42,1375.888Z" transform="translate(-1857.057 -1321.691)" fill="#303c60"/></g><g transform="translate(1714.136 1124.295)"><path d="M1859.216,1359.272a.363.363,0,0,1-.306-.556,27.636,27.636,0,0,1,8.377-8.54c12.576-8.133,14.657-12.809,25.044-39.589a.363.363,0,1,1,.676.262c-5.193,13.39-8.3,21.236-11.691,26.8-3.646,5.972-7.76,9.34-13.635,13.139a26.919,26.919,0,0,0-8.158,8.318A.363.363,0,0,1,1859.216,1359.272Z" transform="translate(-1858.854 -1310.355)" fill="#303c60"/></g><path d="M2054.8,1360a44.493,44.493,0,0,0-4.446,20.814s.607,3.84,3.031,4.648,5.86-1.617,5.658-4.85.808-11.114,2.021-13.943S2054.8,1360,2054.8,1360Z" transform="translate(-300.547 -226.468)" fill="#f09959"/><path d="M1925.241,1732.772c.331,2.978-.413,2.73,2.233,3.226s7.361-1.323,7.361-1.323l-5.293-9.843Z" transform="translate(-198.753 -523.419)" fill="#6791c9"/><path d="M1946.5,1440.371c-1.488,4.838-12.654,1.117-16.562,2.233s-7.257,17.492-7.816,32.193.186,26.424,1.675,28.285,26.053,2.605,28.285,1.861-18.609-10.049-18.609-10.049-1.3-17.12.372-25.866,16.748-20.284,16.748-20.284Z" transform="translate(-196.063 -291.885)" fill="#f09959"/><path d="M2077.072,1448.373c3.908,5.955,14.143,5.21,17.678,10.049s10.979,31.449,10.979,31.449l7.816-26.983s6.338-1.065,4.28,3.349c-3.661,7.851-5.025,33.181-9,36.779-4.415,4-8.809.744-11.288-6.26-2.4-6.776-8.374-21.4-12.654-26.983a121.972,121.972,0,0,1-8.932-14.515Z" transform="translate(-321.425 -298.398)" fill="#f09959"/><path d="M1930.468,1449.01c7.816,9.118,23.075,8.746,26.425,7.63l3.35-1.117a4.558,4.558,0,0,1,4.838,1.675c2.233,2.6,7.63,18.981,8.56,22.7s2.419,9.863,2.419,9.863-3.992,4.792-3.992,9.63,1.7,4.88,1.7,4.88-4.96-1.112-6.077-4.089-11.165-29.96-11.165-29.96l-27.727.558.372,30.519s-2.419-2.233-5.769,0-4.466,7.443-3.908,8.188-1.117.745-1.117.186-3.163-14.143-.93-36.474,6.513-24.75,8.932-24.936A7.858,7.858,0,0,1,1930.468,1449.01Z" transform="translate(-191.756 -298.29)" fill="#75a1de"/><g transform="translate(1767.324 1166.096)"><path d="M2217.53,1747.322a.291.291,0,0,0,.083.018Z" transform="translate(-2203.983 -1707.821)" fill="#6791c9"/><path d="M2159.341,1561.07c-1.613.5-4.343,6.2-4.343,6.2a111.575,111.575,0,0,1-8.064-32.257l-2.214,12.709c3.057,8.207,7.854,21.085,8.606,23.089,1.021,2.724,5.14,3.86,5.7,3.986-.154-.052-.5-.259-.778-1.076-.163-.149-1.094-.584-1.269-.744-1.489-1.365-.868-4.59.124-8.188S2160.954,1560.574,2159.341,1561.07Z" transform="translate(-2144.72 -1535.017)" fill="#6791c9"/></g><path d="M1962.1,1507.735l-3.075-14.061c-3.35,4.715-3.722,20.843-2.357,31.885,1.119,9.056,2.793,11.405,3.944,12.349a3.349,3.349,0,0,1,.526.372l-.372-30.519Z" transform="translate(-223.732 -335.27)" fill="#6791c9"/><path d="M1941.244,1493.008c5.707,15.384,2.854,18.486,10.363,36.542,4.194,10.085,12.282,17.679,12.282,17.679a51.371,51.371,0,0,0,14.7,1.116c8.188-.558,14.182-1.121,14.182-1.121s-8.6-5.206-8.972-8.742-1.987-17.56.122-27.485c1.647-7.75-5.146-15.5-5.146-15.5l-11.351-.558Z" transform="translate(-211.779 -334.728)" fill="#75a1de"/><path d="M1994.728,1613.857c-.993-3.6,4.218,1.117,12.778,1.985s18.114-.5,13.4.992-17.617-.744-15.26,3.97c2.774,5.548,6.05,10.918,10.793,14.144,3.1,2.109,10.546,4.094,3.35,2.978s-14.888-9.553-18.237-15.012S1994.95,1614.659,1994.728,1613.857Z" transform="translate(-255.213 -432.004)" fill="#6791c9" opacity="0.5"/><path d="M2072.155,1382.431c.075-3.714.981-10.053,2.042-12.527.869-2.027-2.722-4.572-4.829-5.853l-1.781-.076q-.408.887-.764,1.763c-1.881,12.351,3.748,17.455,6.435,18.482a8.126,8.126,0,0,0,3.569.392A21.654,21.654,0,0,1,2072.155,1382.431Z" transform="translate(-313.685 -229.703)" fill="#e38540"/><g transform="translate(1746.96 1150.754)"><path d="M2043.372,1460.026a8.4,8.4,0,0,1-1.981-.24,8.091,8.091,0,0,1-6.118-6.985.206.206,0,1,1,.406-.068,7.693,7.693,0,0,0,5.81,6.654c2.29.558,4.718.042,5.65-1.2.747-1,.3-3.12.294-3.141a.206.206,0,1,1,.4-.087c.021.094.493,2.328-.367,3.475A5.123,5.123,0,0,1,2043.372,1460.026Z" transform="translate(-2035.27 -1452.562)" fill="#f5ce5c"/></g><path d="M2093.8,1324.812c-1.262,6.666-4.178,12.043-9.111,11.03s-10.12-8.054-8.755-14.7,6.471-11.211,11.4-10.2S2095.486,1315.93,2093.8,1324.812Z" transform="translate(-321.231 -186.424)" fill="#f09959"/><path d="M2225,1563.022s-9.119,24.5-9.553,27.046.434,4.156.683,4.156,8-13.275,8-13.275Z" transform="translate(-434.863 -391.715)" fill="#f09959"/><path d="M2267.5,1532.639a10.491,10.491,0,0,0-.413-5.624l3.308.413Z" transform="translate(-476.996 -362.408)" fill="#f09959"/><g transform="translate(1784.072 1144.785)"><path d="M2244.8,1441.692h-9.231a.837.837,0,0,1-.8-1.077l5.827-19.539a.838.838,0,0,1,.8-.6h9.232a.837.837,0,0,1,.8,1.077l-5.827,19.539A.837.837,0,0,1,2244.8,1441.692Z" transform="translate(-2234.73 -1420.478)" fill="#4381db"/><path d="M2251.023,1441.692h-9.231a.838.838,0,0,1-.8-1.077l5.828-19.539a.837.837,0,0,1,.8-.6h9.231a.837.837,0,0,1,.8,1.077l-5.827,19.539A.838.838,0,0,1,2251.023,1441.692Z" transform="translate(-2239.795 -1420.478)" fill="#2e5b9a"/><path d="M2252.565,1430.655c-.984,3.546-1.646,6.458-1.479,6.5s1.1-2.791,2.084-6.337,1.646-6.458,1.48-6.5S2253.549,1427.109,2252.565,1430.655Z" transform="translate(-2248.021 -1423.603)" fill="#9cbeed"/></g><path d="M2278.459,1470.583c.273-3.222,3.064-6.242,4.126-7.206a1.527,1.527,0,0,0,.5-1.144c-.015-1.606-.087-5.4-.419-5.841-.423-.564-1.48-7.823-1.973-7.541s.141,6.625.141,6.625-1.2-.564-1.832-.846-3.242,2.608-3.242,2.608-1.223,3.089,2.121,1.766c3.97-1.572.992,2.812-1.654,5.624-2.181,2.317-.325,2.83-.325,2.83l1.762-.07Z" transform="translate(-483.569 -298.78)" fill="#f09959"/><g transform="translate(1790.176 1170.047)"><path d="M2271.252,1560.541a3.257,3.257,0,0,1-.957-.149c-.859-.268-2.358-1.131-2.755-3.908a.206.206,0,0,1,.407-.058c.339,2.374,1.49,3.241,2.4,3.549a2.237,2.237,0,0,0,1.508.05.206.206,0,0,1,.395-.048.29.29,0,0,1-.066.309A1.358,1.358,0,0,1,2271.252,1560.541Z" transform="translate(-2267.539 -1556.249)" fill="#f5ce5c"/></g><g transform="translate(1789.773 1171.008)"><path d="M2269.142,1563.949a5.878,5.878,0,0,1-.832-.06,3.168,3.168,0,0,1-2.933-2.221.206.206,0,0,1,.4-.092,2.593,2.593,0,0,0,2.093,1.807,3.74,3.74,0,0,0,2.339-.039.2.2,0,0,1,.278-.075.208.208,0,0,1,.076.283C2270.411,1563.825,2269.812,1563.949,2269.142,1563.949Z" transform="translate(-2265.371 -1561.417)" fill="#f5ce5c"/></g><g transform="translate(1764.379 1133.469)"><path d="M2131.421,1368.044a2.035,2.035,0,0,1-.3-.023c-1.565-.24-2.511-2.26-2.153-4.6a5.49,5.49,0,0,1,1.211-2.771,2.473,2.473,0,0,1,2.219-.972c1.565.24,2.511,2.26,2.153,4.6C2134.212,1366.465,2132.873,1368.044,2131.421,1368.044Zm.676-7.662a1.9,1.9,0,0,0-1.377.748,4.764,4.764,0,0,0-1.04,2.4c-.286,1.872.421,3.6,1.546,3.772s2.317-1.264,2.6-3.136-.421-3.6-1.546-3.771A1.252,1.252,0,0,0,2132.1,1360.382Z" transform="translate(-2128.888 -1359.657)" fill="#fff"/></g><g transform="translate(1770.569 1134.496)"><path d="M2163.662,1372.55a.983.983,0,0,1-.149-.011c-1.025-.157-1.581-1.893-1.266-3.953s1.368-3.553,2.391-3.393c.528.081.944.564,1.17,1.361a6.283,6.283,0,0,1,.1,2.592C2165.6,1371.106,2164.638,1372.55,2163.662,1372.55Zm.825-6.82c-.6,0-1.425,1.162-1.7,2.939-.282,1.845.2,3.235.807,3.328s1.483-1.089,1.766-2.934a5.749,5.749,0,0,0-.08-2.359c-.163-.57-.427-.923-.727-.969A.471.471,0,0,0,2164.487,1365.73Z" transform="translate(-2162.159 -1365.181)" fill="#fff"/></g><g transform="translate(1752.675 1131.491)"><path d="M2078.51,1353.229a.36.36,0,0,1-.1-.014l-12.158-3.474a.363.363,0,0,1,.2-.7l12.158,3.474a.363.363,0,0,1-.1.711Z" transform="translate(-2065.988 -1349.029)" fill="#fff"/></g><path d="M2093.122,1300.583c-18.816,11.083-19.85,3.639-19.85,3.639l1.116-10.587,11.166.62Z" transform="translate(-319.241 -172.451)" fill="#303c60"/><path d="M2061.851,1350.928c.438,1.873-.16,3.615-1.335,3.889s-2.483-1.021-2.921-2.9.16-3.615,1.335-3.89S2061.413,1349.054,2061.851,1350.928Z" transform="translate(-306.364 -216.697)" fill="#f09959"/><path d="M2067.684,1373.739a.741.741,0,1,1-.741-.741A.741.741,0,0,1,2067.684,1373.739Z" transform="translate(-313.487 -237.047)" fill="#f5ce5c"/><path d="M2023.4,1787.458H1835.171a1.725,1.725,0,1,1,0-3.45H2023.4a1.725,1.725,0,0,1,0,3.45Z" transform="translate(-124.038 -571.585)" fill="#2e5b9a"/><path d="M2051.025,1782.224s-7.1.09-7.185.719.269.9,2.784,1.347,30.808.629,31.077.449,8.533-2.156,8.533-2.156l-19.85-.359Z" transform="translate(-295.276 -570.132)" fill="#dbe5eb"/><path d="M2103.277,1750.3s5.087-2.233,6.576-1.241a66.773,66.773,0,0,1,5.79,5.542Z" transform="translate(-343.664 -542.93)" fill="#f09959"/><path d="M2118.113,1741.556c-.1.121-.241.172-.322.111l-10.467-7.792c-.564-.42-.832-1.062-.561-1.4s.956-.218,1.489.24l9.9,8.5C2118.228,1741.283,2118.209,1741.435,2118.113,1741.556Z" transform="translate(-346.415 -529.482)" fill="#2e5b9a"/><path d="M2010.825,1751.727s8.436,3.35,9.429,3.35,6.534-3.722,8.395-3.225,10.959,5.086,10.711,5.459-2.853,1.241-10.546.993-20.222-1.365-20.222-1.365Z" transform="translate(-266.596 -545.31)" fill="#f09959"/><path d="M1.45,0H33.995a3.638,3.638,0,0,1,3.638,3.638v0A3.637,3.637,0,0,1,34,7.275H1.449A1.449,1.449,0,0,1,0,5.826V1.45A1.45,1.45,0,0,1,1.45,0Z" transform="translate(1814.49 1205.292)" fill="#f37168"/><path d="M2429.3,1752.294h-32.648a2.506,2.506,0,0,0-.363,1.3v2.223a2.505,2.505,0,0,0,.363,1.3H2429.3a2.113,2.113,0,0,0,2.107-2.107v-.6A2.114,2.114,0,0,0,2429.3,1752.294Z" transform="translate(-582.16 -545.771)" fill="#f2e5de"/><path d="M.877,0H26.14a2.2,2.2,0,0,1,2.2,2.2v0a2.2,2.2,0,0,1-2.2,2.2H.877A.877.877,0,0,1,0,3.524V.877A.877.877,0,0,1,.877,0Z" transform="translate(1821.877 1200.891)" fill="#7bcee8"/><path d="M2461.325,1726.026H2436.74a1.3,1.3,0,0,0-.273.783v1.345a1.3,1.3,0,0,0,.273.783h24.586a1.461,1.461,0,0,0,1.587-1.275v-.362A1.461,1.461,0,0,0,2461.325,1726.026Z" transform="translate(-614.859 -524.391)" fill="#f2e5de"/><g transform="translate(1824.102 1097.08)"><path d="M2478.9,1178.9h-27.888a1.1,1.1,0,0,1-1.028-1.617l4.217-11.587a2.567,2.567,0,0,1,2.205-1.617h27.888a1.1,1.1,0,0,1,1.028,1.617l-4.217,11.587A2.566,2.566,0,0,1,2478.9,1178.9Z" transform="translate(-2449.88 -1164.084)" fill="#9ec8ff"/><path d="M2486.614,1183H2461.5a.95.95,0,0,1-.891-1.4L2464.1,1172a2.222,2.222,0,0,1,1.91-1.4h25.115a.95.95,0,0,1,.891,1.4l-3.492,9.594A2.223,2.223,0,0,1,2486.614,1183Z" transform="translate(-2458.54 -1169.389)" fill="#fff"/><path d="M2489.754,1240.115c-2.313,6.108-5.873,7.994-5.873,7.994s2.532-3.5,2.166-5.209a3.759,3.759,0,0,0-1.722-2.425Z" transform="translate(-2477.555 -1225.969)" fill="#9ec8ff"/><path d="M2539.311,1184.623h-16.189a.328.328,0,0,1-.307-.483l.008-.023a.767.767,0,0,1,.658-.483h16.19a.327.327,0,0,1,.307.483l-.008.023A.766.766,0,0,1,2539.311,1184.623Z" transform="translate(-2509.219 -1179.997)" fill="#9ec8ff"/><path d="M2535.27,1195.725H2519.08a.327.327,0,0,1-.307-.483l.008-.023a.767.767,0,0,1,.659-.483h16.19a.327.327,0,0,1,.307.483l-.008.023A.766.766,0,0,1,2535.27,1195.725Z" transform="translate(-2505.93 -1189.034)" fill="#9ec8ff"/><path d="M2530.7,1208.277h-16.189a.327.327,0,0,1-.307-.483l.009-.022a.766.766,0,0,1,.658-.483h16.189a.327.327,0,0,1,.307.483l-.008.022A.766.766,0,0,1,2530.7,1208.277Z" transform="translate(-2502.211 -1199.25)" fill="#9ec8ff"/><path d="M2487.158,1183.927c-.641,1.761-2.327,3.188-3.765,3.188s-2.085-1.428-1.445-3.188,2.327-3.189,3.765-3.189S2487.8,1182.166,2487.158,1183.927Z" transform="translate(-2475.78 -1177.639)" fill="#9ec8ff"/></g><g transform="translate(1835.519 1139.838)"><path d="M2512.989,1396.087h-1.382a.358.358,0,0,1-.336-.529l.414-1.138a.835.835,0,0,1,.721-.529h1.382a.357.357,0,0,1,.336.529l-.414,1.138A.835.835,0,0,1,2512.989,1396.087Z" transform="translate(-2511.237 -1393.892)" fill="#9ec8ff"/><path d="M2536.823,1396.087h-1.382a.358.358,0,0,1-.336-.529l.414-1.138a.837.837,0,0,1,.72-.529h1.383a.358.358,0,0,1,.336.529l-.414,1.138A.836.836,0,0,1,2536.823,1396.087Z" transform="translate(-2530.636 -1393.892)" fill="#9ec8ff"/><path d="M2560.658,1396.087h-1.382a.358.358,0,0,1-.336-.529l.414-1.138a.836.836,0,0,1,.721-.529h1.382a.358.358,0,0,1,.336.529l-.415,1.138A.835.835,0,0,1,2560.658,1396.087Z" transform="translate(-2550.037 -1393.892)" fill="#9ec8ff"/></g><g transform="translate(1790.679 1118.457)"><path d="M2299.263,1293.795h-27.888a1.1,1.1,0,0,1-1.028-1.617l4.217-11.586a2.566,2.566,0,0,1,2.2-1.617h27.888a1.1,1.1,0,0,1,1.028,1.617l-4.217,11.586A2.566,2.566,0,0,1,2299.263,1293.795Z" transform="translate(-2270.243 -1278.975)" fill="#9ec8ff"/><path d="M2306.977,1297.886h-25.115a.949.949,0,0,1-.891-1.4l3.492-9.594a2.223,2.223,0,0,1,1.91-1.4h25.115a.95.95,0,0,1,.891,1.4l-3.492,9.594A2.223,2.223,0,0,1,2306.977,1297.886Z" transform="translate(-2278.903 -1284.279)" fill="#fff"/><path d="M2279.832,1355.005c-2.133,6.108.054,7.994.054,7.994s.018-3.5,1.626-5.209a10.551,10.551,0,0,1,3.487-2.425Z" transform="translate(-2277.287 -1340.859)" fill="#9ec8ff"/><path d="M2323.374,1303.858h-13.662a.3.3,0,0,1-.283-.445l.036-.1a.7.7,0,0,1,.606-.445h13.662a.3.3,0,0,1,.282.445l-.036.1A.707.707,0,0,1,2323.374,1303.858Z" transform="translate(-2302.115 -1298.424)" fill="#9ec8ff"/><path d="M2319.333,1314.961h-13.661a.3.3,0,0,1-.283-.444l.036-.1a.706.706,0,0,1,.607-.445h13.661a.3.3,0,0,1,.283.445l-.036.1A.706.706,0,0,1,2319.333,1314.961Z" transform="translate(-2298.826 -1307.461)" fill="#9ec8ff"/><path d="M2314.765,1327.511H2301.1a.3.3,0,0,1-.283-.445l.036-.1a.706.706,0,0,1,.606-.445h13.661a.3.3,0,0,1,.283.445l-.036.1A.705.705,0,0,1,2314.765,1327.511Z" transform="translate(-2295.108 -1317.676)" fill="#9ec8ff"/><path d="M2442.314,1424.783H2415.4c-.482,0-.732-.2-.557-.445l.071-.1a1.653,1.653,0,0,1,1.2-.445h26.917c.482,0,.733.2.557.445l-.071.1A1.654,1.654,0,0,1,2442.314,1424.783Z" transform="translate(-2387.891 -1396.85)" fill="#9ec8ff"/><path d="M2434.353,1443.127h-26.917c-.482,0-.732-.2-.557-.445l.071-.1a1.655,1.655,0,0,1,1.2-.444h26.917c.482,0,.733.2.557.444l-.071.1A1.655,1.655,0,0,1,2434.353,1443.127Z" transform="translate(-2381.411 -1411.781)" fill="#9ec8ff"/><path d="M2396.41,1304.352h-1.976a1.1,1.1,0,0,1-1.029-1.617l1.471-4.042a2.566,2.566,0,0,1,2.2-1.617h1.976a1.1,1.1,0,0,1,1.029,1.617l-1.471,4.042A2.567,2.567,0,0,1,2396.41,1304.352Z" transform="translate(-2370.406 -1293.709)" fill="#9ec8ff"/></g><g transform="translate(1862.661 1099.879)"><path d="M2680.073,1399.191c3.587-19.683,2.8-26.723-6.806-42.789s-10.525-45.964-14.147-37.2-3.134,30.79,8.216,41.477,12.878,15.471,13.553,19.822-1.621,17.718-1.621,17.718Z" transform="translate(-2657.116 -1291.859)" fill="#9cd499"/><path d="M2681.871,1386.584c.006-.076.011-.15.016-.225-.21-1.615-1.351-9.92-2.928-13.2-1.751-3.638-9.431-9.97-11.587-17.919s-5.572-14.11-7.814-19.131c-2.96-6.63-1.342-15.443,1.105-18.306a.61.61,0,0,0-.179-.082l-.813.491a5.737,5.737,0,0,0-.551,1.07c-3.622,8.769-3.134,30.79,8.216,41.476s12.878,15.472,13.553,19.822a25.47,25.47,0,0,1,0,5.05Z" transform="translate(-2657.116 -1291.937)" fill="#74b570"/><path d="M2737,1282.987c2.669-23.131,1.78-31.137-3.381-49.642s28.468-60.673,27.4-53.378-4.626,25.443-13.878,36.831-9.964,20.64-8.185,30.426-.356,32.561-.356,32.561l-1.067,4.092Z" transform="translate(-2718.949 -1179.128)" fill="#9cd499"/><g transform="translate(15.772 2.591)"><path d="M2745.4,1284.71h-.009a.222.222,0,0,1-.214-.231c0-.072.267-7.2.135-13.055a109.365,109.365,0,0,0-2.686-19.345c-.879-3.14-1.986-13.67,3.383-24.545a141,141,0,0,1,7.762-13.581c2.92-4.685,6.553-10.515,12.318-20.785a.223.223,0,0,1,.389.219c-5.77,10.279-9.406,16.114-12.328,20.8a140.631,140.631,0,0,0-7.74,13.542c-5.306,10.748-4.22,21.133-3.354,24.227a109.994,109.994,0,0,1,2.7,19.456c.133,5.867-.132,13.01-.135,13.082A.223.223,0,0,1,2745.4,1284.71Z" transform="translate(-2741.886 -1193.054)" fill="#74b570"/></g><path d="M2732.164,1486.312c1.6-15.48,1.869-7.846-4.781-28.878-7.611-24.072,19.549-45.443,24-36.724s9.608,36.119,7.651,35.23-14.946-26.333-15.3-25.266-17.615,9.964-16.9,19.038,7.295,23.487,7.295,23.487l-.178,13.292Z" transform="translate(-2713.22 -1374.143)" fill="#9cd499"/><g transform="translate(12.602 44.356)"><path d="M2732.967,1485.335h-.022l-1.78-.178a.221.221,0,0,1-.15-.081.225.225,0,0,1-.05-.164c.185-1.788.356-3.294.494-4.5.745-6.572.745-6.572-1.295-12.2-.922-2.544-2.184-6.028-3.97-11.677a28.777,28.777,0,0,1-1.025-13.012,33.35,33.35,0,0,1,3.966-11.392c3.522-6.3,9.067-11.7,14.124-13.777,3.515-1.441,6.192-.972,7.344,1.287,1.888,3.7,4.146,11.278,6.039,20.27,1.093,5.189,2.7,14.226,1.786,15.18a.4.4,0,0,1-.466.085c-1.068-.486-4.6-6.724-9.481-15.485-2.446-4.392-4.969-8.925-5.651-9.706a18.091,18.091,0,0,1-2.4,1.757c-4.834,3.279-14.894,10.1-14.354,16.985.7,8.93,7.21,23.267,7.275,23.411a.217.217,0,0,1,.02.1l-.178,12.888a.223.223,0,0,1-.223.22Zm-1.534-.6,1.314.132.174-12.594c-.41-.909-6.607-14.761-7.294-23.516-.56-7.142,9.645-14.063,14.549-17.39a16.386,16.386,0,0,0,2.367-1.743.261.261,0,0,1,.223-.178c.431-.04,1.285,1.365,6.1,10.022,3.46,6.213,8.188,14.7,9.253,15.284.082-.134.324-.863-.147-4.62-.34-2.717-.964-6.291-1.757-10.064-1.889-8.987-4.137-16.549-6.014-20.23-1.034-2.026-3.5-2.418-6.777-1.076-8.869,3.635-22.458,19.764-16.809,37.632,1.783,5.64,3.043,9.119,3.964,11.66,2.076,5.729,2.076,5.729,1.319,12.4C2731.765,1481.676,2731.609,1483.05,2731.433,1484.734Z" transform="translate(-2724.846 -1417.526)" fill="#74b570"/></g><path d="M2736.9,1685.529h-8.075c-.555,0-1.051-.315-1.1-.708l-2.713-20.4a1.448,1.448,0,0,1,1.386-1.734h12.936a1.448,1.448,0,0,1,1.386,1.734l-2.713,20.4C2737.949,1685.213,2737.453,1685.529,2736.9,1685.529Z" transform="translate(-2712.362 -1572.718)" fill="#7bcee8"/><path d="M2774.36,1694.31H2773.2c-.566,0-1.021-.328-1.011-.735l.408-17.619a1.645,1.645,0,0,1,1.6-1.614h1.754a1.411,1.411,0,0,1,1.388,1.614l-1.873,17.619C2775.422,1693.982,2774.925,1694.31,2774.36,1694.31Z" transform="translate(-2750.781 -1582.202)" fill="#a2dff2"/><g transform="translate(13.874 56.123)"><path d="M2732.782,1602.967l.143-.248a51.108,51.108,0,0,1-1.24-5.527A28.165,28.165,0,0,0,2732.782,1602.967Z" transform="translate(-2731.685 -1575.529)" fill="#74b570"/><path d="M2733.117,1493.293a16.614,16.614,0,0,0-1.021,4.029c2.383-7.824,15.656-14.888,16.518-16.079l.153-.3C2743.782,1479.55,2735.811,1486.556,2733.117,1493.293Z" transform="translate(-2732.02 -1480.764)" fill="#74b570"/></g><g transform="translate(14.209 47.883)"><path d="M2765.1,1469.911a.224.224,0,0,1-.217-.17l-2.411-9.812c-1.883-7.688-4.227-17.256-6.858-21.516-.434-.7-2.328-1.652-5.012-1.462-3.627.257-10.618,2.762-16.689,16.658a.223.223,0,1,1-.409-.179c6.166-14.112,13.339-16.661,17.067-16.925,2.9-.2,4.917.855,5.423,1.673,2.668,4.319,4.922,13.524,6.912,21.644l2.412,9.811a.223.223,0,0,1-.218.276Z" transform="translate(-2733.483 -1436.48)" fill="#74b570"/></g><g transform="translate(37.314 51.362)"><path d="M2859.1,1472.332h-.026a.224.224,0,0,1-.2-.248,52.489,52.489,0,0,0-1.207-16.626.223.223,0,1,1,.433-.108,52.976,52.976,0,0,1,1.218,16.786A.224.224,0,0,1,2859.1,1472.332Z" transform="translate(-2857.666 -1455.179)" fill="#74b570"/></g><g transform="translate(36.035 49.476)"><path d="M2851.011,1459.094l-.026,0a.223.223,0,0,1-.2-.248,75.333,75.333,0,0,0,.269-13.559.224.224,0,0,1,.445-.044,75.887,75.887,0,0,1-.27,13.655A.223.223,0,0,1,2851.011,1459.094Z" transform="translate(-2850.788 -1445.04)" fill="#74b570"/></g><g transform="translate(27.547 13.37)"><path d="M2805.392,1261.535a.223.223,0,0,1-.1-.425,25.469,25.469,0,0,0,10.139-10.009.223.223,0,1,1,.393.212,25.941,25.941,0,0,1-10.339,10.2A.219.219,0,0,1,2805.392,1261.535Z" transform="translate(-2805.169 -1250.984)" fill="#74b570"/></g><g transform="translate(22.831 25.36)"><path d="M2780.049,1322.072a.223.223,0,0,1-.045-.442c.052-.01,5.281-1.131,11.491-6.152a.223.223,0,0,1,.281.347c-6.3,5.095-11.629,6.232-11.682,6.243A.222.222,0,0,1,2780.049,1322.072Z" transform="translate(-2779.826 -1315.428)" fill="#74b570"/></g><g transform="translate(18.789 35.195)"><path d="M2758.47,1372.914c-.091,0-.146,0-.162,0a.223.223,0,1,1,.033-.445c.036,0,3.64.2,9.415-4.133a.223.223,0,0,1,.268.357C2762.721,1372.666,2759.251,1372.914,2758.47,1372.914Z" transform="translate(-2758.102 -1368.287)" fill="#74b570"/></g></g></g></svg>