<svg xmlns="http://www.w3.org/2000/svg" width="222.666" height="215.886" viewBox="0 0 222.666 215.886"><g transform="translate(-263.148 -270.987)"><g transform="translate(263.148 278.415)"><path d="M273.13,363.746a30.709,30.709,0,0,1-5.739-25.013c1.575-7.338,5.743-13.7,16.123-9.811,24.841,9.316,35.824,1.1,39.446-11.9s8.492-43.555,30.861-39.394,23.725,45.834,44.056,40.992,39.975-7.959,53.09,6.1,22.305,43.813,9.955,59.536-39.121,2.153-49.592,22.357-54.4,21.138-57.51-.4-26.208-36.742-46.378-26.1C294.142,387.137,280.725,373.707,273.13,363.746Z" transform="translate(-262.473 -277.237)" fill="#ededed"/><path d="M274.586,364.119a8.57,8.57,0,0,0-6.81-.8c-2.307.719-4.616,2.492-4.629,6.706-.026,8.429,14.874,12.214,18.967,3.173C283.61,369.9,277.963,366.059,274.586,364.119Z" transform="translate(-263.148 -261.09)" fill="#ededed"/><path d="M408.793,305.223a8.576,8.576,0,0,0,6.517-2.132c1.792-1.62,3.144-4.2,1.389-8.029-3.511-7.663-18.205.086-18.55,5.073C397.9,303.751,404.914,304.876,408.793,305.223Z" transform="translate(-237.715 -274.487)" fill="#ededed"/><path d="M299.2,317.009a8.567,8.567,0,0,0,6.516-2.131c1.792-1.62,3.146-4.2,1.39-8.029-3.511-7.664-18.205.085-18.55,5.072C288.3,315.537,295.316,316.663,299.2,317.009Z" transform="translate(-258.363 -272.266)" fill="#ededed"/></g><ellipse cx="101.451" cy="13.314" rx="101.451" ry="13.314" transform="translate(282.912 460.244)" fill="#ededed"/><g transform="translate(288.513 270.987)"><g transform="translate(0 65.931)"><path d="M430.12,442.356c-2.651,5.531-8.867,9.911-17.025,13.205s-18.255,5.5-28.669,6.688c-3.739.425-7.576.731-11.459.915-.607.03-1.216.053-1.825.075-3.657.141-7.347.178-11.021.118-26.108-.431-51.5-5.763-59.817-14.119-21.086-21.176-21.8-73.381,2.181-102.426a54.038,54.038,0,0,1,33.052-19.443,61.2,61.2,0,0,1,8.565-.855c62.815-1.916,62.372,52.607,62.372,52.607a45.828,45.828,0,0,1,19.082,8.264C436.279,395.624,444.838,411.674,430.12,442.356Z" transform="translate(-284.492 -326.465)" fill="#5480fb"/><path d="M411.374,432.707c-2.651,5.531-8.867,9.911-17.025,13.205.523-10.988,6.439-23.315,4.218-32.037-2.616-10.257,2.613-25.143,2.613-25.143-2.025.811-7.224,1.259-10.421,1.465a7.537,7.537,0,0,1-5.515-1.84c-2.036-1.812-2.2-4.006,4.273-8.139,3.473-2.221,10.278-2.713,17.292-2.483C417.533,385.974,426.092,402.025,411.374,432.707Z" transform="translate(-265.746 -316.816)" fill="#2e60e0"/><path d="M399.874,391.87l-12.864,63.2a49.242,49.242,0,0,1-3.342,7.035c-3.739.425-7.576.731-11.459.915-.607.03-1.216.054-1.825.075-.275-14.853,13.055-51.671,11.335-53.164-2.049-1.78-9.615-.631-17.46,2.718s-20.515,1.276-29.765-8.764-5.633-39.033-5.029-51.3-5.18-11.688-5.18-11.688c-3.1,2.094-5.478,3.633-5.478,3.633-1.153,6.158-17,30.38-15.99,32.29s5.228,5.733,4.423,9.492,1.61,10.321-1.741,11.733-3.286-4.127-3.89-4.227-.818,4.812-1.523,6.924a4.378,4.378,0,0,1-2.5,2.788,1.179,1.179,0,0,1-1.629-1.014l-.039-.682a2.726,2.726,0,0,1-1.8,1.988c-1.508.453-1.557-1.557-1.557-1.557s-.555,1.358-1.71,1.056c-1.122-.292-.682-2.957-.657-3.114-.052.039-1.213,1.031-1.572.2-.368-.853.419-2.893.419-2.893l6.033-17.97,6.266-31.986.389-.884a54.038,54.038,0,0,1,33.052-19.443c2.428,1.188,3.828,2.329,3.134,3.234-.069.09-.147.188-.238.288a10.776,10.776,0,0,1,4.663,1.137c5.763,2.367,9.854,17.28,10.258,24.473s9.249,32.227,24.833,31.684S399.874,391.87,399.874,391.87Z" transform="translate(-283.733 -326.322)" fill="#2e60e0"/></g><g transform="translate(4.887)"><path d="M380.951,358.165c1.294-2.895,2.561-5.8,3.917-8.668-5.323-.788-9.307-4.521-11.409-7.311-4.464-5.927-10.915-24.565-10.915-24.565s-3.911,29.32,4.282,36.007C370.4,356.542,375.888,357.74,380.951,358.165Z" transform="translate(-274.85 -262.201)" fill="#e22250"/><g transform="translate(94.371 103.812)"><path d="M426.308,360.49a8.758,8.758,0,0,0-5.938-2.144c-.456-.006-.914-.006-1.368,0-7.441.083-41.266,5.691-47.7,7.86a21.263,21.263,0,0,0-2.991,7.183A13.582,13.582,0,0,0,383.6,389.565c11.371-1.648,24.87-3.344,26.18-4.156.915-.568,1.447-.928,1.489-.955-.009.036-.169.469-.418,1.243-1.247,3.855-4.782,16.134-4.013,29.22a64.481,64.481,0,0,1-2.462,20.534l10.561,4.39S440.733,373.362,426.308,360.49Z" transform="translate(-368.014 -358.341)" fill="#051630"/><g transform="translate(41.77 18.018)"><path d="M411.735,374.475c-2.857,1.718-5.889,5.916-7.5,8.365.25-.774.409-1.207.418-1.243-.042.027-.574.387-1.489.955.4-.624.915-1.387,1.507-2.206.31-.433.641-.883.992-1.336a22.635,22.635,0,0,1,5.533-5.433.524.524,0,0,1,.541.9Z" transform="translate(-403.162 -373.503)" fill="#133248"/></g><g transform="translate(43.218 18.858)"><path d="M404.991,380.873a.522.522,0,0,1-.513-.423c-.352-1.8.374-5.652.405-5.815a.524.524,0,1,1,1.029.2c-.007.038-.72,3.82-.406,5.418a.523.523,0,0,1-.414.614A.494.494,0,0,1,404.991,380.873Z" transform="translate(-404.381 -374.209)" fill="#133248"/></g><g transform="translate(31.589 73.743)"><g transform="translate(2.917 2.208)"><path d="M408.915,424.311,407.6,434.8c-3.2,1.621-6.77,1.447-10.554.195l2.721-12.746Z" transform="translate(-397.05 -422.252)" fill="#ffae77"/></g><g transform="translate(2.917)"><path d="M398.8,420.394A11.5,11.5,0,0,0,397.05,427a123.828,123.828,0,0,0,13.095,4.078l2.065-5.621S407.328,423.458,398.8,420.394Z" transform="translate(-397.05 -420.394)" fill="#133248"/></g><g transform="translate(0 11.003)"><path d="M431.539,445.525c-.039.2-.082.417-.133.641-.033.145-.067.29-.1.433a3.4,3.4,0,0,1-.53,1.327c-.492.472-11.491.333-11.491.333l-12.172-.012c-1.766.043-8.007-.049-10.835-.09a1.5,1.5,0,0,1-1.476-1.437c-.01-.172-.015-.357-.024-.554-.088-2-.2-4.947-.178-5.911a17.023,17.023,0,0,1,1.324-4.424s-2.383-2.42-.756-3.287,2.349-.227,2.349-.227,3.883,2.069,5.848,1.829,3.953-2.253,4.6-3.766,3.215-.409,3.4.988a1.8,1.8,0,0,0,.819,1.259c.481.368,1.153.74,1.972,1.388.131.1.266.214.405.333.194.165.393.347.6.55a11.245,11.245,0,0,0,1.249,1.03c.093.07.193.139.292.206.505.351,1.049.689,1.613,1.016,1.96,1.135,4.1,2.114,5.392,2.84,1.641.928,5.672,3.344,7.287,4.311A1.165,1.165,0,0,1,431.539,445.525Z" transform="translate(-394.596 -429.653)" fill="#06c282"/><path d="M431.275,443.981a3.4,3.4,0,0,1-.53,1.327c-.492.472-11.491.333-11.491.333l-12.172-.012c-1.766.043-8.007-.049-10.835-.09a1.5,1.5,0,0,1-1.476-1.437c-.009-.172-.015-.357-.024-.554C406.248,444.253,418.546,444.307,431.275,443.981Z" transform="translate(-394.567 -427.035)" fill="#069976"/><g transform="translate(12.958 2.882)"><g transform="translate(1.906 1.791)"><path d="M407.925,438.5a.637.637,0,0,1-.74-.922,9.812,9.812,0,0,1,3.308-3.468,4.393,4.393,0,0,1,4.511.2.637.637,0,1,1-.757,1.024,3.133,3.133,0,0,0-3.177-.086,8.67,8.67,0,0,0-2.776,2.959A.631.631,0,0,1,407.925,438.5Z" transform="translate(-407.103 -433.585)" fill="#fff"/></g><path d="M406.321,437a.637.637,0,0,1-.739-.923,9.81,9.81,0,0,1,3.309-3.469,4.391,4.391,0,0,1,4.511.2.637.637,0,1,1-.757,1.024,3.134,3.134,0,0,0-3.177-.086,8.627,8.627,0,0,0-2.776,2.959A.633.633,0,0,1,406.321,437Z" transform="translate(-405.499 -432.078)" fill="#fff"/><g transform="translate(4.485 3.239)"><path d="M410.1,439.722a.637.637,0,0,1-.739-.923,9.8,9.8,0,0,1,3.308-3.468,4.389,4.389,0,0,1,4.511.2.637.637,0,1,1-.758,1.024,3.137,3.137,0,0,0-3.177-.086,8.65,8.65,0,0,0-2.776,2.959A.63.63,0,0,1,410.1,439.722Z" transform="translate(-409.273 -434.803)" fill="#fff"/></g></g></g></g></g><g transform="translate(42.052 42.351)"><path d="M382.421,378.5c-10.691,4.315-10.957,6.157-19.346,10.048-5.6,2.6-15.936,1.5-21.049.869a3.65,3.65,0,0,1-3.5-4.12,118.374,118.374,0,0,0-1.707-21.285q-.2-1.257-.431-2.533c-.4-2.25-1.212-5.347-2.231-8.883-.046-.162-.092-.327-.141-.493-3.513-12.1-9.341-29.037-10.024-35.274a20.883,20.883,0,0,1,1.086-2.816l.007,0c5.319-2.926,19.013-7.379,19.013-7.379l10.562,2.483s14.355,6.524,14.974,10.586,1.519,17.039,2.7,24.517C376.806,372.418,390.034,375.42,382.421,378.5Z" transform="translate(-323.989 -306.624)" fill="#fc535a"/><g transform="translate(16.871 3.145)"><path d="M353.975,318.743c-9.088,0-15.393-8.118-15.662-8.47a.624.624,0,0,1,.992-.758c.063.082,6.429,8.251,15.126,7.971a.625.625,0,1,1,.04,1.249C354.307,318.739,354.139,318.743,353.975,318.743Z" transform="translate(-338.185 -309.27)" fill="#e22250"/></g><g transform="translate(19.824 10.293)"><path d="M350.55,321.19l-.064,0a15.757,15.757,0,0,1-9.664-4.87.625.625,0,0,1,.946-.816h0a14.744,14.744,0,0,0,8.845,4.443.624.624,0,0,1-.063,1.245Z" transform="translate(-340.671 -315.285)" fill="#e22250"/></g><g transform="translate(32.151 63.185)"><path d="M351.667,373.4a.624.624,0,0,1-.535-.946c7.421-12.372,17.739-12.66,18.174-12.666a.625.625,0,0,1,.019,1.249c-.127,0-10.086.329-17.121,12.06A.626.626,0,0,1,351.667,373.4Z" transform="translate(-351.043 -359.792)" fill="#e22250"/></g><g transform="translate(19.339 29.142)"><path d="M358.065,341.082c-9.742,0-17.31-8.512-17.649-8.9a.625.625,0,0,1,.94-.824c.086.1,8.572,9.636,18.634,8.353a.625.625,0,1,1,.158,1.239A16.588,16.588,0,0,1,358.065,341.082Z" transform="translate(-340.262 -331.146)" fill="#e22250"/></g></g><g transform="translate(54.857)"><path d="M338.226,290.18s-1.967-4.022-1.125-6.536,1.445-2.162,1.445-2.162-.931-2.857.389-3.691,2.94.624,2.94.624,1.245-4.426,4.112-4.827a5.444,5.444,0,0,1,4.726,2.112s6.25-5.456,11.9-4.626.6,5.959.6,5.959,4.977-3.243,8.3-1.508-3.008,7.165-3.008,7.165,3.686-1.659,4.365,1.282-5.368,5.644-5.368,5.644Z" transform="translate(-334.364 -270.987)" fill="#133248"/><path d="M338.829,286.661s-.488,5.973-2.9,6.99-.643,3.891,1.451,3.623c0,0-3.035,1.346-2.13,3.708s3.086,0,3.086,0-2.328,3.568.611,4.321,4.072-2.643,4.072-2.643S343.389,289.211,338.829,286.661Z" transform="translate(-334.765 -268.034)" fill="#133248"/><g transform="translate(6.261 34.423)"><path d="M351.609,305.525l-1.375,5.051-.466,1.707c-5.955.507-9.735-4.1-9.735-4.1l.774-8.022a1.7,1.7,0,0,1,.361-.125C344.474,299.182,351.609,305.525,351.609,305.525Z" transform="translate(-340.033 -299.953)" fill="#ffae77"/><path d="M351.429,305.525l-1.375,5.051a20.135,20.135,0,0,1-9.066-10.545C344.294,299.182,351.429,305.525,351.429,305.525Z" transform="translate(-339.853 -299.953)" fill="#ff7f4d"/></g><g transform="translate(27.085 23.593)"><path d="M360.176,291.907s3.04-2.623,4.221.354-2.966,10.1-6.842,7.291Z" transform="translate(-357.556 -290.84)" fill="#ff7f4d"/><g transform="translate(1.162 2.977)"><path d="M358.825,296.917a.371.371,0,0,0,.406-.189,5.728,5.728,0,0,1,3.868-2.647.371.371,0,0,0-.108-.733,6.381,6.381,0,0,0-4.415,3.033.373.373,0,0,0,.248.536Z" transform="translate(-358.534 -293.345)" fill="#f45339"/></g><g transform="translate(2.905 3.942)"><path d="M361.283,296.114a.372.372,0,0,0,.427-.492,3.382,3.382,0,0,0-1.12-1.393.371.371,0,0,0-.44.6,2.664,2.664,0,0,1,.864,1.055A.373.373,0,0,0,361.283,296.114Z" transform="translate(-360 -294.157)" fill="#f45339"/></g></g><path d="M364.9,298.5c-.177.755-.371,1.455-.579,2.085-1.9,5.667-8.906,16.671-18.185,9.008a24.409,24.409,0,0,1-5-5.348,17.963,17.963,0,0,1-2.044-4.226,10.537,10.537,0,0,1-.318-1.8c-.017-.106-.03-.214-.044-.319-.008-.061-.018-.119-.026-.179a46.619,46.619,0,0,1-.4-5.158c-.053-2.068.008-3.976.109-5.539a8.139,8.139,0,0,1,4.439-6.737c6.949-3.538,14.036-1.79,18.664.232a8.114,8.114,0,0,1,4.837,8.19c-.151,1.653-.361,3.533-.631,5.389C365.494,295.627,365.224,297.147,364.9,298.5Z" transform="translate(-334.102 -269.618)" fill="#ffae77"/><path d="M342.848,295.234a4.4,4.4,0,0,1-3.834,1.62c-.124-.6-.227-1.2-.319-1.8C339.832,295.45,341.6,295.871,342.848,295.234Z" transform="translate(-334.024 -266.453)" fill="#ff7f4d"/><path d="M341.065,301.13a17.964,17.964,0,0,1-2.044-4.226,10.536,10.536,0,0,1-.318-1.8c-.017-.106-.03-.214-.044-.318a5.507,5.507,0,0,1,1.267.516S342.167,298.879,341.065,301.13Z" transform="translate(-334.031 -266.503)" fill="#133248"/><path d="M355.992,300.808c-.74,1.4-2.542,3.834-5.847,2.842s-3.492-3.77-3.294-5.586Z" transform="translate(-332.498 -265.885)" fill="#fff"/><path d="M349.346,292.059c-.178.813-.742,1.381-1.259,1.268s-.793-.865-.614-1.678.742-1.381,1.259-1.268S349.524,291.245,349.346,292.059Z" transform="translate(-332.381 -267.336)" fill="#133248"/><path d="M357.964,293.743c-.178.813-.742,1.381-1.258,1.268s-.793-.864-.614-1.678.742-1.381,1.259-1.268S358.142,292.929,357.964,293.743Z" transform="translate(-330.757 -267.018)" fill="#133248"/><path d="M345.1,287.674s3.705-1.364,6.5-.076l-.32,1.565s-4.14-.448-6.25.349A2.727,2.727,0,0,1,345.1,287.674Z" transform="translate(-332.855 -267.962)" fill="#133248"/><path d="M362.006,291.234s-2.832-2.751-5.912-2.71l-.342,1.56s3.966,1.27,5.57,2.856A2.729,2.729,0,0,0,362.006,291.234Z" transform="translate(-330.811 -267.683)" fill="#133248"/><g transform="translate(19.263 25.073)"><path d="M352.4,299.044a3.969,3.969,0,0,1-1.257-.544.371.371,0,0,1,.412-.617c.3.2,1.045.569,1.428.435a.4.4,0,0,0,.247-.3,56.334,56.334,0,0,0,.915-5.6.37.37,0,1,1,.736.088,55.206,55.206,0,0,1-.944,5.739,1.128,1.128,0,0,1-.709.778A1.551,1.551,0,0,1,352.4,299.044Z" transform="translate(-350.974 -292.085)" fill="#ff7f4d"/></g><g transform="translate(1.704 19.178)"><path d="M341.116,288.807s-2.314-3.281-4.182-.679-.175,10.173,5.071,8.921Z" transform="translate(-336.198 -287.124)" fill="#ffae77"/><g transform="translate(1.032 2.784)"><path d="M340.756,293.966a.371.371,0,0,1-.348-.28,5.73,5.73,0,0,0-3.112-3.506.371.371,0,0,1,.283-.686,6.386,6.386,0,0,1,3.549,4.012.371.371,0,0,1-.27.449A.368.368,0,0,1,340.756,293.966Z" transform="translate(-337.067 -289.467)" fill="#ff7f4d"/></g><g transform="translate(1.866 4.302)"><path d="M338.128,292.433a.371.371,0,0,1-.294-.581,3.379,3.379,0,0,1,1.423-1.079.37.37,0,1,1,.283.684,2.687,2.687,0,0,0-1.094.814A.372.372,0,0,1,338.128,292.433Z" transform="translate(-337.769 -290.744)" fill="#ff7f4d"/></g></g><path d="M338.378,289.023a2.4,2.4,0,0,1,2.975,1.691c.6,2.285.86,3.572.86,3.572l1.66.307s-.816-3.287-.134-5.072,2.17-2,2.124-4.024,1.314-4.355,3.406-4.363,11.021.818,13.9,2.731,1.762,5.078,2.363,6.4.238,4.125.238,4.125h0a4.189,4.189,0,0,0,1.148-2.206,34.511,34.511,0,0,0,.491-4.605c.169-3.831-4.54-9.195-12.833-10.545s-13.88,1.761-15.6,5.64S338.378,289.023,338.378,289.023Z" transform="translate(-334.152 -269.908)" fill="#133248"/></g><g transform="translate(84.925 75.339)"><path d="M361.023,360.205l-.958-.805,9.323-24.9,18.268,2.478,8.406-2.592.611.78-9.1,3.645-17.331-2.5Z" transform="translate(-360.065 -334.383)" fill="#fff"/><path d="M369.858,335.577l-9.08,24.69L375.7,362.81l12.371-25Z" transform="translate(-359.931 -334.157)" fill="#ffc149"/><path d="M373.336,362.926l9.386-4.219,11.724-23.747-8.739,2.969Z" transform="translate(-357.565 -334.273)" fill="#fd9b1f"/></g><path d="M386.781,341.992c-.523-.056-3.388-1.42-2.658-2.165.592-.6,3.439-.2,3.439-.2a6.747,6.747,0,0,0,.339-.77l.1-.213.879-2.19a4.932,4.932,0,0,1,1.2.614c1.059.769-.025,3.421-.025,3.421s1.311,1.041.884,2.115a1.518,1.518,0,0,1-1.685.828s1.086,1.009.385,1.808-1.939.075-1.939.075.992,1.7.277,2.193a2.038,2.038,0,0,1-1.613.2s.74,1.228-.5,1.613-2.7-.611-3.528-1.26-.29-1.311,2.395-.763c0,0-2.592-1.364-2.685-1.871-.22-1.21,2.34-1.313,3.893-1-1.194-.32-4.158-1.149-3.685-2.286C382.649,341.188,386.258,341.936,386.781,341.992Z" transform="translate(-271.013 -258.652)" fill="#ffae77"/><g transform="translate(56.794 108.791)"><path d="M396.038,364.68a8.77,8.77,0,0,0-5.94-2.144c-.456-.006-.914-.006-1.368,0-4.4.05-40.348,7.919-52.083,9.979h0a18,18,0,0,0,19.607,20.88c11.653-1.2,22.626-3.4,23.257-3.795.915-.568,1.447-.928,1.49-.955-.011.036-.17.469-.419,1.242-1.247,3.856-4.782,16.134-4.013,29.222a64.477,64.477,0,0,1-2.462,20.533l10.561,4.391S410.462,377.552,396.038,364.68Z" transform="translate(-336.394 -362.531)" fill="#133248"/><g transform="translate(43.118 18.018)"><path d="M381.25,378.665c-2.857,1.718-5.888,5.916-7.5,8.365.25-.772.409-1.206.419-1.242-.043.027-.575.387-1.49.955.4-.625.915-1.388,1.507-2.207.31-.431.64-.882.993-1.335a22.616,22.616,0,0,1,5.532-5.435.524.524,0,0,1,.541.9Z" transform="translate(-372.677 -377.693)" fill="#335464"/></g><g transform="translate(44.567 18.858)"><path d="M374.506,385.064a.523.523,0,0,1-.513-.423c-.352-1.8.374-5.652.405-5.816a.524.524,0,0,1,1.029.2c-.007.038-.719,3.819-.406,5.418a.525.525,0,0,1-.414.616A.579.579,0,0,1,374.506,385.064Z" transform="translate(-373.896 -378.4)" fill="#335464"/></g><g transform="translate(32.938 73.743)"><g transform="translate(2.917 2.209)"><path d="M378.43,428.5l-1.31,10.491c-3.205,1.621-6.772,1.446-10.555.194l2.721-12.744Z" transform="translate(-366.565 -426.443)" fill="#ffae77"/></g><g transform="translate(2.917)"><path d="M368.32,424.584a11.5,11.5,0,0,0-1.755,6.605,123.76,123.76,0,0,0,13.095,4.08l2.067-5.622S376.843,427.649,368.32,424.584Z" transform="translate(-366.565 -424.584)" fill="#335464"/></g><g transform="translate(0 11.004)"><path d="M401.053,449.715c-.039.2-.081.417-.133.642-.033.145-.067.29-.1.433a3.407,3.407,0,0,1-.53,1.327c-.492.472-11.491.333-11.491.333l-12.172-.013c-1.766.043-8.007-.048-10.835-.09a1.5,1.5,0,0,1-1.476-1.437c-.008-.172-.015-.357-.024-.553-.088-2-.2-4.947-.178-5.912a17.037,17.037,0,0,1,1.324-4.424s-2.383-2.418-.756-3.287,2.349-.226,2.349-.226,3.882,2.068,5.848,1.829,3.953-2.254,4.6-3.766,3.215-.41,3.4.988a1.8,1.8,0,0,0,.819,1.257c.481.37,1.153.742,1.972,1.388.131.1.266.215.405.333.194.166.393.348.6.55a11.39,11.39,0,0,0,1.249,1.032c.094.069.194.139.294.206.505.351,1.049.689,1.612,1.016,1.96,1.134,4.1,2.114,5.392,2.839,1.641.928,5.672,3.344,7.287,4.313A1.163,1.163,0,0,1,401.053,449.715Z" transform="translate(-364.111 -433.843)" fill="#06c282"/><path d="M400.79,448.172a3.408,3.408,0,0,1-.53,1.327c-.492.472-11.491.333-11.491.333l-12.172-.013c-1.766.043-8.007-.048-10.835-.09a1.5,1.5,0,0,1-1.476-1.437c-.008-.172-.015-.357-.024-.553C375.763,448.444,388.062,448.5,400.79,448.172Z" transform="translate(-364.082 -431.226)" fill="#069976"/><g transform="translate(12.958 2.882)"><g transform="translate(1.905 1.79)"><path d="M377.44,442.693a.637.637,0,0,1-.74-.923,9.833,9.833,0,0,1,3.308-3.468,4.393,4.393,0,0,1,4.511.2.637.637,0,0,1-.757,1.026,3.134,3.134,0,0,0-3.177-.086,8.659,8.659,0,0,0-2.776,2.959A.641.641,0,0,1,377.44,442.693Z" transform="translate(-376.618 -437.775)" fill="#fff"/></g><path d="M375.837,441.188a.638.638,0,0,1-.74-.925,9.831,9.831,0,0,1,3.308-3.468,4.392,4.392,0,0,1,4.511.2.637.637,0,1,1-.757,1.024,3.141,3.141,0,0,0-3.177-.086,8.65,8.65,0,0,0-2.776,2.959A.64.64,0,0,1,375.837,441.188Z" transform="translate(-375.015 -436.269)" fill="#fff"/><g transform="translate(4.484 3.238)"><path d="M379.61,443.913a.638.638,0,0,1-.739-.925,9.82,9.82,0,0,1,3.308-3.468,4.39,4.39,0,0,1,4.511.2.638.638,0,0,1-.758,1.026,3.133,3.133,0,0,0-3.177-.086,8.618,8.618,0,0,0-2.775,2.958A.643.643,0,0,1,379.61,443.913Z" transform="translate(-378.788 -438.993)" fill="#fff"/></g></g></g></g></g><g transform="translate(0 49.736)"><path d="M334.261,330.122c-6.663,4.562-16.565,12.123-18.994,13.984l-.553.425a4.727,4.727,0,0,1-.153.643c-1.029,3.427-6.366,13.208-10.306,21.739a82.919,82.919,0,0,0-4.878,14.237c-1.961.98-5.431.881-7.075-.639,0-5.623,3.506-30.384,10.827-40.949s27.915-26.725,27.915-26.725C335.51,318.993,334.261,330.122,334.261,330.122Z" transform="translate(-287.907 -312.838)" fill="#fc535a"/><g transform="translate(22.095 27.349)"><path d="M312.461,339.77l-.553.425a4.727,4.727,0,0,1-.153.643,29.608,29.608,0,0,1-4.4-3.953.625.625,0,0,1,.941-.824A29.716,29.716,0,0,0,312.461,339.77Z" transform="translate(-307.196 -335.851)" fill="#e22250"/></g><g transform="translate(0 67.672)"><path d="M300.074,370.422a19.885,19.885,0,0,1,4.5,5.645c1.4,3.013.329,5.042.776,7.58.479,2.72-.384,3.471-1.589,2.316s-1.209-3.984-1.644-4.719c-.589-1-1.039-.207-1.513,1.074-.594,1.606-1.639,4.136-1.411,6.609.232,2.518-1.495,5.375-2.058,5.148-1.2-.485-.505-2.133-.266-3.583s-.462-3.429.2-5.418c0,0-1.286,2.739-1.036,4.546s-1.393,5.033-2.326,4.918-.352-2.41-.251-3.7a29.284,29.284,0,0,1,1.028-5.906,16.969,16.969,0,0,0-1.417,3.789c-.246,1.507-.534,4.785-1.4,5.091s-.889-.466-.526-2.906.44-4.026.919-5.032a9.087,9.087,0,0,0-1.431,2.958c-.523,1.828-.8,2.622-1.358,2.849s-.9.244-.468-1.32.49-2.306.762-3.573,1.193-2.967,1.309-4.215a21.035,21.035,0,0,1,.84-4.234c.455-1.442,1.288-8.555,1.288-8.555A8.468,8.468,0,0,0,300.074,370.422Z" transform="translate(-288.604 -369.782)" fill="#ffae77"/></g></g></g></g></g></svg>