<svg xmlns="http://www.w3.org/2000/svg" width="240" height="100" viewBox="0 0 240 100"><g transform="translate(-261 -2521)"><rect width="240" height="100" transform="translate(261 2521)" fill="#fff"/><g transform="translate(327.113 2521.001)"><g transform="translate(6.352 9.288)"><g transform="translate(14.203 22.063)"><path d="M148.151,355.147h.038a5.953,5.953,0,0,0,0-11.906c-.043,0-.086,0-.128,0h-54.5c-.043,0-.086,0-.128,0a5.953,5.953,0,0,0,0,11.906h.038" transform="translate(-87.018 -307.552)" fill="#f1b986"/><path d="M171.217,258.48a268.512,268.512,0,0,0-51.941,0,184.117,184.117,0,0,0-1.187,32.3A15.236,15.236,0,0,0,132.6,305.219q12.647.6,25.295,0A15.236,15.236,0,0,0,172.4,290.776,184.138,184.138,0,0,0,171.217,258.48Z" transform="translate(-111.452 -238.334)" fill="#f1d0a5"/><path d="M119.281,258.477q12.983-1.259,25.971-1.258a69.148,69.148,0,0,0-13.15,1.271q-1.023,16.3-.6,32.6c.183,7.152,2.8,12.984,6.227,14.315q-2.561-.07-5.124-.191a15.237,15.237,0,0,1-14.511-14.444A184.363,184.363,0,0,1,119.281,258.477Z" transform="translate(-111.456 -238.332)" fill="#f1b986"/><path d="M133.321,189.616c-9.952,3.844-24.088,2.149-31.212-4.975,0,0-1.692,11.567-10.457,11.567l-3.822,1.285C77.623,157.424,99.4,168.13,99.4,168.13a10.357,10.357,0,0,1,8.178-6.031c.275-.034.551-.06.828-.077.022,0,.044,0,.066,0a18.155,18.155,0,0,1,6.417.967c.69.223,1.352.468,1.971.721a30.169,30.169,0,0,1,4.686,2.408l.075.051c2.241-2.965,4.378-5.648,6.728-5.648a2.45,2.45,0,0,1,2.078.959c1.7,2.222.3,7.566.19,7.986l-.005.019s0-.01.007-.019l.012-.031c.3-.758,3.667-8.915,9.7-8.915a4.718,4.718,0,0,1,1.027.1c4.5.995.978,8.867.59,9.7l-.01.024-.02.043c.192-.245,7.729-9.814,11.079-5.424l0,.005C156.379,169.422,143.268,185.774,133.321,189.616Z" transform="translate(-85.107 -160.518)" fill="#f4dd45"/><g transform="translate(0 0)"><path d="M387.032,178.542h0c-1.693-1.692-7.559,6.294-11.082,5.429l.026-.048-.02.043C376.145,183.721,383.683,174.152,387.032,178.542Z" transform="translate(-319.142 -174.096)" fill="#ecc32e"/><path d="M328.805,160.622c-2.544-.578-4.9,4.265-6.235,7.7a2.847,2.847,0,0,1-4.155,1.39l-.364-.226,0-.007.005-.019h0l.012-.031c.3-.758,3.667-8.915,9.705-8.915A4.728,4.728,0,0,1,328.805,160.622Z" transform="translate(-272.553 -160.518)" fill="#ecc32e"/><path d="M107.571,168.615c-7.281,1.284-10.032,17.975-5.465,22.542,0,0-1.692,11.567-10.457,11.567l-3.822,1.285c-10.208-40.07,11.565-29.363,11.565-29.363A10.357,10.357,0,0,1,107.571,168.615Z" transform="translate(-85.104 -167.034)" fill="#ecc32e"/><path d="M249.864,161.477c-2.559-2.559-4.264,10.564-10.025,12.665s-6.3-.585-6.3-.585v0c2.836-1.049,5.23-4.364,7.517-7.391l0,0c.07-.094.139-.185.209-.277.087-.117.177-.235.265-.35,2.071-2.705,4.07-5.021,6.254-5.021a2.451,2.451,0,0,1,2.078.959Z" transform="translate(-204.548 -160.518)" fill="#ecc32e"/></g></g><circle cx="7.252" cy="7.252" r="7.252" transform="translate(77.341)" fill="#80b4fb"/><path d="M422.079,61.347a7.252,7.252,0,1,1-9.756-9.756,7.255,7.255,0,0,0,9.756,9.756Z" transform="translate(-331.023 -50.803)" fill="#5490f9"/><g transform="translate(0 13.116)"><circle cx="8.327" cy="8.327" r="8.327" fill="#f6f1f1"/></g></g><g transform="translate(4.887 -0.001)"><path d="M229.148,413.269a7.664,7.664,0,0,0,6.892-4.359,1.465,1.465,0,1,0-2.647-1.256,4.7,4.7,0,0,1-8.491,0,1.465,1.465,0,1,0-2.647,1.256A7.664,7.664,0,0,0,229.148,413.269Z" transform="translate(-179.686 -327.36)"/><path d="M185.538,347.862c0-2.029-1.108-3.68-2.47-3.68s-2.47,1.651-2.47,3.68,1.108,3.68,2.47,3.68S185.538,349.892,185.538,347.862Z" transform="translate(-146.279 -276.958)"/><path d="M315.306,347.862c0-2.029-1.108-3.68-2.47-3.68s-2.47,1.651-2.47,3.68,1.108,3.68,2.47,3.68S315.306,349.892,315.306,347.862Z" transform="translate(-250.701 -276.958)"/><path d="M144.832,156.319c-1.666-.017-3.6.9-5.761,2.718a6.261,6.261,0,0,0-.689-4.062,4.39,4.39,0,0,0-4.007-1.952c-3.321,0-5.893,1.99-7.721,4.188a5.713,5.713,0,0,0-1.018-2.649,3.915,3.915,0,0,0-3.247-1.539c-2.724,0-4.9,2.355-7.092,5.177a32.905,32.905,0,0,0-3.841-1.878c-.685-.281-1.384-.536-2.077-.76a19.466,19.466,0,0,0-6.943-1.036l-.03,0-.048,0c-.305.019-.614.047-.923.086a11.519,11.519,0,0,0-8.631,5.643c-2.29-.816-7.162-1.988-10.867,1.018-5,4.059-5.569,14.051-1.693,29.7a7.411,7.411,0,0,0,3.933,12.442q.057,1.8.146,3.591a16.594,16.594,0,0,0,1.835,6.806,1.465,1.465,0,0,0,2.6-1.345,13.68,13.68,0,0,1-1.512-5.612c-.26-5.063-.3-10.2-.136-15.3,3.518-.463,6.4-2.677,8.4-6.475a21.11,21.11,0,0,0,1.511-3.761,29.008,29.008,0,0,0,13.465,5.346,34.977,34.977,0,0,0,17.407-1.708,33.5,33.5,0,0,0,9.967-6.652,183.194,183.194,0,0,1,.782,28.553,13.734,13.734,0,0,1-13.118,13.055c-8.346.395-16.811.395-25.157,0a13.665,13.665,0,0,1-8.321-3.3,1.465,1.465,0,0,0-1.906,2.225,16.57,16.57,0,0,0,10.089,4c4.22.2,8.468.3,12.717.3s8.5-.1,12.716-.3A16.655,16.655,0,0,0,141.567,207q.092-1.793.147-3.59a7.416,7.416,0,0,0-.113-14.59q-.31-6.59-1.087-13.148c4.024-4.273,7.192-9.051,8.182-12.556.606-2.146.441-3.853-.49-5.074A4.156,4.156,0,0,0,144.832,156.319ZM81.081,196.13a4.5,4.5,0,0,1,3.09-4.265c-.087,2.83-.109,5.672-.066,8.506A4.494,4.494,0,0,1,81.081,196.13Zm63.73,0a4.494,4.494,0,0,1-3.026,4.241q.064-4.248-.067-8.508A4.5,4.5,0,0,1,144.811,196.13Zm1.065-33.807c-1.7,6.016-11.422,16.953-19.039,19.9a32.464,32.464,0,0,1-15.924,1.543c-5.7-.838-10.571-3.036-13.722-6.188a1.466,1.466,0,0,0-2.485.822,18.963,18.963,0,0,1-1.822,5.38c-1.737,3.27-4.148,4.93-7.168,4.937l-.147,0a7.372,7.372,0,0,0-2.733.524c-4.109-17.167-1.8-23.448.939-25.676,3.442-2.806,8.969-.17,9.021-.145a1.465,1.465,0,0,0,1.948-.643,8.894,8.894,0,0,1,7.056-5.249c.236-.029.475-.052.712-.067l.1-.005a16.6,16.6,0,0,1,5.874.9c.621.2,1.249.43,1.866.683a29.829,29.829,0,0,1,3.162,1.521c-1.877,2.469-3.818,4.84-5.876,5.6a1.465,1.465,0,0,0,1.015,2.748c3.1-1.145,5.51-4.341,7.841-7.432,2.046-2.713,4.161-5.518,5.9-5.518a1.007,1.007,0,0,1,.914.382c.907,1.191.509,4.654-.064,6.731a1.465,1.465,0,0,0,2.781.911c.03-.08,3.119-8.025,8.355-8.025,1.16,0,1.426.422,1.526.58.855,1.358-.224,5.025-1.263,7.194a1.465,1.465,0,0,0,2.476,1.535c1.53-1.964,5.419-6.014,7.694-6.014h.009a1.232,1.232,0,0,1,1.058.574,3.169,3.169,0,0,1,0,2.5Z" transform="translate(-63.484 -123.135)"/><path d="M60.215,12.33h3.84l2.763,10.262A1.465,1.465,0,0,0,68.2,23.675h.029a1.465,1.465,0,0,0,1.4-1.027L75.8,2.931h8.751a1.465,1.465,0,1,0,0-2.93H74.723a1.465,1.465,0,0,0-1.4,1.027L68.338,16.968l-1.746-6.483A1.465,1.465,0,0,0,65.178,9.4H60.215a1.465,1.465,0,1,0,0,2.93Z" transform="translate(-48.23 -0.001)"/><path d="M148.079,48.5c-2.455,3.509-3.921,5.428-4.709,6.459-.962,1.26-1.322,1.731-1.066,2.561a1.54,1.54,0,0,0,1,1.013c.2.066.415.138,3.375.138,1.176,0,2.784-.012,5-.039a1.465,1.465,0,0,0-.018-2.93h-.019c-1.8.022-3.709.035-5.182.036.873-1.158,2.171-2.914,4.022-5.558a11.481,11.481,0,0,0,1.873-3.87,1.459,1.459,0,0,0,.026-.145l.077-.6a1.482,1.482,0,0,0,.012-.186,5.427,5.427,0,0,0-10.751-1.05,1.465,1.465,0,1,0,2.875.565,2.5,2.5,0,0,1,4.945.4l-.053.417A8.826,8.826,0,0,1,148.079,48.5Z" transform="translate(-114.969 -32.148)"/><path d="M405.254,33.316c4.326-5.511,3.855-7.286,2.93-8.211s-2.7-1.4-8.213,2.93a8.7,8.7,0,0,0-3.488-.489,1.465,1.465,0,1,0,.19,2.923,5.769,5.769,0,0,1,5.115,2.462c-1.151,1.363-2.472,2.8-3.866,4.19s-2.828,2.715-4.19,3.866a5.782,5.782,0,0,1-1.141-8.441,1.465,1.465,0,0,0-2.252-1.875,8.663,8.663,0,0,0-1.512,8.51c-4.317,5.5-3.846,7.277-2.921,8.2a2.017,2.017,0,0,0,1.515.621c1.227,0,3.218-.82,6.7-3.552a8.714,8.714,0,0,0,11.135-11.136Zm.135-5.417a21.49,21.49,0,0,1-1.728,2.672c-.144-.168-.294-.334-.453-.493s-.324-.307-.492-.452A21.456,21.456,0,0,1,405.389,27.9ZM388.7,44.588a21.45,21.45,0,0,1,1.728-2.672c.144.167.294.332.453.491s.325.309.493.453A21.478,21.478,0,0,1,388.7,44.588Zm12.436-4.253A5.769,5.769,0,0,1,397,42.026c.995-.89,2-1.844,2.994-2.834s1.943-2,2.834-2.994A5.77,5.77,0,0,1,401.137,40.335Z" transform="translate(-310.988 -19.702)"/><path d="M224.589,26.608a1.465,1.465,0,0,0,1.89-.847l1.156-3.035h7.753l1.144,3.031a1.465,1.465,0,1,0,2.741-1.034L233.244,8.748c0-.013-.01-.027-.016-.04a1.825,1.825,0,0,0-1.694-1.135h0a1.826,1.826,0,0,0-1.694,1.139l-.013.033-6.084,15.973a1.465,1.465,0,0,0,.847,1.89ZM231.53,12.5l2.753,7.295h-5.531Z" transform="translate(-180.919 -6.094)"/><path d="M15.341,18.177a1.465,1.465,0,0,0,2.072,0l.705-.705.705.705A1.465,1.465,0,1,0,20.9,16.1L20.19,15.4l.705-.705a1.465,1.465,0,0,0-2.072-2.072l-.705.705-.705-.705a1.465,1.465,0,0,0-2.072,2.072l.705.705-.705.705A1.465,1.465,0,0,0,15.341,18.177Z" transform="translate(-12.954 -9.812)"/><path d="M478.158,144.54a1.465,1.465,0,0,0-2.072,0l-.705.705-.705-.705a1.465,1.465,0,1,0-2.071,2.072l.705.705-.705.705a1.465,1.465,0,1,0,2.072,2.072l.705-.705.705.705a1.465,1.465,0,1,0,2.072-2.072l-.705-.705.705-.705A1.465,1.465,0,0,0,478.158,144.54Z" transform="translate(-380.907 -115.964)"/><path d="M319.77,111.388a1.465,1.465,0,0,0,2.072,0l.705-.705.705.705a1.465,1.465,0,1,0,2.072-2.072l-.705-.705.705-.705a1.465,1.465,0,1,0-2.071-2.072l-.705.705-.705-.705a1.465,1.465,0,1,0-2.071,2.072l.705.705-.705.705A1.464,1.464,0,0,0,319.77,111.388Z" transform="translate(-257.923 -84.818)"/><path d="M23.5,290.034H20.674V287.21a1.465,1.465,0,0,0-2.93,0v2.824H14.92a1.465,1.465,0,1,0,0,2.93h2.824v2.824a1.465,1.465,0,0,0,2.93,0v-2.824H23.5a1.465,1.465,0,1,0,0-2.93Z" transform="translate(-11.782 -229.935)"/><path d="M14.679,126.8a9.792,9.792,0,1,0-9.792-9.792,9.8,9.8,0,0,0,9.792,9.792Zm0-16.655a6.863,6.863,0,1,1-6.863,6.863,6.87,6.87,0,0,1,6.863-6.863Z" transform="translate(-4.887 -86.275)"/><path d="M48.988,135.52h2.193a1.465,1.465,0,0,0,0-2.93h-.728v-2.725a1.465,1.465,0,1,0-2.93,0v4.189A1.465,1.465,0,0,0,48.988,135.52Z" transform="translate(-39.196 -103.322)"/><path d="M347.015,9.981h3.04l-2.381,4.952a1.465,1.465,0,1,0,2.641,1.269l3.39-7.052a1.465,1.465,0,0,0-1.32-2.1h-3.04L351.725,2.1A1.465,1.465,0,0,0,349.084.83l-3.39,7.052a1.465,1.465,0,0,0,1.32,2.1Z" transform="translate(-279.013 0.001)"/><path d="M456.556,219.6a4.779,4.779,0,0,0-3.834-7.633h-4.186a1.465,1.465,0,0,0-1.465,1.465v14.411a1.465,1.465,0,0,0,1.465,1.465h.006s3.85-.017,4.911-.017a5.341,5.341,0,0,0,3.1-9.69Zm-3.834-4.7a1.851,1.851,0,0,1,0,3.7l-1.527,0H450v-3.706Zm.731,11.464c-.63,0-2.243.006-3.452.011v-4.834l1.2,0h2.248a2.414,2.414,0,1,1,0,4.828Z" transform="translate(-360.706 -170.562)"/></g></g></g></svg>