<svg xmlns="http://www.w3.org/2000/svg" width="131.039" height="219.497" viewBox="0 0 131.039 219.497"><g transform="translate(-125 -36.568)"><path d="M166.9,330.64,133,343.254h.085A21.969,21.969,0,0,0,131,352.506v47.264H256.037V359.709C191.608,366.346,166.661,327.9,166.9,330.64Z" transform="translate(-2.999 -146.922)" fill="#ef9538"/><path d="M179.98,298.334a29.035,29.035,0,0,0-16.16-2.471l2.216-10.223a28.93,28.93,0,0,1,16.13,2.466,28,28,0,0,1,3.161,1.715l-2.216,10.223a30.233,30.233,0,0,0-3.131-1.711Z" transform="translate(-19.404 -124.369)" fill="#c6e02d"/><path d="M214.113,42.572A51.525,51.525,0,0,0,161.8,95.054a53.225,53.225,0,0,0,.43,6.222l.585,4.541,3.876-.85q2.243-.488,4.451-1.085a99.637,99.637,0,0,0,32.4-15.325,99.773,99.773,0,0,0,27.343-29.674S223.27,89.5,246.332,106.2l.016.011a3.385,3.385,0,0,1,1.41,3.075c-.482,4.867-.919,10.365-1.366,13.838h-.075v4a37.261,37.261,0,0,1-11.3,26.783l.115.115a26.963,26.963,0,0,0,21.426-26.388V85.81a43.143,43.143,0,0,0-42.448-43.238Z" transform="translate(-18.392 -2.999)" fill="#3e4768"/><path d="M201.66,304.458a10,10,0,0,0,10-10v-16.3l.015-.04a37.5,37.5,0,0,0,34.31-.005l.025.045v16.3a10,10,0,0,0,10,10H269.5a21.86,21.86,0,0,1,21.857,21.858v7.206C226.928,340.159,201.66,304.458,201.66,304.458Z" transform="translate(-38.319 -120.735)" fill="#edc9ae"/><path d="M183.247,234.059a38.073,38.073,0,0,0,9.518,6.947l-.015.04v4.111h-6.657c-.275,0-.545-.005-.815-.015-.545-.02-1.085-.055-1.615-.115-14.734-1.55-23.927-17.285-18.035-31.219l3.841-9.088a7.251,7.251,0,0,0,2.686-.85v3.516A37.654,37.654,0,0,0,183.247,234.059Z" transform="translate(-19.405 -83.626)" fill="#3e4768"/><path d="M240.228,75.19a99.7,99.7,0,0,1-59.748,45v22.877a37.654,37.654,0,0,0,11.093,26.673,38.072,38.072,0,0,0,9.518,6.947,37.425,37.425,0,0,0,54.566-33.255v-20.9l.015-.02c-23.062-16.7-15.445-47.319-15.445-47.319Z" transform="translate(-27.732 -19.305)" fill="#ffd8b7"/><path d="M169.624,178.425v11.894a7.252,7.252,0,0,1-2.686.85,7.352,7.352,0,0,1-5.011-13.349,6.2,6.2,0,0,1,7.7.605Z" transform="translate(-16.876 -70.075)" fill="#edc9ae"/><path d="M341.033,180.333a7.4,7.4,0,0,1,.835,2.511,7.252,7.252,0,0,1-.835,4.556v.005a7.352,7.352,0,0,1-10.168,2.806h-.075V178.628h.075a6.27,6.27,0,0,1,6.012-1.655,5.869,5.869,0,0,1,1.891.865A7.347,7.347,0,0,1,341.033,180.333Z" transform="translate(-102.864 -70.083)" fill="#edc9ae"/><path d="M148.005,346l-15,5h.085A21.969,21.969,0,0,0,131,360.254v47.264h15V355.253a19.792,19.792,0,0,1,2.086-8.753Z" transform="translate(-2.999 -154.67)" fill="#cc7c33"/><path d="M233.256,214.486a37.442,37.442,0,0,1-17.16-4.151,38.071,38.071,0,0,1-9.518-6.947,37.654,37.654,0,0,1-11.093-26.673v-22.2a99.522,99.522,0,0,1-15,5.323v22.877a37.654,37.654,0,0,0,11.093,26.673,38.072,38.072,0,0,0,9.518,6.947,37.323,37.323,0,0,0,38.22-2.342A37.641,37.641,0,0,1,233.256,214.486Z" transform="translate(-27.732 -58.957)" fill="#ddbba2"/><path d="M176.8,332.108a23.253,23.253,0,0,1,8.583,27.253l-1.455,3.911L171.294,385.2c2.016-10.818-7-18.441-12.994-22.217a39.8,39.8,0,0,0-4.992-2.711c-17.33-9.533-20.791-20.126-18.681-29.419,2.976-13.134,17.07-23.682,18.911-25.012a28.887,28.887,0,0,1,11.573,2.721c-.02.84-.03,1.676-.03,2.516q0,4.126.35,8.237a16.1,16.1,0,0,0,6.492,9.428Z" transform="translate(-4.536 -134.596)" fill="#3e4768"/><path d="M180.674,368.918a38.553,38.553,0,0,0-7.37-5.936,39.794,39.794,0,0,0-4.992-2.711c-17.33-9.533-20.791-20.126-18.681-29.419,2.214-9.773,10.582-18.111,15.48-22.288v0a28.885,28.885,0,0,0-11.573-2.721c-1.841,1.33-15.935,11.879-18.911,25.012-2.111,9.293,1.35,19.886,18.681,29.419a39.793,39.793,0,0,1,4.991,2.711c6,3.776,15.009,11.4,12.994,22.217Z" transform="translate(-4.536 -134.596)" fill="#2e364c"/><g transform="translate(125 36.568)"><path d="M128,256.065H253.038a3,3,0,0,0,3-3v-47.48a24.887,24.887,0,0,0-24.857-24.857H217.7a7.01,7.01,0,0,1-7-7v-14.6a40.674,40.674,0,0,0,7.168-5.272,30.1,30.1,0,0,0,23.31-29.209v-6.663a10.241,10.241,0,0,0,.8-5.646,10.462,10.462,0,0,0-.8-2.751V82.643A46.127,46.127,0,0,0,195.1,36.568a54.492,54.492,0,0,0-54.664,53.217c-1.7.472-3.424.9-5.16,1.284a3,3,0,1,0,1.28,5.863q2.026-.444,4.03-.971c.072.9.158,1.8.273,2.7l.233,1.811-7.87,1.721a3,3,0,1,0,1.284,5.863l7.357-1.609.01.075a10.281,10.281,0,0,0-2.884,5.809,10.414,10.414,0,0,0,6.366,11.058c.139.056.281.1.421.146l-2.317,5.482a25.8,25.8,0,0,0,6.344,29.013,31.951,31.951,0,0,0-3.569.272,3,3,0,0,0-2.53,2.338l-2.216,10.221a3,3,0,0,0,.444,2.3c-5.187,4.707-12.433,12.691-14.69,22.118a24.636,24.636,0,0,0-2.238,10.3v47.48a3,3,0,0,0,3,3Zm35.806-6.01v.008H155.65a25.26,25.26,0,0,1-.57-17.108c4.89,3.718,10.128,9.589,8.727,17.1Zm86.231.008H231.762a31.273,31.273,0,0,0-1.124-21.7,3,3,0,1,0-5.509,2.382,25.236,25.236,0,0,1,.26,19.316H170.532l11.461-19.889a2.952,2.952,0,0,0,.213-.45l1.455-3.911a26.234,26.234,0,0,0-2.428-23.213q.65.382,1.325.762c11.3,6.366,29.434,13.238,55.049,13.238q5.942,0,12.43-.524ZM217.7,186.729h13.486a18.879,18.879,0,0,1,18.856,18.856v4.468c-30.832,2.639-51.881-4.863-64.219-11.745A73.353,73.353,0,0,1,168.851,185.5a13.018,13.018,0,0,0,7.5-11.775V161.987a40.479,40.479,0,0,0,28.344-.033v11.77a13.018,13.018,0,0,0,13,13Zm-48.929-22.194h1.579v9.19a7,7,0,0,1-6.692,6.987c-.03-.68-.06-1.36-.076-2.041.043,0,.085.009.128.009a3,3,0,0,0,2.933-2.365l2.216-10.22a2.993,2.993,0,0,0-.087-1.561Zm56.159-40.408a34.445,34.445,0,0,1-34.406,34.4,34.81,34.81,0,0,1-34.771-34.771v-20.6a103.319,103.319,0,0,0,52.538-35.816,58.855,58.855,0,0,0,.6,8.722c1.751,11.984,7.242,21.723,16.037,28.609Zm10.244.51a24.047,24.047,0,0,1-9.178,18.826,40.157,40.157,0,0,0,4.936-19.335v-.011c.261.02.522.033.784.033a10.437,10.437,0,0,0,3.459-.606Zm.4-8.8c-.027.046-.05.093-.075.14a4.3,4.3,0,0,1-2.113,1.845,4.406,4.406,0,0,1-2.451.25v-7.986a3.138,3.138,0,0,1,3.269.141,4.323,4.323,0,0,1,1.368,5.609ZM196.195,54.017a3,3,0,0,0-4.2.6,96.759,96.759,0,0,1-45.454,33.26,48.464,48.464,0,0,1,48.558-45.3A40.118,40.118,0,0,1,235.17,82.646V104.1h-.008c-11.5-5.881-18.329-15.54-20.306-28.714a54.229,54.229,0,0,1,.55-18.777,3,3,0,0,0-5.484-2.274,97.118,97.118,0,0,1-62.269,44.7l-.679.15-.166-1.289q-.236-1.837-.335-3.667a102.768,102.768,0,0,0,50.318-36.011A3,3,0,0,0,196.195,54.017Zm-51.271,59.177a4.337,4.337,0,0,1,1.835-2.981,3.151,3.151,0,0,1,2.988-.259v8.152a4.42,4.42,0,0,1-2.164-.288,4.351,4.351,0,0,1-2.659-4.625Zm4.059,18.159,1.084-2.566a40.833,40.833,0,0,0,19.185,29.744h-2.566q-.359,0-.714-.012a18.85,18.85,0,0,1-15.424-8.853A19.735,19.735,0,0,1,148.983,131.352Zm.117,32.7a26,26,0,0,1,13.422,2.91l-.906,4.18a31.866,31.866,0,0,0-13.306-2.911h-.116Zm.843,10.237a25.882,25.882,0,0,1,7.609,1.65c-.015,3.011.1,6.039.354,9.031a2.955,2.955,0,0,0,.075.458,19.092,19.092,0,0,0,7.7,11.185l4.874,3.365a20.246,20.246,0,0,1,7.477,23.738l-1.367,3.676-7.8,13.536a27.2,27.2,0,0,0-8.018-11.028,46.528,46.528,0,0,0-10.747-6.919c-11.222-6.2-17.124-13.27-17.542-21.026-.69-12.856,13.493-24.675,17.385-27.666ZM131,214.724q5.185,7.445,16.324,13.582c.083.046.172.089.258.127.041.018.947.418,2.315,1.169a31.292,31.292,0,0,0-.622,20.462H131Z" transform="translate(-125 -36.568)" fill="#20344c"/><path d="M280.959,161.189a9.465,9.465,0,0,0-9.453,9.453,3,3,0,1,0,6,0,3.452,3.452,0,0,1,6.9,0,3,3,0,0,0,6,0,9.465,9.465,0,0,0-9.455-9.453Z" transform="translate(-198.231 -98.86)" fill="#20344c"/><path d="M218.6,173.643a3,3,0,0,0,3-3,9.454,9.454,0,0,0-18.908,0,3,3,0,0,0,6,0,3.452,3.452,0,1,1,6.9,0,3,3,0,0,0,3,3Z" transform="translate(-163.836 -98.86)" fill="#20344c"/><path d="M250.886,223.3a12.228,12.228,0,0,1-17.273,0,3,3,0,1,0-4.243,4.244,18.235,18.235,0,0,0,25.758,0,3,3,0,1,0-4.243-4.244Z" transform="translate(-176.73 -129.468)" fill="#20344c"/><path d="M170.4,364.9a3,3,0,1,0,2.5-5.458c-5.452-2.5-8.8-5.743-9.966-9.649-1.7-5.721,1.762-11.315,1.812-11.394a3,3,0,1,0-5.052-3.24c-.2.318-4.987,7.884-2.532,16.273C158.819,357.1,163.274,361.634,170.4,364.9Z" transform="translate(-140.727 -185.127)" fill="#20344c"/></g></g></svg>