<svg xmlns="http://www.w3.org/2000/svg" xmlns:xlink="http://www.w3.org/1999/xlink" width="337.209" height="226.817" viewBox="0 0 337.209 226.817"><defs><linearGradient id="a" y1="0.5" x2="1" y2="0.5" gradientUnits="objectBoundingBox"><stop offset="0" stop-color="#dae3fe"/><stop offset="1" stop-color="#e9effd"/></linearGradient><linearGradient id="c" x1="0.507" y1="0.009" x2="0.491" y2="2.307" gradientUnits="objectBoundingBox"><stop offset="0" stop-color="#09005d"/><stop offset="1" stop-color="#1a0f91"/></linearGradient><linearGradient id="d" x1="0.554" y1="-0.394" x2="0.524" y2="0.092" xlink:href="#c"/><linearGradient id="e" x1="0.166" y1="2.421" x2="0.829" y2="-1.414" gradientUnits="objectBoundingBox"><stop offset="0" stop-color="#fe7062"/><stop offset="1" stop-color="#ff928e"/></linearGradient><linearGradient id="f" x1="0.648" y1="-3.136" x2="0.497" y2="0.831" xlink:href="#c"/><clipPath id="g"><path d="M351.631,457.442A12.766,12.766,0,1,0,364.4,470.208,12.766,12.766,0,0,0,351.631,457.442Zm0,20.039a7.273,7.273,0,1,1,7.273-7.273A7.273,7.273,0,0,1,351.631,477.481Z" transform="translate(-338.865 -457.442)" fill="#7d97f4"/></clipPath><linearGradient id="h" x1="0.497" y1="-0.473" x2="0.515" y2="5.325" gradientUnits="objectBoundingBox"><stop offset="0" stop-color="#4042e2"/><stop offset="1" stop-color="#4f52ff"/></linearGradient><clipPath id="i"><path d="M540.279,457.442a12.766,12.766,0,1,0,12.766,12.766A12.766,12.766,0,0,0,540.279,457.442Zm0,20.039a7.273,7.273,0,1,1,7.273-7.273A7.273,7.273,0,0,1,540.279,477.481Z" transform="translate(-527.513 -457.442)" fill="#7d97f4"/></clipPath><linearGradient id="j" x1="0.498" y1="-0.072" x2="0.515" y2="4.109" xlink:href="#h"/><clipPath id="k"><path d="M728.926,457.442a12.766,12.766,0,1,0,12.766,12.766A12.766,12.766,0,0,0,728.926,457.442Zm0,20.039a7.273,7.273,0,1,1,7.273-7.273A7.273,7.273,0,0,1,728.926,477.481Z" transform="translate(-716.16 -457.442)" fill="#7d97f4"/></clipPath><linearGradient id="l" x1="0.496" y1="-2.001" x2="0.514" y2="9.594" xlink:href="#h"/><linearGradient id="m" x1="1.148" y1="-1.705" x2="0.892" y2="-0.833" xlink:href="#h"/><linearGradient id="n" x1="1.562" y1="-3.117" x2="1.142" y2="-1.687" xlink:href="#h"/><linearGradient id="o" x1="3.242" y1="-8.836" x2="2.158" y2="-5.145" xlink:href="#h"/><linearGradient id="p" x1="-149.718" y1="5.518" x2="-157.718" y2="6.376" xlink:href="#c"/><linearGradient id="q" x1="-18.159" y1="24.389" x2="-18.48" y2="27.836" xlink:href="#e"/><linearGradient id="r" x1="-14.889" y1="32.597" x2="-15.189" y2="37.337" xlink:href="#e"/><linearGradient id="s" x1="-13.319" y1="22.523" x2="-13.76" y2="25.742" xlink:href="#e"/><linearGradient id="x" x1="-44.693" y1="-0.346" x2="-44.329" y2="0.297" xlink:href="#c"/><linearGradient id="y" x1="-46.578" y1="0.302" x2="-45.907" y2="1.263" gradientUnits="objectBoundingBox"><stop offset="0" stop-color="#a22b25"/><stop offset="1" stop-color="#c0423c"/></linearGradient><linearGradient id="z" x1="-112.753" y1="-90.893" x2="-115.167" y2="-82.226" xlink:href="#c"/><linearGradient id="aa" x1="-105.692" y1="1.602" x2="-104.657" y2="-1.187" xlink:href="#y"/><linearGradient id="ab" x1="-74.553" y1="-62.683" x2="-76.045" y2="-56.776" xlink:href="#c"/><linearGradient id="ac" x1="-45.153" y1="1.698" x2="-44.69" y2="-1.193" xlink:href="#y"/><linearGradient id="ad" x1="1.18" y1="0.092" x2="0.124" y2="0.749" xlink:href="#h"/><linearGradient id="ae" x1="-38.687" y1="-0.331" x2="-39.673" y2="0.684" xlink:href="#h"/><linearGradient id="af" x1="0.841" y1="-0.13" x2="0.278" y2="1.185" xlink:href="#y"/><linearGradient id="ag" x1="2.078" y1="-0.175" x2="1.186" y2="0.288" xlink:href="#y"/><linearGradient id="ah" x1="-51.106" y1="60.979" x2="-51.861" y2="59.85" xlink:href="#y"/><linearGradient id="ai" x1="-87.612" y1="-0.334" x2="-86.911" y2="0.994" xlink:href="#c"/><linearGradient id="aj" x1="-184.779" y1="194.47" x2="-187.523" y2="190.832" xlink:href="#y"/><linearGradient id="ak" x1="-141.739" y1="1.605" x2="-139.739" y2="4.278" xlink:href="#y"/><linearGradient id="al" x1="-0.89" y1="-4.407" x2="0.93" y2="1.856" xlink:href="#y"/><linearGradient id="am" x1="50.395" y1="10.722" x2="50.114" y2="29.139" xlink:href="#h"/><linearGradient id="an" x1="50.773" y1="-6.693" x2="50.5" y2="0.843" xlink:href="#h"/><linearGradient id="ao" x1="182.672" y1="0.5" x2="183.672" y2="0.5" gradientUnits="objectBoundingBox"><stop offset="0" stop-color="#ff928e"/><stop offset="1" stop-color="#feb3b1"/></linearGradient><linearGradient id="ap" x1="65.825" y1="2.443" x2="65.477" y2="4.547" xlink:href="#h"/><linearGradient id="aq" x1="60.755" y1="-1.867" x2="60.444" y2="1.1" xlink:href="#h"/><linearGradient id="ar" x1="0.387" y1="-0.398" x2="0.728" y2="1.495" xlink:href="#c"/><linearGradient id="as" x1="161.106" y1="0.5" x2="162.106" y2="0.5" xlink:href="#ao"/><linearGradient id="at" x1="0.306" y1="-1.658" x2="0.39" y2="-0.713" xlink:href="#c"/><linearGradient id="au" x1="0.121" y1="0.056" x2="1.233" y2="1.54" xlink:href="#ao"/><linearGradient id="av" x1="0.805" y1="-0.127" x2="0.39" y2="1.238" xlink:href="#h"/><linearGradient id="aw" x1="-0.447" y1="-2.014" x2="-4.023" y2="-11.505" xlink:href="#h"/><linearGradient id="ax" x1="69.151" y1="0.5" x2="70.151" y2="0.5" xlink:href="#ao"/><linearGradient id="ay" x1="98.879" y1="14.113" x2="98.66" y2="15.066" xlink:href="#ao"/><linearGradient id="az" x1="79.159" y1="15.369" x2="79.928" y2="16.263" gradientUnits="objectBoundingBox"><stop offset="0" stop-color="#e1473d"/><stop offset="1" stop-color="#e9605a"/></linearGradient><linearGradient id="ba" x1="402.118" y1="47.206" x2="401.217" y2="50.52" xlink:href="#ao"/><linearGradient id="bb" x1="-15.51" y1="-935.73" x2="-16.74" y2="-921.398" xlink:href="#h"/><linearGradient id="bc" x1="8.451" y1="-109.387" x2="5.826" y2="-108.088" xlink:href="#h"/><linearGradient id="bd" x1="22.573" y1="-0.055" x2="22.456" y2="7.99" xlink:href="#c"/><linearGradient id="bh" x1="0" x2="1" xlink:href="#a"/></defs><g transform="translate(-289.798 -123.155)"><path d="M617.465,269.673c-5.846-6.409-12.76-12.661-14.563-21.363-3.12-15.059,10.221-27.9,14.588-42.606a38.218,38.218,0,0,0-4.12-30.621,34.126,34.126,0,0,0-25.1-15.835c-17.257-1.676-34.146,10.632-51.145,7.067-13.612-2.854-24.368-15.444-38.185-16.793-16.259-1.587-29.75,12.619-45.276,17.967-18.572,6.4-38.707-.288-56.966-7.625s-37.47-15.522-56.716-12.011c-21.424,3.909-39.386,23.667-42.251,46.475-2.84,22.6,20.976,40.749.7,67.89-6.335,8.482-10.549,20.291-7.749,30.689,2.721,10.1,14.3,16.493,14.385,27,.066,8.293-7.321,14.892-7.916,23.161-.511,7.1,4.312,13.66,10.24,17.024s12.8,4.186,19.492,4.949l-1.971,2.243c33.682,3.2,67.573,2.488,101.384,1.773l159.958-3.383c5.48-.116,11.093-.259,16.2-2.368s9.685-6.623,10.463-12.366c1.324-9.772-8.328-18.254-7.436-28.081,1.139-12.549,17.834-17.39,21.011-29.539C628.733,284.731,623.312,276.082,617.465,269.673Z" transform="translate(0 -19.923)" fill="url(#a)"/><g transform="translate(314.395 262.071)"><path d="M545.488,1052.232H444.727c-3.213,0-5.818-2.074-5.818-4.633V970.129c0-2.554,2.6-4.626,5.8-4.633l101.567-.217c3.231-.007,5.85,2.084,5.833,4.657l-.806,77.688C551.288,1050.173,548.689,1052.232,545.488,1052.232Z" transform="translate(-438.909 -965.279)" fill="#7d97f4"/><path d="M569.292,1001.226l-90.1.442c-3.257.016-5.882,2.129-5.867,4.722l.629,65.158c.015,2.554,2.588,4.631,5.8,4.678l87.54,1.272c3.269.047,5.964-2.031,6.01-4.634l1.928-66.871C575.277,1003.359,572.6,1001.21,569.292,1001.226Z" transform="translate(-467.651 -995.296)" fill="#bdd0fb"/><path d="M663.577,1030.739v.495a1.617,1.617,0,0,1-1.766,1.406H592.392a1.617,1.617,0,0,1-1.766-1.406v-.495a1.617,1.617,0,0,1,1.766-1.406h69.419A1.617,1.617,0,0,1,663.577,1030.739Z" transform="translate(-565.599 -1018.767)" fill="#fff" opacity="0.6"/><path d="M660.72,1068.068h0a1.635,1.635,0,0,1-1.731,1.33l-60.71.881a1.625,1.625,0,0,1-1.8-1.406v-.115a1.611,1.611,0,0,1,1.738-1.406l60.71-.766A1.6,1.6,0,0,1,660.72,1068.068Z" transform="translate(-570.487 -1049.875)" fill="#fff" opacity="0.6"/><path d="M584.9,1165.231h-.054l-82.114-.784a4.94,4.94,0,0,1-3.508-1.4,3.255,3.255,0,0,1-.961-2.337l2.113-46.007c.048-2.015,2.117-3.629,4.61-3.59l81.971,1.27a4.933,4.933,0,0,1,3.481,1.41,3.254,3.254,0,0,1,.956,2.326s0,0,0,.007l-1.97,45.514C589.38,1163.624,587.356,1165.231,584.9,1165.231Zm-80-53.464c-2.1,0-3.823,1.313-3.862,2.955l-2.113,46.007a2.563,2.563,0,0,0,.776,1.855,4.279,4.279,0,0,0,3.04,1.2l82.114.785h.048c2.1,0,3.827-1.319,3.863-2.958l1.97-45.517a2.567,2.567,0,0,0-.771-1.851,4.272,4.272,0,0,0-3.016-1.208l-81.971-1.271Zm86.166,4.34h0Z" transform="translate(-488.472 -1087.052)" fill="url(#a)"/><path d="M600.025,1165.573H510.6a.33.33,0,0,1,0-.66h89.428a.33.33,0,0,1,0,.66Z" transform="translate(-498.496 -1131.982)" fill="#fff"/></g><g transform="translate(328.125 157.909)"><path d="M1139.332,1140.7l-5.458,48.949h63.321l-8.248-48.949Z" transform="translate(-1032.963 -1007.605)" fill="url(#c)"/><path d="M522.142,346.339V458.444a17.006,17.006,0,0,0,16.568,17c40.946,1.056,184.157,3.616,223.135,3.042a12.514,12.514,0,0,0,12.32-12.157c.752-26.044,1.972-88.67-2.545-117.745a12.877,12.877,0,0,0-12.313-10.9c-34.308-1.1-186.121-4.583-225.081-3.708A12.361,12.361,0,0,0,522.142,346.339Z" transform="translate(-522.142 -333.839)" fill="url(#d)"/><path d="M564.785,367.841V474.349a9.853,9.853,0,0,0,9.706,9.852l217.356,2.685a9.59,9.59,0,0,0,9.733-9.553l.364-105.557a7.013,7.013,0,0,0-6.843-7.037l-222.532-4.5A7.6,7.6,0,0,0,564.785,367.841Z" transform="translate(-557.751 -355.887)" fill="url(#e)"/><path d="M802.381,1131.375h0l-238.431-4.063a.165.165,0,1,1,.005-.33l238.431,4.063a.165.165,0,0,1,0,.33Z" transform="translate(-556.916 -996.147)" fill="#7d97f4"/><g transform="translate(125.956 134.899)"><path d="M1288.349,1156.9a2.646,2.646,0,1,1,2.646-2.646A2.649,2.649,0,0,1,1288.349,1156.9Zm0-4.962a2.316,2.316,0,1,0,2.316,2.316A2.319,2.319,0,0,0,1288.349,1151.941Z" transform="translate(-1285.703 -1151.611)" fill="#7d97f4"/></g><path d="M1111.046,1428.691h-92.675c-2.518,0-4.409-1.792-3.922-3.718l1.189-4.7a3.834,3.834,0,0,1,3.762-2.51l89.342-2.788a3.951,3.951,0,0,1,4.061,2.435l2.144,7.491C1115.5,1426.844,1113.6,1428.691,1111.046,1428.691Z" transform="translate(-933.175 -1236.628)" fill="url(#f)"/><path d="M1340.207,1436.824a.165.165,0,0,1,0-.33l3.828-.056h0a.165.165,0,0,1,0,.33l-3.828.056Z" transform="translate(-1205.122 -1254.555)" fill="#7d97f4"/><path d="M1034.8,1444.6l-.026,0a.165.165,0,0,1-.137-.189l.547-3.421a3.678,3.678,0,0,1,3.585-3.1l40.606-.594h0a.165.165,0,0,1,0,.33l-40.606.594a3.349,3.349,0,0,0-3.264,2.826l-.546,3.421A.165.165,0,0,1,1034.8,1444.6Z" transform="translate(-950.095 -1255.268)" fill="#7d97f4"/></g><g transform="translate(363.369 201.495)" opacity="0.6"><rect width="10.304" height="44.586" transform="translate(0 36.12)" fill="#fff"/><rect width="10.304" height="29.263" transform="translate(17.216 51.443)" fill="#fff"/><rect width="10.304" height="67.134" transform="translate(34.432 13.572)" fill="#fff"/><rect width="10.304" height="16.128" transform="translate(51.649 64.578)" fill="#fff"/><rect width="10.304" height="58.158" transform="translate(68.865 22.548)" fill="#fff"/><rect width="10.304" height="48.089" transform="translate(86.081 32.617)" fill="#fff"/><rect width="10.304" height="37.143" transform="translate(103.297 43.563)" fill="#fff"/><rect width="10.303" height="80.706" transform="translate(120.514)" fill="#fff"/><rect width="10.304" height="72.168" transform="translate(137.73 8.537)" fill="#fff"/><rect width="10.303" height="59.253" transform="translate(154.946 21.453)" fill="#fff"/><rect width="10.304" height="14.631" transform="translate(172.162 66.075)" fill="#fff"/><rect width="10.304" height="43.054" transform="translate(189.379 37.652)" fill="#fff"/></g><g transform="translate(297.892 178.299)"><g transform="translate(0)"><path d="M351.631,457.442A12.766,12.766,0,1,0,364.4,470.208,12.766,12.766,0,0,0,351.631,457.442Zm0,20.039a7.273,7.273,0,1,1,7.273-7.273A7.273,7.273,0,0,1,351.631,477.481Z" transform="translate(-338.865 -457.442)" fill="#bdd0fb"/><path d="M351.631,457.442A12.766,12.766,0,1,0,364.4,470.208,12.766,12.766,0,0,0,351.631,457.442Zm0,20.039a7.273,7.273,0,1,1,7.273-7.273A7.273,7.273,0,0,1,351.631,477.481Z" transform="translate(-338.865 -457.442)" fill="#7d97f4"/><g clip-path="url(#g)"><rect width="37.92" height="16.048" transform="translate(-5.061 9.958)" fill="url(#h)"/></g></g><g transform="translate(31.119)"><path d="M540.279,457.442a12.766,12.766,0,1,0,12.766,12.766A12.766,12.766,0,0,0,540.279,457.442Zm0,20.039a7.273,7.273,0,1,1,7.273-7.273A7.273,7.273,0,0,1,540.279,477.481Z" transform="translate(-527.513 -457.442)" fill="#bdd0fb"/><path d="M540.279,457.442a12.766,12.766,0,1,0,12.766,12.766A12.766,12.766,0,0,0,540.279,457.442Zm0,20.039a7.273,7.273,0,1,1,7.273-7.273A7.273,7.273,0,0,1,540.279,477.481Z" transform="translate(-527.513 -457.442)" fill="#7d97f4"/><g clip-path="url(#i)"><rect width="37.92" height="22.25" transform="translate(-5.061 3.755)" fill="url(#j)"/></g></g><g transform="translate(62.238)"><path d="M728.926,457.442a12.766,12.766,0,1,0,12.766,12.766A12.766,12.766,0,0,0,728.926,457.442Zm0,20.039a7.273,7.273,0,1,1,7.273-7.273A7.273,7.273,0,0,1,728.926,477.481Z" transform="translate(-716.16 -457.442)" fill="#bdd0fb"/><path d="M728.926,457.442a12.766,12.766,0,1,0,12.766,12.766A12.766,12.766,0,0,0,728.926,457.442Zm0,20.039a7.273,7.273,0,1,1,7.273-7.273A7.273,7.273,0,0,1,728.926,477.481Z" transform="translate(-716.16 -457.442)" fill="#7d97f4"/><g clip-path="url(#k)"><rect width="37.92" height="8.024" transform="translate(-5.061 17.982)" fill="url(#l)"/></g></g></g><g transform="translate(289.798 210.377)"><g transform="translate(1.235 3.365)"><path d="M299.419,673.744c12.093-.178,71.911-1.226,84.188-1.441a2.167,2.167,0,0,1,2.2,2.167v5.6a2.167,2.167,0,0,1-2.167,2.167H299.452a2.167,2.167,0,0,1-2.167-2.167v-4.16A2.166,2.166,0,0,1,299.419,673.744Z" transform="translate(-297.285 -672.303)" fill="#7d97f4"/><path d="M402.647,687.281h0a2.181,2.181,0,0,0,2.219,2.18l48.783-.846a2.181,2.181,0,0,0,2.08-2.7l-.222-.905a2.181,2.181,0,0,0-2.2-1.66L404.749,685.1A2.181,2.181,0,0,0,402.647,687.281Z" transform="translate(-385.267 -681.527)" fill="#bdd0fb"/></g><g transform="translate(0)"><path d="M297.518,709.024l-7.5,7.635a.77.77,0,0,0,.054,1.129l.056.047a.716.716,0,0,0,1.012-.091l6.868-8.283Z" transform="translate(-289.798 -699.601)" fill="#fff"/><g transform="translate(5.995 0.552)" opacity="0.38"><path d="M335.569,658a4.966,4.966,0,1,1-6.58-2.261A4.921,4.921,0,0,1,335.569,658Z" transform="translate(-326.139 -655.246)" fill="#91b3fa"/></g><path d="M325.928,652.451a5.426,5.426,0,1,0,7.322,2.516A5.475,5.475,0,0,0,325.928,652.451Zm4.33,9.072a4.629,4.629,0,1,1,2.26-6.206A4.671,4.671,0,0,1,330.258,661.523Z" transform="translate(-317.32 -651.902)" fill="#fff"/></g></g><g transform="translate(365.431 123.155)"><g transform="translate(0)"><circle cx="63.417" cy="63.417" r="63.417" transform="translate(0 89.686) rotate(-45)" fill="#91b3fa"/><g transform="translate(34.654 34.654)"><circle cx="54.124" cy="54.124" r="54.124" transform="translate(0.907 0.907)" fill="url(#m)"/><path d="M1013.406,443.3a55.032,55.032,0,1,1,38.913-16.118A54.672,54.672,0,0,1,1013.406,443.3Zm0-108.249a53.217,53.217,0,1,0,53.217,53.217A53.277,53.277,0,0,0,1013.406,335.048Z" transform="translate(-958.375 -333.233)" fill="#bdd0fb"/></g><g transform="translate(43.021 43.021)"><circle cx="32.997" cy="32.997" r="32.997" transform="translate(0 46.664) rotate(-45)" fill="url(#n)"/><g transform="translate(12.76 12.76)"><path d="M1120.356,529.119a33.9,33.9,0,1,1,33.9-33.9A33.943,33.943,0,0,1,1120.356,529.119Zm0-65.994a32.09,32.09,0,1,0,32.09,32.089A32.126,32.126,0,0,0,1120.356,463.126Z" transform="translate(-1086.452 -461.311)" fill="#bdd0fb"/></g></g><g transform="translate(74.307 74.307)"><circle cx="12.784" cy="12.784" r="12.784" transform="translate(0 24.884) rotate(-76.717)" fill="url(#o)"/><g transform="translate(1.688 1.688)"><path d="M1222.676,611.226a13.691,13.691,0,1,1,13.691-13.691A13.707,13.707,0,0,1,1222.676,611.226Zm0-25.568a11.877,11.877,0,1,0,11.876,11.877A11.89,11.89,0,0,0,1222.676,585.659Z" transform="translate(-1208.985 -583.844)" fill="#bdd0fb"/></g></g></g><g transform="translate(89.423 3.936)"><rect width="2.417" height="91.531" transform="matrix(-0.707, -0.707, 0.707, -0.707, 14.131, 75.102)" fill="url(#p)"/><path d="M1304.02,566.24c.98-.981,5.6,3.642,4.623,4.623L1291.5,584.342a.681.681,0,0,1-.956-.956Z" transform="translate(-1290.388 -496.972)" fill="url(#q)"/><path d="M1676.351,210.159l8.707.866L1673.1,222.978a18.479,18.479,0,0,1-14.894,5.322h0Z" transform="translate(-1597.535 -199.743)" fill="url(#r)"/><path d="M1665.53,155.721l-.865-8.707-11.953,11.953a18.48,18.48,0,0,0-5.322,14.894h0Z" transform="translate(-1588.424 -147.014)" fill="url(#s)"/></g></g><g transform="translate(527.047 176.921)"><path d="M1728.033,453.785l.437,23.878c.034,2.519,1.683,4.539,3.7,4.539h84.071c2.047,0,3.706-2.067,3.706-4.617v-21.8c0-2.492-1.587-4.534-3.586-4.614l-84.509-2.078C1729.741,449.008,1728,451.147,1728.033,453.785Z" transform="translate(-1728.033 -449.091)" fill="#7d97f4"/><path d="M1753.662,485.485l1.109,21.27a1.912,1.912,0,0,0,1.729,2.021l79.5-1.021a1.954,1.954,0,0,0,1.671-2.119V488.325a1.972,1.972,0,0,0-1.616-2.116l-80.613-2.938A1.941,1.941,0,0,0,1753.662,485.485Z" transform="translate(-1749.433 -477.63)" fill="#bdd0fb"/><path d="M1776.161,506.8v2.148a1.239,1.239,0,0,0,1.106,1.356l73.108-.816a1.25,1.25,0,0,0,1.07-1.355h0a1.254,1.254,0,0,0-1.059-1.355l-73.108-1.333A1.235,1.235,0,0,0,1776.161,506.8Z" transform="translate(-1768.222 -496.148)" fill="url(#a)"/><path d="M1779.792,554.465v1.971a1.232,1.232,0,0,0,1.126,1.355l71.2-1.659a1.256,1.256,0,0,0,1.05-1.355v-.614a1.242,1.242,0,0,0-1.095-1.356l-71.2.3A1.246,1.246,0,0,0,1779.792,554.465Z" transform="translate(-1771.254 -535.698)" fill="url(#a)"/></g><g transform="translate(557.899 218.493)"><path d="M1915.061,704.02l.272,14.842a2.622,2.622,0,0,0,2.3,2.822h52.256a2.634,2.634,0,0,0,2.3-2.87v-13.55a2.658,2.658,0,0,0-2.229-2.868l-52.528-1.292C1916.123,701.05,1915.039,702.38,1915.061,704.02Z" transform="translate(-1915.061 -701.102)" fill="#7d97f4"/><path d="M1930.991,723.723l.689,13.221a1.189,1.189,0,0,0,1.074,1.256l49.418-.635a1.215,1.215,0,0,0,1.038-1.317v-10.76a1.226,1.226,0,0,0-1-1.316l-50.107-1.826A1.206,1.206,0,0,0,1930.991,723.723Z" transform="translate(-1928.362 -718.841)" fill="#bdd0fb"/><path d="M1944.976,736.972v1.335a.77.77,0,0,0,.687.843l45.442-.507a.777.777,0,0,0,.665-.843h0a.779.779,0,0,0-.658-.842l-45.442-.828A.768.768,0,0,0,1944.976,736.972Z" transform="translate(-1940.041 -730.351)" fill="url(#a)"/><path d="M1947.233,766.6v1.225a.766.766,0,0,0,.7.842l44.256-1.031a.781.781,0,0,0,.653-.842v-.382a.772.772,0,0,0-.681-.843l-44.256.188A.775.775,0,0,0,1947.233,766.6Z" transform="translate(-1941.926 -754.934)" fill="url(#a)"/></g><g transform="translate(342.837 244.672)"><path d="M687.121,943.173s-2.047,1-2.424,2.14c-.3.918-2.566,1.036-2.789,2.841a2.071,2.071,0,0,1-1.733,1.821c-2.312.354-5.875,1.555-6.445,5.569-.435,3.064,1.127,4.225,2.766,4.628a2.322,2.322,0,0,1,1.76,2.682c-.234,1.166.115,2.514,2.134,3.579,4.526,2.388,9.045-5.658,9.045-5.658l.926-14.048Z" transform="translate(-663.375 -929.421)" fill="url(#x)"/><path d="M804.717,898.261s-5.824,15.876-15.747,20.837c0,0,3.3,5.389,5.026,5.716,0,0,10.6-13.567,11.681-24.682Z" transform="translate(-759.666 -891.917)" fill="url(#y)"/><path d="M616.471,1472.509l-.293,2.408a1,1,0,0,1-.873.87,15.385,15.385,0,0,1-3.222.05.852.852,0,0,1-.715-1.1,8.768,8.768,0,0,1,1.615-3.146h2.671A.823.823,0,0,1,616.471,1472.509Z" transform="translate(-611.328 -1370.668)" fill="url(#z)"/><path d="M743.228,1306.2l.451,2.652s-1.51,15.291-1.778,21.407a4.794,4.794,0,0,0,.709,2.724l2.625,4.262-6.671-3.937-.133-.814,1.092-1.5-1.43-17.13a5.255,5.255,0,0,1,.6-2.907l1.38-2.592Z" transform="translate(-717.167 -1232.564)" fill="url(#aa)"/><path d="M744.822,1466.109h-2.129a1.282,1.282,0,0,1-1.017-.5c-.664-.862-2.039-2.545-2.7-2.589-.885-.059-.772,3.088-.772,3.088h-.5l-.628-3.91a2.315,2.315,0,0,1,1.215-2.419h0a3.273,3.273,0,0,0,1.3,2.158c1.1.662,4.464,3.032,4.464,3.032a3.035,3.035,0,0,1,.865.023A.563.563,0,0,1,744.822,1466.109Z" transform="translate(-716.314 -1360.808)" fill="url(#ab)"/><path d="M632.987,1308.258s-8.844,16.776-10.25,20.606a36.8,36.8,0,0,0-1.917,7.328c-.03.473-.617.926-2.238.926a1.555,1.555,0,0,1-1.447-.66.945.945,0,0,1-.036-.915c.512-1.035,2.135-4.344,2.736-5.844.718-1.792,2.262-9.911,3.109-12.735s1.8-5.885,5.492-8.706C628.436,1308.258,630.968,1305.778,632.987,1308.258Z" transform="translate(-616.063 -1233.361)" fill="url(#ac)"/><path d="M730.086,1044.807c2.281-9.667-3.5-15.134-3.5-15.134,3.646-3.5,10.29-5.093,10.29-5.093s6.34,4.635,5.588,8.263c-.441,2.126-4.456,12.736-4.456,12.736A8.823,8.823,0,0,1,730.086,1044.807Z" transform="translate(-707.575 -997.399)" fill="url(#ad)"/><path d="M690,1151.986c.929-2.8,5.058-4.786,5.058-4.786a8.822,8.822,0,0,0,7.924.772,15.893,15.893,0,0,1,.258,6.141c-.575,2.958-4.181,21.968-4.181,21.968-5.682,1.151-14.42-1.159-14.42-1.159C688.255,1168.5,689.068,1154.783,690,1151.986Z" transform="translate(-672.543 -1099.792)" fill="url(#ae)"/><path d="M754.31,981.834l-1.855,8.331c-.178.734.491.614,1.233.474,1.215-.229,2.781-.7,3.3-1.646a.9.9,0,0,0,.095-.314l.8-5.777a1.038,1.038,0,0,0-.607-1.091l-1.538-.682A1.038,1.038,0,0,0,754.31,981.834Z" transform="translate(-729.151 -961.041)" fill="url(#af)"/><path d="M694.812,1055.455s-12.945,9.262-1.656,18.994a2.916,2.916,0,0,0,1.277.74,14.04,14.04,0,0,1,2.333,1.584.439.439,0,0,0,.643-.116h0a.6.6,0,0,0,.034-.575l-1.6-3.389a1.236,1.236,0,0,0-1.606-.069h0a.61.61,0,0,1-.925-.209c-.873-1.777-2.521-7.005,4.224-12.912a.731.731,0,0,0,.162-.888C697.223,1057.7,696.139,1055.895,694.812,1055.455Z" transform="translate(-675.798 -1023.181)" fill="url(#ag)"/><g transform="translate(21.005 9.9)"><path d="M757.236,937.1a8.219,8.219,0,0,1,3.69,4.1c1.494,3.174.378,4.64-1.023,4.841a6.558,6.558,0,0,1-5.713-1.88C751.975,942.115,754.381,936,757.236,937.1Z" transform="translate(-750.907 -934.142)" fill="url(#ah)"/><path d="M743.44,928.149s-1.657-4.644,2.46-4.7l.969.677s1.511-2.575-.969-3.8-5.381-.214-6.437,3.127-1.235,5.577.52,7.175,2.479-.214,2.479-.214-.956-1.495-.567-2.295,1.287.165,1.287.165Z" transform="translate(-738.666 -919.82)" fill="url(#ai)"/><path d="M753.245,965.024s-.838-2.392-1.956-1.44.909,2.21,1.7,2.617Z" transform="translate(-748.933 -956.178)" fill="url(#aj)"/></g><g transform="translate(43.892)"><path d="M879.122,869.039c.089.282-.94.712-1.546-.443-.021-.554-.358-2.925-.027-3.377a44.172,44.172,0,0,1,5.178-5.414.813.813,0,0,1,.1,1.129l-1.657,1.727a8.019,8.019,0,0,1,.967,1.913,2.322,2.322,0,0,1-.231,1.709c-.291.524-.688,1.205-1.063,1.738A2.293,2.293,0,0,1,879.122,869.039Z" transform="translate(-877.405 -859.806)" fill="url(#ak)"/><path d="M884.857,887.474l-.162-.029a16.96,16.96,0,0,1,.8-3.105.768.768,0,0,0,.157-.572.449.449,0,0,0-.228-.257l-1.451,1.23-.466,1.254-.155-.057.482-1.295,1.568-1.33.049.025a.638.638,0,0,1,.359.386.9.9,0,0,1-.175.7A17.494,17.494,0,0,0,884.857,887.474Z" transform="translate(-882.371 -879.435)" fill="url(#al)"/></g></g><g transform="translate(542.284 274.823)"><g transform="translate(38.78 48.02)"><path d="M2155.217,1355.226c.482.713,2.4,16.869,2.7,22.836a.706.706,0,0,1-.707.74h0a.707.707,0,0,1-.7-.6L2153,1355.74Z" transform="translate(-2136.919 -1351.673)" fill="#7d97f4"/><path d="M2059.335,1355.226c-.482.713-2.4,16.869-2.7,22.836a.706.706,0,0,0,.707.74h0a.707.707,0,0,0,.7-.6l3.506-22.465Z" transform="translate(-2056.447 -1351.673)" fill="#7d97f4"/><path d="M2076.688,1335.981l0,.176a2.4,2.4,0,0,1-2.448,2.33l-16.2.275a2.423,2.423,0,0,1-2.536-2.2l-.008-.161a2.392,2.392,0,0,1,2.442-2.423l16.21-.29A2.413,2.413,0,0,1,2076.688,1335.981Z" transform="translate(-2055.491 -1333.689)" fill="#7d97f4"/></g><g transform="translate(5.265 0)"><g transform="translate(16.165 70.88)"><path d="M1957.337,1487.714a14.517,14.517,0,0,0,4.725-.473,1.092,1.092,0,0,1-1.064.846h-10.19a.5.5,0,0,1-.478-.626C1951.491,1487.556,1953.958,1487.714,1957.337,1487.714Z" transform="translate(-1950.312 -1484.771)" fill="url(#am)"/><path d="M1950.417,1474.956a.485.485,0,0,1,.083-.173,5.876,5.876,0,0,1,4.457-2.517c3.107.044,4.191.381,6.605.019l.57,1.888a1.082,1.082,0,0,1,.017.563,14.522,14.522,0,0,1-4.725.472C1954.046,1475.208,1951.579,1475.049,1950.417,1474.956Z" transform="translate(-1950.4 -1472.265)" fill="url(#an)"/></g><path d="M2001.189,1460.047l.7,2.378a4.112,4.112,0,0,1-2.912.139l-.268-2.06Z" transform="translate(-1974.56 -1391.183)" fill="url(#ao)"/><g transform="translate(0 67.442)"><path d="M1857.825,1457.821a14.587,14.587,0,0,0,3.978,2.593,1.092,1.092,0,0,1-1.358-.01l-7.943-6.382a.494.494,0,0,1,.018-.785C1853.367,1454.036,1855.191,1455.7,1857.825,1457.821Z" transform="translate(-1852.317 -1452.937)" fill="url(#ap)"/><path d="M1853.548,1451.724a.478.478,0,0,1,.173-.082,5.879,5.879,0,0,1,5.043.838c2.395,1.98,3.029,2.92,5.137,4.152l-.733,1.822a1.073,1.073,0,0,1-.338.448,14.59,14.59,0,0,1-3.978-2.593C1856.22,1454.192,1854.4,1452.524,1853.548,1451.724Z" transform="translate(-1853.345 -1451.425)" fill="url(#aq)"/></g><path d="M1993.832,1295.8s-17.245,1.408-20.782,3.073,2.887,25.006,2.887,25.006.963.464,3.106-.2c0,0-2.2-17.225-.562-20.96l18.672-3.054Z" transform="translate(-1952.246 -1254.028)" fill="url(#ar)"/><path d="M1907.488,1457.961c-.16.146-1.713,3.279-1.713,3.279s-1.729-.374-2.082-1.469l1.556-2.828Z" transform="translate(-1895.218 -1388.592)" fill="url(#as)"/><path d="M1952.371,1294.924a8.728,8.728,0,0,1,.539,3.149,4.728,4.728,0,0,1-4.512,4.626l-20.386.93a.978.978,0,0,0-.9.735c-.479,1.853-2.821,7.543-14.267,18.9a.923.923,0,0,1-1.142.125l-1.629-1.029a.375.375,0,0,1-.123-.507l11.87-20.27a4.593,4.593,0,0,1,2.791-2.07l17.375-4.441Z" transform="translate(-1900.399 -1253.298)" fill="url(#at)"/><path d="M2027.376,1102.979a25.652,25.652,0,0,0,4.41,5.732l-4.6,2.568s-1.037-4.088-3.407-5.285Z" transform="translate(-1995.494 -1093.016)" fill="url(#au)"/><path d="M1986.646,1160.526a25.225,25.225,0,0,1-10.757,0s-7.351-9.881-10.195-12.571a20.227,20.227,0,0,1-14.633,8.173l-.563-1.258s8.038-3.706,10.512-9.4,3.469-8.122,5.719-9.607c1.4-.925,2.242-1.557,2.676-1.9a.72.72,0,0,1,.825-.052C1972.62,1135.365,1983.862,1143.064,1986.646,1160.526Z" transform="translate(-1934.303 -1118.756)" fill="url(#av)"/><path d="M2042.555,1190.7a.37.37,0,0,1-.293-.6,21.566,21.566,0,0,0,2.668-4.729.37.37,0,0,1,.691.265,21.976,21.976,0,0,1-2.772,4.914A.37.37,0,0,1,2042.555,1190.7Z" transform="translate(-2010.865 -1161.619)" fill="url(#aw)"/><path d="M1913.214,1251.735l-1.137-.3-3.451-.8a1.6,1.6,0,0,0-1.213.2l-2.967,1.867,8.193-.014Z" transform="translate(-1895.848 -1216.279)" fill="url(#ax)"/><g transform="translate(25.567)"><path d="M2010.153,1067.879a24.2,24.2,0,0,0-2.49,5.478c-.368,1.95-.959,3.169,1.26,3.863a4.87,4.87,0,0,0,5.576-2s2.021-2.8,1.82-4.084S2010.153,1067.879,2010.153,1067.879Z" transform="translate(-2007.305 -1063.706)" fill="url(#ay)"/><path d="M2018.631,1052.584l-.287-.038s1.5-2.271.52-2.834-4.991-1.946-5.687-3.524a2.74,2.74,0,0,1,1.542-3.6.154.154,0,0,1,.185.1l.071.192a.156.156,0,0,0,.289.008h0a.155.155,0,0,1,.282-.006c.214.473.857,1.28,2.784,1.905,2.735.886,4.438,2.265,4.228,4.208a.156.156,0,0,0,.222.158c.224-.1.562-.114.956.316.684.748.148,2.385-1.721,3.544a.155.155,0,0,0-.026.248c.28.239.673.773-.591,1.249a3.18,3.18,0,0,1-2.26.217.156.156,0,0,1-.1-.175l.332-1.7a.156.156,0,0,0-.132-.184Z" transform="translate(-2012.029 -1042.583)" fill="url(#az)"/><path d="M2046.617,1096.874s.936-2.309,1.92-1.5-.909,2.605-1.783,2.581Z" transform="translate(-2040.132 -1086.524)" fill="url(#ba)"/></g></g><g transform="translate(0 20.473)"><g transform="translate(7.47 15.979)"><path d="M1884.011,1265.139h-.04l-17.5-.017a.782.782,0,1,1,0-1.564l17.5.018a.782.782,0,0,1,.038,1.563Z" transform="translate(-1865.685 -1263.558)" fill="url(#bb)"/></g><path d="M1821.873,1167.109c.006.012.012.024.018.036l7.365,15.879a.782.782,0,1,1-1.419.658l-7.365-15.879a.782.782,0,0,1,1.4-.694Z" transform="translate(-1820.399 -1166.691)" fill="url(#bc)"/></g><g transform="translate(2.9 37.138)"><path d="M1923.032,1278.466c.076.317,7.38,27.708,9.232,34.652a1.255,1.255,0,0,1-1.2,1.586h0a1.247,1.247,0,0,1-1.207-.955l-8.107-32.871Z" transform="translate(-1907.929 -1276.693)" fill="#7d97f4"/><path d="M1858.338,1278.466c-.076.317-7.38,27.708-9.232,34.652a1.255,1.255,0,0,0,1.2,1.586h0a1.247,1.247,0,0,0,1.207-.955l8.108-32.871Z" transform="translate(-1847.234 -1276.693)" fill="#7d97f4"/><path d="M1903.446,1273.037h4.549v3.653a.945.945,0,0,1-.939.951h-.624v8.2a.715.715,0,0,1-.711.72h0a.715.715,0,0,1-.711-.72v-8.2h-.317a1.254,1.254,0,0,1-1.247-1.262Z" transform="translate(-1892.647 -1272.159)" fill="#7d97f4"/><path d="M1864.513,1267.717h-25.4a.781.781,0,0,0-.754.591l-.354,1.39a.785.785,0,0,0,.758.985l26.061-.151a.786.786,0,0,0,.75-.98l-.308-1.239A.78.78,0,0,0,1864.513,1267.717Z" transform="translate(-1837.982 -1267.717)" fill="url(#bd)"/></g></g><g transform="translate(381.09 319.188)"><path d="M907.107,1342.26h-60.4c-1.926,0-3.487-.733-3.487-1.637v-27.38c0-.9,1.556-1.635,3.478-1.637l60.88-.077c1.937,0,3.507.737,3.5,1.646l-.483,27.457C910.584,1341.533,909.025,1342.26,907.107,1342.26Z" transform="translate(-843.222 -1311.529)" fill="#7d97f4"/><path d="M921.375,1324.234l-54,.156c-1.952.005-3.526.752-3.517,1.669l.377,23.028c.009.9,1.552,1.637,3.474,1.653l52.473.449c1.96.017,3.575-.718,3.6-1.638l1.156-23.634C924.963,1324.988,923.357,1324.228,921.375,1324.234Z" transform="translate(-860.45 -1322.138)" fill="#bdd0fb"/><path d="M977.891,1334.665v.175c0,.274-.474.5-1.058.5H935.221c-.585,0-1.059-.223-1.059-.5v-.175c0-.275.474-.5,1.059-.5h41.611C977.417,1334.168,977.891,1334.39,977.891,1334.665Z" transform="translate(-919.161 -1330.433)" fill="url(#a)"/><path d="M976.179,1347.858h0c-.03.26-.483.465-1.038.47l-36.39.311c-.592.005-1.078-.219-1.078-.5v-.04c0-.271.464-.493,1.042-.5l36.39-.271C975.719,1347.329,976.212,1347.57,976.179,1347.858Z" transform="translate(-922.093 -1341.427)" fill="url(#a)"/><path d="M930.065,1381.33h-.034l-49.22-.277a3.635,3.635,0,0,1-2.5-.8,1.016,1.016,0,0,1-.309-.746l1.267-16.27c.033-.833,1.25-1.462,2.839-1.462h.055l49.134.449a3.625,3.625,0,0,1,2.482.8,1.017,1.017,0,0,1,.309.743s0,.008,0,.012l-1.181,16.086C932.874,1380.7,931.655,1381.33,930.065,1381.33Zm-47.958-18.9c-1.313,0-2.168.495-2.182.841l-1.267,16.27a.379.379,0,0,0,.128.251,3.04,3.04,0,0,0,2.028.6l49.22.277h.029c1.314,0,2.17-.5,2.183-.842l1.181-16.09a.38.38,0,0,0-.127-.258,3.026,3.026,0,0,0-2.011-.6l-49.134-.449Zm51.65,1.321h0Z" transform="translate(-872.262 -1353.487)" fill="url(#a)"/><path d="M939.127,1381.451h-53.6a.33.33,0,0,1,0-.66h53.6a.33.33,0,1,1,0,.66Z" transform="translate(-878.27 -1369.366)" fill="url(#bh)"/></g></g></svg>