<svg xmlns="http://www.w3.org/2000/svg" width="130.699" height="157.205" viewBox="0 0 130.699 157.205"><g transform="translate(0 0)"><g transform="translate(0 9.871)"><path d="M321.569,76.662a10.481,10.481,0,0,0-10.481-10.481l-95.1.062a13.388,13.388,0,0,0-13.379,13.388V198.787a14.674,14.674,0,0,0,14.674,14.674h79.553L322,213.11Z" transform="translate(-202.607 -66.181)" fill="#e9e1d5"/></g><path d="M236.231,439.572c3.927,0,9.62-5.275,9.62-9.2H354.177s-.418,9.2-10.874,9.2H236.231" transform="translate(-223.478 -282.366)" fill="#361274"/><g transform="translate(25.142)"><g transform="translate(0.634 13.189)" style="mix-blend-mode:multiply;isolation:isolate"><ellipse cx="2.788" cy="2.788" rx="2.788" ry="2.788" transform="translate(0 1.285) rotate(-13.325)" fill="#f7ead7"/><ellipse cx="2.788" cy="2.788" rx="2.788" ry="2.788" transform="translate(27.465 1.285) rotate(-13.325)" fill="#f7ead7"/><ellipse cx="2.788" cy="2.788" rx="2.788" ry="2.788" transform="translate(54.326 1.285) rotate(-13.325)" fill="#f7ead7"/></g><path d="M278.547,59.464a9.649,9.649,0,0,1-8-4.256l1.39-.938a7.978,7.978,0,1,0-1.362-4.459h-1.677a9.654,9.654,0,1,1,9.654,9.654Z" transform="translate(-268.893 -40.157)" fill="#361274"/><g transform="translate(27.186)"><path d="M350.224,59.464a9.648,9.648,0,0,1-8-4.256l1.39-.938a7.978,7.978,0,1,0-1.362-4.459H340.57a9.653,9.653,0,1,1,9.654,9.654Z" transform="translate(-340.57 -40.157)" fill="#361274"/></g><g transform="translate(54.372)"><path d="M421.9,59.464a9.648,9.648,0,0,1-8-4.256l1.39-.938a7.978,7.978,0,1,0-1.362-4.459h-1.677a9.654,9.654,0,1,1,9.654,9.654Z" transform="translate(-412.246 -40.157)" fill="#361274"/></g></g><g transform="translate(12.692 28.269)"><g transform="translate(70.876 78.584)"><rect width="20.099" height="7.509" transform="translate(0 9.939)" fill="#d2bef6"/><path d="M0,0H20.1V7.509H0Z" transform="translate(0.116)" fill="#7b1fa2"/></g><g transform="translate(0.139 0)"><g transform="translate(11.503 17.729)"><g transform="translate(0 2.394)"><path d="M283.686,189.905H266.765V167.742h22.163v16.921Z" transform="translate(-266.765 -167.742)" fill="#ba68c8"/><path d="M311.082,217.472c1.37-1.992.249-5.1.249-5.1l5.1-.013S312.766,218.242,311.082,217.472Z" transform="translate(-294.273 -195.434)" fill="#673ab7"/></g><rect width="10.459" height="4.103" transform="translate(5.327)" fill="#ffe18f"/></g><g transform="translate(0 2.394)"><path d="M253.357,143.162H236.436V121H258.6V137.92Z" transform="translate(-236.436 -120.999)" fill="#7986cb"/><path d="M280.753,170.728c1.37-1.992.249-5.1.249-5.1l5.1-.013S282.437,171.5,280.753,170.728Z" transform="translate(-263.944 -148.69)" fill="#7986cb"/></g><rect width="10.459" height="4.103" transform="translate(5.327)" fill="#ffe18f"/></g><g transform="translate(6.555 3.197)"><g transform="translate(33.119)"><path d="M361.532,173.5h-20.86V152.52l.123.022a3.293,3.293,0,0,0,3.137-.933c4.778-4.98.044-26.77,0-26.989l-.021-.094,4.586-1.411.016.123c.017.127,1.8,12.7,12.685,12.7v.21c-10.486,0-12.66-11.441-12.875-12.759l-4.167,1.282c.385,1.777,4.673,22.141-.07,27.085a3.467,3.467,0,0,1-3.2,1.014V173.3h20.65Z" transform="translate(-340.672 -123.115)" fill="#064260"/><g transform="translate(20.703 3.682)" opacity="0.49"><path d="M395.413,134.394a.157.157,0,0,1-.157-.157v-1.258a.157.157,0,0,1,.314,0v1.258A.157.157,0,0,1,395.413,134.394Z" transform="translate(-395.256 -132.822)" fill="#064260"/><g transform="translate(0 3.889)"><path d="M395.413,188.116a.157.157,0,0,1-.157-.157v-2.631a.157.157,0,0,1,.314,0v2.631A.157.157,0,0,1,395.413,188.116Zm0-5.263a.157.157,0,0,1-.157-.157v-2.631a.157.157,0,0,1,.314,0V182.7A.157.157,0,0,1,395.413,182.854Zm0-5.262a.157.157,0,0,1-.157-.157V174.8a.157.157,0,0,1,.314,0v2.631A.157.157,0,0,1,395.413,177.592Zm0-5.262a.157.157,0,0,1-.157-.157v-2.631a.157.157,0,0,1,.314,0v2.631A.157.157,0,0,1,395.413,172.33Zm0-5.262a.157.157,0,0,1-.157-.157V164.28a.157.157,0,0,1,.314,0v2.631A.157.157,0,0,1,395.413,167.068Zm0-5.262a.157.157,0,0,1-.157-.157v-2.631a.157.157,0,0,1,.314,0v2.631A.157.157,0,0,1,395.413,161.806Zm0-5.262a.157.157,0,0,1-.157-.157v-2.631a.157.157,0,0,1,.314,0v2.631A.157.157,0,0,1,395.413,156.544Zm0-5.262a.157.157,0,0,1-.157-.157v-2.631a.157.157,0,0,1,.314,0v2.631A.157.157,0,0,1,395.413,151.282Zm0-5.262a.157.157,0,0,1-.157-.157v-2.631a.157.157,0,0,1,.314,0v2.631A.157.157,0,0,1,395.413,146.02Z" transform="translate(-395.256 -143.075)" fill="#064260"/></g><g transform="translate(0 51.247)"><path d="M395.413,269.506a.157.157,0,0,1-.157-.157v-1.257a.157.157,0,0,1,.314,0v1.257A.157.157,0,0,1,395.413,269.506Z" transform="translate(-395.256 -267.935)" fill="#064260"/></g></g><g transform="translate(10.896 37.035)"><rect width="0.506" height="13.106" fill="#064260"/></g></g><g transform="translate(0 70.509)"><g transform="translate(4.57)"><path d="M272.035,337.769l.014-.161c0-.022.168-2.278-2.258-5.31-.44-.55-.854-1.022-1.255-1.478a9.755,9.755,0,0,1-3.023-6.287H265.4c0-.4.008-.783.025-1.142-.017-.36-.025-.74-.025-1.142h.112a9.756,9.756,0,0,1,3.023-6.288c.4-.456.815-.928,1.255-1.478,2.432-3.041,2.26-5.288,2.258-5.31l-.014-.161,36.619,5.441v17.875l-.109.016Zm-6.355-14.378a9.678,9.678,0,0,0,3.047,7.262c.4.458.819.932,1.263,1.486,2.152,2.69,2.319,4.754,2.318,5.332l36.091-5.362V314.672l-36.091-5.362c0,.578-.166,2.642-2.318,5.332-.443.554-.86,1.028-1.263,1.486A9.677,9.677,0,0,0,265.681,323.39Z" transform="translate(-265.402 -309.012)" fill="#064260"/></g><g transform="translate(0 13.316)" opacity="0.49"><path d="M307.28,344.375h-.866a.127.127,0,1,1,0-.255h.866a.127.127,0,0,1,0,.255Zm-2.9,0h-2.036a.127.127,0,0,1,0-.255h2.036a.127.127,0,0,1,0,.255Zm-4.072,0H298.27a.127.127,0,0,1,0-.255h2.036a.127.127,0,0,1,0,.255Zm-4.072,0H294.2a.127.127,0,0,1,0-.255h2.036a.127.127,0,1,1,0,.255Zm-4.072,0h-2.036a.127.127,0,1,1,0-.255h2.036a.127.127,0,0,1,0,.255Zm-4.072,0h-2.036a.127.127,0,0,1,0-.255h2.036a.127.127,0,0,1,0,.255Zm-4.072,0h-2.036a.127.127,0,0,1,0-.255h2.036a.127.127,0,0,1,0,.255Zm-4.072,0h-2.036a.127.127,0,0,1,0-.255h2.036a.127.127,0,0,1,0,.255Zm-4.071,0H273.84a.127.127,0,1,1,0-.255h2.036a.127.127,0,0,1,0,.255Zm-4.072,0h-2.036a.127.127,0,1,1,0-.255H271.8a.127.127,0,0,1,0,.255Zm-4.072,0H265.7a.127.127,0,1,1,0-.255h2.036a.127.127,0,0,1,0,.255Zm-4.072,0h-2.036a.127.127,0,0,1,0-.255h2.036a.127.127,0,0,1,0,.255Zm-4.072,0h-2.036a.127.127,0,0,1,0-.255h2.036a.127.127,0,0,1,0,.255Zm-4.072,0h-2.036a.127.127,0,0,1,0-.255h2.036a.127.127,0,0,1,0,.255Z" transform="translate(-253.354 -344.12)" fill="#064260"/></g></g><g transform="translate(20.804 51.665)"><path d="M308.337,259.811a10.341,10.341,0,0,1,4.8,13.9c-.147.3.3.568.453.264a10.867,10.867,0,0,0-4.985-14.613c-.3-.148-.567.3-.264.453Z" transform="translate(-308.203 -259.329)" fill="#064260"/><g transform="translate(3.04 10.105)"><path d="M316.244,286.372a13.866,13.866,0,0,1,1.117,4.9.266.266,0,0,0,.448.185l4.915-4.006c.261-.213-.111-.582-.371-.371l-4.915,4.006.447.185a14.569,14.569,0,0,0-1.188-5.164c-.134-.309-.585-.042-.452.264Z" transform="translate(-316.22 -285.971)" fill="#064260"/></g></g><g transform="translate(29.98 18.835)"><path d="M332.65,173.3H345.2a.262.262,0,0,0,0-.524H332.65a.262.262,0,0,0,0,.524Z" transform="translate(-332.397 -172.774)" fill="#064260"/></g><g transform="translate(40.858 15.479)"><path d="M361.107,164.326a8.827,8.827,0,0,0,2.723,3.434l-.053-.412a15.952,15.952,0,0,1-2.591,2.469c-.266.2,0,.656.264.452a16.517,16.517,0,0,0,2.7-2.551.268.268,0,0,0-.053-.412,8.318,8.318,0,0,1-2.535-3.246c-.136-.308-.588-.042-.452.264Z" transform="translate(-361.075 -163.925)" fill="#064260"/></g></g><g transform="translate(0 1.829)"><circle cx="3.134" cy="3.134" r="3.134" transform="translate(55.779 4.432) rotate(-45)" fill="#673ab7"/><ellipse cx="3.134" cy="3.134" rx="3.134" ry="3.134" transform="translate(0 82.665) rotate(-13.331)" fill="#b492f1"/></g></g></g><g transform="translate(71.294 46.658)"><g transform="translate(9.45 48.517)"><g transform="translate(6.506)"><rect width="3.127" height="61.343" transform="translate(0 0)" fill="#165c80"/><g transform="translate(0)"><path d="M435.77,293.291v-2.2h-3.126v10.292Q434.155,297.316,435.77,293.291Z" transform="translate(-432.644 -291.087)" fill="#064260" style="mix-blend-mode:multiply;isolation:isolate"/><path d="M432.644,437.857v5.675h3.126v-4.676Q434.213,438.34,432.644,437.857Z" transform="translate(-432.644 -382.189)" fill="#064260" style="mix-blend-mode:multiply;isolation:isolate"/></g></g><path d="M431.477,447.656H415.49a4.149,4.149,0,0,1,4.149-4.149h7.689a4.149,4.149,0,0,1,4.149,4.149Z" transform="translate(-415.49 -385.696)" fill="#f67d68"/></g><path d="M418.78,193.194a6.959,6.959,0,0,1-.682-4.91,94.622,94.622,0,0,1,3.632-11.112,5.767,5.767,0,0,0-3.464-6.963l-3.25-1.258c-.775-.3-2.352-1.045-2.352-1.876v-3.9h-9.109v3.9c0,.831-1.61,1.576-2.385,1.876l-3.25,1.258a5.767,5.767,0,0,0-3.464,6.963,94.63,94.63,0,0,1,3.632,11.114,7.107,7.107,0,0,1-.7,4.951,70.228,70.228,0,0,0-6.815,20.311h35.04S425.2,204.767,418.78,193.194Z" transform="translate(-390.574 -163.172)" fill="#064260"/><g transform="translate(0 6.739)" opacity="0.45"><path d="M402.1,192.667a16.928,16.928,0,0,1-.2-3.334,17.613,17.613,0,0,1,2.375-7.632q.205-.383.416-.762l-.77.3a5.767,5.767,0,0,0-3.464,6.963S401.225,190.153,402.1,192.667Z" transform="translate(-396.565 -180.939)" fill="#064260" style="mix-blend-mode:multiply;isolation:isolate"/><path d="M456.5,223.6c-2.848,1.669-6.37,4.278-4.4,7.014,1.079,1.5,3.4,1.969,5.621,2.174q-.523-1.026-1.109-2.085a6.959,6.959,0,0,1-.682-4.91C456.091,225.1,456.285,224.356,456.5,223.6Z" transform="translate(-428.41 -207.418)" fill="#064260" style="mix-blend-mode:multiply;isolation:isolate"/><path d="M400.168,248.074a13,13,0,0,1-2.561-9.225,16.177,16.177,0,0,1,3.541-8.215,21.021,21.021,0,0,1-3.423-5.127c.135.505.259,1,.366,1.471a7.107,7.107,0,0,1-.7,4.951,70.228,70.228,0,0,0-6.815,20.311H404.89A17.3,17.3,0,0,1,400.168,248.074Z" transform="translate(-390.574 -208.603)" fill="#064260" style="mix-blend-mode:multiply;isolation:isolate"/></g><g transform="translate(17.868 0.488)"><g transform="translate(0 3.881)"><path d="M443.3,174.69a6.25,6.25,0,0,1-2.981,3.156l-2.636,3.947.226,16.6,10.038.093,1.394-9.2s-5.019-1.3-3.067-13.105Z" transform="translate(-437.683 -174.69)" fill="#d2bef6"/><path d="M441.07,186.919l-.75-3.908-2.636,3.947Z" transform="translate(-437.683 -179.855)" fill="#d2bef6"/></g><g transform="translate(5.785)"><g transform="translate(0 0.453)"><path d="M453.039,169.848a.119.119,0,0,1-.03,0,.105.105,0,0,1-.071-.13l1.168-3.986a.1.1,0,1,1,.2.059l-1.168,3.986A.1.1,0,0,1,453.039,169.848Z" transform="translate(-452.934 -165.653)" fill="#064260"/></g><ellipse cx="0.558" cy="0.558" rx="0.558" ry="0.558" transform="translate(0.716)" fill="#f67d68"/><g transform="translate(4.901 19.239)"><g transform="translate(0 0.19)"><path d="M470.1,216.158H470.1l-4.145-.262a.1.1,0,0,1-.1-.111.106.106,0,0,1,.111-.1l4.145.262a.1.1,0,0,1-.007.209Z" transform="translate(-465.854 -215.686)" fill="#064260"/></g><path d="M476.268,216.285a.558.558,0,1,0-.667-.421A.557.557,0,0,0,476.268,216.285Z" transform="translate(-471.896 -215.184)" fill="#f67d68"/></g><g transform="translate(2.101 1.534)"><g transform="translate(0 0.453)"><path d="M458.579,173.51a.1.1,0,0,1-.052-.014.106.106,0,0,1-.039-.143l2.065-3.6a.1.1,0,1,1,.182.1l-2.064,3.6A.105.105,0,0,1,458.579,173.51Z" transform="translate(-458.474 -169.697)" fill="#064260"/></g><path d="M463.823,169.19a.558.558,0,1,0-.672.412A.558.558,0,0,0,463.823,169.19Z" transform="translate(-461.112 -168.502)" fill="#ffe18f"/></g></g></g></g></svg>