<svg xmlns="http://www.w3.org/2000/svg" width="240" height="146" viewBox="0 0 240 146"><g transform="translate(-250 -3470)"><g transform="translate(-2)"><g transform="translate(304 3480)" fill="#fff" stroke="#361274" stroke-width="5"><circle cx="68" cy="68" r="68" stroke="none"/><circle cx="68" cy="68" r="65.5" fill="none"/></g><g transform="translate(314.998 3470)"><path d="M410.481,10a96.65,96.65,0,0,1-5.363,25.849L384.632,15.364A96.651,96.651,0,0,1,410.481,10Z" transform="translate(-299.741 -7.794)" fill="#ff5249"/><path d="M226.061,34.3l20.486,20.486c-3.209,9.089-8.332,19.06-16.484,27.213a86.272,86.272,0,0,1-26,17.7L181.152,76.786a87.606,87.606,0,0,1,11.827-19.459,81.944,81.944,0,0,1,5.868-6.542C207,42.633,216.972,37.51,226.061,34.3Z" transform="translate(-141.17 -26.731)" fill="#fff"/><path d="M335.4,114.012a8.828,8.828,0,1,1-12.485,0A8.829,8.829,0,0,1,335.4,114.012Z" transform="translate(-249.629 -86.834)" fill="#7bd8e8"/><g transform="translate(23.345 27.057)"><path d="M297.329,277.384c11.375,17.063-9.918,28.091-21.847,28.091a16.4,16.4,0,0,0,4.418-14.308l-2.328-2.328a87.6,87.6,0,0,0,19.459-11.827Z" transform="translate(-238.026 -242.931)" fill="#ff5249"/><path d="M163.6,242.965l-.358-.358a4.278,4.278,0,0,1-1.2-4.037,76.907,76.907,0,0,1,4.125-11.77l22.909,22.909a76.909,76.909,0,0,1-11.77,4.125,4.278,4.278,0,0,1-4.037-1.2l-.358-.358Z" transform="translate(-149.529 -203.803)" fill="#ff5249"/><path d="M133.863,125.837l.373.3a87.606,87.606,0,0,0-11.828,19.459l-2.328-2.328a16.4,16.4,0,0,0-14.308,4.418C105.772,135.755,116.8,114.462,133.863,125.837Z" transform="translate(-105.772 -122.596)" fill="#ff5249"/></g><path d="M119.844,300.041l9.309,9.309a17.394,17.394,0,0,1-4.655,7.831c-5.171,5.171-18.727,6.241-18.727,6.241s1.07-13.556,6.241-18.727A17.394,17.394,0,0,1,119.844,300.041Z" transform="translate(-82.427 -233.821)" fill="#ffdd78"/><path d="M255.356,244.186a2.207,2.207,0,1,0-3.123,0A2.209,2.209,0,0,0,255.356,244.186Z" transform="translate(-196.06 -187.357)"/><path d="M329.436,120.256a11.035,11.035,0,1,0-15.606,0A11.03,11.03,0,0,0,329.436,120.256Zm-12.485-12.485a6.621,6.621,0,1,1,0,9.364A6.618,6.618,0,0,1,316.951,107.771Z" transform="translate(-242.051 -79.033)"/><path d="M97.381,54.185a2.206,2.206,0,0,0,2.405-.478,14.05,14.05,0,0,1,11.685-3.92l.773.773A77.63,77.63,0,0,0,108.6,61.278a6.247,6.247,0,0,0,.267,3.834,20.9,20.9,0,0,0-5.96,4.2C97.226,75,96.072,88.841,96.026,89.428a2.207,2.207,0,0,0,2.2,2.381q.087,0,.174-.007c.587-.046,14.433-1.2,20.114-6.881a20.9,20.9,0,0,0,4.2-5.959,6.233,6.233,0,0,0,3.836.266,77.639,77.639,0,0,0,10.718-3.645l.773.773a14.051,14.051,0,0,1-3.92,11.685,2.207,2.207,0,0,0,1.561,3.767c8.735,0,20.948-5.2,25.446-13.607,1.953-3.65,3.283-9.424-.958-16.63,1.8-1.52,3.53-3.109,5.164-4.742,7.288-7.288,13.009-16.721,17-28.038a98.044,98.044,0,0,0,5.488-26.505A2.207,2.207,0,0,0,185.54,0a98.045,98.045,0,0,0-26.5,5.488c-11.318,4-20.751,9.717-28.039,17-1.633,1.633-3.222,3.365-4.742,5.164-7.206-4.241-12.98-2.912-16.63-.958-8.4,4.5-13.607,16.711-13.607,25.446A2.209,2.209,0,0,0,97.381,54.185ZM115.392,81.8c-3.035,3.035-10.153,4.635-14.653,5.289.654-4.5,2.254-11.618,5.289-14.653a15.9,15.9,0,0,1,5.65-3.714l7.427,7.427A15.9,15.9,0,0,1,115.392,81.8Zm10.062-6.848a2.071,2.071,0,0,1-1.928-.626L113.5,64.3a2.072,2.072,0,0,1-.627-1.929,71.666,71.666,0,0,1,2.756-8.429L133.882,72.2A71.616,71.616,0,0,1,125.454,74.952Zm31.782,1.167c-2.892,5.4-10.172,9.385-16.807,10.756a18.785,18.785,0,0,0,1.809-12.121,2.305,2.305,0,0,0-.671-1.115,89.269,89.269,0,0,0,15.115-9.273C158.979,68.562,159.168,72.509,157.236,76.119Zm22.052-52.153L163.862,8.539A99.225,99.225,0,0,1,183.227,4.6,99.241,99.241,0,0,1,179.288,23.965Zm-45.169,1.65c6.538-6.539,14.977-11.742,25.088-15.488L177.7,28.62c-3.745,10.111-8.949,18.549-15.488,25.088a80.105,80.105,0,0,1-6.365,5.71,84.794,84.794,0,0,1-17.594,10.907L117.5,49.575a84.781,84.781,0,0,1,10.906-17.594A80.091,80.091,0,0,1,134.119,25.615Zm-22.411,4.976c3.61-1.932,7.557-1.743,11.753.554a89.239,89.239,0,0,0-9.273,15.115,2.327,2.327,0,0,0-1.168-.686A18.864,18.864,0,0,0,100.953,47.4C102.324,40.764,106.306,33.483,111.709,30.591Z" transform="translate(-74.825 0)"/><path d="M198.789,420.132l6.241-6.244a2.207,2.207,0,0,0-3.122-3.121l-6.242,6.244a2.207,2.207,0,0,0,3.122,3.121Z" transform="translate(-151.978 -319.606)"/><path d="M57.359,278.711l6.244-6.241a2.207,2.207,0,1,0-3.121-3.122l-6.244,6.241a2.207,2.207,0,1,0,3.121,3.122Z" transform="translate(-41.763 -209.398)"/><path d="M100.448,424.917,85.5,439.866a2.207,2.207,0,0,0,3.121,3.121l14.95-14.948a2.207,2.207,0,1,0-3.121-3.121Z" transform="translate(-66.123 -330.633)"/><path d="M20.448,424.917,5.5,439.866a2.207,2.207,0,0,0,3.121,3.121l14.95-14.948a2.207,2.207,0,1,0-3.121-3.121Z" transform="translate(-3.78 -330.633)"/><path d="M3.769,358.128l14.948-14.95a2.207,2.207,0,0,0-3.121-3.121L.648,355.007a2.207,2.207,0,1,0,3.121,3.121Z" transform="translate(0 -264.501)"/><path d="M283.639,204.879l3.121-3.121a2.207,2.207,0,0,0-3.121-3.121l-3.121,3.121a2.207,2.207,0,1,0,3.121,3.121Z" transform="translate(-218.102 -154.293)"/></g></g><rect width="240" height="146" transform="translate(250 3470)" fill="none"/></g></svg>