<svg xmlns="http://www.w3.org/2000/svg" width="240" height="146" viewBox="0 0 240 146"><g transform="translate(-884 -3467)"><g transform="translate(-29 -3)"><g transform="translate(965 3480)" fill="#fff"><path d="M 68 133.5 C 59.15645980834961 133.5 50.57875823974609 131.7685394287109 42.50521850585938 128.3537139892578 C 38.62459945678711 126.7123565673828 34.88156127929688 124.6806793212891 31.38007926940918 122.3151016235352 C 27.91119956970215 119.9715805053711 24.64913940429688 117.2801208496094 21.68449974060059 114.3154983520508 C 18.71987915039063 111.3508605957031 16.02841949462891 108.0887985229492 13.68490028381348 104.6199188232422 C 11.31931972503662 101.1184387207031 9.287639617919922 97.37539672851563 7.646279811859131 93.49478149414063 C 4.231460094451904 85.42124176025391 2.5 76.84353637695313 2.5 68 C 2.5 59.15645980834961 4.231460094451904 50.57875823974609 7.646279811859131 42.50521850585938 C 9.287639617919922 38.62459945678711 11.31931972503662 34.88156127929688 13.68490028381348 31.38007926940918 C 16.02841949462891 27.91119956970215 18.71987915039063 24.64913940429688 21.68449974060059 21.68449974060059 C 24.64913940429688 18.71987915039063 27.91119956970215 16.02841949462891 31.38007926940918 13.68490028381348 C 34.88156127929688 11.31931972503662 38.62459945678711 9.287639617919922 42.50521850585938 7.646279811859131 C 50.57875823974609 4.231460094451904 59.15645980834961 2.5 68 2.5 C 76.84353637695313 2.5 85.42124176025391 4.231460094451904 93.49478149414063 7.646279811859131 C 97.37539672851563 9.287639617919922 101.1184387207031 11.31931972503662 104.6199188232422 13.68490028381348 C 108.0887985229492 16.02841949462891 111.3508605957031 18.71987915039063 114.3154983520508 21.68449974060059 C 117.2801208496094 24.64913940429688 119.9715805053711 27.91119956970215 122.3151016235352 31.38007926940918 C 124.6806793212891 34.88156127929688 126.7123565673828 38.62459945678711 128.3537139892578 42.50521850585938 C 131.7685394287109 50.57875823974609 133.5 59.15645980834961 133.5 68 C 133.5 76.84353637695313 131.7685394287109 85.42124176025391 128.3537139892578 93.49478149414063 C 126.7123565673828 97.37539672851563 124.6806793212891 101.1184387207031 122.3151016235352 104.6199188232422 C 119.9715805053711 108.0887985229492 117.2801208496094 111.3508605957031 114.3154983520508 114.3154983520508 C 111.3508605957031 117.2801208496094 108.0887985229492 119.9715805053711 104.6199188232422 122.3151016235352 C 101.1184387207031 124.6806793212891 97.37539672851563 126.7123565673828 93.49478149414063 128.3537139892578 C 85.42124176025391 131.7685394287109 76.84353637695313 133.5 68 133.5 Z" stroke="none"/><path d="M 68 5 C 59.49285125732422 5 51.24282836914063 6.665023803710938 43.47908782958984 9.948806762695313 C 39.74715423583984 11.52728271484375 36.14732360839844 13.48123931884766 32.77958679199219 15.75645446777344 C 29.44254302978516 18.01089477539063 26.30438995361328 20.60015106201172 23.45226287841797 23.45226287841797 C 20.60015106201172 26.30438995361328 18.01089477539063 29.44254302978516 15.75645446777344 32.77958679199219 C 13.48123931884766 36.14732360839844 11.52728271484375 39.74715423583984 9.948806762695313 43.47908782958984 C 6.665023803710938 51.24282836914063 5 59.49285125732422 5 68 C 5 76.50715637207031 6.665023803710938 84.75717163085938 9.948806762695313 92.52091217041016 C 11.52728271484375 96.25282287597656 13.48123931884766 99.85267639160156 15.75645446777344 103.2204132080078 C 18.01089477539063 106.5574340820313 20.60015106201172 109.6956100463867 23.45226287841797 112.5477142333984 C 26.30438995361328 115.3998489379883 29.44254302978516 117.9890899658203 32.77958679199219 120.2435455322266 C 36.14732360839844 122.5187377929688 39.74715423583984 124.4727172851563 43.47908782958984 126.0511932373047 C 51.24282836914063 129.3349761962891 59.49285125732422 131 68 131 C 76.50715637207031 131 84.75717163085938 129.3349761962891 92.52088928222656 126.0511932373047 C 96.25282287597656 124.4727172851563 99.85267639160156 122.5187377929688 103.2204132080078 120.2435455322266 C 106.5574340820313 117.9890899658203 109.6956100463867 115.3998489379883 112.5477142333984 112.5477142333984 C 115.3998489379883 109.6956100463867 117.9890899658203 106.5574340820313 120.2435455322266 103.2204132080078 C 122.5187377929688 99.85267639160156 124.4727172851563 96.25282287597656 126.0511932373047 92.52088928222656 C 129.3349761962891 84.75717163085938 131 76.50715637207031 131 68 C 131 59.49285125732422 129.3349761962891 51.24282836914063 126.0511932373047 43.47908782958984 C 124.4727172851563 39.74715423583984 122.5187377929688 36.14732360839844 120.2435455322266 32.77958679199219 C 117.9890899658203 29.44254302978516 115.3998489379883 26.30438995361328 112.5477142333984 23.45226287841797 C 109.6956100463867 20.60015106201172 106.5574340820313 18.01089477539063 103.2204132080078 15.75645446777344 C 99.85267639160156 13.48123931884766 96.25282287597656 11.52728271484375 92.52091217041016 9.948806762695313 C 84.75717163085938 6.665023803710938 76.50715637207031 5 68 5 M 68 0 C 105.5553436279297 0 136 30.44463348388672 136 68 C 136 105.5553436279297 105.5553436279297 136 68 136 C 30.44463348388672 136 0 105.5553436279297 0 68 C 0 30.44463348388672 30.44463348388672 0 68 0 Z" stroke="none" fill="#361274"/></g><g transform="translate(991 3470)"><g transform="translate(2.148 2.277)"><path d="M85.625,70H14.3A4.429,4.429,0,0,0,10,74.553V163.8a4.429,4.429,0,0,0,4.3,4.553H85.625a4.429,4.429,0,0,0,4.3-4.553V74.553A4.429,4.429,0,0,0,85.625,70Z" transform="translate(-10 -56.34)" fill="#fff"/><path d="M135.547,28.213H90V19.107h12.246a10.638,10.638,0,0,1,21.055,0h12.246Z" transform="translate(-72.813 -10)" fill="#ff765b"/><path d="M74.3,376a4.561,4.561,0,1,1-4.3,4.553A4.429,4.429,0,0,1,74.3,376Z" transform="translate(-57.109 -292.674)" fill="#63d9b8"/></g><path d="M292,208.277A2.152,2.152,0,1,0,294.148,206,2.216,2.216,0,0,0,292,208.277Z" transform="translate(-229.266 -159.101)"/><path d="M6.445,116.565H77.773a6.654,6.654,0,0,0,6.445-6.83V20.49a6.654,6.654,0,0,0-6.445-6.83H67.031V11.383a2.216,2.216,0,0,0-2.148-2.277H54.266A13.009,13.009,0,0,0,42.109,0,13.009,13.009,0,0,0,29.953,9.107H19.336a2.216,2.216,0,0,0-2.148,2.277V13.66H6.445A6.654,6.654,0,0,0,0,20.49v89.245A6.654,6.654,0,0,0,6.445,116.565ZM21.484,13.66h10.1a2.184,2.184,0,0,0,2.106-1.824,8.511,8.511,0,0,1,16.843,0,2.184,2.184,0,0,0,2.106,1.824h10.1v4.553H21.484ZM4.3,20.49a2.218,2.218,0,0,1,2.148-2.277H17.188V20.49a2.216,2.216,0,0,0,2.148,2.277H64.883a2.216,2.216,0,0,0,2.148-2.277V18.213H77.773a2.218,2.218,0,0,1,2.148,2.277v89.245a2.218,2.218,0,0,1-2.148,2.277H6.445A2.218,2.218,0,0,1,4.3,109.735Z"/><path d="M64.926,178.993a2.064,2.064,0,0,0,3.038,0l8.594-9.107a2.374,2.374,0,0,0,0-3.22,2.065,2.065,0,0,0-3.039,0l-7.074,7.5-2.778-2.943a2.065,2.065,0,0,0-3.039,0,2.374,2.374,0,0,0,0,3.22Z" transform="translate(-47.109 -128.207)"/><path d="M64.926,278.993a2.064,2.064,0,0,0,3.038,0l8.594-9.107a2.374,2.374,0,0,0,0-3.22,2.065,2.065,0,0,0-3.039,0l-7.074,7.5-2.778-2.943a2.065,2.065,0,0,0-3.039,0,2.374,2.374,0,0,0,0,3.22Z" transform="translate(-47.109 -205.441)"/><path d="M66.445,366a6.841,6.841,0,1,0,6.445,6.83A6.654,6.654,0,0,0,66.445,366Zm0,9.107a2.28,2.28,0,1,1,2.148-2.277A2.218,2.218,0,0,1,66.445,375.107Z" transform="translate(-47.109 -282.674)"/><path d="M188.148,170.553h27.07a2.28,2.28,0,0,0,0-4.553h-27.07a2.28,2.28,0,0,0,0,4.553Z" transform="translate(-146.039 -128.207)"/><path d="M188.148,210.553h14.18a2.28,2.28,0,0,0,0-4.553h-14.18a2.28,2.28,0,0,0,0,4.553Z" transform="translate(-146.039 -159.101)"/><path d="M188.148,270.553h27.07a2.28,2.28,0,0,0,0-4.553h-27.07a2.28,2.28,0,0,0,0,4.553Z" transform="translate(-146.039 -205.441)"/><path d="M188.148,310.553h18.477a2.28,2.28,0,0,0,0-4.553H188.148a2.28,2.28,0,0,0,0,4.553Z" transform="translate(-146.039 -236.334)"/><path d="M188.148,370.553h27.07a2.28,2.28,0,0,0,0-4.553h-27.07a2.28,2.28,0,0,0,0,4.553Z" transform="translate(-146.039 -282.674)"/><path d="M188.148,410.553h18.477a2.28,2.28,0,0,0,0-4.553H188.148a2.28,2.28,0,0,0,0,4.553Z" transform="translate(-146.039 -313.568)"/></g></g><rect width="240" height="146" transform="translate(884 3467)" fill="none"/></g></svg>