<svg xmlns="http://www.w3.org/2000/svg" width="195" height="454.313" viewBox="0 0 195 454.313"><g transform="translate(-233 -2199)"><g transform="translate(233 2199)"><ellipse cx="58.581" cy="20.015" rx="58.581" ry="20.015" transform="translate(37.028 414.284)" opacity="0.4"/><g transform="translate(0 0)"><g transform="translate(8.691 232.173)"><path d="M166.735,302.229s.563,15.472.563,18.005,13.5,7.878,15.472,8.72,4.5-.281,4.785-1.968-.844-3.1-1.97-5.345-1.126-8.16-1.126-8.16.563,7.034,2.252,5.908,1.126-.563,1.126-7.315-4.785-12.1-5.348-13.5l-.56-1.407S168.705,297.163,166.735,302.229Z" transform="translate(-165.394 -295.823)" fill="#fff"/><path d="M185.05,331.419a4.984,4.984,0,0,1-1.965-.391l-.807-.338c-12.891-5.348-15.48-7.642-15.48-9.615,0-2.479-.558-17.8-.563-17.957a1.361,1.361,0,0,1,.091-.536c2.238-5.752,15-5.919,16.443-5.919a1.339,1.339,0,0,1,1.244.844l.563,1.407a10.12,10.12,0,0,0,.775,1.252c1.632,2.479,4.667,7.1,4.667,12.751,0,1.681.035,2.9.062,3.809.078,2.723.1,3.369-1.654,4.533a2.522,2.522,0,0,1-.9.391c.032.083.067.161.1.231.249.5.5.949.729,1.375.89,1.624,1.657,3.029,1.364,4.793a3.924,3.924,0,0,1-2.088,2.718A5.416,5.416,0,0,1,185.05,331.419Zm-16.124-28.09c.08,2.254.552,15.386.552,17.745.169.284,1.742,2.126,13.826,7.141l.834.346a2.607,2.607,0,0,0,2.2-.145,1.334,1.334,0,0,0,.729-.81c.137-.812-.273-1.608-1.07-3.067-.247-.448-.512-.93-.775-1.458-1.233-2.463-1.268-8.125-1.268-8.76a1.343,1.343,0,0,1,1.287-1.34,1.372,1.372,0,0,1,1.391,1.233,20.31,20.31,0,0,0,.8,4.434c.011-.19-.011-.962-.037-1.844-.027-.925-.062-2.174-.062-3.887,0-4.855-2.748-9.034-4.225-11.277a11.354,11.354,0,0,1-1.027-1.732l-.22-.552C177.188,299.491,170.318,300.617,168.927,303.329Z" transform="translate(-166.235 -296.663)" fill="#343f7d"/></g><g transform="translate(121.162 220.638)"><path d="M216.918,292.86s-4.219,2.252-5.626,3.94-1.126,4.219-2.252,8.72.844,5.626.844,5.626.563,5.345.563,7.315,1.689,2.815,2.533,1.97a21.247,21.247,0,0,1,3.375-2.815c1.97-1.4,6.471-1.686,9-7.876s2.812-15.475,2.812-15.475Z" transform="translate(-207.354 -291.519)" fill="#fff"/><path d="M213.028,322.94a2.649,2.649,0,0,1-1.027-.212,3.6,3.6,0,0,1-2.056-3.426c0-1.525-.365-5.283-.5-6.659-.767-.82-1.834-2.734-.866-6.607.407-1.63.625-2.984.815-4.182.33-2.086.592-3.734,1.708-5.072,1.531-1.836,5.57-4.021,6.026-4.265a1.323,1.323,0,0,1,.8-.147l11.253,1.407a1.339,1.339,0,0,1,1.174,1.37c-.011.389-.319,9.6-2.911,15.941a13.066,13.066,0,0,1-7.849,7.653,9.988,9.988,0,0,0-1.616.807,20.139,20.139,0,0,0-3.206,2.667A2.443,2.443,0,0,1,213.028,322.94Zm4.991-27.854a22.154,22.154,0,0,0-4.86,3.412c-.643.772-.834,1.968-1.12,3.78-.188,1.185-.424,2.664-.86,4.407-.823,3.294.265,4.174.279,4.184a1.188,1.188,0,0,1,.6.978c.024.222.571,5.439.571,7.455,0,.657.308.935.415.957a16.374,16.374,0,0,1,3.375-2.892,11.547,11.547,0,0,1,2.1-1.083,10.448,10.448,0,0,0,6.436-6.211c1.884-4.605,2.479-11.119,2.651-13.791Z" transform="translate(-208.193 -292.36)" fill="#343f7d"/></g><g transform="translate(129.387 213.324)"><path d="M212.324,290.131l-.563,7.315a6.225,6.225,0,0,0,2.812,2.252c2.252,1.126,8.441-.844,8.441-.844l2.252-6.752S217.95,292.946,212.324,290.131Z" transform="translate(-210.422 -288.791)" fill="#fff"/><path d="M217.433,302.218a6.009,6.009,0,0,1-2.619-.482,7.308,7.308,0,0,1-3.412-2.849,1.329,1.329,0,0,1-.137-.7l.56-7.312a1.348,1.348,0,0,1,.676-1.064,1.322,1.322,0,0,1,1.26-.032c5.211,2.6,12.119,1.839,12.191,1.833a1.354,1.354,0,0,1,1.193.488,1.337,1.337,0,0,1,.231,1.268l-2.252,6.752a1.335,1.335,0,0,1-.863.852A25.8,25.8,0,0,1,217.433,302.218Zm-3.458-4.316a6.854,6.854,0,0,0,2.037,1.437c1.094.55,4.469-.064,6.787-.732l1.407-4.214a27.632,27.632,0,0,1-9.851-1.453Z" transform="translate(-211.261 -289.631)" fill="#343f7d"/></g><g transform="translate(32.886 195.594)"><path d="M252.567,283.519s1.97,3.659,2.815,20.538,1.123,49.8-4.222,72.865-5.345,28.135-5.345,28.135,4.782,25.6,1.97,46.14-6.752,38.825-6.752,41.918,1.689,9.848,1.689,9.848,5.908,1.967,6.752,5.627-1.689,7.034-6.471,9.846-12.942,3.94-17.726,3.1-4.219-4.785-4.219-7.315,1.126-9.848,1.126-13.223c0,0-2.815,8.16-7.6,12.942s-9.846,9-17.161,7.6-7.315-1.689-3.94-7.034,9.567-13.223,9.567-13.223-2.815-5.345-2.533-7.6a20.169,20.169,0,0,1,1.407-4.782s-12.1-30.105-15.193-46.985-1.4-19.975-1.123-26.446S179.7,395.212,179.7,375.8s-3.94-73.712-3.94-80.746.563-8.72.563-8.72,19.694,7.034,39.107,3.656S252.567,283.519,252.567,283.519Z" transform="translate(-174.421 -282.173)" fill="#343f7d"/><path d="M201.1,524a16.36,16.36,0,0,1-3.091-.3c-4.227-.812-6.291-1.276-7-2.911-.7-1.606.386-3.319,2.179-6.155,2.836-4.493,7.538-10.626,9.117-12.66-.86-1.742-2.544-5.5-2.281-7.61a20.3,20.3,0,0,1,1.289-4.627c-1.657-4.163-12.164-30.915-15.062-46.733-2.447-13.346-1.949-18.18-1.466-22.854.129-1.257.26-2.493.319-3.89.1-2.311-.737-5.83-1.8-10.285-1.734-7.278-4.109-17.244-4.109-29.328s-1.552-38.083-2.683-57.072c-.7-11.727-1.254-20.989-1.254-23.672,0-7.047.568-8.953.633-9.146a1.345,1.345,0,0,1,.684-.78,1.33,1.33,0,0,1,1.037-.056c.2.067,19.6,6.873,38.428,3.6l37.134-6.471a1.311,1.311,0,0,1,1.41.684c.217.4,2.139,4.407,2.973,21.1,1.091,21.825.547,52.523-4.254,73.241-5.195,22.415-5.31,27.787-5.31,27.837.024.005,4.766,25.8,1.957,46.312-1.56,11.387-3.463,22.072-4.852,29.875-1.056,5.921-1.887,10.6-1.887,11.864A52.772,52.772,0,0,0,244.7,502.8c1.785.708,6.1,2.764,6.924,6.334.659,2.863-.035,7.149-7.1,11.3-5.289,3.115-13.786,4.112-18.638,3.26-5.471-.965-5.383-5.5-5.334-7.929l.008-.705c0-1.22.239-3.4.493-5.726a29.917,29.917,0,0,1-4.675,6.39C212.148,519.951,207.505,524,201.1,524Zm21.919-23.5a1.266,1.266,0,0,1,.223.019,1.339,1.339,0,0,1,1.118,1.321c0,1.884-.322,4.8-.63,7.629-.255,2.311-.5,4.5-.5,5.6l-.011.756c-.056,2.906.126,4.71,3.123,5.238,4.393.772,12.2-.217,16.812-2.927,3.126-1.841,6.677-4.79,5.844-8.393-.55-2.388-4.423-4.171-5.87-4.656a1.334,1.334,0,0,1-.874-.946c-.072-.284-1.729-6.951-1.729-10.173,0-1.5.767-5.811,1.93-12.336,1.386-7.779,3.281-18.437,4.833-29.765,2.753-20.077-1.911-45.457-1.96-45.711-.021-.458.04-5.728,5.358-28.685,4.737-20.445,5.27-50.855,4.187-72.5-.6-12-1.783-17.209-2.348-19.091L216.5,292.155c-16.662,2.9-33.25-1.638-38.276-3.217a64.182,64.182,0,0,0-.284,6.959c0,2.6.552,11.829,1.249,23.514,1.134,19.021,2.689,45.073,2.689,57.23,0,11.77,2.335,21.557,4.037,28.7,1.11,4.661,1.989,8.342,1.871,11.025-.062,1.456-.2,2.742-.33,4.048-.464,4.487-.944,9.127,1.434,22.1,3.034,16.55,15,46.424,15.118,46.722a1.348,1.348,0,0,1-.019,1.045,19,19,0,0,0-1.3,4.4c-.155,1.263,1.3,4.742,2.388,6.806a1.335,1.335,0,0,1-.131,1.45c-.062.08-6.187,7.886-9.486,13.111-.852,1.351-2.021,3.2-1.97,3.707.359.4,3.284.96,5.029,1.295,6.766,1.3,11.411-2.678,15.963-7.227,4.511-4.514,7.248-12.352,7.275-12.432A1.345,1.345,0,0,1,223.023,500.5Z" transform="translate(-175.261 -283.017)" fill="#343f7d"/><g transform="translate(36.087 31.341)"><path d="M198.991,474.981a.67.67,0,0,1-.63-.445c-1.051-2.941-1.182-4.026-1.729-8.6-.2-1.678-.456-3.831-.839-6.728-1.37-10.422-6.439-59.527-7.036-66.992-.284-3.544,1.316-16.944,3-31.132,1.775-14.856,3.605-30.22,3.745-37.581.284-14.665,9.875-28.374,9.972-28.51a.671.671,0,0,1,1.094.777c-.094.131-9.452,13.513-9.725,27.76-.142,7.428-1.978,22.825-3.753,37.713-1.683,14.121-3.273,27.454-3,30.869.6,7.455,5.661,56.511,7.031,66.925.383,2.9.641,5.058.842,6.739.533,4.455.659,5.514,1.659,8.312a.674.674,0,0,1-.633.9Z" transform="translate(-188.724 -294.709)" fill="#080033"/></g><g transform="translate(54.969 19.012)"><path d="M196.439,295.622a.67.67,0,0,1-.375-1.225c.477-.322,11.727-7.792,19.611-2.244a.669.669,0,1,1-.772,1.094c-7.12-5.01-17.981,2.187-18.091,2.26A.656.656,0,0,1,196.439,295.622Z" transform="translate(-195.768 -290.109)" fill="#080033"/></g></g><g transform="translate(50.331 30.447)"><path d="M187.053,222.477s-4.785-1.968-4.785,1.407.844,9,2.815,10.69,4.782.563,4.782.563Z" transform="translate(-180.93 -220.568)" fill="#fff"/><path d="M188.623,237.682a5.375,5.375,0,0,1-3.573-1.249c-2.694-2.308-3.281-9.235-3.281-11.709a3.091,3.091,0,0,1,1.319-2.742c1.839-1.23,4.747-.137,5.313.1a1.342,1.342,0,0,1,.8.949l2.815,12.66a1.343,1.343,0,0,1-.812,1.536A7.656,7.656,0,0,1,188.623,237.682Zm-3.426-13.6a1.156,1.156,0,0,0-.619.126c-.118.078-.129.386-.129.515,0,3.624.962,8.489,2.345,9.674a3.03,3.03,0,0,0,2.313.582l-2.364-10.642A5.968,5.968,0,0,0,185.2,224.084Z" transform="translate(-181.769 -221.408)" fill="#343f7d"/></g><g transform="translate(90.844 28.103)"><path d="M197.382,221.7s5.908-2.53,5.626,2.252-.563,10.971-2.53,12.1l-1.97,1.126Z" transform="translate(-196.043 -219.697)" fill="#fff"/><path d="M199.347,239.35a1.333,1.333,0,0,1-1.338-1.244l-1.123-15.475a1.334,1.334,0,0,1,.81-1.327c.389-.169,3.881-1.592,6.026-.088a3.842,3.842,0,0,1,1.464,3.648l-.035.584c-.391,6.739-.823,11.258-3.168,12.6l-1.97,1.126A1.342,1.342,0,0,1,199.347,239.35Zm.287-15.89.9,12.331.123-.07c1.257-.718,1.641-7.278,1.823-10.427l.035-.584c.027-.469-.008-1.075-.33-1.3A3.7,3.7,0,0,0,199.634,223.46Z" transform="translate(-196.883 -220.533)" fill="#343f7d"/></g><g transform="translate(0 69.876)"><path d="M224.8,237.147s-26.165,10.972-32.354,13.223-15.475,3.375-16.038,7.6-5.064,48.389-5.908,52.89-4.782,34.887-5.064,52.048-3.093,25.883-1.407,28.979,8.723,4.5,10.13,4.5,10.409-2.533,11.534-4.782,3.093-7.6,3.093-16.319-.281-18.005.281-22.224,1.97-30.105,3.1-39.107,2.812-17.442,2.812-17.442,1.97,48.671,1.407,58.516-1.126,11.819.563,14.63,5.064,3.1,9.285,3.938,32.915,3.377,45.015.281,20.254-4.219,22.787-8.438,3.656-25.321,3.656-28.135v-8.16s10.974,29.824,12.1,36.858-1.686,12.66,2.252,15.754,13.223,5.345,16.317-.281,5.066-11.816,2.252-20.538-9-28.132-12.379-44.73-6.189-34.324-6.189-39.951,1.407-14.349-1.126-17.445-20.817-10.69-29.821-14.065-12.1-4.222-12.1-4.222S243.928,234.9,224.8,237.147Z" transform="translate(-162.154 -235.279)" fill="#fff"/><path d="M174.995,398.564c-1.437,0-9.243-1.418-11.307-5.2-1.091-2-.718-5.3-.1-10.76a185.507,185.507,0,0,0,1.348-18.877c.279-16.893,4.16-47.333,5.088-52.273.531-2.841,2.608-22.324,4.123-36.552.877-8.237,1.571-14.746,1.775-16.271.531-3.981,5.937-5.487,11.663-7.082,1.8-.5,3.654-1.019,5.243-1.6,6.09-2.214,32.033-13.089,32.293-13.2a1.417,1.417,0,0,1,.362-.1c17.271-2.032,23.613,2.281,25.031,3.509,1,.3,4.42,1.362,11.891,4.166.265.1,26.851,10.151,30.387,14.472,2.22,2.713,1.911,8.259,1.611,13.623-.091,1.659-.182,3.262-.182,4.667,0,5.35,2.651,22.415,6.163,39.686,3.485,17.137,10.151,37.8,12.341,44.588,3.1,9.618.552,16.314-2.351,21.595a7.884,7.884,0,0,1-5.562,3.914c-4.474.911-9.907-.986-12.759-3.227-3-2.354-2.8-5.857-2.595-9.567a32.227,32.227,0,0,0-.15-7.026c-.753-4.7-6.128-20.16-9.436-29.416v.507c0,1.815-.976,24.039-3.847,28.824-2.348,3.914-8.28,5.337-17.257,7.492-1.973.469-4.093.978-6.348,1.557-12.422,3.176-41.5.555-45.612-.265l-1.523-.292c-3.68-.694-6.86-1.292-8.647-4.273-1.59-2.648-1.453-4.667-1.051-10.666.091-1.34.2-2.9.3-4.728.37-6.487-.381-30.322-.922-45.459-.22,1.5-.434,3.053-.63,4.627-.643,5.155-1.4,16.134-2.005,24.959-.456,6.616-.847,12.328-1.091,14.159-.407,3.045-.356,9-.306,15.314.016,2.217.035,4.5.035,6.734,0,9.428-2.262,14.974-3.235,16.917C186.215,396.065,176.493,398.564,174.995,398.564Zm50.984-159.27c-2.485,1.043-26.286,11.009-32.239,13.175-1.686.614-3.595,1.145-5.442,1.659-4.418,1.23-9.427,2.627-9.725,4.852-.2,1.5-.925,8.312-1.766,16.2-1.6,15.067-3.6,33.818-4.152,36.758-.919,4.9-4.766,35.072-5.042,51.823a188.229,188.229,0,0,1-1.364,19.134c-.517,4.6-.89,7.924-.206,9.181,1.295,2.375,7.527,3.8,8.953,3.8,1.461-.021,9.61-2.592,10.336-4.042.887-1.774,2.951-6.862,2.951-15.719,0-2.233-.019-4.5-.035-6.712-.054-6.406-.1-12.459.33-15.692.233-1.742.622-7.414,1.072-13.987.611-8.854,1.367-19.879,2.021-25.109,1.118-8.948,2.812-17.45,2.828-17.536a1.341,1.341,0,0,1,2.654.206c.08,1.992,1.965,48.85,1.4,58.648-.1,1.844-.209,3.412-.3,4.761-.4,5.924-.442,7.243.676,9.106,1.169,1.946,3.549,2.4,6.843,3.016l1.555.3c3.868.775,32.612,3.311,44.419.295,2.27-.582,4.4-1.091,6.385-1.568,8.023-1.925,13.816-3.313,15.585-6.262,2.217-3.694,3.466-24.05,3.466-27.446v-8.157a1.34,1.34,0,0,1,2.6-.464c.45,1.222,11.03,30.025,12.164,37.107a34.2,34.2,0,0,1,.18,7.6c-.206,3.715-.236,5.886,1.576,7.31,2.412,1.9,7.026,3.436,10.567,2.707a5.214,5.214,0,0,0,3.75-2.579c2.758-5.021,4.93-10.856,2.147-19.482-3.82-11.843-9.267-29.384-12.416-44.875-3.544-17.424-6.216-34.713-6.216-40.219,0-1.45.091-3.1.188-4.814.244-4.4.549-9.872-1.011-11.778-2.072-2.533-18.322-9.562-29.253-13.66-8.8-3.3-11.953-4.174-11.982-4.182a1.366,1.366,0,0,1-.643-.4C248.8,242.223,243.778,237.243,225.979,239.293Z" transform="translate(-162.993 -236.117)" fill="#343f7d"/><g transform="translate(97.941 52.011)"><path d="M217.125,298.717c-.04,0-.083,0-.123-.005a1.342,1.342,0,0,1-1.214-1.456l3-33.282c-5.042,10.261-14.472,29.288-16.8,32.786a1.34,1.34,0,1,1-2.23-1.485c3.059-4.586,19.651-38.656,19.817-39a1.341,1.341,0,0,1,2.541.7L218.457,297.5A1.34,1.34,0,0,1,217.125,298.717Z" transform="translate(-199.53 -255.52)" fill="#343f7d"/></g></g><g transform="translate(56.52 71.53)"><path d="M196.677,247.361l4.782,9.567-16.882,85.807,4.785,22.79,13.5-23.916s2.812-39.388,2.812-59.924-.281-25.039-.281-25.039l6.471-11.816-6.752-7.6Z" transform="translate(-183.239 -235.894)" fill="#ffd54f"/><path d="M190.2,367.706a1.339,1.339,0,0,1-1.311-1.067l-4.785-22.79a1.373,1.373,0,0,1,0-.533L200.9,257.956l-4.578-9.154a1.342,1.342,0,0,1,.169-1.458l8.438-10.127a1.34,1.34,0,0,1,2.032-.032l6.752,7.594a1.347,1.347,0,0,1,.174,1.536L207.595,257.8c.064,1.458.263,7.339.263,24.725,0,20.351-2.788,59.629-2.817,60.02a1.346,1.346,0,0,1-.169.566l-13.5,23.916A1.342,1.342,0,0,1,190.2,367.706Zm-3.415-24.138,4,19.04,11.607-20.554c.257-3.694,2.788-40.216,2.788-59.53,0-20.19-.276-24.91-.279-24.956a1.324,1.324,0,0,1,.164-.726l6.015-10.988-5.09-5.726-6.881,8.259,4.391,8.781a1.337,1.337,0,0,1,.118.858Z" transform="translate(-184.078 -236.734)" fill="#ffd54f"/></g><g transform="translate(58.207 62.416)"><path d="M190.833,235.073l-5.627,8.722,6.189,20.817,10.693-16.879,13.22,16.317,4.5-16.879s-2.252-10.69-3.1-11.534-4.5-1.126-7.6-1.689S190.833,235.073,190.833,235.073Z" transform="translate(-183.867 -232.497)" fill="#fff"/><path d="M192.237,266.79a1.462,1.462,0,0,1-.185-.011,1.34,1.34,0,0,1-1.1-.946l-6.189-20.82a1.333,1.333,0,0,1,.158-1.107l5.626-8.723a1.33,1.33,0,0,1,.978-.606c1.573-.174,15.477-1.691,18.675-1.112.823.15,1.691.279,2.53.4,3.093.464,4.889.769,5.774,1.654.279.279,1.123,1.129,3.458,12.207a1.355,1.355,0,0,1-.016.622l-4.5,16.879a1.339,1.339,0,0,1-2.335.5l-12.049-14.866-9.693,15.3A1.335,1.335,0,0,1,192.237,266.79Zm-4.729-21.951,5.174,17.4,9.114-14.392a1.342,1.342,0,0,1,2.174-.126L215.536,262l3.739-14.025c-.976-4.592-2.286-9.891-2.761-10.669a29.174,29.174,0,0,0-4.179-.783c-.869-.129-1.761-.263-2.614-.418-2.059-.373-11.215.413-17.268,1.07Z" transform="translate(-184.707 -233.334)" fill="#343f7d"/></g><g transform="translate(60.177 45.929)"><path d="M185.942,228.809s2.812,16.6,3.375,19.691,11.537,12.944,14.068,11.537,10.409-11.253,10.409-11.253l.563-21.1s-6.752,12.942-14.628,10.127A40.4,40.4,0,0,1,185.942,228.809Z" transform="translate(-184.601 -226.344)" fill="#fff"/><path d="M203.63,262.351a5.9,5.9,0,0,1-2.453-.67c-4.278-2.024-11.773-8.991-12.339-12.1s-3.377-19.71-3.377-19.71a1.34,1.34,0,0,1,2.289-1.15,39.431,39.431,0,0,0,13.269,8.669c6.693,2.38,12.928-9.368,12.99-9.489a1.341,1.341,0,0,1,2.528.657l-.56,21.1a1.344,1.344,0,0,1-.295.8c-.823,1.029-8.122,10.095-10.805,11.588A2.51,2.51,0,0,1,203.63,262.351Zm-14.877-29.105c.866,5.093,2.335,13.714,2.723,15.855.458,2.514,10.149,10.848,12.183,10.569,1.541-.869,6.621-6.779,9.647-10.535l.424-15.869c-2.9,3.844-7.894,8.688-13.612,6.645A39.319,39.319,0,0,1,188.753,233.246Z" transform="translate(-185.442 -227.183)" fill="#343f7d"/></g><g transform="translate(53.559)"><g transform="translate(0.002)"><path d="M183.9,230.03s.844,19.694,4.219,27.291,14.349,17.724,18.287,17.724,8.723-3.1,10.693-6.471,4.782-12.379,5.345-15.756-.563-23.069-.844-28.7-8.441-12.66-18.005-13.5-18.005,6.471-19.413,10.409S183.9,230.03,183.9,230.03Z" transform="translate(-182.133 -209.208)" fill="#fff"/><path d="M207.247,277.226c-4.742,0-16.049-10.733-19.512-18.52-3.343-7.522-4.249-25.891-4.329-27.666-.172-.844-1.059-5.672.354-9.623,1.6-4.487,10.685-12.207,20.793-11.293,10.457.922,18.922,8.7,19.225,14.773l.129,2.463c.633,12.148,1.158,23.771.7,26.519-.6,3.565-3.482,12.738-5.511,16.212C216.8,274.025,211.488,277.226,207.247,277.226Zm-4.375-64.494c-8.564,0-15.528,6.624-16.59,9.586-1.26,3.536-.244,8.216-.233,8.261a1.394,1.394,0,0,1,.029.233c.008.2.874,19.53,4.107,26.8,3.308,7.447,13.99,16.93,17.062,16.93,3.276,0,7.731-2.713,9.532-5.806,1.866-3.193,4.632-12,5.184-15.3.472-2.841-.373-19.027-.734-25.94l-.129-2.469c-.244-4.892-7.784-11.441-16.783-12.237C203.832,212.751,203.349,212.732,202.872,212.732Z" transform="translate(-182.974 -210.049)" fill="#343f7d"/></g><path d="M221.6,224.122c-.281-5.626-8.441-12.66-18.005-13.5s-18.005,6.471-19.413,10.409-.281,9-.281,9,.231,5.321.922,11.492l.2.043s2.142.9,2.142-2.19v-7.487c0-3.085,4.4-2.646,4.4-7.489s-3.083-5.286,3.085-6.168,17.18-2.2,20.262,1.322-.879,5.286,1.322,8.369,4.846,7.05,4.846,7.05v6.168a3.346,3.346,0,0,0,1.319-.043C222.162,234.549,221.755,227.212,221.6,224.122Z" transform="translate(-182.131 -209.208)" fill="#7986cb"/><path d="M186.527,243.866a3.272,3.272,0,0,1-1.177-.222,1.285,1.285,0,0,1-1.019-1.134c-.686-6.144-.928-11.526-.93-11.58h0c-.021,0-1.158-5.265.359-9.513,1.6-4.487,10.685-12.207,20.793-11.293,10.457.922,18.922,8.7,19.225,14.773h0l.129,2.485c.193,3.683.488,9.342.681,14.507a1.338,1.338,0,0,1-1.037,1.354,4.518,4.518,0,0,1-1.906.046,1.34,1.34,0,0,1-1.056-1.311v-5.758c-.681-1.019-2.788-4.147-4.594-6.677a5.187,5.187,0,0,1-.609-4.876c.343-1.273.55-2.04-.633-3.391-1.855-2.12-8.278-2.418-19.064-.877a15.888,15.888,0,0,0-2.659.52c.038.161.091.359.142.533a13.174,13.174,0,0,1,.584,3.788,6.578,6.578,0,0,1-3.091,5.752c-.976.759-1.316,1.08-1.316,1.734v7.489A3.592,3.592,0,0,1,188,243.432,2.626,2.626,0,0,1,186.527,243.866Zm16.346-31.135c-8.564,0-15.528,6.624-16.59,9.586-1.26,3.536-.244,8.216-.233,8.261.027.233.19,3.823.619,8.43v-6.283c0-2.024,1.3-3.037,2.351-3.849,1.147-.893,2.056-1.6,2.056-3.638a10.363,10.363,0,0,0-.485-3.061,3.125,3.125,0,0,1,.059-2.721c.649-.995,1.9-1.319,4.659-1.713,8.24-1.179,18.131-2.043,21.463,1.766a5.535,5.535,0,0,1,1.206,5.849c-.319,1.182-.432,1.745.2,2.624,1.131,1.582,2.378,3.4,3.327,4.79-.1-1.965-.193-3.769-.268-5.254l-.131-2.49c-.244-4.892-7.784-11.441-16.783-12.237C203.833,212.751,203.35,212.732,202.873,212.732Z" transform="translate(-182.973 -210.049)" fill="#343f7d"/></g><g transform="translate(5.317 220.23)"><path d="M165.476,299.039l3.375,10.693a25.934,25.934,0,0,1,6.752-3.659,28.853,28.853,0,0,1,8.441-1.407l-2.252-11.534S171.944,290.319,165.476,299.039Z" transform="translate(-164.136 -291.383)" fill="#fff"/><path d="M169.691,311.9a1.4,1.4,0,0,1-.391-.059,1.353,1.353,0,0,1-.887-.879l-3.375-10.69a1.346,1.346,0,0,1,.2-1.2c6.945-9.366,17.659-6.433,17.761-6.4a1.341,1.341,0,0,1,.949,1.032l2.252,11.532a1.344,1.344,0,0,1-1.316,1.6,27.731,27.731,0,0,0-7.991,1.33,24.945,24.945,0,0,0-6.366,3.442A1.338,1.338,0,0,1,169.691,311.9ZM167.8,300.129l2.614,8.28a27.414,27.414,0,0,1,5.576-2.772,28.424,28.424,0,0,1,7.278-1.421l-1.785-9.143A14.164,14.164,0,0,0,167.8,300.129Z" transform="translate(-164.976 -292.208)" fill="#343f7d"/></g><g transform="translate(122.352 231.61)"><path d="M209.978,306.451a1.272,1.272,0,0,1-.394-.062,1.338,1.338,0,0,1-.887-1.673l2.252-7.315a1.34,1.34,0,0,1,2.563.785l-2.252,7.315A1.34,1.34,0,0,1,209.978,306.451Z" transform="translate(-208.637 -296.453)" fill="#343f7d"/></g><g transform="translate(78.164 407.726)"><path d="M214.336,369.976s-.7-2.825-1.2-5.659l-.2.03s-6.189-2.531-10.693-1.4-4.219,7.034-4.219,7.034l-4.667,3.887c-.314,2.932-.678,5.924-.678,7.366,0,2.531-.563,6.471,4.219,7.315s12.942-.281,17.726-3.1,7.313-6.189,6.471-9.846S214.336,369.976,214.336,369.976Z" transform="translate(-191.313 -361.316)" fill="#878787"/><path d="M201.279,390.993a22.3,22.3,0,0,1-3.782-.292c-5.471-.965-5.383-5.5-5.334-7.929l.008-.705c0-1.252.247-3.509.512-5.9l.174-1.611a1.334,1.334,0,0,1,.474-.887l4.182-3.485c.083-2.56,1.22-6.7,5.238-7.709,4.482-1.112,10.24.968,11.344,1.4a1.433,1.433,0,0,1,1.2,1.048c.34,1.933.783,3.884,1.019,4.884,1.785.7,6.1,2.761,6.924,6.331.662,2.863-.035,7.149-7.1,11.3C212.047,389.849,206.034,390.993,201.279,390.993Zm-5.817-15.609-.115,1.075c-.255,2.316-.5,4.5-.5,5.608l-.011.756c-.056,2.906.126,4.71,3.123,5.238,4.393.772,12.2-.217,16.812-2.927,3.126-1.841,6.677-4.79,5.844-8.393-.55-2.388-4.522-4.208-5.868-4.656a1.333,1.333,0,0,1-.876-.946c-.027-.1-.59-2.362-1.067-4.881-1.445-.523-6.045-2.021-9.406-1.177s-3.214,5.476-3.206,5.672a1.353,1.353,0,0,1-.482,1.091Z" transform="translate(-192.152 -362.154)" fill="#263238"/></g><g transform="translate(78.914 422.348)"><path d="M219.609,371.233l0,0s1.134-4.246-10.476-2.831-13.59,4.53-13.306,5.946-.568,1.984-2.833,3.4a.535.535,0,0,0-.059.051,5.006,5.006,0,0,0,3.174,1.646c4.814.85,13.025-.281,17.839-3.112A15.719,15.719,0,0,0,219.609,371.233Z" transform="translate(-191.592 -366.766)" fill="#263238"/><path d="M200.508,381.9a22.435,22.435,0,0,1-3.8-.292,6.37,6.37,0,0,1-3.978-2.12,1.344,1.344,0,0,1,.233-1.922.774.774,0,0,1,.241-.161c2.249-1.413,2.22-1.547,2.142-1.952a3.236,3.236,0,0,1,.657-2.525c1.729-2.391,6.5-4.123,13.8-5.013,5.889-.724,9.548-.161,11.178,1.718a3.148,3.148,0,0,1,.753,2.788,1.289,1.289,0,0,1-.142.343,16.845,16.845,0,0,1-6.136,5.562C211.346,380.748,205.293,381.9,200.508,381.9Zm-4.377-3.211a6.045,6.045,0,0,0,1.048.281c4.426.775,12.28-.22,16.928-2.951a14.958,14.958,0,0,0,5.018-4.348.777.777,0,0,0-.212-.335c-.383-.386-2.142-1.563-8.779-.761-10.173,1.241-12.2,3.8-12.156,4.361C198.329,376.682,197.509,377.7,196.131,378.687Zm24.318-6.61h0Z" transform="translate(-192.432 -367.609)" fill="#263238"/></g><g transform="translate(48.426 413.08)"><path d="M212.436,364.65s-4.219,4.5-12.379,3.093c-7.554-1.3-6.91-2.6-6.771-2.788-.212.268-6.23,7.945-9.548,13.2-3.375,5.345-3.375,5.626,3.94,7.034s12.379-2.815,17.161-7.6S212.436,364.65,212.436,364.65Z" transform="translate(-180.215 -363.315)" fill="#878787"/><path d="M191.361,387.644a16.365,16.365,0,0,1-3.091-.3c-4.227-.812-6.291-1.276-7-2.911-.7-1.606.386-3.319,2.179-6.155,3.332-5.278,9.369-12.987,9.623-13.312a1.333,1.333,0,0,1,1.863-.241,1.347,1.347,0,0,1,.531.989c.466.279,1.858.893,5.661,1.549,7.286,1.257,11.022-2.536,11.178-2.7a1.342,1.342,0,0,1,2.241,1.359c-.121.343-2.973,8.505-7.916,13.451C202.405,383.6,197.763,387.644,191.361,387.644Zm2.74-19.63c-1.917,2.49-5.919,7.79-8.385,11.69-.852,1.351-2.021,3.2-1.97,3.707.359.4,3.284.96,5.029,1.295,6.766,1.3,11.411-2.678,15.963-7.227a31.792,31.792,0,0,0,5.643-8.548,17,17,0,0,1-9.706.973C197.087,369.283,195.162,368.639,194.1,368.015Zm1.112-1.434,0,0Z" transform="translate(-181.058 -364.152)" fill="#263238"/></g></g></g><path d="M16825,2514.667h98.176v131.25h-34.395" transform="translate(-16496.176 -247.138)" fill="none" stroke="#361274" stroke-width="2"/><path d="M16891.508,2514.667h34.289V2718.8h-80.463" transform="translate(-16498.797 -103.402)" fill="none" stroke="#361274" stroke-width="2"/></g></svg>