<svg xmlns="http://www.w3.org/2000/svg" width="146" height="158.266" viewBox="0 0 146 158.266"><g transform="translate(926 -2262)"><g transform="translate(-1064.928 2217.233)"><rect width="100.496" height="131.601" transform="matrix(0.976, -0.22, 0.22, 0.976, 147.928, 67.871)" fill="#f3f3f3"/><path d="M235.725,124.5l-13.395,3.021-13.395,3.02s-4.953,48.4-5.2,48.91,28.833-6.5,28.833-6.5,29.27-6.147,28.833-6.5S235.725,124.5,235.725,124.5Z" transform="translate(-11.656 -16.444)" fill="#ef798a"/><path d="M226.377,70.074l-7.492,1.689L215.727,96.91,202.084,75.551l-7.492,1.689L192.9,95.119l12.865,20.026,13.395-3.02,13.4-3.02L235.58,85.5Z" transform="translate(-9.392 -5.077)" fill="#ef798a"/><rect width="86.1" height="2.106" transform="matrix(0.976, -0.22, 0.22, 0.976, 180.066, 174.341)" fill="#e5c3d1"/><rect width="86.099" height="2.106" transform="matrix(0.976, -0.22, 0.22, 0.976, 180.997, 178.467)" fill="#e5c3d1"/><rect width="86.099" height="2.106" transform="translate(181.927 182.593) rotate(-12.706)" fill="#e5c3d1"/><rect width="14.748" height="16.651" transform="translate(164.228 95.145) rotate(-12.706)" fill="#e5c3d1"/><rect width="11.362" height="12.828" transform="matrix(0.976, -0.22, 0.22, 0.976, 166.3, 96.637)" fill="#613f75"/><rect width="19.905" height="22.474" transform="translate(232.081 96.06) rotate(-12.706)" fill="#613f75"/><rect width="15.335" height="17.314" transform="matrix(0.976, -0.22, 0.22, 0.976, 234.878, 98.074)" fill="#f7a9a8"/><path d="M180.434,124.618c-.1,3.259-.107,6.683,1.434,9.556s5.15,4.907,8.133,3.593a3.711,3.711,0,0,0,2.335-3.2,2.469,2.469,0,0,0-2.721-2.453,2.88,2.88,0,0,0-1.45.9c-2.058,2.2-1.661,5.773-.364,8.494a16.67,16.67,0,0,0,10.434,8.76,24.428,24.428,0,0,1-2.566-3.216,16.2,16.2,0,0,0,2.549,3.209l-5.187.857" transform="translate(-6.781 -16.468)" fill="none" stroke="#613f75" stroke-linecap="round" stroke-linejoin="round" stroke-width="0.958"/><path d="M243,75.6c3.767-.833,7.788.762,10.562,3.444a22.49,22.49,0,0,1,5.528,10.019c1.083,3.7,1.637,7.538,2.537,11.29" transform="translate(-19.856 -6.184)" fill="none" stroke="#613f75" stroke-linecap="round" stroke-linejoin="round" stroke-width="0.958"/><path d="M263.557,103.583a31.918,31.918,0,0,1,2.418,2.9,14.8,14.8,0,0,1,.916-3.178" transform="translate(-24.149 -12.017)" fill="none" stroke="#613f75" stroke-linecap="round" stroke-linejoin="round" stroke-width="0.958"/><path d="M201.93,76.34,218.393,102.8l4.346-31.156-1.969.444-3.157,25.147L203.971,75.88Z" transform="translate(-11.278 -5.405)" fill="#eb3059"/><path d="M237.015,124.5l-26.79,6.04-.311,3.032,28.682-6.467Z" transform="translate(-12.946 -16.444)" fill="#eb3059"/><path d="M217.47,144.437l-2.855,37.437,2.536-.583Z" transform="translate(-13.928 -20.608)" fill="#ef798a" style="mix-blend-mode:multiply;isolation:isolate"/><path d="M228.462,142.129l.559,36.668,1.73-.4Z" transform="translate(-16.82 -20.125)" fill="#ef798a" style="mix-blend-mode:multiply;isolation:isolate"/><path d="M234.906,140.676l15.23,33.36-1.735.38Z" transform="translate(-18.166 -19.822)" fill="#ef798a" style="mix-blend-mode:multiply;isolation:isolate"/><path d="M243.414,138.758l18.644,32.59-2.541.562Z" transform="translate(-19.942 -19.421)" fill="#ef798a" style="mix-blend-mode:multiply;isolation:isolate"/><path d="M147.928,73.706l28.945,128.378,98.035-22.1L172.136,208.869Z" transform="translate(0 -5.835)" fill="#ebe1ff" style="mix-blend-mode:multiply;isolation:isolate"/></g><rect width="146" height="158" transform="translate(-926 2262)" fill="none"/></g></svg>