<svg xmlns="http://www.w3.org/2000/svg" width="110" height="70" viewBox="0 0 110 70"><g transform="translate(-583.645 -431.534)"><path d="M634.479,433.854q.8,8.359,1.465,16.727.552,8.37.961,16.749c.244,5.585.815,11.175.455,16.764a95.783,95.783,0,0,1-2.222,16.736.227.227,0,0,1-.257.137.2.2,0,0,1-.177-.142,117.445,117.445,0,0,1-1.693-16.749c-.278-5.576.281-11.147.416-16.726q.245-8.364.343-16.734.208-8.373.275-16.75a.21.21,0,0,1,.235-.163.207.207,0,0,1,.2.151Z" fill="#7986cb"/><path d="M690.647,433.854q.806,8.359,1.466,16.727.552,8.37.961,16.749c.244,5.585.815,11.175.455,16.764a95.7,95.7,0,0,1-2.223,16.736.225.225,0,0,1-.256.137.2.2,0,0,1-.178-.142,117.585,117.585,0,0,1-1.692-16.749c-.278-5.576.281-11.147.416-16.726q.244-8.364.343-16.734.208-8.373.274-16.75a.211.211,0,0,1,.235-.163.2.2,0,0,1,.2.151Z" fill="#7986cb"/><path d="M628.85,433.319l.869,16.47.652,16.469c.19,5.486.755,10.979.435,16.468a101.92,101.92,0,0,1-1.957,16.469.222.222,0,0,1-.254.14.2.2,0,0,1-.181-.14,101.911,101.911,0,0,1-1.956-16.469c-.32-5.486.245-10.979.435-16.468l.652-16.469.869-16.47a.207.207,0,0,1,.232-.164.2.2,0,0,1,.2.164Z" fill="#7986cb"/><path d="M685.018,433.319l.869,16.47.652,16.469c.19,5.486.754,10.979.435,16.468a101.926,101.926,0,0,1-1.957,16.469.222.222,0,0,1-.254.14.2.2,0,0,1-.181-.14,101.925,101.925,0,0,1-1.956-16.469c-.321-5.486.245-10.979.435-16.468l.652-16.469.869-16.47a.207.207,0,0,1,.232-.164.2.2,0,0,1,.2.164Z" fill="#7986cb"/><path d="M606.854,433.319l.87,16.47.652,16.469c.189,5.486.755,10.979.436,16.468a102.031,102.031,0,0,1-1.958,16.469.224.224,0,0,1-.261.141.205.205,0,0,1-.174-.141,102.139,102.139,0,0,1-1.957-16.469c-.317-5.486.245-10.979.435-16.468l.652-16.469.87-16.47a.206.206,0,0,1,.226-.159A.2.2,0,0,1,606.854,433.319Z" fill="#7986cb"/><path d="M663.022,433.319l.87,16.47.652,16.469c.189,5.486.754,10.979.435,16.468a101.92,101.92,0,0,1-1.957,16.469.224.224,0,0,1-.262.141.205.205,0,0,1-.173-.141,102.145,102.145,0,0,1-1.957-16.469c-.318-5.486.245-10.979.435-16.468l.652-16.469.87-16.47a.206.206,0,0,1,.226-.159A.2.2,0,0,1,663.022,433.319Z" fill="#7986cb"/><path d="M600.968,433.319l.869,16.47.652,16.469c.189,5.486.754,10.979.435,16.468a102.034,102.034,0,0,1-1.956,16.469.225.225,0,0,1-.262.141.2.2,0,0,1-.173-.141,102.25,102.25,0,0,1-1.958-16.469c-.317-5.486.248-10.979.435-16.468l.652-16.469.87-16.47a.206.206,0,0,1,.226-.159A.2.2,0,0,1,600.968,433.319Z" fill="#7986cb"/><path d="M657.135,433.319l.87,16.47.652,16.469c.189,5.486.754,10.979.435,16.468a101.913,101.913,0,0,1-1.957,16.469.224.224,0,0,1-.261.141.205.205,0,0,1-.174-.141,102.373,102.373,0,0,1-1.957-16.469c-.317-5.486.247-10.979.435-16.468l.652-16.469.87-16.47a.206.206,0,0,1,.226-.159A.2.2,0,0,1,657.135,433.319Z" fill="#7986cb"/><path d="M586.133,433.319l.869,16.47.652,16.469c.19,5.486.755,10.979.435,16.468a101.919,101.919,0,0,1-1.957,16.469.222.222,0,0,1-.254.14.2.2,0,0,1-.181-.14,101.911,101.911,0,0,1-1.956-16.469c-.319-5.486.245-10.979.435-16.468l.652-16.469.87-16.47a.207.207,0,0,1,.232-.164.2.2,0,0,1,.2.164Z" fill="#7986cb"/><path d="M642.3,433.319l.869,16.47.652,16.469c.19,5.486.754,10.979.435,16.468A101.92,101.92,0,0,1,642.3,499.2a.223.223,0,0,1-.255.14.2.2,0,0,1-.18-.14,101.918,101.918,0,0,1-1.956-16.469c-.32-5.486.245-10.979.435-16.468L641,449.789l.87-16.47a.207.207,0,0,1,.232-.164.2.2,0,0,1,.2.164Z" fill="#7986cb"/><path d="M620.542,501.36q.078-8.721-.2-17.432-.172-8.708-.7-17.4c-.322-5.8-1.139-11.57-1.191-17.367a153.846,153.846,0,0,1,.485-17.467.219.219,0,0,1,.25-.154.215.215,0,0,1,.182.126A92.115,92.115,0,0,1,622.792,449c.687,5.811.381,11.657.326,17.483q-.125,8.745-.6,17.471-.59,8.726-1.537,17.423a.211.211,0,0,1-.238.159A.2.2,0,0,1,620.542,501.36Z" fill="#7986cb"/><path d="M676.71,501.36q.078-8.721-.2-17.432-.172-8.708-.7-17.4c-.322-5.8-1.139-11.57-1.191-17.367a153.606,153.606,0,0,1,.485-17.467.236.236,0,0,1,.432-.028A92.03,92.03,0,0,1,678.959,449c.688,5.811.381,11.657.326,17.483q-.123,8.745-.6,17.471-.588,8.726-1.536,17.423a.211.211,0,0,1-.238.159A.2.2,0,0,1,676.71,501.36Z" fill="#7986cb"/><path d="M612.6,501.36q.077-8.721-.2-17.432-.172-8.708-.7-17.4c-.322-5.8-1.139-11.57-1.191-17.367a154.087,154.087,0,0,1,.485-17.467.217.217,0,0,1,.247-.156.215.215,0,0,1,.186.128A91.871,91.871,0,0,1,614.854,449c.688,5.811.38,11.657.326,17.483q-.125,8.745-.6,17.471-.59,8.726-1.537,17.423a.21.21,0,0,1-.235.153A.192.192,0,0,1,612.6,501.36Z" fill="#7986cb"/><path d="M668.774,501.36q.077-8.721-.2-17.432-.172-8.708-.7-17.4c-.322-5.8-1.14-11.57-1.192-17.367a154.316,154.316,0,0,1,.486-17.467.217.217,0,0,1,.247-.156.215.215,0,0,1,.186.128A91.871,91.871,0,0,1,671.023,449c.688,5.811.38,11.657.326,17.483q-.125,8.745-.6,17.471-.588,8.726-1.536,17.423a.21.21,0,0,1-.235.153A.192.192,0,0,1,668.774,501.36Z" fill="#7986cb"/><path d="M593.667,501.36q.077-8.721-.2-17.432-.172-8.708-.7-17.4c-.322-5.8-1.139-11.57-1.191-17.367a153.846,153.846,0,0,1,.485-17.467.21.21,0,0,1,.235-.159.215.215,0,0,1,.2.128,91.888,91.888,0,0,1,3.425,17.332c.694,5.812.383,11.657.328,17.483q-.125,8.746-.6,17.472-.59,8.725-1.537,17.422a.21.21,0,0,1-.238.159.2.2,0,0,1-.2-.174Z" fill="#7986cb"/><path d="M649.835,501.36q.076-8.721-.2-17.432-.172-8.708-.7-17.4c-.322-5.8-1.139-11.57-1.191-17.367a153.606,153.606,0,0,1,.485-17.467.21.21,0,0,1,.235-.159.215.215,0,0,1,.2.128,91.883,91.883,0,0,1,3.425,17.332c.694,5.812.383,11.657.328,17.483q-.124,8.746-.6,17.472-.59,8.725-1.537,17.422a.21.21,0,0,1-.238.159.2.2,0,0,1-.2-.174Z" fill="#7986cb"/></g></svg>