<svg xmlns="http://www.w3.org/2000/svg" width="77.001" height="69.448" viewBox="0 0 77.001 69.448"><g transform="translate(0 0)"><path d="M63.991,22.959,50.817,9.785a.75.75,0,0,0-1.061,0L36.582,22.959a.751.751,0,0,0,0,1.062l4.935,4.934a.751.751,0,0,0,1.062,0l3.468-3.468v22.42h8.479V25.486l3.468,3.468a.751.751,0,0,0,1.062,0l4.935-4.934a.751.751,0,0,0,0-1.062Zm0,0" transform="translate(-30.893 -8.127)" fill="#bdebff"/><path d="M50.286,47.908V9.567a.748.748,0,0,0-.53.22L36.582,22.961a.751.751,0,0,0,0,1.062l4.935,4.934a.751.751,0,0,0,1.062,0l3.468-3.468v22.42Zm0,0" transform="translate(-30.893 -8.128)" fill="#92d8ff"/><path d="M25.765,211.383A18.265,18.265,0,1,0,44.03,229.648,18.265,18.265,0,0,0,25.765,211.383Zm0,0" transform="translate(-6.372 -179.593)" fill="#bdebff"/><path d="M114.336,327.577a2.586,2.586,0,0,1-2.587-2.587V323.5a.447.447,0,0,1,.447-.447h4.279a.447.447,0,0,1,.447.447v1.493A2.586,2.586,0,0,1,114.336,327.577Zm0,0" transform="translate(-94.943 -274.466)" fill="#444346"/><path d="M13.516,229.647A18.269,18.269,0,0,1,28.773,211.63a18.265,18.265,0,1,0,0,36.034,18.269,18.269,0,0,1-15.257-18.017Zm0,0" transform="translate(-6.372 -179.592)" fill="#92d8ff"/><path d="M313.76,216.107h-9a.751.751,0,0,1-.751-.751V198.024a.751.751,0,0,0-.751-.75H296.28a.751.751,0,0,0-.751.75v17.333a.751.751,0,0,1-.751.751h-9a.751.751,0,0,0-.751.75v6.978a.751.751,0,0,0,.751.751h9a.751.751,0,0,1,.751.751v9.837a.751.751,0,0,0,.751.751h6.978a.751.751,0,0,0,.75-.751v-9.838a.751.751,0,0,1,.751-.75h9a.751.751,0,0,0,.751-.751v-6.978a.751.751,0,0,0-.751-.75Zm0,0" transform="translate(-242.161 -167.605)" fill="#ffa5b5"/><path d="M299.773,197.273h-3.489a.751.751,0,0,0-.751.75v17.333a.751.751,0,0,1-.75.751h-9a.75.75,0,0,0-.751.75v6.978a.751.751,0,0,0,.751.751h9a.75.75,0,0,1,.75.75v9.838a.751.751,0,0,0,.751.751h3.489Zm0,0" transform="translate(-242.165 -167.605)" fill="#ff8da3"/><path d="M279.867,44.03A18.265,18.265,0,1,0,261.6,25.765,18.265,18.265,0,0,0,279.867,44.03Zm0,0" transform="translate(-222.259 -6.372)" fill="#ffa5b5"/><path d="M267.618,25.764A18.269,18.269,0,0,1,282.875,7.747a18.265,18.265,0,1,0,0,36.033,18.268,18.268,0,0,1-15.257-18.016Zm0,0" transform="translate(-222.259 -6.371)" fill="#ff8da3"/><path d="M182.3,340.092h-1.708a1.128,1.128,0,1,1,0-2.256H182.3a1.128,1.128,0,0,1,0,2.256Zm0,0" transform="translate(-152.471 -287.028)" fill="#f46262"/><path d="M54.918,340.092H53.21a1.128,1.128,0,1,1,0-2.256h1.708a1.128,1.128,0,0,1,0,2.256Zm0,0" transform="translate(-44.249 -287.028)" fill="#f46262"/><path d="M110.1,315.551h-4.279a1.577,1.577,0,0,0-1.575,1.575v1.493a3.715,3.715,0,1,0,7.429,0v-1.493a1.577,1.577,0,0,0-1.575-1.575Zm-.681,3.068a1.459,1.459,0,1,1-2.917,0v-.812h2.917Zm0,0" transform="translate(-88.572 -268.095)"/><path d="M186.269,305.016a1.127,1.127,0,0,0-1.128,1.128v1.708a1.128,1.128,0,0,0,2.256,0v-1.708A1.128,1.128,0,0,0,186.269,305.016Zm0,0" transform="translate(-157.297 -259.144)"/><path d="M58.89,305.016a1.127,1.127,0,0,0-1.128,1.128v1.708a1.128,1.128,0,0,0,2.256,0v-1.708A1.128,1.128,0,0,0,58.89,305.016Zm0,0" transform="translate(-49.075 -259.144)"/><path d="M24.761,33.174V21.838L26.3,23.382a1.882,1.882,0,0,0,2.657,0L33.9,18.447a1.88,1.88,0,0,0,0-2.657l-5.1-5.1A1.128,1.128,0,0,0,27.2,12.288l4.831,4.831-4.4,4.4-3.2-3.2a1.128,1.128,0,0,0-1.926.8V32.668a19.427,19.427,0,0,0-6.224,0V19.115a1.128,1.128,0,0,0-1.926-.8l-3.2,3.2-4.4-4.4,12.64-12.64L24.224,9.31a1.128,1.128,0,1,0,1.595-1.595l-5.1-5.1a1.878,1.878,0,0,0-2.657,0L4.892,15.79a1.879,1.879,0,0,0,0,2.657l4.935,4.934a1.881,1.881,0,0,0,2.657,0l1.543-1.544V33.174a19.393,19.393,0,1,0,10.735,0ZM19.393,68.947A17.137,17.137,0,1,1,36.53,51.81,17.156,17.156,0,0,1,19.393,68.947Zm0,0" transform="translate(0 -1.755)"/><path d="M287.486,47.374h-8.623V38.03a19.428,19.428,0,0,0,14.025-18.637A19.191,19.191,0,0,0,288.7,7.351a1.128,1.128,0,0,0-1.767,1.4,16.958,16.958,0,0,1,3.7,10.64A17.137,17.137,0,1,1,273.495,2.256a16.975,16.975,0,0,1,10.459,3.561,1.128,1.128,0,1,0,1.378-1.786A19.212,19.212,0,0,0,273.495,0a19.394,19.394,0,0,0-5.368,38.029v9.344H259.5a1.881,1.881,0,0,0-1.879,1.878v6.978a1.881,1.881,0,0,0,1.879,1.879h8.623v9.46a1.881,1.881,0,0,0,1.879,1.879h6.978a1.881,1.881,0,0,0,1.878-1.879v-9.46h8.623a1.881,1.881,0,0,0,1.878-1.879V49.252a1.88,1.88,0,0,0-1.878-1.878Zm-.378,8.479h-8.623a1.88,1.88,0,0,0-1.879,1.878v9.461h-6.224V57.732a1.881,1.881,0,0,0-1.879-1.878h-8.623V49.63H268.5a1.881,1.881,0,0,0,1.879-1.879V38.535a19.427,19.427,0,0,0,6.224,0v9.216a1.881,1.881,0,0,0,1.878,1.879h8.623Zm0,0" transform="translate(-215.887 0)"/><path d="M363.983,132.627a1.779,1.779,0,0,1-3.085,0,1.128,1.128,0,1,0-1.956,1.124,4.034,4.034,0,0,0,7,0,1.128,1.128,0,0,0-1.956-1.124Zm0,0" transform="translate(-304.832 -112.2)"/><path d="M440.366,101.133a1.128,1.128,0,0,0-1.128,1.128v1.708a1.128,1.128,0,0,0,2.256,0v-1.708A1.128,1.128,0,0,0,440.366,101.133Zm0,0" transform="translate(-373.18 -85.923)"/><path d="M311.859,102.261v1.708a1.128,1.128,0,0,0,2.256,0v-1.708a1.128,1.128,0,0,0-2.256,0Zm0,0" transform="translate(-264.958 -85.923)"/><g transform="translate(46.048 20.146)"><path d="M436.4,136.209H434.69a1.128,1.128,0,0,1,0-2.256H436.4a1.128,1.128,0,0,1,0,2.256Zm0,0" transform="translate(-414.406 -133.953)" fill="#eaeaea"/><path d="M309.019,136.209h-1.708a1.128,1.128,0,0,1,0-2.256h1.708a1.128,1.128,0,0,1,0,2.256Zm0,0" transform="translate(-306.184 -133.953)" fill="#eaeaea"/></g></g></svg>