<svg xmlns="http://www.w3.org/2000/svg" width="131" height="131" viewBox="0 0 131 131"><g transform="translate(-560.518 -526.396)"><circle cx="65.5" cy="65.5" r="65.5" transform="translate(560.518 526.396)" fill="#fff"/><circle cx="63" cy="63" r="63" transform="translate(563.018 528.896)" fill="none" stroke="#361274" stroke-width="5"/><g style="isolation:isolate"><g style="isolation:isolate"><path d="M627.4,629.38a39.083,39.083,0,0,1-14.841-2.754,34.739,34.739,0,0,1-11.711-7.7,35.117,35.117,0,0,1-7.7-11.832,43.314,43.314,0,0,1,0-30.5,35.177,35.177,0,0,1,7.7-11.832,34.186,34.186,0,0,1,11.711-7.649,39.774,39.774,0,0,1,14.841-2.7,40.953,40.953,0,0,1,11.526,1.58,34.439,34.439,0,0,1,17.493,11.629,33.524,33.524,0,0,1,5.253,9.332l-13.872,5a20.891,20.891,0,0,0-7.7-10.3,21.477,21.477,0,0,0-12.7-3.776,22.73,22.73,0,0,0-8.976,1.735,20.857,20.857,0,0,0-7.038,4.845,21.616,21.616,0,0,0-4.59,7.547,30.5,30.5,0,0,0,0,19.688,21.6,21.6,0,0,0,4.59,7.547,20.8,20.8,0,0,0,7.038,4.845,22.7,22.7,0,0,0,8.976,1.735,21.672,21.672,0,0,0,12.7-3.725,20.594,20.594,0,0,0,7.7-10.25l13.872,4.9a34.125,34.125,0,0,1-12.954,16.523,34.861,34.861,0,0,1-9.792,4.539A40.915,40.915,0,0,1,627.4,629.38Z" fill="#361274"/></g></g></g></svg>