<svg xmlns="http://www.w3.org/2000/svg" width="50" height="40" viewBox="0 0 50 40"><g transform="translate(-651.367 -482.661)"><rect width="50" height="40" transform="translate(651.367 482.661)" fill="none"/><path d="M694.434,507.821H677.663V503.95a1.293,1.293,0,0,0-1.29-1.29h-5.168V484.6a1.3,1.3,0,0,1,1.291-1.29h21.938a1.294,1.294,0,0,1,1.291,1.29v21.938A1.294,1.294,0,0,1,694.434,507.821Z" fill="#e6e9ed"/><path d="M686.69,500.08v1.936a3.226,3.226,0,0,1-6.452,0V500.08Z" fill="#969faa"/><path d="M688.489,487.958a7.005,7.005,0,0,0-4.99-2.071h-.064a7.063,7.063,0,0,0-5.361,11.662l2.168,2.53h6.448l2.168-2.53a7.088,7.088,0,0,0,1.7-4.6,7.009,7.009,0,0,0-2.072-4.994Z" fill="#fcd770"/><path d="M676.367,522.016H658.3a1.294,1.294,0,0,1-1.29-1.291V503.954a1.293,1.293,0,0,1,1.29-1.293h18.065a1.3,1.3,0,0,1,1.291,1.29v16.771A1.3,1.3,0,0,1,676.367,522.016Z" fill="#f0d0b4"/><path d="M669.916,515.564v1.29a2.581,2.581,0,0,1-5.162,0v-1.29Z" fill="#aab2bd"/><path d="M667.335,515.564h-2.582l-1.451-1.813a5.187,5.187,0,0,1-1.129-3.226V510.4a5.161,5.161,0,0,1,10.323,0v.123a5.175,5.175,0,0,1-1.129,3.226l-1.452,1.813Z" fill="#ffeaa7"/><circle cx="1.338" cy="1.338" r="1.338" transform="translate(665.735 508.831)" fill="#fcd770"/><path d="M683.5,485.241h-.064a7.711,7.711,0,0,0-5.853,12.723l2.015,2.352v1.7a3.871,3.871,0,1,0,7.742,0h0v-1.7l2.014-2.352a7.711,7.711,0,0,0-5.854-12.723Zm-.033,19.355a2.582,2.582,0,0,1-2.58-2.584v-1.287h5.161v1.287A2.583,2.583,0,0,1,683.464,504.6Zm-1.074-10.969h2.149l-.386,5.806h-1.376Zm5.976,3.5-1.978,2.307h-.949l.385-5.806h.859a1.936,1.936,0,1,0,0-3.871H686.6a1.939,1.939,0,0,0-1.928,1.807l-.052.771H682.3l-.052-.771a1.938,1.938,0,0,0-1.927-1.808h-.083a1.936,1.936,0,1,0,0,3.871h.858l.386,5.806h-.949l-1.978-2.307a6.418,6.418,0,0,1,4.874-10.593h.066a6.419,6.419,0,0,1,4.873,10.6Zm-2.453-4.79.046-.688a.647.647,0,0,1,.643-.6h.083a.645.645,0,0,1,0,1.291Zm-4.907,0h-.771a.645.645,0,0,1,0-1.291h.083a.647.647,0,0,1,.643.6Z"/><path d="M694.432,482.661H672.5a1.937,1.937,0,0,0-1.935,1.935v17.42H658.3a1.938,1.938,0,0,0-1.935,1.935v16.771a1.939,1.939,0,0,0,1.935,1.939h18.065a1.938,1.938,0,0,0,1.935-1.936V508.467h16.13a1.938,1.938,0,0,0,1.935-1.935V484.6A1.938,1.938,0,0,0,694.432,482.661Zm-17.42,38.064a.646.646,0,0,1-.645.645H658.3a.644.644,0,0,1-.644-.645V503.954a.645.645,0,0,1,.644-.645h18.065a.647.647,0,0,1,.645.645Zm18.064-14.193a.645.645,0,0,1-.644.644H678.3v-3.225a1.938,1.938,0,0,0-1.935-1.935h-4.516V484.6a.647.647,0,0,1,.645-.645h21.936a.646.646,0,0,1,.644.645Z"/><path d="M667.335,504.6a5.813,5.813,0,0,0-5.807,5.806v.125a5.835,5.835,0,0,0,1.273,3.628l1.308,1.638v1.06a3.226,3.226,0,1,0,6.452,0v-1.06l1.308-1.638a5.834,5.834,0,0,0,1.272-3.628V510.4A5.813,5.813,0,0,0,667.335,504.6Zm0,14.194a1.939,1.939,0,0,1-1.936-1.936v-.644h3.871v.644A1.939,1.939,0,0,1,667.335,518.79Zm-.645-8.386a.645.645,0,1,1,.645.645h0a.645.645,0,0,1-.645-.647Zm5.161.125a4.527,4.527,0,0,1-.99,2.821l-1.253,1.57H667.98v-2.7a1.936,1.936,0,1,0-1.29,0v2.7h-1.625l-1.253-1.57a4.527,4.527,0,0,1-.99-2.821V510.4a4.516,4.516,0,1,1,9.032,0Z"/><path d="M692.5,514.273a1.938,1.938,0,0,1-1.935,1.936H678.68l4.327,4.326.912-.911L681.8,517.5h8.766a3.231,3.231,0,0,0,3.226-3.226v-4.519H692.5Z"/><path d="M679.593,513.628h1.291v1.291h-1.291Z"/><path d="M682.173,513.628h1.291v1.291h-1.291Z"/><path d="M691.206,513.628v-3.87h-1.29v3.87h-5.162v1.291h5.162A1.291,1.291,0,0,0,691.206,513.628Z"/><path d="M657.658,494.918a1.937,1.937,0,0,1,1.935-1.935h10.59l-4.327-4.327-.912.912,2.121,2.12h-7.472a3.23,3.23,0,0,0-3.226,3.23v4.516h1.291Z"/><path d="M667.979,494.273h1.291v1.291h-1.291Z"/><path d="M665.4,494.273h1.291v1.291H665.4Z"/><path d="M658.947,495.564v3.871h1.291v-3.871h3.871v-1.291h-3.871A1.292,1.292,0,0,0,658.947,495.564Z"/><path d="M658.947,518.79h1.291v1.29h-1.291Z"/><path d="M658.947,516.209h1.291v1.29h-1.291Z"/><path d="M658.947,513.628h1.291v1.291h-1.291Z"/><path d="M674.432,509.758h1.29v1.29h-1.29Z"/><path d="M674.432,507.176h1.29v1.291h-1.29Z"/><path d="M674.432,504.6h1.29v1.291h-1.29Z"/><path d="M692.5,499.435h1.291v1.29H692.5Z"/><path d="M692.5,504.6h1.291v1.291H692.5Z"/><path d="M692.5,502.016h1.291v1.291H692.5Z"/><path d="M673.141,487.822h1.291v1.291h-1.291Z"/><path d="M673.141,490.4h1.291v1.291h-1.291Z"/><path d="M673.141,485.241h1.291v1.291h-1.291Z"/></g></svg>