<?xml version="1.0" encoding="utf-8"?>
<!-- Generator: Adobe Illustrator 25.2.0, SVG Export Plug-In . SVG Version: 6.00 Build 0)  -->
<svg version="1.0" id="Layer_1" xmlns="http://www.w3.org/2000/svg" xmlns:xlink="http://www.w3.org/1999/xlink" x="0px" y="0px"
	 viewBox="0 0 1401.2 490.9" style="enable-background:new 0 0 1401.2 490.9;" xml:space="preserve">
<style type="text/css">
	.st0{fill:#613F75;}
</style>
<g>
	<path class="st0" d="M180.9,454.6c-3.9,0-7.7-0.2-11.2-0.7c-0.1,0-0.2-0.1-0.2-0.3c0-0.1,0.1-0.2,0.3-0.2c3.5,0.4,7.2,0.7,11.1,0.7
		l0.8,0c0,0,0,0,0,0c0.1,0,0.2,0.1,0.2,0.2s-0.1,0.3-0.2,0.3L180.9,454.6z M193.7,453.9c-0.1,0-0.2-0.1-0.2-0.2
		c0-0.1,0.1-0.3,0.2-0.3c3.7-0.4,7.6-0.9,11.9-1.6c0.1,0,0.3,0.1,0.3,0.2c0,0.1-0.1,0.3-0.2,0.3C201.3,453,197.4,453.6,193.7,453.9
		C193.7,453.9,193.7,453.9,193.7,453.9z M158,451.4C158,451.4,158,451.4,158,451.4c-4-1.3-7.7-2.9-11.1-4.9
		c-0.1-0.1-0.2-0.2-0.1-0.3c0.1-0.1,0.2-0.2,0.3-0.1c3.3,2,7,3.6,10.9,4.8c0.1,0,0.2,0.2,0.2,0.3C158.2,451.4,158.1,451.4,158,451.4
		z M217.4,450.2c-0.1,0-0.2-0.1-0.2-0.2c0-0.1,0.1-0.3,0.2-0.3c3.9-0.7,7.9-1.5,11.8-2.2c0.1,0,0.3,0.1,0.3,0.2
		c0,0.1-0.1,0.3-0.2,0.3C225.3,448.8,221.3,449.5,217.4,450.2C217.4,450.2,217.4,450.2,217.4,450.2z M240.9,445.7
		c-0.1,0-0.2-0.1-0.2-0.2c0-0.1,0.1-0.3,0.2-0.3c4.2-0.8,8-1.6,11.7-2.4c0.1,0,0.3,0.1,0.3,0.2c0,0.1-0.1,0.3-0.2,0.3
		C249,444,245.2,444.8,240.9,445.7C241,445.7,241,445.7,240.9,445.7z M264.4,440.7c-0.1,0-0.2-0.1-0.2-0.2c0-0.1,0.1-0.3,0.2-0.3
		c4-0.9,8-1.9,11.7-2.8c0.1,0,0.3,0,0.3,0.2c0,0.1,0,0.3-0.2,0.3C272.4,438.8,268.5,439.7,264.4,440.7
		C264.4,440.6,264.4,440.7,264.4,440.7z M137.5,439.3c-0.1,0-0.1,0-0.2-0.1c-2.8-2.7-5.4-5.9-7.7-9.3c-0.1-0.1,0-0.3,0.1-0.3
		c0.1-0.1,0.3,0,0.3,0.1c2.2,3.4,4.8,6.5,7.6,9.2c0.1,0.1,0.1,0.3,0,0.4C137.7,439.3,137.6,439.3,137.5,439.3z M287.7,434.8
		c-0.1,0-0.2-0.1-0.2-0.2c0-0.1,0-0.3,0.2-0.3c3.9-1.1,7.8-2.2,11.5-3.4c0.1,0,0.3,0,0.3,0.2c0,0.1,0,0.3-0.2,0.3
		C295.5,432.5,291.7,433.7,287.7,434.8C287.7,434.8,287.7,434.8,287.7,434.8z M310.6,427.7c-0.1,0-0.2-0.1-0.2-0.2
		c0-0.1,0-0.3,0.2-0.3c3.8-1.3,7.6-2.7,11.3-4.1c0.1,0,0.3,0,0.3,0.1c0,0.1,0,0.3-0.1,0.3C318.3,425,314.5,426.4,310.6,427.7
		C310.7,427.7,310.6,427.7,310.6,427.7z M124.3,419.5c-0.1,0-0.2-0.1-0.2-0.2c-1.5-3.5-2.8-7.4-3.8-11.4c0-0.1,0-0.3,0.2-0.3
		c0.1,0,0.3,0,0.3,0.2c1.1,4,2.3,7.8,3.8,11.3C124.6,419.3,124.5,419.5,124.3,419.5C124.3,419.5,124.3,419.5,124.3,419.5z
		 M333,419.1c-0.1,0-0.2-0.1-0.2-0.2c-0.1-0.1,0-0.3,0.1-0.3c3.7-1.6,7.4-3.3,10.9-5c0.1-0.1,0.3,0,0.3,0.1c0.1,0.1,0,0.3-0.1,0.3
		C340.5,415.8,336.8,417.4,333,419.1C333,419.1,333,419.1,333,419.1z M354.5,408.6c-0.1,0-0.2,0-0.2-0.1c-0.1-0.1,0-0.3,0.1-0.3
		c3.5-1.9,7-3.9,10.4-6c0.1-0.1,0.3,0,0.3,0.1c0.1,0.1,0,0.3-0.1,0.3c-3.4,2.1-6.9,4.1-10.4,6C354.6,408.6,354.6,408.6,354.5,408.6z
		 M118.1,396.4c-0.1,0-0.2-0.1-0.2-0.2c-0.6-3.8-1-7.8-1.2-12c0-0.1,0.1-0.3,0.2-0.3c0.1,0,0.3,0.1,0.3,0.2
		c0.3,4.2,0.7,8.2,1.2,11.9C118.3,396.3,118.2,396.4,118.1,396.4C118.1,396.4,118.1,396.4,118.1,396.4z M375,396
		c-0.1,0-0.2,0-0.2-0.1c-0.1-0.1-0.1-0.3,0.1-0.3c3.2-2.2,6.4-4.5,9.7-7c0.1-0.1,0.3-0.1,0.4,0s0.1,0.3,0,0.4
		c-3.3,2.5-6.6,4.9-9.7,7C375.1,396,375,396,375,396z M394.1,381.5c-0.1,0-0.1,0-0.2-0.1c-0.1-0.1-0.1-0.3,0-0.4
		c2.9-2.4,5.9-4.9,9.2-7.7c0.1-0.1,0.3-0.1,0.4,0c0.1,0.1,0.1,0.3,0,0.4c-3.3,2.8-6.3,5.3-9.2,7.7
		C394.2,381.5,394.1,381.5,394.1,381.5z M116.4,372.5c-0.1,0-0.2-0.1-0.2-0.2l0-0.6c0-3.6,0.1-7.4,0.3-11.4c0-0.1,0.1-0.2,0.3-0.2
		c0.1,0,0.2,0.1,0.2,0.3c-0.2,4-0.3,7.8-0.3,11.4l0,0.6C116.7,372.4,116.6,372.5,116.4,372.5L116.4,372.5z M412.3,365.9
		c-0.1,0-0.1,0-0.2-0.1c-0.1-0.1-0.1-0.3,0-0.4c3-2.7,6-5.3,8.9-8c0.1-0.1,0.3-0.1,0.4,0c0.1,0.1,0.1,0.3,0,0.4c-3,2.7-6,5.4-8.9,8
		C412.4,365.9,412.4,365.9,412.3,365.9z M430.2,349.9c-0.1,0-0.1,0-0.2-0.1c-0.1-0.1-0.1-0.3,0-0.4c3.5-3.1,6.3-5.6,9-8
		c0.1-0.1,0.3-0.1,0.4,0c0.1,0.1,0.1,0.3,0,0.4c-2.7,2.3-5.5,4.9-9,8C430.3,349.9,430.2,349.9,430.2,349.9z M117.4,348.5
		C117.4,348.5,117.4,348.5,117.4,348.5c-0.2,0-0.3-0.1-0.2-0.3c0.2-2.8,0.5-5.8,0.8-9c0.1-1,0.2-2,0.3-2.9c0-0.1,0.1-0.2,0.3-0.2
		c0.1,0,0.2,0.1,0.2,0.3c-0.1,1-0.2,2-0.3,2.9c-0.3,3.2-0.6,6.2-0.8,9C117.7,348.4,117.6,348.5,117.4,348.5z M448.3,334.1
		c-0.1,0-0.1,0-0.2-0.1c-0.1-0.1-0.1-0.3,0-0.4c3.3-2.7,6.3-5.2,9.3-7.6c0.1-0.1,0.3-0.1,0.4,0c0.1,0.1,0.1,0.3,0,0.4
		c-3,2.4-6,4.8-9.3,7.6C448.4,334.1,448.3,334.1,448.3,334.1z M120.2,324.7C120.2,324.7,120.2,324.7,120.2,324.7
		c-0.2,0-0.3-0.2-0.2-0.3c0.9-4.5,2.2-8.2,3.9-11.4c0.1-0.1,0.2-0.2,0.3-0.1c0.1,0.1,0.2,0.2,0.1,0.3c-1.6,3.2-2.9,6.8-3.8,11.3
		C120.4,324.6,120.3,324.7,120.2,324.7z M467.1,319.3c-0.1,0-0.2,0-0.2-0.1c-0.1-0.1-0.1-0.3,0.1-0.3c3.3-2.4,6.7-4.7,9.9-6.8
		c0.1-0.1,0.3,0,0.3,0.1c0.1,0.1,0,0.3-0.1,0.3c-3.2,2.1-6.5,4.4-9.9,6.8C467.2,319.3,467.2,319.3,467.1,319.3z M487.3,306.2
		c-0.1,0-0.2,0-0.2-0.1c-0.1-0.1,0-0.3,0.1-0.3c3.4-1.9,7-3.8,10.6-5.6c0.1-0.1,0.3,0,0.3,0.1c0.1,0.1,0,0.3-0.1,0.3
		c-3.6,1.8-7.2,3.6-10.6,5.6C487.4,306.2,487.3,306.2,487.3,306.2z M131.5,304.1c-0.1,0-0.1,0-0.2-0.1c-0.1-0.1-0.1-0.3,0-0.4
		c2.8-2.3,6.1-4.4,10.3-6.2c0.1-0.1,0.3,0,0.3,0.1c0.1,0.1,0,0.3-0.1,0.3c-4.1,1.9-7.4,3.9-10.2,6.2
		C131.6,304,131.6,304.1,131.5,304.1z M508.9,295.7c-0.1,0-0.2-0.1-0.2-0.2c-0.1-0.1,0-0.3,0.1-0.3c3.6-1.5,7.4-3,11.2-4.3
		c0.1,0,0.3,0,0.3,0.2s0,0.3-0.2,0.3C516.3,292.8,512.6,294.2,508.9,295.7C508.9,295.7,508.9,295.7,508.9,295.7z M153,293.6
		c-0.1,0-0.2-0.1-0.2-0.2c0-0.1,0-0.3,0.2-0.3c3.8-1.3,7.6-2.6,11.4-3.9c0.1,0,0.3,0,0.3,0.2c0,0.1,0,0.3-0.2,0.3
		C160.6,291,156.8,292.3,153,293.6C153,293.6,153,293.6,153,293.6z M531.4,287.7c-0.1,0-0.2-0.1-0.2-0.2c0-0.1,0-0.3,0.2-0.3
		c3.7-1.1,7.6-2.2,11.6-3.3c0.1,0,0.3,0,0.3,0.2s0,0.3-0.2,0.3C539.1,285.4,535.2,286.5,531.4,287.7
		C531.5,287.6,531.5,287.7,531.4,287.7z M175.7,285.9c-0.1,0-0.2-0.1-0.2-0.2c0-0.1,0-0.3,0.2-0.3c3.8-1.3,7.6-2.5,11.4-3.7
		c0.1,0,0.3,0,0.3,0.2c0,0.1,0,0.3-0.2,0.3C183.4,283.4,179.6,284.7,175.7,285.9C175.8,285.9,175.7,285.9,175.7,285.9z M554.6,281.6
		c-0.1,0-0.2-0.1-0.2-0.2c0-0.1,0.1-0.3,0.2-0.3c3.8-0.8,7.7-1.7,11.8-2.5c0.1,0,0.3,0.1,0.3,0.2s-0.1,0.3-0.2,0.3
		C562.4,279.9,558.5,280.7,554.6,281.6C554.7,281.6,554.7,281.6,554.6,281.6z M198.5,278.6c-0.1,0-0.2-0.1-0.2-0.2
		c0-0.1,0-0.3,0.2-0.3c3.8-1.2,7.6-2.4,11.5-3.6c0.1,0,0.3,0,0.3,0.2c0,0.1,0,0.3-0.2,0.3C206.3,276.1,202.4,277.3,198.5,278.6
		C198.6,278.6,198.6,278.6,198.5,278.6z M578.2,277c-0.1,0-0.2-0.1-0.2-0.2c0-0.1,0.1-0.3,0.2-0.3c3.8-0.6,7.6-1.3,11.9-1.9
		c0.1,0,0.3,0.1,0.3,0.2c0,0.1-0.1,0.3-0.2,0.3C585.9,275.7,582,276.3,578.2,277C578.2,277,578.2,277,578.2,277z M601.9,273.3
		c-0.1,0-0.2-0.1-0.2-0.2c0-0.1,0.1-0.3,0.2-0.3c4-0.6,7.9-1.1,11.9-1.7c0.1,0,0.3,0.1,0.3,0.2s-0.1,0.3-0.2,0.3
		C609.9,272.2,605.9,272.7,601.9,273.3C601.9,273.3,601.9,273.3,601.9,273.3z M221.5,271.5c-0.1,0-0.2-0.1-0.2-0.2
		c0-0.1,0-0.3,0.2-0.3c3.8-1.2,7.7-2.3,11.5-3.4c0.1,0,0.3,0,0.3,0.2c0,0.1,0,0.3-0.2,0.3C229.2,269.1,225.4,270.3,221.5,271.5
		C221.5,271.4,221.5,271.5,221.5,271.5z M625.7,270c-0.1,0-0.2-0.1-0.2-0.2c0-0.1,0.1-0.3,0.2-0.3l2.7-0.4c3.1-0.4,6.1-0.9,9.2-1.3
		c0.1,0,0.3,0.1,0.3,0.2c0,0.1-0.1,0.3-0.2,0.3c-3.1,0.4-6.1,0.9-9.2,1.3L625.7,270C625.7,270,625.7,270,625.7,270z M649.4,266.6
		c-0.1,0-0.2-0.1-0.2-0.2c0-0.1,0.1-0.3,0.2-0.3c4-0.6,7.9-1.2,11.9-1.8c0.1,0,0.3,0.1,0.3,0.2c0,0.1-0.1,0.3-0.2,0.3
		C657.4,265.4,653.4,266,649.4,266.6C649.5,266.6,649.5,266.6,649.4,266.6z M244.5,264.6c-0.1,0-0.2-0.1-0.2-0.2
		c0-0.1,0-0.3,0.2-0.3c3.8-1.1,7.7-2.2,11.5-3.3c0.1,0,0.3,0,0.3,0.2c0,0.1,0,0.3-0.2,0.3C252.2,262.4,248.4,263.5,244.5,264.6
		C244.5,264.6,244.5,264.6,244.5,264.6z M673.2,262.9c-0.1,0-0.2-0.1-0.2-0.2c0-0.1,0.1-0.3,0.2-0.3c3.9-0.6,7.9-1.3,11.8-1.9
		c0.1,0,0.3,0.1,0.3,0.2s-0.1,0.3-0.2,0.3C681.1,261.6,677.2,262.3,673.2,262.9C673.2,262.9,673.2,262.9,673.2,262.9z M696.8,259
		c-0.1,0-0.2-0.1-0.2-0.2c0-0.1,0.1-0.3,0.2-0.3c3.9-0.7,7.9-1.4,11.8-2.1c0.1,0,0.3,0.1,0.3,0.2s-0.1,0.3-0.2,0.3
		C704.8,257.6,700.8,258.3,696.8,259C696.9,259,696.9,259,696.8,259z M267.6,258.1c-0.1,0-0.2-0.1-0.2-0.2c0-0.1,0-0.3,0.2-0.3
		c3.9-1.1,7.7-2.1,11.6-3.2c0.1,0,0.3,0,0.3,0.2s0,0.3-0.2,0.3C275.3,255.9,271.5,257,267.6,258.1
		C267.6,258.1,267.6,258.1,267.6,258.1z M720.5,254.7c-0.1,0-0.2-0.1-0.2-0.2c0-0.1,0.1-0.3,0.2-0.3c3.9-0.7,7.9-1.5,11.8-2.2
		c0.1,0,0.3,0.1,0.3,0.2c0,0.1-0.1,0.3-0.2,0.3C728.4,253.3,724.4,254,720.5,254.7C720.5,254.7,720.5,254.7,720.5,254.7z
		 M290.7,251.8c-0.1,0-0.2-0.1-0.2-0.2c0-0.1,0-0.3,0.2-0.3c3.9-1,7.7-2,11.6-3c0.1,0,0.3,0,0.3,0.2c0,0.1,0,0.3-0.2,0.3
		C298.5,249.7,294.7,250.8,290.7,251.8C290.8,251.8,290.7,251.8,290.7,251.8z M744,250.2c-0.1,0-0.2-0.1-0.2-0.2
		c0-0.1,0.1-0.3,0.2-0.3c3.9-0.8,7.8-1.6,11.8-2.3c0.1,0,0.3,0.1,0.3,0.2c0,0.1-0.1,0.3-0.2,0.3C751.9,248.7,748,249.5,744,250.2
		C744.1,250.2,744.1,250.2,744,250.2z M314,245.8c-0.1,0-0.2-0.1-0.2-0.2c0-0.1,0-0.3,0.2-0.3c3.9-1,7.8-1.9,11.6-2.9
		c0.1,0,0.3,0,0.3,0.2c0,0.1,0,0.3-0.2,0.3C321.8,243.8,317.9,244.8,314,245.8C314,245.8,314,245.8,314,245.8z M767.6,245.5
		c-0.1,0-0.2-0.1-0.2-0.2c0-0.1,0.1-0.3,0.2-0.3c3.9-0.8,7.8-1.6,11.7-2.5c0.1,0,0.3,0.1,0.3,0.2c0,0.1-0.1,0.3-0.2,0.3
		C775.4,243.8,771.5,244.7,767.6,245.5C767.6,245.5,767.6,245.5,767.6,245.5z M791,240.5c-0.1,0-0.2-0.1-0.2-0.2
		c0-0.1,0.1-0.3,0.2-0.3c3.9-0.9,7.8-1.7,11.7-2.6c0.1,0,0.3,0.1,0.3,0.2c0,0.1-0.1,0.3-0.2,0.3C798.9,238.7,795,239.6,791,240.5
		C791.1,240.5,791,240.5,791,240.5z M337.3,240.1c-0.1,0-0.2-0.1-0.2-0.2c0-0.1,0.1-0.3,0.2-0.3c3.9-0.9,7.8-1.8,11.7-2.8
		c0.1,0,0.3,0.1,0.3,0.2c0,0.1-0.1,0.3-0.2,0.3C345.1,238.2,341.2,239.1,337.3,240.1C337.3,240.1,337.3,240.1,337.3,240.1z
		 M814.4,235.2c-0.1,0-0.2-0.1-0.2-0.2c0-0.1,0.1-0.3,0.2-0.3c3.9-0.9,7.8-1.8,11.7-2.7c0.1,0,0.3,0.1,0.3,0.2
		c0,0.1-0.1,0.3-0.2,0.3C822.3,233.3,818.4,234.2,814.4,235.2C814.5,235.2,814.5,235.2,814.4,235.2z M360.6,234.6
		c-0.1,0-0.2-0.1-0.2-0.2c0-0.1,0.1-0.3,0.2-0.3c3.9-0.9,7.8-1.8,11.7-2.6c0.1,0,0.3,0.1,0.3,0.2c0,0.1-0.1,0.3-0.2,0.3
		C368.5,232.9,364.6,233.7,360.6,234.6C360.7,234.6,360.7,234.6,360.6,234.6z M837.8,229.6c-0.1,0-0.2-0.1-0.2-0.2
		c0-0.1,0-0.3,0.2-0.3c3.9-0.9,7.8-1.9,11.6-2.9c0.1,0,0.3,0,0.3,0.2c0,0.1,0,0.3-0.2,0.3C845.6,227.7,841.7,228.6,837.8,229.6
		C837.8,229.6,837.8,229.6,837.8,229.6z M384.1,229.5c-0.1,0-0.2-0.1-0.2-0.2c0-0.1,0.1-0.3,0.2-0.3c3.9-0.8,7.8-1.7,11.7-2.5
		c0.1,0,0.3,0.1,0.3,0.2c0,0.1-0.1,0.3-0.2,0.3C392,227.8,388.1,228.6,384.1,229.5C384.1,229.5,384.1,229.5,384.1,229.5z
		 M407.6,224.6c-0.1,0-0.2-0.1-0.2-0.2c0-0.1,0.1-0.3,0.2-0.3c3.9-0.8,7.8-1.6,11.8-2.3c0.1,0,0.3,0.1,0.3,0.2
		c0,0.1-0.1,0.3-0.2,0.3C415.5,223,411.6,223.8,407.6,224.6C407.6,224.6,407.6,224.6,407.6,224.6z M861.1,223.8
		c-0.1,0-0.2-0.1-0.2-0.2c0-0.1,0-0.3,0.2-0.3c3.9-1,7.7-2,11.6-3c0.1,0,0.3,0,0.3,0.2c0,0.1,0,0.3-0.2,0.3
		C868.9,221.8,865,222.8,861.1,223.8C861.1,223.8,861.1,223.8,861.1,223.8z M431.1,220c-0.1,0-0.2-0.1-0.2-0.2
		c0-0.1,0.1-0.3,0.2-0.3c3.9-0.7,7.9-1.5,11.8-2.2c0.1,0,0.3,0.1,0.3,0.2c0,0.1-0.1,0.3-0.2,0.3C439.1,218.5,435.1,219.3,431.1,220
		C431.2,220,431.2,220,431.1,220z M884.3,217.7c-0.1,0-0.2-0.1-0.2-0.2c0-0.1,0-0.3,0.2-0.3c3.9-1,7.7-2.1,11.6-3.1
		c0.1,0,0.3,0,0.3,0.2c0,0.1,0,0.3-0.2,0.3C892.1,215.6,888.2,216.6,884.3,217.7C884.3,217.7,884.3,217.7,884.3,217.7z M454.8,215.7
		c-0.1,0-0.2-0.1-0.2-0.2c0-0.1,0.1-0.3,0.2-0.3c3.9-0.7,7.9-1.4,11.8-2c0.1,0,0.3,0.1,0.3,0.2c0,0.1-0.1,0.3-0.2,0.3
		C462.7,214.3,458.7,215,454.8,215.7C454.8,215.7,454.8,215.7,454.8,215.7z M478.4,211.7c-0.1,0-0.2-0.1-0.2-0.2
		c0-0.1,0.1-0.3,0.2-0.3c2.6-0.4,5.3-0.9,7.9-1.3l3.9-0.6c0.1,0,0.3,0.1,0.3,0.2c0,0.1-0.1,0.3-0.2,0.3l-3.9,0.6
		C483.7,210.8,481.1,211.2,478.4,211.7C478.4,211.7,478.4,211.7,478.4,211.7z M907.4,211.3c-0.1,0-0.2-0.1-0.2-0.2
		c0-0.1,0-0.3,0.2-0.3c4.5-1.3,8.1-2.4,11.5-3.4c0.1,0,0.3,0,0.3,0.2s0,0.3-0.2,0.3C915.6,208.9,912,210,907.4,211.3
		C907.5,211.3,907.4,211.3,907.4,211.3z M502.1,207.8c-0.1,0-0.2-0.1-0.2-0.2c0-0.1,0.1-0.3,0.2-0.3c4.3-0.7,8.2-1.4,11.8-2
		c0.1,0,0.3,0.1,0.3,0.2c0,0.1-0.1,0.3-0.2,0.3C510.3,206.4,506.5,207.1,502.1,207.8C502.1,207.8,502.1,207.8,502.1,207.8z
		 M930.2,203.8c-0.1,0-0.2-0.1-0.2-0.2c-0.1-0.1,0-0.3,0.1-0.3c4-1.6,7.5-3.2,10.9-4.9c0.1-0.1,0.3,0,0.3,0.1c0.1,0.1,0,0.3-0.1,0.3
		C937.9,200.6,934.3,202.2,930.2,203.8C930.3,203.8,930.2,203.8,930.2,203.8z M525.7,203.5c-0.1,0-0.2-0.1-0.2-0.2
		c0-0.1,0.1-0.3,0.2-0.3c4.1-0.8,8-1.6,11.7-2.5c0.1,0,0.3,0.1,0.3,0.2c0,0.1-0.1,0.3-0.2,0.3C533.8,201.9,529.9,202.7,525.7,203.5
		C525.8,203.5,525.7,203.5,525.7,203.5z M549.1,198.3c-0.1,0-0.2-0.1-0.2-0.2c0-0.1,0-0.3,0.2-0.3c4-1,7.9-2.1,11.6-3.2
		c0.1,0,0.3,0,0.3,0.2c0,0.1,0,0.3-0.2,0.3C557.1,196.2,553.2,197.2,549.1,198.3C549.2,198.3,549.2,198.3,549.1,198.3z M951.4,192.7
		c-0.1,0-0.2,0-0.2-0.1c-0.1-0.1-0.1-0.3,0.1-0.3c3.3-2.3,6.4-4.9,9.2-7.6c0.1-0.1,0.3-0.1,0.4,0c0.1,0.1,0.1,0.3,0,0.4
		c-2.8,2.7-6,5.3-9.3,7.6C951.5,192.7,951.5,192.7,951.4,192.7z M572.1,191.5c-0.1,0-0.2-0.1-0.2-0.2c0-0.1,0-0.3,0.2-0.3
		c3.8-1.3,7.6-2.7,11.2-4.2c0.1,0,0.3,0,0.3,0.1c0.1,0.1,0,0.3-0.1,0.3C579.9,188.7,576.1,190.1,572.1,191.5
		C572.2,191.5,572.2,191.5,572.1,191.5z M594.4,182.5c-0.1,0-0.2-0.1-0.2-0.1c-0.1-0.1,0-0.3,0.1-0.3c3.7-1.7,7.3-3.5,10.7-5.4
		c0.1-0.1,0.3,0,0.3,0.1c0.1,0.1,0,0.3-0.1,0.3c-3.5,1.9-7.1,3.7-10.7,5.4C594.5,182.5,594.4,182.5,594.4,182.5z M968.6,176.1
		c-0.1,0-0.1,0-0.1,0c-0.1-0.1-0.1-0.2-0.1-0.3c2.3-3.1,4.4-6.4,6.4-10.1c0.1-0.1,0.2-0.2,0.3-0.1c0.1,0.1,0.2,0.2,0.1,0.3
		c-2,3.7-4.1,7.1-6.4,10.2C968.7,176.1,968.7,176.1,968.6,176.1z M615.5,171c-0.1,0-0.2,0-0.2-0.1c-0.1-0.1,0-0.3,0.1-0.3
		c3.4-2.1,6.7-4.4,9.9-6.8c0.1-0.1,0.3-0.1,0.3,0.1c0.1,0.1,0.1,0.3-0.1,0.3c-3.2,2.4-6.5,4.6-9.9,6.8
		C615.6,171,615.5,171,615.5,171z M27.9,160.3c-1.2,0-2.5,0-3.7,0c-0.1,0-0.2-0.1-0.2-0.3c0-0.1,0.1-0.2,0.2-0.2c0,0,0,0,0,0
		c4,0,8,0,12-0.1c0.1,0,0.3,0.1,0.3,0.2s-0.1,0.3-0.2,0.3C33.5,160.2,30.7,160.3,27.9,160.3z M12.3,160C12.2,160,12.2,160,12.3,160
		c-4-0.1-8-0.3-12-0.5c-0.1,0-0.2-0.1-0.2-0.3c0-0.1,0.1-0.3,0.3-0.2c4,0.2,8,0.4,12,0.5c0.1,0,0.2,0.1,0.2,0.3
		C12.5,159.9,12.4,160,12.3,160z M48.2,159.8c-0.1,0-0.2-0.1-0.2-0.2c0-0.1,0.1-0.3,0.2-0.3c4-0.2,8-0.4,12-0.7
		c0.1,0,0.3,0.1,0.3,0.2s-0.1,0.3-0.2,0.3C56.3,159.4,52.2,159.7,48.2,159.8C48.2,159.8,48.2,159.8,48.2,159.8z M72.2,158.2
		c-0.1,0-0.2-0.1-0.2-0.2c0-0.1,0.1-0.3,0.2-0.3c4-0.4,8-0.8,11.9-1.3c0.1,0,0.3,0.1,0.3,0.2c0,0.1-0.1,0.3-0.2,0.3
		C80.2,157.4,76.2,157.8,72.2,158.2C72.2,158.2,72.2,158.2,72.2,158.2z M634.7,156.8c-0.1,0-0.1,0-0.2-0.1c-0.1-0.1-0.1-0.3,0-0.4
		c3.1-2.7,6-5.5,8.6-8.3c0.1-0.1,0.3-0.1,0.4,0c0.1,0.1,0.1,0.3,0,0.4c-2.7,2.8-5.6,5.6-8.7,8.3
		C634.9,156.7,634.8,156.8,634.7,156.8z M96,155.4c-0.1,0-0.2-0.1-0.2-0.2c0-0.1,0.1-0.3,0.2-0.3c3.9-0.6,7.9-1.2,11.9-1.8
		c0.1,0,0.3,0.1,0.3,0.2s-0.1,0.3-0.2,0.3C104,154.2,100,154.8,96,155.4C96,155.4,96,155.4,96,155.4z M980.2,155.2
		C980.2,155.2,980.1,155.2,980.2,155.2c-0.2-0.1-0.3-0.2-0.2-0.3c1.4-3.3,2.9-6.9,4.4-11.1c0-0.1,0.2-0.2,0.3-0.1
		c0.1,0,0.2,0.2,0.1,0.3c-1.5,4.2-3,7.9-4.4,11.2C980.4,155.1,980.3,155.2,980.2,155.2z M343.9,152.3c-3.5,0-6.9-0.2-10.2-0.7
		c-0.1,0-0.2-0.1-0.2-0.3s0.1-0.2,0.3-0.2c3.9,0.5,7.9,0.8,11.9,0.7c0.1,0,0.3,0.1,0.3,0.2c0,0.1-0.1,0.3-0.2,0.3
		C345.1,152.3,344.5,152.3,343.9,152.3z M119.7,151.4c-0.1,0-0.2-0.1-0.2-0.2c0-0.1,0.1-0.3,0.2-0.3c3.9-0.8,7.8-1.6,11.7-2.4
		c0.1,0,0.3,0.1,0.3,0.2c0,0.1-0.1,0.3-0.2,0.3C127.6,149.9,123.6,150.7,119.7,151.4C119.7,151.4,119.7,151.4,119.7,151.4z
		 M357.7,151.1c-0.1,0-0.2-0.1-0.2-0.2c0-0.1,0.1-0.3,0.2-0.3c3.9-0.6,7.8-1.5,11.7-2.7c0.1,0,0.3,0,0.3,0.2c0,0.1,0,0.3-0.2,0.3
		C365.5,149.6,361.6,150.5,357.7,151.1C357.7,151.1,357.7,151.1,357.7,151.1z M322.1,148.9C322,148.9,322,148.9,322.1,148.9
		c-3.9-1.3-7.6-2.9-11.1-4.9c-0.1-0.1-0.2-0.2-0.1-0.3c0.1-0.1,0.2-0.2,0.3-0.1c3.4,1.9,7.1,3.6,10.9,4.8c0.1,0,0.2,0.2,0.2,0.3
		C322.3,148.8,322.2,148.9,322.1,148.9z M143.1,146.3c-0.1,0-0.2-0.1-0.2-0.2c0-0.1,0-0.3,0.2-0.3c3.9-0.9,7.8-2,11.6-3
		c0.1,0,0.3,0,0.3,0.2c0,0.1,0,0.3-0.2,0.3C151,144.3,147.1,145.3,143.1,146.3C143.2,146.3,143.1,146.3,143.1,146.3z M380.7,144.4
		c-0.1,0-0.2-0.1-0.2-0.2c-0.1-0.1,0-0.3,0.1-0.3c3.5-1.5,7.2-3.2,10.8-5.1c0.1-0.1,0.3,0,0.3,0.1c0.1,0.1,0,0.3-0.1,0.3
		C387.9,141.2,384.3,142.9,380.7,144.4C380.7,144.4,380.7,144.4,380.7,144.4z M166.3,140c-0.1,0-0.2-0.1-0.2-0.2
		c0-0.1,0-0.3,0.2-0.3c3.8-1.1,7.7-2.3,11.5-3.6c0.1,0,0.3,0,0.3,0.2c0,0.1,0,0.3-0.2,0.3C174,137.7,170.2,138.9,166.3,140
		C166.3,140,166.3,140,166.3,140z M651.1,139.3c-0.1,0-0.1,0-0.1,0c-0.1-0.1-0.1-0.2-0.1-0.3c2.4-3.3,4.6-6.6,6.5-10
		c0.1-0.1,0.2-0.2,0.3-0.1c0.1,0.1,0.2,0.2,0.1,0.3c-1.9,3.4-4.1,6.8-6.5,10.1C651.2,139.2,651.2,139.3,651.1,139.3z M301.3,137.1
		c-0.1,0-0.1,0-0.2-0.1c-2.9-2.5-5.6-5.3-8.4-8.6c-0.1-0.1-0.1-0.3,0-0.4c0.1-0.1,0.3-0.1,0.4,0c2.7,3.3,5.4,6.1,8.3,8.6
		c0.1,0.1,0.1,0.2,0,0.4C301.5,137.1,301.4,137.1,301.3,137.1z M402,133.5c-0.1,0-0.2,0-0.2-0.1c-0.1-0.1,0-0.3,0.1-0.3
		c3.2-1.9,6.5-4,10.2-6.4c0.1-0.1,0.3,0,0.3,0.1c0.1,0.1,0,0.3-0.1,0.3c-3.6,2.4-7,4.5-10.2,6.4C402.1,133.5,402,133.5,402,133.5z
		 M988.6,132.7C988.6,132.7,988.5,132.7,988.6,132.7c-0.2-0.1-0.3-0.2-0.2-0.3l0.6-1.7c1.1-3.2,2.2-6.4,3.3-9.6
		c0-0.1,0.2-0.2,0.3-0.2c0.1,0,0.2,0.2,0.2,0.3c-1.1,3.2-2.3,6.5-3.3,9.6l-0.6,1.7C988.8,132.6,988.7,132.7,988.6,132.7z
		 M189.1,132.6c-0.1,0-0.2-0.1-0.2-0.2c0-0.1,0-0.3,0.2-0.3c3.8-1.3,7.5-2.7,11.3-4.1c0.1,0,0.3,0,0.3,0.1c0,0.1,0,0.3-0.1,0.3
		C196.8,129.9,193,131.3,189.1,132.6C189.2,132.6,189.1,132.6,189.1,132.6z M211.6,124.2c-0.1,0-0.2-0.1-0.2-0.2
		c-0.1-0.1,0-0.3,0.1-0.3c3.7-1.5,7.4-3.1,11.1-4.6c0.1-0.1,0.3,0,0.3,0.1c0.1,0.1,0,0.3-0.1,0.3
		C219.1,121.1,215.3,122.7,211.6,124.2C211.6,124.2,211.6,124.2,211.6,124.2z M422.1,120.5c-0.1,0-0.2,0-0.2-0.1
		c-0.1-0.1,0-0.3,0.1-0.3c3.1-2.1,6.2-4.3,9.3-6.4l0.6-0.4c0.1-0.1,0.3-0.1,0.3,0.1c0.1,0.1,0.1,0.3-0.1,0.3l-0.6,0.4
		c-3.1,2.2-6.2,4.3-9.3,6.4C422.2,120.4,422.2,120.5,422.1,120.5z M285.9,118.9c-0.1,0-0.2,0-0.2-0.1c-2-3-4-6.4-6.2-10.3
		c-0.1-0.1,0-0.3,0.1-0.3c0.1-0.1,0.3,0,0.3,0.1c2.2,3.9,4.2,7.2,6.2,10.2c0.1,0.1,0,0.3-0.1,0.3C286,118.8,286,118.9,285.9,118.9z
		 M662.7,118.3C662.6,118.3,662.6,118.3,662.7,118.3c-0.2-0.1-0.3-0.2-0.2-0.3c1.4-3.7,2.5-7.5,3.3-11.5c0-0.1,0.2-0.2,0.3-0.2
		c0.1,0,0.2,0.2,0.2,0.3c-0.8,4-1.9,7.9-3.3,11.6C662.9,118.3,662.8,118.3,662.7,118.3z M233.5,114.5c-0.1,0-0.2-0.1-0.2-0.1
		c-0.1-0.1,0-0.3,0.1-0.3c3.6-1.8,7.2-3.7,10.6-5.6c0.1-0.1,0.3,0,0.3,0.1c0.1,0.1,0,0.3-0.1,0.3c-3.4,1.9-7,3.8-10.6,5.6
		C233.6,114.5,233.6,114.5,233.5,114.5z M996.8,110.1C996.7,110.1,996.7,110.1,996.8,110.1c-0.2-0.1-0.3-0.2-0.2-0.3
		c1.6-4,3.2-7.6,4.9-11c0.1-0.1,0.2-0.2,0.3-0.1c0.1,0.1,0.2,0.2,0.1,0.3c-1.7,3.3-3.3,6.9-4.9,10.9
		C996.9,110.1,996.9,110.1,996.8,110.1z M441.8,106.8c-0.1,0-0.2,0-0.2-0.1c-0.1-0.1,0-0.3,0.1-0.3c1.3-0.9,2.6-1.8,3.9-2.7
		c2-1.3,4-2.7,6-4c0.1-0.1,0.3,0,0.3,0.1c0.1,0.1,0,0.3-0.1,0.3c-2,1.3-4,2.7-6,4c-1.3,0.9-2.6,1.8-3.9,2.7
		C441.9,106.7,441.9,106.8,441.8,106.8z M254.4,102.6c-0.1,0-0.2,0-0.2-0.1c-0.1-0.1,0-0.3,0.1-0.3c3.4-2.2,6.7-4.6,9.8-6.9
		c0.1-0.1,0.3-0.1,0.4,0c0.1,0.1,0.1,0.3,0,0.4c-3.1,2.4-6.4,4.7-9.8,7C254.5,102.6,254.4,102.6,254.4,102.6z M274,98.1
		c-0.1,0-0.2,0-0.2-0.1l-5.6-10.6c-0.1-0.1,0-0.3,0.1-0.3c0.1-0.1,0.3,0,0.3,0.1l5.6,10.6c0.1,0.1,0,0.3-0.1,0.3
		C274,98,274,98.1,274,98.1z M667.4,94.9C667.4,94.9,667.4,94.9,667.4,94.9c-0.1,0-0.3-0.1-0.2-0.3c0-1,0.1-2,0.1-3.1
		c0-3-0.2-6-0.6-8.9c0-0.1,0.1-0.3,0.2-0.3c0.1,0,0.3,0.1,0.3,0.2c0.4,2.9,0.6,5.9,0.6,8.9c0,1,0,2-0.1,3.1
		C667.7,94.8,667.6,94.9,667.4,94.9z M461.9,93.6c-0.1,0-0.2,0-0.2-0.1c-0.1-0.1,0-0.3,0.1-0.3c3.4-2.1,6.9-4.2,10.3-6.2
		c0.1-0.1,0.3,0,0.3,0.1c0.1,0.1,0,0.3-0.1,0.3c-3.4,2-6.9,4.1-10.3,6.2C462,93.6,462,93.6,461.9,93.6z M1007.5,88.7
		c0,0-0.1,0-0.1,0c-0.1-0.1-0.2-0.2-0.1-0.3c2.1-3.4,4.4-6.7,6.9-9.9c0.1-0.1,0.2-0.1,0.4,0c0.1,0.1,0.1,0.2,0,0.4
		c-2.4,3.2-4.7,6.5-6.8,9.8C1007.7,88.7,1007.6,88.7,1007.5,88.7z M273.4,88c-0.1,0-0.1,0-0.2-0.1c-0.1-0.1-0.1-0.3,0-0.4
		c3-2.7,5.9-5.6,8.5-8.5c0.1-0.1,0.3-0.1,0.4,0c0.1,0.1,0.1,0.3,0,0.4c-2.6,2.9-5.5,5.8-8.5,8.5C273.5,87.9,273.4,88,273.4,88z
		 M482.7,81.6c-0.1,0-0.2,0-0.2-0.1c-0.1-0.1,0-0.3,0.1-0.3c3.5-1.9,7.1-3.8,10.6-5.6c0.1-0.1,0.3,0,0.3,0.1c0.1,0.1,0,0.3-0.1,0.3
		c-3.5,1.8-7.1,3.7-10.6,5.6C482.8,81.6,482.7,81.6,482.7,81.6z M262.7,76.8c-0.1,0-0.2,0-0.2-0.1l-5.6-10.6c-0.1-0.1,0-0.3,0.1-0.3
		c0.1-0.1,0.3,0,0.3,0.1l5.6,10.6c0.1,0.1,0,0.3-0.1,0.3C262.8,76.8,262.8,76.8,262.7,76.8z M664.2,71.3c-0.1,0-0.2-0.1-0.2-0.2
		c-1.2-3.4-2.7-6.7-4.5-9.6c-0.2-0.4-0.4-0.7-0.7-1.1c-0.1-0.1,0-0.3,0.1-0.3c0.1-0.1,0.3,0,0.3,0.1c0.2,0.4,0.5,0.7,0.7,1.1
		c1.8,3,3.4,6.3,4.6,9.7C664.5,71.1,664.4,71.2,664.2,71.3C664.3,71.3,664.2,71.3,664.2,71.3z M504.1,70.7c-0.1,0-0.2-0.1-0.2-0.1
		c-0.1-0.1,0-0.3,0.1-0.3c3.6-1.7,7.3-3.4,10.9-5c0.1-0.1,0.3,0,0.3,0.1c0.1,0.1,0,0.3-0.1,0.3c-3.6,1.6-7.3,3.3-10.9,5
		C504.1,70.7,504.1,70.7,504.1,70.7z M289.4,70.1c-0.1,0-0.1,0-0.1,0c-0.1-0.1-0.1-0.2-0.1-0.3c2.4-3.3,4.5-6.7,6.3-10.1
		c0.1-0.1,0.2-0.2,0.3-0.1c0.1,0.1,0.2,0.2,0.1,0.3c-1.8,3.5-4,6.9-6.4,10.2C289.5,70.1,289.5,70.1,289.4,70.1z M1022.1,69.7
		c-0.1,0-0.1,0-0.2-0.1c-0.1-0.1-0.1-0.3,0-0.4c2.7-2.9,5.5-5.7,8.5-8.5c0.1-0.1,0.3-0.1,0.4,0c0.1,0.1,0.1,0.3,0,0.4
		c-3,2.7-5.8,5.6-8.5,8.5C1022.3,69.7,1022.2,69.7,1022.1,69.7z M526,60.9c-0.1,0-0.2-0.1-0.2-0.2c-0.1-0.1,0-0.3,0.1-0.3
		c3.7-1.5,7.4-3,11.1-4.5c0.1,0,0.3,0,0.3,0.1c0,0.1,0,0.3-0.1,0.3C533.5,57.8,529.7,59.3,526,60.9C526,60.9,526,60.9,526,60.9z
		 M251.5,55.6c-0.1,0-0.2,0-0.2-0.1l-5.6-10.6c-0.1-0.1,0-0.3,0.1-0.3c0.1-0.1,0.3,0,0.3,0.1l5.6,10.6c0.1,0.1,0,0.3-0.1,0.3
		C251.6,55.6,251.6,55.6,251.5,55.6z M1039.7,53.5c-0.1,0-0.1,0-0.2-0.1c-0.1-0.1-0.1-0.3,0-0.4c3-2.4,6.3-4.8,9.6-7.2
		c0.1-0.1,0.3-0.1,0.3,0.1c0.1,0.1,0.1,0.3-0.1,0.3c-3.3,2.4-6.6,4.8-9.6,7.2C1039.8,53.4,1039.8,53.5,1039.7,53.5z M548.4,52.3
		c-0.1,0-0.2-0.1-0.2-0.2c0-0.1,0-0.3,0.2-0.3c3.8-1.3,7.6-2.6,11.4-3.9c0.1,0,0.3,0,0.3,0.2c0,0.1,0,0.3-0.2,0.3
		C556,49.6,552.2,50.9,548.4,52.3C548.4,52.3,548.4,52.3,548.4,52.3z M651.3,51.3c-0.1,0-0.1,0-0.2-0.1c-2.9-2.7-6.2-4.9-9.8-6.8
		c-0.1-0.1-0.2-0.2-0.1-0.3c0.1-0.1,0.2-0.2,0.3-0.1c3.6,1.9,6.9,4.2,9.9,6.9c0.1,0.1,0.1,0.3,0,0.4
		C651.4,51.3,651.4,51.3,651.3,51.3z M300.6,49C300.6,49,300.6,49,300.6,49c-0.2-0.1-0.3-0.2-0.2-0.3c1.4-3.8,2.4-7.6,3.2-11.5
		c0-0.1,0.2-0.2,0.3-0.2c0.1,0,0.2,0.2,0.2,0.3c-0.8,3.9-1.9,7.8-3.2,11.6C300.8,49,300.7,49,300.6,49z M571.2,44.9
		c-0.1,0-0.2-0.1-0.2-0.2c0-0.1,0-0.3,0.2-0.3c1.7-0.5,3.5-1,5.2-1.5c2.1-0.6,4.3-1.2,6.4-1.7c0.1,0,0.3,0.1,0.3,0.2
		c0,0.1-0.1,0.3-0.2,0.3c-2.1,0.5-4.3,1.1-6.4,1.7C574.7,43.9,573,44.4,571.2,44.9C571.2,44.9,571.2,44.9,571.2,44.9z M630.3,40.3
		C630.3,40.3,630.2,40.3,630.3,40.3c-3.7-1-7.7-1.6-11.8-2c-0.1,0-0.2-0.1-0.2-0.3s0.1-0.2,0.3-0.2c4.2,0.3,8.2,1,11.9,2
		c0.1,0,0.2,0.2,0.2,0.3C630.5,40.2,630.4,40.3,630.3,40.3z M1059.3,39.6c-0.1,0-0.2,0-0.2-0.1c-0.1-0.1,0-0.3,0.1-0.3
		c3.2-2.1,6.7-4.1,10.3-6.2c0.1-0.1,0.3,0,0.3,0.1c0.1,0.1,0,0.3-0.1,0.3c-3.6,2.1-7,4.2-10.3,6.2
		C1059.4,39.6,1059.3,39.6,1059.3,39.6z M594.5,39.4c-0.1,0-0.2-0.1-0.2-0.2c0-0.1,0.1-0.3,0.2-0.3c4.1-0.6,8.1-1,12-1.2
		c0.2,0,0.3,0.1,0.3,0.2c0,0.1-0.1,0.3-0.2,0.3C602.7,38.4,598.7,38.8,594.5,39.4C594.6,39.4,594.5,39.4,594.5,39.4z M240.3,34.4
		c-0.1,0-0.2,0-0.2-0.1c-1.6-3-3.5-7-4.4-11.2c0-0.1,0.1-0.3,0.2-0.3c0.1,0,0.3,0.1,0.3,0.2c0.9,4.1,2.8,8.1,4.3,11.1
		c0.1,0.1,0,0.3-0.1,0.3C240.4,34.4,240.4,34.4,240.3,34.4z M1080,27.5c-0.1,0-0.2,0-0.2-0.1c-0.1-0.1,0-0.3,0.1-0.3
		c3.2-1.8,6.7-3.6,10.6-5.6c0.1-0.1,0.3,0,0.3,0.1c0.1,0.1,0,0.3-0.1,0.3c-3.9,2-7.4,3.8-10.6,5.6
		C1080.1,27.5,1080.1,27.5,1080,27.5z M305.2,25.6C305.2,25.6,305.2,25.6,305.2,25.6c-0.1,0-0.3-0.1-0.2-0.3c0-0.4,0-0.8,0-1.2
		c0-0.5,0-1,0-1.5c0-3.8-0.5-6.7-1.5-9c-0.1-0.1,0-0.3,0.1-0.3c0.1-0.1,0.3,0,0.3,0.1c1,2.4,1.6,5.4,1.6,9.2c0,0.5,0,1,0,1.5
		c0,0.4,0,0.8,0,1.2C305.5,25.5,305.4,25.6,305.2,25.6z M1101.3,16.4c-3.7-1.5-7.5-2.9-11.2-4.1c-0.1,0-0.2-0.2-0.2-0.3
		c0-0.1,0.2-0.2,0.3-0.2c3.8,1.2,7.6,2.6,11.3,4.1c0.1,0,0.2,0.1,0.2,0.2c0,0.1,0,0.2-0.1,0.2l-0.1-0.2L1101.3,16.4z M1101.2,16
		l0.1,0.2L1101.2,16z M237.2,11.6c0,0-0.1,0-0.1,0c-0.1-0.1-0.2-0.2-0.1-0.3c1.9-3.4,5.2-5.7,9.7-6.8c0.1,0,0.3,0,0.3,0.2
		c0,0.1,0,0.3-0.2,0.3c-4.4,1.1-7.6,3.3-9.4,6.5C237.4,11.5,237.3,11.6,237.2,11.6z M1078.6,9C1078.6,9,1078.6,9,1078.6,9
		c-3.9-1-7.9-1.8-11.8-2.6c-0.1,0-0.2-0.2-0.2-0.3c0-0.1,0.2-0.2,0.3-0.2c3.9,0.7,7.9,1.6,11.7,2.6c0.1,0,0.2,0.2,0.2,0.3
		C1078.8,8.9,1078.7,9,1078.6,9z M294.6,6.8C294.6,6.8,294.6,6.8,294.6,6.8c-2.1-0.5-4.2-0.6-6.2-0.8l-5.7-0.4
		c-0.1,0-0.2-0.1-0.2-0.3c0-0.1,0.1-0.3,0.3-0.2l5.7,0.4c2,0.1,4.2,0.3,6.2,0.8c0.1,0,0.2,0.2,0.2,0.3
		C294.8,6.8,294.7,6.8,294.6,6.8z M1002.1,6.6c-0.1,0-0.2-0.1-0.2-0.2c0-0.1,0.1-0.3,0.2-0.3c1.7-0.3,3.4-0.6,5.1-0.9
		c0.1,0,0.3,0.1,0.3,0.2c0,0.1-0.1,0.3-0.2,0.3C1005.5,6,1003.8,6.3,1002.1,6.6C1002.2,6.6,1002.2,6.6,1002.1,6.6z M270.7,5
		C270.7,5,270.7,5,270.7,5l-12-0.7c-0.1,0-0.2-0.1-0.2-0.3c0-0.1,0.1-0.2,0.3-0.2l12,0.7c0.1,0,0.2,0.1,0.2,0.3
		C270.9,4.9,270.8,5,270.7,5z M1055,4.7C1055,4.7,1055,4.7,1055,4.7c-4-0.5-8-0.8-12-1c-0.1,0-0.2-0.1-0.2-0.3
		c0-0.1,0.1-0.2,0.3-0.2c4,0.2,8,0.5,12,1c0.1,0,0.2,0.1,0.2,0.3C1055.3,4.6,1055.2,4.7,1055,4.7z M1019.1,4.2
		c-0.1,0-0.2-0.1-0.2-0.2c0-0.1,0.1-0.3,0.2-0.3c4-0.4,8-0.6,12-0.7c0,0,0,0,0,0c0.1,0,0.2,0.1,0.2,0.2c0,0.1-0.1,0.3-0.2,0.3
		C1027.1,3.7,1023.1,3.9,1019.1,4.2C1019.1,4.2,1019.1,4.2,1019.1,4.2z"/>
</g>
<g>
	<path class="st0" d="M1397.9,490.9c-0.9,0-1.9,0-2.8,0c-0.1,0-0.2-0.1-0.2-0.3c0-0.1,0.1-0.2,0.2-0.2c0,0,0,0,0,0
		c1.9,0,3.9,0,5.8,0c0,0,0,0,0,0c0.1,0,0.2,0.1,0.2,0.2s-0.1,0.3-0.2,0.3C1400,490.9,1399,490.9,1397.9,490.9z M1383.1,490.7
		C1383.1,490.7,1383.1,490.7,1383.1,490.7c-4-0.2-8-0.4-12-0.7c-0.1,0-0.2-0.1-0.2-0.3c0-0.1,0.1-0.3,0.3-0.2c4,0.3,8,0.5,12,0.7
		c0.1,0,0.2,0.1,0.2,0.3C1383.4,490.5,1383.3,490.7,1383.1,490.7z M1359.2,488.9C1359.2,488.9,1359.2,488.9,1359.2,488.9
		c-4-0.4-8-0.9-11.9-1.5c-0.1,0-0.2-0.1-0.2-0.3c0-0.1,0.1-0.2,0.3-0.2c3.9,0.5,7.9,1,11.9,1.4c0.1,0,0.2,0.1,0.2,0.3
		C1359.4,488.8,1359.3,488.9,1359.2,488.9z M1335.4,485.6C1335.4,485.6,1335.4,485.6,1335.4,485.6c-3.2-0.5-6.4-1.1-9.5-1.8
		c-0.8-0.2-1.6-0.3-2.3-0.5c-0.1,0-0.2-0.2-0.2-0.3c0-0.1,0.2-0.2,0.3-0.2c0.8,0.2,1.6,0.3,2.3,0.5c3.1,0.6,6.3,1.2,9.5,1.7
		c0.1,0,0.2,0.2,0.2,0.3C1335.7,485.5,1335.6,485.6,1335.4,485.6z M1312,480.5C1312,480.5,1311.9,480.5,1312,480.5
		c-4.1-1.2-7.9-2.5-11.5-3.9c-0.1-0.1-0.2-0.2-0.1-0.3c0.1-0.1,0.2-0.2,0.3-0.1c3.5,1.4,7.3,2.7,11.3,3.8c0.1,0,0.2,0.2,0.2,0.3
		C1312.2,480.4,1312.1,480.5,1312,480.5z M1289.8,471.5c0,0-0.1,0-0.1,0c-3.7-2.1-7-4.3-9.9-6.8c-0.1-0.1-0.1-0.2,0-0.4
		c0.1-0.1,0.2-0.1,0.4,0c2.9,2.4,6.2,4.7,9.9,6.7c0.1,0.1,0.2,0.2,0.1,0.3C1290,471.5,1289.9,471.5,1289.8,471.5z M1271.7,456.1
		c-0.1,0-0.2,0-0.2-0.1c-2.1-2.9-3.9-6-5.2-9.3c-0.2-0.4-0.3-0.9-0.5-1.3c0-0.1,0-0.3,0.1-0.3c0.1,0,0.3,0,0.3,0.2
		c0.2,0.4,0.3,0.9,0.5,1.3c1.3,3.2,3,6.3,5.1,9.2c0.1,0.1,0.1,0.3-0.1,0.3C1271.8,456.1,1271.7,456.1,1271.7,456.1z M1263.5,433.9
		c-0.1,0-0.2-0.1-0.2-0.2c-0.2-1.8-0.2-3.6-0.2-5.4c0-2.1,0.1-4.3,0.3-6.6c0-0.1,0.1-0.2,0.3-0.2c0.1,0,0.2,0.1,0.2,0.3
		c-0.2,2.3-0.3,4.5-0.3,6.5c0,1.8,0.1,3.7,0.2,5.4C1263.7,433.7,1263.6,433.8,1263.5,433.9C1263.5,433.9,1263.5,433.9,1263.5,433.9z
		 M978.4,433.6c-2.4,0-4.9,0-7.3-0.1c-0.1,0-0.2-0.1-0.2-0.3c0-0.1,0.1-0.2,0.2-0.2c0,0,0,0,0,0c4,0.1,8,0.1,12,0.1c0,0,0,0,0,0
		c0.1,0,0.2,0.1,0.2,0.2c0,0.1-0.1,0.3-0.2,0.3C981.5,433.6,979.9,433.6,978.4,433.6z M995,433.1c-0.1,0-0.2-0.1-0.2-0.2
		c0-0.1,0.1-0.3,0.2-0.3c4-0.3,8-0.6,11.9-1c0.1,0,0.3,0.1,0.3,0.2c0,0.1-0.1,0.3-0.2,0.3C1003.1,432.5,999.1,432.9,995,433.1
		C995,433.1,995,433.1,995,433.1z M959.1,433C959.1,433,959.1,433,959.1,433c-4-0.3-8-0.6-12-1c-0.1,0-0.2-0.1-0.2-0.3
		c0-0.1,0.1-0.2,0.3-0.2c4,0.4,8,0.8,11.9,1c0.1,0,0.2,0.1,0.2,0.3C959.3,432.9,959.2,433,959.1,433z M935.2,430.5
		C935.2,430.5,935.2,430.5,935.2,430.5c-1-0.1-1.9-0.3-2.9-0.4c-3.1-0.5-6.1-1-9-1.5c-0.1,0-0.2-0.2-0.2-0.3c0-0.1,0.1-0.2,0.3-0.2
		c2.9,0.5,5.9,1,9,1.5c0.9,0.1,1.9,0.3,2.8,0.4c0.1,0,0.2,0.1,0.2,0.3C935.4,430.4,935.3,430.5,935.2,430.5z M1018.9,430.4
		c-0.1,0-0.2-0.1-0.2-0.2c0-0.1,0.1-0.3,0.2-0.3c4-0.7,7.9-1.4,11.8-2.3c0.1,0,0.3,0.1,0.3,0.2c0,0.1-0.1,0.3-0.2,0.3
		C1026.9,429,1022.9,429.8,1018.9,430.4C1018.9,430.4,1018.9,430.4,1018.9,430.4z M911.6,426.2C911.6,426.2,911.6,426.2,911.6,426.2
		c-4-0.9-8-1.9-11.7-3c-0.1,0-0.2-0.2-0.2-0.3c0-0.1,0.2-0.2,0.3-0.2c3.7,1.1,7.6,2.1,11.6,3c0.1,0,0.2,0.2,0.2,0.3
		C911.8,426.1,911.7,426.2,911.6,426.2z M1042.3,425.2c-0.1,0-0.2-0.1-0.2-0.2c0-0.1,0-0.3,0.2-0.3c1.9-0.5,3.8-1.1,5.7-1.7
		c1.9-0.6,3.9-1.3,5.8-1.9c0.1,0,0.3,0,0.3,0.2c0,0.1,0,0.3-0.2,0.3c-1.9,0.7-3.8,1.3-5.8,1.9C1046.2,424,1044.2,424.6,1042.3,425.2
		C1042.3,425.2,1042.3,425.2,1042.3,425.2z M888.5,419.5C888.5,419.5,888.5,419.5,888.5,419.5c-3.9-1.4-7.7-2.9-11.3-4.4
		c-0.1-0.1-0.2-0.2-0.1-0.3s0.2-0.2,0.3-0.1c3.6,1.5,7.3,3,11.1,4.4c0.1,0,0.2,0.2,0.2,0.3C888.7,419.5,888.6,419.5,888.5,419.5z
		 M1064.9,417.1c-0.1,0-0.2-0.1-0.2-0.2c-0.1-0.1,0-0.3,0.1-0.3c3.7-1.6,7.3-3.3,10.8-5.1c0.1-0.1,0.3,0,0.3,0.1
		c0.1,0.1,0,0.3-0.1,0.3C1072.3,413.8,1068.7,415.5,1064.9,417.1C1065,417.1,1064.9,417.1,1064.9,417.1z M1265.4,410
		C1265.4,410,1265.4,410,1265.4,410c-0.2,0-0.3-0.2-0.2-0.3c0.7-3.2,1.5-6.6,2.6-10.7l0.2-0.9c0-0.1,0.2-0.2,0.3-0.2
		c0.1,0,0.2,0.2,0.2,0.3l-0.2,0.9c-1.1,4.1-1.9,7.5-2.6,10.7C1265.6,409.9,1265.5,410,1265.4,410z M866.6,409.9c0,0-0.1,0-0.1,0
		c-3.6-1.9-7.1-4-10.3-6.1c-0.1-0.1-0.1-0.2-0.1-0.3s0.2-0.1,0.3-0.1c3.3,2.1,6.7,4.2,10.3,6.1c0.1,0.1,0.2,0.2,0.1,0.3
		C866.8,409.9,866.7,409.9,866.6,409.9z M1086.2,406.2c-0.1,0-0.2,0-0.2-0.1c-0.1-0.1,0-0.3,0.1-0.3c3.4-2.1,6.8-4.2,10.1-6.5
		c0.1-0.1,0.3-0.1,0.3,0.1s0.1,0.3-0.1,0.3c-3.2,2.3-6.6,4.5-10.1,6.5C1086.3,406.2,1086.3,406.2,1086.2,406.2z M846.6,396.7
		c-0.1,0-0.1,0-0.2-0.1c-3-2.4-5.9-5-8.5-7.7l-0.3-0.4c-0.1-0.1-0.1-0.3,0-0.4c0.1-0.1,0.3-0.1,0.4,0l0.3,0.3
		c2.7,2.7,5.5,5.3,8.5,7.7c0.1,0.1,0.1,0.2,0,0.4C846.7,396.7,846.7,396.7,846.6,396.7z M1105.9,392.5c-0.1,0-0.1,0-0.2-0.1
		c-0.1-0.1-0.1-0.3,0-0.4c3.1-2.5,6.1-5.2,9-7.9c0.1-0.1,0.3-0.1,0.4,0c0.1,0.1,0.1,0.3,0,0.4c-2.9,2.7-5.9,5.4-9,7.9
		C1106,392.5,1105.9,392.5,1105.9,392.5z M1271.7,386.9C1271.6,386.9,1271.6,386.8,1271.7,386.9c-0.2-0.1-0.3-0.2-0.2-0.3
		c1.3-4.1,2.6-7.8,4-11.3c0.1-0.1,0.2-0.2,0.3-0.1c0.1,0.1,0.2,0.2,0.1,0.3c-1.4,3.5-2.7,7.2-4,11.3
		C1271.9,386.8,1271.8,386.9,1271.7,386.9z M831.4,378.7c-0.1,0-0.2-0.1-0.2-0.2c-0.2-1-0.3-2.1-0.3-3.1c0-2.6,0.6-5.4,1.9-8.7
		c0-0.1,0.2-0.2,0.3-0.1c0.1,0,0.2,0.2,0.1,0.3c-1.3,3.3-1.8,6-1.8,8.6c0,1,0.1,2.1,0.3,3C831.6,378.5,831.6,378.6,831.4,378.7
		C831.4,378.7,831.4,378.7,831.4,378.7z M1123.3,376c-0.1,0-0.1,0-0.2-0.1c-0.1-0.1-0.1-0.3,0-0.4c2.7-3,5.2-6.1,7.6-9.2
		c0.1-0.1,0.2-0.1,0.3,0c0.1,0.1,0.1,0.2,0,0.3c-2.4,3.2-5,6.3-7.6,9.3C1123.4,375.9,1123.3,376,1123.3,376z M1280.6,364.6
		c0,0-0.1,0-0.1,0c-0.1-0.1-0.2-0.2-0.1-0.3c1.9-3.7,3.9-7.2,6.1-10.4c0.1-0.1,0.2-0.1,0.3-0.1c0.1,0.1,0.1,0.2,0.1,0.3
		c-2.1,3.2-4.2,6.6-6.1,10.3C1280.8,364.6,1280.7,364.6,1280.6,364.6z M1137.7,356.8c0,0-0.1,0-0.1,0c-0.1-0.1-0.2-0.2-0.1-0.3
		c0.5-0.8,0.9-1.5,1.4-2.3c1.6-2.6,3.1-5.3,4.5-8.1c0.1-0.1,0.2-0.2,0.3-0.1c0.1,0.1,0.2,0.2,0.1,0.3c-1.5,2.8-3,5.6-4.5,8.2
		c-0.5,0.8-0.9,1.5-1.4,2.3C1137.9,356.8,1137.8,356.8,1137.7,356.8z M838,356.1c0,0-0.1,0-0.1,0c-0.1-0.1-0.2-0.2-0.1-0.3
		c1.8-3.3,3.8-6.7,6.1-10.3c0.1-0.1,0.2-0.2,0.3-0.1c0.1,0.1,0.2,0.2,0.1,0.3c-2.3,3.6-4.3,7-6.1,10.3
		C838.1,356,838,356.1,838,356.1z M1294.1,344.9c-0.1,0-0.1,0-0.2-0.1c-0.1-0.1-0.1-0.3,0-0.4c1.3-1.4,2.6-2.7,4-3.9
		c1.5-1.4,3.1-2.7,4.9-4.2c0.1-0.1,0.3-0.1,0.4,0c0.1,0.1,0.1,0.3,0,0.4c-1.8,1.4-3.4,2.8-4.9,4.1c-1.3,1.2-2.7,2.5-3.9,3.9
		C1294.3,344.9,1294.2,344.9,1294.1,344.9z M850.8,335.8c0,0-0.1,0-0.1,0c-0.1-0.1-0.1-0.2-0.1-0.3c1.8-2.6,3.7-5.2,5.5-7.7l1.5-2.1
		c0.1-0.1,0.2-0.1,0.3-0.1c0.1,0.1,0.1,0.2,0.1,0.3l-1.5,2.1c-1.8,2.5-3.7,5.1-5.5,7.7C850.9,335.8,850.9,335.8,850.8,335.8z
		 M1148.8,335.6C1148.7,335.6,1148.7,335.6,1148.8,335.6c-0.2-0.1-0.3-0.2-0.2-0.3c1.5-3.5,3-7.1,4.5-11.1c0-0.1,0.2-0.2,0.3-0.1
		c0.1,0,0.2,0.2,0.1,0.3c-1.5,4-2.9,7.6-4.5,11.1C1148.9,335.5,1148.9,335.6,1148.8,335.6z M1312.8,329.9c-0.1,0-0.2,0-0.2-0.1
		c-0.1-0.1,0-0.3,0.1-0.3c2.3-1.5,4.7-3,7-4.5c1-0.7,2.1-1.3,3.1-2c0.1-0.1,0.3,0,0.3,0.1c0.1,0.1,0,0.3-0.1,0.3
		c-1,0.7-2.1,1.3-3.1,2c-2.3,1.5-4.7,3-7,4.5C1312.9,329.9,1312.8,329.9,1312.8,329.9z M1332.9,316.7c-0.1,0-0.2,0-0.2-0.1
		c-0.1-0.1-0.1-0.3,0.1-0.3c3.7-2.6,6.7-5.1,9.2-7.6c0.1-0.1,0.3-0.1,0.4,0c0.1,0.1,0.1,0.3,0,0.4c-2.6,2.5-5.6,5-9.3,7.6
		C1333,316.7,1332.9,316.7,1332.9,316.7z M864.7,316.2c0,0-0.1,0-0.1,0c-0.1-0.1-0.1-0.2-0.1-0.3c2.1-3,3.9-5.8,5.5-8.4
		c0.3-0.5,0.7-1.1,1-1.6c0.1-0.1,0.2-0.2,0.3-0.1c0.1,0.1,0.2,0.2,0.1,0.3c-0.3,0.6-0.7,1.1-1,1.7c-1.6,2.6-3.4,5.4-5.5,8.4
		C864.9,316.2,864.8,316.2,864.7,316.2z M1157.2,313.1C1157.2,313.1,1157.1,313.1,1157.2,313.1c-0.2-0.1-0.3-0.2-0.2-0.3
		c1.1-3.4,2.3-7,3.6-11.4c0-0.1,0.2-0.2,0.3-0.2c0.1,0,0.2,0.2,0.2,0.3c-1.4,4.4-2.5,8.1-3.6,11.4
		C1157.4,313,1157.3,313.1,1157.2,313.1z M1349.7,299.8c0,0-0.1,0-0.1,0c-0.1-0.1-0.2-0.2-0.1-0.3c1.9-3.1,3.3-6.4,4.2-9.8
		c0.1-0.4,0.2-0.8,0.3-1.2c0-0.1,0.2-0.2,0.3-0.2c0.1,0,0.2,0.2,0.2,0.3c-0.1,0.4-0.2,0.8-0.3,1.2c-0.9,3.4-2.4,6.8-4.3,9.9
		C1349.9,299.8,1349.8,299.8,1349.7,299.8z M876.8,295.5c0,0-0.1,0-0.1,0c-0.1-0.1-0.2-0.2-0.1-0.3c1.7-3.7,3.2-7.5,4.4-11.1
		c0-0.1,0.2-0.2,0.3-0.2c0.1,0,0.2,0.2,0.2,0.3c-1.2,3.7-2.7,7.4-4.4,11.2C877,295.5,876.9,295.5,876.8,295.5z M1164.3,290.2
		C1164.3,290.2,1164.3,290.2,1164.3,290.2c-0.2-0.1-0.3-0.2-0.2-0.3c1.1-3.7,2.3-7.6,3.5-11.5c0-0.1,0.2-0.2,0.3-0.2
		c0.1,0,0.2,0.2,0.2,0.3c-1.2,3.9-2.4,7.8-3.5,11.5C1164.5,290.1,1164.4,290.2,1164.3,290.2z M1355.1,276.9c-0.1,0-0.2-0.1-0.2-0.2
		c-0.2-3.5-0.8-7.4-1.8-11.8c0-0.1,0.1-0.3,0.2-0.3c0.1,0,0.3,0.1,0.3,0.2c1,4.4,1.6,8.3,1.8,11.9
		C1355.4,276.7,1355.3,276.9,1355.1,276.9C1355.1,276.9,1355.1,276.9,1355.1,276.9z M884.1,272.8
		C884.1,272.8,884.1,272.8,884.1,272.8c-0.2,0-0.3-0.2-0.2-0.3c0.6-3.5,0.9-6.9,0.9-10.1c0-0.6,0-1.2,0-1.8c0-0.1,0.1-0.3,0.2-0.3
		c0.1,0,0.3,0.1,0.3,0.2c0,0.6,0,1.2,0,1.8c0,3.3-0.3,6.7-0.9,10.2C884.4,272.7,884.3,272.8,884.1,272.8z M1171.5,267.3
		C1171.5,267.3,1171.5,267.3,1171.5,267.3c-0.2-0.1-0.3-0.2-0.2-0.3c1.4-4.1,2.7-7.8,4.1-11.3c0-0.1,0.2-0.2,0.3-0.1
		c0.1,0,0.2,0.2,0.1,0.3c-1.3,3.5-2.7,7.2-4.1,11.3C1171.7,267.2,1171.6,267.3,1171.5,267.3z M1350.3,253.4c-0.1,0-0.2-0.1-0.2-0.2
		c-1.1-3.8-2.2-7.7-3.3-11.5c0-0.1,0-0.3,0.2-0.3c0.1,0,0.3,0,0.3,0.2c1.1,3.8,2.2,7.7,3.3,11.5
		C1350.6,253.2,1350.5,253.4,1350.3,253.4C1350.4,253.4,1350.3,253.4,1350.3,253.4z M883.2,249c-0.1,0-0.2-0.1-0.2-0.2
		c-0.5-1.8-1.1-3.6-1.8-5.3c-0.8-1.9-1.7-3.8-2.8-5.7c-0.1-0.1,0-0.3,0.1-0.3c0.1-0.1,0.3,0,0.3,0.1c1.1,1.9,2,3.8,2.8,5.8
		c0.7,1.7,1.3,3.5,1.8,5.3C883.5,248.8,883.4,248.9,883.2,249C883.3,249,883.2,249,883.2,249z M1180.2,244.9c0,0-0.1,0-0.1,0
		c-0.1-0.1-0.2-0.2-0.1-0.3c1.7-3.8,3.5-7.4,5.3-10.8c0.1-0.1,0.2-0.2,0.3-0.1c0.1,0.1,0.2,0.2,0.1,0.3c-1.8,3.4-3.6,7-5.3,10.7
		C1180.4,244.9,1180.3,244.9,1180.2,244.9z M1343.6,230.4c-0.1,0-0.2-0.1-0.2-0.2c-1.1-3.8-2.3-7.6-3.5-11.5c0-0.1,0-0.3,0.2-0.3
		c0.1,0,0.3,0,0.3,0.2c1.2,3.8,2.4,7.7,3.5,11.5C1343.9,230.2,1343.8,230.3,1343.6,230.4C1343.6,230.4,1343.6,230.4,1343.6,230.4z
		 M871.5,228.3c-0.1,0-0.1,0-0.2-0.1c-2.4-2.8-5.2-5.5-8.5-8.4c-0.1-0.1-0.1-0.2,0-0.4c0.1-0.1,0.2-0.1,0.4,0
		c3.3,2.9,6.1,5.7,8.5,8.5c0.1,0.1,0.1,0.3,0,0.4C871.6,228.2,871.6,228.3,871.5,228.3z M1191.6,223.9c0,0-0.1,0-0.1,0
		c-0.1-0.1-0.1-0.2-0.1-0.3c1.1-1.7,2.2-3.3,3.4-4.9c1.2-1.6,2.4-3.2,3.7-4.8c0.1-0.1,0.2-0.1,0.4,0c0.1,0.1,0.1,0.2,0,0.4
		c-1.3,1.6-2.5,3.2-3.7,4.8c-1.1,1.6-2.3,3.2-3.4,4.8C1191.8,223.8,1191.7,223.9,1191.6,223.9z M853.7,212.2c-0.1,0-0.1,0-0.2-0.1
		l-1-0.8c-2.8-2.2-5.7-4.3-8.5-6.4c-0.1-0.1-0.1-0.2-0.1-0.3c0.1-0.1,0.2-0.1,0.4-0.1c2.8,2.1,5.7,4.3,8.5,6.4l1,0.8
		c0.1,0.1,0.1,0.2,0,0.4C853.9,212.2,853.8,212.2,853.7,212.2z M1336.4,207.5c-0.1,0-0.2-0.1-0.2-0.2c-1.2-3.8-2.5-7.7-3.7-11.4
		c0-0.1,0-0.3,0.2-0.3c0.1,0,0.3,0,0.3,0.2c1.2,3.7,2.5,7.6,3.7,11.4C1336.7,207.3,1336.6,207.4,1336.4,207.5
		C1336.5,207.5,1336.5,207.5,1336.4,207.5z M1206.8,205.3c-0.1,0-0.1,0-0.2-0.1c-0.1-0.1-0.1-0.3,0-0.4c2.8-2.8,5.7-5.5,8.8-8.2
		c0.1-0.1,0.3-0.1,0.4,0c0.1,0.1,0.1,0.3,0,0.4c-3.1,2.6-6,5.3-8.8,8.1C1206.9,205.3,1206.8,205.3,1206.8,205.3z M834.5,197.9
		c0,0-0.1,0-0.1,0c-3.2-2.3-6.6-4.6-9.9-6.8c-0.1-0.1-0.1-0.2-0.1-0.3c0.1-0.1,0.2-0.1,0.3-0.1c3.3,2.2,6.6,4.5,9.9,6.8
		c0.1,0.1,0.1,0.2,0.1,0.3C834.6,197.8,834.6,197.9,834.5,197.9z M1225,189.8c-0.1,0-0.2,0-0.2-0.1c-0.1-0.1-0.1-0.3,0.1-0.3
		c3.2-2.3,6.5-4.5,10-6.7c0.1-0.1,0.3,0,0.3,0.1c0.1,0.1,0,0.3-0.1,0.3c-3.5,2.2-6.8,4.4-10,6.7
		C1225.1,189.8,1225.1,189.8,1225,189.8z M1328.8,184.7c-0.1,0-0.2-0.1-0.2-0.2c-1.3-3.8-2.6-7.6-4-11.3c0-0.1,0-0.3,0.2-0.3
		c0.1,0,0.3,0,0.3,0.2c1.3,3.7,2.7,7.5,4,11.3C1329.1,184.5,1329,184.6,1328.8,184.7C1328.9,184.7,1328.9,184.7,1328.8,184.7z
		 M814.6,184.4c0,0-0.1,0-0.1,0c-3.3-2.2-6.7-4.3-10.1-6.4c-0.1-0.1-0.2-0.2-0.1-0.3c0.1-0.1,0.2-0.2,0.3-0.1
		c3.4,2.1,6.8,4.3,10.2,6.4c0.1,0.1,0.1,0.2,0.1,0.3C814.8,184.4,814.7,184.4,814.6,184.4z M1245.3,177.1c-0.1,0-0.2,0-0.2-0.1
		c-0.1-0.1,0-0.3,0.1-0.3c3.4-1.8,7-3.7,10.7-5.5c0.1-0.1,0.3,0,0.3,0.1c0.1,0.1,0,0.3-0.1,0.3c-3.7,1.8-7.3,3.6-10.7,5.5
		C1245.4,177.1,1245.4,177.1,1245.3,177.1z M794.2,171.8c0,0-0.1,0-0.1,0c-3.5-2-7-4-10.4-6c-0.1-0.1-0.2-0.2-0.1-0.3
		c0.1-0.1,0.2-0.2,0.3-0.1c3.5,1.9,7,3.9,10.4,6c0.1,0.1,0.2,0.2,0.1,0.3C794.3,171.8,794.3,171.8,794.2,171.8z M1267,166.6
		c-0.1,0-0.2-0.1-0.2-0.2c-0.1-0.1,0-0.3,0.1-0.3c3.5-1.5,7.3-3,11.1-4.5c0.1-0.1,0.3,0,0.3,0.1c0,0.1,0,0.3-0.1,0.3
		C1274.3,163.6,1270.6,165.1,1267,166.6C1267,166.6,1267,166.6,1267,166.6z M1320.5,162.2c-0.1,0-0.2-0.1-0.2-0.1
		c-2.2-4.4-4.7-7.1-8-8.4c-0.1-0.1-0.2-0.2-0.1-0.3s0.2-0.2,0.3-0.1c3.3,1.3,6,4.1,8.2,8.6c0.1,0.1,0,0.3-0.1,0.3
		C1320.6,162.2,1320.6,162.2,1320.5,162.2z M773.2,160.2c0,0-0.1,0-0.1,0c-3.5-1.9-7.1-3.7-10.7-5.5c-0.1-0.1-0.2-0.2-0.1-0.3
		s0.2-0.2,0.3-0.1c3.6,1.8,7.2,3.6,10.7,5.5c0.1,0.1,0.2,0.2,0.1,0.3C773.4,160.1,773.3,160.2,773.2,160.2z M1289.3,157.9
		c-0.1,0-0.2-0.1-0.2-0.2c0-0.1,0-0.3,0.2-0.3c2.6-0.9,5.3-1.9,8.1-2.8c1-0.3,2.1-0.7,3.3-1c0.1,0,0.3,0,0.3,0.2
		c0,0.1,0,0.3-0.2,0.3c-1.2,0.3-2.3,0.7-3.2,1C1294.7,156,1292,157,1289.3,157.9C1289.4,157.9,1289.3,157.9,1289.3,157.9z"/>
</g>
<g>
	<path class="st0" d="M651.9,469.4c-3.5,0-7.1-0.1-10.7-0.2c-0.1,0-0.2-0.1-0.2-0.3c0-0.1,0.1-0.2,0.3-0.2c3.5,0.1,7.1,0.2,10.7,0.2
		l1.3,0c0,0,0,0,0,0c0.1,0,0.2,0.1,0.2,0.2s-0.1,0.2-0.2,0.3L651.9,469.4z M665.2,469.2c-0.1,0-0.2-0.1-0.2-0.2
		c0-0.1,0.1-0.3,0.2-0.3c4-0.1,8-0.4,12-0.6c0.1,0,0.3,0.1,0.3,0.2c0,0.1-0.1,0.3-0.2,0.3C673.2,468.8,669.2,469.1,665.2,469.2
		C665.3,469.2,665.2,469.2,665.2,469.2z M629.3,468.7C629.3,468.7,629.3,468.7,629.3,468.7c-1.4-0.1-2.7-0.2-4.1-0.3
		c-2.6-0.2-5.2-0.4-7.9-0.7c-0.1,0-0.2-0.1-0.2-0.3c0-0.1,0.1-0.2,0.3-0.2c2.7,0.3,5.3,0.5,7.9,0.7c1.4,0.1,2.7,0.2,4.1,0.3
		c0.1,0,0.2,0.1,0.2,0.3C629.5,468.6,629.4,468.7,629.3,468.7z M689.2,467.6c-0.1,0-0.2-0.1-0.2-0.2c0-0.1,0.1-0.3,0.2-0.3
		c4-0.4,8-0.9,11.9-1.4c0.1,0,0.3,0.1,0.3,0.2c0,0.1-0.1,0.3-0.2,0.3C697.2,466.7,693.2,467.2,689.2,467.6
		C689.2,467.6,689.2,467.6,689.2,467.6z M605.4,466.4C605.4,466.4,605.4,466.4,605.4,466.4c-3.8-0.5-7.8-1-11.9-1.6
		c-0.1,0-0.2-0.1-0.2-0.3c0-0.1,0.1-0.2,0.3-0.2c4.1,0.6,8.1,1.2,11.9,1.6c0.1,0,0.2,0.1,0.2,0.3
		C605.6,466.3,605.5,466.4,605.4,466.4z M713,464.4c-0.1,0-0.2-0.1-0.2-0.2c0-0.1,0.1-0.3,0.2-0.3c3.9-0.6,7.9-1.3,11.8-2.1
		c0.1,0,0.3,0.1,0.3,0.2c0,0.1-0.1,0.3-0.2,0.3C720.9,463.1,717,463.8,713,464.4C713,464.4,713,464.4,713,464.4z M581.6,462.9
		C581.6,462.9,581.6,462.9,581.6,462.9c-3.8-0.6-7.8-1.4-11.9-2.1c-0.1,0-0.2-0.2-0.2-0.3c0-0.1,0.2-0.2,0.3-0.2
		c4.1,0.8,8,1.5,11.8,2.1c0.1,0,0.2,0.2,0.2,0.3C581.9,462.8,581.8,462.9,581.6,462.9z M736.5,459.9c-0.1,0-0.2-0.1-0.2-0.2
		c0-0.1,0.1-0.3,0.2-0.3c3.9-0.9,7.8-1.8,11.7-2.8c0.1,0,0.3,0,0.3,0.2s0,0.3-0.2,0.3C744.4,458.1,740.5,459,736.5,459.9
		C736.6,459.9,736.6,459.9,736.5,459.9z M558,458.5C558,458.5,558,458.5,558,458.5c-4-0.8-7.9-1.6-11.8-2.4c-0.1,0-0.2-0.2-0.2-0.3
		c0-0.1,0.2-0.2,0.3-0.2c3.9,0.8,7.8,1.6,11.8,2.4c0.1,0,0.2,0.2,0.2,0.3C558.3,458.4,558.2,458.5,558,458.5z M759.8,454
		c-0.1,0-0.2-0.1-0.2-0.2c0-0.1,0-0.3,0.2-0.3c3.8-1.1,7.7-2.2,11.5-3.4c0.1,0,0.3,0,0.3,0.2s0,0.3-0.2,0.3
		C767.6,451.7,763.7,452.9,759.8,454C759.9,454,759.8,454,759.8,454z M534.5,453.7C534.5,453.7,534.5,453.7,534.5,453.7l-0.3,0
		c-3.8-0.8-7.6-1.6-11.5-2.4c-0.1,0-0.2-0.2-0.2-0.3c0-0.1,0.2-0.2,0.3-0.2c3.9,0.8,7.8,1.7,11.5,2.4l0.2,0c0.1,0,0.2,0.2,0.2,0.3
		C534.8,453.6,534.6,453.7,534.5,453.7z M511.1,448.5C511.1,448.5,511.1,448.5,511.1,448.5c-4.2-1-8-2.1-11.6-3.2
		c-0.1,0-0.2-0.2-0.2-0.3c0-0.1,0.2-0.2,0.3-0.2c3.6,1.1,7.4,2.1,11.6,3.2c0.1,0,0.2,0.2,0.2,0.3
		C511.3,448.5,511.2,448.5,511.1,448.5z M782.8,446.9c-0.1,0-0.2-0.1-0.2-0.2c0-0.1,0-0.3,0.2-0.3c3.8-1.3,7.6-2.6,11.3-4
		c0.1,0,0.3,0,0.3,0.1c0,0.1,0,0.3-0.1,0.3C790.4,444.2,786.6,445.6,782.8,446.9C782.8,446.8,782.8,446.9,782.8,446.9z M488.2,441.5
		C488.1,441.5,488.1,441.5,488.2,441.5c-3.8-1.4-7.5-3-10.9-4.6l-0.3-0.1c-0.1-0.1-0.2-0.2-0.1-0.3c0.1-0.1,0.2-0.2,0.3-0.1l0.3,0.1
		c3.4,1.6,7,3.2,10.7,4.6c0.1,0,0.2,0.2,0.1,0.3C488.4,441.5,488.3,441.5,488.2,441.5z M805.3,438.5c-0.1,0-0.2-0.1-0.2-0.2
		c-0.1-0.1,0-0.3,0.1-0.3c3.7-1.5,7.4-3,11.1-4.6c0.1,0,0.3,0,0.3,0.1c0.1,0.1,0,0.3-0.1,0.3C812.8,435.5,809.1,437.1,805.3,438.5
		C805.4,438.5,805.3,438.5,805.3,438.5z M466.6,431.1c0,0-0.1,0-0.1,0c-3.4-2-6.7-4.2-10-6.6c-0.1-0.1-0.1-0.2-0.1-0.3
		c0.1-0.1,0.2-0.1,0.3-0.1c3.3,2.3,6.7,4.5,10,6.5c0.1,0.1,0.2,0.2,0.1,0.3C466.7,431.1,466.7,431.1,466.6,431.1z M827.4,429.2
		c-0.1,0-0.2-0.1-0.2-0.1c-0.1-0.1,0-0.3,0.1-0.3c3.6-1.6,7.3-3.3,10.9-5.1c0.1-0.1,0.3,0,0.3,0.1c0.1,0.1,0,0.3-0.1,0.3
		c-3.6,1.7-7.3,3.4-10.9,5.1C827.5,429.2,827.4,429.2,827.4,429.2z M849,418.8c-0.1,0-0.2,0-0.2-0.1c-0.1-0.1,0-0.3,0.1-0.3
		c3.5-1.8,7.1-3.7,10.6-5.6c0.1-0.1,0.3,0,0.3,0.1c0.1,0.1,0,0.3-0.1,0.3c-3.5,1.9-7.1,3.8-10.6,5.6
		C849.1,418.7,849.1,418.8,849,418.8z M447,417.3c-0.1,0-0.1,0-0.2-0.1c-3-2.5-6-5.1-9-7.9c-0.1-0.1-0.1-0.3,0-0.4
		c0.1-0.1,0.3-0.1,0.4,0c3,2.8,6,5.4,9,7.9c0.1,0.1,0.1,0.2,0,0.4C447.2,417.3,447.1,417.3,447,417.3z M870.2,407.4
		c-0.1,0-0.2,0-0.2-0.1c-0.1-0.1,0-0.3,0.1-0.3c3.5-1.9,6.9-4,10.4-6c0.1-0.1,0.3,0,0.3,0.1c0.1,0.1,0,0.3-0.1,0.3
		c-3.4,2-6.9,4.1-10.4,6C870.3,407.4,870.2,407.4,870.2,407.4z M429.5,401c-0.1,0-0.1,0-0.2-0.1c-2.7-2.8-5.4-5.7-8.2-8.8
		c-0.1-0.1-0.1-0.3,0-0.4c0.1-0.1,0.3-0.1,0.4,0c2.7,3.1,5.5,6,8.1,8.8c0.1,0.1,0.1,0.3,0,0.4C429.6,400.9,429.5,401,429.5,401z
		 M890.9,395.2c-0.1,0-0.2,0-0.2-0.1c-0.1-0.1,0-0.3,0.1-0.3c3.4-2.1,6.8-4.3,10.1-6.4c0.1-0.1,0.3,0,0.3,0.1c0.1,0.1,0,0.3-0.1,0.3
		c-3.4,2.2-6.8,4.3-10.1,6.4C891,395.2,890.9,395.2,890.9,395.2z M413.5,383.1c-0.1,0-0.1,0-0.2-0.1c-2.4-2.9-5-6.1-7.5-9.4
		c-0.1-0.1-0.1-0.3,0-0.4c0.1-0.1,0.3-0.1,0.4,0c2.6,3.3,5.1,6.4,7.5,9.3c0.1,0.1,0.1,0.3,0,0.4C413.6,383,413.6,383.1,413.5,383.1z
		 M911,382.1c-0.1,0-0.2,0-0.2-0.1c-0.1-0.1,0-0.3,0.1-0.3c3.3-2.2,6.6-4.5,9.9-6.8c0.1-0.1,0.3-0.1,0.3,0.1
		c0.1,0.1,0.1,0.3-0.1,0.3c-3.2,2.3-6.6,4.6-9.9,6.8C911.1,382.1,911.1,382.1,911,382.1z M930.6,368.3c-0.1,0-0.2,0-0.2-0.1
		c-0.1-0.1-0.1-0.3,0.1-0.3c3.2-2.3,6.4-4.8,9.6-7.2c0.1-0.1,0.3-0.1,0.4,0c0.1,0.1,0.1,0.3,0,0.4c-3.2,2.4-6.4,4.8-9.6,7.2
		C930.7,368.3,930.7,368.3,930.6,368.3z M398.7,364.2c-0.1,0-0.2,0-0.2-0.1c-2.2-3-4.6-6.1-7.1-9.6c-0.1-0.1-0.1-0.3,0.1-0.3
		c0.1-0.1,0.3-0.1,0.3,0.1c2.6,3.5,4.9,6.7,7.1,9.6c0.1,0.1,0.1,0.3,0,0.4C398.8,364.2,398.7,364.2,398.7,364.2z M949.7,353.7
		c-0.1,0-0.1,0-0.2-0.1c-0.1-0.1-0.1-0.3,0-0.4c3.1-2.5,6.3-5,9.4-7.5c0.1-0.1,0.3-0.1,0.4,0c0.1,0.1,0.1,0.3,0,0.4
		c-3.1,2.5-6.3,5.1-9.4,7.5C949.8,353.7,949.8,353.7,949.7,353.7z M384.5,344.8c-0.1,0-0.2,0-0.2-0.1c-2-2.7-3.9-5.5-5.9-8.2
		l-1.1-1.6c-0.1-0.1-0.1-0.3,0.1-0.3c0.1-0.1,0.3-0.1,0.3,0.1l1.1,1.6c2,2.7,3.9,5.5,5.9,8.2c0.1,0.1,0.1,0.3-0.1,0.3
		C384.6,344.8,384.6,344.8,384.5,344.8z M968.4,338.6c-0.1,0-0.1,0-0.2-0.1c-0.1-0.1-0.1-0.3,0-0.4c3-2.6,6.1-5.2,9.1-7.8
		c0.1-0.1,0.3-0.1,0.4,0c0.1,0.1,0.1,0.3,0,0.4c-3,2.6-6.1,5.3-9.1,7.8C968.5,338.5,968.4,338.6,968.4,338.6z M370.5,325.3
		c-0.1,0-0.2,0-0.2-0.1c-2.6-3.6-4.9-6.8-7.1-9.7c-0.1-0.1-0.1-0.3,0.1-0.3c0.1-0.1,0.3-0.1,0.3,0.1c2.2,3,4.5,6.1,7.1,9.7
		c0.1,0.1,0.1,0.3-0.1,0.3C370.6,325.3,370.6,325.3,370.5,325.3z M986.5,322.8c-0.1,0-0.1,0-0.2-0.1c-0.1-0.1-0.1-0.3,0-0.4
		c2.9-2.6,5.9-5.3,8.9-8.1c0.1-0.1,0.3-0.1,0.4,0c0.1,0.1,0.1,0.3,0,0.4c-3,2.7-5.9,5.4-8.9,8.1
		C986.6,322.8,986.5,322.8,986.5,322.8z M1004.2,306.5c-0.1,0-0.1,0-0.2-0.1c-0.1-0.1-0.1-0.3,0-0.4c2.9-2.7,5.8-5.5,8.7-8.3
		c0.1-0.1,0.3-0.1,0.4,0c0.1,0.1,0.1,0.3,0,0.4c-2.9,2.8-5.8,5.6-8.7,8.3C1004.3,306.5,1004.2,306.5,1004.2,306.5z M356.3,305.9
		c-0.1,0-0.1,0-0.2-0.1c-2.6-3.4-5-6.5-7.3-9.5c-0.1-0.1-0.1-0.3,0-0.4c0.1-0.1,0.3-0.1,0.4,0c2.4,3,4.8,6.1,7.4,9.5
		c0.1,0.1,0.1,0.3,0,0.4C356.4,305.9,356.3,305.9,356.3,305.9z M1021.4,289.8c-0.1,0-0.1,0-0.2-0.1c-0.1-0.1-0.1-0.3,0-0.4
		c2.8-2.8,5.7-5.7,8.4-8.5c0.1-0.1,0.3-0.1,0.4,0s0.1,0.3,0,0.4c-2.8,2.9-5.6,5.7-8.4,8.5C1021.5,289.8,1021.4,289.8,1021.4,289.8z
		 M341.4,287.1c-0.1,0-0.1,0-0.2-0.1c-2.7-3.2-5.3-6.2-7.9-9c-0.1-0.1-0.1-0.3,0-0.4c0.1-0.1,0.3-0.1,0.4,0c2.6,2.8,5.2,5.9,7.9,9.1
		c0.1,0.1,0.1,0.3,0,0.4C341.5,287.1,341.4,287.1,341.4,287.1z M1038.1,272.6c-0.1,0-0.1,0-0.2-0.1c-0.1-0.1-0.1-0.3,0-0.4
		c2.7-2.9,5.5-5.8,8.2-8.7c0.1-0.1,0.3-0.1,0.4,0c0.1,0.1,0.1,0.3,0,0.4c-2.7,2.9-5.5,5.9-8.2,8.7
		C1038.3,272.6,1038.2,272.6,1038.1,272.6z M325.2,269.4c-0.1,0-0.1,0-0.2-0.1c-2.9-2.9-5.8-5.7-8.6-8.3c-0.1-0.1-0.1-0.2,0-0.4
		s0.3-0.1,0.4,0c2.9,2.6,5.8,5.4,8.7,8.3c0.1,0.1,0.1,0.3,0,0.4C325.4,269.3,325.3,269.4,325.2,269.4z M28,267.9
		c-0.1,0-0.1,0-0.2-0.1c-0.1-0.1-0.1-0.2,0-0.4c2.6-3,5.4-6,8.3-8.7c0.1-0.1,0.3-0.1,0.4,0c0.1,0.1,0.1,0.3,0,0.4
		c-2.9,2.7-5.7,5.6-8.2,8.7C28.2,267.9,28.1,267.9,28,267.9z M1054.5,255c-0.1,0-0.1,0-0.2-0.1c-0.1-0.1-0.1-0.3,0-0.4
		c2.7-3,5.4-6,8-8.9c0.1-0.1,0.3-0.1,0.4,0c0.1,0.1,0.1,0.2,0,0.4c-2.6,3-5.4,6-8,8.9C1054.7,255,1054.6,255,1054.5,255z
		 M307.5,253.3c-0.1,0-0.1,0-0.2-0.1c-3.2-2.5-6.4-4.9-9.6-7.1c-0.1-0.1-0.1-0.2-0.1-0.3c0.1-0.1,0.2-0.1,0.3-0.1
		c3.2,2.2,6.5,4.6,9.6,7.2c0.1,0.1,0.1,0.2,0,0.4C307.6,253.2,307.5,253.3,307.5,253.3z M45.4,251.4c-0.1,0-0.1,0-0.2-0.1
		c-0.1-0.1-0.1-0.3,0-0.4c3.1-2.4,6.5-4.7,9.9-6.8c0.1-0.1,0.3,0,0.3,0.1c0.1,0.1,0,0.3-0.1,0.3c-3.4,2.1-6.7,4.4-9.9,6.8
		C45.5,251.4,45.4,251.4,45.4,251.4z M287.7,239.7c0,0-0.1,0-0.1,0c-2.1-1.2-4.3-2.4-6.4-3.5c-1.4-0.7-2.8-1.4-4.2-2
		c-0.1-0.1-0.2-0.2-0.1-0.3c0.1-0.1,0.2-0.2,0.3-0.1c1.4,0.6,2.8,1.3,4.2,2c2.2,1.1,4.3,2.3,6.5,3.5c0.1,0.1,0.2,0.2,0.1,0.3
		C287.9,239.7,287.8,239.7,287.7,239.7z M65.8,238.8c-0.1,0-0.2-0.1-0.2-0.1c-0.1-0.1,0-0.3,0.1-0.3c3.5-1.7,7.2-3.4,11-4.9
		c0.1-0.1,0.3,0,0.3,0.1c0.1,0.1,0,0.3-0.1,0.3c-3.8,1.5-7.4,3.1-10.9,4.9C65.8,238.8,65.8,238.8,65.8,238.8z M1070.5,237.1
		c-0.1,0-0.1,0-0.2-0.1c-0.1-0.1-0.1-0.2,0-0.4c2.6-3,5.3-6,7.9-9.1c0.1-0.1,0.2-0.1,0.4,0c0.1,0.1,0.1,0.2,0,0.4
		c-2.6,3-5.2,6.1-7.9,9.1C1070.6,237.1,1070.6,237.1,1070.5,237.1z M88,230c-0.1,0-0.2-0.1-0.2-0.2c0-0.1,0-0.3,0.2-0.3
		c3.7-1.2,7.6-2.2,11.6-3.2c0.1,0,0.3,0.1,0.3,0.2c0,0.1,0,0.3-0.2,0.3C95.7,227.7,91.8,228.8,88,230C88.1,230,88.1,230,88,230z
		 M265.9,229.7C265.9,229.7,265.9,229.7,265.9,229.7c-3.8-1.3-7.6-2.5-11.5-3.6c-0.1,0-0.2-0.2-0.2-0.3c0-0.1,0.2-0.2,0.3-0.2
		c3.9,1.1,7.8,2.3,11.5,3.6c0.1,0,0.2,0.2,0.2,0.3C266.1,229.6,266,229.7,265.9,229.7z M111.3,224.3c-0.1,0-0.2-0.1-0.2-0.2
		c0-0.1,0.1-0.3,0.2-0.3c3.8-0.7,7.8-1.3,11.9-1.9c0.1,0,0.3,0.1,0.3,0.2c0,0.1-0.1,0.3-0.2,0.3
		C119.2,222.9,115.2,223.6,111.3,224.3C111.4,224.3,111.4,224.3,111.3,224.3z M242.8,223.4C242.8,223.4,242.8,223.4,242.8,223.4
		c-3.8-0.8-7.8-1.4-11.9-2c-0.1,0-0.2-0.1-0.2-0.3s0.1-0.2,0.3-0.2c4.1,0.6,8.1,1.2,11.9,2c0.1,0,0.2,0.2,0.2,0.3
		C243,223.3,242.9,223.4,242.8,223.4z M135.1,221c-0.1,0-0.2-0.1-0.2-0.2c0-0.1,0.1-0.3,0.2-0.3c3.8-0.4,7.9-0.7,12-1
		c0.1,0,0.3,0.1,0.3,0.2c0,0.1-0.1,0.3-0.2,0.3C143,220.3,139,220.6,135.1,221C135.1,221,135.1,221,135.1,221z M219,220.1
		C219,220.1,219,220.1,219,220.1c-3.8-0.3-7.8-0.6-12-0.8c-0.1,0-0.2-0.1-0.2-0.3c0-0.1,0.1-0.2,0.3-0.2c4.1,0.2,8.2,0.5,12,0.8
		c0.1,0,0.2,0.1,0.2,0.3C219.3,220,219.2,220.1,219,220.1z M159.1,219.4c-0.1,0-0.2-0.1-0.2-0.2c0-0.1,0.1-0.3,0.2-0.3
		c3.8-0.1,7.7-0.3,12-0.3c0.1,0,0.3,0.1,0.3,0.2c0,0.1-0.1,0.3-0.2,0.3C166.8,219.2,162.9,219.3,159.1,219.4
		C159.1,219.4,159.1,219.4,159.1,219.4z M195.1,219C195.1,219,195.1,219,195.1,219c-3.8-0.1-7.9-0.1-12,0c0,0,0,0,0,0
		c-0.1,0-0.2-0.1-0.2-0.2s0.1-0.3,0.2-0.3c4.1,0,8.2,0,12,0c0.1,0,0.2,0.1,0.2,0.3C195.3,218.9,195.2,219,195.1,219z M1086.1,218.9
		c-0.1,0-0.1,0-0.2-0.1c-0.1-0.1-0.1-0.2,0-0.4c2.6-3,5.1-6.1,7.7-9.2c0.1-0.1,0.2-0.1,0.4,0s0.1,0.2,0,0.4
		c-2.5,3.1-5.1,6.2-7.7,9.2C1086.3,218.8,1086.2,218.9,1086.1,218.9z M1101.4,200.3c-0.1,0-0.1,0-0.2-0.1c-0.1-0.1-0.1-0.2,0-0.4
		c2.5-3.1,5-6.2,7.5-9.4c0.1-0.1,0.2-0.1,0.4,0c0.1,0.1,0.1,0.2,0,0.4c-2.5,3.1-5,6.3-7.5,9.4
		C1101.5,200.3,1101.5,200.3,1101.4,200.3z M1116.4,181.6c-0.1,0-0.1,0-0.2-0.1c-0.1-0.1-0.1-0.2,0-0.4c2.4-3.1,4.9-6.3,7.4-9.5
		c0.1-0.1,0.2-0.1,0.4,0c0.1,0.1,0.1,0.2,0,0.4c-2.5,3.2-5,6.4-7.4,9.5C1116.5,181.5,1116.4,181.6,1116.4,181.6z M1131,162.6
		c-0.1,0-0.1,0-0.2-0.1c-0.1-0.1-0.1-0.2,0-0.4c2.4-3.2,4.8-6.4,7.2-9.6c0.1-0.1,0.2-0.1,0.4,0c0.1,0.1,0.1,0.2,0,0.3
		c-2.4,3.2-4.8,6.4-7.2,9.6C1131.2,162.5,1131.1,162.6,1131,162.6z M1145.4,143.4c-0.1,0-0.1,0-0.1,0c-0.1-0.1-0.1-0.2-0.1-0.3
		c2.4-3.2,4.8-6.4,7.1-9.7c0.1-0.1,0.2-0.1,0.3-0.1c0.1,0.1,0.1,0.2,0.1,0.3c-2.4,3.2-4.7,6.5-7.1,9.7
		C1145.6,143.3,1145.5,143.4,1145.4,143.4z M1159.6,124c-0.1,0-0.1,0-0.1,0c-0.1-0.1-0.1-0.2-0.1-0.3l2.1-2.9c1.7-2.3,3.3-4.6,5-6.8
		c0.1-0.1,0.2-0.1,0.3-0.1c0.1,0.1,0.1,0.2,0.1,0.3c-1.7,2.3-3.3,4.6-5,6.8l-2.1,2.9C1159.8,124,1159.7,124,1159.6,124z
		 M1173.7,104.6c-0.1,0-0.1,0-0.1,0c-0.1-0.1-0.1-0.2-0.1-0.3c2.6-3.5,4.9-6.7,7.2-9.6c0.1-0.1,0.2-0.1,0.3,0c0.1,0.1,0.1,0.2,0,0.4
		c-2.2,3-4.6,6.1-7.2,9.6C1173.9,104.5,1173.8,104.6,1173.7,104.6z M1188.2,85.4c-0.1,0-0.1,0-0.2-0.1c-0.1-0.1-0.1-0.2,0-0.4
		c2.5-3.3,5.1-6.4,7.5-9.4c0.1-0.1,0.2-0.1,0.4,0c0.1,0.1,0.1,0.2,0,0.4c-2.4,3-4.9,6.1-7.5,9.4
		C1188.3,85.4,1188.3,85.4,1188.2,85.4z M1203.4,66.8c-0.1,0-0.1,0-0.2-0.1c-0.1-0.1-0.1-0.2,0-0.4c2.7-3.1,5.4-6.1,8-8.9
		c0.1-0.1,0.3-0.1,0.4,0c0.1,0.1,0.1,0.3,0,0.4c-2.6,2.8-5.3,5.8-8,8.9C1203.5,66.8,1203.4,66.8,1203.4,66.8z M1219.7,49.3
		c-0.1,0-0.1,0-0.2-0.1c-0.1-0.1-0.1-0.3,0-0.4c2.9-2.9,5.8-5.7,8.7-8.3c0.1-0.1,0.3-0.1,0.4,0c0.1,0.1,0.1,0.3,0,0.4
		c-2.9,2.6-5.8,5.4-8.7,8.2C1219.8,49.2,1219.7,49.3,1219.7,49.3z M1237.5,33.2c-0.1,0-0.1,0-0.2-0.1c-0.1-0.1-0.1-0.3,0-0.4
		c1.5-1.2,3.1-2.5,4.6-3.6c1.6-1.2,3.3-2.4,4.9-3.6c0.1-0.1,0.3-0.1,0.3,0.1c0.1,0.1,0.1,0.3-0.1,0.3c-1.7,1.2-3.3,2.4-4.9,3.6
		c-1.5,1.2-3.1,2.4-4.6,3.6C1237.6,33.2,1237.6,33.2,1237.5,33.2z M1257.1,19.5c-0.1,0-0.2,0-0.2-0.1c-0.1-0.1,0-0.3,0.1-0.3
		c3.5-2.1,7-4,10.6-5.7c0.1-0.1,0.3,0,0.3,0.1c0.1,0.1,0,0.3-0.1,0.3c-3.5,1.7-7.1,3.7-10.5,5.7
		C1257.2,19.4,1257.2,19.5,1257.1,19.5z M1360.1,9.8c0,0-0.1,0-0.1,0c-3.5-1.8-7.3-3.4-11-4.6c-0.1,0-0.2-0.2-0.2-0.3
		c0-0.1,0.2-0.2,0.3-0.2c3.8,1.3,7.5,2.9,11.1,4.7c0.1,0.1,0.2,0.2,0.1,0.3C1360.3,9.8,1360.2,9.8,1360.1,9.8z M1278.7,8.9
		c-0.1,0-0.2-0.1-0.2-0.2c-0.1-0.1,0-0.3,0.1-0.3c3.8-1.5,7.6-2.8,11.4-3.9c0.1,0,0.3,0,0.3,0.2s0,0.3-0.2,0.3
		C1286.3,6.1,1282.5,7.4,1278.7,8.9C1278.7,8.9,1278.7,8.9,1278.7,8.9z M1301.7,2.3c-0.1,0-0.2-0.1-0.2-0.2c0-0.1,0.1-0.3,0.2-0.3
		c4-0.7,8-1.2,11.9-1.5c0.1,0,0.3,0.1,0.3,0.2c0,0.1-0.1,0.3-0.2,0.3C1309.7,1.1,1305.7,1.6,1301.7,2.3
		C1301.7,2.3,1301.7,2.3,1301.7,2.3z M1337.5,2.1C1337.5,2.1,1337.4,2.1,1337.5,2.1c-3.9-0.7-7.9-1.2-11.9-1.4
		c-0.1,0-0.2-0.1-0.2-0.3c0-0.1,0.1-0.2,0.3-0.2c4,0.2,8.1,0.7,11.9,1.4c0.1,0,0.2,0.2,0.2,0.3C1337.7,2,1337.6,2.1,1337.5,2.1z"/>
</g>
</svg>
