<svg xmlns="http://www.w3.org/2000/svg" xmlns:xlink="http://www.w3.org/1999/xlink" width="242.059" height="241.733" viewBox="0 0 242.059 241.733"><defs><linearGradient id="a" x1="-14.697" y1="135.178" x2="-14.751" y2="134.957" gradientUnits="objectBoundingBox"><stop offset="0" stop-color="#09005d"/><stop offset="1" stop-color="#1a0f91"/></linearGradient><linearGradient id="b" x1="-57.002" y1="15.858" x2="-57.013" y2="15.741" gradientUnits="objectBoundingBox"><stop offset="0" stop-color="#fe7062"/><stop offset="1" stop-color="#ff928e"/></linearGradient><linearGradient id="c" x1="-41.621" y1="18.952" x2="-41.628" y2="18.79" xlink:href="#b"/><linearGradient id="d" x1="-60.725" y1="13.529" x2="-60.74" y2="13.454" xlink:href="#b"/><linearGradient id="e" x1="-87.505" y1="18.603" x2="-87.485" y2="18.578" xlink:href="#a"/><linearGradient id="f" x1="-88.85" y1="16.99" x2="-88.813" y2="16.956" gradientUnits="objectBoundingBox"><stop offset="0" stop-color="#a22b25"/><stop offset="1" stop-color="#c0423c"/></linearGradient><linearGradient id="g" x1="-247.505" y1="81.999" x2="-247.934" y2="80.161" xlink:href="#a"/><linearGradient id="h" x1="-193.129" y1="10.689" x2="-192.997" y2="10.771" xlink:href="#f"/><linearGradient id="i" x1="-166.222" y1="56.158" x2="-166.386" y2="55.305" xlink:href="#a"/><linearGradient id="j" x1="-90.071" y1="11.894" x2="-90.045" y2="11.982" xlink:href="#f"/><linearGradient id="k" x1="-242.306" y1="41.889" x2="-242.4" y2="41.765" xlink:href="#f"/><linearGradient id="l" x1="-151.154" y1="18.867" x2="-151.242" y2="18.847" xlink:href="#f"/><linearGradient id="m" x1="-166.659" y1="43.211" x2="-166.743" y2="43.323" xlink:href="#f"/><linearGradient id="n" x1="-163.633" y1="39.479" x2="-163.559" y2="39.373" xlink:href="#a"/><linearGradient id="o" x1="-442.585" y1="117.684" x2="-443.683" y2="118.854" xlink:href="#f"/><linearGradient id="p" x1="-249.135" y1="51.028" x2="-248.809" y2="50.772" xlink:href="#f"/><linearGradient id="q" x1="-443.344" y1="96.732" x2="-442.671" y2="95.357" xlink:href="#f"/></defs><g transform="translate(-1626.967 -412.797)"><circle cx="101.878" cy="101.878" r="101.878" transform="translate(1626.967 448.675)" fill="#91b3fa"/><circle cx="86.949" cy="86.949" r="86.949" transform="translate(1641.896 462.604)" fill="#4f52ff"/><path d="M1791.358,613.066a88.405,88.405,0,1,1,25.894-62.513A88.405,88.405,0,0,1,1791.358,613.066ZM1668.392,490.1a85.491,85.491,0,1,0,120.9,0h0a85.589,85.589,0,0,0-120.9,0Z" fill="#bdd0fb"/><path d="M1728.846,605.019a54.466,54.466,0,1,1,54.466-54.466h0A54.528,54.528,0,0,1,1728.846,605.019Zm0-106.016a51.551,51.551,0,1,0,51.551,51.551A51.551,51.551,0,0,0,1728.846,499Z" fill="#bdd0fb"/><path d="M1728.844,572.548a21.994,21.994,0,1,1,21.994-21.994A21.994,21.994,0,0,1,1728.844,572.548Zm0-41.074a19.079,19.079,0,1,0,19.079,19.079h0a19.1,19.1,0,0,0-19.079-19.079Z" fill="#bdd0fb"/><rect width="147.019" height="3.882" transform="translate(1748.379 530.701) rotate(-45)" fill="url(#a)"/><path d="M1750.323,524.076c1.575-1.575,9,5.851,7.426,7.426l-27.543,21.652a1.094,1.094,0,0,1-1.536-1.536Z" fill="url(#b)"/><path d="M1855.038,429.532l13.988,1.39-19.2,19.2a29.686,29.686,0,0,1-23.927,8.549h0Z" fill="url(#c)"/><path d="M1852.292,426.785,1850.9,412.8,1831.7,432a29.686,29.686,0,0,0-8.549,23.927h0Z" fill="url(#d)"/><path d="M1678.017,554.411s-2.239,1.089-2.651,2.34c-.33,1-2.806,1.133-3.05,3.107a2.266,2.266,0,0,1-1.9,1.991c-2.528.387-6.425,1.7-7.048,6.09-.476,3.351,1.232,4.621,3.025,5.061a2.538,2.538,0,0,1,1.925,2.933c-.255,1.275.125,2.749,2.334,3.914,4.949,2.612,9.892-6.187,9.892-6.187l1.013-15.364Z" fill="url(#e)"/><path d="M1701.315,546.308s-6.369,17.362-17.221,22.788c0,0,3.612,5.893,5.5,6.251,0,0,11.593-14.837,12.775-26.993Z" fill="url(#f)"/><path d="M1657.672,650.751l-.32,2.633a1.089,1.089,0,0,1-.954.951,16.81,16.81,0,0,1-3.524.055.933.933,0,0,1-.82-1.032.952.952,0,0,1,.038-.176,9.59,9.59,0,0,1,1.766-3.44h2.921a.9.9,0,0,1,.9.9A.973.973,0,0,1,1657.672,650.751Z" fill="url(#g)"/><path d="M1680.549,619.9l.493,2.9s-1.651,16.723-1.945,23.412a5.244,5.244,0,0,0,.776,2.979l2.871,4.662-7.3-4.3-.145-.89,1.194-1.642-1.564-18.734a5.744,5.744,0,0,1,.654-3.179l1.509-2.835Z" fill="url(#h)"/><path d="M1683.224,654.529H1680.9a1.4,1.4,0,0,1-1.113-.545c-.726-.943-2.23-2.783-2.949-2.831-.968-.065-.844,3.377-.844,3.377h-.543l-.687-4.276a2.531,2.531,0,0,1,1.328-2.646h0a3.581,3.581,0,0,0,1.421,2.36c1.2.724,4.882,3.316,4.882,3.316a3.3,3.3,0,0,1,.946.025.616.616,0,0,1-.113,1.22Z" fill="url(#i)"/><path d="M1670.556,621.28s-9.672,18.347-11.209,22.536a40.269,40.269,0,0,0-2.1,8.014c-.032.517-.675,1.013-2.448,1.013a1.7,1.7,0,0,1-1.582-.722,1.034,1.034,0,0,1-.039-1c.56-1.132,2.335-4.751,2.992-6.392.785-1.959,2.474-10.839,3.4-13.927s1.973-6.436,6.006-9.521C1665.579,621.28,1668.348,618.568,1670.556,621.28Z" fill="url(#j)"/><path d="M1676.665,591.217c2.495-10.572-3.825-16.551-3.825-16.551,3.988-3.828,11.254-5.57,11.254-5.57s6.933,5.069,6.111,9.036c-.482,2.325-4.874,13.929-4.874,13.929A9.649,9.649,0,0,1,1676.665,591.217Z" fill="#4f52ff"/><path d="M1671.136,596.452c1.015-3.059,5.531-5.234,5.531-5.234a9.649,9.649,0,0,0,8.666.844,17.381,17.381,0,0,1,.282,6.716c-.629,3.235-4.572,24.024-4.572,24.024-6.214,1.259-15.77-1.267-15.77-1.267C1669.23,614.509,1670.119,599.511,1671.136,596.452Z" fill="#4f52ff"/><path d="M1679.562,562.111l-2.028,9.111c-.194.8.537.671,1.349.518,1.329-.251,3.041-.767,3.614-1.8a.983.983,0,0,0,.1-.343l.872-6.318a1.135,1.135,0,0,0-.664-1.193l-1.682-.746a1.135,1.135,0,0,0-1.5.58A1.162,1.162,0,0,0,1679.562,562.111Z" fill="url(#k)"/><path d="M1672.841,574.667s-14.157,10.129-1.811,20.772a3.2,3.2,0,0,0,1.4.809,15.284,15.284,0,0,1,2.552,1.732.48.48,0,0,0,.673-.088.336.336,0,0,0,.027-.038h0a.655.655,0,0,0,.037-.629l-1.753-3.706a1.351,1.351,0,0,0-1.756-.076h0a.668.668,0,0,1-.937-.112.748.748,0,0,1-.074-.117c-.955-1.944-2.757-7.661,4.62-14.121a.8.8,0,0,0,.177-.972C1675.477,577.125,1674.292,575.148,1672.841,574.667Z" fill="url(#l)"/><path d="M1681.939,553.436a8.984,8.984,0,0,1,4.036,4.486c1.634,3.471.414,5.074-1.118,5.294a7.173,7.173,0,0,1-6.247-2.056C1676.188,558.921,1678.819,552.234,1681.939,553.436Z" fill="url(#m)"/><path d="M1680.24,559.307s-1.812-5.079,2.69-5.139l1.06.741s1.652-2.816-1.06-4.16-5.885-.234-7.039,3.419-1.351,6.1.569,7.847,2.711-.234,2.711-.234-1.045-1.635-.62-2.51,1.407.181,1.407.181Z" fill="url(#n)"/><path d="M1679.735,559.873s-.917-2.616-2.139-1.574.994,2.417,1.861,2.862Z" fill="url(#o)"/><path d="M1701.926,549.465c.1.309-1.028.779-1.69-.484-.023-.605-.391-3.2-.03-3.693a48.3,48.3,0,0,1,5.663-5.92.889.889,0,0,1,.111,1.235l-1.812,1.888a8.732,8.732,0,0,1,1.058,2.092,2.54,2.54,0,0,1-.253,1.869,22.2,22.2,0,0,1-1.163,1.9A2.507,2.507,0,0,1,1701.926,549.465Z" fill="url(#p)"/><path d="M1702.769,548.163l-.178-.032a18.625,18.625,0,0,1,.875-3.4.839.839,0,0,0,.172-.626.489.489,0,0,0-.249-.281l-1.586,1.345-.51,1.372-.169-.063.527-1.416,1.715-1.454.054.027a.7.7,0,0,1,.393.422.987.987,0,0,1-.192.769A19.088,19.088,0,0,0,1702.769,548.163Z" fill="url(#q)"/></g></svg>