<svg xmlns="http://www.w3.org/2000/svg" width="160" height="160" viewBox="0 0 160 160"><g transform="translate(-736.578 -1147.869)"><path d="M816.578,1147.869a80,80,0,1,0,80,80A80,80,0,0,0,816.578,1147.869Z" fill="#fff"/><circle cx="72.5" cy="72.5" r="72.5" transform="translate(744.578 1155.869)" fill="#9fa8da"/><g style="isolation:isolate"><g style="isolation:isolate"><path d="M794.462,1219.265v3.048h-4.08v13.919H786.9v-13.919H782.8v-3.048Z" fill="#361274"/><path d="M798.47,1225.864a3.962,3.962,0,0,1,1.608-1.427,5.412,5.412,0,0,1,2.5-.54v3.095a4.914,4.914,0,0,0-3.121.805,3.569,3.569,0,0,0-.984,2.892v5.543h-3.336v-12.1h3.336Z" fill="#361274"/><path d="M815.007,1234.049q0,.552.024,1.019a2.4,2.4,0,0,0,.192.853v.311h-3.288l-.145-1.656a3.748,3.748,0,0,1-1.739,1.429,5.949,5.949,0,0,1-2.316.468,6.221,6.221,0,0,1-1.428-.168,3.647,3.647,0,0,1-1.272-.565,2.9,2.9,0,0,1-.9-1.019,3.194,3.194,0,0,1-.336-1.536,3.266,3.266,0,0,1,.407-1.693,3.678,3.678,0,0,1,1.057-1.139,5.424,5.424,0,0,1,1.464-.72,15.621,15.621,0,0,1,1.632-.433l2.208-.5a3.408,3.408,0,0,0,.792-.288.618.618,0,0,0,.311-.6,1.272,1.272,0,0,0-.635-1.2,2.948,2.948,0,0,0-1.476-.36,2.75,2.75,0,0,0-1.656.469,2.172,2.172,0,0,0-.84,1.38l-3.193-.481a4.077,4.077,0,0,1,1.92-2.832,7.448,7.448,0,0,1,3.817-.887,6.223,6.223,0,0,1,4.019,1.127,4.03,4.03,0,0,1,1.381,3.312Zm-6.288.119a2.95,2.95,0,0,0,1.164-.239,3.033,3.033,0,0,0,1.008-.708,3.438,3.438,0,0,0,.708-1.177,4.692,4.692,0,0,0,.264-1.644l-2.976.768a3.359,3.359,0,0,0-1.236.517,1.286,1.286,0,0,0-.54,1.139,1.17,1.17,0,0,0,.456,1.008A1.88,1.88,0,0,0,808.719,1234.168Z" fill="#361274"/><path d="M832.5,1223.9a4.573,4.573,0,0,1,3.073.948,3.282,3.282,0,0,1,1.1,2.628v8.759h-3.311V1228.6a1.949,1.949,0,0,0-.588-1.561,2.155,2.155,0,0,0-1.452-.5,2.69,2.69,0,0,0-.913.156,1.916,1.916,0,0,0-.755.5,2.489,2.489,0,0,0-.516.937,4.691,4.691,0,0,0-.192,1.451v6.648h-3.336V1228.6a1.954,1.954,0,0,0-.588-1.548,2.125,2.125,0,0,0-1.452-.517,2.694,2.694,0,0,0-.913.156,1.864,1.864,0,0,0-.755.516,2.621,2.621,0,0,0-.516.937,4.577,4.577,0,0,0-.192,1.439v6.648h-3.336v-12.1H821.2v1.416a4.288,4.288,0,0,1,1.511-1.225,4.61,4.61,0,0,1,2.04-.431,5.251,5.251,0,0,1,2.485.528,3.06,3.06,0,0,1,1.427,1.535,4.064,4.064,0,0,1,1.573-1.535A4.664,4.664,0,0,1,832.5,1223.9Z" fill="#361274"/><path d="M850.143,1234.049q0,.552.023,1.019a2.4,2.4,0,0,0,.193.853v.311h-3.288l-.145-1.656a3.749,3.749,0,0,1-1.739,1.429,5.954,5.954,0,0,1-2.317.468,6.213,6.213,0,0,1-1.427-.168,3.66,3.66,0,0,1-1.273-.565,2.89,2.89,0,0,1-.9-1.019,3.194,3.194,0,0,1-.336-1.536,3.266,3.266,0,0,1,.407-1.693,3.678,3.678,0,0,1,1.057-1.139,5.41,5.41,0,0,1,1.464-.72,15.668,15.668,0,0,1,1.631-.433l2.208-.5a3.391,3.391,0,0,0,.792-.288.619.619,0,0,0,.312-.6,1.271,1.271,0,0,0-.636-1.2,2.944,2.944,0,0,0-1.475-.36,2.755,2.755,0,0,0-1.657.469,2.175,2.175,0,0,0-.839,1.38l-3.193-.481a4.074,4.074,0,0,1,1.92-2.832,7.445,7.445,0,0,1,3.817-.887,6.225,6.225,0,0,1,4.019,1.127,4.03,4.03,0,0,1,1.381,3.312Zm-6.288.119a2.95,2.95,0,0,0,1.164-.239,3.033,3.033,0,0,0,1.008-.708,3.438,3.438,0,0,0,.708-1.177A4.717,4.717,0,0,0,847,1230.4l-2.975.768a3.371,3.371,0,0,0-1.237.517,1.289,1.289,0,0,0-.54,1.139,1.173,1.173,0,0,0,.456,1.008A1.885,1.885,0,0,0,843.855,1234.168Z" fill="#361274"/></g></g></g></svg>