<svg xmlns="http://www.w3.org/2000/svg" width="79" height="55.565" viewBox="0 0 79 55.565"><g transform="translate(0 -75.944)"><g transform="translate(1.159 77.101)"><g transform="translate(0 0)"><path d="M83.484,240.967,57.92,258.658a1.645,1.645,0,0,1-1.27.256L8.817,248.939a1.641,1.641,0,0,1-.6-2.956l7.139-4.94,18.425-12.749a1.646,1.646,0,0,1,1.27-.258l41.691,8.7,6.142,1.281A1.64,1.64,0,0,1,83.484,240.967Z" transform="translate(-7.51 -205.697)" fill="#efa66f"/><path d="M119.755,236.732l-17.771,12.3a3.479,3.479,0,0,1-1.987.62,3.57,3.57,0,0,1-.713-.073l-40.915-8.534,18.425-12.749a1.646,1.646,0,0,1,1.27-.258Z" transform="translate(-50.522 -205.697)" fill="#cf8671"/><path d="M83.484,168.694,57.918,186.385a1.643,1.643,0,0,1-1.268.256L8.817,176.665a1.64,1.64,0,0,1-.6-2.955l7.141-4.94L33.784,156.02a1.643,1.643,0,0,1,1.268-.258l41.693,8.694,6.141,1.281A1.641,1.641,0,0,1,83.484,168.694Z" transform="translate(-7.51 -144.575)" fill="#00ed97"/><path d="M119.765,164.457l-3.507,2.427a2.016,2.016,0,0,1-.879.339L76.3,172.392a2.042,2.042,0,0,1-.671-.025l-17.254-3.6L76.8,156.02a1.643,1.643,0,0,1,1.268-.258Z" transform="translate(-50.53 -144.575)" fill="#00df97"/><path d="M83.485,96.408l-11.331,7.841-39.137,5.177-24.2-5.046a1.641,1.641,0,0,1-.6-2.956L33.784,83.733a1.641,1.641,0,0,1,1.269-.257l47.833,9.976A1.641,1.641,0,0,1,83.485,96.408Z" transform="translate(-7.51 -83.441)" fill="#00c980"/><path d="M198.11,159.88l-1.673,1.157L157.3,166.213l-2.831-.591,25.395-14.565a3.492,3.492,0,0,1,3.538.028Z" transform="translate(-131.795 -140.229)" fill="#009765"/><path d="M211.958,171.183l-13.987-8.363a1.641,1.641,0,0,0-1.662-.013L172.821,176.36Z" transform="translate(-147.315 -150.375)" fill="#efa66f"/></g></g><g transform="translate(0 75.944)"><path d="M78.942,99.314a2.76,2.76,0,0,0-2.171-2.184l-6-1.252,7.023-4.86a2.8,2.8,0,0,0-1.021-5.04L64.857,83.494a1.157,1.157,0,0,0-.472,2.266L76.3,88.244a.484.484,0,0,1,.177.871L65.757,96.533,52.41,88.552a2.8,2.8,0,0,0-2.834-.022L26.469,101.862,2.7,96.906a.484.484,0,0,1-.177-.871L28.091,78.344a.486.486,0,0,1,.374-.076l30.216,6.3a1.157,1.157,0,1,0,.472-2.266L28.938,76a2.808,2.808,0,0,0-2.163.438L1.209,94.131a2.8,2.8,0,0,0,1.021,5.04l6,1.252-7.023,4.86a2.8,2.8,0,0,0,1.021,5.04l6,1.252-7.023,4.86a2.8,2.8,0,0,0,1.021,5.04l47.833,9.976a2.783,2.783,0,0,0,.567.058,2.812,2.812,0,0,0,1.6-.5l14.661-10.145a1.157,1.157,0,1,0-1.317-1.9L50.91,129.109a.486.486,0,0,1-.374.076L2.7,119.209a.484.484,0,0,1-.177-.871l8.832-6.111,15.01,3.13a1.157,1.157,0,1,0,.472-2.266L2.7,108.058a.484.484,0,0,1-.177-.871l8.832-6.111,15.071,3.143a1.155,1.155,0,0,0,.388.014l15.59-2.062a1.157,1.157,0,0,0,1.155,1.122h.016a1.157,1.157,0,0,0,1.142-1.173l0-.124a1.162,1.162,0,0,0-.01-.13L61.982,99.58a1.166,1.166,0,0,0-.013.178l0,.124a1.157,1.157,0,0,0,1.157,1.142h.015a1.157,1.157,0,0,0,1.142-1.172l0-.124a1.152,1.152,0,0,0-.093-.44l1.763-.233a1.155,1.155,0,0,0,.507-.2L68.143,97.7,76.3,99.4a.484.484,0,0,1,.177.871L50.91,117.957a.486.486,0,0,1-.374.076L32.51,114.274a1.157,1.157,0,1,0-.473,2.266L50.063,120.3a2.783,2.783,0,0,0,.567.058,2.811,2.811,0,0,0,1.6-.5l15.916-11.014,8.155,1.7a.484.484,0,0,1,.177.871l-6.254,4.328a1.157,1.157,0,1,0,1.317,1.9l6.254-4.328a2.8,2.8,0,0,0-1.021-5.04l-6-1.252,7.023-4.86A2.76,2.76,0,0,0,78.942,99.314Zm-28.21-8.78a.484.484,0,0,1,.49,0L62.357,97.2l-30.064,3.977Z" transform="translate(0 -75.944)"/><path d="M292.787,290.243h-.016a1.157,1.157,0,0,0-1.142,1.173l0,.124a1.157,1.157,0,0,0,1.157,1.142h.016a1.157,1.157,0,0,0,1.142-1.173l0-.124A1.157,1.157,0,0,0,292.787,290.243Z" transform="translate(-246.634 -257.179)"/><path d="M292.719,318.037h.015a1.157,1.157,0,0,0,1.142-1.172l0-.124a1.157,1.157,0,0,0-2.314.029l0,.124A1.157,1.157,0,0,0,292.719,318.037Z" transform="translate(-246.575 -278.622)"/><path d="M305.072,305.669l.123,0a1.157,1.157,0,0,0-.03-2.314l-.123,0a1.157,1.157,0,0,0,.015,2.314Z" transform="translate(-257.011 -268.266)"/><path d="M279.763,303.284l-.123,0a1.157,1.157,0,0,0,.015,2.314h.016l.123,0a1.157,1.157,0,0,0-.031-2.314Z" transform="translate(-235.529 -268.207)"/><path d="M349.277,256.468a1.157,1.157,0,0,0-1.142,1.172l0,.124a1.157,1.157,0,0,0,1.157,1.142h.015a1.157,1.157,0,0,0,1.142-1.172l0-.124A1.153,1.153,0,0,0,349.277,256.468Z" transform="translate(-294.42 -228.615)"/><path d="M349.207,281.826A1.157,1.157,0,0,0,348.064,283l0,.124a1.157,1.157,0,0,0,1.157,1.142h.015a1.157,1.157,0,0,0,1.142-1.172l0-.124A1.157,1.157,0,0,0,349.207,281.826Z" transform="translate(-294.361 -250.06)"/><path d="M361.579,271.894l.123,0a1.157,1.157,0,0,0-.031-2.314l-.123,0a1.157,1.157,0,0,0,.015,2.314Z" transform="translate(-304.799 -239.702)"/><path d="M336.147,269.512a1.157,1.157,0,0,0,.015,2.314h.015l.123,0a1.157,1.157,0,0,0-.03-2.314Z" transform="translate(-283.316 -239.645)"/><path d="M401.57,249.224l0,.124a1.157,1.157,0,0,0,1.157,1.142h.015a1.157,1.157,0,0,0,1.142-1.172l0-.124a1.157,1.157,0,0,0-2.314.029Z" transform="translate(-339.612 -221.497)"/><path d="M415.068,238.121h.015l.123,0a1.157,1.157,0,0,0-.03-2.314l-.123,0a1.157,1.157,0,0,0,.015,2.314Z" transform="translate(-350.049 -211.14)"/><path d="M389.775,235.736l-.123,0a1.157,1.157,0,0,0,.015,2.314h.015l.123,0a1.157,1.157,0,0,0-.03-2.314Z" transform="translate(-328.566 -211.081)"/><path d="M219.479,271.164h-.016a1.157,1.157,0,0,0-1.142,1.173l0,.124a1.157,1.157,0,0,0,1.157,1.142h.016a1.157,1.157,0,0,0,1.142-1.173l0-.124A1.157,1.157,0,0,0,219.479,271.164Z" transform="translate(-184.636 -241.043)"/><path d="M219.395,296.52a1.157,1.157,0,0,0-1.142,1.172l0,.124a1.157,1.157,0,0,0,1.157,1.142h.015a1.157,1.157,0,0,0,1.142-1.172l0-.124A1.161,1.161,0,0,0,219.395,296.52Z" transform="translate(-184.578 -262.487)"/><path d="M231.767,286.588l.123,0a1.157,1.157,0,0,0-.031-2.314l-.123,0a1.157,1.157,0,0,0,.015,2.314Z" transform="translate(-195.016 -252.128)"/><path d="M206.334,284.207a1.157,1.157,0,0,0,.015,2.314h.015l.123,0a1.157,1.157,0,1,0-.03-2.314Z" transform="translate(-173.532 -252.073)"/><path d="M274.757,263.918l0,.124a1.157,1.157,0,0,0,1.157,1.142h.015a1.157,1.157,0,0,0,1.142-1.172l0-.124a1.157,1.157,0,0,0-2.314.029Z" transform="translate(-232.365 -233.924)"/><path d="M288.365,250.5l-.123,0a1.157,1.157,0,0,0,.015,2.314h.015l.123,0a1.157,1.157,0,0,0-.03-2.314Z" transform="translate(-242.803 -223.567)"/><path d="M262.962,250.43l-.123,0a1.157,1.157,0,0,0,.015,2.314h.016l.123,0a1.157,1.157,0,0,0-.031-2.314Z" transform="translate(-221.32 -223.508)"/><path d="M152.172,260.522h.016a1.157,1.157,0,0,0,1.142-1.173l0-.124a1.157,1.157,0,1,0-2.314.031l0,.124A1.157,1.157,0,0,0,152.172,260.522Z" transform="translate(-127.713 -229.981)"/><path d="M152.1,285.878h.015a1.157,1.157,0,0,0,1.142-1.172l0-.124a1.157,1.157,0,0,0-1.157-1.142h-.015a1.157,1.157,0,0,0-1.142,1.172l0,.124A1.157,1.157,0,0,0,152.1,285.878Z" transform="translate(-127.656 -251.425)"/><path d="M164.458,273.508l.123,0a1.157,1.157,0,0,0-.03-2.314l-.123,0a1.157,1.157,0,0,0,.015,2.314Z" transform="translate(-138.093 -241.067)"/><path d="M139.025,271.125a1.157,1.157,0,0,0,.015,2.314h.016l.123,0a1.157,1.157,0,1,0-.031-2.314Z" transform="translate(-116.609 -241.009)"/><path d="M81.865,250.442h.016a1.157,1.157,0,0,0,1.142-1.173l0-.124a1.157,1.157,0,1,0-2.314.031l0,.124A1.157,1.157,0,0,0,81.865,250.442Z" transform="translate(-68.254 -221.456)"/><path d="M81.8,275.8h.016a1.157,1.157,0,0,0,1.142-1.173l0-.124a1.157,1.157,0,0,0-2.314.031l0,.124A1.157,1.157,0,0,0,81.8,275.8Z" transform="translate(-68.196 -242.901)"/><path d="M94.152,263.428l.123,0a1.157,1.157,0,0,0-.031-2.314l-.123,0a1.157,1.157,0,0,0,.015,2.314Z" transform="translate(-78.633 -232.542)"/><path d="M68.72,261.047a1.157,1.157,0,0,0,.015,2.314h.015l.123,0a1.157,1.157,0,0,0-.03-2.314Z" transform="translate(-57.151 -232.486)"/></g></g></svg>