<svg xmlns="http://www.w3.org/2000/svg" width="100" height="100" viewBox="0 0 100 100"><g transform="translate(-217.453 -640.211)"><path d="M309.686,691.29c1.835,4.911-3.991,10.85-8.879,8.4-4.529-2.269-3.134-7.733-1.835-11.58,1.915-5.658,4.56-10.726,1.837-16.565-2.348-5.035-6.179-6.687-10.946-8.89a33.4,33.4,0,0,1,2.9,10.217,12.105,12.105,0,0,1-3.346,9.755,8.406,8.406,0,0,1-6.227,2.234,7.273,7.273,0,0,1-5.617-3.371c-1.886-3.124-.935-7.171.573-10.493,2.982-6.573,6.074-12.831,1.013-19.333a27.126,27.126,0,0,0-7.621-6.428c1.962,4.826,5.127,15.18-3.539,16.431a7.858,7.858,0,0,1-5.391-1.093c-6.168-4.019-2.326-13.531.206-18.679,0,0-15.5-.212-13.222,16.11.931,6.662,7.893,13.5,3.03,20.214a8.109,8.109,0,0,1-8.3,3.308c-8.736-2.2-2.8-11.58-6.473-16.9a12.514,12.514,0,0,0-5.987-4.829,11.4,11.4,0,0,1,.643,2.04c1.64,8.243-.826,13.712-5.5,20.157-4.153,5.728-7.981,11.687-7.877,19.046a25.792,25.792,0,0,0,5.312,15.836l3.018,3.332,5,5h73.318l.233-.2a24.358,24.358,0,0,0,5.218-31.608,18.718,18.718,0,0,0-1.544-2.114Z" fill="#f35244"/><path d="M284.357,709.971a7.846,7.846,0,0,1,9.515-9.514,7.846,7.846,0,0,1-9.515,9.514Z" fill="#f98500"/><path d="M315.777,735.206v3.332H219.128v-3.332a8.335,8.335,0,0,1,8.332-8.332,9.867,9.867,0,0,1,9.934-9.8h.066a10,10,0,0,1,9.807-10.187l.189,0a10,10,0,0,1,9.993-10h20a10,10,0,0,1,10,10,9.987,9.987,0,0,1,10,9.976c0,.071,0,.142,0,.213a9.867,9.867,0,0,1,10,9.732v.073A8.332,8.332,0,0,1,315.777,735.206Z" fill="#95573a"/><path d="M315.777,735.2v3.333H241.205c21.838-5.08,37.841-14.769,49.38-31.156a10,10,0,0,1,6.859,9.686,9.868,9.868,0,0,1,10,9.733v.073A8.331,8.331,0,0,1,315.777,735.2Z" fill="#8f4d2e"/><path d="M273.876,728.3a7.847,7.847,0,0,1-9.516-9.515,7.847,7.847,0,0,1,9.516,9.515Z" fill="#f98500"/><path d="M225.756,715.853a24.26,24.26,0,0,1-4.96-14.835c-.1-6.9,3.52-12.472,7.561-18.044,4.545-6.266,7.172-11.85,6.079-19.719a13.312,13.312,0,0,1,2.044,2.32c1.146,1.662,1.1,4.037,1.055,6.549-.08,4.171-.179,9.362,6.384,11.014a9.719,9.719,0,0,0,10.051-3.946c3.791-5.231,1.485-10.474-.55-15.1a25.363,25.363,0,0,1-2.179-6.323c-.624-4.472.131-7.962,2.246-10.371a11.921,11.921,0,0,1,6.577-3.521,30.011,30.011,0,0,0-2.292,7.764c-.815,6.194,1.932,9.183,4.381,10.6a9.857,9.857,0,0,0,9.567-.1c3.536-2.1,4.55-6.521,2.995-12.668a21.01,21.01,0,0,1,3.137,3.2c4.3,5.519,1.861,10.861-.95,17.041l-.265.583c-2.175,4.8-2.342,8.959-.481,12.042a8.954,8.954,0,0,0,6.907,4.185,10.006,10.006,0,0,0,7.481-2.675,13.607,13.607,0,0,0,3.879-11.1,26.284,26.284,0,0,0-1.513-6.814,13.525,13.525,0,0,1,6.384,6.3c2.041,4.377.612,8.324-1.044,12.889-.286.79-.583,1.607-.859,2.434-.971,2.865-3.549,10.492,2.667,13.6a7.618,7.618,0,0,0,8.593-1.472,9.388,9.388,0,0,0,2.376-3.314,29.33,29.33,0,0,1,2.626,7.5,18.224,18.224,0,0,1-3.2,15.275l2.6,2.086c8.892-11.069,2.284-25.957-2.1-31.048a1.667,1.667,0,0,0-2.825,1.681,5.116,5.116,0,0,1-1.708,5.35,4.45,4.45,0,0,1-4.869.971c-2.539-1.27-2.839-4.128-1-9.556.27-.795.559-1.594.84-2.367,1.747-4.823,3.554-9.81.931-15.435s-7.491-7.8-11.779-9.709a1.667,1.667,0,0,0-2.22,2.148,31.593,31.593,0,0,1,2.782,9.7,10.458,10.458,0,0,1-2.812,8.415,6.755,6.755,0,0,1-4.969,1.8A5.57,5.57,0,0,1,279,680.613c-1.6-2.654-.524-6.328.663-8.943l.264-.58c2.987-6.568,6.076-13.359.547-20.47a26.064,26.064,0,0,0-5.421-5.1c-.218-.156-1.928-1.314-2.721-1.731a1.667,1.667,0,0,0-2.315,2.1c1.312,3.241,3.94,11.027,0,13.373a6.47,6.47,0,0,1-6.195.077c-4-2.312-3.833-7.942.492-16.732A1.665,1.665,0,0,0,264,640.7c-.372-.373-.724-.726-3.616-.286a17.869,17.869,0,0,0-5.25,1.65c-4.031,2.005-8.551,6.444-7.19,16.173a28.09,28.09,0,0,0,2.435,7.2c1.916,4.356,3.572,8.118.9,11.8a6.456,6.456,0,0,1-6.541,2.67c-3.815-.96-3.95-3.307-3.867-7.719.053-2.794.115-5.96-1.645-8.507a14.445,14.445,0,0,0-6.875-5.484,1.666,1.666,0,0,0-2.038,2.216,9.668,9.668,0,0,1,.553,1.742c1.528,7.653-.753,12.709-5.212,18.856-4.207,5.8-8.306,12.128-8.2,20.048a27.576,27.576,0,0,0,5.663,16.837Z"/><path d="M308.977,725.326a11.918,11.918,0,0,0-3.58-6.874,11.072,11.072,0,0,0-6.373-2.993,11.566,11.566,0,0,0-3.256-6.756,11.853,11.853,0,0,0-1.469-1.271,9.425,9.425,0,0,0,1.184-7.385,1.669,1.669,0,0,0-1.213-1.213,9.424,9.424,0,0,0-7.391,1.189,11.656,11.656,0,0,0-9.43-4.807h-20a11.682,11.682,0,0,0-11.561,10.1,11.673,11.673,0,0,0-10.025,10.147,11.076,11.076,0,0,0-6.373,2.993,11.925,11.925,0,0,0-3.581,6.874,10.013,10.013,0,0,0-8.46,9.881v3.333a1.668,1.668,0,0,0,1.667,1.667h96.656a1.667,1.667,0,0,0,1.667-1.667h0v-3.333a10.014,10.014,0,0,0-8.461-9.881ZM292.421,701.9a6.1,6.1,0,0,1-1.083,3.973,11.546,11.546,0,0,0-2.333-.559,11.541,11.541,0,0,0-.565-2.324,6.1,6.1,0,0,1,3.981-1.088ZM314.1,736.871H220.793V735.2a6.671,6.671,0,0,1,6.666-6.664,1.668,1.668,0,0,0,1.667-1.634,8.567,8.567,0,0,1,2.656-6.027,7.71,7.71,0,0,1,5.606-2.148,1.667,1.667,0,0,0,1.728-1.6c0-.03,0-.061,0-.091a8.331,8.331,0,0,1,8.172-8.489l.16,0a1.665,1.665,0,0,0,1.667-1.664h0a8.341,8.341,0,0,1,8.333-8.332h20a8.341,8.341,0,0,1,8.333,8.332,1.665,1.665,0,0,0,1.665,1.665h0a8.332,8.332,0,0,1,8.332,8.332c0,.053,0,.106,0,.159a1.666,1.666,0,0,0,1.637,1.7c.03,0,.061,0,.091,0a7.709,7.709,0,0,1,5.607,2.148,8.568,8.568,0,0,1,2.664,6.027,1.668,1.668,0,0,0,1.667,1.634,6.671,6.671,0,0,1,6.666,6.664Z"/><path d="M263.956,717.169a1.665,1.665,0,0,0-1.213,1.213,9.52,9.52,0,0,0,9.195,11.826,9.635,9.635,0,0,0,2.342-.287,1.666,1.666,0,0,0,1.213-1.213,9.513,9.513,0,0,0-11.537-11.535Zm8.476,9.689a6.185,6.185,0,0,1-6.624-5.713,6.281,6.281,0,0,1,0-.91,6.186,6.186,0,0,1,6.624,6.623Z"/><path d="M272.451,703.547h3.332v3.333h-3.332Z"/><path d="M257.453,706.88h3.333v3.332h-3.333Z"/><path d="M237.457,726.874h3.332v3.332h-3.332Z"/><path d="M244.61,716.39l3.822,3.821h-4.31v3.332h7.642l6.177,6.177,2.356-2.356-13.331-13.33Z"/><path d="M294.114,728.54h3.333v3.332h-3.333Z"/><path d="M227.459,693.55h3.332v6.665h-3.332Z"/><path d="M259.12,681.886h3.333v6.665H259.12Z"/><path d="M304.112,706.88h3.333v6.664h-3.333Z"/><path d="M280.783,715.21h3.333v6.665h-3.333Z"/><path d="M309.11,670.222h3.333v6.665H309.11Z"/><path d="M220.793,670.222h3.333v6.665h-3.333Z"/><rect width="100" height="100" transform="translate(217.453 640.211)" fill="none"/></g></svg>