<svg xmlns="http://www.w3.org/2000/svg" width="67" height="67" viewBox="0 0 67 67"><g transform="translate(-896 -310)"><path d="M33.5,0h0A33.5,33.5,0,0,1,67,33.5V67a0,0,0,0,1,0,0H33.5A33.5,33.5,0,0,1,0,33.5v0A33.5,33.5,0,0,1,33.5,0Z" transform="translate(896 310)" fill="#673ab7"/><g transform="translate(912.114 327)"><path d="M953.969,359.836l-2.55-4.627c-8.5,4.344-13.6,12.183-13.6,21.628,0,7.178,3.589,11.427,8.5,11.427,4.156,0,6.989-3.022,6.989-7.272,0-4.061-2.739-6.894-6.612-6.894a6.325,6.325,0,0,0-2.491.55C944.679,368.133,948.181,363.169,953.969,359.836Z" transform="translate(-937.82 -355.209)" fill="#fff"/><path d="M978.7,374.1a6.326,6.326,0,0,0-2.491.55c.472-6.514,3.974-11.478,9.763-14.811l-2.55-4.627c-8.5,4.344-13.6,12.183-13.6,21.628,0,7.178,3.589,11.427,8.5,11.427,4.156,0,6.989-3.022,6.989-7.272C985.309,376.931,982.57,374.1,978.7,374.1Z" transform="translate(-951.229 -355.209)" fill="#fff"/></g></g></svg>