<svg xmlns="http://www.w3.org/2000/svg" width="100.001" height="101.591" viewBox="0 0 100.001 101.591"><g transform="translate(-394.713 -58.941)"><circle cx="50" cy="50" r="50" transform="translate(394.713 60.533)" fill="#fff"/><circle cx="48.162" cy="48.162" r="48.162" transform="translate(396.551 62.371)" fill="none" stroke="#361274" stroke-width="3.676"/><path d="M483.151,132.738l-4.641,4.641-4.642-4.641-4.641,4.641-4.642-4.641-4.641,4.641-4.641-4.641-4.642,4.641-4.641-4.641-4.642,4.641-4.641-4.641-4.641,4.641-4.641-4.641-4.642,4.641-4.641-4.641,4.641-4.642-4.641-4.641,4.641-4.642-4.641-4.641,4.641-4.642-4.641-4.641,4.641-4.641-4.641-4.641,4.641-4.642-4.641-4.641,4.641-4.642-4.641-4.641,4.641-4.642,4.642,4.642L432.1,72.4l4.641,4.642,4.642-4.642,4.641,4.642,4.642-4.642,4.641,4.642,4.642-4.642,4.641,4.642,4.642-4.642,4.641,4.642L478.51,72.4l4.641,4.643-4.641,4.641,4.641,4.641-4.641,4.641,4.641,4.642-4.641,4.641,4.641,4.641-4.641,4.642,4.641,4.641-4.641,4.642,4.641,4.641L478.51,128.1Z" fill="#ff6977"/><path d="M471.254,120.841l-4.641,4.642-4.642-4.642-4.641,4.642-4.644-4.642-4.642,4.642-4.641-4.642-4.641,4.642-4.642-4.642-4.639,4.642-4.641-4.642-4.642,4.642-4.641-4.642-4.642,4.642-4.639-4.642,4.641-4.641-4.641-4.642,4.641-4.641-4.641-4.641,4.641-4.642-4.641-4.641,4.641-4.642-4.641-4.642,4.641-4.642-4.641-4.639,4.641-4.642-4.641-4.641,4.641-4.641,4.641,4.641L420.2,60.5l4.642,4.641,4.64-4.641,4.641,4.641,4.643-4.641,4.641,4.641,4.642-4.641,4.641,4.641L457.33,60.5l4.642,4.641,4.641-4.641,4.642,4.641-4.642,4.641,4.642,4.642-4.642,4.641,4.642,4.641-4.642,4.642,4.642,4.641-4.642,4.642,4.642,4.641-4.642,4.642,4.642,4.641-4.642,4.642Z" fill="#ffc15a"/><path d="M429.929,74.951a3.026,3.026,0,0,0-3.266-1.307,2.845,2.845,0,0,0-5.53,0,2.845,2.845,0,0,0-2.765,4.789,2.845,2.845,0,0,0,2.765,4.788,2.845,2.845,0,0,0,5.53,0,2.845,2.845,0,0,0,2.765-4.788A3.028,3.028,0,0,0,429.929,74.951Z" fill="#fff"/><path d="M459.625,74.951a3.027,3.027,0,0,0-3.267-1.307,2.844,2.844,0,0,0-5.529,0,2.845,2.845,0,0,0-2.765,4.789,2.845,2.845,0,0,0,2.765,4.788,2.844,2.844,0,0,0,5.529,0,2.844,2.844,0,0,0,2.765-4.788A3.026,3.026,0,0,0,459.625,74.951Z" fill="#fff"/><path d="M429.929,111.037a3.025,3.025,0,0,1-3.266,1.307,2.845,2.845,0,0,1-5.53,0,2.845,2.845,0,0,1-2.765-4.788,2.845,2.845,0,0,1,2.765-4.789,2.845,2.845,0,0,1,5.53,0,2.845,2.845,0,0,1,2.765,4.789A3.026,3.026,0,0,1,429.929,111.037Z" fill="#fff"/><path d="M459.625,111.037a3.027,3.027,0,0,1-3.267,1.307,2.845,2.845,0,0,1-5.529,0,2.845,2.845,0,0,1-2.765-4.788,2.845,2.845,0,0,1,2.765-4.789,2.845,2.845,0,0,1,5.529,0,2.845,2.845,0,0,1,2.765,4.789A3.025,3.025,0,0,1,459.625,111.037Z" fill="#fff"/><path d="M444.8,89.512a3.026,3.026,0,0,0-3.266-1.307,2.844,2.844,0,0,0-5.529,0,2.844,2.844,0,0,0-2.764,4.788A2.845,2.845,0,0,0,436,97.782a2.845,2.845,0,0,0,5.529,0,2.845,2.845,0,0,0,2.765-4.789A3.024,3.024,0,0,0,444.8,89.512Z" fill="#fff"/><path d="M484.712,86.324a1.565,1.565,0,0,0-.458-1.1l-3.537-3.537,3.537-3.536a1.562,1.562,0,0,0,0-2.209h0L479.612,71.3a1.564,1.564,0,0,0-2.209,0l-3.537,3.537L470.329,71.3h0l-1.508-1.507,3.536-3.537a1.561,1.561,0,0,0,0-2.21l-4.64-4.645a1.562,1.562,0,0,0-2.209,0h0l-3.536,3.537L458.435,59.4a1.563,1.563,0,0,0-2.21,0l-3.537,3.537L449.152,59.4a1.563,1.563,0,0,0-2.21,0L443.4,62.936,439.87,59.4a1.562,1.562,0,0,0-2.209,0h0l-3.537,3.537L430.587,59.4a1.563,1.563,0,0,0-2.21,0h0l-3.534,3.537L421.3,59.4a1.563,1.563,0,0,0-2.21,0h0l-3.536,3.537L412.022,59.4a1.563,1.563,0,0,0-2.207,0l-4.645,4.645a1.563,1.563,0,0,0,0,2.21l3.537,3.537-3.537,3.536a1.563,1.563,0,0,0,0,2.21h0l3.537,3.534-3.537,3.537a1.562,1.562,0,0,0,0,2.209h0l3.537,3.537-3.537,3.537a1.563,1.563,0,0,0,0,2.21l3.537,3.536-3.537,3.537a1.563,1.563,0,0,0,0,2.21l3.537,3.537-3.537,3.533a1.563,1.563,0,0,0,0,2.21h0l3.537,3.537-3.537,3.536a1.562,1.562,0,0,0,0,2.209h0l4.645,4.642a1.565,1.565,0,0,0,2.21,0l3.537-3.537,3.536,3.537h0l1.507,1.507-3.539,3.538a1.563,1.563,0,0,0,0,2.21l4.642,4.641a1.562,1.562,0,0,0,2.209,0h0l3.536-3.537,3.537,3.537a1.563,1.563,0,0,0,2.21,0l3.537-3.537,3.536,3.537a1.563,1.563,0,0,0,2.21,0h0l3.536-3.537,3.537,3.537a1.563,1.563,0,0,0,2.21,0l3.537-3.537,3.537,3.537a1.562,1.562,0,0,0,2.209,0h0l3.537-3.537,3.537,3.537a1.562,1.562,0,0,0,2.209,0h0l3.537-3.537,3.535,3.536a1.562,1.562,0,0,0,2.209,0h0l4.642-4.642a1.563,1.563,0,0,0,0-2.21l-3.537-3.536,3.537-3.537a1.562,1.562,0,0,0,0-2.209h0l-3.537-3.536,3.537-3.537a1.562,1.562,0,0,0,0-2.209h0l-3.537-3.536,3.537-3.537a1.563,1.563,0,0,0,0-2.21l-3.537-3.537,3.537-3.537a1.563,1.563,0,0,0,0-2.21l-3.537-3.536,3.537-3.536a1.561,1.561,0,0,0,.459-1.105Zm-70.259,33.413-3.536,3.536-2.43-2.431,3.537-3.537a1.562,1.562,0,0,0,0-2.209h0l-3.537-3.536,3.537-3.537a1.562,1.562,0,0,0,0-2.209h0l-3.537-3.536,3.537-3.537a1.563,1.563,0,0,0,0-2.21l-1.977-1.974h7.736a1.563,1.563,0,1,0,0-3.125h-7.736l1.975-1.974a1.565,1.565,0,0,0,0-2.21l-3.535-3.536,3.537-3.536a1.563,1.563,0,0,0,0-2.21l-3.537-3.537,3.537-3.537a1.564,1.564,0,0,0,0-2.209l-3.537-3.537,2.43-2.429,3.536,3.537a1.565,1.565,0,0,0,2.21,0l3.536-3.537,3.536,3.537a1.565,1.565,0,0,0,2.21,0l3.537-3.537,3.537,3.537a1.564,1.564,0,0,0,2.209,0l3.537-3.537,3.536,3.537a1.564,1.564,0,0,0,2.209,0l3.538-3.537,3.536,3.537a1.564,1.564,0,0,0,2.209,0l3.537-3.537,3.537,3.537a1.565,1.565,0,0,0,2.21,0l3.535-3.537,2.432,2.431-3.536,3.537a1.562,1.562,0,0,0,0,2.209h0l3.536,3.536-3.536,3.536a1.561,1.561,0,0,0,0,2.21l3.536,3.536-3.536,3.537a1.562,1.562,0,0,0,0,2.209h0L469.044,93l-3.536,3.536a1.562,1.562,0,0,0,0,2.209h0l3.537,3.536-3.537,3.536a1.563,1.563,0,0,0,0,2.21h0l3.537,3.536-3.537,3.537a1.563,1.563,0,0,0,0,2.21l3.537,3.537-2.432,2.43-3.538-3.536a1.561,1.561,0,0,0-2.209,0h0l-3.537,3.536-3.536-3.536a1.562,1.562,0,0,0-2.21,0h0l-3.535,3.536-3.537-3.536a1.561,1.561,0,0,0-2.21,0l-3.536,3.536-3.537-3.536a1.561,1.561,0,0,0-2.209,0h0l-3.537,3.536-3.536-3.536a1.561,1.561,0,0,0-2.209,0h0l-3.537,3.536-.923-.923h0l-2.612-2.613a1.561,1.561,0,0,0-2.209,0h0ZM477.4,89.86a1.563,1.563,0,0,0,0,2.21h0l3.537,3.536L477.4,99.143a1.563,1.563,0,0,0,0,2.21l3.537,3.536-3.537,3.538a1.564,1.564,0,0,0,0,2.211l3.537,3.536-3.537,3.534a1.563,1.563,0,0,0,0,2.21l3.537,3.537-3.537,3.536a1.564,1.564,0,0,0,0,2.209l3.537,3.536-2.432,2.432-3.537-3.537a1.562,1.562,0,0,0-2.209,0h0l-3.537,3.537-3.537-3.535a1.561,1.561,0,0,0-2.21,0l-3.536,3.536-3.536-3.536a1.563,1.563,0,0,0-2.21,0h0l-3.536,3.536-3.536-3.536a1.563,1.563,0,0,0-2.211,0l-3.536,3.536-3.535-3.536a1.562,1.562,0,0,0-2.209,0h0l-3.537,3.536-3.538-3.536a1.562,1.562,0,0,0-2.209,0h0l-3.536,3.536-2.431-2.431,3.536-3.536a1.562,1.562,0,0,0,0-2.209h0l-1.508-1.51,2.433-2.431,3.536,3.537a1.565,1.565,0,0,0,2.21,0l3.537-3.537,3.536,3.537a1.564,1.564,0,0,0,2.209,0l3.537-3.537,3.537,3.537a1.565,1.565,0,0,0,2.21,0l3.536-3.537,3.537,3.537a1.564,1.564,0,0,0,2.209,0l3.536-3.537,3.537,3.537a1.564,1.564,0,0,0,2.209,0l4.641-4.642a1.562,1.562,0,0,0,0-2.209h0l-3.536-3.537,3.536-3.537a1.562,1.562,0,0,0,0-2.209l-3.536-3.537,3.536-3.536a1.561,1.561,0,0,0,0-2.21l-3.536-3.537L472.36,94.1a1.561,1.561,0,0,0,0-2.21l-3.536-3.536,3.536-3.536a1.563,1.563,0,0,0,0-2.21h0l-3.536-3.536,2.429-2.431,1.509,1.509a1.562,1.562,0,0,0,2.209,0h0l3.536-3.536,2.433,2.433L477.4,80.578a1.562,1.562,0,0,0,0,2.209h0l3.537,3.537Z"/><path d="M423.895,86.959a4.393,4.393,0,0,0,3.705-2.111,4.3,4.3,0,0,0,3.7-6.415,4.3,4.3,0,0,0-3.7-6.416,4.306,4.306,0,0,0-7.409,0,4.3,4.3,0,0,0-3.7,6.416,4.3,4.3,0,0,0,3.7,6.415A4.393,4.393,0,0,0,423.895,86.959Zm-4.677-5.826a1.5,1.5,0,0,1,.33-1.677,1.564,1.564,0,0,0,0-2.044,1.3,1.3,0,0,1,1.286-2.234,1.563,1.563,0,0,0,1.77-1.022,1.3,1.3,0,0,1,2.578,0,1.561,1.561,0,0,0,1.769,1.022,1.3,1.3,0,0,1,1.292,2.233,1.56,1.56,0,0,0,0,2.043,1.3,1.3,0,0,1-1.288,2.232,1.564,1.564,0,0,0-1.771,1.026,1.3,1.3,0,0,1-2.577,0,1.561,1.561,0,0,0-1.773-1.025,1.5,1.5,0,0,1-1.619-.554Z"/><path d="M423.876,79.994a1.562,1.562,0,1,0-1.105-.458A1.561,1.561,0,0,0,423.876,79.994Z"/><path d="M446.21,82.695a4.394,4.394,0,0,0,3.68,2.153,4.305,4.305,0,0,0,7.409,0,4.3,4.3,0,0,0,3.7-6.416,4.3,4.3,0,0,0-3.7-6.415,4.3,4.3,0,0,0-7.409,0,4.3,4.3,0,0,0-3.7,6.415A4.394,4.394,0,0,0,446.21,82.695Zm3.036-5.284a1.3,1.3,0,0,1,1.289-2.232,1.561,1.561,0,0,0,1.767-1.022,1.3,1.3,0,0,1,2.578,0,1.563,1.563,0,0,0,1.77,1.022,1.3,1.3,0,0,1,1.288,2.232,1.562,1.562,0,0,0,0,2.043,1.3,1.3,0,0,1-1.288,2.232,1.563,1.563,0,0,0-1.77,1.022,1.3,1.3,0,0,1-2.578,0,1.561,1.561,0,0,0-1.769-1.022,1.3,1.3,0,0,1-1.289-2.232,1.562,1.562,0,0,0,0-2.043Z"/><path d="M453.573,79.994a1.564,1.564,0,1,0-1.105-.458A1.563,1.563,0,0,0,453.573,79.994Z"/><path d="M420.192,113.969a4.305,4.305,0,0,0,7.409,0,4.306,4.306,0,0,0,3.7-6.415,4.3,4.3,0,0,0-3.7-6.415,4.3,4.3,0,0,0-7.409,0,4.306,4.306,0,0,0-3.7,6.415,4.305,4.305,0,0,0,3.7,6.415Zm-.643-7.436a1.3,1.3,0,0,1,1.285-2.231,1.564,1.564,0,0,0,1.77-1.023,1.3,1.3,0,0,1,2.578,0,1.562,1.562,0,0,0,1.769,1.023,1.3,1.3,0,0,1,1.288,2.231,1.564,1.564,0,0,0,0,2.044,1.3,1.3,0,0,1-1.288,2.232,1.563,1.563,0,0,0-1.769,1.022,1.3,1.3,0,0,1-2.578,0,1.562,1.562,0,0,0-1.77-1.022,1.3,1.3,0,0,1-1.289-2.232,1.561,1.561,0,0,0,0-2.044Z"/><path d="M423.875,109.117a1.565,1.565,0,1,0-1.105-.459A1.565,1.565,0,0,0,423.875,109.117Z"/><path d="M460.977,103.29a4.39,4.39,0,0,0-3.68-2.151,4.3,4.3,0,0,0-7.409,0,4.3,4.3,0,0,0-3.7,6.415,4.305,4.305,0,0,0,3.7,6.415,4.305,4.305,0,0,0,7.409,0A4.306,4.306,0,0,0,461,107.554,4.393,4.393,0,0,0,460.977,103.29Zm-2.706,6.964a1.5,1.5,0,0,1-1.619.553,1.564,1.564,0,0,0-1.77,1.023,1.3,1.3,0,0,1-2.578,0,1.561,1.561,0,0,0-1.769-1.023,1.3,1.3,0,0,1-1.288-2.231,1.564,1.564,0,0,0,0-2.044,1.3,1.3,0,0,1,1.288-2.232,1.562,1.562,0,0,0,1.769-1.022,1.3,1.3,0,0,1,2.578,0,1.564,1.564,0,0,0,1.77,1.022,1.3,1.3,0,0,1,1.288,2.232,1.564,1.564,0,0,0,0,2.044,1.5,1.5,0,0,1,.33,1.677Z"/><path d="M453.573,105.992a1.562,1.562,0,1,0,1.105.457A1.562,1.562,0,0,0,453.573,105.992Z"/><path d="M431.357,92.994a4.306,4.306,0,0,0,3.705,6.415,4.306,4.306,0,0,0,7.409,0,4.3,4.3,0,0,0,3.7-6.415,4.393,4.393,0,0,0-.023-4.264h0a4.395,4.395,0,0,0-3.68-2.151,4.3,4.3,0,0,0-7.409,0,4.306,4.306,0,0,0-3.7,6.415Zm3.061-1.022a1.3,1.3,0,0,1,1.288-2.232,1.562,1.562,0,0,0,1.769-1.022,1.3,1.3,0,0,1,2.578,0,1.564,1.564,0,0,0,1.77,1.022,1.3,1.3,0,0,1,1.288,2.232,1.564,1.564,0,0,0,0,2.044,1.3,1.3,0,0,1-1.288,2.231,1.564,1.564,0,0,0-1.77,1.023,1.3,1.3,0,0,1-2.578,0,1.561,1.561,0,0,0-1.769-1.023,1.3,1.3,0,0,1-1.288-2.231,1.5,1.5,0,0,0,0-2.047Z"/><path d="M438.745,94.555a1.564,1.564,0,1,0-1.1-.458A1.563,1.563,0,0,0,438.745,94.555Z"/><path d="M422.932,91.888a1.561,1.561,0,1,0,1.1-.458A1.56,1.56,0,0,0,422.932,91.888Z"/></g></svg>