<svg xmlns="http://www.w3.org/2000/svg" width="250" height="200" viewBox="0 0 250 200"><g transform="translate(-1444.887 -74.37)"><rect width="250" height="200" transform="translate(1444.887 74.37)" fill="none"/><path d="M1688.974,201.726l-80.9,55.981a5.186,5.186,0,0,1-4.019.811l-151.373-31.569a5.2,5.2,0,0,1-1.889-9.354l22.593-15.634,58.3-40.346a5.2,5.2,0,0,1,4.019-.815l131.938,27.518,19.434,4.053a5.2,5.2,0,0,1,1.894,9.355Z" fill="#dad0cd"/><path d="M1667.646,188.318,1611.4,227.233a11.022,11.022,0,0,1-8.545,1.734L1473.38,201.961l58.309-40.346a5.2,5.2,0,0,1,4.019-.815Z" fill="#c1bab8"/><path d="M1687.079,157.08a5.2,5.2,0,0,1,1.894,9.354l-80.906,55.981a5.191,5.191,0,0,1-4.019.813L1452.675,191.66a5.2,5.2,0,0,1-1.894-9.354l80.906-55.981a5.2,5.2,0,0,1,4.014-.813Z" fill="#f4bc8e"/><path d="M1667.646,153.025l-11.1,7.681a6.378,6.378,0,0,1-2.783,1.078l-123.654,16.354a6.468,6.468,0,0,1-2.123-.078l-54.6-11.386,58.309-40.345a5.194,5.194,0,0,1,4.013-.816Z" fill="#efa66f"/><path d="M1486.377,157.685v41l-19.216-4.009v-23.7l6.226-4.307Z" fill="#efa66f"/><path d="M1473.385,166.674l12.993-8.989v11.7Z" fill="#e88f52"/><path d="M1523.622,131.909v74.549L1504.4,202.45V145.205Z" fill="#efa66f"/><path d="M1504.4,145.21l19.216-13.3v45.237l-19.216-4.009Z" fill="#e88f52"/><path d="M1560.866,130.762v83.464l-19.215-4.008V126.754Z" fill="#efa66f"/><path d="M1541.649,126.754l19.215,4.008v43.309l-19.215,2.54Z" fill="#e88f52"/><path d="M1598.112,138.531v83.464l-19.216-4.009V134.523Z" fill="#efa66f"/><path d="M1578.894,134.523l19.216,4.009v30.614l-19.216,2.539Z" fill="#e88f52"/><path d="M1635.357,146.294v57.239l-19.216,13.3V142.29Z" fill="#efa66f"/><path d="M1616.139,142.29l19.216,4v17.924l-19.216,2.54Z" fill="#e88f52"/><path d="M1672.6,154.064v23.7l-19.216,13.295V150.054l14.262,2.973Z" fill="#efa66f"/><path d="M1667.645,153.027l-11.1,7.681a6.378,6.378,0,0,1-2.783,1.078l-.381.049V150.054Z" fill="#e88f52"/><path d="M1688.974,131.143l-30.566,21.152-5.294,3.662-123.852,16.381-8.96-1.871-67.619-14.1a5.2,5.2,0,0,1-1.891-9.355l80.906-55.98a5.172,5.172,0,0,1,4.013-.811l151.373,31.569a5.2,5.2,0,0,1,1.89,9.349Z" fill="#82807f"/><path d="M1658.408,152.294l-5.294,3.662L1529.26,172.337l-8.959-1.87,80.364-46.09a11.05,11.05,0,0,1,11.2.088Z" fill="#6d6d6d"/><path d="M1653.116,155.957l-44.262-26.471a5.194,5.194,0,0,0-5.26-.041l-74.331,42.89Z" fill="#dad0cd"/><path d="M1641.793,229.919,1605.986,254.7a1.536,1.536,0,0,1-1.183.24l-32.576-6.794a3.663,3.663,0,1,0-1.495,7.171h0l32.576,6.793a8.729,8.729,0,0,0,1.8.184,8.9,8.9,0,0,0,5.051-1.568l35.807-24.778a3.662,3.662,0,0,0-4.168-6.022h0Z"/><path d="M1694.7,160.406a8.735,8.735,0,0,0-6.87-6.911l-14.457-3.015-.051-.011-4.487-.935,22.226-15.382a8.855,8.855,0,0,0-3.235-15.95l-99.536-20.757a3.662,3.662,0,1,0-1.495,7.169l99.54,20.761a1.53,1.53,0,0,1,.559,2.757L1652.969,151.6l-42.238-25.256a8.86,8.86,0,0,0-8.969-.07l-73.12,42.192-75.211-15.686a1.53,1.53,0,0,1-.559-2.757l80.9-55.98a1.541,1.541,0,0,1,1.183-.241l33.776,7.045a3.662,3.662,0,0,0,1.495-7.17l-33.775-7.046a8.891,8.891,0,0,0-6.846,1.386L1448.7,144.006a8.855,8.855,0,0,0,3.235,15.95l19,3.961L1448.7,179.3a8.855,8.855,0,0,0,3.235,15.95l19,3.962L1448.7,214.586a8.855,8.855,0,0,0,3.235,15.95L1552.3,251.467a3.662,3.662,0,0,0,1.495-7.17h0l-100.366-20.929a1.53,1.53,0,0,1-.559-2.757l27.949-19.342,122.491,25.545a8.8,8.8,0,0,0,1.8.184,8.9,8.9,0,0,0,5.051-1.569l50.368-34.853,25.808,5.382a1.53,1.53,0,0,1,.559,2.757l-30.413,21.044a3.662,3.662,0,0,0,4.168,6.022l30.409-21.041a8.855,8.855,0,0,0-3.235-15.95l-18.995-3.962,22.23-15.382A8.732,8.732,0,0,0,1694.7,160.406Zm-25.755-3.367v18.8l-11.894,8.235V157.69l3.477-2.406Zm-37.247,5.446v39.132l-11.9,8.235v-45.8Zm7.324-.97,10.705-1.415v29.04l-10.705,7.408Zm-33.6-28.893a1.535,1.535,0,0,1,1.551.012l35.241,21.072-95.14,12.585Zm-97.353,39.04,11.894,2.48v27.809l-11.894-2.481Zm-7.323,26.281-10.709-2.232V167.9l10.706,2.23Zm26.542-22.275,1.23.256a3.625,3.625,0,0,0,1.229.045l8.242-1.09v30.83l-10.7-2.232Zm18.024-1.756,11.9-1.569v37.379l-11.9-2.48Zm19.216-2.543,10.705-1.415v43.524l-10.705-2.232V171.369Zm18.029-2.384,11.9-1.569v50.069l-11.9-2.48Zm-99.844-2.612v27.809l-11.894-2.481V172.9l10-6.921Zm-30.471,20.508a1.465,1.465,0,0,1,.63-1.563l10.623-7.352v12.206l-10.064-2.1A1.459,1.459,0,0,1,1452.242,186.881ZM1605.986,219.4a1.544,1.544,0,0,1-1.183.24l-3.028-.631V166.442l10.7-1.416v49.888Zm80.9-55.981-10.623,7.353V158.563l10.065,2.1a1.53,1.53,0,0,1,.558,2.757Z"/></g></svg>