<svg xmlns="http://www.w3.org/2000/svg" width="60.42" height="103.249" viewBox="0 0 60.42 103.249"><g transform="translate(-932.344 -446.1)"><path d="M962.429,547.77l-28.585-9.447V447.6h57.42v90.72Z" fill="#fff"/><path d="M935.344,449.1v88.139l27.086,8.952,27.334-8.958V449.1h-54.42m-3-3h60.42v93.307l-30.337,9.942-30.083-9.942Z" fill="#673ab7"/><g style="isolation:isolate"><g style="isolation:isolate"><path d="M963.677,522.914a30.043,30.043,0,0,1-8.132-1.064,21.854,21.854,0,0,1-6.727-3.117,18.333,18.333,0,0,1-4.864-5.015,17.212,17.212,0,0,1-2.546-6.841l10.868-2.28q1.215,4.865,4.18,7.069a12.01,12.01,0,0,0,7.372,2.2,10.115,10.115,0,0,0,6.347-1.747,5.824,5.824,0,0,0,2.241-4.865,4.953,4.953,0,0,0-.949-3.078,8.344,8.344,0,0,0-2.546-2.166,18.332,18.332,0,0,0-3.687-1.557q-2.09-.646-4.37-1.331-3.039-.912-6.156-2.014a23.25,23.25,0,0,1-5.661-2.888,14.29,14.29,0,0,1-4.143-4.484,13.2,13.2,0,0,1-1.595-6.8,14.594,14.594,0,0,1,5.32-11.514,17.962,17.962,0,0,1,6-3.23,24.632,24.632,0,0,1,7.676-1.14,31.181,31.181,0,0,1,7.03.8,21.616,21.616,0,0,1,6.307,2.508,16.858,16.858,0,0,1,4.9,4.484,17.989,17.989,0,0,1,2.964,6.65l-9.907,2.28a11.67,11.67,0,0,0-3.924-5.89,11.189,11.189,0,0,0-6.743-1.862,10.426,10.426,0,0,0-6.249,1.71,5.4,5.4,0,0,0-2.362,4.6,4.2,4.2,0,0,0,.877,2.7,7.48,7.48,0,0,0,2.361,1.9,17.632,17.632,0,0,0,3.467,1.368q1.981.57,4.192,1.178,3.123.837,6.4,1.938a23.9,23.9,0,0,1,5.981,2.964,15.376,15.376,0,0,1,4.458,4.75,14.022,14.022,0,0,1,1.753,7.373,15.332,15.332,0,0,1-1.444,6.726,15.17,15.17,0,0,1-4.065,5.168,18.7,18.7,0,0,1-6.346,3.343A27.362,27.362,0,0,1,963.677,522.914Z" fill="#361274"/></g></g></g></svg>