<svg xmlns="http://www.w3.org/2000/svg" width="119.73" height="119.731" viewBox="0 0 119.73 119.731"><g transform="translate(-695.033 -227.455)"><g style="isolation:isolate"><g style="isolation:isolate"><path d="M751.7,311.07h30v12.3H732.2v-11.1l28.3-28.7a27,27,0,0,0,4.65-5.85,11.609,11.609,0,0,0,1.45-5.65,7.865,7.865,0,0,0-2.55-6.3,10.447,10.447,0,0,0-7.05-2.2q-11.2,0-11.2,11.8v3.4l-13.8-1.4v-3.2a25.773,25.773,0,0,1,1.7-9.649,19.777,19.777,0,0,1,4.85-7.2,21.03,21.03,0,0,1,7.7-4.5,34.006,34.006,0,0,1,19.8-.15,23.078,23.078,0,0,1,7.55,4,17.661,17.661,0,0,1,4.95,6.4,20.1,20.1,0,0,1,1.75,8.5,23.047,23.047,0,0,1-2.15,10.15,37.549,37.549,0,0,1-7.15,9.551Z" fill="none" stroke="#b492f1" stroke-linecap="round" stroke-linejoin="round" stroke-width="2.835"/></g></g><circle cx="58.448" cy="58.448" r="58.448" transform="translate(696.451 228.872)" fill="none" stroke="#b492f1" stroke-width="2.835"/></g></svg>