<svg xmlns="http://www.w3.org/2000/svg" width="68.294" height="97.984" viewBox="0 0 68.294 97.984"><g transform="translate(-77.533 0)"><path d="M228.8,271.274v11.515l-8.4,6.328-8.4-6.328V271.274Z" transform="translate(-108.714 -219.333)" fill="#ffcebf"/><path d="M228.8,271.274v8.385a17,17,0,0,1-7.3,1.637h-2.2a17,17,0,0,1-7.3-1.637v-8.385Z" transform="translate(-108.714 -219.333)" fill="#ffb09e"/><path d="M150.454,344.97v19.536H85.032V344.97a8.042,8.042,0,0,1,5.625-7.67l8.473-2.669,10.217-3.217,8.4,6.328,8.4-6.328,10.217,3.217,8.473,2.669A8.042,8.042,0,0,1,150.454,344.97Z" transform="translate(-6.063 -267.957)" fill="#98bce5"/><path d="M195.888,334.631l-7.71,13.271a1.34,1.34,0,0,1-1.9.442l-5.025-3.351-3.975-2.65-3.975,2.65-5.025,3.351a1.34,1.34,0,0,1-1.9-.442l-7.71-13.271,10.217-3.217,8.4,6.328,8.4-6.328Z" transform="translate(-65.595 -267.957)" fill="#7bacdf"/><path d="M109.347,331.414l1.693,1.275L96.4,337.3a8.042,8.042,0,0,0-5.625,7.67v19.536H85.032V344.97a8.042,8.042,0,0,1,5.625-7.67Z" transform="translate(-6.063 -267.957)" fill="#7bacdf"/><path d="M184.689,331.414l8.4,6.327-8.921,5.948-5.948-10.236Z" transform="translate(-81.405 -267.957)" fill="#5f99d7"/><path d="M264.269,331.414l-8.4,6.327,8.921,5.948,5.947-10.236Z" transform="translate(-144.192 -267.957)" fill="#5f99d7"/><path d="M230.757,364.46l-5.947,3.965,2.974,4.956h5.947l2.974-4.956Z" transform="translate(-119.078 -294.676)" fill="#548eb5"/><path d="M236.706,368.427l-1.972,3.288-3.975-2.65-3.975,2.65-1.972-3.288,5.947-3.963Z" transform="translate(-119.079 -294.679)" fill="#497090"/><path d="M227.784,411.054,224.81,428.9H236.7l-2.974-17.843Z" transform="translate(-119.078 -332.349)" fill="#548eb5"/><path d="M209.438,125.589v17.483a13.309,13.309,0,0,1-13.309,13.309h-2.2a13.309,13.309,0,0,1-13.309-13.309V125.589a4.076,4.076,0,0,1,4.076-4.075h20.664A4.076,4.076,0,0,1,209.438,125.589Z" transform="translate(-83.35 -98.247)" fill="#ffeee6"/><path d="M331.12,161.425H334a4,4,0,0,1,4,4v3a4,4,0,0,1-4,4H331.12Z" transform="translate(-205.032 -130.516)" fill="#ffcebf"/><path d="M151.551,161.425h-2.884a4,4,0,0,0-4,4v3a4,4,0,0,0,4,4h2.884Z" transform="translate(-54.279 -130.516)" fill="#ffcebf"/><path d="M156.1,10.639,148.673,15.6a5.936,5.936,0,0,0-1.353,8.622l5.338,6.734h28.816l5.381-6.755a5.936,5.936,0,0,0-1.321-8.618l-7.252-4.9a19.888,19.888,0,0,0-22.18-.052Z" transform="translate(-55.386 -5.891)" fill="#98bce5"/><path d="M170.022,7.493a19.939,19.939,0,0,0-8.178,3.144L154.415,15.6a5.936,5.936,0,0,0-1.354,8.622l5.338,6.734h-5.744l-5.338-6.734a5.935,5.935,0,0,1,1.354-8.622l7.429-4.965a19.882,19.882,0,0,1,13.922-3.144Z" transform="translate(-55.384 -5.889)" fill="#7bacdf"/><path d="M205.362,121.514H184.7a4.076,4.076,0,0,0-4.076,4.075v17.483a13.309,13.309,0,0,0,13.309,13.309h2.2a13.215,13.215,0,0,0,1.773-.119,13.309,13.309,0,0,1-11.536-13.19v-7.216a2.871,2.871,0,0,1,2.871-2.872l14.361,0a9.615,9.615,0,0,0,5.84-1.968v-5.428A4.076,4.076,0,0,0,205.362,121.514Z" transform="translate(-83.35 -98.247)" fill="#ffdfcf"/><path d="M203.6,136.768H186.463a5.839,5.839,0,0,1-5.839-5.839H209.44A5.839,5.839,0,0,1,203.6,136.768Z" transform="translate(-83.352 -105.86)" fill="#548eb5"/><path d="M192.206,136.764h-5.744a5.84,5.84,0,0,1-5.84-5.84h5.744A5.84,5.84,0,0,0,192.206,136.764Z" transform="translate(-83.35 -105.856)" fill="#497090"/><path d="M162.645,100.433h35.693v5.839H162.645Z" transform="translate(-68.816 -81.203)" fill="#5f99d7"/><path d="M162.642,100.434h5.744v5.838h-5.744Z" transform="translate(-68.813 -81.204)" fill="#3c87d0"/><path d="M230.783,38.369v-.02l-.019.01-.019-.01v.02l-5.935,3.174a9.9,9.9,0,0,0,5.122,8.7H231.6a9.9,9.9,0,0,0,5.122-8.7Z" transform="translate(-119.078 -31.006)" fill="#ffde5c"/><g transform="translate(77.533 0)"><path d="M144.391,82.956a1.436,1.436,0,0,0,1.436-1.436V77.013a9.441,9.441,0,0,0-6.63-9.04L121.518,62.4V56.7a14.7,14.7,0,0,0,6.006-11.874V43.345h1.447a5.443,5.443,0,0,0,5.437-5.437v-3a5.443,5.443,0,0,0-5.437-5.437h-1.447a17.228,17.228,0,0,0-.064-2.968h2.063a1.436,1.436,0,0,0,1.436-1.436v-3.81c3.529-3.485,4.754-9.537-.008-12.751l-7.251-4.9a21.526,21.526,0,0,0-23.781-.057L92.489,8.519c-4.646,3.106-4.719,8.17-.1,12.707v3.843A1.436,1.436,0,0,0,93.829,26.5H95.9a17.246,17.246,0,0,0-.064,2.968H94.388a5.443,5.443,0,0,0-5.437,5.437v3a5.443,5.443,0,0,0,5.437,5.437h1.447v1.479A14.7,14.7,0,0,0,101.842,56.7V62.4l-9.609,3.027a1.436,1.436,0,1,0,.863,2.739l3.051-.961,5.37,9.243a1.443,1.443,0,0,0,2.038.474l1.721-1.147L107.2,78.99l-2.687,16.122H92.3V84.653a1.436,1.436,0,1,0-2.872,0v10.46H80.4v-18.1a6.58,6.58,0,0,1,4.621-6.3l2.079-.655a1.436,1.436,0,1,0-.863-2.739l-2.079.655a9.44,9.44,0,0,0-6.63,9.04V96.548a1.436,1.436,0,0,0,1.436,1.436h65.422a1.436,1.436,0,0,0,1.436-1.436V87.779a1.436,1.436,0,0,0-2.872,0v7.333h-8.546V84.653a1.436,1.436,0,0,0-2.872,0v10.46H118.844l-2.687-16.122,1.927-3.212,1.721,1.147a1.443,1.443,0,0,0,2.038-.474l5.37-9.243,11.121,3.5a6.58,6.58,0,0,1,4.621,6.3V81.52a1.436,1.436,0,0,0,1.436,1.436Zm-25.745-24.6v4.381l-6.966,5.249-6.966-5.249V58.355C108.361,60.4,114.654,60.093,118.646,58.355Zm10.326-26.011a2.568,2.568,0,0,1,2.565,2.565v3a2.568,2.568,0,0,1-2.565,2.565h-1.447V32.344h1.447ZM94.085,10.906l7.429-4.965a18.628,18.628,0,0,1,20.578.05l7.251,4.9c3.418,2.4,1.34,6.907.179,6.907H116.5a11.653,11.653,0,0,0,2.572-7.257,1.436,1.436,0,0,0-.759-1.266L112.575,6.2a1.5,1.5,0,0,0-1.777,0l-5.743,3.071a1.436,1.436,0,0,0-.759,1.266,11.652,11.652,0,0,0,2.572,7.257H93.829c-1.009,0-3.474-4.241.256-6.888ZM111.2,17.795a8.485,8.485,0,0,1-3.988-6.42l4.475-2.393,4.475,2.393a8.485,8.485,0,0,1-3.988,6.42ZM95.265,20.667h32.822v2.966H114.835a1.436,1.436,0,1,0,0,2.872h9.579a4.439,4.439,0,0,1-4.166,2.968H103.111A4.411,4.411,0,0,1,98.948,26.5h9.628a1.436,1.436,0,1,0,0-2.872H95.265Zm-.877,19.806a2.568,2.568,0,0,1-2.565-2.565v-3a2.568,2.568,0,0,1,2.565-2.565h1.447v8.129H94.388Zm4.319,4.352V30.909c.973,1.744,2.935,1.436,4.4,1.436h17.137c2.393,0,4.4-.993,4.4-1.436V44.825a11.842,11.842,0,0,1-5.36,9.927c-4.107,2.7-11.09,2.722-15.226,0A11.842,11.842,0,0,1,98.708,44.825Zm4.525,28.865-4.278-7.364,4.052-1.276,6.191,4.663Zm12.7,21.422h-8.5l2.5-14.971h3.514Zm-2.092-17.843h-4.321l-1.851-3.085,4.012-2.674,4.012,2.674Zm6.286-3.58-5.965-3.977,6.191-4.663,4.052,1.276Z" transform="translate(-77.533 0)"/><path d="M178.1,437.529a1.436,1.436,0,1,0,0-2.872h-5.948a1.436,1.436,0,1,0,0,2.872Z" transform="translate(-152.874 -351.433)"/><path d="M296.4,434.657a1.436,1.436,0,1,0,0,2.872h5.948a1.436,1.436,0,1,0,0-2.872Z" transform="translate(-253.333 -351.433)"/><path d="M217.426,187.158a1.436,1.436,0,0,0,1.436-1.436v-1.885a1.436,1.436,0,0,0-2.872,0v1.885A1.436,1.436,0,0,0,217.426,187.158Z" transform="translate(-189.479 -147.477)"/><path d="M282.043,187.158a1.436,1.436,0,0,0,1.436-1.436v-1.885a1.436,1.436,0,0,0-2.872,0v1.885A1.436,1.436,0,0,0,282.043,187.158Z" transform="translate(-241.724 -147.477)"/><path d="M234.6,239.5a5.043,5.043,0,0,0,5.037-5.037,1.436,1.436,0,0,0-2.872,0,2.165,2.165,0,1,1-4.331,0,1.436,1.436,0,0,0-2.872,0A5.043,5.043,0,0,0,234.6,239.5Z" transform="translate(-200.454 -188.41)"/></g></g></svg>