<svg xmlns="http://www.w3.org/2000/svg" width="77" height="75.353" viewBox="0 0 77 75.353"><g transform="translate(0 -5.464)"><g transform="translate(1.13 6.595)"><path d="M60.912,63.709a6.548,6.548,0,0,1,6.548,6.548V122.6a6.548,6.548,0,0,1-6.548,6.548H14.047A6.548,6.548,0,0,1,7.5,122.6V70.257a6.548,6.548,0,0,1,6.548-6.548H60.912Z" transform="translate(-7.499 -56.06)" fill="#a6e7f0"/><path d="M104.3,63.71v2.443a6.19,6.19,0,0,0,6.183,6.183h18.415a6.19,6.19,0,0,0,6.183-6.183V63.71Z" transform="translate(-89.707 -56.061)" fill="#6bd9e7"/><path d="M278.956,159.025c-.14.06-.28.121-.418.185l-1.9.885-1.9-.885a12.8,12.8,0,0,0-13.235,21.727l12.389,9.569a4.474,4.474,0,0,0,5.057.288V159.025Z" transform="translate(-218.996 -136.146)" fill="#6bd9e7"/><path d="M86.391,93.71a2.028,2.028,0,0,1,2.026,2.026v52.348a2.028,2.028,0,0,1-2.026,2.026H39.526a2.028,2.028,0,0,1-2.026-2.026V95.736a2.028,2.028,0,0,1,2.026-2.026Z" transform="translate(-32.978 -81.539)" fill="#f9f7f8"/><path d="M274.435,190.857V159.07a12.8,12.8,0,0,0-12.925,21.867l12.389,9.569A4.439,4.439,0,0,0,274.435,190.857Z" transform="translate(-218.996 -136.146)" fill="#efedef"/><path d="M106.69,93.71a6.192,6.192,0,0,0,5.822,4.1h18.415a6.192,6.192,0,0,0,5.822-4.1Z" transform="translate(-91.739 -81.539)" fill="#efedef"/><path d="M145.88,16.327h-1.809a.379.379,0,0,1-.379-.379V14.833a1.868,1.868,0,0,0-1.868-1.868h-10.3a1.868,1.868,0,0,0-1.868,1.868v1.116a.379.379,0,0,1-.379.379h-1.809a3.168,3.168,0,0,0-3.168,3.168v3.562a3.168,3.168,0,0,0,3.168,3.168H145.88a3.168,3.168,0,0,0,3.168-3.168V19.495a3.168,3.168,0,0,0-3.168-3.168Z" transform="translate(-106.692 -12.965)" fill="#f9f7f8"/><path d="M309.177,182.507a9.784,9.784,0,0,0-12.371-3.58l-2.574,1.2a1.413,1.413,0,0,1-1.195,0l-2.574-1.2a9.783,9.783,0,0,0-13.337,12.194l.922.407.63,1.5-.382.354a9.767,9.767,0,0,0,2.049,2.154l12.389,9.569a1.472,1.472,0,0,0,1.8,0l12.389-9.569a9.758,9.758,0,0,0,2.4-2.7l-.168-.421.52-1.329.642-.511A9.768,9.768,0,0,0,309.177,182.507Z" transform="translate(-235.99 -153.13)" fill="#f37c7c"/></g><g transform="translate(0 5.464)"><path d="M61.091,104.9a1.131,1.131,0,0,0-1.13,1.13v10.209a5.423,5.423,0,0,1-5.417,5.417H7.678a5.423,5.423,0,0,1-5.417-5.417V63.888a5.423,5.423,0,0,1,5.417-5.417h6.536a1.13,1.13,0,1,0,0-2.261H7.678A7.687,7.687,0,0,0,0,63.888v52.348a7.687,7.687,0,0,0,7.678,7.678H54.543a7.687,7.687,0,0,0,7.678-7.678V106.027A1.13,1.13,0,0,0,61.091,104.9Z" transform="translate(0 -48.561)"/><path d="M312.131,58.471h6.536a5.423,5.423,0,0,1,5.417,5.417v7.059a1.13,1.13,0,1,0,2.261,0V63.888a7.687,7.687,0,0,0-7.678-7.678h-6.536a1.13,1.13,0,1,0,0,2.261Z" transform="translate(-264.123 -48.561)"/><path d="M31.13,177.61A1.131,1.131,0,0,0,30,178.74v40.6a3.16,3.16,0,0,0,3.156,3.156H80.021a3.16,3.16,0,0,0,3.156-3.156V209.172a1.13,1.13,0,1,0-2.261,0v10.165a.9.9,0,0,1-.9.9H33.156a.9.9,0,0,1-.9-.9v-40.6a1.131,1.131,0,0,0-1.13-1.13Z" transform="translate(-25.478 -151.662)"/><path d="M39.98,86.21H33.156A3.16,3.16,0,0,0,30,89.366V96.3a1.13,1.13,0,0,0,2.261,0V89.366a.9.9,0,0,1,.9-.9h6.823a1.13,1.13,0,0,0,0-2.261Z" transform="translate(-25.478 -74.039)"/><path d="M310.221,88.471h6.823a.9.9,0,0,1,.9.9v7.1a1.13,1.13,0,1,0,2.261,0v-7.1a3.16,3.16,0,0,0-3.156-3.156h-6.823a1.13,1.13,0,1,0,0,2.261Z" transform="translate(-262.501 -74.039)"/><path d="M121.1,20.985h5.256a1.13,1.13,0,0,0,0-2.261H121.1a2.04,2.04,0,0,1-2.037-2.037V13.124a2.04,2.04,0,0,1,2.037-2.038H122.9a1.511,1.511,0,0,0,1.509-1.509V8.462a.738.738,0,0,1,.737-.737h10.3a.738.738,0,0,1,.737.737V9.578a1.511,1.511,0,0,0,1.509,1.509h1.809a2.04,2.04,0,0,1,2.037,2.038v3.562a2.04,2.04,0,0,1-2.037,2.037h-8.341a1.13,1.13,0,1,0,0,2.261h8.341a4.3,4.3,0,0,0,4.3-4.3V13.124a4.3,4.3,0,0,0-4.3-4.3h-1.057V8.462a3,3,0,0,0-3-3h-10.3a3,3,0,0,0-3,3v.364H121.1a4.3,4.3,0,0,0-4.3,4.3v3.562A4.3,4.3,0,0,0,121.1,20.985Z" transform="translate(-99.192 -5.464)"/><path d="M184.547,54.738a1.131,1.131,0,0,0-1.13-1.13h-7.17a1.13,1.13,0,1,0,0,2.261h7.17A1.131,1.131,0,0,0,184.547,54.738Z" transform="translate(-148.721 -46.351)"/><path d="M303.752,175.574a10.952,10.952,0,0,0-13.8-3.994l-2.574,1.2a.282.282,0,0,1-.238,0l-2.574-1.2a10.914,10.914,0,0,0-11.287,18.528l12.389,9.569a2.6,2.6,0,0,0,3.182,0l4.725-3.649a1.131,1.131,0,1,0-1.382-1.79l-4.725,3.649a.342.342,0,0,1-.418,0l-12.389-9.568a8.677,8.677,0,0,1-1.315-1.259h4.741a1.13,1.13,0,0,0,1.09-.829l1.273-4.6,3.539,9.814a1.131,1.131,0,0,0,1.058.747h.005a1.131,1.131,0,0,0,1.06-.737l3.359-9.053,1.015,3.32a1.131,1.131,0,0,0,1.081.8H301.6a8.662,8.662,0,0,1-1.739,1.8l-3.82,2.95a1.131,1.131,0,0,0,1.382,1.79l3.82-2.95a10.915,10.915,0,0,0,2.513-14.534ZM292.4,184.257l-1.748-5.718a1.13,1.13,0,0,0-2.141-.063l-3.447,9.291-3.7-10.25a1.13,1.13,0,0,0-2.153.082l-1.991,7.2h-5.264a8.653,8.653,0,0,1,11.647-11.17l2.574,1.2a2.537,2.537,0,0,0,2.151,0l2.574-1.2a8.649,8.649,0,0,1,11.85,10.628H292.4Z" transform="translate(-228.482 -145.678)"/><path d="M77.518,153.589H82.83a2.342,2.342,0,0,0,2.339-2.339v-5.858a2.342,2.342,0,0,0-2.339-2.339H77.518a2.341,2.341,0,0,0-2.339,2.339v5.858a2.341,2.341,0,0,0,2.339,2.339Zm-.078-8.2a.078.078,0,0,1,.078-.078H82.83a.078.078,0,0,1,.078.078v5.858a.078.078,0,0,1-.078.078H77.518a.078.078,0,0,1-.078-.078Z" transform="translate(-63.847 -122.315)"/><path d="M75.179,249.975a2.341,2.341,0,0,0,2.339,2.339H82.83a2.342,2.342,0,0,0,2.339-2.339v-5.858a2.341,2.341,0,0,0-2.339-2.339H77.518a2.341,2.341,0,0,0-2.339,2.339Zm2.261-5.858a.078.078,0,0,1,.078-.078H82.83a.078.078,0,0,1,.078.078v5.858a.078.078,0,0,1-.078.078H77.518a.078.078,0,0,1-.078-.078Z" transform="translate(-63.847 -206.159)"/><path d="M75.179,348.7a2.341,2.341,0,0,0,2.339,2.339H82.83a2.342,2.342,0,0,0,2.339-2.339v-5.858A2.341,2.341,0,0,0,82.83,340.5H77.518a2.341,2.341,0,0,0-2.339,2.339Zm2.261-5.858a.078.078,0,0,1,.078-.078H82.83a.078.078,0,0,1,.078.078V348.7a.078.078,0,0,1-.078.078H77.518a.078.078,0,0,1-.078-.078Z" transform="translate(-63.847 -290.002)"/><path d="M157.346,149.02H170.5a1.13,1.13,0,1,0,0-2.261H157.346a1.13,1.13,0,0,0,0,2.261Z" transform="translate(-132.669 -125.461)"/><path d="M157.346,197.03H170.5a1.13,1.13,0,1,0,0-2.261H157.346a1.13,1.13,0,1,0,0,2.261Z" transform="translate(-132.669 -166.235)"/><path d="M157.346,247.481H170.5a1.13,1.13,0,1,0,0-2.261H157.346a1.13,1.13,0,0,0,0,2.261Z" transform="translate(-132.669 -209.081)"/><path d="M172.306,293.23h-14.96a1.13,1.13,0,1,0,0,2.261h14.96a1.13,1.13,0,1,0,0-2.261Z" transform="translate(-132.669 -249.855)"/><path d="M178.159,343.682H157.346a1.13,1.13,0,1,0,0,2.261h20.813a1.13,1.13,0,1,0,0-2.261Z" transform="translate(-132.669 -292.702)"/><path d="M182.925,391.692H157.346a1.13,1.13,0,0,0,0,2.261h25.579a1.13,1.13,0,1,0,0-2.261Z" transform="translate(-132.669 -333.475)"/></g></g></svg>