<svg xmlns="http://www.w3.org/2000/svg" width="140" height="146.286" viewBox="0 0 140 146.286"><g transform="translate(-11)"><g transform="translate(11 6.286)"><path d="M138.42,132.04a70,70,0,1,0-114.839,0Z" transform="translate(-11 -22)" fill="#88ce65"/></g><g transform="translate(26.714 12)"><circle cx="54" cy="54" r="54" transform="translate(0.286 0.286)" fill="#6faf46"/></g><g transform="translate(32.86)"><path d="M135.651,0c-45.283,0-48.14,62.28-48.14,107.216h96.28C183.79,62.28,180.933,0,135.651,0Z" transform="translate(-87.511)" fill="#6c5475"/></g><g transform="translate(32.86)"><path d="M135.651,0c-45.283,0-48.14,62.28-48.14,107.216h48.14V15.03a7.515,7.515,0,1,1,0-15.03Z" transform="translate(-87.511)" fill="#543e5b"/></g><g transform="translate(50.341 41.929)"><path d="M204.379,146.751H154.324c-7.027,13.444-7.976,39.84,0,57.706h50.055C212.355,186.591,211.406,160.2,204.379,146.751Z" transform="translate(-148.692 -146.75)" fill="#45304c"/></g><g transform="translate(23.586 99.636)"><path d="M162.053,349.787a11.179,11.179,0,0,0-1.448-1.061H64.325a11.18,11.18,0,0,0-1.448,1.061c-2.386,2.107-5.191,8.383-7.826,15.629a69.993,69.993,0,0,0,114.828,0C167.245,358.169,164.439,351.893,162.053,349.787Z" transform="translate(-55.051 -348.726)" fill="#6c5475"/></g><g transform="translate(23.586 99.636)"><path d="M93.03,352.114a71.415,71.415,0,0,0,8.6-3.389H64.325a11.183,11.183,0,0,0-1.448,1.061c-2.386,2.107-5.191,8.383-7.826,15.629a70.3,70.3,0,0,0,28.117,23.549L80.8,382.106c-4.443-13.455-3.466-24.919,12.23-29.992Z" transform="translate(-55.051 -348.725)" fill="#543e5b"/></g><g transform="translate(35.396 117.196)"><path d="M103.365,427.656a21.626,21.626,0,0,1,1.344-15.32,1.5,1.5,0,0,0-2.441-1.677,22.715,22.715,0,0,0-5.882,11.715A70.255,70.255,0,0,0,103.365,427.656Z" transform="translate(-96.386 -410.187)" fill="#45304c"/></g><g transform="translate(118.129 117.196)"><path d="M387.447,427.656a21.626,21.626,0,0,0-1.344-15.32,1.5,1.5,0,0,1,2.441-1.677,22.716,22.716,0,0,1,5.882,11.715A70.251,70.251,0,0,1,387.447,427.656Z" transform="translate(-385.95 -410.187)" fill="#543e5b"/></g><g transform="translate(65.319 105.073)"><path d="M205.4,369.9a2.143,2.143,0,1,0-4.286,0,102.242,102.242,0,0,0,4.233,28.589,78.521,78.521,0,0,0,3.739,10.061q2.446.268,4.941.364C209.315,399.74,205.4,385.014,205.4,369.9Z" transform="translate(-201.115 -367.755)" fill="#45304c"/><g transform="translate(18.449)"><path d="M274.369,398.486A102.233,102.233,0,0,0,278.6,369.9a2.143,2.143,0,1,0-4.286,0c0,15.116-3.914,29.842-8.628,39.014q2.494-.1,4.941-.364A78.541,78.541,0,0,0,274.369,398.486Z" transform="translate(-265.688 -367.755)" fill="#45304c"/></g></g><g transform="translate(32.86 63.067)"><path d="M149.19,247.546V220.734H122.112v26.812c-.693.115-25.992,4.348-34.6,9.757,0,0,15.951,23.337,48.14,23.337s48.106-23.359,48.106-23.359C175.115,251.883,149.882,247.661,149.19,247.546Z" transform="translate(-87.511 -220.734)" fill="#deeeff"/></g><g transform="translate(32.86 63.067)"><path d="M149.11,232.452V220.734h-27v26.812c-.693.115-25.992,4.348-34.6,9.757a56.387,56.387,0,0,0,15.483,14.026c1.895-4.613,6-8.3,13.223-10.638C144.5,251.549,149.11,232.452,149.11,232.452Z" transform="translate(-87.511 -220.734)" fill="#d3dcfb"/></g><g transform="translate(55.972 14.961)"><path d="M193.431,52.362a26.885,26.885,0,0,0-21.1,9.5A38.564,38.564,0,0,0,168.4,79.331s50.055,0,50.055,0a38.564,38.564,0,0,0-3.931-17.465,26.885,26.885,0,0,0-21.1-9.5Z" transform="translate(-168.403 -52.362)" fill="#deeeff"/></g><g transform="translate(55.972 15.03)"><path d="M172.334,62.039A38.564,38.564,0,0,0,168.4,79.5s13.575,0,13.575,0V66.261A29.473,29.473,0,0,1,191.349,52.6,26.715,26.715,0,0,0,172.334,62.039Z" transform="translate(-168.403 -52.604)" fill="#d3dcfb"/></g><g transform="translate(55.972 26.389)"><path d="M193.431,92.362A27.233,27.233,0,0,0,168.4,107.9c0,18.43,11.205,40.044,25.028,40.044s25.028-21.615,25.028-40.044a27.233,27.233,0,0,0-25.028-15.541Z" transform="translate(-168.403 -92.362)" fill="#fcd2ae"/></g><g transform="translate(55.972 28.687)"><path d="M179.832,113.646a40.331,40.331,0,0,1,2.147-13.243A27.5,27.5,0,0,0,168.4,113.646c0,18.43,11.205,40.044,25.028,40.044a14.18,14.18,0,0,0,5.714-1.242c-11.069-4.843-19.313-22.994-19.313-38.8Z" transform="translate(-168.403 -100.403)" fill="#fbb989"/></g><g transform="translate(76.714 50.268)"><path d="M241.289,180.654l2.41-3.84a1.873,1.873,0,0,1,3.172,0l2.41,3.84a1.873,1.873,0,0,1-1.586,2.868h-4.82A1.873,1.873,0,0,1,241.289,180.654Z" transform="translate(-241 -175.936)" fill="#fbb989"/></g><g transform="translate(72.429 62.139)"><path d="M228.681,224.166h11.781a8.907,8.907,0,0,0,2.574-3.895A2.134,2.134,0,0,0,241,217.485H228.145a2.134,2.134,0,0,0-2.038,2.787A8.907,8.907,0,0,0,228.681,224.166Z" transform="translate(-226 -217.485)" fill="#543e5b"/><g transform="translate(2.681 4.453)"><path d="M247.165,235.3a8.9,8.9,0,0,1-11.781,0,8.9,8.9,0,0,1,11.781,0Z" transform="translate(-235.384 -233.072)" fill="#ff7186"/></g></g><g transform="translate(63.857 35.419)"><path d="M203.857,128.254h-5.714a2.143,2.143,0,0,1,0-4.286h5.714a2.143,2.143,0,0,1,0,4.286Z" transform="translate(-196 -123.968)" fill="#945230"/></g><g transform="translate(88.143 35.419)"><path d="M288.857,128.254h-5.714a2.143,2.143,0,0,1,0-4.286h5.714a2.143,2.143,0,0,1,0,4.286Z" transform="translate(-281 -123.968)" fill="#945230"/></g><g transform="translate(89.571 42.7)"><path d="M293.142,153.06a3.572,3.572,0,1,0-7.143,0,1.478,1.478,0,0,0,2.525,1,1.479,1.479,0,0,1,2.092,0A1.478,1.478,0,0,0,293.142,153.06Z" transform="translate(-285.999 -149.45)" fill="#543e5b"/></g><g transform="translate(65.286 42.7)"><path d="M201,153.06a3.572,3.572,0,1,1,7.143,0,1.478,1.478,0,0,1-2.525,1,1.479,1.479,0,0,0-2.092,0A1.478,1.478,0,0,1,201,153.06Z" transform="translate(-201 -149.45)" fill="#543e5b"/></g></g></svg>