<svg xmlns="http://www.w3.org/2000/svg" width="68.294" height="76.846" viewBox="0 0 68.294 76.846"><g transform="translate(-28.489)"><g transform="translate(33.698 12.866)"><path d="M69.315,85.723A6.1,6.1,0,0,0,63.982,94.8a32.265,32.265,0,0,0,56.306,0,6.1,6.1,0,0,0-5.333-9.073Z" transform="translate(-63.197 -85.723)" fill="#d1a184"/></g><g transform="translate(50.389 1.501)"><path d="M198.9,21.365l-1.766-6.91A5.922,5.922,0,0,0,191.394,10h-9.488a5.922,5.922,0,0,0-5.737,4.455l-1.766,6.91Z" transform="translate(-174.403 -10)" fill="#ffd4b5"/></g><g transform="translate(29.99 45.327)"><path d="M80.288,302H88.88a14.9,14.9,0,0,1,14.9,14.9V332.02H38.488V316.9a14.9,14.9,0,0,1,14.9-14.9h26.9Z" transform="translate(-38.488 -302.002)" fill="#fff"/></g><g transform="translate(29.99 45.327)"><path d="M80.288,302H88.88a14.9,14.9,0,0,1,14.9,14.9V332.02H38.488V316.9a14.9,14.9,0,0,1,14.9-14.9h26.9Z" transform="translate(-38.488 -302.002)" fill="#fff"/></g><g transform="translate(29.99 45.327)"><path d="M80.288,302H88.88a14.9,14.9,0,0,1,14.9,14.9V332.02H38.488V316.9a14.9,14.9,0,0,1,14.9-14.9h26.9Z" transform="translate(-38.488 -302.002)" fill="#fff"/></g><g transform="translate(44.116 45.327)"><path d="M132.606,302.022l10.478,10.561,5.245-5.245L143.942,302Z" transform="translate(-132.606 -302.002)" fill="#ff7b79"/></g><g transform="translate(65.477 45.327)"><path d="M290.655,302.022l-10.478,10.561-5.245-5.245L279.32,302Z" transform="translate(-274.932 -302.002)" fill="#ff7b79"/></g><g transform="translate(55.451 39.807)"><path d="M208.132,265.222v5.52l7.207,8.154,7.162-8.154v-5.52Z" transform="translate(-208.132 -265.222)" fill="#e5ae8c"/></g><g transform="translate(50.317 19.216)"><path d="M173.921,131.478v8.359a12.319,12.319,0,1,0,24.639,0v-8.359l-1.942-.98a23.036,23.036,0,0,0-20.722-.013Z" transform="translate(-173.921 -128.03)" fill="#e5ae8c"/><g transform="translate(18.635 0.884)"><path d="M298.081,133.921v2.852a6,6,0,0,0,6,6v-6.292l-1.942-.98A23.029,23.029,0,0,0,298.081,133.921Z" transform="translate(-298.081 -133.921)" fill="#8aa8bd"/></g><g transform="translate(0 0.884)"><path d="M179.925,133.921v2.852a6,6,0,0,1-6,6v-6.292l1.942-.98A23.029,23.029,0,0,1,179.925,133.921Z" transform="translate(-173.921 -133.921)" fill="#8aa8bd"/></g></g><g transform="translate(65.957 51.28)"><path d="M278.126,348.02v16.66l4.286-6.134a11.343,11.343,0,0,0,.476-12.252l-4.718-4.627Z" transform="translate(-278.126 -341.666)" fill="#ff9c9b"/></g><g transform="translate(53.029 51.28)"><path d="M198.321,348.02v16.66l-4.286-6.134a11.343,11.343,0,0,1-.476-12.252l4.718-4.627Z" transform="translate(-191.99 -341.666)" fill="#ff9c9b"/></g><g transform="translate(59.356 51.28)"><path d="M234.149,341.667h6.6v6.972h-6.6Z" transform="translate(-234.149 -341.667)" fill="#fff"/><path d="M234.149,341.667h6.6v6.972h-6.6Z" transform="translate(-234.149 -341.667)" fill="#ff5a58"/><path d="M234.149,341.667h6.6v6.972h-6.6Z" transform="translate(-234.149 -341.667)" fill="#ff5a58"/></g><g transform="translate(28.489 0)"><path d="M80.382,43.826h-9.06V41.764a13.921,13.921,0,0,0,3.405-4.053A33.825,33.825,0,0,0,92.1,22.673a7.6,7.6,0,0,0-6.643-11.308H76.048L74.571,5.584A7.419,7.419,0,0,0,67.38,0H57.892A7.418,7.418,0,0,0,50.7,5.585l-1.477,5.78H39.816a7.6,7.6,0,0,0-6.643,11.308A33.827,33.827,0,0,0,50.546,37.711a13.92,13.92,0,0,0,3.4,4.053v2.062H44.89a16.42,16.42,0,0,0-16.4,16.4V75.345a1.5,1.5,0,0,0,1.5,1.5h6.681a1.5,1.5,0,0,0,0-3h-5.18V60.227A13.418,13.418,0,0,1,43.467,46.9l9.287,9.287a12.878,12.878,0,0,0,1.089,12.828l3.371,4.825H50.179a1.5,1.5,0,1,0,0,3h45.1a1.5,1.5,0,0,0,1.5-1.5V60.227a16.42,16.42,0,0,0-16.4-16.4ZM54.594,53.785l-6.957-6.957h7.138l3.179,3.6Zm6.263,2.966v-3.97h3.6v3.97Zm6.6-1.982,2.056,2.056a9.865,9.865,0,0,1-.5,10.475l-1.555,2.225Zm3.261-.984-3.372-3.372L70.5,46.828h7.18Zm-18.9-22.762v-.717a7.517,7.517,0,0,0,6-7.353V21.219a22.095,22.095,0,0,1,9.63,0v1.733a7.517,7.517,0,0,0,6,7.353v.717a10.818,10.818,0,0,1-21.637,0Zm0-3.826V23.519a21.926,21.926,0,0,1,3-1.4v.834A4.51,4.51,0,0,1,51.818,27.2Zm21.637,0a4.51,4.51,0,0,1-3-4.244v-.834a21.926,21.926,0,0,1,3,1.4ZM53.609,6.328A4.418,4.418,0,0,1,57.892,3H67.38a4.418,4.418,0,0,1,4.283,3.326l1.287,5.037H52.322ZM35.792,21.2a4.6,4.6,0,0,1,4.024-6.838H85.455A4.6,4.6,0,0,1,89.48,21.2a30.843,30.843,0,0,1-13.306,12.6,13.824,13.824,0,0,0,.282-2.785V22.661a1.5,1.5,0,0,0-.715-1.279,25.08,25.08,0,0,0-26.21,0,1.5,1.5,0,0,0-.715,1.279v8.361a13.826,13.826,0,0,0,.282,2.785A30.845,30.845,0,0,1,35.792,21.2ZM62.636,44.843a13.74,13.74,0,0,0,5.684-1.223v1.142l-4.407,5.018H61.389l-4.437-5.02V43.619a13.741,13.741,0,0,0,5.684,1.223ZM55.807,56.817l2.048-2.048,0,14.757L56.3,67.3A9.865,9.865,0,0,1,55.807,56.817Zm5.053,2.936h3.6V73.844h-3.6ZM93.781,73.844H68.105l3.371-4.825a12.878,12.878,0,0,0,1.088-12.831l9.28-9.28A13.418,13.418,0,0,1,93.781,60.227V73.844Z" transform="translate(-28.489 0)"/><path d="M226.507,209.464a1.5,1.5,0,0,0,3,0,3.218,3.218,0,0,0-3.214-3.214H221.36a3.218,3.218,0,0,0-3.214,3.214,1.5,1.5,0,1,0,3,0,.213.213,0,0,1,.213-.213h4.934a.213.213,0,0,1,.213.213Z" transform="translate(-189.681 -175.294)"/><path d="M119.5,492a1.5,1.5,0,1,0,1.061.44A1.512,1.512,0,0,0,119.5,492Z" transform="translate(-104.566 -418.157)"/></g></g></svg>