<?xml version="1.0" encoding="utf-8"?>
<!-- Generator: Adobe Illustrator 25.2.0, SVG Export Plug-In . SVG Version: 6.00 Build 0)  -->
<svg version="1.1" id="Layer_1" xmlns="http://www.w3.org/2000/svg" xmlns:xlink="http://www.w3.org/1999/xlink" x="0px" y="0px"
	 viewBox="0 0 100 100" style="enable-background:new 0 0 100 100;" xml:space="preserve">
<style type="text/css">
	.st0{fill:#A0E4A5;}
	.st1{fill:#6E90AC;}
</style>
<g transform="translate(0)">
	<path class="st0" d="M2,24.7l7.8,22.5l8.5-9.6l2,60.4h59.6l2-60.4l8.5,9.6L98,24.7L82.1,5.6c-1.3-1.4-3-2.3-4.9-2.6
		c-1-0.1-11.6-1-11.6-1H34.4c0,0-10.6,0.9-11.6,1c-1.9,0.2-3.6,1.2-4.9,2.6L2,24.7z"/>
	<path class="st1" d="M65.6,2c0,4.7-7,8.6-15.6,8.6S34.4,6.7,34.4,2c0,0,0,0,0,0L65.6,2C65.6,2,65.6,2,65.6,2z"/>
	<g transform="translate(0 0)">
		<path d="M80.7,70.1c-0.5,0-1,0.2-1.4,0.5c-0.8,0.7-0.8,2-0.1,2.8c0.4,0.4,0.8,0.6,1.4,0.6h0.1c1.1,0,1.9-0.9,1.9-2
			C82.6,71,81.7,70.2,80.7,70.1L80.7,70.1z"/>
		<path d="M49.2,45.6L49.2,45.6c1.1,0,2-0.9,2-1.9l0-7.4l4.6-7.1c0.6-0.9,0.3-2.1-0.6-2.7c-0.9-0.6-2.1-0.3-2.7,0.6l0,0l-3.3,5.1
			L45.9,27c-0.6-0.9-1.8-1.2-2.7-0.6c-0.9,0.6-1.2,1.8-0.6,2.7l4.7,7.2l0,7.4C47.2,44.7,48.1,45.6,49.2,45.6
			C49.2,45.6,49.2,45.6,49.2,45.6z"/>
		<path d="M68.8,25.9c-0.3-0.3-7.7-8.5-19-8.5s-18.7,8.1-19,8.5c-0.7,0.8-0.6,2,0.2,2.8c0.8,0.7,2,0.6,2.8-0.2
			c0.1-0.1,6.5-7.2,16.1-7.2c9.6,0,16.1,7.1,16.1,7.2c0.7,0.8,2,0.9,2.8,0.2C69.4,27.9,69.5,26.7,68.8,25.9L68.8,25.9z"/>
		<path d="M33.6,41.5c-0.7-0.8-2-0.9-2.8-0.2c-0.8,0.7-0.9,2-0.2,2.8l0,0c0.3,0.3,7.7,8.5,19,8.5s18.7-8.1,19-8.5
			c0.7-0.8,0.6-2-0.2-2.8c-0.8-0.7-2-0.6-2.8,0.2l0,0c-0.1,0.1-6.5,7.2-16.1,7.2C40.2,48.6,33.7,41.5,33.6,41.5L33.6,41.5z"/>
		<path d="M99.5,23.5L83.6,4.3l0,0c-1.6-1.8-3.7-2.9-6.1-3.2C77.1,1,65.6,0,65.6,0H34.4c0,0-11.5,1-11.9,1.1
			c-2.4,0.3-4.5,1.5-6.1,3.2l-16,19.2C0,24-0.1,24.7,0.1,25.3l7.8,22.5c0.4,1,1.5,1.6,2.5,1.2c0.3-0.1,0.6-0.3,0.8-0.5l5.2-5.9
			l1.8,55.5c0,1.1,0.9,1.9,1.9,1.9h59.6c1.1,0,1.9-0.8,2-1.9l0.6-17.2c0-1.1-0.8-2-1.9-2c0,0,0,0,0,0c-1.1,0-2,0.8-2,1.9
			c0,0,0,0,0,0l-0.5,15.3H22.1l-1.9-57.7l1.6-1.6c0.8-0.8,0.8-2,0-2.8c-0.8-0.8-2-0.8-2.8,0l-8.6,9.4L4.2,25.1L19.4,6.9
			c0.9-1.1,2.2-1.8,3.6-1.9c0.1,0,6.6-0.6,9.8-0.9c1.6,4.9,8.6,8.4,17.2,8.4s15.7-3.6,17.2-8.4c3.2,0.3,9.6,0.9,9.8,0.9
			c1.4,0.2,2.7,0.9,3.6,1.9l15.2,18.2l-6.4,18.3L80.8,34c-0.8-0.8-2-0.8-2.8,0c-0.8,0.8-0.8,2,0,2.8l0,0l1.8,1.8L79,63.2
			c0,1.1,0.8,2,1.9,2c0.5,0,1-0.2,1.4-0.5c0.4-0.4,0.6-0.8,0.6-1.3l0,0l0.7-20.8l5.2,5.9c0.4,0.4,0.9,0.7,1.5,0.7c0.1,0,0.3,0,0.4,0
			c0.7-0.1,1.2-0.6,1.5-1.3l7.8-22.5C100.1,24.7,100,24,99.5,23.5L99.5,23.5z M50,8.6c-6.4,0-11.3-2.2-13-4.7h26
			C61.3,6.4,56.4,8.6,50,8.6z"/>
	</g>
</g>
</svg>
