<?xml version="1.0" encoding="utf-8"?>
<!-- Generator: Adobe Illustrator 25.2.0, SVG Export Plug-In . SVG Version: 6.00 Build 0)  -->
<svg version="1.1" id="Layer_1" xmlns="http://www.w3.org/2000/svg" xmlns:xlink="http://www.w3.org/1999/xlink" x="0px" y="0px"
	 viewBox="0 0 100 100" style="enable-background:new 0 0 100 100;" xml:space="preserve">
<style type="text/css">
	.st0{fill:#AD1457;}
	.st1{fill:#BB193B;}
	.st2{fill:#EF314C;}
	.st3{fill:#E91E63;}
</style>
<g transform="translate(0.002)">
	<g transform="translate(1.844 1.844)">
		<g transform="translate(0.33 86.168)">
			<path class="st0" d="M14.3-5.2l-1.4,5.8c-0.2,0.9-1.1,1.4-2,1.2c0,0,0,0,0,0L1-0.6c-0.9-0.2-1.4-1.1-1.2-2c0,0,0,0,0,0l1.5-5.8
				L14.3-5.2z"/>
			<path class="st0" d="M94.3-8.5l1.5,5.8c0.2,0.9-0.3,1.8-1.2,2c0,0,0,0,0,0l-9.7,2.5c-0.9,0.3-1.8-0.2-2.1-1.1c0,0,0-0.1,0-0.1
				l-1.5-5.8L94.3-8.5z"/>
			<path class="st0" d="M22.8,2h50v6.7c0,0.9-0.7,1.7-1.7,1.7l0,0H24.5c-0.9,0-1.7-0.7-1.7-1.7l0,0V2z"/>
		</g>
		<path class="st1" d="M20.6,25.5c-4.4,0.1-8.2,3-9.4,7.2L0.1,71.2c-1,3.5,1,7.2,4.5,8.3c0.1,0,0.2,0,0.2,0.1l6.1,1.6
			c3.6,0.9,7.2-1.2,8.1-4.8c0-0.1,0-0.1,0-0.2l0.1-0.6L20.6,25.5z"/>
		<path class="st1" d="M77.1,75.5l0.1,0.6c0.8,3.6,4.4,5.9,8,5c0.1,0,0.1,0,0.2,0l6.1-1.6c3.6-0.9,5.7-4.5,4.8-8.1
			c0-0.1,0-0.2-0.1-0.2L85.1,32.7c-1.2-4.2-5-7.1-9.4-7.2L77.1,75.5z"/>
		<path class="st1" d="M78.2,32.3l-1.1,43.2l-0.2,9.4c-0.1,2.7-2.3,4.9-5,4.9H24.4c-2.7,0-4.9-2.2-5-4.9l-0.2-9.4l-1.1-43.2
			c-0.1-2.5,0.8-4.9,2.4-6.8c1.4-1.7,3.3-3,5.5-3.6l7.3-2.1c-2.1-0.7-3.5-2.7-3.5-4.9v-0.5C30,11.9,31.6,1.1,45.6-0.1
			c0.9-0.1,1.7-0.1,2.6-0.1C66.5-0.2,66.5,15,66.5,15c0,1.3-0.5,2.6-1.5,3.5c-0.6,0.6-1.2,1-2,1.2l7.3,2.1c2.1,0.6,4,1.9,5.4,3.6
			C77.4,27.4,78.2,29.8,78.2,32.3z"/>
		<path class="st2" d="M73.2,32.3l-1.1,43.2l-0.2,9.4c-0.1,2.7-2.3,4.9-5,4.9H24.4c-2.7,0-4.9-2.2-5-4.9l-0.2-9.4l-1.1-43.2
			c-0.1-2.5,0.8-4.9,2.4-6.8c1.4-1.7,3.3-3,5.4-3.6l7.3-2.1c-2.1-0.7-3.5-2.7-3.5-4.9v-0.5C30,11.9,31.6,1.1,45.6-0.1
			c15.9,1.3,15.9,15,15.9,15c0,1.3-0.5,2.6-1.5,3.5c-0.6,0.6-1.2,1-2,1.2l7.3,2.1c2.1,0.6,4,1.9,5.4,3.6
			C72.3,27.4,73.2,29.8,73.2,32.3z"/>
		<ellipse class="st0" cx="48.3" cy="6.4" rx="13.1" ry="6.8"/>
		<path class="st0" d="M68.2,72.4v5.8c0,1.8-1.5,3.3-3.3,3.3H31.5c-1.8,0-3.3-1.5-3.3-3.3v-5.8c0-1.4,0.8-2.6,2.1-3.1
			c4.9-1.8,6.1-6.5,6.3-9.7c0.1-1.7,1.5-3.1,3.3-3.1h16.7c1.8,0,3.2,1.4,3.3,3.1c0.2,3.2,1.4,7.9,6.3,9.7
			C67.4,69.8,68.2,71,68.2,72.4z"/>
		<path class="st3" d="M63.2,72.4v5.8c0,1.8-1.5,3.3-3.3,3.3H31.5c-1.8,0-3.3-1.5-3.3-3.3v-5.8c0-1.4,0.8-2.6,2.1-3.1
			c4.9-1.8,6.1-6.5,6.3-9.7c0.1-1.7,1.5-3.1,3.3-3.1h11.7c1.8,0,3.2,1.4,3.3,3.1c0.2,3.2,1.4,7.9,6.3,9.7
			C62.4,69.8,63.2,71,63.2,72.4z"/>
	</g>
	<g transform="translate(-0.002 0)">
		<path d="M21.7,25.7c-4.8,0.4-8.8,3.7-10.2,8.3L0.3,72.6C-0.3,74.8,0,77.1,1.1,79c0.2,0.3,0.4,0.6,0.6,0.9L0.4,85
			C0,86.8,1,88.5,2.8,89l9.7,2.5c1.8,0.5,3.6-0.6,4.1-2.4c0,0,0,0,0,0l1.3-5c0.6-0.3,1.2-0.6,1.7-1.1l0.1,3.8
			c0.1,2.5,1.5,4.7,3.7,5.8v4c0,1.8,1.5,3.3,3.3,3.3h0h46.7c1.8,0,3.3-1.5,3.3-3.3l0,0v-4c2.2-1.1,3.7-3.3,3.7-5.8l0.1-3.8
			c0.5,0.4,1.1,0.8,1.7,1.1l1.3,5c0.3,1.5,1.7,2.6,3.2,2.6c0.6,0,0.2,0,10.5-2.6c1.8-0.4,2.9-2.3,2.4-4c0,0,0,0,0,0l-1.3-5
			c0.2-0.3,0.4-0.5,0.6-0.9c1.1-1.9,1.4-4.3,0.8-6.4L88.6,34.1c-1.4-4.6-5.4-7.9-10.2-8.3c-2.9-3.2-5.7-3.6-10-4.8
			c1.2-1.3,1.7-3.1,1.6-4.8C69.7,13.1,67.6,0,50,0S30.3,13.1,30,16.1c-0.2,1.7,0.4,3.5,1.5,4.8C27.3,22.1,24.5,22.6,21.7,25.7
			L21.7,25.7z M3.7,85.7l0.9-3.5c0.5,0.3,1.1,0.5,1.7,0.7c6.4,1.7,6.7,1.8,7.9,1.8l-0.8,3.5L3.7,85.7z M19.3,77.6
			c-0.6,2.7-3.2,4.4-5.9,3.8c-0.1,0-0.2,0-0.2-0.1l-6.1-1.6c-2.7-0.7-4.3-3.4-3.6-6.1c0,0,0-0.1,0-0.1L14.6,35
			c0.7-2.3,2.3-4.2,4.4-5.2c-0.5,1.4-0.8,2.9-0.8,4.4C19.5,80.7,19.4,77,19.3,77.6L19.3,77.6z M26.7,96.7v-3.3h46.7v3.3H26.7z
			 M86.7,88.3l-0.9-3.4c0.6,0,1.3-0.1,1.9-0.3c6.1-1.6,6.6-1.7,7.8-2.3l0.9,3.5L86.7,88.3z M85.4,35l11.1,38.5
			c0.8,2.7-0.8,5.4-3.4,6.2c0,0-0.1,0-0.1,0l-6.1,1.6c-2.7,0.7-5.4-0.9-6.1-3.6c0,0,0-0.1,0-0.1c-0.2-0.6-0.2,2.9,0.9-43.3
			c0-1.5-0.2-3-0.8-4.4C83.1,30.8,84.7,32.7,85.4,35L85.4,35z M59.8,5.5c1.1,0.9,2.2,2.1,1.7,3.4c-0.7,2.1-5.2,4.4-11.5,4.4
			s-10.8-2.2-11.6-4.4c-0.4-1,0.2-2.2,1.7-3.3C46.3,2.6,53.6,2.6,59.8,5.5L59.8,5.5z M35.1,23.3h3.3c0.9,0,1.7-0.7,1.7-1.7
			c0-0.9-0.7-1.7-1.7-1.7c-2.1,0-2.3,0.1-3.3-0.5c-1.2-0.7-1.9-2.1-1.7-3.5c0.2-2.1,0.9-4.1,2-5.9c3.2,8.7,26.1,8.8,29.3,0
			c1.2,1.9,2.6,5.9,1.8,7.8c-0.5,1.3-1.7,2.1-3.1,2.1h-1.7c-0.9,0-1.7,0.7-1.7,1.7s0.7,1.7,1.7,1.7H65l6.7,2c4,1.1,6.7,4.7,6.7,8.8
			L77,86.8c0,1.8-1.5,3.3-3.3,3.3h0H26.3c-1.8,0-3.3-1.5-3.3-3.3l-1.3-52.6c0-4.1,2.7-7.7,6.7-8.8L35.1,23.3z"/>
		<path d="M43.3,26.7v16.7c0,0.9,0.7,1.7,1.7,1.7s1.7-0.7,1.7-1.7V26.7c0.9,0,1.7-0.7,1.7-1.7s-0.7-1.7-1.7-1.7h-3.3
			c-0.9,0-1.7,0.7-1.7,1.7S42.4,26.7,43.3,26.7z"/>
		<path d="M53.3,26.7v16.7c0,0.9,0.7,1.7,1.7,1.7c0.9,0,1.7-0.7,1.7-1.7V26.7c0.9,0,1.7-0.7,1.7-1.7s-0.7-1.7-1.7-1.7h-3.3
			c-0.9,0-1.7,0.7-1.7,1.7S52.4,26.7,53.3,26.7z"/>
		<path d="M33.3,85h33.3c2.8,0,5-2.2,5-5v-5.8c0-2-1.3-3.9-3.2-4.6c-3.9-1.4-5-5.3-5.2-8.2c-0.2-2.6-2.3-4.6-4.9-4.7H41.7
			c-2.6,0-4.8,2-5,4.7c-0.2,2.9-1.3,6.8-5.2,8.2c-1.9,0.8-3.1,2.6-3.1,4.6V80C28.3,82.8,30.6,85,33.3,85C33.3,85,33.3,85,33.3,85z
			 M31.7,74.2c0-0.7,0.4-1.2,1-1.5c4.4-1.7,7-5.6,7.4-11.1c0.1-0.9,0.8-1.5,1.6-1.6h16.7c0.9,0,1.6,0.7,1.7,1.6
			c0.4,5.6,3,9.5,7.4,11.1c0.6,0.3,1,0.9,1,1.5V80c0,0.9-0.7,1.7-1.7,1.7l0,0H33.3c-0.9,0-1.7-0.7-1.7-1.7l0,0L31.7,74.2z"/>
	</g>
</g>
</svg>
