<svg xmlns="http://www.w3.org/2000/svg" width="68.294" height="106.708" viewBox="0 0 68.294 106.708">
  <g id="filled_outline" data-name="filled outline" transform="translate(-104 -20.833)">
    <path id="Path_30204" data-name="Path 30204" d="M213.069,315.838a5.392,5.392,0,0,0,2.907-3.936l1.346-8.075h10.783l1.346,8.075a5.392,5.392,0,0,0,2.907,3.936l-9.644,6Z" transform="translate(-84.567 -219.419)" fill="#fdc9a6"/>
    <path id="Path_30205" data-name="Path 30205" d="M173.916,72.651l2.741-2.741a15.186,15.186,0,0,0,0-21.477l-2.364-2.364a7.423,7.423,0,0,1-2.174-5.249,7.423,7.423,0,0,0-3.489-6.294l-7.359-4.6a7.424,7.424,0,0,0-7.254-.345l-3.465,1.733-3.465-1.733a7.424,7.424,0,0,0-7.254.345l-7.359,4.6a7.423,7.423,0,0,0-3.489,6.294,7.423,7.423,0,0,1-2.174,5.249l-2.364,2.364a15.186,15.186,0,0,0,0,21.476l2.741,2.741Z" transform="translate(-12.406 -6.177)" fill="#a3612d"/>
    <path id="Path_30206" data-name="Path 30206" d="M156.087,216.109l-3.1-.126a4.992,4.992,0,1,1,0-9.983h1.219Z" transform="translate(-34.115 -143.569)" fill="#f6bb92"/>
    <path id="Path_30207" data-name="Path 30207" d="M328.355,217.983h3.016a4.992,4.992,0,0,0,0-9.983h-1.219Z" transform="translate(-173.953 -145.12)" fill="#f6bb92"/>
    <path id="Path_30208" data-name="Path 30208" d="M153.994,357.292l7.8,3.9a26.958,26.958,0,0,1,14.9,24.112v1.311H112v-1.311a26.958,26.958,0,0,1,14.9-24.112l7.8-3.9,9.644,4.2Z" transform="translate(-6.203 -260.874)" fill="#dcac56"/>
    <path id="Path_30209" data-name="Path 30209" d="M240.58,309.219a14.358,14.358,0,0,1-12.58,0l.9-5.389h10.783Z" transform="translate(-96.143 -219.422)" fill="#f6bb92"/>
    <path id="Path_30210" data-name="Path 30210" d="M211.948,161.334a32.35,32.35,0,0,1-6.47,19.41,14.377,14.377,0,0,1-23,0,32.35,32.35,0,0,1-6.47-19.41v.039h3.862a8.443,8.443,0,0,0,8.01-11.113l-.282-.846a2.939,2.939,0,0,1,4.1-3.558l2.28,1.14,2.718-.906a3.248,3.248,0,0,1,4.177,3.869l-.438,1.752a7.776,7.776,0,0,0,7.547,9.662Z" transform="translate(-55.829 -96.695)" fill="#fdc9a6"/>
    <path id="Path_30211" data-name="Path 30211" d="M152,200h7.189v3.594H152Z" transform="translate(-37.217 -138.917)" fill="#a3612d"/>
    <path id="Path_30212" data-name="Path 30212" d="M320,200h5.392v3.594H320Z" transform="translate(-167.475 -138.917)" fill="#a3612d"/>
    <path id="Path_30213" data-name="Path 30213" d="M194.922,82.469a23.505,23.505,0,0,0-39.117,0A22.654,22.654,0,0,0,152,95.034v9.316h5.392v-2.814a27.785,27.785,0,0,1,4.224-14.727,16.213,16.213,0,0,1,27.5,0,27.785,27.785,0,0,1,4.223,14.726v2.814h5.392V95.034a22.653,22.653,0,0,0-3.8-12.565Z" transform="translate(-37.217 -39.673)" fill="#e8b65b"/>
    <path id="Path_30214" data-name="Path 30214" d="M201.925,74.28l1.285,1.285v5.794a16.182,16.182,0,0,0-2.471.777l-3.752-.939a8.933,8.933,0,0,1-1.856-.685,9.076,9.076,0,0,1-2.581-1.93,23.476,23.476,0,0,1,9.375-4.3Z" transform="translate(-68.657 -41.44)" fill="#dcac56"/>
    <path id="Path_30215" data-name="Path 30215" d="M282.66,78.582a9.076,9.076,0,0,1-2.581,1.93,8.934,8.934,0,0,1-1.856.685l-3.752.939A16.183,16.183,0,0,0,272,81.359V75.565l1.285-1.285A23.476,23.476,0,0,1,282.66,78.582Z" transform="translate(-130.259 -41.44)" fill="#dcac56"/>
    <path id="Path_30216" data-name="Path 30216" d="M240,72h7.189v7.189H240Z" transform="translate(-105.447 -39.673)" fill="#ffc864"/>
    <path id="Path_30217" data-name="Path 30217" d="M184.175,47.189l-1.932-1.932a9.07,9.07,0,0,0-3.922-2.307L168,40l4.04,8.079a9.07,9.07,0,0,0,5.912,4.743l6.223,1.556Z" transform="translate(-49.622 -14.861)" fill="#f3be5f"/>
    <path id="Path_30218" data-name="Path 30218" d="M272,47.189l1.932-1.932a9.07,9.07,0,0,1,3.922-2.307L288.175,40l-4.04,8.079a9.07,9.07,0,0,1-5.912,4.743L272,54.378Z" transform="translate(-130.259 -14.861)" fill="#f3be5f"/>
    <path id="Path_30219" data-name="Path 30219" d="M240,377.8V388.58h7.189V377.8l-3.594-1.8Z" transform="translate(-105.447 -275.379)" fill="#c59a4d"/>
    <path id="Path_30220" data-name="Path 30220" d="M205.392,344l7.189,7.189-3.5,4.67a4.368,4.368,0,0,1-7.777-1.764l-1.3-6.5Z" transform="translate(-74.433 -250.568)" fill="#f3be5f"/>
    <path id="Path_30221" data-name="Path 30221" d="M263.189,344,256,351.189l3.5,4.67a4.368,4.368,0,0,0,7.777-1.764l1.3-6.5Z" transform="translate(-117.853 -250.568)" fill="#f3be5f"/>
    <path id="Path_30222" data-name="Path 30222" d="M156.4,98.712l-3.9-1.948a1.793,1.793,0,0,0-.777-1.233l-5.074-3.382-.452-2.71a16.155,16.155,0,0,0,4.888-4.313A34.228,34.228,0,0,0,156.4,74.66h1.018a6.788,6.788,0,0,0,6.642-8.193L165.523,65a16.984,16.984,0,0,0,0-24.018l-2.364-2.364a5.588,5.588,0,0,1-1.649-3.978,9.159,9.159,0,0,0-2.955-6.766l.968-1.936a1.8,1.8,0,0,0-2.1-2.532L153.5,24.53l-3.686-2.3a9.278,9.278,0,0,0-9.01-.427l-2.661,1.33L135.485,21.8a9.276,9.276,0,0,0-9.01.427l-3.686,2.3-3.918-1.119a1.8,1.8,0,0,0-2.1,2.532l.968,1.936a9.159,9.159,0,0,0-2.955,6.766,5.588,5.588,0,0,1-1.648,3.978l-2.364,2.364a16.984,16.984,0,0,0,0,24.018l1.393,1.393a6.792,6.792,0,0,0,6.656,7.813s.889.038.948.032a34.248,34.248,0,0,0,5.439,10.884,16.155,16.155,0,0,0,4.888,4.313l-.452,2.71-5.073,3.382a1.793,1.793,0,0,0-.777,1.233l-3.9,1.947A28.755,28.755,0,0,0,104,124.432v1.311a1.8,1.8,0,0,0,1.8,1.8h64.7a1.8,1.8,0,0,0,1.8-1.8v-1.311a28.756,28.756,0,0,0-15.9-25.721Zm-20.049,7.3,1.8-2.4,1.8,2.4V111.4H136.35Zm6.738-1.8-2.567-3.423,5.045-5.045,3.164,2.11-1.064,5.32a2.571,2.571,0,0,1-4.578,1.038ZM146.35,55.45l.438-1.752a5.045,5.045,0,0,0-6.49-6.01l-2.013.671-1.614-.807a4.736,4.736,0,0,0-6.611,5.736l.282.846a6.646,6.646,0,0,1-6.305,8.746h-2.064V61.863a25.961,25.961,0,0,1,3.95-13.774,14.416,14.416,0,0,1,24.449,0,25.961,25.961,0,0,1,3.95,13.73l-.052,1.04-2.118.021a5.94,5.94,0,0,1-4.228-1.752,6.01,6.01,0,0,1-1.573-5.678ZM123.339,28.425l4.865,1.39a7.287,7.287,0,0,1,3.145,1.85l1.406,1.406v4.143l-3.99-1a7.272,7.272,0,0,1-4.74-3.8l-1.683-3.366Zm30.613.623-1.683,3.365a7.271,7.271,0,0,1-4.74,3.8l-3.99,1V33.072l1.406-1.406a7.287,7.287,0,0,1,3.145-1.85l4.865-1.39Zm5.761,32.434a6.744,6.744,0,0,0-1.81-.382,29.546,29.546,0,0,0-4.483-14.918,17.984,17.984,0,0,0-6.39-6.137l1.37-.343a10.917,10.917,0,0,0,2.224-.823c.215-.108.425-.225.632-.346a21.635,21.635,0,0,1,4.954,5.257,20.791,20.791,0,0,1,3.5,11.57ZM136.35,37.719V34.2a21.921,21.921,0,0,1,3.594,0v3.516Zm-11.317.814c.208.123.42.24.637.348a10.906,10.906,0,0,0,2.224.822l1.37.343a17.984,17.984,0,0,0-6.39,6.137A29.547,29.547,0,0,0,118.4,60.651a6.745,6.745,0,0,0-1.824.382V55.361a20.791,20.791,0,0,1,3.5-11.57,21.6,21.6,0,0,1,4.95-5.259Zm32.384,32.533H157.3a33.908,33.908,0,0,0,.62-6.346,3.193,3.193,0,0,1-.5,6.346Zm.5-36.422a9.161,9.161,0,0,0,2.7,6.52l2.364,2.364a13.383,13.383,0,0,1,.327,18.591V55.361A24.375,24.375,0,0,0,159.2,41.8a25.215,25.215,0,0,0-5.136-5.629,10.825,10.825,0,0,0,1.419-2.148l1.35-2.7a5.6,5.6,0,0,1,1.082,3.323ZM128.38,25.273a5.661,5.661,0,0,1,5.5-.26l3.465,1.733a1.8,1.8,0,0,0,1.608,0l3.464-1.733a5.661,5.661,0,0,1,5.5.26l.936.585-1.748.5a10.9,10.9,0,0,0-4.7,2.766L141,30.53h-5.7l-1.406-1.406a10.9,10.9,0,0,0-4.7-2.765l-1.748-.5ZM109.392,53a13.3,13.3,0,0,1,3.922-9.467l2.364-2.364a9.161,9.161,0,0,0,2.7-6.52,5.6,5.6,0,0,1,1.082-3.323l1.35,2.7a10.823,10.823,0,0,0,1.42,2.149,25.18,25.18,0,0,0-5.137,5.628,24.375,24.375,0,0,0-4.107,13.564v6.757A13.291,13.291,0,0,1,109.392,53Zm9.485,17.621a3.192,3.192,0,0,1-.5-6.346v.418a33.873,33.873,0,0,0,.536,5.929Zm9.206,12.353a30.769,30.769,0,0,1-6.054-16.5h2.008a10.187,10.187,0,0,0,5.124-1.383,2.259,2.259,0,1,0,1.206-.821A10.215,10.215,0,0,0,133.751,53l-.282-.846a1.142,1.142,0,0,1,1.594-1.383l2.28,1.14a1.8,1.8,0,0,0,1.372.1l2.719-.906a1.451,1.451,0,0,1,1.866,1.728l-.438,1.752a9.624,9.624,0,0,0,2.518,9.093c.143.142.29.278.44.41a2.242,2.242,0,1,0,1.152.873,9.536,9.536,0,0,0,5.2,1.52l2.1-.021a30.77,30.77,0,0,1-6.055,16.516,12.58,12.58,0,0,1-20.129,0ZM138.148,91.6a16.076,16.076,0,0,0,4.651-.691l.312,1.872c.016.094.036.188.055.281l-5.02,5.02-5.021-5.021c.02-.094.041-.187.056-.281l.312-1.872a16.092,16.092,0,0,0,4.654.691Zm-7.419,4.149,5.045,5.045-2.568,3.423a2.571,2.571,0,0,1-4.577-1.038l-1.063-5.32Zm30.524,28.2a12.934,12.934,0,0,0-1.111-8.357l-.507-1.014V111.4a1.8,1.8,0,0,0-3.594,0V115a1.8,1.8,0,0,0,.19.8l.7,1.393a9.349,9.349,0,0,1,.629,6.75H118.737a9.348,9.348,0,0,1,.629-6.75l.7-1.393a1.8,1.8,0,0,0,.19-.8V111.4a1.8,1.8,0,1,0-3.594,0v3.17l-.507,1.014a12.933,12.933,0,0,0-1.111,8.357H107.6a25.162,25.162,0,0,1,13.9-22.019l2.919-1.46.682,3.412a6.157,6.157,0,0,0,7.651,4.744V113.2a1.8,1.8,0,0,0,1.8,1.8h7.189a1.8,1.8,0,0,0,1.8-1.8v-4.579a6.164,6.164,0,0,0,7.651-4.743l.682-3.412,2.919,1.46a25.161,25.161,0,0,1,13.9,22.018Z"/>
    <circle id="Ellipse_37" data-name="Ellipse 37" cx="1.797" cy="1.797" r="1.797" transform="translate(145.336 116.796)"/>
    <circle id="Ellipse_38" data-name="Ellipse 38" cx="1.797" cy="1.797" r="1.797" transform="translate(152.525 102.418)"/>
    <circle id="Ellipse_39" data-name="Ellipse 39" cx="1.797" cy="1.797" r="1.797" transform="translate(152.525 118.593)"/>
    <circle id="Ellipse_40" data-name="Ellipse 40" cx="1.797" cy="1.797" r="1.797" transform="translate(120.175 104.216)"/>
    <circle id="Ellipse_41" data-name="Ellipse 41" cx="1.797" cy="1.797" r="1.797" transform="translate(148.93 109.607)"/>
    <circle id="Ellipse_42" data-name="Ellipse 42" cx="1.797" cy="1.797" r="1.797" transform="translate(163.308 114.999)"/>
    <circle id="Ellipse_43" data-name="Ellipse 43" cx="1.797" cy="1.797" r="1.797" transform="translate(127.364 111.404)"/>
    <circle id="Ellipse_44" data-name="Ellipse 44" cx="1.797" cy="1.797" r="1.797" transform="translate(136.35 116.796)"/>
    <circle id="Ellipse_45" data-name="Ellipse 45" cx="1.797" cy="1.797" r="1.797" transform="translate(125.567 118.593)"/>
    <circle id="Ellipse_46" data-name="Ellipse 46" cx="1.797" cy="1.797" r="1.797" transform="translate(111.189 114.999)"/>
    <path id="Path_30223" data-name="Path 30223" d="M243.6,231.187h.686a1.8,1.8,0,1,0,0-3.594H243.6l.5-.993a1.8,1.8,0,1,0-3.215-1.608l-.5.994a3.594,3.594,0,0,0,3.215,5.2Z" transform="translate(-105.455 -157.523)"/>
    <path id="Path_30224" data-name="Path 30224" d="M242.592,264.992a1.8,1.8,0,0,0-2.411-.8,6.272,6.272,0,0,1-5.581,0,1.8,1.8,0,1,0-1.608,3.215,9.88,9.88,0,0,0,8.8,0A1.8,1.8,0,0,0,242.592,264.992Z" transform="translate(-99.243 -188.538)"/>
  </g>
</svg>
