<?xml version="1.0" encoding="utf-8"?>
<!-- Generator: Adobe Illustrator 25.2.0, SVG Export Plug-In . SVG Version: 6.00 Build 0)  -->
<svg version="1.1" id="Layer_1" xmlns="http://www.w3.org/2000/svg" xmlns:xlink="http://www.w3.org/1999/xlink" x="0px" y="0px"
	 viewBox="0 0 100 100" style="enable-background:new 0 0 100 100;" xml:space="preserve">
<style type="text/css">
	.st0{fill:#FEF48B;}
	.st1{fill:#FEF056;}
	.st2{fill:#F9F7F8;}
</style>
<g transform="translate(0 -10.031)">
	<g transform="translate(1.816 11.847)">
		<g transform="translate(0 0)">
			<path class="st0" d="M80.1,43.4v48.9c0,1.3-1.1,2.4-2.4,2.4h-59c-1.3,0-2.4-1.1-2.4-2.4V43.4L0.8,40.8C0,40.7-0.5,40-0.3,39.3
				c0,0,0,0,0-0.1l5.7-25.5c0.2-1,0.7-1.8,1.4-2.5L15.2,3c0.9-0.9,2.2-1.4,3.5-1.4h12.2c0.4,0,0.8,0.3,0.9,0.6c2.3,6,8,9.9,14.4,9.9
				h3.9c6.4,0,12.1-4,14.4-9.9c0.1-0.4,0.5-0.6,0.9-0.6h12.2c1.3,0,2.6,0.5,3.5,1.4l8.4,8.1c0.7,0.7,1.2,1.6,1.4,2.5l5.7,25.5
				c0.2,0.7-0.3,1.4-1,1.6c0,0,0,0-0.1,0L80.1,43.4z"/>
		</g>
		<path class="st1" d="M29.7,89.2c-2.7,0-4.9-2.2-4.9-4.9V42.5c0-2.6-1.9-4.9-4.5-5.3l-4.9-0.8c-2.7-0.5-4.6-3.1-4.1-5.8
			c0-0.1,0-0.2,0.1-0.3l2.4-10.6c0.2-1,0.7-1.8,1.4-2.5L23.5,9c0.9-0.9,2.2-1.4,3.5-1.4h8.3c-1.5-1.5-2.7-3.3-3.4-5.3
			c-0.1-0.4-0.5-0.6-0.9-0.6H18.7c-1.3,0-2.6,0.5-3.5,1.4l-8.4,8.1c-0.7,0.7-1.2,1.6-1.4,2.5l-5.7,25.5c-0.2,0.7,0.3,1.4,1,1.6
			c0,0,0,0,0.1,0l15.5,2.6v48.9c0,1.3,1.1,2.4,2.4,2.4h59c1.3,0,2.4-1.1,2.4-2.4v-3.1H29.7z"/>
		<g transform="translate(32.989 5.523)">
			<path class="st1" d="M17.1,14.1h-3.9C5.1,14.1-2.4,9.8-6.5,2.8c-0.4-0.7-0.2-1.6,0.5-2c0.7-0.4,1.6-0.2,2,0.5
				c3.6,6.1,10.1,9.8,17.2,9.9h3.9c7.1,0,13.6-3.8,17.2-9.9c0.4-0.7,1.3-0.9,2-0.5c0.7,0.4,0.9,1.3,0.5,2
				C32.8,9.8,25.3,14.1,17.1,14.1z"/>
			<circle class="st2" cx="15.2" cy="47.8" r="18.9"/>
		</g>
	</g>
	<g transform="translate(0 10.031)">
		<path d="M71.1,8.1c-0.7-0.4-1.6-0.2-2,0.5c-3.6,6.1-10.1,9.9-17.2,9.9h-3.9c-7.1,0-13.6-3.8-17.2-9.9c-0.4-0.7-1.3-0.9-2-0.5
			c-0.7,0.4-0.9,1.3-0.5,2c4.1,7,11.6,11.3,19.7,11.3h3.9c8.1,0,15.6-4.3,19.7-11.3C72.1,9.4,71.8,8.5,71.1,8.1z"/>
		<path d="M99.9,40.7L98,32.2c-0.2-0.8-1-1.3-1.8-1.1c-0.8,0.2-1.3,1-1.1,1.8l1.9,8.3l-13.7,2.3V26.3c0-0.8-0.7-1.5-1.5-1.5
			s-1.5,0.7-1.5,1.5v67.9c0,0.5-0.4,0.9-0.9,0.9h-59c-0.5,0-0.9-0.4-0.9-0.9v-8.8c0-0.8-0.7-1.5-1.5-1.5c-0.8,0-1.5,0.7-1.5,1.5l0,0
			v8.8c0,2.1,1.7,3.9,3.9,3.9h59c2.1,0,3.9-1.7,3.9-3.9V46.5l14.3-2.4c1.5-0.3,2.6-1.7,2.3-3.2C100,40.8,99.9,40.7,99.9,40.7
			L99.9,40.7z"/>
		<path d="M50,45.8c0.4,0,0.9,0.2,1.1,0.6l0.7,1.1c0.4,0.7,1.3,0.9,2,0.5c0.7-0.4,0.9-1.3,0.5-2l-0.7-1.1c-1.2-2-3.8-2.6-5.8-1.4
			c-0.6,0.3-1,0.8-1.4,1.4L43,50.3l-0.1-0.4c-0.2-0.8-1-1.3-1.8-1.1c-0.8,0.2-1.3,1-1.1,1.8c0,0,0,0,0,0l0.9,3.9
			c0.2,0.8,0.9,1.3,1.7,1.1l3.9-0.7c0.8-0.1,1.3-0.9,1.2-1.7c-0.1-0.8-0.9-1.3-1.7-1.2l0,0L45.4,52l3.5-5.6
			C49.2,46,49.6,45.8,50,45.8L50,45.8z"/>
		<path d="M49.5,66.5c0.6,0.6,1.5,0.5,2.1,0l2.8-2.9c0.5-0.6,0.5-1.5,0-2l-2.8-2.9c-0.6-0.6-1.5-0.6-2.1,0c-0.6,0.6-0.6,1.5,0,2.1
			l0.4,0.4h-7.7c-0.7,0-1.3-0.6-1.3-1.3c0-0.2,0.1-0.5,0.2-0.7l0.4-0.6c0.4-0.7,0.2-1.6-0.5-2c-0.7-0.4-1.6-0.2-2,0.5l-0.4,0.6
			c-1.2,2-0.6,4.6,1.3,5.8c0.7,0.4,1.4,0.6,2.2,0.6h7.7l-0.4,0.4C48.9,65,48.9,65.9,49.5,66.5z"/>
		<path d="M60.5,51.2c0.1-0.8-0.4-1.6-1.2-1.7c0,0,0,0,0,0l-3.9-0.7c-0.8-0.1-1.5,0.3-1.7,1.1l-0.9,3.9c-0.2,0.8,0.3,1.6,1.1,1.8
			c0.8,0.2,1.6-0.3,1.8-1.1c0,0,0,0,0,0l0.1-0.4l3.1,5.1c0.4,0.6,0.2,1.4-0.4,1.8C58.3,61,58.1,61,57.8,61c-0.8,0-1.5,0.7-1.5,1.5
			c0,0.8,0.7,1.5,1.5,1.5c2.3,0,4.2-1.9,4.2-4.2c0-0.8-0.2-1.5-0.6-2.2l-3.3-5.3l0.7,0.1C59.6,52.5,60.4,52,60.5,51.2z"/>
		<path d="M59.1,36.8c-2.8-1.4-5.9-2.1-9.1-2.1c-11.3,0-20.4,9.1-20.4,20.4c0,11.3,9.1,20.4,20.4,20.4s20.4-9.1,20.4-20.4
			c0-5.3-2.1-10.5-5.8-14.3c-0.6-0.6-1.5-0.6-2.1,0c-0.6,0.6-0.6,1.5,0,2.1c6.7,6.9,6.6,17.9-0.2,24.6c-6.9,6.7-17.9,6.6-24.6-0.2
			s-6.6-17.9,0.2-24.6c5.3-5.2,13.3-6.5,20-3.2c0.7,0.4,1.6,0.1,2-0.7C60.1,38.1,59.8,37.2,59.1,36.8L59.1,36.8z"/>
		<path d="M16.7,79.1c0,0.8,0.7,1.5,1.5,1.5c0.8,0,1.5-0.7,1.5-1.5V26.3c0-0.8-0.7-1.5-1.5-1.5s-1.5,0.7-1.5,1.5l0,0v17.3L3,41.2
			l5.7-25.4c0.2-0.7,0.5-1.3,1-1.8L18,5.9c0.7-0.7,1.6-1,2.5-1h11.9c2.6,6.4,8.8,10.6,15.7,10.6h3.9c6.9,0,13.1-4.2,15.7-10.6h11.9
			c0.9,0,1.8,0.4,2.5,1l8.4,8.1c0.5,0.5,0.9,1.1,1,1.8l2.4,10.9c0.2,0.8,1,1.3,1.8,1.1s1.3-1,1.1-1.8l-2.4-10.9
			c-0.3-1.2-0.9-2.4-1.8-3.3l-8.4-8.1C82.8,2.6,81.2,2,79.5,2H67.3c-1,0-1.9,0.6-2.3,1.6c-2.1,5.4-7.3,9-13,9h-3.9
			c-5.8,0-11-3.6-13-9c-0.4-1-1.3-1.6-2.3-1.6H20.5c-1.7,0-3.3,0.7-4.5,1.8l-8.4,8.1c-0.9,0.9-1.6,2-1.8,3.3L0.1,40.7
			c-0.3,1.5,0.6,3,2.1,3.4c0,0,0.1,0,0.1,0l14.3,2.4V79.1z"/>
	</g>
</g>
</svg>
