<svg xmlns="http://www.w3.org/2000/svg" width="211" height="182.293" viewBox="0 0 211 182.293"><g transform="translate(-469 -3036)"><g transform="translate(469 3036)"><g transform="translate(1.645 0)"><circle cx="8.772" cy="8.772" r="8.772" transform="translate(191.81 75.395)" fill="#eaf2b1"/><circle cx="5.67" cy="5.67" r="5.67" transform="translate(3.328 31.79) rotate(-22.889)" fill="#eaf2b1"/><circle cx="13.558" cy="13.558" r="13.558" transform="translate(149.323 0.523)" fill="#eaf2b1"/><path d="M48.19,222.935l77.06.5,71.411-.5c7.007-4.792,16.48-20.158,21-31.019,7.936-19.086-10.009-34.475-21.341-47.583s9.54-34.711,7.855-49.221-19.424-25.329-38.792-18.351-21.659-1.627-31.157-18.252S79.2,28.161,53.361,63.522s-.913,62.155-3.836,74.8-25.618,16.49-27.1,40.828C21.558,193.252,38.148,214.456,48.19,222.935Z" transform="translate(-22.387 -41.387)" fill="#eaf2b1"/></g><g transform="translate(1.639 93.413)"><g transform="translate(133.991 25.099)"><path d="M325.278,364.727h50.145c3.656-3.684,4.783-8.286,2.145-11.583-6.036-7.543-15.127,4.639-18.785-1.586-2.15-3.657,7.559-6.493,18.562-10.689,7.815-2.98,6.747-11.962,0-12.636s-9.652-.209-5.266-5.27S389.408,307.9,382.1,302.652c-9.033-6.488-15.678,9.37-22.425,15.442s-.326-10.493-10.109-7.119,1.687,25.976-5.06,28.675S328.99,318.059,318.2,338.3C312.784,348.447,318.422,358.145,325.278,364.727Z" transform="translate(-316.033 -301.121)" fill="#56894c"/><g transform="translate(20.777 6.929)"><path d="M361.568,371.641s20.362-40.94,39.025-55.334" transform="translate(-361.568 -316.307)" fill="none" stroke="#456d3d" stroke-miterlimit="10" stroke-width="0.25"/><path d="M388.156,379.876s7.592-6.149,29.476-8.609" transform="translate(-376.024 -346.19)" fill="none" stroke="#456d3d" stroke-miterlimit="10" stroke-width="0.25"/></g></g><g transform="translate(36.615 25.587)"><path d="M111.774,365.227h50.6c3.656-3.684,4.439-7.717,1.8-11.014-6.036-7.543-15.127,4.639-18.785-1.586-2.15-3.657,7.559-6.493,18.562-10.689,7.815-2.98,6.747-11.962,0-12.636s-9.652-.209-5.266-5.27,17.328-15.064,10.023-20.311c-9.033-6.488-15.678,9.37-22.425,15.442s-.326-10.492-10.109-7.119,1.687,25.976-5.06,28.675-15.518-21.591-26.313-1.35C99.394,349.517,104.919,358.645,111.774,365.227Z" transform="translate(-102.621 -302.191)" fill="#56894c"/><g transform="translate(20.312 6.929)"><path d="M147.138,373.4s20.849-41.63,39.512-56.023" transform="translate(-147.138 -317.377)" fill="none" stroke="#456d3d" stroke-miterlimit="10" stroke-width="0.25"/><path d="M174.793,380.946s7.592-6.149,29.476-8.609" transform="translate(-162.175 -347.26)" fill="none" stroke="#456d3d" stroke-miterlimit="10" stroke-width="0.25"/></g></g><g transform="translate(1.545 35.872)"><path d="M74.692,377.49H33.069c-3.023-3.047-3.93-7.008-1.748-9.734,4.992-6.238,12.511,3.836,15.536-1.311,1.778-3.025-6.251-5.37-15.352-8.84-6.463-2.464-5.58-9.893,0-10.451s7.983-.173,4.356-4.358S21.53,330.338,27.571,326c7.471-5.366,12.966,7.749,18.546,12.771s.27-8.678,8.361-5.888-1.4,21.483,4.185,23.715,12.834-17.856,21.762-1.116C84.9,363.872,80.362,372.047,74.692,377.49Z" transform="translate(-25.76 -324.732)" fill="#70a467"/><g transform="translate(4.86 5.731)"><path d="M74.195,384.229s-17.669-35.033-33.1-46.937" transform="translate(-38.956 -337.292)" fill="none" stroke="#508344" stroke-miterlimit="10" stroke-width="0.25"/><path d="M60.788,389.865s-6.278-5.086-24.377-7.119" transform="translate(-36.411 -362.006)" fill="none" stroke="#508344" stroke-miterlimit="10" stroke-width="0.25"/></g></g><line x1="22.929" y1="61.104" transform="translate(12.635 4.962)" fill="none" stroke="#23594e" stroke-miterlimit="10" stroke-width="0.948"/><path d="M47.4,247.517a2.547,2.547,0,1,1-3.42-1.13A2.548,2.548,0,0,1,47.4,247.517Z" transform="translate(-33.36 -246.114)" fill="#eea6a1"/><path d="M71,247.769a2.547,2.547,0,1,1-3.42-1.13A2.547,2.547,0,0,1,71,247.769Z" transform="translate(-46.191 -246.251)" fill="#eea6a1"/><path d="M27.2,273.563a2.547,2.547,0,1,1-3.42-1.131A2.546,2.546,0,0,1,27.2,273.563Z" transform="translate(-22.374 -260.276)" fill="#eea6a1"/><line x1="14.152" y1="6.149" transform="translate(4.748 15.508)" fill="none" stroke="#23594e" stroke-miterlimit="10" stroke-width="0.948"/><line y1="9.207" x2="5.7" transform="translate(16.023 4.784)" fill="none" stroke="#23594e" stroke-miterlimit="10" stroke-width="0.948"/><path d="M41.388,289.324c-1.423.559-2.824.385-3.129-.39s.6-1.856,2.026-2.415,2.824-.386,3.129.389S42.811,288.764,41.388,289.324Z" transform="translate(-30.979 -267.905)" fill="#23594e"/></g><g transform="translate(22.18 6.686)"><g transform="translate(72.278 46.437)"><g transform="translate(10.307 59.607)"><path d="M308.914,310.45l-1.075,47.313-58.53.074-.92-47.789,2.466-12.857,38.239-8.742Z" transform="translate(-248.389 -288.449)" fill="#245a4f"/><g transform="translate(23.986 17.409)"><path d="M307.766,396.237l-.609-37.027h-6.2" transform="translate(-300.957 -344.332)" fill="none" stroke="#19433f" stroke-miterlimit="10" stroke-width="0.25"/><path d="M347.472,326.6a15.157,15.157,0,0,0,2.469,6.88,16.277,16.277,0,0,0,4.533,5.292c2.191,1.5,4.871,2.067,7.473,2.6" transform="translate(-326.248 -326.603)" fill="none" stroke="#19433f" stroke-miterlimit="10" stroke-width="0.25"/></g></g><path d="M227.3,170.19a316.664,316.664,0,0,0,35.035-7.993c21.1-5.918-22.355,43.8-22.355,43.8S220.305,182.811,227.3,170.19Z" transform="translate(-225.799 -159.93)" fill="#b8d5e0"/><g transform="translate(9.357)"><path d="M246.536,241.341l28.82,1.207,4.856-14.716,4.212,15.311h24.292s.863-51.125-4.163-64.206-14.644-18.28-21.351-20.74-29.77,6.756-33.921,32.222S246.536,241.341,246.536,241.341Z" transform="translate(-246.307 -157.812)" fill="#b8d5e0"/><path d="M320.613,169.572v65.11" transform="translate(-286.709 -164.206)" fill="none" stroke="#306484" stroke-miterlimit="10" stroke-width="0.25"/><g transform="translate(35.639 17.124)"><circle cx="1.079" cy="1.079" r="1.079" fill="#306484"/><circle cx="1.079" cy="1.079" r="1.079" transform="translate(0 16.072)" fill="#306484"/><circle cx="1.079" cy="1.079" r="1.079" transform="translate(0 32.143)" fill="#306484"/><circle cx="1.079" cy="1.079" r="1.079" transform="translate(0 48.215)" fill="#306484"/></g><path d="M249.282,227.134c-4.15,25.466-2.745,50.923-2.745,50.923l28.82,1.207,4.856-14.716,4.212,15.311h24.292s.346-34.9-2.123-54.519" transform="translate(-246.307 -194.528)" fill="none" stroke="#306484" stroke-miterlimit="10" stroke-width="0.25"/><path d="M269.014,183.812a31.019,31.019,0,0,1,5.062-5.8" transform="translate(-258.653 -168.797)" fill="none" stroke="#306484" stroke-miterlimit="10" stroke-width="0.25"/><path d="M285.592,211.03h-7.3a1.632,1.632,0,0,1-1.632-1.632h0a1.632,1.632,0,0,1,1.632-1.631h7.3a1.632,1.632,0,0,1,1.632,1.631h0A1.632,1.632,0,0,1,285.592,211.03Z" transform="translate(-262.81 -184.974)" fill="none" stroke="#306484" stroke-miterlimit="10" stroke-width="0.25"/></g></g><g transform="translate(0 8.72)"><g transform="translate(65.335 14.13)"><path d="M218.388,114.1a5.144,5.144,0,0,0-1.349-1.828c.347.177.7.339.992.467,1.137.493,2.138.235,1.415-.684a3.819,3.819,0,0,0-1.892-.9c1.557-.786,3.164-1.719,2.252-2.428-.493-.383-1.573.113-2.568.736.756-.734,1.5-1.54,1.453-1.847-.086-.6-.722-.616-2,.688a5.116,5.116,0,0,0-.922,1.269,9.543,9.543,0,0,0-.05-1.145c-.191-1.857-1.024-2.751-1.833-2.106-.382.3-.184,1.489.132,2.656a5.69,5.69,0,0,0-.971-1.069c-1.175-.945-1.716.052-1.354.8a5.316,5.316,0,0,0,1.269,1.246,3.3,3.3,0,0,0-2.065-.076c-.632.419-.307,1.18.8,1.319.477.06,1.137.129,1.734.187-1.019.387-2.191.943-2.16,1.443.048.765,1.016.73,2.2.205-.541.764-.954,1.541-.718,1.9.542.814,1.459-.386,2.056-1.518h0a3.769,3.769,0,0,0-.107,1.912c.386.709.961.253,1.132-.174a11.414,11.414,0,0,0,.127-2.428c.5.8,1.086,1.721,1.281,1.983A.649.649,0,0,0,218.388,114.1Z" transform="translate(-210.582 -106.119)" fill="#679bbc"/><g transform="translate(3.501 3.84)"><g transform="translate(0.139 0.737)"><path d="M218.639,116.5a.2.2,0,0,0,.23-.316.2.2,0,0,0-.23.316Z" transform="translate(-218.56 -116.15)" fill="#f6c946"/></g><g transform="translate(0 1.397)"><path d="M218.335,117.95a.2.2,0,0,0,.23-.316.2.2,0,0,0-.23.316Z" transform="translate(-218.256 -117.596)" fill="#f6c946"/></g><g transform="translate(0.638 1.205)"><path d="M219.733,117.529a.2.2,0,0,0,.229-.316.2.2,0,0,0-.229.316Z" transform="translate(-219.654 -117.175)" fill="#f6c946"/></g><g transform="translate(0.926 0.772)"><path d="M220.365,116.58a.2.2,0,0,0,.23-.316.2.2,0,0,0-.23.316Z" transform="translate(-220.286 -116.226)" fill="#f6c946"/></g><g transform="translate(0.113 0.103)"><path d="M218.584,115.115l.009.006a.213.213,0,0,0,.145.035.215.215,0,0,0,.128-.078l.025-.046a.19.19,0,0,0,.01-.1l-.014-.048a.192.192,0,0,0-.064-.079l-.009-.006a.143.143,0,0,0-.071-.031.173.173,0,0,0-.144.023.145.145,0,0,0-.058.051l-.025.046a.188.188,0,0,0-.01.1l.014.048a.2.2,0,0,0,.064.08Z" transform="translate(-218.503 -114.761)" fill="#f6c946"/></g><g transform="translate(0.626 0.409)"><path d="M219.707,115.785a.2.2,0,0,0,.23-.316.2.2,0,0,0-.23.316Z" transform="translate(-219.628 -115.431)" fill="#f6c946"/></g><g transform="translate(1.223 1.302)"><path d="M221.015,117.742a.2.2,0,0,0,.23-.316.2.2,0,0,0-.23.316Z" transform="translate(-220.936 -117.388)" fill="#f6c946"/></g><g transform="translate(1.441 0.424)"><path d="M221.493,115.819a.2.2,0,0,0,.23-.316.2.2,0,0,0-.23.316Z" transform="translate(-221.414 -115.465)" fill="#f6c946"/></g><g transform="translate(1.002)"><path d="M220.531,114.889a.2.2,0,0,0,.23-.316.2.2,0,0,0-.23.316Z" transform="translate(-220.452 -114.535)" fill="#f6c946"/></g><g transform="translate(0.865 1.83)"><path d="M220.231,118.9l.009.006a.147.147,0,0,0,.071.031.148.148,0,0,0,.075,0,.141.141,0,0,0,.069-.027.149.149,0,0,0,.058-.051l.025-.046a.2.2,0,0,0,.01-.1l-.014-.048a.2.2,0,0,0-.064-.079l-.009-.006a.2.2,0,0,0-.273.043l-.025.046a.194.194,0,0,0-.01.1l.014.048a.2.2,0,0,0,.064.079Z" transform="translate(-220.151 -118.546)" fill="#f6c946"/></g><g transform="translate(1.712 1.08)"><path d="M222.087,117.257a.2.2,0,0,0,.23-.316.2.2,0,0,0-.23.316Z" transform="translate(-222.008 -116.903)" fill="#f6c946"/></g></g></g><g transform="translate(55.201 5.896)"><path d="M200.413,95.452a6.794,6.794,0,0,0-2.86-.906c.508-.08,1.008-.179,1.422-.271,1.6-.356,2.466-1.409.981-1.83a5.048,5.048,0,0,0-2.717.513c1.054-2.049,2.046-4.294.52-4.343-.825-.027-1.593,1.342-2.172,2.781.238-1.371.4-2.808.119-3.1-.558-.574-1.251-.1-1.6,2.284a6.756,6.756,0,0,0,0,2.072,12.594,12.594,0,0,0-.942-1.184c-1.647-1.836-3.23-2.144-3.595-.827-.172.621.96,1.734,2.2,2.735a7.472,7.472,0,0,0-1.867-.388c-1.99-.1-1.794,1.388-.827,1.906a7.011,7.011,0,0,0,2.324.346c-1.116.447-2.08,1.024-2.266,1.522-.35.939.589,1.5,1.878.789.557-.307,1.315-.746,2-1.148-.788,1.206-1.609,2.71-1.187,3.22.646.78,1.652-.009,2.512-1.49.015,1.236.177,2.388.705,2.583,1.211.449,1.259-1.546,1.018-3.219h0a4.972,4.972,0,0,0,1.371,2.126c.962.458,1.224-.476,1.075-1.065a15.062,15.062,0,0,0-1.75-2.693c1.15.462,2.5,1,2.908,1.124A.857.857,0,0,0,200.413,95.452Z" transform="translate(-188.372 -88.072)" fill="#679bbc"/><g transform="translate(4.528 5.32)"><g transform="translate(0.528 1.457)"><path d="M199.7,103.442a.258.258,0,0,0,0-.517.258.258,0,0,0,0,.517Z" transform="translate(-199.452 -102.925)" fill="#f6c946"/></g><g transform="translate(0.892 2.27)"><path d="M200.5,105.223a.258.258,0,0,0,0-.516.258.258,0,0,0,0,.516Z" transform="translate(-200.251 -104.707)" fill="#f6c946"/></g><g transform="translate(1.424 1.57)"><path d="M201.667,103.687a.258.258,0,0,0,0-.516.258.258,0,0,0,0,.516Z" transform="translate(-201.418 -103.171)" fill="#f6c946"/></g><g transform="translate(1.397 0.883)"><path d="M201.606,102.182a.258.258,0,0,0,0-.516.258.258,0,0,0,0,.516Z" transform="translate(-201.357 -101.666)" fill="#f6c946"/></g><g transform="translate(0 0.799)"><path d="M198.554,102h.014a.291.291,0,0,0,.182-.075.287.287,0,0,0,.075-.183l-.009-.069a.255.255,0,0,0-.066-.114l-.052-.041a.255.255,0,0,0-.13-.035h-.014a.192.192,0,0,0-.1.022.186.186,0,0,0-.083.053.193.193,0,0,0-.053.083.2.2,0,0,0-.022.1l.01.068a.255.255,0,0,0,.066.114l.052.04a.255.255,0,0,0,.13.035Z" transform="translate(-198.296 -101.482)" fill="#f6c946"/></g><g transform="translate(0.794 0.729)"><path d="M200.285,101.845a.258.258,0,0,0,0-.517.258.258,0,0,0,0,.517Z" transform="translate(-200.036 -101.328)" fill="#f6c946"/></g><g transform="translate(2.125 1.219)"><path d="M203.2,102.92a.258.258,0,0,0,0-.517.258.258,0,0,0,0,.517Z" transform="translate(-202.954 -102.403)" fill="#f6c946"/></g><g transform="translate(1.677 0.112)"><path d="M202.22,100.493a.258.258,0,0,0,0-.516.258.258,0,0,0,0,.516Z" transform="translate(-201.971 -99.977)" fill="#f6c946"/></g><g transform="translate(0.878)"><path d="M200.469,100.247a.258.258,0,0,0,0-.516.258.258,0,0,0,0,.516Z" transform="translate(-200.22 -99.731)" fill="#f6c946"/></g><g transform="translate(2.145 2.06)"><path d="M203.254,104.762h.014a.2.2,0,0,0,.1-.022.194.194,0,0,0,.083-.053.288.288,0,0,0,.076-.183l-.009-.069a.259.259,0,0,0-.067-.114l-.052-.041a.263.263,0,0,0-.13-.035h-.014a.192.192,0,0,0-.1.022.2.2,0,0,0-.083.053.284.284,0,0,0-.075.183l.009.068a.26.26,0,0,0,.066.114l.052.04a.26.26,0,0,0,.13.036Z" transform="translate(-202.996 -104.246)" fill="#f6c946"/></g><g transform="translate(2.476 0.603)"><path d="M203.971,101.568a.258.258,0,0,0,0-.516.258.258,0,0,0,0,.516Z" transform="translate(-203.722 -101.052)" fill="#f6c946"/></g></g></g><path d="M177.83,132.961l-.133-.119s-2.577.768-7.854,2.007a84.886,84.886,0,0,1-12.256,1.839A49.151,49.151,0,0,1,139,130.835l-1.182,1.487s-2.782,1.784,2.767,9.5c4.271,5.941,12.543,10.981,16.13,12.989h1.748c3.588-2.009,11.859-7.049,16.13-12.989C180.141,134.105,177.83,132.961,177.83,132.961Z" transform="translate(-105.304 -105.427)" fill="#dc553e"/><g transform="translate(31.461)"><g transform="translate(14.576)"><path d="M170.37,82.558a3.676,3.676,0,0,1,1.382-4.684,5.073,5.073,0,0,1,5.507-.353A4.444,4.444,0,0,1,178.8,82.6c-.548,1.71-1.831,3.1-2.825,4.556a11.028,11.028,0,0,0-1.4,2.71,11.923,11.923,0,0,0-.449,4.01.856.856,0,0,0,1.711,0,9.844,9.844,0,0,1,.5-3.869,12.654,12.654,0,0,1,1.607-2.679c1.282-1.777,2.619-3.548,2.805-5.811a5.947,5.947,0,0,0-3.218-5.811,6.963,6.963,0,0,0-6.846.844,5.392,5.392,0,0,0-1.783,6.874c.53.965,2.009.1,1.477-.863Z" transform="translate(-168.289 -75.151)" fill="#c8c8c8"/><g transform="translate(1.698 0.553)"><path d="M184.8,94.533a9.844,9.844,0,0,1,.5-3.869,12.654,12.654,0,0,1,1.607-2.679c1.282-1.777,2.619-3.548,2.805-5.811a5.947,5.947,0,0,0-3.218-5.811" transform="translate(-178.963 -76.363)" fill="none" stroke="#acacac" stroke-miterlimit="10" stroke-width="0.25"/><path d="M172.394,84.593a3.676,3.676,0,0,1,1.382-4.684,5.073,5.073,0,0,1,5.507-.353,4.444,4.444,0,0,1,1.536,5.076" transform="translate(-172.011 -77.739)" fill="none" stroke="#acacac" stroke-miterlimit="10" stroke-width="0.25"/></g></g><g transform="translate(0 19.468)"><path d="M136.344,125.968l14.881-8.151h9.266" transform="translate(-136.344 -117.817)" fill="none" stroke="#c8c8c8" stroke-miterlimit="10" stroke-width="0.75"/><path d="M162.914,120.084h-10.5l-14.32,7.631" transform="translate(-137.293 -119.049)" fill="none" stroke="#acacac" stroke-miterlimit="10" stroke-width="0.25"/><g transform="translate(15.711)"><path d="M196.9,126.607l-16.047-8.79h-8.418" transform="translate(-171.677 -117.817)" fill="none" stroke="#c8c8c8" stroke-miterlimit="10" stroke-width="0.75"/><path d="M170.776,120.084h8.939l15.986,8.572" transform="translate(-170.776 -119.049)" fill="none" stroke="#acacac" stroke-miterlimit="10" stroke-width="0.25"/></g></g><g transform="translate(19.328 11.449)"><path d="M185.313,119.5c2.611-.353,5.039-.8,7.142-1.289.939-.22,1.788-.425,2.557-.614a19.747,19.747,0,0,1-4.12-5.863c-.113-.69,1.092-.262,1.092-.262l1.784,1.065s-.049-1.66,0-2.937-1.474-2.045-1.474-2.045a15.84,15.84,0,0,0-2.342-3.665,5.6,5.6,0,0,0-3.47-1.041c-.6.1-3.616,4.113-3.616,4.113l-.595-2.23,1.288-1.982s3.419-.595,2.923-1.7-3.121-.881-4.31-.534-3.469,3.469-3.469,3.469.694,5.8,1.338,7.284C180.41,112.126,183.083,116.179,185.313,119.5Z" transform="translate(-178.704 -100.243)" fill="#f6cba1"/><g transform="translate(3.882 1.59)"><path d="M195.751,113.211a23,23,0,0,1,2.528-2.575" transform="translate(-191.855 -107.484)" fill="none" stroke="#a05d4b" stroke-miterlimit="10" stroke-width="0.5"/><path d="M201.747,118.727a21.209,21.209,0,0,1,2.512-1.707" transform="translate(-195.115 -110.955)" fill="none" stroke="#a05d4b" stroke-miterlimit="10" stroke-width="0.5"/><path d="M187.486,108.512l-.235-1.379a1.042,1.042,0,0,1,.194-.96l.515-.81a1.426,1.426,0,0,1,.784-.7l2-.931" transform="translate(-187.212 -103.728)" fill="none" stroke="#a05d4b" stroke-miterlimit="10" stroke-width="0.5"/><path d="M209.077,131.018c-.933-1.809-2.37-3.318-3.314-5.12a1.019,1.019,0,0,1-.162-.707.255.255,0,0,1,.13-.177.324.324,0,0,1,.189,0,6.575,6.575,0,0,1,1.838.643" transform="translate(-197.2 -115.293)" fill="none" stroke="#a05d4b" stroke-miterlimit="10" stroke-width="0.5"/></g></g></g><path d="M199.426,153.223h-6.953a1.041,1.041,0,0,1-1.041-1.04h0a1.041,1.041,0,0,1,1.041-1.041h6.953a1.041,1.041,0,0,1,1.04,1.041h0A1.04,1.04,0,0,1,199.426,153.223Z" transform="translate(-134.835 -116.469)" fill="#fff"/><g transform="translate(34.854 35.771)"><path d="M144.6,155.259h33.733a.856.856,0,0,0,0-1.711H144.6a.856.856,0,0,0,0,1.711Z" transform="translate(-143.779 -153.548)" fill="#c8c8c8"/><path d="M144.713,157.55h33.744" transform="translate(-144.287 -155.724)" fill="none" stroke="#acacac" stroke-miterlimit="10" stroke-width="0.25"/></g><g transform="translate(0 25.408)"><g transform="translate(72.393 1.877)"><path d="M258.7,213.789l-13.825,5.836-15.78-34.566,2.4-32.515-.743-9.527-4.7-8.069s1.665.525,3.842,1.116c3.82,1.037,9.219,2.677,9.977,3.845C241.06,141.742,258.7,213.789,258.7,213.789Z" transform="translate(-226.052 -134.948)" fill="#ed6d3f"/><g transform="translate(3.043 2.253)"><path d="M236.035,238.273c2.955,0,5.351,3.351,5.351,7.484,0,3.179-1.42,5.889-3.419,6.973l-5.246-11.491.108-1.465A4.438,4.438,0,0,1,236.035,238.273Z" transform="translate(-232.721 -193.381)" fill="#f4b8ac"/><path d="M251.734,285.492a4.136,4.136,0,0,1,2.369-.781c2.955,0,5.351,3.351,5.351,7.484a8.841,8.841,0,0,1-2,5.829Z" transform="translate(-243.059 -218.63)" fill="#f4b8ac"/><path d="M276.022,267.1c-2.955,0-5.351-3.351-5.351-7.484s2.4-7.484,5.351-7.484a3.876,3.876,0,0,1,.7.07c1.14,4.591,2.208,8.913,3.129,12.644A4.752,4.752,0,0,1,276.022,267.1Z" transform="translate(-253.355 -200.917)" fill="#f4b8ac"/><path d="M245.755,142.416c-.762-.767-3.255-1.7-5.908-2.53a8.338,8.338,0,0,0-2.7,6.5c0,4.133,2.4,7.484,5.351,7.484,2.444,0,4.5-2.294,5.141-5.424-.056-.208-.111-.411-.164-.609l-.007-.026q-.241-.888-.451-1.642L247,146.1c-.04-.144-.079-.283-.117-.418l-.018-.063q-.129-.456-.243-.849l-.017-.058-.091-.312-.022-.074c-.032-.109-.063-.213-.094-.312l-.005-.018c-.032-.105-.062-.2-.092-.3l-.018-.057c-.022-.072-.044-.14-.065-.2l-.021-.068c-.02-.062-.039-.12-.058-.175l-.016-.048c-.022-.067-.044-.129-.064-.185l-.01-.027c-.016-.044-.031-.085-.046-.121l-.016-.039c-.012-.03-.023-.056-.034-.079l-.013-.029a.664.664,0,0,0-.037-.07,1.16,1.16,0,0,0-.142-.173Z" transform="translate(-235.128 -139.886)" fill="#f4b8ac"/><path d="M265.107,199.578c-1.208-4.812-2.4-9.51-3.482-13.762-2.651.447-4.706,3.6-4.706,7.424,0,4.133,2.4,7.484,5.352,7.484A4.281,4.281,0,0,0,265.107,199.578Z" transform="translate(-245.878 -164.859)" fill="#f4b8ac"/></g><g transform="translate(16.182 68.338)"><path d="M285.984,289.972a24.969,24.969,0,0,0-.777-5.251" transform="translate(-274.397 -284.721)" fill="none" stroke="#dc553e" stroke-miterlimit="10" stroke-width="0.25"/><path d="M279.908,293.924l-1.74-3.019" transform="translate(-270.57 -288.083)" fill="none" stroke="#dc553e" stroke-miterlimit="10" stroke-width="0.25"/><path d="M264.773,298.959a14.337,14.337,0,0,1-3.256-3.968" transform="translate(-261.517 -290.305)" fill="none" stroke="#dc553e" stroke-miterlimit="10" stroke-width="0.25"/><path d="M271,298.991a8.116,8.116,0,0,0-.554-1.781" transform="translate(-266.371 -291.512)" fill="none" stroke="#dc553e" stroke-miterlimit="10" stroke-width="0.25"/></g><g transform="translate(15.608 71.354)"><path d="M260.259,297.611l15.2-6.282c1.135,4.613,1.839,7.488,1.839,7.488l-13.825,5.836Z" transform="translate(-260.259 -291.329)" fill="#fff"/><path d="M281.07,307.739c-4.559,2.135-9.093,3.931-13.875,6.021" transform="translate(-264.03 -300.251)" fill="none" stroke="#eea6a1" stroke-miterlimit="10" stroke-width="0.25"/><path d="M288.435,300.636a1.15,1.15,0,1,0,1.15-1.15A1.15,1.15,0,0,0,288.435,300.636Z" transform="translate(-275.579 -295.764)" fill="none" stroke="#bb3c2b" stroke-miterlimit="10" stroke-width="0.25"/></g><path d="M235.16,250.368c2.265,5.091,4.39,9.707,6.956,15.14" transform="translate(-231.004 -197.704)" fill="none" stroke="#bb3c2b" stroke-miterlimit="10" stroke-width="0.25"/></g><path d="M67.392,211.553l13.824,5.836L97,182.823l-2.4-32.515.743-9.527,5.748-9.946s-13.676,5-14.865,6.838S67.392,211.553,67.392,211.553Z" transform="translate(-67.392 -130.835)" fill="#ed6d3f"/><g transform="translate(3.113 2.462)"><path d="M98.831,168.845c2.955,0,5.351-3.351,5.351-7.484a8.382,8.382,0,0,0-2.635-6.44c-.891,3.232-2.164,8.107-3.622,13.808A3.88,3.88,0,0,0,98.831,168.845Z" transform="translate(-87.107 -146.393)" fill="#f4b8ac"/><path d="M93.634,218.779c2.955,0,5.351-3.351,5.351-7.484s-2.4-7.484-5.351-7.484a4.6,4.6,0,0,0-3.539,1.88c-.57,2.261-1.149,4.568-1.729,6.883C88.8,216.1,90.991,218.779,93.634,218.779Z" transform="translate(-81.909 -172.976)" fill="#f4b8ac"/><path d="M118.635,238.273c-2.955,0-5.351,3.351-5.351,7.484,0,3.179,1.42,5.889,3.419,6.973l5.246-11.491-.108-1.465A4.438,4.438,0,0,0,118.635,238.273Z" transform="translate(-95.458 -191.713)" fill="#f4b8ac"/><path d="M104.062,285.492a4.138,4.138,0,0,0-2.369-.781c-2.956,0-5.352,3.351-5.352,7.484a8.841,8.841,0,0,0,2,5.829Z" transform="translate(-86.246 -216.962)" fill="#f4b8ac"/><path d="M78.039,267.1c2.956,0,5.352-3.351,5.352-7.484s-2.4-7.484-5.352-7.484a3.885,3.885,0,0,0-.7.07c-1.139,4.591-2.208,8.913-3.128,12.644A4.751,4.751,0,0,0,78.039,267.1Z" transform="translate(-74.215 -199.25)" fill="#f4b8ac"/><ellipse cx="5.351" cy="7.484" rx="5.351" ry="7.484" transform="translate(21.87)" fill="#f4b8ac"/></g><g transform="translate(4.879 70.215)"><path d="M78.086,289.972a24.973,24.973,0,0,1,.777-5.251" transform="translate(-78.086 -284.721)" fill="none" stroke="#dc553e" stroke-miterlimit="10" stroke-width="0.25"/><path d="M83.013,293.924l1.741-3.019" transform="translate(-80.765 -288.083)" fill="none" stroke="#dc553e" stroke-miterlimit="10" stroke-width="0.25"/><path d="M96.342,298.959a14.338,14.338,0,0,0,3.256-3.968" transform="translate(-88.012 -290.305)" fill="none" stroke="#dc553e" stroke-miterlimit="10" stroke-width="0.25"/><path d="M93.337,298.991a8.142,8.142,0,0,1,.554-1.781" transform="translate(-86.378 -291.512)" fill="none" stroke="#dc553e" stroke-miterlimit="10" stroke-width="0.25"/></g><g transform="translate(0 73.23)"><path d="M84.431,297.611l-15.2-6.282c-1.135,4.613-1.839,7.488-1.839,7.488l13.824,5.836Z" transform="translate(-67.392 -291.329)" fill="#fff"/><path d="M67.392,307.739c4.558,2.135,9.093,3.931,13.875,6.021" transform="translate(-67.392 -300.251)" fill="none" stroke="#eea6a1" stroke-miterlimit="10" stroke-width="0.25"/><path d="M73.82,300.636a1.15,1.15,0,1,1-1.15-1.15A1.15,1.15,0,0,1,73.82,300.636Z" transform="translate(-69.636 -295.764)" fill="none" stroke="#bb3c2b" stroke-miterlimit="10" stroke-width="0.25"/></g><path d="M122.107,251.1l-6.656,14.7" transform="translate(-93.523 -196.223)" fill="none" stroke="#bb3c2b" stroke-miterlimit="10" stroke-width="0.25"/></g><g transform="translate(32.054 5.479)"><g transform="translate(8.619)"><path d="M157.215,87.159s-1.879,5.918.594,10.289A10,10,0,0,0,157.215,87.159Z" transform="translate(-156.532 -87.159)" fill="#70a467"/></g><g transform="translate(2.86 5.124)"><path d="M143.91,98.388s1.5,6.026,5.894,8.455A10,10,0,0,0,143.91,98.388Z" transform="translate(-143.91 -98.388)" fill="#70a467"/></g><g transform="translate(10.193 8.3)"><path d="M168.843,105.35s-6.119,1.054-8.861,5.262A9.994,9.994,0,0,0,168.843,105.35Z" transform="translate(-159.982 -105.35)" fill="#70a467"/></g><g transform="translate(9.701 12.907)"><path d="M167.97,115.447s-6.156.807-9.066,4.9A9.994,9.994,0,0,0,167.97,115.447Z" transform="translate(-158.904 -115.447)" fill="#70a467"/></g><g transform="translate(8.546 17.536)"><path d="M165.3,125.592s-6.132.976-8.928,5.148A10,10,0,0,0,165.3,125.592Z" transform="translate(-156.372 -125.592)" fill="#70a467"/></g><g transform="translate(7.276 22.212)"><path d="M162.9,135.839s-6.19.488-9.307,4.426A10,10,0,0,0,162.9,135.839Z" transform="translate(-153.59 -135.839)" fill="#70a467"/></g><g transform="translate(1.243 11.123)"><path d="M140.368,111.536s1.5,6.026,5.894,8.455A10,10,0,0,0,140.368,111.536Z" transform="translate(-140.368 -111.536)" fill="#70a467"/></g><g transform="translate(0 17.957)"><path d="M137.643,126.515s1.5,6.026,5.893,8.455A10,10,0,0,0,137.643,126.515Z" transform="translate(-137.643 -126.515)" fill="#70a467"/></g><g transform="translate(3.114 4.605)"><g transform="translate(2.288)"><path d="M153.7,97.473a37.989,37.989,0,0,1-.35,9.328,72.159,72.159,0,0,1-1.963,9.124,30.792,30.792,0,0,1-1.887,5.028c-.117.24.261.405.378.167a40.4,40.4,0,0,0,2.876-8.977,59.314,59.314,0,0,0,1.445-9.41,33.871,33.871,0,0,0-.088-5.3.207.207,0,0,0-.411.042Z" transform="translate(-149.483 -97.252)" fill="#508344"/></g><g transform="translate(3.306 5.44)"><path d="M154.8,113.606a23.5,23.5,0,0,0-2.714-4.352c-.164-.208-.5.037-.332.247a22.976,22.976,0,0,1,2.661,4.255c.115.238.5.09.385-.15Z" transform="translate(-151.713 -109.175)" fill="#508344"/></g><g transform="translate(1.477 11.102)"><path d="M151.364,126.51q-1.53-2.5-3.286-4.845a.207.207,0,0,0-.331.246q1.754,2.345,3.285,4.845c.139.226.469-.021.332-.246Z" transform="translate(-147.705 -121.584)" fill="#508344"/></g><g transform="translate(0 17.263)"><path d="M147.757,139.917a36.463,36.463,0,0,0-2.917-4.748.207.207,0,0,0-.331.246,35.8,35.8,0,0,1,2.864,4.651c.12.234.507.087.385-.15Z" transform="translate(-144.467 -135.086)" fill="#508344"/></g><g transform="translate(6.218 6.663)"><path d="M162.658,111.885a44.749,44.749,0,0,1-4.439,2.335c-.243.106-.095.491.149.385a45.706,45.706,0,0,0,4.536-2.388c.229-.132-.018-.463-.246-.332Z" transform="translate(-158.095 -111.855)" fill="#508344"/></g><g transform="translate(5.559 10.964)"><path d="M161.852,121.316c-.825.525-1.745.863-2.613,1.306a25.621,25.621,0,0,1-2.461,1.035.207.207,0,0,0,.15.385c.87-.335,1.722-.668,2.558-1.084a28.229,28.229,0,0,0,2.614-1.31c.224-.143-.023-.474-.247-.332Z" transform="translate(-156.651 -121.281)" fill="#508344"/></g><g transform="translate(4.386 15.945)"><path d="M159.035,132.22q-2.391,1.149-4.831,2.2c-.244.1-.1.49.15.385q2.439-1.046,4.831-2.2c.238-.115.09-.5-.15-.385Z" transform="translate(-154.079 -132.198)" fill="#508344"/></g><g transform="translate(3.21 20.206)"><path d="M155.954,141.567a19.1,19.1,0,0,1-4.319,1.839c-.255.073-.1.458.15.385A19.548,19.548,0,0,0,156.2,141.9c.23-.133-.018-.464-.246-.332Z" transform="translate(-151.503 -141.537)" fill="#508344"/></g></g></g><g transform="translate(39.107 20.076)"><g transform="translate(7.714)"><path d="M181.892,121.5s.379-.44.6-.734a4.725,4.725,0,0,0,.49-1.459,7.2,7.2,0,0,1-.1,3.115C182.42,123.513,181.49,122.483,181.892,121.5Z" transform="translate(-176.416 -119.234)" fill="#434230"/><g transform="translate(0.622 1.768)"><path d="M173.762,132.593a18.316,18.316,0,0,1-1.753-1.635,1.645,1.645,0,0,1-.507-1.941c.28-.877,1.422-2.446,1.2-3.112s.915-2.071,1.982-2.4,2.225-.943,2.78.11a4.575,4.575,0,0,1,.258,3.538c-.357,1.556-.439,2.79-.795,3.836S174.583,133.413,173.762,132.593Z" transform="translate(-171.371 -123.024)" fill="#eae4e7"/><path d="M178.047,126.171a.861.861,0,0,1-.527-.955c.107-.724,1.528-1.127,2.081-.9S179.6,125.851,178.047,126.171Z" transform="translate(-174.707 -123.693)" fill="#fff"/></g><path d="M177.69,130.775a2.156,2.156,0,0,1,.542-2.04c.882-.785,1.043-1.341.522-2.667s-.588-2.138.753-3.091,1.622-3.827,1.622-3.827a6.078,6.078,0,0,0,1.153,3.553c1.149,1.233,1.042,4.873-.2,6.321S178.564,132.076,177.69,130.775Z" transform="translate(-174.15 -119.15)" fill="#434230"/><path d="M172.247,132.591s-1.367-.476-1.722-1.426a3.809,3.809,0,0,1,.012-2.13,1.815,1.815,0,0,1-.118-2.44,7.062,7.062,0,0,1,3.648-2.7s-1.369.75-.881,1.863-.481,1.819-1.288,2.817-1.31,1.472-.643,1.833A2.72,2.72,0,0,1,172.247,132.591Z" transform="translate(-170.008 -121.732)" fill="#434230"/><path d="M173.457,142.055a1.167,1.167,0,0,1-.747-.634c-.187-.491-1.043-.811-1.043-.811s.928-.626,1.429-.026c0,0-.648-.661-.01-1.042s.586-.579.586-.579.08.862.491.889.914.117.611,1.106a1.07,1.07,0,0,1,.806-.078.95.95,0,0,0,.741-.042,5,5,0,0,0-.254.565c-.048.168-.017.378.257.311s-.047.479-.892.691A2.829,2.829,0,0,1,173.457,142.055Z" transform="translate(-170.91 -129.923)" fill="#59573d"/></g><g transform="translate(0 4.455)"><path d="M153.1,128.913c2.4,2.411,2.627,3.339,3.81,5.785,2.164,4.472,2.376,9.652,2.576,14.616" transform="translate(-153.101 -128.913)" fill="none" stroke="#434230" stroke-miterlimit="10" stroke-width="1"/><path d="M166.69,151.787a19.04,19.04,0,0,0,4.578-7.579" transform="translate(-160.49 -137.229)" fill="none" stroke="#434230" stroke-miterlimit="10" stroke-width="1"/></g><path d="M207.437,151.46a31.171,31.171,0,0,1,4.078-8.471" transform="translate(-182.645 -132.112)" fill="none" stroke="#434230" stroke-miterlimit="10" stroke-width="1"/></g><g transform="translate(45.25 25.902)"><g transform="translate(12.246)"><path d="M197,131.918s-4.078,4.682-3.547,9.677A9.995,9.995,0,0,0,197,131.918Z" transform="translate(-193.401 -131.918)" fill="#70a467"/></g><g transform="translate(7.728 2.139)"><path d="M183.663,136.606s-1.023,6.124,2.045,10.1A10,10,0,0,0,183.663,136.606Z" transform="translate(-183.499 -136.606)" fill="#70a467"/></g><g transform="translate(11.264 11.107)"><path d="M201.472,156.648s-6.033-1.466-10.223,1.3A10,10,0,0,0,201.472,156.648Z" transform="translate(-191.249 -156.26)" fill="#70a467"/></g><g transform="translate(9.124 15.056)"><path d="M196.826,165.467s-5.969-1.708-10.267.891A10,10,0,0,0,196.826,165.467Z" transform="translate(-186.559 -164.916)" fill="#70a467"/></g><g transform="translate(6.124 18.904)"><path d="M190.225,173.785s-6.014-1.543-10.239,1.172A10,10,0,0,0,190.225,173.785Z" transform="translate(-179.986 -173.348)" fill="#70a467"/></g><g transform="translate(3.387 22.479)"><path d="M184.287,181.98s-5.874-2.014-10.3.36A10,10,0,0,0,184.287,181.98Z" transform="translate(-173.987 -181.183)" fill="#70a467"/></g><g transform="translate(3.859 7.001)"><path d="M175.184,147.261s-1.022,6.124,2.045,10.1A10,10,0,0,0,175.184,147.261Z" transform="translate(-175.021 -147.261)" fill="#70a467"/></g><g transform="translate(0 12.777)"><path d="M166.727,159.92s-1.023,6.124,2.045,10.1A10,10,0,0,0,166.727,159.92Z" transform="translate(-166.563 -159.92)" fill="#70a467"/></g><g transform="translate(0.955 4.418)"><path d="M181.917,141.739a37.967,37.967,0,0,1-4.031,8.419,72.091,72.091,0,0,1-5.43,7.591,30.768,30.768,0,0,1-3.731,3.862c-.2.173.079.476.281.3a40.377,40.377,0,0,0,6.209-7.093,59.4,59.4,0,0,0,5.068-8.059,33.979,33.979,0,0,0,2.028-4.9.207.207,0,0,0-.394-.125Z" transform="translate(-168.656 -141.601)" fill="#508344"/><g transform="translate(8.15 3.723)"><path d="M187.686,154.985a23.511,23.511,0,0,0-.759-5.073c-.068-.256-.47-.163-.4.094a23.015,23.015,0,0,1,.749,4.962c.01.264.423.282.412.016Z" transform="translate(-186.517 -149.761)" fill="#508344"/></g><g transform="translate(4.218 8.191)"><path d="M179.4,165.457q-.41-2.9-1.088-5.752a.207.207,0,0,0-.4.094q.677,2.849,1.087,5.751c.037.263.439.168.4-.094Z" transform="translate(-177.9 -159.552)" fill="#508344"/></g><g transform="translate(0.411 13.256)"><path d="M170.753,176.323a36.572,36.572,0,0,0-.788-5.516.207.207,0,0,0-.4.094,35.766,35.766,0,0,1,.778,5.406c.017.263.43.282.413.016Z" transform="translate(-169.557 -170.653)" fill="#508344"/></g><g transform="translate(9.397 7.774)"><path d="M194.459,158.64a44.759,44.759,0,0,1-5,.376c-.265,0-.282.413-.016.412a45.539,45.539,0,0,0,5.112-.387c.263-.03.167-.432-.094-.4Z" transform="translate(-189.25 -158.638)" fill="#508344"/></g><g transform="translate(7.08 11.714)"><path d="M189.968,167.277c-.966.153-1.944.1-2.917.159a25.551,25.551,0,0,1-2.67-.029.207.207,0,0,0-.016.413c.932.038,1.846.073,2.778.022a28.2,28.2,0,0,0,2.919-.163c.262-.042.167-.444-.094-.4Z" transform="translate(-184.174 -167.274)" fill="#508344"/></g><g transform="translate(4.084 15.711)"><path d="M183.119,176.034q-2.651.1-5.306.093c-.265,0-.282.412-.016.412q2.653.01,5.305-.093c.264-.01.282-.423.016-.413Z" transform="translate(-177.606 -176.034)" fill="#508344"/></g><g transform="translate(1.457 18.929)"><path d="M176.75,183.118a19.1,19.1,0,0,1-4.694-.031c-.264-.034-.278.379-.016.413a19.525,19.525,0,0,0,4.8.02c.263-.031.167-.433-.094-.4Z" transform="translate(-171.85 -183.086)" fill="#508344"/></g></g></g><g transform="translate(22.194 25.408)"><path d="M127.533,130.835s-.991,9.885,11.273,14.94,22.4-3.557,22.878-4.633,3.676-5.234,4.548-8.43l10.414,9.47s.006,13.865-.1,15.573a94.291,94.291,0,0,1-1.979,14.366c-1.276,4.933-4.929,16.3-7.079,19.023s-42.88.366-42.88.366-7.971-19.495-7.925-27.9a100.782,100.782,0,0,1-.6-12.414c.274-4.237,2.5-12.71,2.5-12.71Z" transform="translate(-116.032 -130.835)" fill="#ed6d3f"/><g transform="translate(0.02 2.462)"><ellipse cx="5.351" cy="7.484" rx="5.351" ry="7.484" transform="translate(7.391 41.311)" fill="#f4b8ac"/><ellipse cx="5.351" cy="7.484" rx="5.351" ry="7.484" transform="translate(26.839 37.458)" fill="#f4b8ac"/><ellipse cx="5.351" cy="7.484" rx="5.351" ry="7.484" transform="translate(44.625 20.759)" fill="#f4b8ac"/><ellipse cx="5.351" cy="7.484" rx="5.351" ry="7.484" transform="translate(16.995 19.089)" fill="#f4b8ac"/><path d="M232.612,233.433a3.95,3.95,0,0,0-1.43-.278c-2.955,0-5.351,3.35-5.351,7.484a9,9,0,0,0,1.768,5.547C229.09,243.794,231.1,238.206,232.612,233.433Z" transform="translate(-175.752 -188.93)" fill="#f4b8ac"/><path d="M117.011,182.527a3.894,3.894,0,0,0-.934.121c.11,4.178.632,9.072.632,9.072a28.722,28.722,0,0,0,.725,5.745c2.757-.3,4.928-3.521,4.928-7.454C122.362,185.878,119.966,182.527,117.011,182.527Z" transform="translate(-116.077 -161.403)" fill="#f4b8ac"/><ellipse cx="5.351" cy="7.484" rx="5.351" ry="7.484" transform="translate(2.77)" fill="#f4b8ac"/></g><g transform="translate(14.175 48.55)"><path d="M149.234,247.064a51.047,51.047,0,0,1-2.136-9.825" transform="translate(-147.098 -237.239)" fill="none" stroke="#dc553e" stroke-miterlimit="10" stroke-width="0.25"/><path d="M154.9,251.33a45.9,45.9,0,0,0,.757-6.251" transform="translate(-151.341 -241.502)" fill="none" stroke="#dc553e" stroke-miterlimit="10" stroke-width="0.25"/><path d="M209.467,248.766a32.151,32.151,0,0,0,2.382-8.258" transform="translate(-181.009 -239.016)" fill="none" stroke="#dc553e" stroke-miterlimit="10" stroke-width="0.25"/><path d="M203.643,252.535a17.58,17.58,0,0,1-.618-4.85" transform="translate(-177.506 -242.919)" fill="none" stroke="#dc553e" stroke-miterlimit="10" stroke-width="0.25"/></g><g transform="translate(0.053 23.885)"><path d="M124.237,217.984a84.154,84.154,0,0,1-8.088-34.8" transform="translate(-116.149 -183.182)" fill="none" stroke="#bb3c2b" stroke-miterlimit="10" stroke-width="0.25"/><path d="M231.149,217.984a84.155,84.155,0,0,0,8.088-34.8" transform="translate(-178.677 -183.182)" fill="none" stroke="#bb3c2b" stroke-miterlimit="10" stroke-width="0.25"/></g><path d="M242.5,144.873l-3.687-2.619a9.079,9.079,0,0,0-1.664,5.415c0,4.133,2.4,7.484,5.351,7.484a4.658,4.658,0,0,0,3.656-2.029Z" transform="translate(-181.885 -137.044)" fill="#f4b8ac"/></g><g transform="translate(32.513 29.57)"><path d="M177.47,139.957s-3.242,11.031-18.5,12.022c-15.256-.992-18.5-12.022-18.5-12.022-5.054,7.581,1.04,21.257,10.257,19.919,5.827-.846,7.671-3.77,8.241-5.807.569,2.037,2.414,4.961,8.24,5.807C176.429,161.214,182.523,147.538,177.47,139.957Z" transform="translate(-138.649 -139.957)" fill="#fff"/><path d="M140.474,139.957c-5.054,7.581,1.04,21.257,10.257,19.919,5.827-.846,7.671-3.77,8.241-5.807.569,2.037,2.414,4.961,8.24,5.807,9.216,1.338,15.311-12.338,10.257-19.919" transform="translate(-138.649 -139.957)" fill="none" stroke="#eea6a1" stroke-miterlimit="10" stroke-width="0.25"/></g><g transform="translate(57.584 35.302)"><g transform="translate(0 20.811)"><path d="M195.1,202.676l10.212.167a1.214,1.214,0,0,1,1.194,1.2l.151,16.613a1.214,1.214,0,0,1-1.234,1.225l-10.635-.174a1.214,1.214,0,0,1-1.194-1.234l.272-16.606A1.214,1.214,0,0,1,195.1,202.676Z" transform="translate(-193.596 -200.601)" fill="#cbc9ca"/><path d="M205.424,221.884l-10.635-.174a1.214,1.214,0,0,1-1.194-1.234l.272-16.606a1.214,1.214,0,0,1,1.234-1.194" transform="translate(-193.596 -200.601)" fill="none" stroke="#9d949a" stroke-miterlimit="10" stroke-width="0.25"/><path d="M195.777,198.8l10.191-.668a1.214,1.214,0,0,1,1.289,1.1l1.509,16.545a1.214,1.214,0,0,1-1.13,1.322l-10.614.7a1.215,1.215,0,0,1-1.291-1.133l-1.087-16.573A1.215,1.215,0,0,1,195.777,198.8Z" transform="translate(-194.165 -198.129)" fill="#fff"/></g><path d="M208.025,202.827a.791.791,0,1,1-.841-.738A.791.791,0,0,1,208.025,202.827Z" transform="translate(-200.582 -179.471)" fill="#b6afb2"/><g transform="translate(4.358 23.022)"><path d="M204.409,217.463s-5.1-7.808,5.187-14.487C209.6,202.976,212.871,214.629,204.409,217.463Z" transform="translate(-203.147 -202.976)" fill="#70a467"/><line x1="5.166" y2="14.696" transform="translate(1.106 0.517)" fill="none" stroke="#508344" stroke-miterlimit="10" stroke-width="0.25"/><g transform="translate(0.001 0.982)"><path d="M206.057,222.737l-.99-1.67-1.232-2.077c-.022.078-.044.155-.063.231l1.515,2.555.66,1.112a.087.087,0,0,0,.1.035l3.569-1.164c.031-.07.062-.14.09-.211l-3.047.993Z" transform="translate(-203.487 -212.665)" fill="#508344"/><path d="M208.514,218l-.748.209-2.124-3.665c-.033.059-.065.119-.1.178l1.755,3.027.353.608a.088.088,0,0,0,.1.035l2.221-.623,1.221-.342c.014-.064.028-.127.042-.191Z" transform="translate(-204.451 -210.25)" fill="#508344"/><path d="M208.288,226.212l-2.516.761-.643.194-1.979-3.111c0,.108,0,.215,0,.321l1.548,2.434.321.505a.089.089,0,0,0,.1.035l1.91-.578,1.073-.324Q208.2,226.332,208.288,226.212Z" transform="translate(-203.148 -215.421)" fill="#508344"/><path d="M213.916,205.24l.389,1.036.187.5a.088.088,0,0,0,.109.055l1.294-.37c-.008-.059-.016-.116-.024-.172l-.734.209-.51.146-.569-1.512Z" transform="translate(-209.003 -205.129)" fill="#508344"/><path d="M209.469,214.657a.088.088,0,0,0,.1.035l2-.583,1.027-.3c.005-.061.01-.123.014-.184l-2.368.689-.663.193-1.851-3.168c-.038.05-.074.1-.112.15l1.513,2.591Z" transform="translate(-205.58 -208.506)" fill="#508344"/><path d="M210.513,208.208l1.078,1.921.259.46a.087.087,0,0,0,.1.035l2.26-.664c0-.06-.005-.119-.008-.178l-1.606.473-.631.186-1.323-2.357Z" transform="translate(-207.153 -206.735)" fill="#508344"/></g></g><path d="M208.265,152.52c-.06,7.515-.126,15.76-.186,23.275" transform="translate(-201.471 -152.52)" fill="none" stroke="#dad8d9" stroke-miterlimit="10" stroke-width="0.25"/></g><g transform="translate(15.845 8.428)"><g transform="translate(8.823 19.509)"><path d="M134.833,143.476a3.193,3.193,0,0,1,1.844,2.04c.434,1.537-.549,3.65-.12,4.39,0,0-1.548-1.026-1.543-2.148,0,0,.279,3.745-2.964,4.472s-4.081,2.255-3.514,3.468c0,0-2.44-5.191.663-7.616,0,0-2.334,1.383-3.922.172a18.78,18.78,0,0,0-3.821-2.092,7.127,7.127,0,0,0,2.166-2.147A4.067,4.067,0,0,1,128,142.4a2.83,2.83,0,0,1-1.46-3.17c.5-2.224-.162-2.848-.162-2.848a5.11,5.11,0,0,0,2.068.513,4.371,4.371,0,0,1,3.3,2.349,2.252,2.252,0,0,0-.3-2.309,5.436,5.436,0,0,1,3.374,3.481C135.42,142.958,134.833,143.476,134.833,143.476Z" transform="translate(-121.455 -136.378)" fill="#59573d"/><path d="M139.348,153.6a11.023,11.023,0,0,1,5.983-1.626,18.049,18.049,0,0,1,6.133,1.22" transform="translate(-131.184 -144.857)" fill="none" stroke="#434230" stroke-miterlimit="10" stroke-width="1"/></g><g transform="translate(0 13.607)"><g transform="translate(33.727 15.209)"><path d="M189.405,164.97a7.543,7.543,0,0,0-3.176-1.006c.564-.089,1.12-.2,1.579-.3,1.774-.4,2.739-1.565,1.089-2.032a5.6,5.6,0,0,0-3.016.569c1.169-2.275,2.271-4.768.577-4.822-.916-.03-1.769,1.49-2.411,3.088.264-1.523.449-3.118.131-3.445-.619-.638-1.388-.109-1.774,2.536a7.5,7.5,0,0,0,0,2.3,13.968,13.968,0,0,0-1.046-1.315c-1.828-2.038-3.587-2.381-3.992-.918-.191.69,1.066,1.925,2.447,3.037a8.285,8.285,0,0,0-2.073-.431c-2.21-.109-1.992,1.54-.918,2.116a7.8,7.8,0,0,0,2.58.384c-1.239.5-2.31,1.137-2.516,1.691-.389,1.043.653,1.665,2.085.876.618-.341,1.461-.829,2.218-1.274-.875,1.338-1.787,3.009-1.318,3.575.717.866,1.834-.01,2.789-1.655.017,1.373.2,2.652.783,2.869,1.345.5,1.4-1.717,1.13-3.574h0a5.522,5.522,0,0,0,1.522,2.36c1.069.509,1.359-.529,1.193-1.182a16.7,16.7,0,0,0-1.943-2.991c1.277.513,2.772,1.106,3.229,1.248A.952.952,0,0,0,189.405,164.97Z" transform="translate(-176.035 -156.775)" fill="#679bbc"/><g transform="translate(5.028 5.907)"><g transform="translate(0.586 1.618)"><path d="M188.615,173.841a.287.287,0,0,0,0-.573.287.287,0,0,0,0,.573Z" transform="translate(-188.338 -173.268)" fill="#f6c946"/></g><g transform="translate(0.99 2.521)"><path d="M189.5,175.819a.287.287,0,0,0,0-.573.287.287,0,0,0,0,.573Z" transform="translate(-189.225 -175.246)" fill="#f6c946"/></g><g transform="translate(1.582 1.743)"><path d="M190.8,174.114a.287.287,0,0,0,0-.573.287.287,0,0,0,0,.573Z" transform="translate(-190.521 -173.541)" fill="#f6c946"/></g><g transform="translate(1.55 0.981)"><path d="M190.729,172.443a.287.287,0,0,0,0-.573.287.287,0,0,0,0,.573Z" transform="translate(-190.452 -171.87)" fill="#f6c946"/></g><g transform="translate(0 0.887)"><path d="M187.341,172.238h.016a.277.277,0,0,0,.262-.176.218.218,0,0,0,.025-.11l-.01-.076a.289.289,0,0,0-.074-.126l-.058-.045a.288.288,0,0,0-.145-.039h-.016a.317.317,0,0,0-.2.084.21.21,0,0,0-.059.092.215.215,0,0,0-.025.11l.01.076a.284.284,0,0,0,.074.126l.058.045a.286.286,0,0,0,.145.039Z" transform="translate(-187.054 -171.665)" fill="#f6c946"/></g><g transform="translate(0.881 0.809)"><path d="M189.263,172.068a.287.287,0,0,0,0-.573.287.287,0,0,0,0,.573Z" transform="translate(-188.986 -171.495)" fill="#f6c946"/></g><g transform="translate(2.359 1.354)"><path d="M192.5,173.261a.287.287,0,0,0,0-.573.287.287,0,0,0,0,.573Z" transform="translate(-192.226 -172.688)" fill="#f6c946"/></g><g transform="translate(1.862 0.125)"><path d="M191.411,170.567a.287.287,0,0,0,0-.573.287.287,0,0,0,0,.573Z" transform="translate(-191.135 -169.994)" fill="#f6c946"/></g><g transform="translate(0.975)"><path d="M189.467,170.294a.287.287,0,0,0,0-.573.287.287,0,0,0,0,.573Z" transform="translate(-189.191 -169.721)" fill="#f6c946"/></g><g transform="translate(2.381 2.288)"><path d="M192.559,175.308h.016a.318.318,0,0,0,.2-.084.222.222,0,0,0,.059-.092.219.219,0,0,0,.025-.11l-.01-.076a.283.283,0,0,0-.073-.127l-.058-.045a.283.283,0,0,0-.145-.039h-.016a.321.321,0,0,0-.2.084.212.212,0,0,0-.059.093.208.208,0,0,0-.025.11l.01.076a.289.289,0,0,0,.074.126l.058.045a.286.286,0,0,0,.145.039Z" transform="translate(-192.272 -174.734)" fill="#f6c946"/></g><g transform="translate(2.749 0.669)"><path d="M193.355,171.761a.287.287,0,0,0,0-.573.287.287,0,0,0,0,.573Z" transform="translate(-193.078 -171.188)" fill="#f6c946"/></g></g></g><path d="M115.489,131.638a7.55,7.55,0,0,0-3.176-1.006c.564-.089,1.12-.2,1.579-.3,1.774-.4,2.739-1.565,1.089-2.032a5.6,5.6,0,0,0-3.016.569c1.169-2.275,2.271-4.768.577-4.822-.916-.03-1.769,1.49-2.411,3.088.264-1.523.449-3.118.131-3.445-.619-.638-1.388-.109-1.774,2.536a7.482,7.482,0,0,0,0,2.3,14.04,14.04,0,0,0-1.046-1.315c-1.828-2.039-3.587-2.381-3.992-.918-.191.69,1.066,1.925,2.447,3.037a8.3,8.3,0,0,0-2.073-.43c-2.21-.109-1.992,1.54-.918,2.116a7.8,7.8,0,0,0,2.58.384c-1.239.5-2.31,1.137-2.516,1.69-.389,1.043.653,1.665,2.085.876.618-.34,1.461-.829,2.218-1.273-.875,1.338-1.787,3.009-1.318,3.575.717.866,1.834-.01,2.789-1.655.017,1.373.2,2.651.783,2.869,1.345.5,1.4-1.716,1.13-3.574h0a5.525,5.525,0,0,0,1.522,2.36c1.069.508,1.359-.529,1.193-1.183a16.718,16.718,0,0,0-1.943-2.99c1.277.513,2.772,1.105,3.229,1.248A.952.952,0,0,0,115.489,131.638Z" transform="translate(-102.119 -123.443)" fill="#679bbc"/><g transform="translate(5.028 5.907)"><g transform="translate(0.586 1.618)"><path d="M114.7,140.509a.287.287,0,0,0,0-.573.287.287,0,0,0,0,.573Z" transform="translate(-114.422 -139.936)" fill="#f6c946"/></g><g transform="translate(0.99 2.521)"><path d="M115.585,142.487a.287.287,0,0,0,0-.573.287.287,0,0,0,0,.573Z" transform="translate(-115.309 -141.914)" fill="#f6c946"/></g><g transform="translate(1.582 1.743)"><path d="M116.881,140.782a.287.287,0,0,0,0-.573.287.287,0,0,0,0,.573Z" transform="translate(-116.605 -140.209)" fill="#f6c946"/></g><g transform="translate(1.55 0.981)"><path d="M116.813,139.111a.287.287,0,0,0,0-.573.287.287,0,0,0,0,.573Z" transform="translate(-116.536 -138.538)" fill="#f6c946"/></g><g transform="translate(0 0.887)"><path d="M113.425,138.906h.016a.219.219,0,0,0,.11-.025.215.215,0,0,0,.092-.059.318.318,0,0,0,.084-.2l-.01-.076a.281.281,0,0,0-.073-.126l-.058-.045a.283.283,0,0,0-.145-.039h-.016a.218.218,0,0,0-.11.025.259.259,0,0,0-.151.151.209.209,0,0,0-.025.11l.01.076a.287.287,0,0,0,.074.126l.058.045a.282.282,0,0,0,.145.039Z" transform="translate(-113.138 -138.333)" fill="#f6c946"/></g><g transform="translate(0.881 0.809)"><path d="M115.347,138.736a.287.287,0,0,0,0-.574.287.287,0,0,0,0,.574Z" transform="translate(-115.07 -138.162)" fill="#f6c946"/></g><g transform="translate(2.36 1.354)"><path d="M118.586,139.929a.287.287,0,0,0,0-.573.287.287,0,0,0,0,.573Z" transform="translate(-118.31 -139.356)" fill="#f6c946"/></g><g transform="translate(1.862 0.125)"><path d="M117.5,137.235a.287.287,0,0,0,0-.573.287.287,0,0,0,0,.573Z" transform="translate(-117.218 -136.662)" fill="#f6c946"/></g><g transform="translate(0.975)"><path d="M115.551,136.962a.287.287,0,0,0,0-.573.287.287,0,0,0,0,.573Z" transform="translate(-115.275 -136.389)" fill="#f6c946"/></g><g transform="translate(2.381 2.287)"><path d="M118.643,141.975h.016a.318.318,0,0,0,.2-.084.216.216,0,0,0,.059-.092.218.218,0,0,0,.025-.11l-.01-.076a.288.288,0,0,0-.073-.126l-.058-.045a.288.288,0,0,0-.145-.039h-.016a.217.217,0,0,0-.11.025.22.22,0,0,0-.093.059.324.324,0,0,0-.084.2l.01.076a.287.287,0,0,0,.073.126l.058.045a.282.282,0,0,0,.145.039Z" transform="translate(-118.356 -141.402)" fill="#f6c946"/></g><g transform="translate(2.749 0.669)"><path d="M119.439,138.429a.287.287,0,0,0,0-.573.287.287,0,0,0,0,.573Z" transform="translate(-119.162 -137.856)" fill="#f6c946"/></g></g></g><g transform="translate(4.822)"><g transform="translate(43.658 8.737)"><g transform="translate(1.611)"><path d="M216.12,125.791s-1.358-.087-1.6-.443a4.34,4.34,0,0,1-.262-1.667,5.315,5.315,0,0,0-.94-2.75,7.854,7.854,0,0,1-1.4-3.587c-.052-1.032-.036-2.228.926-2.794a2.509,2.509,0,0,1,2.1-.37s1.242-1.543,2.619-1.4a3.337,3.337,0,0,1,2.541,1.544c.2.474.211.414.544.313a3.875,3.875,0,0,1,3.694,1.064,3.967,3.967,0,0,1,1.4,3.712,8.215,8.215,0,0,1-.579,1.233s-.183.111,0,.454a3.072,3.072,0,0,1,.312,2.706c-.531,1.225-2.086,4.35-3.938,4.2a8.778,8.778,0,0,1-3.817-1.672A10.9,10.9,0,0,0,216.12,125.791Z" transform="translate(-211.9 -112.77)" fill="#eae4e7"/><g transform="translate(0.947 0.133)"><path d="M215.274,121.436s.473.712-.344.934-1.139-.874-.85-1.43S214.961,120.763,215.274,121.436Z" transform="translate(-213.976 -117.199)" fill="#fff"/><path d="M224.384,114.795c-.333.1-.343.161-.544-.313a3.187,3.187,0,0,0-1.922-1.42c-.959.2-2.415.637-2.2,1.381a2.654,2.654,0,0,0,1.708,1.493s-2.416-.618-2.64,1.148,2.76,3.807,4.749,3.435,1.659-1.748,1.659-1.748l-.293-.857a2.948,2.948,0,0,0,2.711,1.265c.948-.177,1.436-1.262,1.177-2.473a5.775,5.775,0,0,0-.715-.847A3.875,3.875,0,0,0,224.384,114.795Z" transform="translate(-216.587 -113.061)" fill="#fff"/></g></g><path d="M210.85,130.593s.9-1.031-.74-3.791-2.761-5.069-.346-8.4c0,0-.217,2.385,1.2,3.65s2.6,4.164,1.963,6.041a5.769,5.769,0,0,0,4.458-5.978s4.533,3.729-.877,7.321a5.006,5.006,0,0,0,5.935.247s-2.26,3.184-4.879,2.266c0,0,1,1.924-.215,3.063,0,0-.214-4.565-5.437-4.362C211.91,130.648,210.691,130.919,210.85,130.593Z" transform="translate(-208.369 -115.831)" fill="#434230"/><g transform="translate(7.093 2.096)"><path d="M223.914,117.364a2.733,2.733,0,0,0,1.734,1.8,13.587,13.587,0,0,1,2.373,1.045,4.616,4.616,0,0,1,1.164,1.237" transform="translate(-223.914 -117.364)" fill="none" stroke="#a3c2d3" stroke-miterlimit="10" stroke-width="0.25"/><path d="M223.97,121.959a1.483,1.483,0,0,0,.824.067c1.26-.193,2.37-1.129,3.644-1.071" transform="translate(-223.944 -119.315)" fill="none" stroke="#a3c2d3" stroke-miterlimit="10" stroke-width="0.25"/></g></g><path d="M154.08,93.622a8.078,8.078,0,0,1-.979,7.2l.63,2.086A7.3,7.3,0,0,0,154.08,93.622Z" transform="translate(-134.66 -93.622)" fill="#434230"/><path d="M117.831,120.918s-3.278-2.758-5.145-3.023c0,0,2.963-.684,5.069.647Z" transform="translate(-112.686 -106.724)" fill="#434230"/><g transform="translate(4.001 3.858)"><path d="M130.343,116.21s-4.35,2.554-7.54-1.236a4.971,4.971,0,0,1,.283-7s.163-4.474,4.056-4.341a4.141,4.141,0,0,1,5.906-.572,3.192,3.192,0,0,1,2.765.334,3.379,3.379,0,0,1,.83,4.389,5.417,5.417,0,0,1,.592,3.833C136.61,113.876,133.615,116.205,130.343,116.21Z" transform="translate(-121.455 -102.078)" fill="#eae4e7"/><g transform="translate(0.724 1.757)"><g transform="translate(1.307 0.569)"><path d="M133.832,110.931c.25.261.04.866-.468,1.353s-1.122.669-1.371.409-.04-.866.468-1.352S133.583,110.67,133.832,110.931Z" transform="translate(-129.159 -109.153)" fill="#a3c2d3"/><path d="M132.415,115.821s-.8-3.332.784-4.95,4.733-1.949,5.693-1.254" transform="translate(-129.336 -108.316)" fill="none" stroke="#a3c2d3" stroke-miterlimit="10" stroke-width="0.25"/><path d="M125.907,110.344s2.56-1.028,3.752-.511a4.69,4.69,0,0,1-.089-2.657" transform="translate(-125.907 -107.176)" fill="none" stroke="#a3c2d3" stroke-miterlimit="10" stroke-width="0.25"/></g><path d="M133.724,113.519s-.564,2.484,1.217,3.858,3.965,1.849,5.623-.4.02-5.22-1.8-5.975S133.794,112.248,133.724,113.519Z" transform="translate(-128.804 -108.599)" fill="#fff"/><path d="M134.726,107.861s.579.222.97-.519.123-1.365-.288-1.411S134.009,107.436,134.726,107.861Z" transform="translate(-129.257 -105.93)" fill="#fff"/><path d="M129.358,109.135s-1.541,1.109-1.843.372.9-1.853,1.333-1.9S129.747,108.469,129.358,109.135Z" transform="translate(-125.447 -106.841)" fill="#fff"/><path d="M126.75,115.506s.627,3.946-.751,4.423-3.258-1.142-2.918-2.472a4.155,4.155,0,0,1,2.49-2.569C126.319,114.673,126.75,115.506,126.75,115.506Z" transform="translate(-123.042 -110.781)" fill="#fff"/></g></g><g transform="translate(7.914 9.589)"><path d="M140.31,121.736a15.859,15.859,0,0,1-3.521,1.991c-1.284.5-3.952,3.786-3.267,5.624,0,0-1.173-4.7,1.18-6.118a9.935,9.935,0,0,1-4.671-5.744s5.792,7.118,9.817,3.357c3.619-3.381,1.369-6.151,1.369-6.151s4.2-.9,6.859,4.43a5.394,5.394,0,0,0-5.691-.122A11.389,11.389,0,0,1,140.31,121.736Z" transform="translate(-130.031 -114.638)" fill="#434230"/></g></g></g><g transform="translate(6.689 82.767)"><path d="M151.109,265.386h-46.14s-20.635,33.439-22.7,72.988h91.538C171.744,298.825,151.109,265.386,151.109,265.386Z" transform="translate(-82.171 -261.352)" fill="#ed6d3f"/><g transform="translate(0.168 4.034)"><ellipse cx="5.351" cy="7.484" rx="5.351" ry="7.484" transform="translate(14.846 43.258)" fill="#f5c0b3"/><ellipse cx="5.351" cy="7.484" rx="5.351" ry="7.484" transform="translate(38.243 31.017)" fill="#f5c0b3"/><ellipse cx="5.351" cy="7.484" rx="5.351" ry="7.484" transform="translate(55.637 45.985)" fill="#f5c0b3"/><ellipse cx="5.351" cy="7.484" rx="5.351" ry="7.484" transform="translate(66.794 21.029)" fill="#f5c0b3"/><ellipse cx="5.351" cy="7.484" rx="5.351" ry="7.484" transform="translate(48.321 7.822)" fill="#f5c0b3"/><ellipse cx="5.351" cy="7.484" rx="5.351" ry="7.484" transform="translate(19.053 12.802)" fill="#f5c0b3"/><path d="M234.161,277.7a4.219,4.219,0,0,0,2.634-.974c-3.428-7.155-6.01-11.342-6.01-11.342h-.708a9.388,9.388,0,0,0-1.268,4.832C228.809,274.351,231.2,277.7,234.161,277.7Z" transform="translate(-162.015 -265.386)" fill="#f5c0b3"/><path d="M264,364.774a4.341,4.341,0,0,0,2.976-1.264c-.984-4.766-2.161-9.344-3.449-13.67-2.734.335-4.879,3.54-4.879,7.45C258.652,361.424,261.048,364.774,264,364.774Z" transform="translate(-178.241 -311.305)" fill="#f5c0b3"/><path d="M248.421,408.4c0-4.133-2.4-7.483-5.351-7.483s-5.352,3.35-5.352,7.483a9.84,9.84,0,0,0,.689,3.666h9.326A9.84,9.84,0,0,0,248.421,408.4Z" transform="translate(-166.859 -339.076)" fill="#f5c0b3"/><path d="M154.609,265.386a10.418,10.418,0,0,0-.1,1.437c0,4.133,2.4,7.484,5.351,7.484s5.352-3.351,5.352-7.484a10.417,10.417,0,0,0-.1-1.437h-10.5Z" transform="translate(-121.616 -265.386)" fill="#f5c0b3"/><path d="M156.792,396.028c-2.956,0-5.352,3.35-5.352,7.484a8.789,8.789,0,0,0,2.063,5.9h6.578a8.791,8.791,0,0,0,2.062-5.9C162.143,399.378,159.747,396.028,156.792,396.028Z" transform="translate(-119.948 -336.419)" fill="#f5c0b3"/><path d="M99.273,335.31c2.955,0,5.351-3.35,5.351-7.484,0-3.567-1.786-6.545-4.174-7.3-1.55,4.034-3.087,8.446-4.5,13.16A4.489,4.489,0,0,0,99.273,335.31Z" transform="translate(-89.779 -295.369)" fill="#f5c0b3"/><path d="M83.275,409.407h6.578a8.791,8.791,0,0,0,2.062-5.9c0-4.133-2.4-7.484-5.352-7.484a4.357,4.357,0,0,0-3.011,1.3c-.516,3.569-.9,7.217-1.132,10.922A6.834,6.834,0,0,0,83.275,409.407Z" transform="translate(-82.421 -336.419)" fill="#f5c0b3"/></g><g transform="translate(0 3.71)"><path d="M128.151,266.386c-8.241,14.112-13,30.166-17.755,47.856" transform="translate(-97.463 -265.606)" fill="none" stroke="#dc553e" stroke-miterlimit="10" stroke-width="0.25"/><path d="M149.529,268.536c-3.655,17.279-6.862,36.516-7.825,54.151" transform="translate(-114.486 -266.775)" fill="none" stroke="#dc553e" stroke-miterlimit="10" stroke-width="0.25"/><path d="M177.7,266.386q-1.975,21.358-2.8,42.8" transform="translate(-132.534 -265.606)" fill="none" stroke="#dc553e" stroke-miterlimit="10" stroke-width="0.25"/><path d="M197.995,264.676a348.169,348.169,0,0,1,7.875,59.043" transform="translate(-145.092 -264.676)" fill="none" stroke="#dc553e" stroke-miterlimit="10" stroke-width="0.25"/><path d="M217.13,267.445a256.075,256.075,0,0,1,14.746,43.7" transform="translate(-155.497 -266.182)" fill="none" stroke="#dc553e" stroke-miterlimit="10" stroke-width="0.25"/><path d="M82.052,425.024h91.719" transform="translate(-82.052 -351.86)" fill="none" stroke="#dc553e" stroke-miterlimit="10" stroke-width="0.25"/></g><g transform="translate(21.258 0)"><path d="M3.315,0H45.7A3.315,3.315,0,0,1,49.02,3.315v0a3.315,3.315,0,0,1-3.315,3.315H3.315A3.315,3.315,0,0,1,0,3.315v0A3.315,3.315,0,0,1,3.315,0Z" fill="#dc553e"/><line x1="42.39" transform="translate(3.315 6.631)" fill="none" stroke="#bb3c2b" stroke-miterlimit="10" stroke-width="0.25"/></g></g></g><g transform="translate(69.901)"><g transform="translate(14.236)"><path d="M299.949,90.692a12.49,12.49,0,0,0-10.487,5.918,11.774,11.774,0,0,0-7.865,1.1,11.885,11.885,0,0,0-8.011-1.951,12.281,12.281,0,0,0-9.082-4.093c-7.023,0-12.716,6.093-12.716,13.61s5.693,13.61,12.716,13.61a11.959,11.959,0,0,0,1.354-.079,12.28,12.28,0,0,0,9.082,4.093,11.955,11.955,0,0,0,5.49-1.348,12.029,12.029,0,0,0,6.657,2.03,12.49,12.49,0,0,0,10.487-5.918,11.969,11.969,0,0,0,2.375.245c7.023,0,12.716-6.093,12.716-13.609S306.972,90.692,299.949,90.692Z" transform="translate(-251.789 -74.881)" fill="#dda970"/><g transform="translate(1.224)"><g transform="translate(20.469 45.912)"><path d="M301.8,164.183a1.968,1.968,0,0,1-2.379-1.041c-.515-1.138,1.189-6.132,8.473-6.281s11.075,4.571,9.031,7.1S301.8,164.183,301.8,164.183Z" transform="translate(-299.332 -156.769)" fill="#b8d5e0"/><g transform="translate(0.477)"><path d="M300.377,161.1a8.038,8.038,0,0,1,3.676-3.338,12.688,12.688,0,0,1,4.893-1.1" transform="translate(-300.377 -156.662)" fill="none" stroke="#306484" stroke-miterlimit="10" stroke-width="0.25"/><path d="M332.178,159.729a8.385,8.385,0,0,1,2.162,1.79" transform="translate(-317.668 -158.33)" fill="none" stroke="#306484" stroke-miterlimit="10" stroke-width="0.25"/></g></g><g transform="translate(21.01 47.305)"><path d="M317.958,165.035l.1-.155-.06,0c.224-1.544-4.158-4.761-8.507-5.129-4.782-.4-8.436,2.814-8.32,3.632.051.358-1.064,1.449-.4,2.1l5.569,5.211,3.268-4.232,4.546,4.351,3.638-5.522A.707.707,0,0,0,317.958,165.035Z" transform="translate(-300.541 -159.715)" fill="#b8d5e0"/><path d="M300.518,171.418l5.8,5.428,3.268-4.232,4.546,4.351,3.9-5.927" transform="translate(-300.518 -165.871)" fill="none" stroke="#306484" stroke-miterlimit="10" stroke-width="0.25"/></g><g transform="translate(10.386 9.046)"><g transform="translate(0 17.599)"><g transform="translate(31.351)"><path d="M353.953,118.49a4.006,4.006,0,1,1-3.924-4.055A3.99,3.99,0,0,1,353.953,118.49Z" transform="translate(-345.942 -114.434)" fill="#f6cba1"/><path d="M349.95,121.362a2.187,2.187,0,0,1,2.643-2.346" transform="translate(-348.121 -116.908)" fill="none" stroke="#a05d4b" stroke-miterlimit="10" stroke-width="0.25"/></g><path d="M277.234,118.326a4.006,4.006,0,1,0,4.086-3.891A3.99,3.99,0,0,0,277.234,118.326Z" transform="translate(-277.233 -114.434)" fill="#f6cba1"/><path d="M287.7,121.45A2.186,2.186,0,0,0,285.158,119" transform="translate(-281.542 -116.907)" fill="none" stroke="#a05d4b" stroke-miterlimit="10" stroke-width="0.25"/></g><g transform="translate(7.007)"><path d="M5.66,0h0a5.66,5.66,0,0,1,5.66,5.66v7.615a5.66,5.66,0,0,1-5.66,5.66h0A5.66,5.66,0,0,1,0,13.275V5.66A5.66,5.66,0,0,1,5.66,0Z" transform="translate(7.142 24.963) rotate(-1.098)" fill="#f6cba1"/><path d="M305.249,109.391h0a12.658,12.658,0,0,1-12.658-12.657V88.522a12.658,12.658,0,0,1,12.658-12.658h0a12.658,12.658,0,0,1,12.658,12.658v8.212A12.658,12.658,0,0,1,305.249,109.391Z" transform="translate(-292.591 -75.864)" fill="#f6cba1"/><path d="M319.2,143.361a12.6,12.6,0,0,1-7.852,2.729h0A12.6,12.6,0,0,1,303.8,143.6" transform="translate(-298.687 -112.563)" fill="none" stroke="#a05d4b" stroke-miterlimit="10" stroke-width="0.3"/><g transform="translate(0.852 11.929)"><g transform="translate(2.279 2.501)"><path d="M302.171,108.145a1.5,1.5,0,0,1-2.222,1.953.819.819,0,0,1-.23-.245,1.5,1.5,0,0,1,2.092-2.092A1.031,1.031,0,0,1,302.171,108.145Z" transform="translate(-299.454 -107.49)" fill="#264251"/><path d="M336.067,109a1.466,1.466,0,1,1-1.419-1.513A1.466,1.466,0,0,1,336.067,109Z" transform="translate(-317.767 -107.49)" fill="#264251"/></g><g transform="translate(0 7.058)"><path d="M300.828,120.909a3.189,3.189,0,1,1-2.939-3.422A3.19,3.19,0,0,1,300.828,120.909Z" transform="translate(-294.459 -117.478)" fill="#f2ad7b"/><path d="M338.27,120.909a3.189,3.189,0,1,1-2.939-3.422A3.189,3.189,0,0,1,338.27,120.909Z" transform="translate(-314.817 -117.478)" fill="#f2ad7b"/></g><g transform="translate(1.803)"><path d="M333.056,103.5a7.437,7.437,0,0,1,3.279.31" transform="translate(-317.248 -102.784)" fill="none" stroke="#a05d4b" stroke-miterlimit="10" stroke-width="0.5"/><path d="M298.41,102.872a4.673,4.673,0,0,1,2.773-.862" transform="translate(-298.41 -102.009)" fill="none" stroke="#a05d4b" stroke-miterlimit="10" stroke-width="0.5"/></g><path d="M318.145,112.581a8.416,8.416,0,0,1-2.043-.465c-.165-.06-.351-.152-.385-.325-.042-.215.179-.383.376-.481a5.845,5.845,0,0,1,.968-.376.251.251,0,0,0,.151-.084.242.242,0,0,0,.03-.115q.2-2.124.295-4.258" transform="translate(-306.014 -104.438)" fill="none" stroke="#a05d4b" stroke-miterlimit="10" stroke-width="0.25"/><path d="M313.5,128.068a3.142,3.142,0,0,0,6.238-.021Z" transform="translate(-304.81 -116.166)" fill="#fff"/></g></g></g><g transform="translate(9.223)"><path d="M277.384,79.983s11.016-3.993,12.771-13.176c0,0,5.586,10.591,14.5,10.207s9.872-5.6,10.012-8.01-6.463-19.214-25.5-10.457c0,0-12.347.281-14.125,10.823C273.513,78.446,277.384,79.983,277.384,79.983Z" transform="translate(-274.685 -56.039)" fill="#dda970"/><path d="M308.078,77.325A17.357,17.357,0,0,0,310.6,83.7a12.217,12.217,0,0,0,5.165,4.441" transform="translate(-292.842 -67.613)" fill="none" stroke="#dda970" stroke-miterlimit="10" stroke-width="1"/></g><g transform="translate(0 8.736)"><path d="M267.894,125.74a9.337,9.337,0,0,1-6.806-7.663,10.077,10.077,0,0,1,2.295-8.093" transform="translate(-258.012 -94.106)" fill="none" stroke="#cc955e" stroke-miterlimit="10" stroke-width="0.75"/><path d="M267.154,120.52a7.5,7.5,0,0,1,.574-3.166" transform="translate(-261.364 -98.113)" fill="none" stroke="#cc955e" stroke-miterlimit="10" stroke-width="0.75"/><path d="M373.513,103.856a7.5,7.5,0,0,1,2.057,3.282" transform="translate(-319.196 -90.774)" fill="none" stroke="#cc955e" stroke-miterlimit="10" stroke-width="0.75"/><path d="M372.409,118.637a12.154,12.154,0,0,1-5.148,10.645" transform="translate(-315.797 -98.811)" fill="none" stroke="#cc955e" stroke-miterlimit="10" stroke-width="0.75"/><path d="M311.2,75.185a19.162,19.162,0,0,0,10.5,9.892" transform="translate(-285.316 -75.185)" fill="none" stroke="#cc955e" stroke-miterlimit="10" stroke-width="0.75"/><path d="M318.958,80.008a17.42,17.42,0,0,0,6.162,3.637" transform="translate(-289.534 -77.807)" fill="none" stroke="#cc955e" stroke-miterlimit="10" stroke-width="0.75"/><path d="M254.471,110.412a11.286,11.286,0,0,1,5.291-9.456" transform="translate(-254.471 -89.197)" fill="none" stroke="#cc955e" stroke-miterlimit="10" stroke-width="0.75"/><path d="M273.148,107.507l1.373-1.5" transform="translate(-264.626 -91.944)" fill="none" stroke="#cc955e" stroke-miterlimit="10" stroke-width="0.75"/></g></g></g><g transform="translate(0 49.285)"><g transform="translate(0 21.861)"><path d="M250.742,238.012s-19.07-6.206-24.512-9.748-5.369-4.588-4.957-5.294,2.715.462,2.715.462-3.472-2.087-3.4-3.151,2.034-.455,3.25.4c0,0-3.166-1.936-2.843-3.107s3.906.673,3.906.673-2.529-1.562-2.058-2.75c.666-1.681,13.376,3.95,13.376,3.95s-7.927-4.968-7.536-6.694,4.084-.685,11.471,3.661,16.53,9.409,16.53,9.409Z" transform="translate(-220.588 -211.965)" fill="#f6cba1"/><g transform="translate(2.692 5.679)"><path d="M227.323,236.2a32.082,32.082,0,0,0,5.447,3" transform="translate(-226.942 -230.822)" fill="none" stroke="#a05d4b" stroke-miterlimit="10" stroke-width="0.5"/><path d="M226.489,230.139a28.741,28.741,0,0,0,7.279,4.16" transform="translate(-226.489 -227.525)" fill="none" stroke="#a05d4b" stroke-miterlimit="10" stroke-width="0.5"/><path d="M227.864,224.41q3.794,2.343,7.755,4.4" transform="translate(-227.237 -224.41)" fill="none" stroke="#a05d4b" stroke-miterlimit="10" stroke-width="0.5"/></g><path d="M257.417,240.132l-5.943,12.185s-19.07-6.206-24.512-9.747c-3.477-2.263-4.7-3.507-5.027-4.295" transform="translate(-221.32 -226.27)" fill="none" stroke="#a05d4b" stroke-miterlimit="10" stroke-width="0.2"/></g><g transform="translate(27.464)"><path d="M332.624,180.488c-11.544-11.367-20.222-15.178-25.148-16.434.209,1.528.617,5.628-.549,8.311l12.836,28-31.306-2.472-7.676,14.189c16.052,19.051,40.492,18.288,49.8,16.067C341.284,225.6,355.554,203.067,332.624,180.488Z" transform="translate(-280.78 -164.054)" fill="#b8d5e0"/><g transform="translate(0 4.872)"><path d="M318.3,174.732a82.957,82.957,0,0,1,14.322,11.562c22.93,22.579,8.659,45.108-2.044,47.661-9.309,2.221-33.749,2.984-49.8-16.067l7.676-14.189,33.077,2.612" transform="translate(-280.78 -174.732)" fill="none" stroke="#306484" stroke-miterlimit="10" stroke-width="0.25"/><path d="M360.2,208.087a84.758,84.758,0,0,1,2.746,16.22" transform="translate(-323.961 -192.868)" fill="none" stroke="#306484" stroke-miterlimit="10" stroke-width="0.25"/><path d="M293.137,258.689l8.592-18.8" transform="translate(-287.499 -210.16)" fill="none" stroke="#306484" stroke-miterlimit="10" stroke-width="0.25"/></g><circle cx="1.079" cy="1.079" r="1.079" transform="translate(8.465 35.886)" fill="#306484"/></g></g></g></g><line x2="205.872" transform="translate(0 182.043)" fill="none" stroke="#264251" stroke-miterlimit="10" stroke-width="0.5"/></g></g></svg>