<svg xmlns="http://www.w3.org/2000/svg" width="219.542" height="183" viewBox="0 0 219.542 183"><g transform="translate(-223.981 -455.637)"><g transform="translate(223.981 570.675)"><path d="M243,1318.244l-2.222-1.26a12.415,12.415,0,0,1-2.087,2.517,1.555,1.555,0,0,1-2.126-.03l-.071-.069a1.551,1.551,0,0,1,.04-2.276,9.056,9.056,0,0,0,1.876-2.289c.756-1.333.759-2.537-.177-3.068-.889-.5-1.875-.073-3.441,1.325-2.261,2.025-4.4,3.069-6.667,1.783-2.058-1.167-2.85-3.532-1.922-6.313l-2.222-1.26,1.3-2.292,2.058,1.167a11.46,11.46,0,0,1,1.518-1.959,1.552,1.552,0,0,1,2.183-.024h0a1.553,1.553,0,0,1,0,2.235,8.261,8.261,0,0,0-1.456,1.889c-.862,1.52-.486,2.382.169,2.754.772.438,1.727-.1,3.6-1.666,2.56-2.226,4.483-2.619,6.588-1.425,2.082,1.18,3.024,3.662,1.966,6.616l2.385,1.353Z" transform="translate(-223.981 -1303.76)" fill="#afc1f7"/></g><path d="M918.794,1361.2c5.6-7.54,10.1-7.606,10.1-7.606s2.042-13.247.413-18.883-9-.693-9-.693,9.768-19.148,5.762-21.3c-7.463-4.006-19.218,16.3-19.218,16.3s2.753-8.94-2.524-8.907c-7.959.05-8.647,20.547-8.647,20.547s-1.569-4.038-6.479-1.725c-5.289,2.492-6.722,17.5-7.022,29.1h27.88C914.052,1365.595,917.31,1363.2,918.794,1361.2Z" transform="translate(-568.924 -740.379)" fill="#7c9af2"/><path d="M904.1,1327.139s.328-10.187-4.95-10.154c-7.959.05-7.2,23.427-7.2,23.427s-3.325-6.614-8.235-4.3c-5.389,2.539-6.029,19.126-5.818,31.672h9.261l35.181-55.316C914.883,1308.461,904.1,1327.139,904.1,1327.139Z" transform="translate(-565.197 -740.125)" fill="#4951ec"/><path d="M1390.773,1534.218s25.407,2.925,31.561.77,2.079-5.6,2.079-5.6,13.015-1.662,14.271-5.536-4.9-3.9-4.9-3.9,13.065-7.208,11.6-10c-2.732-5.207-17.391,1.9-17.391,1.9s5.061-4.068,2.014-6.1c-4.595-3.067-12.964,8.449-12.964,8.449s.669-2.932-3.054-3.512C1407.3,1509.639,1390.773,1534.218,1390.773,1534.218Z" transform="translate(-1008.53 -907.222)" fill="#7c9af2"/><path d="M1429.477,1494.834c3.723.58,3.061,5.676,3.061,5.676s8.656-13.736,13.251-10.669c3.047,2.034-1.1,7.763-1.1,7.763s13.464-6.544,16.2-1.338l-52.173,22.642C1410.623,1516.029,1423.238,1493.862,1429.477,1494.834Z" transform="translate(-1024.031 -893.541)" fill="#4951ec"/><path d="M1364.756,1313.718s23.119-16.086,26.445-23.158-3.043-6.483-3.043-6.483,9.51-12.523,7.253-16.85-7.451.917-7.451.917,4.81-17.223,1.189-18.317c-6.745-2.037-13.344,19.773-13.344,19.773s-2.519-12.066-6.817-11.17c-6.482,1.352-.015,19.192-.015,19.192s-1.912-5.811-5.535-3.115C1356.939,1279.343,1364.756,1313.718,1364.756,1313.718Z" transform="translate(-982.671 -686.351)" fill="#7c9af2"/><path d="M1325.7,1274.547a9.2,9.2,0,0,0,4.9-5.994s.028-10.087,6.509-11.439c4.3-.9,7.307,7.207,7.307,7.207s6.571-16.769,13.317-14.732l-24.463,63.621C1332.422,1309.153,1320.841,1276.847,1325.7,1274.547Z" transform="translate(-951.259 -686.113)" fill="#4951ec"/><path d="M1022.816,1687.777H976.2a2.692,2.692,0,0,1-2.692-2.692h0a2.692,2.692,0,0,1,2.692-2.692h46.62a2.692,2.692,0,0,1,2.692,2.692h0A2.692,2.692,0,0,1,1022.816,1687.777Z" transform="translate(-647.859 -1060.361)" fill="#92b5f9"/><path d="M1082.932,1649.264h-46.621a2.692,2.692,0,0,1-2.692-2.692h0a2.692,2.692,0,0,1,2.692-2.692h46.621a2.692,2.692,0,0,1,2.692,2.692h0A2.692,2.692,0,0,1,1082.932,1649.264Z" transform="translate(-699.821 -1027.072)" fill="#4951ec"/><path d="M1034.839,1612.777H988.219a2.692,2.692,0,0,1-2.692-2.692h0a2.692,2.692,0,0,1,2.692-2.692h46.621a2.692,2.692,0,0,1,2.692,2.692h0A2.692,2.692,0,0,1,1034.839,1612.777Z" transform="translate(-658.251 -995.534)" fill="#92b5f9"/><path d="M994.762,1573.25h-46.62a2.692,2.692,0,0,1-2.692-2.692h0a2.692,2.692,0,0,1,2.692-2.692h46.62a2.692,2.692,0,0,1,2.692,2.692h0A2.692,2.692,0,0,1,994.762,1573.25Z" transform="translate(-623.61 -961.368)" fill="#4951ec"/><circle cx="23.309" cy="23.309" r="23.309" transform="translate(347.902 605.672) rotate(-45)" fill="#dde8fe"/><circle cx="19.56" cy="19.56" r="19.56" transform="translate(353.205 605.672) rotate(-45)" fill="#92b5f9"/><g transform="translate(371.542 591.922)"><path d="M1315.148,1486.711l1.113-3.07a15.849,15.849,0,0,1-3.619-2.093,1.987,1.987,0,0,1-.417-2.686l.071-.1a1.983,1.983,0,0,1,2.878-.436,11.577,11.577,0,0,0,3.286,1.875c1.842.668,3.36.414,3.829-.879.445-1.228-.308-2.378-2.406-4.053-3.036-2.417-4.809-4.888-3.672-8.022,1.031-2.844,3.843-4.347,7.546-3.772l1.113-3.07,3.167,1.148-1.031,2.844a14.661,14.661,0,0,1,2.794,1.495,1.984,1.984,0,0,1,.5,2.746h0a1.986,1.986,0,0,1-2.816.482,10.56,10.56,0,0,0-2.693-1.432c-2.1-.762-3.107-.1-3.435.8-.387,1.066.5,2.155,2.87,4.185,3.353,2.752,4.26,5.091,3.205,8-1.043,2.876-3.969,4.594-7.919,3.893l-1.2,3.3Z" transform="translate(-1311.879 -1460.402)" fill="#fff"/></g><path d="M419.077,1167.865s-36.222-17.86-42.452-27.175,2.928-9.843,2.928-9.843-16.164-15.721-13.89-22.339,10.76-.294,10.76-.294-10.506-23.391-5.606-25.717c9.128-4.332,21.934,20.562,21.934,20.562s-2.752-10.814,3.534-10.463c9.479.53,9.088,24.993,9.088,24.993s1.071-9.38,6.784-6.333C422.408,1116.722,419.077,1167.865,419.077,1167.865Z" transform="translate(-122.275 -541.396)" fill="#4951ec"/><path d="M448.465,1107.471c-4.462-2.476-8.905,4.76-8.905,4.76s.45-19.106-9.029-19.636c-6.286-.351-3.534,10.463-3.534,10.463s-12.805-24.894-21.934-20.562l48.3,84.971C453.705,1161.534,457.3,1112.376,448.465,1107.471Z" transform="translate(-156.52 -541.396)" fill="#7c9af2"/><path d="M341.3,1473.884s-29.625,3.679-37.3.4-2.173-7.329-2.173-7.329-16.47-3.237-17.741-8.289,6.592-4.556,6.592-4.556-16.058-10.321-13.946-13.763c3.933-6.411,22.036,3.912,22.036,3.912s-6.111-5.627-2.047-7.962c6.128-3.521,15.824,11.9,15.824,11.9s-.6-3.8,4.2-4.221C325.36,1443.217,341.3,1473.884,341.3,1473.884Z" transform="translate(-45.431 -847.194)" fill="#4951ec"/><path d="M318.158,1423.459c-4.8.421-4.394,6.982-4.394,6.982s-9.871-18.275-16-14.754c-4.063,2.335.744,10,.744,10s-16.624-9.507-20.557-3.1l64.654,33.373C340.408,1452.128,326.206,1422.753,318.158,1423.459Z" transform="translate(-46.65 -829.441)" fill="#7c9af2"/><g transform="translate(234.23 627.379)"><path d="M299.545,1722.648h0a.833.833,0,0,0,.833.833H508a.833.833,0,0,0,.833-.833h0a.833.833,0,0,0-.833-.833H300.378A.833.833,0,0,0,299.545,1722.648Z" transform="translate(-299.545 -1721.815)" fill="#4951ec"/></g><path d="M1299.872,660.022l-1.056,2.633-4.424-1.231-2.019,3.659-3.461-.38-.192,1.752,4.629.509,1.913-3.467,4.6,1.281,1.59-3.962Z" transform="translate(-920.319 -176.663)" fill="#fa7167"/><g transform="translate(392.587 530.765)"><path d="M1469.732,1032.641l1.087-2.7a14.136,14.136,0,0,1-3.156-1.977,1.77,1.77,0,0,1-.287-2.4l.067-.091a1.767,1.767,0,0,1,2.576-.3,10.3,10.3,0,0,0,2.867,1.772c1.619.652,2.978.474,3.436-.662.435-1.079-.2-2.127-2.015-3.684-2.627-2.247-4.128-4.5-3.018-7.258,1.007-2.5,3.558-3.75,6.837-3.121l1.087-2.7,2.784,1.122-1.007,2.5a13.071,13.071,0,0,1,2.441,1.418,1.768,1.768,0,0,1,.356,2.461h0a1.769,1.769,0,0,1-2.522.341,9.4,9.4,0,0,0-2.353-1.359c-1.846-.744-2.763-.189-3.083.606-.378.937.376,1.934,2.424,3.816,2.9,2.555,3.633,4.667,2.6,7.223-1.019,2.528-3.678,3.966-7.173,3.217l-1.167,2.9Z" transform="translate(-1467.032 -1009.521)" fill="#dde8fe"/></g><path d="M672.345,1671.511H617.586a3.95,3.95,0,0,1-3.95-3.95h0a3.95,3.95,0,0,1,3.95-3.95h54.759a3.95,3.95,0,0,1,3.95,3.95h0A3.95,3.95,0,0,1,672.345,1671.511Z" transform="translate(-336.803 -1044.126)" fill="#bed1f9"/><path d="M753.474,1613.86h-51.55a3.95,3.95,0,0,1-3.95-3.95h0a3.95,3.95,0,0,1,3.95-3.95h51.55a3.95,3.95,0,0,1,3.95,3.95h0A3.95,3.95,0,0,1,753.474,1613.86Z" transform="translate(-409.701 -994.295)" fill="#7c9af2"/><rect width="57.032" height="7.903" rx="3.952" transform="translate(283.257 603.759)" fill="#bed1f9"/><path d="M3.95,0H53.18a3.95,3.95,0,0,1,3.95,3.95v0A3.95,3.95,0,0,1,53.18,7.9H3.95A3.95,3.95,0,0,1,0,3.95v0A3.95,3.95,0,0,1,3.95,0Z" transform="translate(283.044 595.88)" fill="#7c9af2"/><path d="M720.9,1442.667h-50a3.95,3.95,0,0,1-3.95-3.95h0a3.95,3.95,0,0,1,3.95-3.95h50a3.95,3.95,0,0,1,3.95,3.95h0A3.95,3.95,0,0,1,720.9,1442.667Z" transform="translate(-382.89 -846.322)" fill="#bed1f9"/><path d="M704.993,1385.156H655a3.95,3.95,0,0,1-3.95-3.95h0a3.95,3.95,0,0,1,3.95-3.95h50a3.95,3.95,0,0,1,3.95,3.95h0A3.95,3.95,0,0,1,704.993,1385.156Z" transform="translate(-369.139 -796.612)" fill="#7c9af2"/><path d="M3.95,0H51.684a3.95,3.95,0,0,1,3.95,3.95v0a3.95,3.95,0,0,1-3.95,3.95H3.95A3.95,3.95,0,0,1,0,3.95v0A3.95,3.95,0,0,1,3.95,0Z" transform="translate(286.597 565.382)" fill="#7c9af2"/><path d="M3.95,0H49.659a3.95,3.95,0,0,1,3.95,3.95v0a3.95,3.95,0,0,1-3.95,3.95H3.95A3.95,3.95,0,0,1,0,3.95v0A3.95,3.95,0,0,1,3.95,0Z" transform="translate(292.841 572.978)" fill="#bed1f9"/><circle cx="23.194" cy="23.194" r="23.194" transform="translate(240.886 605.326) rotate(-45)" fill="#dde8fe"/><path d="M479.61,1420.888a19.463,19.463,0,1,1-27.5,1.112A19.463,19.463,0,0,1,479.61,1420.888Z" transform="translate(-192.728 -829.869)" fill="#92b5f9"/><path d="M1229.209,840.2l2.606-1.319,2.564,1.4a.4.4,0,0,0,.589-.414l-.449-2.886,2.123-2.006a.4.4,0,0,0-.212-.688l-2.883-.464-1.252-2.639a.4.4,0,0,0-.72-.011l-1.333,2.6-2.9.375a.4.4,0,0,0-.233.681l2.06,2.071-.538,2.871A.4.4,0,0,0,1229.209,840.2Z" transform="translate(-866.966 -324.405)" fill="#7c9af2"/><path d="M791.626,462.828l-2.693.273-.918-4.284-3.987-.086-1.212-3.094-1.566.613,1.62,4.138,3.778.081.955,4.457,4.052-.411Z" transform="translate(-481.682)" fill="#fa7167"/><path d="M425.455,795.431c-.037-.106-.94-1.649-2.1-3.325-5.418-7.806-13.453-15.329-22.875-15.047l-.007-.057a20.486,20.486,0,0,1,12.1,2.689c6.045,3.259,11.934,9.468,15.156,14.241Z" transform="translate(-152.549 -277.685)" fill="#7c9af2"/><g transform="translate(237.99 455.662)"><path d="M1040.57,775.952a4.429,4.429,0,0,0,.26-1.849,32.256,32.256,0,0,0-.4-4.218c-.116-.385,5.045-2,5.045-2s8.281-.424,9.514-1.348,2.27-1.3,1.695-.346a22.971,22.971,0,0,1-4.006,4.622c-.539.347-6.972,1.964-7.087,1.964s-.077,4.044-.077,4.044Z" transform="translate(-943.692 -723.608)" fill="#fb9390"/><path d="M900.342,825.556s-5.362-.911-5.46-.375c-2.167,11.863-2.534,15.784-2.773,15.907-.816.42-12.487-9.823-14.415-10.493a8.039,8.039,0,0,0-2.888-.239c-2.294.068-1.521.013-2.73.072l0,0-.1.007.012,2.158c2.585,2.326,8.5,37.551,9,37.528.557-.026,12.253,2.917,12.046,1.932-.034-.16-7.929-6.621-10.168-15.946-.752-3.13-1.123-6.5-1.531-9.451,2.6,1.3,12.748,6.3,14.357,5.638C900.7,850.243,900.342,825.556,900.342,825.556Z" transform="translate(-798.091 -774.935)" fill="#4951ec"/><path d="M1229.607,1265.888s10.882,8.524,11.245,10.035c.523,2.177,10.487-.685,8.084-1.128-.553-.1-2.322-.551-2.468-.628-.778-.416-10.46-12.084-10.46-12.084Z" transform="translate(-1107.214 -1152.723)" fill="#fb9390"/><path d="M1322.771,1352.2l-6.948-.566a9.846,9.846,0,0,1-5.8,1.721,8.9,8.9,0,0,0-.32,3.781c.05.352.109,1.414.463,1.39,1.284-.087,4.7-.938,8.6-1.717a33.573,33.573,0,0,0,8.261-2.918C1330.05,1352.078,1322.771,1352.2,1322.771,1352.2Z" transform="translate(-1176.376 -1230.125)" fill="#0b0754"/><path d="M852.612,1106.22a47.564,47.564,0,0,0,16.782-.723c10.2-2.386,21.474-4.591,24.777-2.671,2.659,1.546,19.266,26.64,19.266,26.64l-6.413,4.68-18.285-20.475s-23.329,8.608-28.568,7.654C848.237,1119.152,848.068,1109.622,852.612,1106.22Z" transform="translate(-778.976 -1014.436)" fill="#e8605d"/><path d="M878.861,1095.172l7.973,9.475-14.79,4.506-1.894-8.918Z" transform="translate(-796.513 -1008.451)" fill="#e8605d"/><path d="M1048.76,1414.254s-.485,13.161-.785,15.39,5.585,8.9,4.833,6.578c-.173-.535-.619-2.305-.62-2.47,0-.882,2.182-15.9,2.182-15.9Z" transform="translate(-950.209 -1284.254)" fill="#fb9390"/><path d="M1019.393,1538.524l-2.8-6.382a9.849,9.849,0,0,1-4.271-4.288,8.9,8.9,0,0,0-3.479,1.515c-.286.211-2.232,1.634-2.1,1.963.5,1.209,3.149,3.8,6.047,6.625a77.932,77.932,0,0,0,7.137,5.115C1022.957,1544.873,1019.393,1538.524,1019.393,1538.524Z" transform="translate(-914.574 -1382.445)" fill="#0b0754"/><path d="M859.669,1099.987c-2.787-3.716-25.275-7.245-25.275-7.245l-6.271-12.052-13.866,8.551s1.386,11.033,2.427,13.982c1.387,3.928,10.7,4.129,16.4,4.07,5.237-.054,14.8,1.014,14.8,1.014l-3.235,28.541s6.359,1.447,8.146,1.213C853,1138.034,863.136,1104.609,859.669,1099.987Z" transform="translate(-748.203 -995.934)" fill="#fa7167"/><path d="M819.424,865.159l-7.824.429s-.179.063-.233.073c-.637.118-.058,22.916.51,31.431s1.721,12.092,1.721,12.092,10.61-1.884,13.866-3.148c1.351-.524,4.622-4.613,4.622-4.613a34.3,34.3,0,0,1-5.024-11.789c-1.3-5.628-2.9-15.6-3.815-17.686A29.716,29.716,0,0,0,819.424,865.159Z" transform="translate(-745.463 -809.637)" fill="#dde8fe"/><path d="M815.093,810.641l-.222,6.907s5.064,8.726,7.664,7.51c2.182-1.02.245-7.658.245-7.658s-.378-1.522-.9-3.27a12.668,12.668,0,0,1-.648-3.516C821.285,808.254,815.093,810.641,815.093,810.641Z" transform="translate(-748.732 -761.59)" fill="#ef7f7f"/><path d="M822.823,701.311s2.581,3.89,2.773,7.164a16.976,16.976,0,0,1-.5,5.508l-8.281-9.9Z" transform="translate(-750.412 -668.013)" fill="#0b0754"/><path d="M872.385,736.722c.117,1.146-.329,2.131-1,2.2s-1.3-.806-1.418-1.953.329-2.131,1-2.2S872.268,735.576,872.385,736.722Z" transform="translate(-796.343 -696.93)" fill="#ef7f7f"/><path d="M796.623,712.428c-.19-.04-.172,9.489,2.591,11.732s7.57,2.44,8.974.181c1.553-2.5.076-12.54-4.032-14.673S796.623,712.428,796.623,712.428Z" transform="translate(-732.9 -674.771)" fill="#fb9390"/><path d="M759.846,676.066a15.3,15.3,0,0,0-4.556,6.486c-1.755,4.042,1.726,8.229,4.645,9.893s3.166,3.707,3.166,3.707l.116-1.271a3.427,3.427,0,0,0-.453-2.147c-.248-.531-1.046-2.351-1.358-2.831-.821-1.267-.983-1.541-.578-2.744.312-.927-.049-2.969.433-4.5l3.929-.847a8.223,8.223,0,0,0,3.7-2.023C772.455,675.679,765.408,671.094,759.846,676.066Z" transform="translate(-696.824 -644.319)" fill="#0b0754"/><path d="M790.049,770.1c.484,1.046.383,2.122-.224,2.4s-1.493-.338-1.977-1.384-.383-2.122.224-2.4S789.565,769.053,790.049,770.1Z" transform="translate(-725.11 -726.216)" fill="#fb9390"/><path d="M339.29,717.965l-.637-4.39,3.255-3.014a.61.61,0,0,0-.311-1.048l-4.372-.75-1.86-4.027a.609.609,0,0,0-1.093-.028l-2.065,3.926-4.4.525a.61.61,0,0,0-.364,1.031l3.1,3.177-.862,4.352a.61.61,0,0,0,.868.665l3.978-1.963,3.872,2.164A.61.61,0,0,0,339.29,717.965Z" transform="translate(-327.263 -670.667)" fill="#7c9af2"/><path d="M607.272,511.184c.446,1.834,1.252,4.734,1.252,4.734-.064.8-.3,4.114-.579,8.179l5.975-2.392s-.072-6.624.195-7.029c.226-.343.6.085,2.436-2.536a5.117,5.117,0,0,0,.628-2.108s.109-1.664-.265-1.819a.776.776,0,0,0-.937.381c-.135.288-.1.957-.236,1.245a2.071,2.071,0,0,1-1.364.616c-.364-.018.045-4.922.045-4.922s.2-1.39.306-1.845c.088-.388.441-1.526.441-1.526s.415-1.65-.1-1.776c-.3-.074-1.072,1.267-1.6,2.689a28.771,28.771,0,0,1-1.053,3.136c-.382-.051-.179-2.74-.179-2.74a8.612,8.612,0,0,0,.371-1.813c.359-.712.6-2.033-.035-2.143a10.943,10.943,0,0,0-.95,1.658s-.328,1.182-.519,1.734c-.337.974-.387,2.512-.563,3.19-.146.564-.278.332-.338.356a14.131,14.131,0,0,1,.128-1.829,10.8,10.8,0,0,1,.136-1.774,12.937,12.937,0,0,0,.256-1.873c.1-1.391-.773-1.248-1.076.023-.115.485-.237,1.013-.357,1.549-.47,2.085-.457,4.093-.682,4.11-.292.022-.1-3.635-.1-3.635s-.448-2.024-.893-.146a16.389,16.389,0,0,0-.455,4.035A15.806,15.806,0,0,0,607.272,511.184Z" transform="translate(-569.103 -493.589)" fill="#fb9390"/><path d="M620.665,665.229s-7.745-.365-9.746-1.27c-1.213-.549-11.179-8.579-11.179-8.579l.112-21.5-7.009-.533s-3.634,23.766-2.375,26.367c1.3,2.686,15.888,13.746,18.805,18.545,1.681,2.765,5.186,40.366,5.716,40.705,3.775,1.964,15.431,3.926,15.156,2.735C622.557,688.766,620.665,665.229,620.665,665.229Z" transform="translate(-554.537 -609.267)" fill="#4951ec"/><circle cx="23.309" cy="23.309" r="23.309" transform="translate(77.45)" fill="#dde8fe"/><circle cx="19.56" cy="19.56" r="19.56" transform="matrix(0.994, -0.109, 0.109, 0.994, 79.181, 6.002)" fill="#92b5f9"/><path d="M1004.637,552.606l1.113-3.07a15.855,15.855,0,0,1-3.619-2.092,1.987,1.987,0,0,1-.417-2.686l.071-.1a1.984,1.984,0,0,1,2.878-.435,11.577,11.577,0,0,0,3.286,1.875c1.842.668,3.36.414,3.829-.879.445-1.228-.308-2.378-2.406-4.053-3.036-2.417-4.809-4.888-3.672-8.022,1.031-2.843,3.843-4.347,7.546-3.772l1.113-3.07,3.167,1.148-1.031,2.844a14.668,14.668,0,0,1,2.794,1.494,1.984,1.984,0,0,1,.5,2.746h0a1.986,1.986,0,0,1-2.816.482,10.563,10.563,0,0,0-2.693-1.432c-2.1-.761-3.107-.1-3.435.8-.387,1.066.5,2.155,2.87,4.185,3.353,2.752,4.26,5.091,3.205,8-1.043,2.876-3.969,4.594-7.919,3.893l-1.2,3.3Z" transform="translate(-909.933 -516.737)" fill="#fff"/><path d="M1065.711,765s2.157-.924,2.734-1.117,2.427-.539,2.427-.539,2.869-2.946,3.6-3.023-1.676,3.216-1.676,3.216l-1,.963s1.618-1.387,1.926-1.579,2.735-3.7,3.351-3.467-1.04,2.7-1.849,4.006-4.506,2.118-4.506,2.118Z" transform="translate(-965.549 -718.261)" fill="#fb9390"/><path d="M1143.833,870.569c0,.578-13.1.737-15.818,12.352l-1.746-.574c3.89-11.807,16.859-11.332,17.495-11.766a.048.048,0,0,0,.012-.012Z" transform="translate(-1017.893 -814.313)" fill="#7c9af2"/></g><g transform="translate(265.487 589.96)"><path d="M538.2,1474.207l-.449-3.235a15.847,15.847,0,0,1-4.177-.161,1.987,1.987,0,0,1-1.623-2.18l.014-.126a1.983,1.983,0,0,1,2.341-1.729,11.572,11.572,0,0,0,3.781.124c1.941-.269,3.165-1.2,2.976-2.565-.18-1.294-1.383-1.96-4.02-2.461-3.813-.72-6.535-2.077-6.993-5.38-.416-3,1.369-5.638,4.912-6.859l-.449-3.234,3.337-.463.416,3a14.661,14.661,0,0,1,3.169.017,1.984,1.984,0,0,1,1.722,2.2h0a1.986,1.986,0,0,1-2.265,1.741,10.557,10.557,0,0,0-3.05-.009c-2.213.307-2.8,1.36-2.663,2.313.156,1.123,1.447,1.673,4.492,2.361,4.25.868,6.144,2.513,6.569,5.577.421,3.03-1.365,5.915-5.185,7.14l.482,3.473Z" transform="translate(-529.987 -1445.939)" fill="#fff"/></g></g></svg>