<svg xmlns="http://www.w3.org/2000/svg" width="153.794" height="219.497" viewBox="0 0 153.794 219.497"><g transform="translate(-76.63)"><path d="M140.8,352.472h-6.028a29.825,29.825,0,0,0-29.737,29.737v31.038a4.347,4.347,0,0,0,4.347,4.347H227.136a4.347,4.347,0,0,0,4.347-4.347V382.21c0-16.355-13.4-29.046-29.737-29.737-.737-.031-4.183,0-4.183,0Z" transform="translate(-16.229 -201.358)" fill="#98d4ad"/><g transform="translate(79.889 29.444)"><path d="M207.688,214.388h7.246a16.622,16.622,0,0,0,16.573-16.573h0a16.622,16.622,0,0,0-16.573-16.573H100.806a16.622,16.622,0,0,0-16.573,16.573h0a16.622,16.622,0,0,0,16.573,16.573H207.688Z" transform="translate(-84.233 -132.986)" fill="#ffd8b7"/><path d="M247.186,339.682a22.492,22.492,0,0,1-44.983,0V322.265h44.983v17.417Z" transform="translate(-151.629 -213.553)" fill="#ffd8b7"/><path d="M238.288,102.043v50.8a44.369,44.369,0,0,1-44.239,44.239H184.034A44.369,44.369,0,0,1,139.8,152.839V81.887A13.205,13.205,0,0,1,153,68.682h0Z" transform="translate(-115.975 -68.682)" fill="#ffd8b7"/></g><path d="M240.384,137.948v45.089a44.369,44.369,0,0,1-44.239,44.239H186.13a43.944,43.944,0,0,1-26.207-8.659,44.25,44.25,0,0,0,35.58,18.032h10.015a44.369,44.369,0,0,0,44.239-44.239v-50.8Z" transform="translate(-47.585 -78.809)" opacity="0.1"/><g transform="translate(118.993 113.465)"><path d="M209.449,272.706s-8.378-12.425-19.694-6.379c-6.672,3.565-10.931,1.516-13.3-.767a.588.588,0,0,0-.953.652C178.855,273.912,188.567,288.851,209.449,272.706Z" transform="translate(-175.446 -264.668)" fill="#b57049"/><path d="M254.762,272.706s8.378-12.425,19.694-6.379c6.672,3.565,10.931,1.516,13.3-.767a.588.588,0,0,1,.953.652C285.356,273.912,275.645,288.851,254.762,272.706Z" transform="translate(-220.759 -264.668)" fill="#b57049"/></g><circle cx="7.986" cy="7.986" r="7.986" transform="translate(143.989 189.994)" fill="#ffde85"/><path d="M155.985,108.1l3.388-14.572s10.174,12.718,30.388,18.929L187.2,102.1a60.306,60.306,0,0,0,37.84,17.314L214.06,95.205,153,68.682A13.205,13.205,0,0,0,139.8,81.887V96.336A32.033,32.033,0,0,0,155.985,108.1Z" transform="translate(-36.086 -39.238)" fill="#b57049"/><path d="M170.6,42.073s40.017,41.352,87.028,36.112a4.36,4.36,0,0,0,3.883-4.658c-.661-8.746-3.822-29.351-18.834-40.136-19.383-13.926-54.951-18.981-72.076,8.683" transform="translate(-53.683 -12.629)" fill="#332e2f"/><path d="M260.464,83.274a4.375,4.375,0,0,1-2.839,1.495c-37.166,4.143-69.955-20.832-82.061-31.476a44.523,44.523,0,0,0-4.967,6.6S210.614,101.242,257.625,96a4.36,4.36,0,0,0,3.883-4.658A78.373,78.373,0,0,0,260.464,83.274Z" transform="translate(-53.683 -30.446)" opacity="0.1"/><path d="M307.131,18.024s5.215-8.557,19.423-9.982a4.345,4.345,0,0,1,4.713,3.639l.255,1.585a4.335,4.335,0,0,1-3.9,5.018,24.459,24.459,0,0,0-11.687,4.068Z" transform="translate(-131.684 -4.582)" fill="#332e2f"/><rect width="6.932" height="33.146" transform="translate(96.777 77.698)" opacity="0.1"/><rect width="6.932" height="33.146" transform="translate(202.2 77.698)" opacity="0.1"/><path d="M205.455,114.105h5.135a19.833,19.833,0,1,0,0-39.667h-5.129V68.569a7.585,7.585,0,0,0,5.614-7.917,81.592,81.592,0,0,0-1.984-12.673,3.26,3.26,0,0,0-6.339,1.523,74.966,74.966,0,0,1,1.822,11.642,1.1,1.1,0,0,1-.993,1.172c-23.292,2.6-44.89-7.323-58.906-16.1A148.408,148.408,0,0,1,121.109,27.87a35.567,35.567,0,0,1,22.824-14.841c9.254-1.844,20.019-.562,29.909,3.265a3.281,3.281,0,0,0,.849.336,61.106,61.106,0,0,1,7.387,3.57,3.242,3.242,0,0,0,1.1.645c1.342.8,2.649,1.658,3.91,2.564a36.554,36.554,0,0,1,11.1,13.4A3.26,3.26,0,1,0,204,33.855a42.978,42.978,0,0,0-13.1-15.741l-.036-.025a21.03,21.03,0,0,1,9.237-1.079,3.261,3.261,0,0,0,3.784-3.728L202.184,2.743A3.261,3.261,0,0,0,198.965,0c-13.993,0-21.508,6.155-24.595,9.56C163.829,5.829,152.5,4.671,142.658,6.634A42.642,42.642,0,0,0,114.251,26.4a16.49,16.49,0,0,0-13.8,16.247V74.439H96.463a19.833,19.833,0,0,0,0,39.667h3.992a47.368,47.368,0,0,0,14.792,33.914,33.043,33.043,0,0,0-29.7,32.832V211.89a7.616,7.616,0,0,0,7.607,7.607H210.908a7.616,7.616,0,0,0,7.607-7.607v-8.135a3.26,3.26,0,0,0-6.521,0v8.135a1.088,1.088,0,0,1-1.087,1.087H191.913v-21.7a3.26,3.26,0,0,0-6.521,0v21.7H118.556v-21.7a3.26,3.26,0,1,0-6.521,0v21.7H93.156a1.088,1.088,0,0,1-1.087-1.087V180.852a26.507,26.507,0,0,1,26.477-26.477h5.063q1.76,1.055,3.615,1.96a25.744,25.744,0,0,0,51.465,0q1.86-.905,3.627-1.967c1.275-.008,2.709-.01,3.065,0,14.924.631,26.614,12.262,26.614,26.48v7.17a3.26,3.26,0,0,0,6.521,0v-7.17c0-16.2-12.067-29.7-28.217-32.491A47.381,47.381,0,0,0,205.455,114.105Zm.006-33.147h5.129a13.313,13.313,0,1,1,0,26.626h-5.129ZM196.2,6.617l.606,3.769a27.964,27.964,0,0,0-12.566,3.563q-1.634-.889-3.32-1.689C183.6,10,188.43,7.171,196.2,6.617ZM100.449,107.585H96.463a13.313,13.313,0,0,1,0-26.626h3.986Zm52.507,67.22a19.259,19.259,0,0,1-18.915-15.783,47.352,47.352,0,0,0,13.908,2.079h10.015a47.335,47.335,0,0,0,13.908-2.079A19.259,19.259,0,0,1,152.955,174.8Zm27.008-26.646a3.254,3.254,0,0,0-.688.43,40.732,40.732,0,0,1-21.313,5.991H147.948a40.733,40.733,0,0,1-21.316-5.993,3.26,3.26,0,0,0-.674-.421,40.983,40.983,0,0,1-18.99-34.565V64.909a30.355,30.355,0,0,0,11.922,7.049,3.261,3.261,0,0,0,2.016-6.2c-9.891-3.215-13.235-10.26-13.938-12.04V42.65a9.955,9.955,0,0,1,9.754-9.94,153.346,153.346,0,0,0,24.342,18.939c12.453,7.82,25.06,13.092,37.358,15.7a3.244,3.244,0,0,0,.227.538l4.434,8.249a57.744,57.744,0,0,1-29.549-15.461,3.261,3.261,0,0,0-5.583,2.969l1.106,4.473c-15.262-6.172-23.142-15.767-23.229-15.875a3.26,3.26,0,0,0-5.087,4.079c.441.551,11.043,13.577,31.976,20.008a3.26,3.26,0,0,0,4.123-3.9l-.143-.578a63.5,63.5,0,0,0,32.027,11.575c.078.006.155.009.233.009a3.261,3.261,0,0,0,2.871-4.8l-5.349-9.951a81.3,81.3,0,0,0,9.507.571c.989,0,1.972-.026,2.954-.063V113.6A40.985,40.985,0,0,1,179.964,148.159Z" fill="#20344c"/><path d="M195.456,203.509a3.26,3.26,0,0,0,3.26-3.26,2.389,2.389,0,1,1,4.779,0,3.26,3.26,0,1,0,6.521,0,8.91,8.91,0,1,0-17.82,0A3.26,3.26,0,0,0,195.456,203.509Z" transform="translate(-66.022 -109.31)" fill="#20344c"/><path d="M284.663,203.509a3.26,3.26,0,0,0,3.26-3.26,2.389,2.389,0,1,1,4.779,0,3.26,3.26,0,0,0,6.521,0,8.91,8.91,0,1,0-17.82,0A3.26,3.26,0,0,0,284.663,203.509Z" transform="translate(-116.986 -109.31)" fill="#20344c"/><path d="M240.879,216.77h7.216a3.26,3.26,0,0,0,0-6.521h-3.279l3.205-16.91a3.261,3.261,0,0,0-6.407-1.214L237.675,212.9a3.26,3.26,0,0,0,3.2,3.867Z" transform="translate(-91.972 -108.244)" fill="#20344c"/><path d="M239.714,251.649a3.26,3.26,0,0,0-4.059,1.785,7.725,7.725,0,0,1-3.969,3.695c-1.972.689-4.392.279-7.194-1.218-8.843-4.724-16.69-.374-21.23,4.185-4.54-4.559-12.387-8.909-21.23-4.185-2.777,1.485-5.18,1.9-7.143,1.236a7.715,7.715,0,0,1-4.019-3.712,3.26,3.26,0,0,0-6.144,2.129c.163.618,4.132,15.187,15.711,19.117a18.1,18.1,0,0,0,5.863.96c5.237,0,10.916-2.153,16.963-6.426,6.047,4.272,11.725,6.426,16.962,6.426a18.122,18.122,0,0,0,5.863-.96c11.579-3.93,15.548-18.5,15.711-19.117A3.26,3.26,0,0,0,239.714,251.649Zm-57.159,16.863a14.31,14.31,0,0,1-6.278-4.543,17.149,17.149,0,0,0,8.828-2.308c5.821-3.111,10.753.3,13.4,2.922C192.358,268.69,187,270.013,182.556,268.512Zm41.415,0c-4.454,1.5-9.812.176-15.964-3.941,2.624-2.628,7.539-6.049,13.413-2.91a17.224,17.224,0,0,0,8.828,2.308A14.3,14.3,0,0,1,223.971,268.512Z" transform="translate(-50.267 -143.662)" fill="#20344c"/><path d="M226.144,446.821a11.246,11.246,0,1,0,11.246-11.246A11.259,11.259,0,0,0,226.144,446.821Zm15.972,0a4.726,4.726,0,1,1-4.726-4.726A4.731,4.731,0,0,1,242.116,446.821Z" transform="translate(-85.417 -248.842)" fill="#20344c"/><path d="M300.808,411.855,289.508,422a3.26,3.26,0,1,0,4.356,4.852l11.3-10.143a3.26,3.26,0,0,0-4.356-4.852Z" transform="translate(-120.998 -234.814)" fill="#20344c"/><path d="M181.335,408.727a3.26,3.26,0,1,0-4.852,4.356l10.143,11.3a3.26,3.26,0,0,0,4.852-4.356Z" transform="translate(-56.569 -232.885)" fill="#20344c"/></g></svg>