<svg xmlns="http://www.w3.org/2000/svg" width="132" height="132" viewBox="0 0 132 132"><path d="M271,30v76.055l3.867,3.867L271,113.789v40.477A62.133,62.133,0,0,0,271,30Z" transform="translate(-201.133 -22.266)" fill="#ffd959"/><path d="M0,62.133a62.133,62.133,0,0,0,62.133,62.133v-23.2l-15.469-21.4,15.469-21.4V0A62.133,62.133,0,0,0,0,62.133Z" fill="#ffeaa6"/><path d="M106,151h23.2v7.734H106Z" transform="translate(-78.672 -112.07)" fill="#62676f"/><path d="M117.8,226v17.005L87.176,255.9A42.665,42.665,0,0,1,75,226Z" transform="translate(-55.664 -167.734)" fill="#ff9d7d"/><path d="M152.849,291.96v25.792a42.68,42.68,0,0,1-30.621-12.893A42.681,42.681,0,0,1,152.849,291.96Z" transform="translate(-90.716 -216.689)" fill="#ff5253"/><path d="M346,182.734v11.6a7.734,7.734,0,0,0,15.469,0v-11.6a7.734,7.734,0,0,0-15.469,0Z" transform="translate(-256.797 -129.883)" fill="#414851"/><path d="M271,325h23.2v7.734H271Z" transform="translate(-201.133 -241.211)" fill="#ffc40f"/></svg>