<?xml version="1.0" encoding="utf-8"?>
<!-- Generator: Adobe Illustrator 25.2.0, SVG Export Plug-In . SVG Version: 6.00 Build 0)  -->
<svg version="1.1" id="Layer_1" xmlns="http://www.w3.org/2000/svg" xmlns:xlink="http://www.w3.org/1999/xlink" x="0px" y="0px"
	 viewBox="0 0 100 100" style="enable-background:new 0 0 100 100;" xml:space="preserve">
<style type="text/css">
	.st0{fill:#4FD7FF;}
	.st1{fill:#8DE5FF;}
	.st2{fill:#2BAACF;}
	.st3{fill:#2FC0EB;}
	.st4{fill:#BDF0FF;}
</style>
<g transform="translate(-113.5)">
	<path class="st0" d="M189.9,92.7v5.9H184l-5.9-11.7L189.9,92.7z"/>
	<path class="st1" d="M160.6,92.7v5.9h-23.4v-5.9l11.7-8.8L160.6,92.7z"/>
	<path class="st1" d="M184,81v17.6h-17.6v-5.9L184,81z"/>
	<path class="st0" d="M143,4.4V19h29.3L160.6,4.4H143z"/>
	<path class="st2" d="M184,4.4V19h-17.6l11.7-14.6H184z"/>
	<path class="st3" d="M160.6,4.4h17.6V19h-17.6V4.4z"/>
	<path class="st1" d="M189.8,30.8c-2,0-4-0.4-6-1l-11.6,31.5L184,92.7h5.9V32.3C189.9,31.8,189.9,31.3,189.8,30.8z"/>
	<path class="st4" d="M183.9,29.7c0.1,0.9-11.6-16.5-11.6-16.5h-5.9l-2.9,8.8l-2.9-8.8h-5.9l-17.5,17.6c0,0.5-0.1,1.1-0.1,1.6v60.3
		h23.4V42.5c0-1.6,1.3-2.9,2.9-2.9c1.6,0,2.9,1.3,2.9,2.9v50.2H184V32.3C184,31.5,184,30.6,183.9,29.7z"/>
	<path class="st0" d="M188.2,23.6L184,13.2h-5.9V22l5.7,7.7c1.9,0.7,3.9,1,6,1C189.7,28.3,189.1,25.9,188.2,23.6z"/>
	<g transform="translate(115.182 14.589)">
		<path class="st1" d="M51.2-1.4v17.6c0,1.6-1.3,2.9-2.9,2.9c-1.6,0-2.9-1.3-2.9-2.9V-1.4H51.2z"/>
		<path class="st1" d="M27.8-1.4h11.7c0,9.7-7.8,17.6-17.5,17.6c0.2-2.4,0.7-4.8,1.6-7.1L27.8-1.4z"/>
		<path class="st1" d="M67.2,9.1c0.8,1.9,1.3,4,1.5,6.1C61.7,12.6,57.1,6,57.1-1.4H63L67.2,9.1z"/>
	</g>
	<path class="st4" d="M148.9,4.4v8.8c0,1.6,1.3,2.9,2.9,2.9c1.6,0,2.9-1.3,2.9-2.9c0,0,0,0,0,0V4.4c0-1.6-1.3-2.9-2.9-2.9
		C150.2,1.5,148.9,2.8,148.9,4.4C148.9,4.4,148.9,4.4,148.9,4.4z"/>
	<path class="st4" d="M172.3,4.4v8.8c0,1.6,1.3,2.9,2.9,2.9c1.6,0,2.9-1.3,2.9-2.9V4.4c0-1.6-1.3-2.9-2.9-2.9
		C173.6,1.5,172.3,2.8,172.3,4.4z"/>
	<path d="M189.6,23.1l-4.1-10.2V4.4c0-0.8-0.7-1.5-1.5-1.5l0,0h-4.6c-0.8-2.3-3.3-3.5-5.6-2.7c-1.3,0.4-2.2,1.4-2.7,2.7h-15.2
		c-0.8-2.3-3.3-3.5-5.6-2.7c-1.3,0.4-2.2,1.4-2.7,2.7H143c-0.8,0-1.5,0.7-1.5,1.5c0,0,0,0,0,0v8.5l-4.1,10.2
		c-1.2,2.9-1.8,6.1-1.8,9.2v66.2c0,0.8,0.7,1.5,1.5,1.5c0,0,0,0,0,0h23.4c0.8,0,1.5-0.7,1.5-1.5c0,0,0,0,0,0v-5.9
		c0-0.8-0.7-1.5-1.5-1.5l0,0h-22V32.3c0-0.1,0-0.1,0-0.2c9.4-0.7,16.8-8.2,17.5-17.5h3v16.1c0,1.9,1.2,3.5,2.9,4.1v3.4
		c-1.8,0.6-2.9,2.3-2.9,4.1v44.3c0,0.8,0.7,1.5,1.5,1.5c0.8,0,1.5-0.7,1.5-1.5V42.5c0-0.8,0.7-1.5,1.5-1.5s1.5,0.7,1.5,1.5v56.1
		c0,0.8,0.7,1.5,1.5,1.5l0,0h23.4c0.8,0,1.5-0.7,1.5-1.5c0,0,0,0,0,0V32.3C191.3,29.2,190.7,26,189.6,23.1L189.6,23.1z M186.8,24.2
		c0.6,1.6,1.1,3.3,1.3,5c-6.6-0.7-12.1-5.3-13.8-11.7c2.1,0.4,4.3-0.8,5-2.8h3.7L186.8,24.2z M162,11.7V5.9h8.8v5.9L162,11.7z
		 M182.5,11.7h-2.9V5.9h2.9V11.7z M173.8,4.4c0-0.8,0.7-1.5,1.5-1.5s1.5,0.7,1.5,1.5v8.8c0,0.8-0.7,1.5-1.5,1.5s-1.5-0.7-1.5-1.5
		V4.4z M150.3,4.4c0-0.8,0.7-1.5,1.5-1.5s1.5,0.7,1.5,1.5v8.8c0,0.8-0.7,1.5-1.5,1.5s-1.5-0.7-1.5-1.5V4.4z M147.4,5.9v5.9h-2.9V5.9
		L147.4,5.9z M159.1,94.1v2.9h-20.5v-2.9H159.1z M138.8,29.2c0.2-1.7,0.7-3.4,1.3-5l3.8-9.5h3.7c0.7,2.1,2.9,3.3,5,2.8
		C150.9,23.9,145.4,28.5,138.8,29.2z M156.2,11.7V5.9h2.9v5.9L156.2,11.7z M165,14.6v16.1c0,0.8-0.7,1.5-1.5,1.5s-1.5-0.7-1.5-1.5
		V14.6H165z M165,38.3v-3.4c1.8-0.6,2.9-2.3,2.9-4.1V14.6h3c0.7,9.4,8.2,16.8,17.5,17.5c0,0.1,0,0.1,0,0.2v58.9h-20.5V42.5
		C167.9,40.6,166.7,39,165,38.3z M167.9,97.1v-2.9h20.5v2.9H167.9z"/>
	<path d="M189.6,23.1l-4.1-10.2V4.4c0-0.8-0.7-1.5-1.5-1.5l0,0h-4.6c-0.8-2.3-3.3-3.5-5.6-2.7c-1.3,0.4-2.2,1.4-2.7,2.7h-15.2
		c-0.8-2.3-3.3-3.5-5.6-2.7c-1.3,0.4-2.2,1.4-2.7,2.7H143c-0.8,0-1.5,0.7-1.5,1.5c0,0,0,0,0,0v8.5l-4.1,10.2
		c-1.2,2.9-1.8,6.1-1.8,9.2v66.2c0,0.8,0.7,1.5,1.5,1.5c0,0,0,0,0,0h23.4c0.8,0,1.5-0.7,1.5-1.5c0,0,0,0,0,0v-5.9
		c0-0.8-0.7-1.5-1.5-1.5l0,0h-22V32.3c0-0.1,0-0.1,0-0.2c9.4-0.7,16.8-8.2,17.5-17.5h3v16.1c0,1.9,1.2,3.5,2.9,4.1v3.4
		c-1.8,0.6-2.9,2.3-2.9,4.1v44.3c0,0.8,0.7,1.5,1.5,1.5c0.8,0,1.5-0.7,1.5-1.5V42.5c0-0.8,0.7-1.5,1.5-1.5s1.5,0.7,1.5,1.5v56.1
		c0,0.8,0.7,1.5,1.5,1.5l0,0h23.4c0.8,0,1.5-0.7,1.5-1.5c0,0,0,0,0,0V32.3C191.3,29.2,190.7,26,189.6,23.1L189.6,23.1z M186.8,24.2
		c0.6,1.6,1.1,3.3,1.3,5c-6.6-0.7-12.1-5.3-13.8-11.7c2.1,0.4,4.3-0.8,5-2.8h3.7L186.8,24.2z M162,11.7V5.9h8.8v5.9L162,11.7z
		 M182.5,11.7h-2.9V5.9h2.9V11.7z M173.8,4.4c0-0.8,0.7-1.5,1.5-1.5s1.5,0.7,1.5,1.5v8.8c0,0.8-0.7,1.5-1.5,1.5s-1.5-0.7-1.5-1.5
		V4.4z M150.3,4.4c0-0.8,0.7-1.5,1.5-1.5s1.5,0.7,1.5,1.5v8.8c0,0.8-0.7,1.5-1.5,1.5s-1.5-0.7-1.5-1.5V4.4z M147.4,5.9v5.9h-2.9V5.9
		L147.4,5.9z M159.1,94.1v2.9h-20.5v-2.9H159.1z M138.8,29.2c0.2-1.7,0.7-3.4,1.3-5l3.8-9.5h3.7c0.7,2.1,2.9,3.3,5,2.8
		C150.9,23.9,145.4,28.5,138.8,29.2z M156.2,11.7V5.9h2.9v5.9L156.2,11.7z M165,14.6v16.1c0,0.8-0.7,1.5-1.5,1.5s-1.5-0.7-1.5-1.5
		V14.6H165z M165,38.3v-3.4c1.8-0.6,2.9-2.3,2.9-4.1V14.6h3c0.7,9.4,8.2,16.8,17.5,17.5c0,0.1,0,0.1,0,0.2v58.9h-20.5V42.5
		C167.9,40.6,166.7,39,165,38.3z M167.9,97.1v-2.9h20.5v2.9H167.9z"/>
</g>
</svg>
