<svg xmlns="http://www.w3.org/2000/svg" width="132.109" height="219.5" viewBox="0 0 132.109 219.5"><g transform="translate(-125 -38.343)"><path d="M235.248,329H152.595C140.635,329,131,339.371,131,351.835v49.749H256.843V351.835C256.843,339.371,247.208,329,235.248,329Z" transform="translate(-2.867 -146.695)" fill="#604af3"/><path d="M293.369,272.97c5.807,3.838,9.42,9.248,9.42,15.248,0,4.914-2.423,9.436-6.491,13.018l-.005-.005a10.447,10.447,0,0,1-5.953-9.436V274.719Q291.9,273.913,293.369,272.97Z" transform="translate(-82.267 -116.918)" fill="#604af3"/><path d="M210.269,274.6v17.075a10.428,10.428,0,0,1-5.963,9.436c-4.063-3.582-6.486-8.1-6.486-13.013,0-5.817,3.4-11.086,8.9-14.9l.313-.48C208.076,273.394,209.157,274.025,210.269,274.6Z" transform="translate(-36.233 -116.797)" fill="#604af3"/><path d="M258.02,302.831a10.447,10.447,0,0,1-5.953-9.436V276.32H216.2V293.4a10.427,10.427,0,0,1-5.963,9.436c5.561,4.9,14.2,8.052,23.9,8.052s18.329-3.149,23.89-8.047Z" transform="translate(-43.08 -118.747)" fill="#e2bbb5"/><path d="M271.207,86.392H232.952a7.7,7.7,0,0,1-7.7-7.7V60.956A16.614,16.614,0,0,1,241.863,44.34H258.6a27.013,27.013,0,0,1,27.013,27.013v35.686h-3.128a5.677,5.677,0,0,1-1.979-.371,11.239,11.239,0,0,1-3.734-2.5,18.322,18.322,0,0,1-5.561-13.295Z" transform="translate(-51.121 -2.865)" fill="#313960"/><path d="M250.38,135.6a18.322,18.322,0,0,1-5.561-13.295v-4.486H206.563a7.7,7.7,0,0,1-7.7-7.7h-.235v.835a32.88,32.88,0,0,1-28.6,32.6l.067.5a6.62,6.62,0,0,1,5.613,1.88h.162V162.2a39,39,0,0,0,16.6,31.958c.423.3.851.585,1.285.867,1.044.674,2.125,1.305,3.238,1.88a39.136,39.136,0,0,0,35.864,0q1.559-.807,3.029-1.749c.507-.319,1-.653,1.493-1a39.5,39.5,0,0,0,5.164-4.345A38.932,38.932,0,0,0,253.972,162.2V138.469l.141-.371a11.239,11.239,0,0,1-3.734-2.5Z" transform="translate(-23.609 -36.447)" fill="#f5cac1"/><path d="M170.494,176.93v12.094h-.162a7.676,7.676,0,0,1-8.256-12.929,6.191,6.191,0,0,1,2.642-1.044,6.62,6.62,0,0,1,5.613,1.88Z" transform="translate(-16.142 -67.917)" fill="#edd4d1"/><path d="M342.356,181.336a7.676,7.676,0,0,1-11.488,7.692h-.078V176.933h.078a6.494,6.494,0,0,1,8.256-.835,7.635,7.635,0,0,1,3.232,5.238Z" transform="translate(-103.033 -67.92)" fill="#edd4d1"/><path d="M195.239,85.737v.835c0,16.71-12.987,30.506-29.127,32.6a32.971,32.971,0,0,1-4.271.277V84.479A25.39,25.39,0,0,1,187.227,59.09h8.534Z" transform="translate(-17.603 -9.913)" fill="#232a44"/><path d="M169.067,329H153.4c-12.407,0-22.4,10.371-22.4,22.835v49.749h15.666V351.835C146.666,339.371,156.66,329,169.067,329Z" transform="translate(-2.867 -146.695)" fill="#4744b7"/><path d="M212.651,216.334c-1.112-.574-2.193-1.206-3.238-1.88-.433-.282-.862-.569-1.285-.867a39,39,0,0,1-16.6-31.958V150.777l-4.043,4.264a32.746,32.746,0,0,1-17.466,7.941l.068.5a6.62,6.62,0,0,1,5.613,1.88h.162v16.266a39,39,0,0,0,16.6,31.958c.423.3.851.585,1.285.867,1.044.674,2.125,1.305,3.238,1.88a39.164,39.164,0,0,0,25.765,3.56,38.807,38.807,0,0,1-10.1-3.56Zm-26.9-52.85-.068-.5c.157-.02.309-.047.464-.069C186.017,163.263,185.884,163.464,185.753,163.483Z" transform="translate(-22.826 -56.637)" fill="#cea9a3"/><path d="M173.859,301.331c-.025-.5-.039-.992-.039-1.493,0-12.35,7.655-22.95,19.338-28.778.4.3.8.585,1.214.867l-.3.48c-5.2,3.812-8.41,9.081-8.41,14.9,0,4.909,2.29,9.431,6.13,13.013,5.257,4.9,13.42,8.052,22.586,8.052s17.324-3.149,22.581-8.047c3.845-3.582,6.135-8.1,6.135-13.018,0-6-3.416-11.41-8.9-15.248.479-.319.948-.653,1.412-1,11.683,5.833,19.338,16.428,19.338,28.778,0,.5-.015,1-.039,1.493-.913,18.115-18.385,32.1-40.522,32.1s-39.609-13.989-40.522-32.1Z" transform="translate(-23.327 -116.953)" fill="#a0eaea"/><g transform="translate(125 38.343)"><path d="M146.622,182.129A25.1,25.1,0,0,0,125,206.95v47.867a3.025,3.025,0,0,0,3.025,3.025H254.084a3.025,3.025,0,0,0,3.025-3.025V206.95a25.1,25.1,0,0,0-21.621-24.821c-.478-10.911-6.776-20.626-17.293-26.957a40.641,40.641,0,0,0,13.6-30.347v-.012c.263.02.526.033.791.033a10.437,10.437,0,0,0,5.952-19.022,9.038,9.038,0,0,0-3.076-1.361,3.021,3.021,0,0,0,1.4-2.548V67.447a29.137,29.137,0,0,0-29.1-29.1H191.59a19.049,19.049,0,0,0-15.236,7.617,3.012,3.012,0,0,0-1.034-.184h-7.227A27.575,27.575,0,0,0,140.55,73.319v33.767a3.017,3.017,0,0,0,.324,1.357,10.424,10.424,0,0,0,4.644,15.64,10.562,10.562,0,0,0,3.929.763c.29,0,.58-.017.869-.041v.02a40.641,40.641,0,0,0,13.6,30.35c-10.505,6.34-16.814,16.089-17.3,26.954Zm85.171-71.456a3.206,3.206,0,0,1,3.3.127,4.387,4.387,0,0,1-.831,7.664,4.446,4.446,0,0,1-2.471.252Zm19.266,96.278v44.842H231.9V234.648a3.025,3.025,0,1,0-6.051,0v17.144H156.262V234.648a3.025,3.025,0,1,0-6.051,0v17.144H131.051V206.95a19.039,19.039,0,0,1,15.926-18.757c2.813,17.578,21.156,30.748,44.078,30.748s41.264-13.171,44.078-30.748a19.039,19.039,0,0,1,15.926,18.758ZM191.59,44.394h16.162a23.08,23.08,0,0,1,23.054,23.053V98.886a5.825,5.825,0,0,1-3.421-1.932A14.724,14.724,0,0,1,222.952,86.3V80.258a12.328,12.328,0,0,0-12.314-12.314h-5.95a3.025,3.025,0,0,0,0,6.051h5.95a6.274,6.274,0,0,1,6.125,4.954H182.987a4.42,4.42,0,0,1-4.415-4.415V57.411A13.032,13.032,0,0,1,191.59,44.394ZM146.6,73.319a21.517,21.517,0,0,1,21.492-21.492h4.2V75.341A28.761,28.761,0,0,1,146.6,103.9Zm3.716,45.381a4.437,4.437,0,0,1-2.549-.233,4.387,4.387,0,0,1-.831-7.664,3.214,3.214,0,0,1,3.381-.081Zm6.051,6.126V107.662A34.9,34.9,0,0,0,177.4,83.368,10.392,10.392,0,0,0,182.987,85H216.9v1.3a20.8,20.8,0,0,0,6.309,15.033,16.181,16.181,0,0,0,2.532,1.99v21.5a34.687,34.687,0,1,1-69.374,0Zm61,46.545a13.1,13.1,0,0,1-3.6,8.731,7.1,7.1,0,0,1-2.37-5.273V160.459c3.868,3.1,5.974,6.91,5.974,10.911Zm-8.3,12.606a36.792,36.792,0,0,1-36.028,0,13.085,13.085,0,0,0,3.724-9.148V162.971a40.672,40.672,0,0,0,28.576,0v11.858a13.17,13.17,0,0,0,3.728,9.145Zm-38.355-23.51v14.365a7.044,7.044,0,0,1-2.37,5.274,13.091,13.091,0,0,1-3.6-8.732c0-3.982,2.112-7.807,5.974-10.911Zm-2.13,27.777c6.042,4.19,14.022,6.5,22.469,6.5s16.426-2.307,22.469-6.5c6.38-4.424,9.894-10.415,9.894-16.87a17.3,17.3,0,0,0-.675-4.753,25.014,25.014,0,0,1,6.725,16.855c0,16.5-16.873,29.418-38.414,29.418s-38.414-12.922-38.414-29.418a25.036,25.036,0,0,1,6.69-16.8,17.584,17.584,0,0,0-.639,4.7c0,6.451,3.514,12.442,9.895,16.866Z" transform="translate(-125 -38.343)" fill="#20344c"/><path d="M274.633,172.418a3.133,3.133,0,0,0,3.133-3.133,3.6,3.6,0,1,1,7.206,0,3.133,3.133,0,0,0,6.266,0,9.869,9.869,0,0,0-19.739,0A3.133,3.133,0,0,0,274.633,172.418Z" transform="translate(-198.073 -98.499)" fill="#20344c"/><path d="M208.958,169.285a3.6,3.6,0,1,1,7.206,0,3.133,3.133,0,1,0,6.266,0,9.869,9.869,0,1,0-19.739,0,3.133,3.133,0,0,0,6.266,0Z" transform="translate(-163.752 -98.499)" fill="#20344c"/><path d="M229.408,221.568a3.133,3.133,0,0,0,0,4.431,19.017,19.017,0,0,0,26.893,0,3.133,3.133,0,1,0-4.431-4.431,12.752,12.752,0,0,1-18.033,0A3.133,3.133,0,0,0,229.408,221.568Z" transform="translate(-176.801 -128.89)" fill="#20344c"/><path d="M180.442,103.441a3.133,3.133,0,0,0-3.133,3.133V126.5a3.133,3.133,0,0,0,6.266,0V106.574a3.133,3.133,0,0,0-3.133-3.133Z" transform="translate(-150.978 -69.448)" fill="#20344c"/></g></g></svg>