<svg xmlns="http://www.w3.org/2000/svg" width="240" height="100" viewBox="0 0 240 100"><g transform="translate(-898 -2533)"><rect width="240" height="100" transform="translate(898 2533)" fill="#fff"/><g transform="translate(988.999 2533)"><path d="M60.781,462a3.9,3.9,0,0,1,3.906,3.906v3.906H10v-3.906A3.9,3.9,0,0,1,13.906,462Zm0,0" transform="translate(-8.047 -371.766)" fill="#424d63"/><path d="M64.687,10v3.906a3.9,3.9,0,0,1-3.906,3.906H13.906A3.9,3.9,0,0,1,10,13.906V10Zm0,0" transform="translate(-8.047 -8.047)" fill="#424d63"/><path d="M50.242,80.189a11.937,11.937,0,0,1,3.2,3.014,12.243,12.243,0,0,1,3.274-3.059C64.1,75.693,69.063,68.63,69.063,62.577V58.984a29.484,29.484,0,0,1-31.25,0v3.593C37.813,68.63,42.778,75.693,50.242,80.189ZM76.875,117.9v12.566H30V117.9A28.435,28.435,0,0,1,43.772,93.614a4,4,0,0,0,0-6.761A28.435,28.435,0,0,1,30,62.565V50H76.875V62.565A28.435,28.435,0,0,1,63.1,86.853a4,4,0,0,0,0,6.761A28.435,28.435,0,0,1,76.875,117.9Zm-7.812,4.754V121.8c0-6.053-4.965-5.3-12.43-9.8a11.681,11.681,0,0,1-3.2-2.924,11.921,11.921,0,0,1-3.268,2.969c-7.386,4.451-12.351,3.7-12.351,9.754v.859ZM55.391,101.366a1.953,1.953,0,1,0-1.953,1.953A1.954,1.954,0,0,0,55.391,101.366Zm0,0" transform="translate(-24.14 -40.234)" fill="#cae9fc"/><path d="M101.25,365.184v.859H70v-.859c0-6.053,4.965-5.3,12.351-9.754a11.922,11.922,0,0,0,3.268-2.969,11.683,11.683,0,0,0,3.2,2.924c7.465,4.5,12.43,3.746,12.43,9.8Zm0,0" transform="translate(-56.328 -283.622)" fill="#ffe781"/><path d="M101.25,96v3.593c0,6.053-4.965,13.116-12.351,17.567a12.242,12.242,0,0,0-3.274,3.059,11.937,11.937,0,0,0-3.2-3.014C74.965,112.709,70,105.647,70,99.593V96a29.484,29.484,0,0,0,31.25,0Zm0,0" transform="translate(-56.328 -77.25)" fill="#ffe781"/><path d="M141.953,303A1.953,1.953,0,1,1,140,304.953,1.954,1.954,0,0,1,141.953,303Zm0,0" transform="translate(-112.656 -243.821)"/><path d="M39.978,48.288a30.742,30.742,0,0,0,10.85-11.208,30.239,30.239,0,0,0,3.86-14.748V11.383a5.869,5.869,0,0,0,3.906-5.524V1.953A1.953,1.953,0,0,0,56.641,0H1.954A1.953,1.953,0,0,0,0,1.953V5.859a5.869,5.869,0,0,0,3.906,5.524V22.332a30.239,30.239,0,0,0,3.86,14.748A30.746,30.746,0,0,0,18.618,48.288a2.045,2.045,0,0,1,0,3.423A30.736,30.736,0,0,0,7.767,62.92a30.239,30.239,0,0,0-3.86,14.748V88.616A5.869,5.869,0,0,0,0,94.14v3.906A1.953,1.953,0,0,0,1.954,100H56.641a1.953,1.953,0,0,0,1.953-1.953V94.14a5.869,5.869,0,0,0-3.906-5.524V77.668a30.237,30.237,0,0,0-3.86-14.748A30.734,30.734,0,0,0,39.977,51.711a2.045,2.045,0,0,1,0-3.423ZM3.907,3.906H54.688V5.859a1.955,1.955,0,0,1-1.953,1.953H5.86A1.955,1.955,0,0,1,3.907,5.859ZM54.688,96.093H3.907V94.14A1.955,1.955,0,0,1,5.86,92.187H52.735a1.955,1.955,0,0,1,1.953,1.953ZM37.949,55.049A26.326,26.326,0,0,1,50.782,77.668V88.281H7.813V77.668A26.327,26.327,0,0,1,20.645,55.049a5.949,5.949,0,0,0,0-10.1A26.326,26.326,0,0,1,7.813,22.331V11.718H50.782V22.331A26.325,26.325,0,0,1,37.95,44.949a5.95,5.95,0,0,0,0,10.1Zm0,0" transform="translate(0)"/><path d="M79.135,343.242a1.954,1.954,0,0,0-1.56-.781h0a1.953,1.953,0,0,0-1.56.778,9.956,9.956,0,0,1-2.725,2.477,44.266,44.266,0,0,1-6,2.934C63.378,350.3,60,351.722,60,357.137V358a1.953,1.953,0,0,0,1.953,1.953H93.2A1.953,1.953,0,0,0,95.157,358v-.859c0-5.411-3.385-6.842-7.3-8.5a45.156,45.156,0,0,1-6.06-2.967,9.725,9.725,0,0,1-2.657-2.429Zm12.038,12.8H63.983c.3-1.805,1.528-2.4,4.823-3.795a48.2,48.2,0,0,0,6.507-3.192l.019-.012a14.092,14.092,0,0,0,2.238-1.713A13.728,13.728,0,0,0,79.744,349l.021.012a48.924,48.924,0,0,0,6.565,3.226c3.309,1.4,4.544,2,4.842,3.807Zm0,0" transform="translate(-48.281 -275.575)"/><path d="M95.156,91.545V87.952A1.953,1.953,0,0,0,92.168,86.3a27.529,27.529,0,0,1-29.179,0A1.953,1.953,0,0,0,60,87.952v3.593a18.592,18.592,0,0,0,3.772,10.515,31.868,31.868,0,0,0,9.592,8.762,9.662,9.662,0,0,1,2.261,2.028v9.672a1.953,1.953,0,0,0,3.906,0v-9.668a9.959,9.959,0,0,1,2.338-2.075c7.948-4.793,13.287-12.521,13.287-19.234ZM79.843,107.439l-.019.012a13.206,13.206,0,0,0-2.239,1.762,12.607,12.607,0,0,0-2.173-1.717l-.021-.013c-6.869-4.137-11.485-10.542-11.485-15.939v-.288a31.449,31.449,0,0,0,27.344,0v.288c0,5.312-4.691,11.847-11.407,15.894Zm0,0" transform="translate(-48.281 -69.202)"/></g></g></svg>