<svg xmlns="http://www.w3.org/2000/svg" width="79" height="79" viewBox="0 0 79 79"><g transform="translate(0 0.122)"><g transform="translate(0 -0.122)" fill="#fff" stroke="#7986cb" stroke-width="5"><circle cx="39.5" cy="39.5" r="39.5" stroke="none"/><circle cx="39.5" cy="39.5" r="37" fill="none"/></g><g transform="translate(16.518 20.008)"><circle cx="0.968" cy="0.968" r="0.968" transform="translate(46.059 28.323)" fill="#7986cb"/><path d="M47.719,38.775a.944.944,0,0,0-.663-.275H.937A.938.938,0,0,0,0,39.437v38.9a.938.938,0,0,0,.937.937H47.057a.938.938,0,0,0,.937-.937v-6.28a.937.937,0,0,0-1.875,0h0V77.4H1.875V40.375H46.119V63.622a.937.937,0,1,0,1.875,0V39.437A.944.944,0,0,0,47.719,38.775Z" transform="translate(0 -38.5)" fill="#7986cb"/><path d="M47.987,125.54a.937.937,0,0,0-1.1-.735l-6.931,1.387a.937.937,0,0,0-.735,1.1l1.664,8.318a.937.937,0,0,0,1.1.735l6.931-1.387a.937.937,0,0,0,.735-1.1Zm-5.451,8.785-1.3-6.479,5.093-1.019,1.3,6.479Z" transform="translate(-35.524 -116.698)" fill="#7986cb"/><path d="M293.82,125.078a.937.937,0,0,0-.416.585l-1.481,6.448a.937.937,0,0,0,.7,1.123l6.448,1.481a.936.936,0,0,0,1.123-.7l1.481-6.448a.937.937,0,0,0-.7-1.123l-6.448-1.481a.938.938,0,0,0-.707.119Zm5.822,2.979-1.061,4.621-4.621-1.061L295.021,127Z" transform="translate(-264.537 -116.833)" fill="#7986cb"/><path d="M188.631,225l6.448,1.481a.936.936,0,0,0,1.123-.7l1.481-6.448a.937.937,0,0,0-.7-1.123l-6.448-1.481a.938.938,0,0,0-1.123.7l-1.481,6.448a.937.937,0,0,0,.7,1.123Zm2.395-6.238,4.621,1.061-1.061,4.621-4.621-1.061Z" transform="translate(-170.289 -199.996)" fill="#7986cb"/><path d="M83.148,334.693a.937.937,0,0,0,1.174.616l6.316-1.97a.937.937,0,0,0,.616-1.174l-1.97-6.316a.937.937,0,0,0-1.174-.616l-6.316,1.97a.937.937,0,0,0-.616,1.174Zm4.625-7.391,1.412,4.526-4.526,1.412-1.412-4.526Z" transform="translate(-73.53 -298.316)" fill="#7986cb"/><path d="M340.109,329.231l-6.316,1.97a.937.937,0,0,0-.616,1.174l1.97,6.316a.936.936,0,0,0,1.174.616l6.316-1.97a.937.937,0,0,0,.616-1.174l-1.97-6.316A.937.937,0,0,0,340.109,329.231Zm-3.451,8.007-1.412-4.526,4.526-1.412,1.412,4.526Z" transform="translate(-301.908 -301.939)" fill="#7986cb"/><path d="M174.728,78.5H160.6a.937.937,0,0,0,0,1.875h14.123a.937.937,0,1,0,0-1.875Z" transform="translate(-144.7 -74.75)" fill="#7986cb"/><path d="M168.732,134.162a.937.937,0,0,0,1.286.321l2.411-1.447a.937.937,0,0,0,.321-1.286l-1.447-2.411a.937.937,0,1,0-1.608.965l.264.439a17.885,17.885,0,0,0-7.311.6.937.937,0,1,0,.569,1.786,16.289,16.289,0,0,1,6.334-.555l-.5.3A.938.938,0,0,0,168.732,134.162Z" transform="translate(-146.811 -120.411)" fill="#7986cb"/><path d="M215.233,371.692a.937.937,0,0,0,1.286-.321l1.447-2.411a.937.937,0,0,0-.321-1.286l-2.411-1.447a.937.937,0,0,0-.965,1.608l.5.3a16.408,16.408,0,0,1-6.333-.554.937.937,0,0,0-.569,1.786,18.75,18.75,0,0,0,5.178.761,13.834,13.834,0,0,0,2.133-.159l-.264.439A.937.937,0,0,0,215.233,371.692Z" transform="translate(-187.788 -335.385)" fill="#7986cb"/><path d="M324.621,179.68l-.468-.142a.937.937,0,1,0-.546,1.793l.468.142a2.751,2.751,0,0,1,1.854,3.244,3.493,3.493,0,0,1-2.945,2.525l-5.563.583.333-.411a.937.937,0,1,0-1.457-1.18l-1.771,2.185a.937.937,0,0,0,.138,1.318l2.185,1.771a.937.937,0,0,0,1.18-1.456l-.442-.359,5.592-.586a5.412,5.412,0,0,0,4.562-3.911A4.662,4.662,0,0,0,324.621,179.68Z" transform="translate(-284.854 -166.28)" fill="#7986cb"/><path d="M90.146,251.966a4.314,4.314,0,0,0-2.8,1.022,3.928,3.928,0,0,0-1.2,1.8l-.18-.308a.937.937,0,1,0-1.62.944l1.416,2.43a.937.937,0,0,0,1.282.338l2.43-1.416a.937.937,0,0,0-.944-1.62l-.641.373a2.048,2.048,0,0,1,.684-1.12,2.438,2.438,0,0,1,1.582-.568l1.641-.014a.937.937,0,0,0-.006-1.875h-.006Z" transform="translate(-76.325 -231.943)" fill="#7986cb"/></g></g></svg>