<svg xmlns="http://www.w3.org/2000/svg" width="79" height="79" viewBox="0 0 79 79"><g transform="translate(0)" fill="#fff" stroke="#7986cb" stroke-width="5"><circle cx="39.5" cy="39.5" r="39.5" stroke="none"/><circle cx="39.5" cy="39.5" r="37" fill="none"/></g><g transform="translate(18.988 19.055)"><g transform="translate(0 0)"><path d="M38.874.006H13.233a.827.827,0,0,0,0,1.654H35.916A3.452,3.452,0,0,0,35.4,3.48v35.4a1.82,1.82,0,0,1-3.639,0V36.232a3.478,3.478,0,0,0-3.474-3.474H11.414V17.9a.827.827,0,1,0-1.654,0v14.86H3.474A3.478,3.478,0,0,0,0,36.232v5.293a.827.827,0,0,0,.827.827H33.58a3.478,3.478,0,0,0,3.474-3.474V11.751h4.466a.827.827,0,0,0,.827-.827V3.48A3.478,3.478,0,0,0,38.874.006ZM24.813,36.232V40.7H1.654V38.962H8.741a.827.827,0,0,0,0-1.654H1.654V36.232a1.822,1.822,0,0,1,1.82-1.82H25.329A3.451,3.451,0,0,0,24.813,36.232ZM26.467,40.7V36.232a1.82,1.82,0,0,1,3.639,0v2.646a3.452,3.452,0,0,0,.516,1.82ZM40.693,10.1H37.054V3.48a1.82,1.82,0,1,1,3.639,0V10.1Z" transform="translate(0 -0.006)" fill="#7986cb"/></g><g transform="translate(14.805 4.466)"><path d="M195.377,54H179.828a.827.827,0,0,0-.827.827v5.955a.827.827,0,0,0,.827.827h15.549a.827.827,0,0,0,.827-.827V54.832A.827.827,0,0,0,195.377,54Zm-.827,5.955h-13.9v-4.3h13.9Z" transform="translate(-179.001 -54.005)" fill="#7986cb"/></g><g transform="translate(14.849 14.044)"><path d="M195.868,169.8h-15.5a.827.827,0,1,0,0,1.654h15.5a.827.827,0,1,0,0-1.654Z" transform="translate(-179.536 -169.798)" fill="#7986cb"/></g><g transform="translate(30.354 21.67)"><path d="M368.4,262.241a.827.827,0,1,0,.242.585A.832.832,0,0,0,368.4,262.241Z" transform="translate(-366.993 -261.999)" fill="#7986cb"/></g><g transform="translate(14.85 21.67)"><path d="M191.819,262H180.364a.827.827,0,1,0,0,1.654h11.455a.827.827,0,1,0,0-1.654Z" transform="translate(-179.537 -261.999)" fill="#7986cb"/></g><g transform="translate(14.849 17.856)"><path d="M195.868,215.9h-15.5a.827.827,0,1,0,0,1.654h15.5a.827.827,0,1,0,0-1.654Z" transform="translate(-179.536 -215.896)" fill="#7986cb"/></g><g transform="translate(14.849 29.296)"><path d="M185.861,354.2h-5.5a.827.827,0,1,0,0,1.654h5.5a.827.827,0,1,0,0-1.654Z" transform="translate(-179.536 -354.201)" fill="#7986cb"/></g><g transform="translate(14.849 25.482)"><path d="M185.861,308.1h-5.5a.827.827,0,1,0,0,1.654h5.5a.827.827,0,1,0,0-1.654Z" transform="translate(-179.536 -308.097)" fill="#7986cb"/></g><g transform="translate(24.813 29.296)"><path d="M306.323,354.2h-5.5a.827.827,0,1,0,0,1.654h5.5a.827.827,0,1,0,0-1.654Z" transform="translate(-299.998 -354.201)" fill="#7986cb"/></g><g transform="translate(24.813 25.482)"><path d="M306.323,308.1h-5.5a.827.827,0,1,0,0,1.654h5.5a.827.827,0,1,0,0-1.654Z" transform="translate(-299.998 -308.097)" fill="#7986cb"/></g><g transform="translate(0.001 4.466)"><path d="M6.133,54a6.119,6.119,0,0,0-2.3,11.79V77.005a.827.827,0,0,0,.347.674L5.921,78.92a.827.827,0,0,0,1.2-.26l1.4-2.423a.827.827,0,0,0,.111-.414V65.7A6.119,6.119,0,0,0,6.133,54Zm0,3.207a.73.73,0,1,1-.73.73A.731.731,0,0,1,6.133,57.2Zm.841,12.1a.826.826,0,0,0,0,1.638V72.2a.826.826,0,0,0,0,1.638V75.6L6.14,77.045l-.654-.466V66.2a6.038,6.038,0,0,0,1.489-.025v3.128Zm-.841-4.723a4.466,4.466,0,0,1-.979-8.823,2.384,2.384,0,1,0,1.958,0,4.466,4.466,0,0,1-.979,8.823Z" transform="translate(-0.013 -53.997)" fill="#7986cb"/></g><g transform="translate(5.294 0)"><path d="M64.839.006a.827.827,0,0,0-.827.827v2a.827.827,0,1,0,1.654,0v-2A.827.827,0,0,0,64.839.006Z" transform="translate(-64.012 -0.006)" fill="#7986cb"/></g><g transform="translate(1.039 1.282)"><path d="M15.419,17.195l-1.446-1.446a.827.827,0,1,0-1.17,1.17l1.447,1.446a.827.827,0,0,0,1.17-1.17Z" transform="translate(-12.56 -15.506)" fill="#7986cb"/></g><g transform="translate(8.103 1.283)"><path d="M100.83,15.758a.827.827,0,0,0-1.17,0L98.213,17.2a.827.827,0,0,0,1.17,1.17l1.447-1.447A.827.827,0,0,0,100.83,15.758Z" transform="translate(-97.971 -15.516)" fill="#7986cb"/></g><g transform="translate(11.111 37.301)"><path d="M135.751,451.236a.826.826,0,1,0,.242.585A.832.832,0,0,0,135.751,451.236Z" transform="translate(-134.339 -450.994)" fill="#7986cb"/></g></g></svg>