<svg xmlns="http://www.w3.org/2000/svg" width="166" height="193.5" viewBox="0 0 166 193.5">
  <g id="Group_32932" data-name="Group 32932" transform="translate(1170 -2232)">
    <g id="Group_31769" data-name="Group 31769" transform="translate(-1003.649 2232.181) rotate(90)">
      <g id="Ellipse_542" data-name="Ellipse 542" transform="translate(-0.181 0.351)" fill="#fff" stroke="#7986cb" stroke-width="5">
        <ellipse cx="84" cy="83" rx="84" ry="83" stroke="none"/>
        <ellipse cx="84" cy="83" rx="81.5" ry="80.5" fill="none"/>
      </g>
    </g>
    <g id="Group_31808" data-name="Group 31808" transform="translate(-1364.19 2133.81)">
      <path id="Path_59902" data-name="Path 59902" d="M226.578,224.221h.008a275.088,275.088,0,0,1,21.485-29.262l.987-1.341c-.012-.169-.02-.34-.022-.507-.026-9.017,1.1-17.992,2.235-26.936,1.37-10.765,2.974-22.059,9.485-30.74h6.018c.012-.033.022-.065.035-.1l-.024.1h1.734l-.053-.122.055.122h17.07c.01-.029.014-.057.024-.085l-.02.085h1.773l-.088-.173H262.07a2.547,2.547,0,0,1-2.548-2.548v-2.86a2.547,2.547,0,0,1,2.548-2.548H292.78a2.547,2.547,0,0,1,2.548,2.548v2.86a2.547,2.547,0,0,1-2.548,2.548h-5.5c.039.057.071.116.11.173h5.927c6.511,8.681,8.115,19.975,9.485,30.74,1.14,8.943,2.261,17.919,2.235,26.936,0,.157-.01.316-.02.472a301.417,301.417,0,0,1,22.489,30.638h.008l-.006,0c-8.351,7.3-17.978,13.714-28.405,17.457a58.186,58.186,0,0,1-14.03,3.228,102.15,102.15,0,0,1-16.057,0c-.134-.014-.267-.041-.4-.057l0,.01,0-.01c-15.66-1.895-30.15-10.236-42.034-20.628Z" transform="translate(0.402 0.465)" fill="#ebe1ff"/>
      <g id="Group_31807" data-name="Group 31807" transform="translate(226.19 126.857)">
        <g id="Group_31791" data-name="Group 31791" transform="translate(32.967)">
          <path id="Path_59903" data-name="Path 59903" d="M245.7,136.49h26.75c1.6,0,3.94.391,5.432-.358,1.787-.9,1.838-2.638,1.838-4.382,0-1.811-.1-3.668-2.037-4.48-1.492-.623-3.674-.263-5.233-.263H250.7c-1.838,0-4.51-.474-6.275.263-2.208.924-2.037,3.175-2.037,5.168,0,2.18.977,3.843,3.311,4.052.979.088.973-1.439,0-1.527-2.084-.187-1.984-3.027-1.785-4.616.179-1.447,1.221-1.775,2.416-1.814,2.078-.067,4.166,0,6.244,0h18.967a43.9,43.9,0,0,1,4.8,0c2.094.234,1.852,2.168,1.852,3.737,0,1.443-.44,2.556-2.045,2.693-1.785.153-3.649,0-5.436,0H245.7A.764.764,0,0,0,245.7,136.49Z" transform="translate(-242.387 -126.857)" fill="#7986cb"/>
        </g>
        <g id="Group_31796" data-name="Group 31796" transform="translate(38.401 8.088)">
          <g id="Group_31792" data-name="Group 31792" transform="translate(22.312)">
            <path id="Path_59904" data-name="Path 59904" d="M261.486,139.027a36.751,36.751,0,0,0-4.04-7.822.783.783,0,0,0-1.044-.273.771.771,0,0,0-.275,1.044,35.061,35.061,0,0,1,3.888,7.455.784.784,0,0,0,.938.533.768.768,0,0,0,.533-.938Z" transform="translate(-256.019 -130.831)" fill="#7986cb"/>
          </g>
          <g id="Group_31793" data-name="Group 31793" transform="translate(18.973 0.137)">
            <path id="Path_59905" data-name="Path 59905" d="M256.1,131.427a41.794,41.794,0,0,0-1.706,7.423.792.792,0,0,0,.533.938.771.771,0,0,0,.94-.533,41.549,41.549,0,0,1,1.706-7.421c.305-.936-1.168-1.337-1.474-.407Z" transform="translate(-254.379 -130.898)" fill="#7986cb"/>
          </g>
          <g id="Group_31794" data-name="Group 31794" transform="translate(3.525 0.074)">
            <path id="Path_59906" data-name="Path 59906" d="M246.881,132.01q1.758,3.774,3.289,7.645a.788.788,0,0,0,.938.533.771.771,0,0,0,.533-.94q-1.6-4.054-3.442-8.009a.769.769,0,0,0-1.044-.273.781.781,0,0,0-.275,1.044Z" transform="translate(-246.789 -130.867)" fill="#7986cb"/>
          </g>
          <g id="Group_31795" data-name="Group 31795" transform="translate(0 0.093)">
            <path id="Path_59907" data-name="Path 59907" d="M246.942,131.439a29.361,29.361,0,0,0-1.881,7.358.766.766,0,0,0,.763.763.781.781,0,0,0,.763-.763,27.9,27.9,0,0,1,1.826-6.953.768.768,0,0,0-.533-.938.782.782,0,0,0-.938.533Z" transform="translate(-245.057 -130.877)" fill="#7986cb"/>
          </g>
        </g>
        <g id="Group_31797" data-name="Group 31797" transform="translate(22.473 8.231)">
          <path id="Path_59908" data-name="Path 59908" d="M241,162.453c1.1-8.636,2.282-17.606,6.322-25.446q.662-1.282,1.423-2.51a14.584,14.584,0,0,0,.987-2.021c.151-.1.535.033.712,0a24.883,24.883,0,0,1,4.176,0h26.034c1.923,0,1.292-.047,2.39,1.669a43.087,43.087,0,0,1,5.068,11.956c2.357,8.693,3.2,17.868,4.148,26.8.529,4.978.92,9.975.973,14.984.033,3.016-2.127,4.341-4.494,5.764a33.916,33.916,0,0,1-6.281,2.947c-5.609,1.96-11.349,1.919-17.219,1.852-7.358-.083-14.078-.466-20.712-4.077-2.731-1.486-5.79-3.037-5.754-6.487.031-2.837.169-5.673.379-8.5.419-5.664,1.132-11.3,1.848-16.934.122-.973-1.4-.963-1.526,0-.716,5.632-1.429,11.27-1.848,16.934-.2,2.662-.334,5.329-.375,8-.028,1.956-.226,3.446,1.3,4.816,5.449,4.895,12.894,7.164,20.06,7.567,5.892.332,12.106.639,17.976-.138a34.127,34.127,0,0,0,11.461-3.833,27.331,27.331,0,0,0,5.41-3.6c1.4-1.262,1.323-2.491,1.3-4.315-.112-10.517-1.5-21.076-3.041-31.466a80.472,80.472,0,0,0-3.1-13.914,45.592,45.592,0,0,0-2.249-5.534c-.786-1.6-2.009-4.777-3.548-5.8-.639-.427-1.681-.224-2.416-.224H251.124c-1.889,0-2.041.238-3.248,2.08-5.7,8.7-7.109,19.332-8.4,29.423C239.353,163.424,240.88,163.415,241,162.453Z" transform="translate(-237.231 -130.901)" fill="#7986cb"/>
        </g>
        <g id="Group_31798" data-name="Group 31798" transform="translate(78.698 66.794)">
          <path id="Path_59909" data-name="Path 59909" d="M265.048,161.007A277.755,277.755,0,0,1,287.218,191.1c.527.826,1.85.061,1.319-.769a280.491,280.491,0,0,0-22.411-30.4c-.635-.751-1.71.334-1.079,1.079Z" transform="translate(-264.856 -159.674)" fill="#7986cb"/>
        </g>
        <g id="Group_31804" data-name="Group 31804" transform="translate(42.062 79.43)">
          <g id="Group_31799" data-name="Group 31799" transform="translate(41.527 4.341)">
            <path id="Path_59910" data-name="Path 59910" d="M278.6,187.142q-4.964-9.373-9.924-18.745c-.458-.869-1.777-.1-1.317.771q4.961,9.37,9.922,18.743c.46.869,1.777.1,1.319-.769Z" transform="translate(-267.259 -168.016)" fill="#7986cb"/>
          </g>
          <g id="Group_31800" data-name="Group 31800" transform="translate(27.777)">
            <path id="Path_59911" data-name="Path 59911" d="M276.246,196.037a279.84,279.84,0,0,0-14.321-29.779c-.478-.859-1.8-.09-1.319.769a276.269,276.269,0,0,1,14.168,29.415c.368.9,1.846.5,1.472-.405Z" transform="translate(-260.503 -165.883)" fill="#7986cb"/>
          </g>
          <g id="Group_31801" data-name="Group 31801" transform="translate(22.357 10.55)">
            <path id="Path_59912" data-name="Path 59912" d="M257.884,172q4.152,12.261,8.119,24.589c.3.93,1.773.533,1.472-.407q-3.966-12.325-8.119-24.589c-.313-.924-1.787-.527-1.472.407Z" transform="translate(-257.84 -171.066)" fill="#7986cb"/>
          </g>
          <g id="Group_31802" data-name="Group 31802" transform="translate(13.254 5.201)">
            <path id="Path_59913" data-name="Path 59913" d="M253.37,169.172q1.258,16.563,2.514,33.127c.073.973,1.6.981,1.526,0q-1.258-16.566-2.514-33.127c-.073-.975-1.6-.983-1.527,0Z" transform="translate(-253.368 -168.438)" fill="#7986cb"/>
          </g>
          <g id="Group_31803" data-name="Group 31803" transform="translate(0 14.01)">
            <path id="Path_59914" data-name="Path 59914" d="M248.3,173.5c-.24,8.113-1.274,16.177-1.445,24.294a.764.764,0,0,0,1.527,0c.171-8.117,1.2-16.181,1.445-24.294a.764.764,0,0,0-1.527,0Z" transform="translate(-246.856 -172.766)" fill="#7986cb"/>
          </g>
        </g>
        <g id="Group_31805" data-name="Group 31805" transform="translate(0.013 66.794)">
          <path id="Path_59915" data-name="Path 59915" d="M248.729,159.928a280.461,280.461,0,0,0-22.409,30.4c-.531.83.79,1.6,1.317.769a277.773,277.773,0,0,1,22.173-30.091c.631-.745-.444-1.83-1.081-1.079Z" transform="translate(-226.196 -159.674)" fill="#7986cb"/>
        </g>
        <g id="Group_31806" data-name="Group 31806" transform="translate(0 97.09)">
          <path id="Path_59916" data-name="Path 59916" d="M327.377,174.756c-11.042,9.593-24.125,17.73-38.788,20.066a67.449,67.449,0,0,1-39.9-5.821,96.51,96.51,0,0,1-21.166-14.245c-.739-.641-1.824.436-1.079,1.081,11.553,10.03,25.332,18.281,40.664,20.6a68.175,68.175,0,0,0,39.915-6.033,99.4,99.4,0,0,0,21.436-14.571c.743-.645-.34-1.722-1.079-1.081Z" transform="translate(-226.19 -174.559)" fill="#7986cb"/>
        </g>
      </g>
    </g>
    <line id="Line_21" data-name="Line 21" y2="26" transform="translate(-1086.5 2397)" fill="none" stroke="#7986cb" stroke-linecap="round" stroke-width="5"/>
  </g>
</svg>
