<svg xmlns="http://www.w3.org/2000/svg" width="135.27" height="149" viewBox="0 0 135.27 149"><g transform="translate(0 11.536)"><path d="M228.354,147.9,212.434,285.366h36.048Z" transform="translate(-212.434 -147.902)" fill="#1e1d12"/></g><g transform="translate(15.919 11.536)"><path d="M249.058,147.9h99.223l20.128,137.464H269.187Z" transform="translate(-249.058 -147.902)" fill="#eee"/></g><g transform="translate(21.675 16.466)"><path d="M369.813,286.848h-88.6a.326.326,0,0,1-.323-.279L262.3,159.617a.327.327,0,0,1,.323-.373h88.6a.326.326,0,0,1,.323.279l18.589,126.952a.326.326,0,0,1-.323.373ZM281.5,286.2h87.939L350.942,159.9H263Z" transform="translate(-262.299 -159.244)" fill="#cabcb0"/></g><g transform="translate(54.939 124.582)"><path d="M398.46,417.17H341.344a1.535,1.535,0,0,1-1.515-1.291l-.984-6.129a1.535,1.535,0,0,1,1.516-1.779h57.116a1.535,1.535,0,0,1,1.516,1.292l.984,6.129A1.535,1.535,0,0,1,398.46,417.17Z" transform="translate(-338.824 -407.971)" fill="#ede4db"/></g><g transform="translate(44.71 46.264)"><g transform="translate(0 0)"><path d="M355.75,296.107q-.651,0-1.3-.01a82.617,82.617,0,0,1-15.352-1.2,2.767,2.767,0,0,1-2.123-.649c-1.617-1.2-3.276-3.979-4.673-7.815a62.262,62.262,0,0,1-3.149-14.357.323.323,0,0,0-.017-.046,63.417,63.417,0,0,1-1.8,6.765c-2.228,6.745-4.592,9.426-4.692,9.537a.164.164,0,0,1-.141.053c-4.838-.6-7.01-2.313-7.1-2.386a.164.164,0,0,1-.06-.121,79.784,79.784,0,0,1,.705-13.428l.018-.136c.013-.1.027-.2.041-.3l.005-.038c.039-.286.08-.571.122-.855a112.963,112.963,0,0,1,2.931-13.678q.158-.571.319-1.129l.07-.242.044-.153A119.363,119.363,0,0,1,325.31,240.2a.161.161,0,0,1,.063-.07l9.419-5.695.023-6.472a.162.162,0,0,1,.163-.162h19.058a.163.163,0,0,1,.156.117l1.924,6.5,11.113,5.71a.166.166,0,0,1,.055.046c.028.036,2.8,3.681,6.446,9.389l.271.426c.681,1.073,1.36,2.167,2.018,3.253l.261.432c.556.922,1.107,1.856,1.639,2.776l.166.287q.363.631.728,1.278c2.481,4.395,4.668,8.727,6.5,12.876q.247.559.489,1.125c.013.029.027.06.04.092l.012.028.112.263,0,.012a93.84,93.84,0,0,1,4.637,13.432.163.163,0,0,1-.04.153c-.069.073-1.753,1.8-6.427,2.4a.16.16,0,0,1-.126-.037c-.033-.027-3.319-2.824-7.557-9.668-1.247-2.013-2.466-4.2-3.629-6.5,2.415,10.839-.731,20.828-3.283,22.686a.162.162,0,0,1-.066.028A76.564,76.564,0,0,1,355.75,296.107Zm-16.657-1.536.028,0a82.252,82.252,0,0,0,15.325,1.2,76.75,76.75,0,0,0,14.94-1.19c1.074-.811,2.519-3.531,3.357-7.825a36.263,36.263,0,0,0-.294-14.79.365.365,0,0,1,0-.123.22.22,0,0,0,0-.023c0-.115.006-.223.007-.333,0-.033,0-.066,0-.1a.163.163,0,0,1,.31-.071l.112.226c1.231,2.476,2.53,4.82,3.86,6.967,3.913,6.318,7,9.156,7.437,9.543,4.006-.53,5.754-1.926,6.1-2.232a93.724,93.724,0,0,0-4.6-13.293l-.005-.012-.111-.262-.013-.029-.038-.089q-.243-.566-.489-1.124c-1.829-4.14-4.011-8.462-6.486-12.848q-.365-.646-.727-1.276l-.166-.286c-.53-.919-1.081-1.851-1.635-2.771l-.261-.432c-.657-1.084-1.335-2.176-2.015-3.247l-.271-.425c-3.465-5.426-6.139-8.982-6.408-9.338l-11.142-5.725a.164.164,0,0,1-.082-.1l-1.909-6.446H335.141l-.023,6.4a.162.162,0,0,1-.077.137l-.019.012-9.437,5.706a119.873,119.873,0,0,0-5.677,15.63l-.044.153c-.023.08-.046.16-.069.24q-.16.557-.318,1.127a112.535,112.535,0,0,0-2.922,13.638c-.042.283-.083.567-.122.852l-.005.038c-.014.1-.028.2-.041.3l-.018.136a79.575,79.575,0,0,0-.706,13.295,15.153,15.153,0,0,0,6.79,2.262c.369-.446,2.552-3.244,4.571-9.357a63.881,63.881,0,0,0,1.916-7.339.163.163,0,0,1,.316-.014c.03.1.06.2.092.3l.076.239c0,.009.007.02.012.031a.488.488,0,0,1,.038.132,61.962,61.962,0,0,0,3.131,14.281c1.375,3.777,2.995,6.5,4.562,7.665a2.444,2.444,0,0,0,1.9.585Z" transform="translate(-315.292 -227.797)" fill="#1e1d12"/></g><g transform="translate(30.185)"><path d="M393.706,296.1a.163.163,0,0,1-.163-.159q-.013-.576-.028-1.151a.163.163,0,0,1,.159-.167.161.161,0,0,1,.167.159q.016.575.028,1.152a.163.163,0,0,1-.16.166Zm-.076-2.777a.163.163,0,0,1-.163-.158q-.021-.653-.044-1.3a.163.163,0,1,1,.326-.012q.024.65.045,1.3a.164.164,0,0,1-.158.168Zm-.108-2.932a.163.163,0,0,1-.163-.156q-.027-.653-.057-1.3a.163.163,0,0,1,.326-.015q.03.65.057,1.3a.163.163,0,0,1-.156.17Zm-.137-2.931a.163.163,0,0,1-.163-.155q-.034-.653-.07-1.3a.163.163,0,0,1,.326-.018q.036.649.07,1.3a.163.163,0,0,1-.154.171Zm-.164-2.93a.163.163,0,0,1-.163-.153q-.039-.653-.081-1.3a.163.163,0,0,1,.325-.021q.042.649.082,1.3a.163.163,0,0,1-.153.173Zm-.191-2.928a.164.164,0,0,1-.163-.152q-.046-.653-.093-1.3a.163.163,0,0,1,.325-.024q.048.648.093,1.3a.163.163,0,0,1-.151.174Zm-.218-2.927a.163.163,0,0,1-.162-.15q-.051-.652-.105-1.3a.163.163,0,0,1,.325-.027q.053.647.105,1.3a.163.163,0,0,1-.15.175Zm-.243-2.925a.163.163,0,0,1-.162-.149q-.057-.652-.117-1.3a.163.163,0,0,1,.325-.03q.059.647.117,1.3a.163.163,0,0,1-.148.177Zm-.27-2.922a.163.163,0,0,1-.162-.147q-.063-.652-.128-1.3a.163.163,0,0,1,.324-.033q.065.646.128,1.3a.164.164,0,0,1-.147.178Zm-.3-2.92a.163.163,0,0,1-.162-.146q-.068-.651-.139-1.3a.163.163,0,0,1,.324-.035q.07.645.139,1.3a.163.163,0,0,1-.145.179Zm-.32-2.917a.163.163,0,0,1-.162-.145q-.074-.651-.15-1.295a.163.163,0,0,1,.323-.038q.076.644.15,1.3a.163.163,0,0,1-.143.18Zm-.345-2.915a.163.163,0,0,1-.162-.143q-.08-.651-.161-1.294a.163.163,0,1,1,.323-.041q.082.643.161,1.295a.163.163,0,0,1-.142.182Zm-.369-2.912a.163.163,0,0,1-.162-.142q-.085-.651-.172-1.292a.163.163,0,0,1,.323-.044q.087.642.173,1.294a.163.163,0,0,1-.14.183Zm-.394-2.908a.163.163,0,0,1-.161-.14q-.091-.651-.183-1.291a.163.163,0,0,1,.323-.046q.093.64.183,1.292a.163.163,0,0,1-.139.184Zm-.419-2.9a.163.163,0,0,1-.161-.139q-.1-.651-.194-1.289a.163.163,0,1,1,.323-.049q.1.639.194,1.291a.163.163,0,0,1-.137.185Zm-.443-2.9a.163.163,0,0,1-.161-.138q-.1-.651-.2-1.288a.163.163,0,1,1,.322-.052q.1.638.2,1.289a.163.163,0,0,1-.136.186Zm-.468-2.9a.163.163,0,0,1-.16-.136q-.108-.651-.216-1.286a.163.163,0,1,1,.322-.055q.108.636.216,1.288a.163.163,0,0,1-.134.187Zm-.492-2.894a.163.163,0,0,1-.16-.135q-.114-.651-.227-1.284a.163.163,0,1,1,.321-.057q.113.633.227,1.285a.163.163,0,0,1-.133.189Zm-.518-2.89a.163.163,0,0,1-.16-.133q-.12-.653-.239-1.282a.163.163,0,1,1,.32-.06q.119.63.239,1.283a.164.164,0,0,1-.131.19Zm-.544-2.885a.163.163,0,0,1-.16-.132q-.126-.655-.25-1.28a.163.163,0,0,1,.32-.063q.124.626.251,1.281a.164.164,0,0,1-.129.191A.153.153,0,0,1,387.692,240.878Zm-.571-2.88a.163.163,0,0,1-.16-.13q-.134-.659-.263-1.278a.163.163,0,1,1,.319-.067q.129.619.263,1.279a.163.163,0,0,1-.127.192A.138.138,0,0,1,387.121,238Zm-.6-2.875a.163.163,0,0,1-.16-.129q-.143-.666-.276-1.275a.163.163,0,0,1,.318-.07q.134.609.277,1.277a.163.163,0,0,1-.126.193A.152.152,0,0,1,386.521,235.123Zm-.633-2.868a.163.163,0,0,1-.159-.127q-.157-.691-.293-1.271a.163.163,0,1,1,.317-.074q.136.582.293,1.274a.163.163,0,0,1-.123.2A.173.173,0,0,1,385.888,232.255Zm-.672-2.861a.163.163,0,0,1-.158-.125c-.2-.822-.316-1.264-.318-1.268a.163.163,0,0,1,.316-.083s.117.448.319,1.274a.163.163,0,0,1-.12.2A.171.171,0,0,1,385.216,229.394Z" transform="translate(-384.735 -227.796)" fill="#1e1d12"/></g><g transform="translate(4.183 26.708)"><path d="M351.473,292.388a.163.163,0,1,1,0-.326l1.3,0h0a.163.163,0,0,1,0,.326l-1.305,0Zm-1.63,0h0q-.656,0-1.305-.01a.163.163,0,0,1,0-.326h0q.648.007,1.3.01a.163.163,0,0,1,0,.326Zm4.564-.015a.163.163,0,0,1,0-.326q.649-.009,1.3-.02a.165.165,0,0,1,.166.16.163.163,0,0,1-.16.166q-.653.012-1.3.02Zm-7.5-.017h0q-.657-.01-1.3-.024a.163.163,0,0,1,0-.326h0q.647.014,1.3.024a.163.163,0,0,1,0,.326Zm10.431-.038a.163.163,0,0,1,0-.326q.651-.016,1.3-.037a.163.163,0,1,1,.01.326q-.653.021-1.3.037Zm-13.366-.023h0q-.659-.017-1.3-.036a.163.163,0,0,1,0-.326h.005l1.3.036a.163.163,0,0,1,0,.326Zm16.3-.072a.163.163,0,0,1-.007-.326q.652-.025,1.3-.056a.161.161,0,0,1,.17.155.163.163,0,0,1-.155.17q-.652.031-1.3.057Zm-19.234-.017h-.006q-.661-.023-1.3-.048a.163.163,0,1,1,.013-.326l1.3.048a.163.163,0,0,1-.005.326Zm-2.934-.115H338.1q-.664-.029-1.3-.06a.163.163,0,1,1,.016-.326q.639.031,1.3.06a.163.163,0,0,1-.007.326Zm25.1-.008a.163.163,0,0,1-.009-.326q.653-.037,1.3-.078a.16.16,0,0,1,.173.152.163.163,0,0,1-.152.173q-.651.041-1.3.078Zm-28.033-.133h-.009l-1.3-.071a.163.163,0,0,1-.154-.172.165.165,0,0,1,.172-.154l1.3.071a.163.163,0,0,1-.008.326Zm30.964-.057a.163.163,0,0,1-.012-.326q.652-.048,1.3-.1a.163.163,0,0,1,.027.325q-.649.054-1.3.1Zm-33.9-.109h-.01q-.679-.041-1.3-.082a.163.163,0,0,1,.021-.326q.624.041,1.3.082a.163.163,0,0,1-.01.326Zm36.82-.139a.163.163,0,0,1-.015-.326q.652-.062,1.3-.13a.163.163,0,0,1,.034.324q-.646.069-1.3.131Zm-39.75-.053H329.3c-.469-.033-.9-.065-1.3-.095a.163.163,0,0,1,.024-.325q.6.045,1.3.095a.163.163,0,0,1-.011.326Zm-2.929-.222h-.013c-.835-.068-1.3-.112-1.3-.112a.163.163,0,1,1,.03-.324s.469.043,1.3.111a.163.163,0,0,1-.013.326Zm45.6-.04a.163.163,0,0,1-.02-.325c.433-.052.868-.107,1.292-.164a.163.163,0,0,1,.043.323c-.426.057-.862.113-1.3.165Zm2.908-.395a.163.163,0,0,1-.024-.324c.43-.065.862-.134,1.286-.2a.163.163,0,1,1,.054.322c-.425.071-.859.14-1.291.206Zm2.893-.492a.163.163,0,0,1-.03-.323c.432-.082.862-.168,1.276-.255a.163.163,0,1,1,.067.319c-.416.088-.848.174-1.282.257A.145.145,0,0,1,377.779,290.442Zm2.87-.613a.163.163,0,0,1-.038-.322c.353-.084.705-.173,1.046-.263a.163.163,0,0,1,.083.316c-.343.09-.7.179-1.053.264A.163.163,0,0,1,380.648,289.83Z" transform="translate(-324.914 -289.24)" fill="#1e1d12"/></g></g><g transform="translate(39.065 35.95)"><g transform="translate(2.553 1.221)"><path d="M367.532,207.2h-59.19a.163.163,0,1,1,0-.326h59.19a.163.163,0,0,1,0,.326Z" transform="translate(-308.179 -206.877)" fill="#1e1d12"/></g><path d="M305.092,204.067v2.768l-2.786-1.384Z" transform="translate(-302.306 -204.067)" fill="#1e1d12"/><g transform="translate(61.631)"><path d="M444.093,204.067v2.768l2.786-1.384Z" transform="translate(-444.093 -204.067)" fill="#1e1d12"/></g></g><g transform="translate(29.731 40.99)"><g transform="translate(1.195 2.521)"><path d="M295.206,297.907a.163.163,0,0,1-.161-.139L283.584,221.65a.163.163,0,1,1,.322-.049l11.462,76.118a.163.163,0,0,1-.137.186Z" transform="translate(-283.582 -221.463)" fill="#1e1d12"/></g><path d="M283.57,218.207l-2.736.419.947-2.963Z" transform="translate(-280.833 -215.662)" fill="#1e1d12"/><g transform="translate(11.365 77.794)"><path d="M309.715,394.633l-2.736.419,1.79,2.544Z" transform="translate(-306.979 -394.633)" fill="#1e1d12"/></g></g><g transform="translate(18.024)"><g transform="translate(11.986 16.626)"><circle cx="3.202" cy="3.202" r="3.202" transform="translate(0 2.381) rotate(-21.823)" fill="#1e1d12"/></g><path d="M265.908,121.372A11.558,11.558,0,0,0,253.9,132.891H257a8.441,8.441,0,1,1,12.75,7.272,1.539,1.539,0,0,0-.742,1.324h0a1.554,1.554,0,0,0,2.353,1.331,11.544,11.544,0,0,0-5.459-21.446Z" transform="translate(-253.9 -121.363)" fill="#605e4b"/><g transform="translate(23.745)"><g transform="translate(12.298 16.939)"><circle cx="3.202" cy="3.202" r="3.202" transform="translate(0 6.234) rotate(-76.76)" fill="#1e1d12"/></g><path d="M320.534,121.372a11.558,11.558,0,0,0-12.007,11.518h3.1a8.441,8.441,0,1,1,12.751,7.272,1.538,1.538,0,0,0-.742,1.324h0a1.553,1.553,0,0,0,2.353,1.331,11.544,11.544,0,0,0-5.459-21.446Z" transform="translate(-308.527 -121.363)" fill="#605e4b"/></g><g transform="translate(47.49)"><g transform="translate(11.962 16.602)"><circle cx="3.202" cy="3.202" r="3.202" transform="translate(0 2.462) rotate(-22.607)" fill="#1e1d12"/></g><path d="M375.162,121.372a11.558,11.558,0,0,0-12.008,11.518h3.105a8.441,8.441,0,1,1,12.75,7.272,1.538,1.538,0,0,0-.742,1.324h0a1.554,1.554,0,0,0,2.353,1.331,11.544,11.544,0,0,0-5.459-21.446Z" transform="translate(-363.154 -121.363)" fill="#605e4b"/></g><g transform="translate(71.235)"><g transform="translate(12.041 16.682)"><circle cx="3.202" cy="3.202" r="3.202" transform="translate(0 2.201) rotate(-20.1)" fill="#1e1d12"/></g><path d="M429.789,121.372a11.559,11.559,0,0,0-12.008,11.518h3.105a8.441,8.441,0,1,1,12.75,7.272,1.538,1.538,0,0,0-.742,1.324h0a1.553,1.553,0,0,0,2.353,1.331,11.544,11.544,0,0,0-5.459-21.446Z" transform="translate(-417.781 -121.363)" fill="#605e4b"/></g></g></svg>