<svg xmlns="http://www.w3.org/2000/svg" width="110" height="65" viewBox="0 0 110 65"><g transform="translate(-585.417 -337.749)"><path d="M589.008,340.44l26.334-1.318,26.352-.862c8.786-.224,17.574-.725,26.363-.41a258.438,258.438,0,0,1,26.342,2,.193.193,0,0,1,.16.218.189.189,0,0,1-.16.172c-8.8.954-17.575,1.294-26.352,1.52-8.778.242-17.556-.247-26.334-.37l-26.342-.311-26.352-.246a.189.189,0,0,1-.182-.2h0A.191.191,0,0,1,589.008,340.44Z" fill="#7986cb"/><path d="M588.161,345.5l25.916-.782,25.916-.587c8.639-.175,17.278-.671,25.918-.391,8.639.263,17.278.682,25.916,1.756a.192.192,0,0,1,.161.215v0a.19.19,0,0,1-.16.174c-8.638,1.075-17.277,1.5-25.916,1.756-8.64.277-17.279-.218-25.918-.391l-25.916-.587-25.916-.782a.2.2,0,0,1,0-.391Z" fill="#7986cb"/><path d="M588,394.538l25.916-.782,25.916-.587c8.639-.175,17.278-.67,25.918-.39,8.639.262,17.278.681,25.916,1.755a.193.193,0,0,1,.161.216h0a.191.191,0,0,1-.16.174c-8.638,1.076-17.277,1.5-25.916,1.756-8.64.277-17.279-.217-25.918-.391l-25.916-.587L588,394.921a.2.2,0,0,1,0-.391Z" fill="#7986cb"/><path d="M588.161,365.279l25.916-.782,25.916-.587c8.639-.173,17.278-.669,25.918-.391,8.639.262,17.278.684,25.916,1.756a.2.2,0,0,1,.161.219.191.191,0,0,1-.161.172c-8.638,1.077-17.277,1.5-25.916,1.756-8.64.277-17.279-.216-25.918-.391l-25.916-.587-25.916-.782a.19.19,0,0,1-.178-.2h0A.191.191,0,0,1,588.161,365.279Z" fill="#7986cb"/><path d="M588.161,370.569l25.916-.782,25.916-.587c8.639-.173,17.278-.669,25.918-.391,8.639.262,17.278.682,25.916,1.756a.2.2,0,0,1,.161.219.191.191,0,0,1-.161.172c-8.638,1.077-17.277,1.5-25.916,1.756-8.64.277-17.279-.216-25.918-.391l-25.916-.587-25.916-.782a.189.189,0,0,1-.178-.2v0A.191.191,0,0,1,588.161,370.569Z" fill="#7986cb"/><path d="M691.989,400.7v0a.189.189,0,0,1-.178.2l-25.917.781-25.916.587c-8.638.176-17.277.668-25.918.391-8.638-.259-17.277-.678-25.916-1.756a.191.191,0,0,1-.16-.172.2.2,0,0,1,.16-.219c8.639-1.073,17.278-1.494,25.916-1.755,8.641-.278,17.28.217,25.918.391l25.916.586,25.917.782A.192.192,0,0,1,691.989,400.7Z" fill="#7986cb"/><path d="M588.161,382.969l25.916-.781,25.916-.587c8.639-.176,17.278-.671,25.918-.391,8.639.262,17.278.682,25.916,1.756a.192.192,0,0,1,.161.215v0a.191.191,0,0,1-.16.174c-8.638,1.075-17.277,1.5-25.916,1.755-8.64.277-17.279-.217-25.918-.391l-25.916-.586-25.916-.782a.194.194,0,0,1-.17-.209.19.19,0,0,1,.17-.182Z" fill="#7986cb"/><path d="M695.242,352.974q-13.718-.068-27.424.184-13.705.153-27.4.628c-9.13.294-18.244,1.016-27.374,1.073s-18.268.092-27.454-.437a.2.2,0,0,1-.019-.39,245.787,245.787,0,0,1,27.345-3.081c9.143-.612,18.31-.346,27.464-.293q13.731.114,27.453.545,13.718.531,27.417,1.381a.193.193,0,0,1,.165.213.189.189,0,0,1-.176.177Z" fill="#7986cb"/><path d="M695.242,360.106q-13.718-.07-27.424.185-13.705.153-27.4.627c-9.13.3-18.244,1.017-27.374,1.073s-18.268.093-27.454-.436a.193.193,0,0,1-.172-.207.19.19,0,0,1,.153-.185,246.043,246.043,0,0,1,27.346-3.081c9.143-.613,18.31-.348,27.464-.292q13.73.111,27.453.545,13.716.529,27.417,1.38a.193.193,0,0,1,.165.213.189.189,0,0,1-.176.178Z" fill="#7986cb"/><path d="M695.242,389.738q-13.718-.07-27.424.185-13.705.151-27.4.627c-9.13.3-18.244,1.017-27.374,1.073s-18.268.092-27.454-.436a.193.193,0,0,1-.172-.207.19.19,0,0,1,.153-.185,246.043,246.043,0,0,1,27.346-3.081c9.143-.613,18.31-.348,27.464-.293q13.73.113,27.453.546,13.716.529,27.417,1.38a.193.193,0,0,1,.165.213.189.189,0,0,1-.176.178Z" fill="#7986cb"/><path d="M695.242,377.132q-13.718-.067-27.424.185-13.705.156-27.4.627c-9.13.3-18.244,1.017-27.374,1.073-9.132.072-18.268.093-27.454-.436a.2.2,0,0,1-.019-.391,245.792,245.792,0,0,1,27.345-3.08c9.143-.612,18.31-.347,27.464-.293q13.731.114,27.453.545,13.718.529,27.417,1.38a.193.193,0,0,1,.165.213.189.189,0,0,1-.176.178Z" fill="#7986cb"/></g></svg>