<svg xmlns="http://www.w3.org/2000/svg" width="110" height="70" viewBox="0 0 110 70"><g transform="translate(-584.417 -537.037)"><path d="M586.09,567.785l24.117-8.723,24.253-8.326c8.1-2.719,16.136-5.682,24.379-7.922s16.526-4.327,24.988-5.775a.178.178,0,0,1,.2.151.184.184,0,0,1-.106.2c-7.921,3.368-15.987,6.189-24.081,8.908s-16.368,4.814-24.556,7.218l-24.543,7.278L586.2,568.127a.174.174,0,0,1-.219-.12v0A.182.182,0,0,1,586.09,567.785Z" fill="#7986cb"/><path d="M586.617,572.53l23.869-8.128,23.921-7.951c7.977-2.634,15.871-5.551,23.97-7.779,8.092-2.246,16.226-4.348,24.529-5.868a.179.179,0,0,1,.206.148h0a.182.182,0,0,1-.1.2c-7.743,3.434-15.659,6.286-23.615,9s-16.105,4.762-24.173,7.083l-24.224,6.91L586.72,572.88a.179.179,0,0,1-.218-.127A.181.181,0,0,1,586.617,572.53Z" fill="#7986cb"/><path d="M591.755,590.117l23.869-8.128,23.92-7.951c7.978-2.633,15.872-5.551,23.971-7.78,8.092-2.245,16.225-4.347,24.529-5.865a.178.178,0,0,1,.2.152.185.185,0,0,1-.1.194c-7.744,3.434-15.66,6.286-23.615,9s-16.1,4.762-24.173,7.083l-24.224,6.91-24.276,6.736a.175.175,0,0,1-.219-.121.181.181,0,0,1,.117-.226Z" fill="#7986cb"/><path d="M593.129,594.82,617,586.694l23.92-7.953c7.979-2.632,15.871-5.551,23.971-7.78s16.226-4.345,24.529-5.866a.18.18,0,0,1,.2.154.185.185,0,0,1-.1.195c-7.744,3.433-15.659,6.285-23.615,9s-16.1,4.763-24.173,7.084l-24.224,6.91-24.276,6.735a.178.178,0,0,1-.217-.129A.185.185,0,0,1,593.129,594.82Z" fill="#7986cb"/><path d="M596.595,606.681l23.869-8.126,23.919-7.953c7.979-2.632,15.871-5.551,23.97-7.778,8.092-2.245,16.225-4.347,24.528-5.867a.178.178,0,0,1,.205.15.185.185,0,0,1-.1.2c-7.744,3.434-15.659,6.286-23.615,9s-16.1,4.762-24.173,7.083L620.97,600.3,596.7,607.033a.179.179,0,0,1-.21-.141.185.185,0,0,1,.108-.208Z" fill="#7986cb"/><path d="M688.018,548.47q-12.758,3.869-25.424,8.025-12.69,4.068-25.286,8.416c-8.4,2.881-16.681,6.135-25.147,8.8-8.464,2.683-16.945,5.318-25.607,7.485a.176.176,0,0,1-.213-.132v0a.185.185,0,0,1,.093-.207,251.818,251.818,0,0,1,24.6-10.579c8.334-3.168,16.917-5.559,25.432-8.135q12.783-3.84,25.64-7.388,12.879-3.464,25.823-6.633a.177.177,0,0,1,.213.135.183.183,0,0,1-.121.215Z" fill="#7986cb"/><path d="M689.87,554.813q-12.758,3.869-25.423,8.026-12.69,4.068-25.287,8.414c-8.4,2.881-16.68,6.135-25.148,8.8s-16.943,5.32-25.606,7.485a.178.178,0,0,1-.216-.133.185.185,0,0,1,.095-.209,251.6,251.6,0,0,1,24.6-10.581c8.333-3.166,16.918-5.557,25.432-8.133q12.783-3.838,25.64-7.389,12.882-3.462,25.826-6.633a.176.176,0,0,1,.215.13.181.181,0,0,1-.125.221h0Z" fill="#7986cb"/><path d="M694.293,569.954q-12.758,3.869-25.424,8.025-12.689,4.068-25.285,8.415c-8.4,2.882-16.682,6.139-25.148,8.8-8.465,2.683-16.944,5.32-25.606,7.485a.178.178,0,0,1-.216-.132.185.185,0,0,1,.1-.209,251.466,251.466,0,0,1,24.6-10.58c8.331-3.167,16.916-5.56,25.431-8.135q12.781-3.839,25.639-7.387,12.88-3.463,25.825-6.634a.177.177,0,0,1,.208.142.183.183,0,0,1-.118.209Z" fill="#7986cb"/><path d="M593.242,544.393l25.409,2.919,25.361,3.338c8.446,1.17,16.935,2.09,25.308,3.755s16.716,3.488,24.945,5.961a.181.181,0,0,1,.121.222v0a.179.179,0,0,1-.18.133c-8.558-.505-17.016-1.566-25.454-2.737-8.44-1.155-16.771-2.976-25.168-4.466L618.4,549.11l-25.2-4.357a.178.178,0,0,1-.148-.2v-.006A.18.18,0,0,1,593.242,544.393Z" fill="#7986cb"/><path d="M591.711,548.9l24.932,3.345,24.906,3.523c8.3,1.193,16.642,2.095,24.876,3.7S682.876,562.8,691,565.144a.184.184,0,0,1,.121.228.179.179,0,0,1-.177.131c-8.427-.366-16.761-1.334-25.072-2.448-8.313-1.1-16.516-2.906-24.765-4.419l-24.738-4.6-24.707-4.777a.182.182,0,0,1-.142-.211h0A.18.18,0,0,1,591.711,548.9Z" fill="#7986cb"/><path d="M588.9,567.037l24.931,3.345,24.906,3.523c8.3,1.192,16.643,2.095,24.876,3.7s16.452,3.335,24.572,5.674a.183.183,0,0,1,.12.227.178.178,0,0,1-.175.132c-8.427-.367-16.76-1.334-25.072-2.449-8.312-1.1-16.517-2.905-24.766-4.419l-24.738-4.6-24.711-4.777a.182.182,0,0,1-.13-.221.177.177,0,0,1,.186-.138Z" fill="#7986cb"/><path d="M588.154,571.887l24.931,3.345,24.9,3.523c8.3,1.194,16.643,2.095,24.878,3.7s16.45,3.335,24.572,5.674a.181.181,0,0,1,.123.224h0a.181.181,0,0,1-.178.135c-8.427-.367-16.761-1.334-25.072-2.449-8.314-1.1-16.517-2.9-24.766-4.419l-24.738-4.6L588.1,572.245a.183.183,0,0,1-.141-.213A.181.181,0,0,1,588.154,571.887Z" fill="#7986cb"/><path d="M586.259,584.118l24.932,3.344,24.905,3.523c8.3,1.193,16.643,2.094,24.878,3.7s16.45,3.332,24.57,5.673a.185.185,0,0,1,.12.228.178.178,0,0,1-.175.131c-8.426-.366-16.76-1.335-25.072-2.448s-16.517-2.906-24.766-4.419l-24.738-4.6-24.706-4.777a.18.18,0,0,1-.148-.207.178.178,0,0,1,.2-.152Z" fill="#7986cb"/><path d="M693.205,572.533q-13.127-2.214-26.29-4.129-13.147-2.007-26.331-3.717c-8.785-1.16-17.617-1.928-26.369-3.307s-17.507-2.775-26.23-4.7a.184.184,0,0,1,.037-.362,248.591,248.591,0,0,1,26.628,1.461c8.842.869,17.589,2.55,26.343,4.037q13.137,2.253,26.216,4.8,13.065,2.636,26.063,5.563a.182.182,0,0,1,.124.223.176.176,0,0,1-.191.133Z" fill="#7986cb"/><path d="M692.193,579.073q-13.125-2.211-26.289-4.13-13.15-2-26.331-3.717c-8.787-1.16-17.617-1.926-26.371-3.3s-17.507-2.775-26.228-4.7a.183.183,0,0,1-.136-.218.178.178,0,0,1,.171-.144,248.353,248.353,0,0,1,26.629,1.459c8.844.872,17.589,2.552,26.343,4.037q13.137,2.254,26.215,4.8,13.065,2.637,26.064,5.563a.182.182,0,0,1,.125.222.178.178,0,0,1-.192.134Z" fill="#7986cb"/><path d="M689.776,594.685q-13.125-2.211-26.29-4.129-13.149-2-26.332-3.718c-8.786-1.159-17.617-1.925-26.369-3.3-8.754-1.365-17.508-2.775-26.229-4.7a.183.183,0,0,1-.135-.218.176.176,0,0,1,.171-.143,247.847,247.847,0,0,1,26.629,1.459c8.844.871,17.589,2.551,26.343,4.036q13.135,2.254,26.216,4.8,13.065,2.638,26.064,5.563a.182.182,0,0,1,.124.223.176.176,0,0,1-.191.133Z" fill="#7986cb"/></g></svg>