<svg xmlns="http://www.w3.org/2000/svg" width="50" height="40" viewBox="0 0 50 40"><g transform="translate(-721.378 -483.661)"><rect width="50" height="40" transform="translate(721.378 483.661)" fill="none"/><path d="M751.541,512.187a5.829,5.829,0,1,0,8.085,1.6,5.83,5.83,0,0,0-8.085-1.6Z" fill="#88c9f7" fill-rule="evenodd"/><path d="M733.138,513.791a5.83,5.83,0,1,0,8.095-1.564h0a5.83,5.83,0,0,0-8.094,1.565Z" fill="#88c9f7" fill-rule="evenodd"/><path d="M736.033,515.748a2.335,2.335,0,1,0,3.243-.627h0A2.335,2.335,0,0,0,736.033,515.748Z" fill="#49aaee" fill-rule="evenodd"/><path d="M752.846,515.724a2.335,2.335,0,1,0,3.242-.626h0a2.334,2.334,0,0,0-3.241.625Z" fill="#49aaee" fill-rule="evenodd"/><path d="M749.652,513.45l-14.167-18.388c-2.57-3.336-1.392-8.279,2.107-10.62l15.84,26.481Z" fill="#a4b0c0" fill-rule="evenodd"/><path d="M743.117,513.5l14.259-18.316c2.587-3.322,1.434-8.271-2.055-10.63l-15.971,26.4Z" fill="#d0d7df" fill-rule="evenodd"/><path d="M735.386,515.312a3.116,3.116,0,1,0,4.327-.837h0a3.1,3.1,0,0,0-4.307.81Zm3.451.458a1.554,1.554,0,1,1-2.157.418h0A1.552,1.552,0,0,1,738.837,515.77Z" fill-rule="evenodd"/><path d="M752.2,515.287a3.113,3.113,0,1,0,1.989-1.314A3.112,3.112,0,0,0,752.2,515.287Zm3.451.458a1.553,1.553,0,1,1-1.165-.238,1.553,1.553,0,0,1,1.165.238Z" fill-rule="evenodd"/><path d="M737.764,483.68a.782.782,0,0,0-.606.113,8.7,8.7,0,0,0-3.732,5.8,7.61,7.61,0,0,0,1.439,5.942l7.224,9.376-3.374,5.573a6.606,6.606,0,1,0,5.067,3.423l2.633-3.383,2.565,3.33a6.613,6.613,0,1,0,5.085-3.4l-3.3-5.518,7.227-9.28a7.488,7.488,0,0,0,1.572-4.64,8.3,8.3,0,0,0-.1-1.3,8.7,8.7,0,0,0-3.7-5.823.782.782,0,0,0-1.085.211l-.021.033-2.6,4.311a.781.781,0,0,0,1.336.809l2.155-3.564a7.134,7.134,0,0,1,2.378,4.271,6.053,6.053,0,0,1-1.158,4.729l-13.81,17.744-2.544-1.723,9.742-16.1a.782.782,0,1,0-1.312-.85l-.025.041-2.364,3.908-8.179-13.676a.785.785,0,0,0-.5-.362Zm21.214,30.544a5.048,5.048,0,1,1-7-1.389h0a5.022,5.022,0,0,1,6.973,1.347Zm-6.6-3.539-2.554,1.708-2.417-3.137,2.328-2.991Zm-9.363,6.377a5.048,5.048,0,1,1-2.221-4.187A5.049,5.049,0,0,1,743.016,517.062Zm2.511-17.831-2.571,4.249-6.853-8.9a6.061,6.061,0,0,1-1.134-4.735,7.134,7.134,0,0,1,2.4-4.256Z" fill-rule="evenodd"/><path d="M746.474,505.617a.782.782,0,1,0-.781-.782h0A.783.783,0,0,0,746.474,505.617Z" fill-rule="evenodd"/><path d="M751.094,492.32a.782.782,0,1,0-.782-.782h0A.784.784,0,0,0,751.094,492.32Z" fill-rule="evenodd"/></g></svg>