<svg xmlns="http://www.w3.org/2000/svg" width="131" height="131" viewBox="0 0 131 131"><g transform="translate(-578.947 -733.396)"><circle cx="65.5" cy="65.5" r="65.5" transform="translate(578.947 733.396)" fill="#fff"/><circle cx="63" cy="63" r="63" transform="translate(581.447 735.896)" fill="none" stroke="#361274" stroke-width="5"/><g style="isolation:isolate"><g style="isolation:isolate"><path d="M620,834.952V762.839h21.828a59.338,59.338,0,0,1,15.555,1.734,34.378,34.378,0,0,1,10.863,5,28.19,28.19,0,0,1,9.486,11.984,48.971,48.971,0,0,1,0,34.629,28.135,28.135,0,0,1-9.486,12.035,34.267,34.267,0,0,1-10.863,5,59.255,59.255,0,0,1-15.555,1.734ZM634.79,822h7.038q10.2,0,16.116-4.172a17.488,17.488,0,0,0,6.171-7.736,32.487,32.487,0,0,0,0-22.391,16.87,16.87,0,0,0-6.171-7.632,23.206,23.206,0,0,0-6.936-3.155,34.005,34.005,0,0,0-9.18-1.121H634.79Z" fill="#361274"/></g></g></g></svg>