<svg xmlns="http://www.w3.org/2000/svg" width="131" height="131" viewBox="0 0 131 131"><g transform="translate(-561.509 -353.396)"><circle cx="65.5" cy="65.5" r="65.5" transform="translate(561.509 353.396)" fill="#fff"/><circle cx="63" cy="63" r="63" transform="translate(564.009 355.896)" fill="none" stroke="#361274" stroke-width="5"/><g style="isolation:isolate"><g style="isolation:isolate"><path d="M643.848,416.4a20.929,20.929,0,0,1,10.043,6.323q3.586,4.285,3.587,11.935,0,7.037-2.913,11.066a19.13,19.13,0,0,1-7,6.07,26.374,26.374,0,0,1-8.585,2.6,62.874,62.874,0,0,1-7.563.561H604.54V382.839h23.816q12.164,0,18.4,4.589t6.235,13.771Q652.991,412.521,643.848,416.4Zm-5.648-12.75q0-8.668-10.146-8.67H619.33v17.34h8.724Q638.2,412.317,638.2,403.647Zm-6.582,38.76q11.069,0,11.07-9.384,0-9.486-11.07-9.486H619.33v18.87Z" fill="#361274"/></g></g></g></svg>